<?xml version="1.0" encoding="utf-8"?>
<!-- Generator: Adobe Illustrator 27.5.0, SVG Export Plug-In . SVG Version: 6.00 Build 0)  -->
<svg version="1.1" xmlns="http://www.w3.org/2000/svg" xmlns:xlink="http://www.w3.org/1999/xlink" x="0px" y="0px"
	 viewBox="0 0 500 500" style="enable-background:new 0 0 500 500;" xml:space="preserve">
<g id="BACKGROUND">
	<rect x="0.167" y="-0.055" style="fill:#FFE3D7;" width="500" height="500"/>
</g>
<g id="OBJECTS">
	<path style="fill:#EDD0C3;" d="M442.551,205.427c0-81.726-66.252-147.978-147.978-147.978c-64.132,0-118.728,40.8-139.266,97.858
		c-57.057,20.538-97.858,75.134-97.858,139.266c0,81.726,66.252,147.978,147.978,147.978c64.132,0,118.728-40.8,139.266-97.858
		C401.75,324.155,442.551,269.559,442.551,205.427z"/>
	<g>
		<g>
			<g>
				<polygon style="fill:#FFB692;" points="327.586,324.971 428.195,403.786 454.297,461.535 324.623,399.045 				"/>
				<polygon style="fill:#B77776;" points="390.625,374.354 388.434,372.638 350.804,411.061 353.314,412.871 374.399,423.032 				
					"/>
				<polygon style="fill:#7FAAF7;" points="350.58,431.992 291.962,393.326 312.834,315.085 396.099,362.987 				"/>
				<path style="fill:#FFB692;" d="M384.605,290.036c0,0,2.246-44.418,26.988-18.453c0,0,62.045,124.662,65.822,136.857
					c3.776,12.195-1.655,34.797-12.376,49.636c-11.584,16.035-37.451-15.779-41.355-24.284
					C419.779,425.289,384.605,290.036,384.605,290.036z"/>
				<g>
					<g>
						<g>
							<path style="fill:#FFB692;" d="M374.484,300.898c20.889,1.932,36.882-7.773,38.551-25.819
								c1.669-18.046-13.912-34.242-34.801-36.174c-20.889-1.932-26.799,12.309-27.362,30.424
								C350.243,289.602,353.595,298.965,374.484,300.898z"/>
						</g>
						<path style="fill:#FFB692;" d="M409.788,259.88c0,0-2.01-13.608-13.898-30.419c-4.133-5.844-4.011-16.492-3.99-23.655
							c0.008-2.728-3.102-4.254-5.294-2.628c-2.734,2.029-5.134,5.546-6.967,10.668c-3.948,11.038,0.836,29.865,0.836,29.865
							L409.788,259.88z"/>
					</g>
					<path style="fill:#F2A583;" d="M370.748,238.729c0,0-19.097,4.332-21.548,10.319c-2.149,5.247-1.355,45.626,0,47.561
						c1.355,1.936,18.847,3.336,18.847,3.336L370.748,238.729z"/>
					<path style="fill:#B77776;" d="M370.722,239.329c0,0,5.091-0.494,6.107-0.252c1.016,0.242,15.145,3.823,15.145,3.823
						s-14.226-4.935-14.661-4.935c-0.436,0-6.833,0.58-8.642,1.282C366.861,239.948,370.722,239.329,370.722,239.329z"/>
					<g>
						<path style="fill:#B77776;" d="M348.193,286.379c0.021,0.489,0.043,0.969,0.066,1.433l14.164-0.811l4.557-5.658
							c0,0-4.933,3.658-5.074,3.621C361.814,284.94,353.662,285.799,348.193,286.379z"/>
						<path style="fill:#B77776;" d="M366.334,265.516c0,0-4.325,4.36-4.47,4.344c-0.1-0.011-8.687,2.241-13.982,3.633
							c0.004,0.478,0.008,0.954,0.014,1.431l14.786-3.129L366.334,265.516z"/>
						<path style="fill:#B77776;" d="M362.168,255.466c-0.105,0-9.121,3.414-14.155,5.323c-0.016,0.479-0.031,0.96-0.043,1.454
							l15.214-4.939l2.972-6.629C366.156,250.676,362.313,255.466,362.168,255.466z"/>
					</g>
				</g>
				<polygon style="fill:#4E77D1;" points="343.066,427.036 350.58,431.992 396.099,362.987 389.454,359.164 				"/>
			</g>
			<g>
				<polygon style="fill:#FFB692;" points="172.414,324.971 71.805,403.786 45.703,461.535 175.377,399.045 				"/>
				<polygon style="fill:#B77776;" points="109.375,374.354 111.565,372.638 149.196,411.061 146.686,412.871 125.601,423.032 				
					"/>
				<polygon style="fill:#7FAAF7;" points="149.42,431.992 208.038,393.326 187.166,315.085 103.901,362.987 				"/>
				<path style="fill:#FFB692;" d="M115.395,290.036c0,0-2.246-44.418-26.988-18.453c0,0-62.045,124.662-65.822,136.857
					c-3.777,12.195,1.655,34.797,12.376,49.636c11.584,16.035,37.451-15.779,41.355-24.284
					C80.22,425.289,115.395,290.036,115.395,290.036z"/>
				<g>
					<g>
						<g>
							<path style="fill:#FFB692;" d="M125.516,300.898c-20.889,1.932-36.882-7.773-38.551-25.819
								c-1.669-18.046,13.912-34.242,34.801-36.174c20.889-1.932,26.799,12.309,27.362,30.424
								C149.757,289.602,146.405,298.965,125.516,300.898z"/>
						</g>
						<path style="fill:#FFB692;" d="M90.212,259.88c0,0,2.01-13.608,13.898-30.419c4.133-5.844,4.011-16.492,3.99-23.655
							c-0.008-2.728,3.102-4.254,5.294-2.628c2.734,2.029,5.134,5.546,6.967,10.668c3.948,11.038-0.836,29.865-0.836,29.865
							L90.212,259.88z"/>
					</g>
					<path style="fill:#F2A583;" d="M129.252,238.729c0,0,19.097,4.332,21.548,10.319c2.149,5.247,1.355,45.626,0,47.561
						c-1.355,1.936-18.847,3.336-18.847,3.336L129.252,238.729z"/>
					<path style="fill:#B77776;" d="M129.278,239.329c0,0-5.091-0.494-6.107-0.252c-1.016,0.242-15.145,3.823-15.145,3.823
						s14.226-4.935,14.661-4.935s6.833,0.58,8.642,1.282C133.139,239.948,129.278,239.329,129.278,239.329z"/>
					<g>
						<path style="fill:#B77776;" d="M151.807,286.379c-0.021,0.489-0.043,0.969-0.066,1.433l-14.164-0.811l-4.557-5.658
							c0,0,4.933,3.658,5.074,3.621C138.186,284.94,146.338,285.799,151.807,286.379z"/>
						<path style="fill:#B77776;" d="M133.666,265.516c0,0,4.325,4.36,4.47,4.344c0.1-0.011,8.687,2.241,13.982,3.633
							c-0.004,0.478-0.008,0.954-0.014,1.431l-14.786-3.129L133.666,265.516z"/>
						<path style="fill:#B77776;" d="M137.832,255.466c0.105,0,9.121,3.414,14.154,5.323c0.016,0.479,0.031,0.96,0.044,1.454
							l-15.214-4.939l-2.972-6.629C133.844,250.676,137.687,255.466,137.832,255.466z"/>
					</g>
				</g>
				<polygon style="fill:#4E77D1;" points="156.934,427.036 149.42,431.992 103.901,362.987 110.546,359.164 				"/>
			</g>
		</g>
		<g>
			<polygon style="fill:#FFFFFF;" points="411.695,132.867 396.351,191.688 430.019,141.074 			"/>
			<polygon style="fill:#FFFFFF;" points="445.965,167.287 401.516,193.344 452.029,183.188 			"/>
			<polygon style="fill:#FFFFFF;" points="365.62,144.488 391.676,188.936 381.52,138.424 			"/>
			<polygon style="fill:#FFFFFF;" points="69.981,141.074 103.649,191.688 88.305,132.867 			"/>
			<polygon style="fill:#FFFFFF;" points="47.971,183.188 98.483,193.344 54.035,167.287 			"/>
			<polygon style="fill:#FFFFFF;" points="108.324,188.936 134.38,144.488 118.48,138.424 			"/>
		</g>
		<g>
			<path style="fill:#7FAAF7;" d="M214.501,301.09c-24.338,0-44.441,19.004-45.807,43.304l-9.587,155.551h181.787l-9.587-155.551
				c-1.366-24.3-21.469-43.304-45.807-43.304H214.501z"/>
			<path style="fill:#4E77D1;" d="M253.194,372.468H250v-48.065h9.484v41.775C259.484,369.651,256.668,372.468,253.194,372.468z"/>
			<g>
				
					<ellipse transform="matrix(0.7071 -0.7071 0.7071 0.7071 -42.1097 224.5491)" style="fill:#54321A;" cx="250" cy="163.105" rx="89.952" ry="89.952"/>
				<rect x="216.706" y="219.699" style="fill:#FFB692;" width="66.589" height="102.532"/>
				<path style="fill:#D88D87;" d="M250,304.026L250,304.026c-18.388,0-33.294-14.906-33.294-33.294v-56.656h66.589v56.656
					C283.294,289.12,268.388,304.026,250,304.026z"/>
				<g>
					<path style="fill:#D88D87;" d="M317.539,210.907H181.46c-6.26,0-11.334-5.074-11.334-11.334v-0.001
						c0-6.26,5.074-11.334,11.334-11.334h136.08c6.26,0,11.334,5.075,11.334,11.334l0,0
						C328.874,205.833,323.799,210.907,317.539,210.907z"/>
					<path style="fill:#AA635F;" d="M176.06,199.573v-0.001c0-2.983,2.418-5.399,5.4-5.399H317.54c2.982,0,5.4,2.417,5.4,5.399l0,0
						c0,2.983-2.419,5.402-5.402,5.402H181.46C178.477,204.974,176.06,202.556,176.06,199.573z"/>
					<path style="fill:#FFB692;" d="M249.999,285.769L249.999,285.769c-34.942,0-58.268-27.052-58.268-60.424l-5-73.088
						c0-31.993,27.157-57.928,60.656-57.928h5.225c33.499,0,60.656,25.935,60.656,57.928l-5,73.088
						C308.267,258.716,284.942,285.769,249.999,285.769z"/>
					<path style="fill:#D88D87;" d="M187.938,140.719l125.317,11.038c-0.117-13.205-4.863-25.349-12.761-35.04H199.506
						C193.866,123.637,189.825,131.802,187.938,140.719z"/>
				</g>
				<g>
					<path style="fill:#54321A;" d="M217.353,92.252h27.748h6.489h27.749c27.718,0,50.187,29.838,50.187,66.645l0,0
						c-10.634,0-21.122-2.484-30.626-7.254l-24.867-12.482c0,0,5.414,12.081,17.776,19.559c-19.948-1.816-36.682-19.109-43.463-42.9
						c-6.781,23.792-23.515,41.084-43.463,42.9c12.362-7.477,17.776-19.559,17.776-19.559l-24.867,12.482
						c-9.504,4.77-19.991,7.254-30.626,7.254l0,0C167.166,122.09,189.635,92.252,217.353,92.252z"/>
					<path style="fill:#875330;" d="M194.046,99.878c14.73,9.409,33.649,15.074,54.3,15.074c20.651,0,39.569-5.665,54.3-15.074
						c4.839,3.377,9.208,7.772,12.953,12.971c-13.579,13.457-33.828,22.722-56.941,24.871c-4.429-6.291-7.973-13.695-10.312-21.899
						c-2.339,8.205-5.883,15.608-10.312,21.899c-23.114-2.148-43.362-11.414-56.941-24.871
						C184.838,107.649,189.207,103.254,194.046,99.878z"/>
				</g>
				<g>
					<g>
						<g>
							<path style="fill:#FFFFFF;" d="M204.224,193.959c0,8.525,6.565,13.072,14.664,13.072s14.663-4.547,14.663-13.072
								c0-8.524-6.565-12.685-14.663-12.685S204.224,185.434,204.224,193.959z"/>
							<g>
								<path style="fill:#252538;" d="M233.095,193.959c-0.206-1.77-0.62-3.478-1.405-4.972c-0.764-1.498-1.865-2.777-3.211-3.731
									c-2.704-1.917-6.166-2.661-9.591-2.667c-3.426-0.004-6.89,0.74-9.598,2.658c-1.347,0.957-2.45,2.235-3.213,3.736
									c-0.782,1.497-1.197,3.206-1.396,4.976h-0.913c-0.175-1.872,0.026-3.829,0.709-5.677c0.69-1.838,1.878-3.545,3.432-4.803
									c3.117-2.575,7.166-3.491,10.979-3.521c1.924,0.012,3.865,0.25,5.749,0.792c1.868,0.571,3.703,1.426,5.237,2.719
									c1.555,1.26,2.745,2.968,3.434,4.808c0.679,1.851,0.881,3.81,0.7,5.682H233.095z"/>
							</g>
							<path style="fill:#252538;" d="M218.9,182.52c6.436,0.007,11.647,5.229,11.64,11.664
								c-0.006,6.436-5.228,11.648-11.664,11.641c-6.435-0.006-11.648-5.229-11.641-11.664
								C207.242,187.726,212.464,182.513,218.9,182.52z"/>
						</g>
					</g>
					<g>
						<g>
							<path style="fill:#FFFFFF;" d="M292.516,193.959c0,8.525-6.565,13.072-14.663,13.072c-8.098,0-14.663-4.547-14.663-13.072
								c0-8.524,6.565-12.685,14.663-12.685C285.951,181.273,292.516,185.434,292.516,193.959z"/>
							<path style="fill:#252538;" d="M277.865,182.52c6.435,0.007,11.647,5.229,11.64,11.664
								c-0.007,6.436-5.229,11.648-11.664,11.641c-6.436-0.006-11.648-5.229-11.641-11.664
								C266.206,187.726,271.429,182.513,277.865,182.52z"/>
							<g>
								<path style="fill:#252538;" d="M262.732,193.959c-0.182-1.872,0.02-3.83,0.7-5.682c0.69-1.841,1.879-3.548,3.434-4.808
									c1.534-1.293,3.369-2.148,5.237-2.719c1.884-0.542,3.825-0.78,5.749-0.792c3.813,0.029,7.861,0.946,10.978,3.52
									c1.554,1.258,2.742,2.965,3.432,4.803c0.683,1.848,0.884,3.806,0.709,5.677h-0.913c-0.199-1.77-0.614-3.479-1.396-4.976
									c-0.763-1.501-1.866-2.779-3.213-3.736c-2.709-1.918-6.173-2.662-9.598-2.658c-3.424,0.006-6.887,0.75-9.591,2.667
									c-1.346,0.954-2.447,2.233-3.211,3.731c-0.785,1.494-1.199,3.202-1.405,4.972H262.732z"/>
							</g>
						</g>
					</g>
					<g>
						<path style="fill:#BA726E;" d="M259.471,212.26H237.22c-1.045,0-1.892,0.847-1.892,1.893v0
							c0,7.172,5.828,12.985,13.018,12.985l0,0c7.19,0,13.018-5.814,13.018-12.985v0C261.364,213.107,260.517,212.26,259.471,212.26
							z"/>
						<g>
							<path style="fill:#D88D87;" d="M248.346,228.133L248.346,228.133c3.885,0,7.035-3.15,7.035-7.035v-27.014
								c0-3.885-3.15-7.035-7.035-7.035l0,0c-3.885,0-7.035,3.149-7.035,7.035v27.014
								C241.311,224.983,244.46,228.133,248.346,228.133z"/>
						</g>
					</g>
					<g>
						<path style="fill:#54321A;" d="M206.705,169.489c2.45-0.774,22.563-1.805,23.466-1.805c0.902,0,3.352,7.091,3.352,7.091
							s-25.786-1.289-27.076,0c-1.29,1.29-8.767,8.123-8.767,7.736C197.68,182.124,204.256,170.263,206.705,169.489z"/>
						<path style="fill:#54321A;" d="M266.52,167.684c0.902,0,21.016,1.031,23.466,1.805c2.45,0.774,9.025,12.635,9.025,13.022
							c0,0.387-7.478-6.447-8.768-7.736c-1.289-1.289-27.076,0-27.076,0S265.618,167.684,266.52,167.684z"/>
					</g>
					<g>
						<g>
							<path style="fill:#252538;" d="M236.633,231.412c6.027-0.249,14.491-1.001,22.634-3.103c5.357-1.383,9.075,5.649,5.72,10.942
								c-3.572,5.63-9.293,10.634-18.32,10.394c-7.398-0.197-11.851-2.665-14.524-5.721
								C228.361,239.598,231.261,231.634,236.633,231.412z"/>
						</g>
						<g>
							<path style="fill:#FF9292;" d="M246.667,249.645c9.026,0.24,14.748-4.763,18.32-10.394c0.503-0.794,0.829-1.626,1.033-2.464
								c-3.01-1.796-7.174-2.86-12.987-2.275c-8.978,0.905-13.974,6.591-16.754,12.627c-0.005,0.013-0.008,0.025-0.013,0.037
								C238.838,248.574,242.211,249.526,246.667,249.645z"/>
						</g>
						<g>
							<path style="fill:#FFABAB;" d="M243.233,241.857c0.706,1.609,4.113,1.753,7.611,0.321c3.497-1.433,5.76-3.899,5.054-5.508
								c-0.706-1.609-4.113-1.753-7.611-0.32C244.79,237.782,242.528,240.248,243.233,241.857z"/>
						</g>
						<g>
							<path style="fill:#FFFFFF;" d="M236.633,231.412c6.027-0.249,14.491-1.001,22.634-3.103c3.289-0.85,5.954,1.479,6.748,4.626
								c-5.049,3.56-12.42,6.063-20.755,6.603c-5.344,0.346-10.398-0.161-14.781-1.327
								C230.847,234.769,233.246,231.552,236.633,231.412z"/>
						</g>
					</g>
				</g>
			</g>
			<polygon style="fill:#FFDC8D;" points="286.69,294.599 250,318.367 213.31,294.599 202.85,302.634 217.592,345.958 250,327.155 
				282.408,345.958 297.15,302.634 			"/>
			<g>
				<circle style="fill:#FFFFFF;" cx="243.355" cy="343.08" r="3.387"/>
				<path style="fill:#FFFFFF;" d="M243.355,353.725c-1.871,0-3.387,1.516-3.387,3.387c0,1.871,1.516,3.387,3.387,3.387
					c1.871,0,3.387-1.516,3.387-3.387C246.743,355.242,245.226,353.725,243.355,353.725z"/>
			</g>
		</g>
	</g>
</g>
</svg>
