<?xml version='1.0' encoding='utf-8'?>
<svg xmlns="http://www.w3.org/2000/svg" viewBox="0 0 47 37"> <defs> <linearGradient id="a" x1=".51543" x2=".51543" y1="-.46024" y2="1.7373"> <stop stop-color="#006f9d" offset="0"/> <stop stop-color="#7bcefb" offset="1"/> </linearGradient> </defs> <g stroke-width="1.75"> <rect x="-1.7e-5" y=".61586" width="46.921" height="36.077" rx="1" ry="1" fill="#e5e7f6" stroke="#0f2965"/> <g fill="#2dabdc"> <rect x="11.743" y="13.555" width="18.379" height="2.4506" rx="1" ry="1"/> <rect transform="translate(-253.07 -186.96) scale(-1 1)" x="-261.55" y="200.51" width="4.0843" height="2.4506" rx="1" ry="1"/> <rect x="11.743" y="18.422" width="18.379" height="2.4506" rx="1" ry="1"/> <rect transform="translate(-253.07 -186.96) scale(-1 1)" x="-261.55" y="205.38" width="4.0843" height="2.4506" rx="1" ry="1"/> <rect x="11.743" y="23.289" width="18.379" height="2.4506" rx="1" ry="1"/> <rect transform="translate(-253.07 -186.96) scale(-1 1)" x="-261.55" y="210.25" width="4.0843" height="2.4506" rx="1" ry="1"/> <rect x="11.743" y="28.156" width="18.379" height="2.4506" rx="1" ry="1"/> <rect transform="translate(-253.07 -186.96) scale(-1 1)" x="-261.55" y="215.11" width="4.0843" height="2.4506" rx="1" ry="1"/> </g> <rect x="-1.7e-5" y="-.000472" width="46.921" height="7.7418" rx="1" ry="1" fill="url(#a)" stroke="#0f2965"/> <g fill="#2dabdc"> <rect x="11.743" y="18.422" width="18.379" height="2.4506" rx="1" ry="1"/> <rect transform="translate(-253.07 -186.96) scale(-1 1)" x="-261.55" y="205.38" width="4.0843" height="2.4506" rx="1" ry="1"/> </g> </g> </svg>