<svg width="20" height="17" viewBox="0 0 20 17" fill="none" xmlns="http://www.w3.org/2000/svg">
<path d="M2 16.5C1.45 16.5 0.979167 16.3042 0.5875 15.9125C0.195833 15.5208 0 15.05 0 14.5V2.5C0 1.95 0.195833 1.47917 0.5875 1.0875C0.979167 0.695833 1.45 0.5 2 0.5H18C18.55 0.5 19.0208 0.695833 19.4125 1.0875C19.8042 1.47917 20 1.95 20 2.5V14.5C20 15.05 19.8042 15.5208 19.4125 15.9125C19.0208 16.3042 18.55 16.5 18 16.5H2ZM10 9.325C10.0833 9.325 10.1708 9.3125 10.2625 9.2875C10.3542 9.2625 10.4417 9.225 10.525 9.175L17.6 4.75C17.7333 4.66667 17.8333 4.5625 17.9 4.4375C17.9667 4.3125 18 4.175 18 4.025C18 3.69167 17.8583 3.44167 17.575 3.275C17.2917 3.10833 17 3.11667 16.7 3.3L10 7.5L3.3 3.3C3 3.11667 2.70833 3.1125 2.425 3.2875C2.14167 3.4625 2 3.70833 2 4.025C2 4.19167 2.03333 4.3375 2.1 4.4625C2.16667 4.5875 2.26667 4.68333 2.4 4.75L9.475 9.175C9.55833 9.225 9.64583 9.2625 9.7375 9.2875C9.82917 9.3125 9.91667 9.325 10 9.325Z" fill="#737373"/>
</svg>
