<svg width="20" height="21" viewBox="0 0 20 21" fill="none" xmlns="http://www.w3.org/2000/svg">
<path d="M8.82156 20.5C8.37156 20.5 7.98406 20.35 7.65906 20.05C7.33406 19.75 7.13823 19.3833 7.07156 18.95L6.84656 17.3C6.6299 17.2167 6.42573 17.1167 6.23406 17C6.0424 16.8833 5.8549 16.7583 5.67156 16.625L4.12156 17.275C3.7049 17.4583 3.28823 17.475 2.87156 17.325C2.4549 17.175 2.1299 16.9083 1.89656 16.525L0.721563 14.475C0.488229 14.0917 0.421562 13.6833 0.521562 13.25C0.621562 12.8167 0.846562 12.4583 1.19656 12.175L2.52156 11.175C2.5049 11.0583 2.49656 10.9458 2.49656 10.8375V10.1625C2.49656 10.0542 2.5049 9.94167 2.52156 9.825L1.19656 8.825C0.846562 8.54167 0.621562 8.18333 0.521562 7.75C0.421562 7.31667 0.488229 6.90833 0.721563 6.525L1.89656 4.475C2.1299 4.09167 2.4549 3.825 2.87156 3.675C3.28823 3.525 3.7049 3.54167 4.12156 3.725L5.67156 4.375C5.8549 4.24167 6.04656 4.11667 6.24656 4C6.44656 3.88333 6.64656 3.78333 6.84656 3.7L7.07156 2.05C7.13823 1.61667 7.33406 1.25 7.65906 0.95C7.98406 0.65 8.37156 0.5 8.82156 0.5H11.1716C11.6216 0.5 12.0091 0.65 12.3341 0.95C12.6591 1.25 12.8549 1.61667 12.9216 2.05L13.1466 3.7C13.3632 3.78333 13.5674 3.88333 13.7591 4C13.9507 4.11667 14.1382 4.24167 14.3216 4.375L15.8716 3.725C16.2882 3.54167 16.7049 3.525 17.1216 3.675C17.5382 3.825 17.8632 4.09167 18.0966 4.475L19.2716 6.525C19.5049 6.90833 19.5716 7.31667 19.4716 7.75C19.3716 8.18333 19.1466 8.54167 18.7966 8.825L17.4716 9.825C17.4882 9.94167 17.4966 10.0542 17.4966 10.1625V10.8375C17.4966 10.9458 17.4799 11.0583 17.4466 11.175L18.7716 12.175C19.1216 12.4583 19.3466 12.8167 19.4466 13.25C19.5466 13.6833 19.4799 14.0917 19.2466 14.475L18.0466 16.525C17.8132 16.9083 17.4882 17.175 17.0716 17.325C16.6549 17.475 16.2382 17.4583 15.8216 17.275L14.3216 16.625C14.1382 16.7583 13.9466 16.8833 13.7466 17C13.5466 17.1167 13.3466 17.2167 13.1466 17.3L12.9216 18.95C12.8549 19.3833 12.6591 19.75 12.3341 20.05C12.0091 20.35 11.6216 20.5 11.1716 20.5H8.82156ZM10.0466 14C11.0132 14 11.8382 13.6583 12.5216 12.975C13.2049 12.2917 13.5466 11.4667 13.5466 10.5C13.5466 9.53333 13.2049 8.70833 12.5216 8.025C11.8382 7.34167 11.0132 7 10.0466 7C9.06323 7 8.23406 7.34167 7.55906 8.025C6.88406 8.70833 6.54656 9.53333 6.54656 10.5C6.54656 11.4667 6.88406 12.2917 7.55906 12.975C8.23406 13.6583 9.06323 14 10.0466 14Z" fill="#99A1AF"/>
</svg>
