<svg width="58" height="60" viewBox="0 0 58 60" fill="none" xmlns="http://www.w3.org/2000/svg">
<path d="M29.3505 26.5722C29.3089 26.5169 29.2556 26.4721 29.1949 26.4413C29.1341 26.4105 29.0674 26.3945 28.9998 26.3945C28.9323 26.3945 28.8656 26.4105 28.8048 26.4413C28.744 26.4721 28.6908 26.5169 28.6492 26.5722L22.4148 34.7753C22.3634 34.8436 22.3315 34.9255 22.3228 35.0117C22.314 35.0979 22.3288 35.185 22.3654 35.2629C22.402 35.3408 22.4589 35.4064 22.5296 35.4522C22.6004 35.4981 22.6821 35.5223 22.7655 35.5221H26.879V49.5548C26.879 49.8095 27.0794 50.0179 27.3244 50.0179H30.6642C30.9091 50.0179 31.1095 49.8095 31.1095 49.5548V35.5279H35.2342C35.6072 35.5279 35.8131 35.0821 35.5849 34.7811L29.3505 26.5722Z" fill="#0CAF6F"/>
<path d="M45.6658 21.2277C43.1164 14.2345 36.6204 9.26172 29.0111 9.26172C21.4019 9.26172 14.9059 14.2287 12.3564 21.2219C7.58604 22.5245 4.0625 27.0457 4.0625 32.418C4.0625 38.8149 9.04443 43.9961 15.1897 43.9961H17.4219C17.6668 43.9961 17.8672 43.7877 17.8672 43.533V40.0595C17.8672 39.8048 17.6668 39.5964 17.4219 39.5964H15.1897C13.3139 39.5964 11.5493 38.8207 10.2356 37.4139C8.92754 36.013 8.23174 34.1257 8.29297 32.169C8.34307 30.6407 8.84404 29.205 9.75137 27.9951C10.681 26.7621 11.9835 25.8647 13.4308 25.4653L15.5404 24.8922L16.3142 22.7734C16.7929 21.4535 17.4608 20.2204 18.3014 19.1031C19.1312 17.9957 20.1141 17.0222 21.2182 16.2144C23.506 14.5413 26.2001 13.6556 29.0111 13.6556C31.8222 13.6556 34.5163 14.5413 36.8041 16.2144C37.9118 17.0249 38.8915 17.9974 39.7209 19.1031C40.5614 20.2204 41.2294 21.4593 41.7081 22.7734L42.4763 24.8864L44.5804 25.4653C47.5974 26.3105 49.707 29.1645 49.707 32.418C49.707 34.3341 48.989 36.1403 47.6864 37.495C47.0476 38.1632 46.2878 38.693 45.4508 39.0537C44.6138 39.4144 43.7163 39.5989 42.8103 39.5964H40.5781C40.3332 39.5964 40.1328 39.8048 40.1328 40.0595V43.533C40.1328 43.7877 40.3332 43.9961 40.5781 43.9961H42.8103C48.9556 43.9961 53.9375 38.8149 53.9375 32.418C53.9375 27.0515 50.4251 22.536 45.6658 21.2277Z" fill="#0CAF6F"/>
</svg>
