<svg width="22" height="16" viewBox="0 0 22 16" fill="none" xmlns="http://www.w3.org/2000/svg">
<path d="M12 13.55C12.7333 13.2 13.4708 12.9375 14.2125 12.7625C14.9542 12.5875 15.7167 12.5 16.5 12.5C17.1 12.5 17.6875 12.55 18.2625 12.65C18.8375 12.75 19.4167 12.9 20 13.1V3.2C19.45 2.96667 18.8792 2.79167 18.2875 2.675C17.6958 2.55833 17.1 2.5 16.5 2.5C15.7167 2.5 14.9417 2.6 14.175 2.8C13.4083 3 12.6833 3.3 12 3.7V13.55ZM11 15.975C10.7667 15.975 10.5458 15.9458 10.3375 15.8875C10.1292 15.8292 9.93333 15.75 9.75 15.65C9.1 15.2667 8.41667 14.9792 7.7 14.7875C6.98333 14.5958 6.25 14.5 5.5 14.5C4.8 14.5 4.1125 14.5917 3.4375 14.775C2.7625 14.9583 2.11667 15.2167 1.5 15.55C1.15 15.7333 0.8125 15.725 0.4875 15.525C0.1625 15.325 0 15.0333 0 14.65V2.6C0 2.41667 0.0458333 2.24167 0.1375 2.075C0.229167 1.90833 0.366667 1.78333 0.55 1.7C1.33333 1.31667 2.1375 1.02083 2.9625 0.8125C3.7875 0.604167 4.63333 0.5 5.5 0.5C6.46667 0.5 7.4125 0.625 8.3375 0.875C9.2625 1.125 10.15 1.5 11 2C11.85 1.5 12.7375 1.125 13.6625 0.875C14.5875 0.625 15.5333 0.5 16.5 0.5C17.3667 0.5 18.2125 0.604167 19.0375 0.8125C19.8625 1.02083 20.6667 1.31667 21.45 1.7C21.6333 1.78333 21.7708 1.90833 21.8625 2.075C21.9542 2.24167 22 2.41667 22 2.6V14.65C22 15.0333 21.8375 15.325 21.5125 15.525C21.1875 15.725 20.85 15.7333 20.5 15.55C19.8833 15.2167 19.2375 14.9583 18.5625 14.775C17.8875 14.5917 17.2 14.5 16.5 14.5C15.75 14.5 15.0167 14.5958 14.3 14.7875C13.5833 14.9792 12.9 15.2667 12.25 15.65C12.0667 15.75 11.8708 15.8292 11.6625 15.8875C11.4542 15.9458 11.2333 15.975 11 15.975ZM13 5.275C13 5.125 13.0542 4.97083 13.1625 4.8125C13.2708 4.65417 13.3917 4.55 13.525 4.5C14.0083 4.33333 14.4917 4.20833 14.975 4.125C15.4583 4.04167 15.9667 4 16.5 4C16.8333 4 17.1625 4.02083 17.4875 4.0625C17.8125 4.10417 18.1333 4.15833 18.45 4.225C18.6 4.25833 18.7292 4.34167 18.8375 4.475C18.9458 4.60833 19 4.75833 19 4.925C19 5.20833 18.9083 5.41667 18.725 5.55C18.5417 5.68333 18.3083 5.71667 18.025 5.65C17.7917 5.6 17.5458 5.5625 17.2875 5.5375C17.0292 5.5125 16.7667 5.5 16.5 5.5C16.0667 5.5 15.6417 5.54167 15.225 5.625C14.8083 5.70833 14.4083 5.81667 14.025 5.95C13.725 6.06667 13.4792 6.05833 13.2875 5.925C13.0958 5.79167 13 5.575 13 5.275ZM13 10.775C13 10.625 13.0542 10.4708 13.1625 10.3125C13.2708 10.1542 13.3917 10.05 13.525 10C14.0083 9.83333 14.4917 9.70833 14.975 9.625C15.4583 9.54167 15.9667 9.5 16.5 9.5C16.8333 9.5 17.1625 9.52083 17.4875 9.5625C17.8125 9.60417 18.1333 9.65833 18.45 9.725C18.6 9.75833 18.7292 9.84167 18.8375 9.975C18.9458 10.1083 19 10.2583 19 10.425C19 10.7083 18.9083 10.9167 18.725 11.05C18.5417 11.1833 18.3083 11.2167 18.025 11.15C17.7917 11.1 17.5458 11.0625 17.2875 11.0375C17.0292 11.0125 16.7667 11 16.5 11C16.0667 11 15.6417 11.0375 15.225 11.1125C14.8083 11.1875 14.4083 11.2917 14.025 11.425C13.725 11.5417 13.4792 11.5375 13.2875 11.4125C13.0958 11.2875 13 11.075 13 10.775ZM13 8.025C13 7.875 13.0542 7.72083 13.1625 7.5625C13.2708 7.40417 13.3917 7.3 13.525 7.25C14.0083 7.08333 14.4917 6.95833 14.975 6.875C15.4583 6.79167 15.9667 6.75 16.5 6.75C16.8333 6.75 17.1625 6.77083 17.4875 6.8125C17.8125 6.85417 18.1333 6.90833 18.45 6.975C18.6 7.00833 18.7292 7.09167 18.8375 7.225C18.9458 7.35833 19 7.50833 19 7.675C19 7.95833 18.9083 8.16667 18.725 8.3C18.5417 8.43333 18.3083 8.46667 18.025 8.4C17.7917 8.35 17.5458 8.3125 17.2875 8.2875C17.0292 8.2625 16.7667 8.25 16.5 8.25C16.0667 8.25 15.6417 8.29167 15.225 8.375C14.8083 8.45833 14.4083 8.56667 14.025 8.7C13.725 8.81667 13.4792 8.80833 13.2875 8.675C13.0958 8.54167 13 8.325 13 8.025Z" fill="#5F6368"/>
</svg>
