<svg width="94" height="89" viewBox="0 0 94 89" fill="none" xmlns="http://www.w3.org/2000/svg">
<path d="M64.4023 41.4846C68.9349 26.1273 85.0589 17.3522 100.416 21.8848L119.881 27.6298L115.777 41.5332C111.245 56.8905 95.1208 65.6656 79.7635 61.1329L60.2987 55.388L64.4023 41.4846Z" fill="#85D7B7"/>
<path d="M64.4023 41.4846C68.9349 26.1273 60.1598 10.0033 44.8026 5.47064L26.2647 -0.000756084L22.1611 13.9026C17.6285 29.2599 26.4036 45.3839 41.7608 49.9166L60.2987 55.388L64.4023 41.4846Z" fill="#85D7B7"/>
<path d="M74.1506 110.867C58.7933 106.335 50.0182 90.2106 54.5508 74.8533L60.2958 55.3886L74.1992 59.4921C89.5565 64.0248 98.3316 80.1487 93.799 95.506L88.054 114.971L74.1506 110.867Z" fill="#85D7B7"/>
<path d="M18.8182 93.5253C34.1755 98.058 50.2994 89.2829 54.8321 73.9256L60.3035 55.3877L46.4001 51.2842C31.0428 46.7515 14.9188 55.5266 10.3862 70.8839L4.91477 89.4218L18.8182 93.5253Z" fill="#85D7B7"/>
</svg>
