<svg width="18" height="19" viewBox="0 0 18 19" fill="none" xmlns="http://www.w3.org/2000/svg">
<path d="M2 8.5C1.45 8.5 0.979167 8.30417 0.5875 7.9125C0.195833 7.52083 0 7.05 0 6.5V2.5C0 1.95 0.195833 1.47917 0.5875 1.0875C0.979167 0.695833 1.45 0.5 2 0.5H6C6.55 0.5 7.02083 0.695833 7.4125 1.0875C7.80417 1.47917 8 1.95 8 2.5V6.5C8 7.05 7.80417 7.52083 7.4125 7.9125C7.02083 8.30417 6.55 8.5 6 8.5H2ZM2 18.5C1.45 18.5 0.979167 18.3042 0.5875 17.9125C0.195833 17.5208 0 17.05 0 16.5V12.5C0 11.95 0.195833 11.4792 0.5875 11.0875C0.979167 10.6958 1.45 10.5 2 10.5H6C6.55 10.5 7.02083 10.6958 7.4125 11.0875C7.80417 11.4792 8 11.95 8 12.5V16.5C8 17.05 7.80417 17.5208 7.4125 17.9125C7.02083 18.3042 6.55 18.5 6 18.5H2ZM12 8.5C11.45 8.5 10.9792 8.30417 10.5875 7.9125C10.1958 7.52083 10 7.05 10 6.5V2.5C10 1.95 10.1958 1.47917 10.5875 1.0875C10.9792 0.695833 11.45 0.5 12 0.5H16C16.55 0.5 17.0208 0.695833 17.4125 1.0875C17.8042 1.47917 18 1.95 18 2.5V6.5C18 7.05 17.8042 7.52083 17.4125 7.9125C17.0208 8.30417 16.55 8.5 16 8.5H12ZM12 18.5C11.45 18.5 10.9792 18.3042 10.5875 17.9125C10.1958 17.5208 10 17.05 10 16.5V12.5C10 11.95 10.1958 11.4792 10.5875 11.0875C10.9792 10.6958 11.45 10.5 12 10.5H16C16.55 10.5 17.0208 10.6958 17.4125 11.0875C17.8042 11.4792 18 11.95 18 12.5V16.5C18 17.05 17.8042 17.5208 17.4125 17.9125C17.0208 18.3042 16.55 18.5 16 18.5H12Z" fill="#737373"/>
</svg>
