<svg width="14" height="15" viewBox="0 0 14 15" fill="none" xmlns="http://www.w3.org/2000/svg">
<path d="M6 8.5H1C0.716667 8.5 0.479167 8.40417 0.2875 8.2125C0.0958333 8.02083 0 7.78333 0 7.5C0 7.21667 0.0958333 6.97917 0.2875 6.7875C0.479167 6.59583 0.716667 6.5 1 6.5H6V1.5C6 1.21667 6.09583 0.979167 6.2875 0.7875C6.47917 0.595833 6.71667 0.5 7 0.5C7.28333 0.5 7.52083 0.595833 7.7125 0.7875C7.90417 0.979167 8 1.21667 8 1.5V6.5H13C13.2833 6.5 13.5208 6.59583 13.7125 6.7875C13.9042 6.97917 14 7.21667 14 7.5C14 7.78333 13.9042 8.02083 13.7125 8.2125C13.5208 8.40417 13.2833 8.5 13 8.5H8V13.5C8 13.7833 7.90417 14.0208 7.7125 14.2125C7.52083 14.4042 7.28333 14.5 7 14.5C6.71667 14.5 6.47917 14.4042 6.2875 14.2125C6.09583 14.0208 6 13.7833 6 13.5V8.5Z" fill="#737373"/>
</svg>
