<svg width="18" height="19" viewBox="0 0 18 19" fill="none" xmlns="http://www.w3.org/2000/svg">
<path d="M5 14.5C5.28333 14.5 5.52083 14.4042 5.7125 14.2125C5.90417 14.0208 6 13.7833 6 13.5C6 13.2167 5.90417 12.9792 5.7125 12.7875C5.52083 12.5958 5.28333 12.5 5 12.5C4.71667 12.5 4.47917 12.5958 4.2875 12.7875C4.09583 12.9792 4 13.2167 4 13.5C4 13.7833 4.09583 14.0208 4.2875 14.2125C4.47917 14.4042 4.71667 14.5 5 14.5ZM5 10.5C5.28333 10.5 5.52083 10.4042 5.7125 10.2125C5.90417 10.0208 6 9.78333 6 9.5C6 9.21667 5.90417 8.97917 5.7125 8.7875C5.52083 8.59583 5.28333 8.5 5 8.5C4.71667 8.5 4.47917 8.59583 4.2875 8.7875C4.09583 8.97917 4 9.21667 4 9.5C4 9.78333 4.09583 10.0208 4.2875 10.2125C4.47917 10.4042 4.71667 10.5 5 10.5ZM5 6.5C5.28333 6.5 5.52083 6.40417 5.7125 6.2125C5.90417 6.02083 6 5.78333 6 5.5C6 5.21667 5.90417 4.97917 5.7125 4.7875C5.52083 4.59583 5.28333 4.5 5 4.5C4.71667 4.5 4.47917 4.59583 4.2875 4.7875C4.09583 4.97917 4 5.21667 4 5.5C4 5.78333 4.09583 6.02083 4.2875 6.2125C4.47917 6.40417 4.71667 6.5 5 6.5ZM9 14.5H13C13.2833 14.5 13.5208 14.4042 13.7125 14.2125C13.9042 14.0208 14 13.7833 14 13.5C14 13.2167 13.9042 12.9792 13.7125 12.7875C13.5208 12.5958 13.2833 12.5 13 12.5H9C8.71667 12.5 8.47917 12.5958 8.2875 12.7875C8.09583 12.9792 8 13.2167 8 13.5C8 13.7833 8.09583 14.0208 8.2875 14.2125C8.47917 14.4042 8.71667 14.5 9 14.5ZM9 10.5H13C13.2833 10.5 13.5208 10.4042 13.7125 10.2125C13.9042 10.0208 14 9.78333 14 9.5C14 9.21667 13.9042 8.97917 13.7125 8.7875C13.5208 8.59583 13.2833 8.5 13 8.5H9C8.71667 8.5 8.47917 8.59583 8.2875 8.7875C8.09583 8.97917 8 9.21667 8 9.5C8 9.78333 8.09583 10.0208 8.2875 10.2125C8.47917 10.4042 8.71667 10.5 9 10.5ZM9 6.5H13C13.2833 6.5 13.5208 6.40417 13.7125 6.2125C13.9042 6.02083 14 5.78333 14 5.5C14 5.21667 13.9042 4.97917 13.7125 4.7875C13.5208 4.59583 13.2833 4.5 13 4.5H9C8.71667 4.5 8.47917 4.59583 8.2875 4.7875C8.09583 4.97917 8 5.21667 8 5.5C8 5.78333 8.09583 6.02083 8.2875 6.2125C8.47917 6.40417 8.71667 6.5 9 6.5ZM2 18.5C1.45 18.5 0.979167 18.3042 0.5875 17.9125C0.195833 17.5208 0 17.05 0 16.5V2.5C0 1.95 0.195833 1.47917 0.5875 1.0875C0.979167 0.695833 1.45 0.5 2 0.5H16C16.55 0.5 17.0208 0.695833 17.4125 1.0875C17.8042 1.47917 18 1.95 18 2.5V16.5C18 17.05 17.8042 17.5208 17.4125 17.9125C17.0208 18.3042 16.55 18.5 16 18.5H2Z" fill="#5F6368"/>
</svg>
