<svg width="21" height="19" viewBox="0 0 21 19" fill="none" xmlns="http://www.w3.org/2000/svg">
<path d="M19.0016 13.5004V7.60039L10.9516 11.9754C10.6516 12.1421 10.3349 12.2254 10.0016 12.2254C9.66823 12.2254 9.35156 12.1421 9.05156 11.9754L0.601562 7.37539C0.418229 7.27539 0.289062 7.15039 0.214063 7.00039C0.139063 6.85039 0.101562 6.68372 0.101562 6.50039C0.101562 6.31706 0.139063 6.15039 0.214063 6.00039C0.289062 5.85039 0.418229 5.72539 0.601562 5.62539L9.05156 1.02539C9.20156 0.942057 9.35573 0.879557 9.51406 0.837891C9.6724 0.796224 9.8349 0.775391 10.0016 0.775391C10.1682 0.775391 10.3307 0.796224 10.4891 0.837891C10.6474 0.879557 10.8016 0.942057 10.9516 1.02539L20.4766 6.22539C20.6432 6.30872 20.7724 6.42956 20.8641 6.58789C20.9557 6.74622 21.0016 6.91706 21.0016 7.10039V13.5004C21.0016 13.7837 20.9057 14.0212 20.7141 14.2129C20.5224 14.4046 20.2849 14.5004 20.0016 14.5004C19.7182 14.5004 19.4807 14.4046 19.2891 14.2129C19.0974 14.0212 19.0016 13.7837 19.0016 13.5004ZM9.05156 17.9754L4.05156 15.2754C3.71823 15.0921 3.4599 14.8421 3.27656 14.5254C3.09323 14.2087 3.00156 13.8671 3.00156 13.5004V9.70039L9.05156 12.9754C9.35156 13.1421 9.66823 13.2254 10.0016 13.2254C10.3349 13.2254 10.6516 13.1421 10.9516 12.9754L17.0016 9.70039V13.5004C17.0016 13.8671 16.9099 14.2087 16.7266 14.5254C16.5432 14.8421 16.2849 15.0921 15.9516 15.2754L10.9516 17.9754C10.8016 18.0587 10.6474 18.1212 10.4891 18.1629C10.3307 18.2046 10.1682 18.2254 10.0016 18.2254C9.8349 18.2254 9.6724 18.2046 9.51406 18.1629C9.35573 18.1212 9.20156 18.0587 9.05156 17.9754Z" fill="#737373"/>
</svg>
