<svg width="22" height="20" viewBox="0 0 22 20" fill="none" xmlns="http://www.w3.org/2000/svg">
<path d="M11 19.0503C10.8167 19.0503 10.6375 19.0253 10.4625 18.9753C10.2875 18.9253 10.125 18.8586 9.975 18.7753C9.29167 18.3586 8.575 18.0419 7.825 17.8253C7.075 17.6086 6.3 17.5003 5.5 17.5003C4.8 17.5003 4.1125 17.5919 3.4375 17.7753C2.7625 17.9586 2.11667 18.2169 1.5 18.5503C1.15 18.7336 0.8125 18.7253 0.4875 18.5253C0.1625 18.3253 0 18.0336 0 17.6503V5.60026C0 5.41693 0.0458333 5.24193 0.1375 5.07526C0.229167 4.90859 0.366667 4.78359 0.55 4.70026C1.31667 4.30026 2.11667 4.00026 2.95 3.80026C3.78333 3.60026 4.63333 3.50026 5.5 3.50026C6.46667 3.50026 7.4125 3.62526 8.3375 3.87526C9.2625 4.12526 10.15 4.50026 11 5.00026V17.1003C11.85 16.5669 12.7417 16.1669 13.675 15.9003C14.6083 15.6336 15.55 15.5003 16.5 15.5003C17.1 15.5003 17.6875 15.5503 18.2625 15.6503C18.8375 15.7503 19.4167 15.9003 20 16.1003V4.10026C20.25 4.18359 20.4958 4.27109 20.7375 4.36276C20.9792 4.45443 21.2167 4.56693 21.45 4.70026C21.6333 4.78359 21.7708 4.90859 21.8625 5.07526C21.9542 5.24193 22 5.41693 22 5.60026V17.6503C22 18.0336 21.8375 18.3253 21.5125 18.5253C21.1875 18.7253 20.85 18.7336 20.5 18.5503C19.8833 18.2169 19.2375 17.9586 18.5625 17.7753C17.8875 17.5919 17.2 17.5003 16.5 17.5003C15.7 17.5003 14.925 17.6086 14.175 17.8253C13.425 18.0419 12.7083 18.3586 12.025 18.7753C11.875 18.8586 11.7125 18.9253 11.5375 18.9753C11.3625 19.0253 11.1833 19.0503 11 19.0503ZM13.825 13.7503C13.6583 13.9003 13.4792 13.9294 13.2875 13.8378C13.0958 13.7461 13 13.5919 13 13.3753V5.20026C13 5.13359 13.0125 5.07109 13.0375 5.01276C13.0625 4.95443 13.1 4.90026 13.15 4.85026L17.15 0.85026C17.3167 0.683594 17.5 0.641927 17.7 0.72526C17.9 0.808594 18 0.966927 18 1.20026V9.77526C18 9.85859 17.9833 9.92943 17.95 9.98776C17.9167 10.0461 17.875 10.1003 17.825 10.1503L13.825 13.7503Z" fill="#737373"/>
</svg>
