<svg width="20" height="18" viewBox="0 0 20 18" fill="none" xmlns="http://www.w3.org/2000/svg">
<path d="M0 14.5V13.7C0 13.1333 0.141667 12.6125 0.425 12.1375C0.708333 11.6625 1.1 11.3 1.6 11.05C2.55 10.5667 3.5375 10.1833 4.5625 9.9C5.5875 9.61667 6.63333 9.475 7.7 9.475C7.93333 9.475 8.11667 9.57917 8.25 9.7875C8.38333 9.99583 8.40833 10.2167 8.325 10.45C8.225 10.8 8.15 11.15 8.1 11.5C8.05 11.85 8.025 12.2083 8.025 12.575C8.025 13.0583 8.075 13.525 8.175 13.975C8.275 14.425 8.41667 14.8667 8.6 15.3C8.73333 15.5833 8.72083 15.8542 8.5625 16.1125C8.40417 16.3708 8.18333 16.5 7.9 16.5H2C1.45 16.5 0.979167 16.3042 0.5875 15.9125C0.195833 15.5208 0 15.05 0 14.5ZM15 14.5C15.55 14.5 16.0208 14.3042 16.4125 13.9125C16.8042 13.5208 17 13.05 17 12.5C17 11.95 16.8042 11.4792 16.4125 11.0875C16.0208 10.6958 15.55 10.5 15 10.5C14.45 10.5 13.9792 10.6958 13.5875 11.0875C13.1958 11.4792 13 11.95 13 12.5C13 13.05 13.1958 13.5208 13.5875 13.9125C13.9792 14.3042 14.45 14.5 15 14.5ZM8 8.5C6.9 8.5 5.95833 8.10833 5.175 7.325C4.39167 6.54167 4 5.6 4 4.5C4 3.4 4.39167 2.45833 5.175 1.675C5.95833 0.891667 6.9 0.5 8 0.5C9.1 0.5 10.0417 0.891667 10.825 1.675C11.6083 2.45833 12 3.4 12 4.5C12 5.6 11.6083 6.54167 10.825 7.325C10.0417 8.10833 9.1 8.5 8 8.5ZM13.85 16.7L13.7 16C13.5 15.9167 13.3125 15.8292 13.1375 15.7375C12.9625 15.6458 12.7833 15.5333 12.6 15.4L11.875 15.625C11.6583 15.6917 11.4458 15.6833 11.2375 15.6C11.0292 15.5167 10.8667 15.3833 10.75 15.2L10.55 14.85C10.4333 14.65 10.3917 14.4333 10.425 14.2C10.4583 13.9667 10.5667 13.775 10.75 13.625L11.3 13.15C11.2667 12.9167 11.25 12.7 11.25 12.5C11.25 12.3 11.2667 12.0833 11.3 11.85L10.75 11.375C10.5667 11.225 10.4583 11.0375 10.425 10.8125C10.3917 10.5875 10.4333 10.375 10.55 10.175L10.775 9.8C10.8917 9.61667 11.05 9.48333 11.25 9.4C11.45 9.31667 11.6583 9.30833 11.875 9.375L12.6 9.6C12.7833 9.46667 12.9625 9.35417 13.1375 9.2625C13.3125 9.17083 13.5 9.08333 13.7 9L13.85 8.275C13.9 8.04167 14.0125 7.85417 14.1875 7.7125C14.3625 7.57083 14.5667 7.5 14.8 7.5H15.2C15.4333 7.5 15.6375 7.575 15.8125 7.725C15.9875 7.875 16.1 8.06667 16.15 8.3L16.3 9C16.5 9.08333 16.6875 9.175 16.8625 9.275C17.0375 9.375 17.2167 9.5 17.4 9.65L18.075 9.425C18.3083 9.34167 18.5333 9.34167 18.75 9.425C18.9667 9.50833 19.1333 9.65 19.25 9.85L19.45 10.2C19.5667 10.4 19.6083 10.6167 19.575 10.85C19.5417 11.0833 19.4333 11.275 19.25 11.425L18.7 11.9C18.7333 12.1 18.75 12.3083 18.75 12.525C18.75 12.7417 18.7333 12.95 18.7 13.15L19.25 13.625C19.4333 13.775 19.5417 13.9625 19.575 14.1875C19.6083 14.4125 19.5667 14.625 19.45 14.825L19.225 15.2C19.1083 15.3833 18.95 15.5167 18.75 15.6C18.55 15.6833 18.3417 15.6917 18.125 15.625L17.4 15.4C17.2167 15.5333 17.0375 15.6458 16.8625 15.7375C16.6875 15.8292 16.5 15.9167 16.3 16L16.15 16.725C16.1 16.9583 15.9875 17.1458 15.8125 17.2875C15.6375 17.4292 15.4333 17.5 15.2 17.5H14.8C14.5667 17.5 14.3625 17.425 14.1875 17.275C14.0125 17.125 13.9 16.9333 13.85 16.7Z" fill="#737373"/>
</svg>
