<svg width="17" height="19" viewBox="0 0 17 19" fill="none" xmlns="http://www.w3.org/2000/svg">
<path d="M10.6875 14.75C10.075 14.75 9.55729 14.5385 9.13437 14.1156C8.71146 13.6927 8.5 13.175 8.5 12.5625C8.5 11.95 8.71146 11.4323 9.13437 11.0094C9.55729 10.5865 10.075 10.375 10.6875 10.375C11.3 10.375 11.8177 10.5865 12.2406 11.0094C12.6635 11.4323 12.875 11.95 12.875 12.5625C12.875 13.175 12.6635 13.6927 12.2406 14.1156C11.8177 14.5385 11.3 14.75 10.6875 14.75ZM2.375 18.25C1.89375 18.25 1.48177 18.0786 1.13906 17.7359C0.796354 17.3932 0.625 16.9812 0.625 16.5V4.25C0.625 3.76875 0.796354 3.35677 1.13906 3.01406C1.48177 2.67135 1.89375 2.5 2.375 2.5H3.25V1.625C3.25 1.37708 3.33385 1.16927 3.50156 1.00156C3.66927 0.833854 3.87708 0.75 4.125 0.75C4.37292 0.75 4.58073 0.833854 4.74844 1.00156C4.91615 1.16927 5 1.37708 5 1.625V2.5H12V1.625C12 1.37708 12.0839 1.16927 12.2516 1.00156C12.4193 0.833854 12.6271 0.75 12.875 0.75C13.1229 0.75 13.3307 0.833854 13.4984 1.00156C13.6661 1.16927 13.75 1.37708 13.75 1.625V2.5H14.625C15.1062 2.5 15.5182 2.67135 15.8609 3.01406C16.2036 3.35677 16.375 3.76875 16.375 4.25V16.5C16.375 16.9812 16.2036 17.3932 15.8609 17.7359C15.5182 18.0786 15.1062 18.25 14.625 18.25H2.375ZM2.375 16.5H14.625V7.75H2.375V16.5Z" fill="#737373"/>
</svg>
