<svg width="21" height="18" viewBox="0 0 21 18" fill="none" xmlns="http://www.w3.org/2000/svg">
<path d="M19.0016 12.9984V7.09844L10.9516 11.4734C10.6516 11.6401 10.3349 11.7234 10.0016 11.7234C9.66823 11.7234 9.35156 11.6401 9.05156 11.4734L0.601562 6.87344C0.418229 6.77344 0.289062 6.64844 0.214063 6.49844C0.139063 6.34844 0.101562 6.18177 0.101562 5.99844C0.101562 5.8151 0.139063 5.64844 0.214063 5.49844C0.289062 5.34844 0.418229 5.22344 0.601562 5.12344L9.05156 0.523438C9.20156 0.440104 9.35573 0.377604 9.51406 0.335938C9.6724 0.294271 9.8349 0.273438 10.0016 0.273438C10.1682 0.273438 10.3307 0.294271 10.4891 0.335938C10.6474 0.377604 10.8016 0.440104 10.9516 0.523438L20.4766 5.72344C20.6432 5.80677 20.7724 5.9276 20.8641 6.08594C20.9557 6.24427 21.0016 6.4151 21.0016 6.59844V12.9984C21.0016 13.2818 20.9057 13.5193 20.7141 13.7109C20.5224 13.9026 20.2849 13.9984 20.0016 13.9984C19.7182 13.9984 19.4807 13.9026 19.2891 13.7109C19.0974 13.5193 19.0016 13.2818 19.0016 12.9984ZM9.05156 17.4734L4.05156 14.7734C3.71823 14.5901 3.4599 14.3401 3.27656 14.0234C3.09323 13.7068 3.00156 13.3651 3.00156 12.9984V9.19844L9.05156 12.4734C9.35156 12.6401 9.66823 12.7234 10.0016 12.7234C10.3349 12.7234 10.6516 12.6401 10.9516 12.4734L17.0016 9.19844V12.9984C17.0016 13.3651 16.9099 13.7068 16.7266 14.0234C16.5432 14.3401 16.2849 14.5901 15.9516 14.7734L10.9516 17.4734C10.8016 17.5568 10.6474 17.6193 10.4891 17.6609C10.3307 17.7026 10.1682 17.7234 10.0016 17.7234C9.8349 17.7234 9.6724 17.7026 9.51406 17.6609C9.35573 17.6193 9.20156 17.5568 9.05156 17.4734Z" fill="#F3F4F6"/>
</svg>
