<svg width="20" height="17" viewBox="0 0 20 17" fill="none" xmlns="http://www.w3.org/2000/svg">
<path d="M0 14V13.2C0 12.6333 0.141667 12.1125 0.425 11.6375C0.708333 11.1625 1.1 10.8 1.6 10.55C2.55 10.0667 3.5375 9.68333 4.5625 9.4C5.5875 9.11667 6.63333 8.975 7.7 8.975C7.93333 8.975 8.11667 9.07917 8.25 9.2875C8.38333 9.49583 8.40833 9.71667 8.325 9.95C8.225 10.3 8.15 10.65 8.1 11C8.05 11.35 8.025 11.7083 8.025 12.075C8.025 12.5583 8.075 13.025 8.175 13.475C8.275 13.925 8.41667 14.3667 8.6 14.8C8.73333 15.0833 8.72083 15.3542 8.5625 15.6125C8.40417 15.8708 8.18333 16 7.9 16H2C1.45 16 0.979167 15.8042 0.5875 15.4125C0.195833 15.0208 0 14.55 0 14ZM15 14C15.55 14 16.0208 13.8042 16.4125 13.4125C16.8042 13.0208 17 12.55 17 12C17 11.45 16.8042 10.9792 16.4125 10.5875C16.0208 10.1958 15.55 10 15 10C14.45 10 13.9792 10.1958 13.5875 10.5875C13.1958 10.9792 13 11.45 13 12C13 12.55 13.1958 13.0208 13.5875 13.4125C13.9792 13.8042 14.45 14 15 14ZM8 8C6.9 8 5.95833 7.60833 5.175 6.825C4.39167 6.04167 4 5.1 4 4C4 2.9 4.39167 1.95833 5.175 1.175C5.95833 0.391667 6.9 0 8 0C9.1 0 10.0417 0.391667 10.825 1.175C11.6083 1.95833 12 2.9 12 4C12 5.1 11.6083 6.04167 10.825 6.825C10.0417 7.60833 9.1 8 8 8ZM13.85 16.2L13.7 15.5C13.5 15.4167 13.3125 15.3292 13.1375 15.2375C12.9625 15.1458 12.7833 15.0333 12.6 14.9L11.875 15.125C11.6583 15.1917 11.4458 15.1833 11.2375 15.1C11.0292 15.0167 10.8667 14.8833 10.75 14.7L10.55 14.35C10.4333 14.15 10.3917 13.9333 10.425 13.7C10.4583 13.4667 10.5667 13.275 10.75 13.125L11.3 12.65C11.2667 12.4167 11.25 12.2 11.25 12C11.25 11.8 11.2667 11.5833 11.3 11.35L10.75 10.875C10.5667 10.725 10.4583 10.5375 10.425 10.3125C10.3917 10.0875 10.4333 9.875 10.55 9.675L10.775 9.3C10.8917 9.11667 11.05 8.98333 11.25 8.9C11.45 8.81667 11.6583 8.80833 11.875 8.875L12.6 9.1C12.7833 8.96667 12.9625 8.85417 13.1375 8.7625C13.3125 8.67083 13.5 8.58333 13.7 8.5L13.85 7.775C13.9 7.54167 14.0125 7.35417 14.1875 7.2125C14.3625 7.07083 14.5667 7 14.8 7H15.2C15.4333 7 15.6375 7.075 15.8125 7.225C15.9875 7.375 16.1 7.56667 16.15 7.8L16.3 8.5C16.5 8.58333 16.6875 8.675 16.8625 8.775C17.0375 8.875 17.2167 9 17.4 9.15L18.075 8.925C18.3083 8.84167 18.5333 8.84167 18.75 8.925C18.9667 9.00833 19.1333 9.15 19.25 9.35L19.45 9.7C19.5667 9.9 19.6083 10.1167 19.575 10.35C19.5417 10.5833 19.4333 10.775 19.25 10.925L18.7 11.4C18.7333 11.6 18.75 11.8083 18.75 12.025C18.75 12.2417 18.7333 12.45 18.7 12.65L19.25 13.125C19.4333 13.275 19.5417 13.4625 19.575 13.6875C19.6083 13.9125 19.5667 14.125 19.45 14.325L19.225 14.7C19.1083 14.8833 18.95 15.0167 18.75 15.1C18.55 15.1833 18.3417 15.1917 18.125 15.125L17.4 14.9C17.2167 15.0333 17.0375 15.1458 16.8625 15.2375C16.6875 15.3292 16.5 15.4167 16.3 15.5L16.15 16.225C16.1 16.4583 15.9875 16.6458 15.8125 16.7875C15.6375 16.9292 15.4333 17 15.2 17H14.8C14.5667 17 14.3625 16.925 14.1875 16.775C14.0125 16.625 13.9 16.4333 13.85 16.2Z" fill="#F3F4F6"/>
</svg>
