<svg width="22" height="16" viewBox="0 0 22 16" fill="none" xmlns="http://www.w3.org/2000/svg">
<path d="M2 16C1.45 16 0.979167 15.8042 0.5875 15.4125C0.195833 15.0208 0 14.55 0 14V4C0 3.71667 0.0958333 3.47917 0.2875 3.2875C0.479167 3.09583 0.716667 3 1 3C1.28333 3 1.52083 3.09583 1.7125 3.2875C1.90417 3.47917 2 3.71667 2 4V14H18C18.2833 14 18.5208 14.0958 18.7125 14.2875C18.9042 14.4792 19 14.7167 19 15C19 15.2833 18.9042 15.5208 18.7125 15.7125C18.5208 15.9042 18.2833 16 18 16H2ZM6 12C5.45 12 4.97917 11.8042 4.5875 11.4125C4.19583 11.0208 4 10.55 4 10V2C4 1.45 4.19583 0.979167 4.5875 0.5875C4.97917 0.195833 5.45 0 6 0H20C20.55 0 21.0208 0.195833 21.4125 0.5875C21.8042 0.979167 22 1.45 22 2V10C22 10.55 21.8042 11.0208 21.4125 11.4125C21.0208 11.8042 20.55 12 20 12H6ZM8 10C8 9.45 7.80417 8.97917 7.4125 8.5875C7.02083 8.19583 6.55 8 6 8V10H8ZM18 10H20V8C19.45 8 18.9792 8.19583 18.5875 8.5875C18.1958 8.97917 18 9.45 18 10ZM13 9C13.8333 9 14.5417 8.70833 15.125 8.125C15.7083 7.54167 16 6.83333 16 6C16 5.16667 15.7083 4.45833 15.125 3.875C14.5417 3.29167 13.8333 3 13 3C12.1667 3 11.4583 3.29167 10.875 3.875C10.2917 4.45833 10 5.16667 10 6C10 6.83333 10.2917 7.54167 10.875 8.125C11.4583 8.70833 12.1667 9 13 9ZM6 4C6.55 4 7.02083 3.80417 7.4125 3.4125C7.80417 3.02083 8 2.55 8 2H6V4ZM20 4V2H18C18 2.55 18.1958 3.02083 18.5875 3.4125C18.9792 3.80417 19.45 4 20 4Z" fill="#F3F4F6"/>
</svg>
