<svg width="20" height="16" viewBox="0 0 20 16" fill="none" xmlns="http://www.w3.org/2000/svg">
<path d="M2 16C1.45 16 0.979167 15.8042 0.5875 15.4125C0.195833 15.0208 0 14.55 0 14V2C0 1.45 0.195833 0.979167 0.5875 0.5875C0.979167 0.195833 1.45 0 2 0H18C18.55 0 19.0208 0.195833 19.4125 0.5875C19.8042 0.979167 20 1.45 20 2V14C20 14.55 19.8042 15.0208 19.4125 15.4125C19.0208 15.8042 18.55 16 18 16H2ZM10 8.825C10.0833 8.825 10.1708 8.8125 10.2625 8.7875C10.3542 8.7625 10.4417 8.725 10.525 8.675L17.6 4.25C17.7333 4.16667 17.8333 4.0625 17.9 3.9375C17.9667 3.8125 18 3.675 18 3.525C18 3.19167 17.8583 2.94167 17.575 2.775C17.2917 2.60833 17 2.61667 16.7 2.8L10 7L3.3 2.8C3 2.61667 2.70833 2.6125 2.425 2.7875C2.14167 2.9625 2 3.20833 2 3.525C2 3.69167 2.03333 3.8375 2.1 3.9625C2.16667 4.0875 2.26667 4.18333 2.4 4.25L9.475 8.675C9.55833 8.725 9.64583 8.7625 9.7375 8.7875C9.82917 8.8125 9.91667 8.825 10 8.825Z" fill="#F3F4F6"/>
</svg>
