<svg width="20" height="21" viewBox="0 0 20 21" fill="none" xmlns="http://www.w3.org/2000/svg">
<path d="M6 20.5C5.45 20.5 4.97917 20.3042 4.5875 19.9125C4.19583 19.5208 4 19.05 4 18.5C4 17.95 4.19583 17.4792 4.5875 17.0875C4.97917 16.6958 5.45 16.5 6 16.5C6.55 16.5 7.02083 16.6958 7.4125 17.0875C7.80417 17.4792 8 17.95 8 18.5C8 19.05 7.80417 19.5208 7.4125 19.9125C7.02083 20.3042 6.55 20.5 6 20.5ZM16 20.5C15.45 20.5 14.9792 20.3042 14.5875 19.9125C14.1958 19.5208 14 19.05 14 18.5C14 17.95 14.1958 17.4792 14.5875 17.0875C14.9792 16.6958 15.45 16.5 16 16.5C16.55 16.5 17.0208 16.6958 17.4125 17.0875C17.8042 17.4792 18 17.95 18 18.5C18 19.05 17.8042 19.5208 17.4125 19.9125C17.0208 20.3042 16.55 20.5 16 20.5ZM4.2 2.5H18.95C19.3333 2.5 19.625 2.67083 19.825 3.0125C20.025 3.35417 20.0333 3.7 19.85 4.05L16.3 10.45C16.1167 10.7833 15.8708 11.0417 15.5625 11.225C15.2542 11.4083 14.9167 11.5 14.55 11.5H7.1L6 13.5H17C17.2833 13.5 17.5208 13.5958 17.7125 13.7875C17.9042 13.9792 18 14.2167 18 14.5C18 14.7833 17.9042 15.0208 17.7125 15.2125C17.5208 15.4042 17.2833 15.5 17 15.5H6C5.25 15.5 4.68333 15.1708 4.3 14.5125C3.91667 13.8542 3.9 13.2 4.25 12.55L5.6 10.1L2 2.5H1C0.716667 2.5 0.479167 2.40417 0.2875 2.2125C0.0958333 2.02083 0 1.78333 0 1.5C0 1.21667 0.0958333 0.979167 0.2875 0.7875C0.479167 0.595833 0.716667 0.5 1 0.5H2.625C2.80833 0.5 2.98333 0.55 3.15 0.65C3.31667 0.75 3.44167 0.891667 3.525 1.075L4.2 2.5Z" fill="#737373"/>
</svg>
