<svg width="22" height="20" viewBox="0 0 22 20" fill="none" xmlns="http://www.w3.org/2000/svg">
<path d="M20 18.5V2.5H2V9.5C2 9.78333 1.90417 10.0208 1.7125 10.2125C1.52083 10.4042 1.28333 10.5 1 10.5C0.716667 10.5 0.479167 10.4042 0.2875 10.2125C0.0958333 10.0208 0 9.78333 0 9.5V2.5C0 1.95 0.195833 1.47917 0.5875 1.0875C0.979167 0.695833 1.45 0.5 2 0.5H20C20.55 0.5 21.0208 0.695833 21.4125 1.0875C21.8042 1.47917 22 1.95 22 2.5V16.5C22 17.05 21.8042 17.5208 21.4125 17.9125C21.0208 18.3042 20.55 18.5 20 18.5ZM8 11.5C6.9 11.5 5.95833 11.1083 5.175 10.325C4.39167 9.54167 4 8.6 4 7.5C4 6.4 4.39167 5.45833 5.175 4.675C5.95833 3.89167 6.9 3.5 8 3.5C9.1 3.5 10.0417 3.89167 10.825 4.675C11.6083 5.45833 12 6.4 12 7.5C12 8.6 11.6083 9.54167 10.825 10.325C10.0417 11.1083 9.1 11.5 8 11.5ZM2 19.5C1.45 19.5 0.979167 19.3042 0.5875 18.9125C0.195833 18.5208 0 18.05 0 17.5V16.7C0 16.1333 0.145833 15.6125 0.4375 15.1375C0.729167 14.6625 1.11667 14.3 1.6 14.05C2.63333 13.5333 3.68333 13.1458 4.75 12.8875C5.81667 12.6292 6.9 12.5 8 12.5C9.1 12.5 10.1833 12.6292 11.25 12.8875C12.3167 13.1458 13.3667 13.5333 14.4 14.05C14.8833 14.3 15.2708 14.6625 15.5625 15.1375C15.8542 15.6125 16 16.1333 16 16.7V17.5C16 18.05 15.8042 18.5208 15.4125 18.9125C15.0208 19.3042 14.55 19.5 14 19.5H2Z" fill="#737373"/>
</svg>
