<svg width="22" height="20" viewBox="0 0 22 20" fill="none" xmlns="http://www.w3.org/2000/svg">
<path d="M11 14.993C12.105 14.993 13 14.322 13 13.495C13 12.667 12.105 11.996 11 11.996C9.895 11.996 9 11.325 9 10.498C9 9.669 9.895 8.999 11 8.999V8M11 14.993C10.13 14.993 9.388 14.576 9.114 13.994M11 14.993L11.003 16M11 9C11.87 9 12.612 9.417 12.886 9.999" stroke="#737373" stroke-width="1.5" stroke-linecap="round"/>
<path d="M20 9C20.1545 8.92292 20.2946 8.81974 20.414 8.695C21 8.089 21 7.11 21 5.152C21 3.194 21 2.216 20.414 1.608C19.828 1 18.886 1 17 1H5C3.114 1 2.172 1 1.586 1.608C1 2.216 1 3.195 1 5.152C1 7.109 1 8.088 1.586 8.695C1.706 8.82033 1.844 8.922 2 9" stroke="#737373" stroke-width="1.5" stroke-linecap="round"/>
<path d="M11 19C14.866 19 18 15.866 18 12C18 8.13401 14.866 5 11 5C7.13401 5 4 8.13401 4 12C4 15.866 7.13401 19 11 19Z" stroke="#737373" stroke-width="1.5"/>
<path d="M4 5H18" stroke="#737373" stroke-width="1.5" stroke-linecap="round" stroke-linejoin="round"/>
</svg>
