<svg width="20" height="22" viewBox="0 0 20 22" fill="none" xmlns="http://www.w3.org/2000/svg">
<path d="M10.5951 21.2584L10.5841 21.2604L10.5131 21.2954L10.4931 21.2994L10.4791 21.2954L10.4081 21.2604C10.3975 21.2571 10.3895 21.2588 10.3841 21.2654L10.3801 21.2754L10.3631 21.7034L10.3681 21.7234L10.3781 21.7364L10.4821 21.8104L10.4971 21.8144L10.5091 21.8104L10.6131 21.7364L10.6251 21.7204L10.6291 21.7034L10.6121 21.2764C10.6095 21.2658 10.6038 21.2598 10.5951 21.2584ZM10.8601 21.1454L10.8471 21.1474L10.6621 21.2404L10.6521 21.2504L10.6491 21.2614L10.6671 21.6914L10.6721 21.7034L10.6801 21.7104L10.8811 21.8034C10.8938 21.8068 10.9035 21.8041 10.9101 21.7954L10.9141 21.7814L10.8801 21.1674C10.8768 21.1554 10.8701 21.1481 10.8601 21.1454ZM10.1451 21.1474C10.1407 21.1448 10.1355 21.1439 10.1304 21.145C10.1254 21.1461 10.121 21.1491 10.1181 21.1534L10.1121 21.1674L10.0781 21.7814C10.0788 21.7934 10.0845 21.8014 10.0951 21.8054L10.1101 21.8034L10.3111 21.7104L10.3211 21.7024L10.3251 21.6914L10.3421 21.2614L10.3391 21.2494L10.3291 21.2394L10.1451 21.1474Z" fill="#737373"/>
<path d="M10 0C15.523 0 20 4.477 20 10C20 15.523 15.523 20 10 20C4.477 20 0 15.523 0 10C0 4.477 4.477 0 10 0ZM10 14C9.73478 14 9.48043 14.1054 9.29289 14.2929C9.10536 14.4804 9 14.7348 9 15C9 15.2652 9.10536 15.5196 9.29289 15.7071C9.48043 15.8946 9.73478 16 10 16C10.2652 16 10.5196 15.8946 10.7071 15.7071C10.8946 15.5196 11 15.2652 11 15C11 14.7348 10.8946 14.4804 10.7071 14.2929C10.5196 14.1054 10.2652 14 10 14ZM10 4.5C9.03859 4.5 8.11656 4.88192 7.43674 5.56174C6.75692 6.24156 6.375 7.16359 6.375 8.125C6.375 8.39022 6.48036 8.64457 6.66789 8.83211C6.85543 9.01964 7.10978 9.125 7.375 9.125C7.64022 9.125 7.89457 9.01964 8.08211 8.83211C8.26964 8.64457 8.375 8.39022 8.375 8.125C8.37533 7.83004 8.45594 7.54072 8.60818 7.28809C8.76043 7.03545 8.97857 6.82902 9.2392 6.69092C9.49984 6.55282 9.79316 6.48827 10.0877 6.50419C10.3822 6.52011 10.6669 6.61589 10.9111 6.78127C11.1553 6.94666 11.35 7.1754 11.4741 7.44297C11.5982 7.71054 11.6472 8.00686 11.6157 8.30014C11.5843 8.59342 11.4736 8.87261 11.2955 9.10777C11.1175 9.34292 10.8788 9.52518 10.605 9.635C9.929 9.905 9 10.597 9 11.75V12C9 12.2652 9.10536 12.5196 9.29289 12.7071C9.48043 12.8946 9.73478 13 10 13C10.2652 13 10.5196 12.8946 10.7071 12.7071C10.8946 12.5196 11 12.2652 11 12C11 11.756 11.05 11.634 11.261 11.53L11.348 11.49C12.1288 11.1759 12.776 10.6 13.1787 9.86092C13.5814 9.12188 13.7145 8.26578 13.5551 7.43938C13.3958 6.61299 12.9539 5.86776 12.3052 5.33147C11.6566 4.79518 10.8416 4.50122 10 4.5Z" fill="#737373"/>
</svg>
