<svg width="24" height="24" viewBox="0 0 24 24" fill="none" xmlns="http://www.w3.org/2000/svg">
<path d="M14.25 2.25C13.8522 2.25 13.4706 2.40804 13.1893 2.68934C12.908 2.97064 12.75 3.35218 12.75 3.75V6.75C12.75 7.14782 12.908 7.52936 13.1893 7.81066C13.4706 8.09196 13.8522 8.25 14.25 8.25V10.5L16.95 8.25H20.25C20.6478 8.25 21.0294 8.09196 21.3107 7.81066C21.592 7.52936 21.75 7.14782 21.75 6.75V3.75C21.75 3.35218 21.592 2.97064 21.3107 2.68934C21.0294 2.40804 20.6478 2.25 20.25 2.25H14.25ZM7.5 6C6.70435 6 5.94129 6.31607 5.37868 6.87868C4.81607 7.44129 4.5 8.20435 4.5 9C4.5 9.79565 4.81607 10.5587 5.37868 11.1213C5.94129 11.6839 6.70435 12 7.5 12C8.29565 12 9.05871 11.6839 9.62132 11.1213C10.1839 10.5587 10.5 9.79565 10.5 9C10.5 8.20435 10.1839 7.44129 9.62132 6.87868C9.05871 6.31607 8.29565 6 7.5 6ZM11.25 13.5H3.75C3.15326 13.5 2.58097 13.7371 2.15901 14.159C1.73705 14.581 1.5 15.1533 1.5 15.75C1.5 17.424 2.1885 18.765 3.318 19.6725C4.4295 20.565 5.9205 21 7.5 21C9.0795 21 10.5705 20.565 11.682 19.6725C12.81 18.765 13.5 17.424 13.5 15.75C13.5 15.1533 13.2629 14.581 12.841 14.159C12.419 13.7371 11.8467 13.5 11.25 13.5Z" fill="#F3F4F6"/>
</svg>
