<svg width="24" height="25" viewBox="0 0 24 25" fill="none" xmlns="http://www.w3.org/2000/svg">
<path d="M14.25 2.75C13.8522 2.75 13.4706 2.90804 13.1893 3.18934C12.908 3.47064 12.75 3.85218 12.75 4.25V7.25C12.75 7.64782 12.908 8.02936 13.1893 8.31066C13.4706 8.59196 13.8522 8.75 14.25 8.75V11L16.95 8.75H20.25C20.6478 8.75 21.0294 8.59196 21.3107 8.31066C21.592 8.02936 21.75 7.64782 21.75 7.25V4.25C21.75 3.85218 21.592 3.47064 21.3107 3.18934C21.0294 2.90804 20.6478 2.75 20.25 2.75H14.25ZM7.5 6.5C6.70435 6.5 5.94129 6.81607 5.37868 7.37868C4.81607 7.94129 4.5 8.70435 4.5 9.5C4.5 10.2956 4.81607 11.0587 5.37868 11.6213C5.94129 12.1839 6.70435 12.5 7.5 12.5C8.29565 12.5 9.05871 12.1839 9.62132 11.6213C10.1839 11.0587 10.5 10.2956 10.5 9.5C10.5 8.70435 10.1839 7.94129 9.62132 7.37868C9.05871 6.81607 8.29565 6.5 7.5 6.5ZM11.25 14H3.75C3.15326 14 2.58097 14.2371 2.15901 14.659C1.73705 15.081 1.5 15.6533 1.5 16.25C1.5 17.924 2.1885 19.265 3.318 20.1725C4.4295 21.065 5.9205 21.5 7.5 21.5C9.0795 21.5 10.5705 21.065 11.682 20.1725C12.81 19.265 13.5 17.924 13.5 16.25C13.5 15.6533 13.2629 15.081 12.841 14.659C12.419 14.2371 11.8467 14 11.25 14Z" fill="#737373"/>
</svg>
