<svg width="22" height="21" viewBox="0 0 22 21" fill="none" xmlns="http://www.w3.org/2000/svg">
<path fill-rule="evenodd" clip-rule="evenodd" d="M14.75 3.88895e-08C13.7657 -0.000105617 12.7932 0.215077 11.9008 0.630465C11.0084 1.04585 10.2177 1.65139 9.58397 2.40464C8.9503 3.15789 8.48903 4.04061 8.23251 4.99094C7.97599 5.94127 7.93042 6.9362 8.099 7.906C8.166 8.296 8.067 8.623 7.878 8.812L1.378 15.311C0.815719 15.8736 0.499905 16.6366 0.5 17.432V20.25C0.5 20.664 0.836 21 1.25 21H5C5.19891 21 5.38968 20.921 5.53033 20.7803C5.67098 20.6397 5.75 20.4489 5.75 20.25V18.75H7.25C7.44891 18.75 7.63968 18.671 7.78033 18.5303C7.92098 18.3897 8 18.1989 8 18V16.5H9.5C9.69884 16.4998 9.88948 16.4207 10.03 16.28L12.688 13.622C12.878 13.433 13.205 13.334 13.594 13.402C14.5149 13.5607 15.4587 13.5264 16.3657 13.3013C17.2727 13.0762 18.123 12.6653 18.8629 12.0945C19.6028 11.5237 20.2161 10.8055 20.6641 9.98542C21.112 9.16528 21.3847 8.26108 21.465 7.33006C21.5453 6.39905 21.4314 5.4615 21.1306 4.57678C20.8297 3.69206 20.3484 2.87945 19.7172 2.1904C19.086 1.50135 18.3185 0.950879 17.4635 0.573834C16.6085 0.196788 15.6845 0.00138558 14.75 3.88895e-08ZM14.75 3C14.5511 3 14.3603 3.07902 14.2197 3.21967C14.079 3.36032 14 3.55109 14 3.75C14 3.94891 14.079 4.13968 14.2197 4.28033C14.3603 4.42098 14.5511 4.5 14.75 4.5C15.3467 4.5 15.919 4.73705 16.341 5.15901C16.7629 5.58097 17 6.15326 17 6.75C17 6.94891 17.079 7.13968 17.2197 7.28033C17.3603 7.42098 17.5511 7.5 17.75 7.5C17.9489 7.5 18.1397 7.42098 18.2803 7.28033C18.421 7.13968 18.5 6.94891 18.5 6.75C18.5 5.75544 18.1049 4.80161 17.4017 4.09835C16.6984 3.39509 15.7446 3 14.75 3Z" fill="#737373"/>
</svg>
