<svg width="18" height="21" viewBox="0 0 18 21" fill="none" xmlns="http://www.w3.org/2000/svg">
<path d="M2 20.5C1.45 20.5 0.979333 20.3043 0.588 19.913C0.196667 19.5217 0.000666667 19.0507 0 18.5V4.5C0 3.95 0.196 3.47933 0.588 3.088C0.98 2.69667 1.45067 2.50067 2 2.5H6.2C6.41667 1.9 6.77933 1.41667 7.288 1.05C7.79667 0.683333 8.36733 0.5 9 0.5C9.63267 0.5 10.2037 0.683333 10.713 1.05C11.2223 1.41667 11.5847 1.9 11.8 2.5H16C16.55 2.5 17.021 2.696 17.413 3.088C17.805 3.48 18.0007 3.95067 18 4.5V18.5C18 19.05 17.8043 19.521 17.413 19.913C17.0217 20.305 16.5507 20.5007 16 20.5H2ZM9 3.75C9.21667 3.75 9.396 3.679 9.538 3.537C9.68 3.395 9.75067 3.216 9.75 3C9.74933 2.784 9.67833 2.605 9.537 2.463C9.39567 2.321 9.21667 2.25 9 2.25C8.78333 2.25 8.60433 2.321 8.463 2.463C8.32167 2.605 8.25067 2.784 8.25 3C8.24933 3.216 8.32033 3.39533 8.463 3.538C8.60567 3.68067 8.78467 3.75133 9 3.75ZM4.5 16.5H5.7C5.83333 16.5 5.96267 16.4707 6.088 16.412C6.21333 16.3533 6.31733 16.2827 6.4 16.2L12.1 10.55L9.95 8.4L4.3 14.05C4.2 14.15 4.125 14.2623 4.075 14.387C4.025 14.5117 4 14.6413 4 14.776V16C4 16.1333 4.05 16.25 4.15 16.35C4.25 16.45 4.36667 16.5 4.5 16.5ZM12.8 9.85L13.85 8.75C13.95 8.65 14 8.53333 14 8.4C14 8.26667 13.95 8.15 13.85 8.05L12.45 6.65C12.35 6.55 12.2333 6.5 12.1 6.5C11.9667 6.5 11.85 6.55 11.75 6.65L10.65 7.7L12.8 9.85Z" fill="#737373"/>
</svg>
