<svg width="18" height="21" viewBox="0 0 18 21" fill="none" xmlns="http://www.w3.org/2000/svg">
<path d="M2 20.501C1.45 20.501 0.979333 20.3053 0.588 19.914C0.196667 19.5226 0.000666667 19.0516 0 18.501V4.50098C0 3.95098 0.196 3.48031 0.588 3.08898C0.98 2.69764 1.45067 2.50164 2 2.50098H6.2C6.41667 1.90098 6.77933 1.41764 7.288 1.05098C7.79667 0.68431 8.36733 0.500977 9 0.500977C9.63267 0.500977 10.2037 0.68431 10.713 1.05098C11.2223 1.41764 11.5847 1.90098 11.8 2.50098H16C16.55 2.50098 17.021 2.69698 17.413 3.08898C17.805 3.48098 18.0007 3.95164 18 4.50098V18.501C18 19.051 17.8043 19.522 17.413 19.914C17.0217 20.306 16.5507 20.5016 16 20.501H2ZM9 3.75098C9.21667 3.75098 9.396 3.67998 9.538 3.53798C9.68 3.39598 9.75067 3.21698 9.75 3.00098C9.74933 2.78498 9.67833 2.60598 9.537 2.46398C9.39567 2.32198 9.21667 2.25098 9 2.25098C8.78333 2.25098 8.60433 2.32198 8.463 2.46398C8.32167 2.60598 8.25067 2.78498 8.25 3.00098C8.24933 3.21698 8.32033 3.39631 8.463 3.53898C8.60567 3.68164 8.78467 3.75231 9 3.75098ZM4.5 16.501H5.7C5.83333 16.501 5.96267 16.4716 6.088 16.413C6.21333 16.3543 6.31733 16.2836 6.4 16.201L12.1 10.551L9.95 8.40098L4.3 14.051C4.2 14.151 4.125 14.2633 4.075 14.388C4.025 14.5126 4 14.6423 4 14.777V16.001C4 16.1343 4.05 16.251 4.15 16.351C4.25 16.451 4.36667 16.501 4.5 16.501ZM12.8 9.85098L13.85 8.75098C13.95 8.65098 14 8.53431 14 8.40098C14 8.26764 13.95 8.15098 13.85 8.05098L12.45 6.65098C12.35 6.55098 12.2333 6.50098 12.1 6.50098C11.9667 6.50098 11.85 6.55098 11.75 6.65098L10.65 7.70098L12.8 9.85098Z" fill="#0CAF6F"/>
</svg>
