<svg width="24" height="25" viewBox="0 0 24 25" fill="none" xmlns="http://www.w3.org/2000/svg">
<path d="M12 13C11.0717 13 10.1815 13.3687 9.52513 14.0251C8.86875 14.6815 8.5 15.5717 8.5 16.5C8.5 17.4283 8.86875 18.3185 9.52513 18.9749C10.1815 19.6313 11.0717 20 12 20C12.9283 20 13.8185 19.6313 14.4749 18.9749C15.1313 18.3185 15.5 17.4283 15.5 16.5C15.5 15.5717 15.1313 14.6815 14.4749 14.0251C13.8185 13.3687 12.9283 13 12 13ZM10.5 16.5C10.5 16.1022 10.658 15.7206 10.9393 15.4393C11.2206 15.158 11.6022 15 12 15C12.3978 15 12.7794 15.158 13.0607 15.4393C13.342 15.7206 13.5 16.1022 13.5 16.5C13.5 16.8978 13.342 17.2794 13.0607 17.5607C12.7794 17.842 12.3978 18 12 18C11.6022 18 11.2206 17.842 10.9393 17.5607C10.658 17.2794 10.5 16.8978 10.5 16.5Z" fill="#737373"/>
<path d="M17.526 5.61618L14.347 1.15918L2.658 10.4972L2.01 10.4902V10.5002H1.5V22.5002H22.5V10.5002H21.538L19.624 4.90118L17.526 5.61618ZM19.425 10.5002H9.397L16.866 7.95418L18.388 7.46718L19.425 10.5002ZM15.55 6.29018L7.84 8.91818L13.946 4.04018L15.55 6.29018ZM3.5 18.6692V14.3292C3.92218 14.1802 4.30565 13.9386 4.62231 13.6221C4.93896 13.3056 5.18077 12.9223 5.33 12.5002H18.67C18.8191 12.9225 19.0609 13.306 19.3775 13.6227C19.6942 13.9393 20.0777 14.1811 20.5 14.3302V18.6702C20.0777 18.8193 19.6942 19.061 19.3775 19.3777C19.0609 19.6944 18.8191 20.0779 18.67 20.5002H5.332C5.18218 20.0779 4.93996 19.6943 4.62302 19.3775C4.30607 19.0608 3.9224 18.8188 3.5 18.6692Z" fill="#737373"/>
</svg>
