<svg width="16" height="17" viewBox="0 0 16 17" fill="none" xmlns="http://www.w3.org/2000/svg">
<path d="M8 8.50098C6.9 8.50098 5.95833 8.10931 5.175 7.32598C4.39167 6.54264 4 5.60098 4 4.50098C4 3.40098 4.39167 2.45931 5.175 1.67598C5.95833 0.892643 6.9 0.500977 8 0.500977C9.1 0.500977 10.0417 0.892643 10.825 1.67598C11.6083 2.45931 12 3.40098 12 4.50098C12 5.60098 11.6083 6.54264 10.825 7.32598C10.0417 8.10931 9.1 8.50098 8 8.50098ZM0 14.501V13.701C0 13.1343 0.145833 12.6135 0.4375 12.1385C0.729167 11.6635 1.11667 11.301 1.6 11.051C2.63333 10.5343 3.68333 10.1468 4.75 9.88848C5.81667 9.63014 6.9 9.50098 8 9.50098C9.1 9.50098 10.1833 9.63014 11.25 9.88848C12.3167 10.1468 13.3667 10.5343 14.4 11.051C14.8833 11.301 15.2708 11.6635 15.5625 12.1385C15.8542 12.6135 16 13.1343 16 13.701V14.501C16 15.051 15.8042 15.5218 15.4125 15.9135C15.0208 16.3051 14.55 16.501 14 16.501H2C1.45 16.501 0.979167 16.3051 0.5875 15.9135C0.195833 15.5218 0 15.051 0 14.501Z" fill="#737373"/>
</svg>
