<svg width="16" height="21" viewBox="0 0 16 21" fill="none" xmlns="http://www.w3.org/2000/svg">
<path d="M5 11.501C5 12.2966 5.31607 13.0597 5.87868 13.6223C6.44129 14.1849 7.20435 14.501 8 14.501C8.79565 14.501 9.55871 14.1849 10.1213 13.6223C10.6839 13.0597 11 12.2966 11 11.501C11 10.7053 10.6839 9.94226 10.1213 9.37966C9.55871 8.81705 8.79565 8.50098 8 8.50098C7.20435 8.50098 6.44129 8.81705 5.87868 9.37966C5.31607 9.94226 5 10.7053 5 11.501ZM16 18.091V6.50098L10 0.500977H2C1.46957 0.500977 0.960859 0.71169 0.585786 1.08676C0.210714 1.46184 0 1.97054 0 2.50098V18.501C0 19.0314 0.210714 19.5401 0.585786 19.9152C0.960859 20.2903 1.46957 20.501 2 20.501H14C14.45 20.501 14.85 20.351 15.19 20.101L10.76 15.671C9.96 16.191 9 16.501 8 16.501C6.67392 16.501 5.40215 15.9742 4.46447 15.0365C3.52678 14.0988 3 12.8271 3 11.501C3 10.1749 3.52678 8.90312 4.46447 7.96544C5.40215 7.02776 6.67392 6.50098 8 6.50098C9.32608 6.50098 10.5979 7.02776 11.5355 7.96544C12.4732 8.90312 13 10.1749 13 11.501C13 12.501 12.69 13.461 12.17 14.251L16 18.091Z" fill="#0CAF6F"/>
</svg>
