<svg width="20" height="18" viewBox="0 0 20 18" fill="none" xmlns="http://www.w3.org/2000/svg">
<path d="M2.47012 17.4997H17.5301C19.0701 17.4997 20.0301 15.8297 19.2601 14.4997L11.7301 1.48969C10.9601 0.159688 9.04012 0.159688 8.27012 1.48969L0.740121 14.4997C-0.0298788 15.8297 0.930121 17.4997 2.47012 17.4997ZM10.0001 10.4997C9.45012 10.4997 9.00012 10.0497 9.00012 9.49969V7.49969C9.00012 6.94969 9.45012 6.49969 10.0001 6.49969C10.5501 6.49969 11.0001 6.94969 11.0001 7.49969V9.49969C11.0001 10.0497 10.5501 10.4997 10.0001 10.4997ZM11.0001 14.4997H9.00012V12.4997H11.0001V14.4997Z" fill="#D4335D"/>
</svg>
