<svg width="20" height="21" viewBox="0 0 20 21" fill="none" xmlns="http://www.w3.org/2000/svg">
<path d="M8.6 12.3L6.45 10.15C6.26667 9.96667 6.03333 9.875 5.75 9.875C5.46667 9.875 5.23333 9.96667 5.05 10.15C4.86667 10.3333 4.775 10.5667 4.775 10.85C4.775 11.1333 4.86667 11.3667 5.05 11.55L7.9 14.4C8.1 14.6 8.33333 14.7 8.6 14.7C8.86667 14.7 9.1 14.6 9.3 14.4L14.95 8.75C15.1333 8.56667 15.225 8.33333 15.225 8.05C15.225 7.76667 15.1333 7.53333 14.95 7.35C14.7667 7.16667 14.5333 7.075 14.25 7.075C13.9667 7.075 13.7333 7.16667 13.55 7.35L8.6 12.3ZM10 20.5C8.61667 20.5 7.31667 20.2375 6.1 19.7125C4.88333 19.1875 3.825 18.475 2.925 17.575C2.025 16.675 1.3125 15.6167 0.7875 14.4C0.2625 13.1833 0 11.8833 0 10.5C0 9.11667 0.2625 7.81667 0.7875 6.6C1.3125 5.38333 2.025 4.325 2.925 3.425C3.825 2.525 4.88333 1.8125 6.1 1.2875C7.31667 0.7625 8.61667 0.5 10 0.5C11.3833 0.5 12.6833 0.7625 13.9 1.2875C15.1167 1.8125 16.175 2.525 17.075 3.425C17.975 4.325 18.6875 5.38333 19.2125 6.6C19.7375 7.81667 20 9.11667 20 10.5C20 11.8833 19.7375 13.1833 19.2125 14.4C18.6875 15.6167 17.975 16.675 17.075 17.575C16.175 18.475 15.1167 19.1875 13.9 19.7125C12.6833 20.2375 11.3833 20.5 10 20.5Z" fill="#737373"/>
</svg>
