<svg width="24" height="24" viewBox="0 0 24 24" fill="none" xmlns="http://www.w3.org/2000/svg">
<path d="M17 15C16.3 15 15.7083 14.7583 15.225 14.275C14.7417 13.7917 14.5 13.2 14.5 12.5C14.5 11.8 14.7417 11.2083 15.225 10.725C15.7083 10.2417 16.3 10 17 10C17.7 10 18.2917 10.2417 18.775 10.725C19.2583 11.2083 19.5 11.8 19.5 12.5C19.5 13.2 19.2583 13.7917 18.775 14.275C18.2917 14.7583 17.7 15 17 15ZM13 20C12.7167 20 12.4792 19.9042 12.2875 19.7125C12.0958 19.5208 12 19.2833 12 19V18.6C12 18.2 12.1042 17.8292 12.3125 17.4875C12.5208 17.1458 12.8167 16.9 13.2 16.75C13.8 16.5 14.4208 16.3125 15.0625 16.1875C15.7042 16.0625 16.35 16 17 16C17.65 16 18.2958 16.0625 18.9375 16.1875C19.5792 16.3125 20.2 16.5 20.8 16.75C21.1833 16.9 21.4792 17.1458 21.6875 17.4875C21.8958 17.8292 22 18.2 22 18.6V19C22 19.2833 21.9042 19.5208 21.7125 19.7125C21.5208 19.9042 21.2833 20 21 20H13ZM10 12C8.9 12 7.95833 11.6083 7.175 10.825C6.39167 10.0417 6 9.1 6 8C6 6.9 6.39167 5.95833 7.175 5.175C7.95833 4.39167 8.9 4 10 4C11.1 4 12.0417 4.39167 12.825 5.175C13.6083 5.95833 14 6.9 14 8C14 9.1 13.6083 10.0417 12.825 10.825C12.0417 11.6083 11.1 12 10 12ZM2 17.2C2 16.6333 2.14167 16.1125 2.425 15.6375C2.70833 15.1625 3.1 14.8 3.6 14.55C4.6 14.05 5.6375 13.6667 6.7125 13.4C7.7875 13.1333 8.88333 13 10 13C10.5833 13 11.1667 13.05 11.75 13.15C12.3333 13.25 12.9167 13.3667 13.5 13.5L11.8 15.2C11.3833 15.6167 10.9792 16.0417 10.5875 16.475C10.1958 16.9083 10 17.4167 10 18V18.975C10 19.175 10.0375 19.3625 10.1125 19.5375C10.1875 19.7125 10.3083 19.8667 10.475 20H4C3.45 20 2.97917 19.8042 2.5875 19.4125C2.19583 19.0208 2 18.55 2 18V17.2Z" fill="#737373"/>
</svg>
