<svg width="20" height="12" viewBox="0 0 20 12" fill="none" xmlns="http://www.w3.org/2000/svg">
<path fill-rule="evenodd" clip-rule="evenodd" d="M1.8125 0.167969C0.81 0.167969 0 0.977969 0 1.97922V8.21172C0 10.2117 1.6225 11.8342 3.6225 11.8342H12.355C13.355 11.8342 14.1675 11.023 14.1675 10.0217V3.79172C14.1672 2.83074 13.7853 1.90922 13.1058 1.22971C12.4262 0.550193 11.5047 0.1683 10.5438 0.167969H1.8125ZM20 1.80422V10.198C20 10.878 19.2275 11.273 18.6762 10.8717L16.1025 8.99922C15.8897 8.84486 15.7166 8.64225 15.5973 8.40801C15.478 8.17377 15.416 7.91458 15.4163 7.65172V4.34922C15.4163 3.81547 15.6713 3.31547 16.1038 3.00172L18.6762 1.12922C18.8007 1.03883 18.9477 0.984626 19.101 0.972591C19.2543 0.960556 19.408 0.991162 19.545 1.06102C19.682 1.13089 19.797 1.23728 19.8773 1.36845C19.9576 1.49961 20.0001 1.65043 20 1.80422Z" fill="#2663FF"/>
</svg>
