<svg width="22" height="20" viewBox="0 0 22 20" fill="none" xmlns="http://www.w3.org/2000/svg">
<path d="M20 18.501V2.50098H2V9.50098C2 9.78431 1.90417 10.0218 1.7125 10.2135C1.52083 10.4051 1.28333 10.501 1 10.501C0.716667 10.501 0.479167 10.4051 0.2875 10.2135C0.0958333 10.0218 0 9.78431 0 9.50098V2.50098C0 1.95098 0.195833 1.48014 0.5875 1.08848C0.979167 0.69681 1.45 0.500977 2 0.500977H20C20.55 0.500977 21.0208 0.69681 21.4125 1.08848C21.8042 1.48014 22 1.95098 22 2.50098V16.501C22 17.051 21.8042 17.5218 21.4125 17.9135C21.0208 18.3051 20.55 18.501 20 18.501ZM8 11.501C6.9 11.501 5.95833 11.1093 5.175 10.326C4.39167 9.54264 4 8.60098 4 7.50098C4 6.40098 4.39167 5.45931 5.175 4.67598C5.95833 3.89264 6.9 3.50098 8 3.50098C9.1 3.50098 10.0417 3.89264 10.825 4.67598C11.6083 5.45931 12 6.40098 12 7.50098C12 8.60098 11.6083 9.54264 10.825 10.326C10.0417 11.1093 9.1 11.501 8 11.501ZM2 19.501C1.45 19.501 0.979167 19.3051 0.5875 18.9135C0.195833 18.5218 0 18.051 0 17.501V16.701C0 16.1343 0.145833 15.6135 0.4375 15.1385C0.729167 14.6635 1.11667 14.301 1.6 14.051C2.63333 13.5343 3.68333 13.1468 4.75 12.8885C5.81667 12.6301 6.9 12.501 8 12.501C9.1 12.501 10.1833 12.6301 11.25 12.8885C12.3167 13.1468 13.3667 13.5343 14.4 14.051C14.8833 14.301 15.2708 14.6635 15.5625 15.1385C15.8542 15.6135 16 16.1343 16 16.701V17.501C16 18.051 15.8042 18.5218 15.4125 18.9135C15.0208 19.3051 14.55 19.501 14 19.501H2Z" fill="#0CAF6F"/>
</svg>
