<svg width="20" height="17" viewBox="0 0 20 17" fill="none" xmlns="http://www.w3.org/2000/svg">
<path d="M17.4987 15.5V2.16667H2.4987V8C2.4987 8.23611 2.41884 8.43403 2.25911 8.59375C2.09939 8.75347 1.90148 8.83333 1.66536 8.83333C1.42925 8.83333 1.23134 8.75347 1.07161 8.59375C0.911892 8.43403 0.832031 8.23611 0.832031 8V2.16667C0.832031 1.70833 0.995226 1.31597 1.32161 0.989583C1.648 0.663194 2.04036 0.5 2.4987 0.5H17.4987C17.957 0.5 18.3494 0.663194 18.6758 0.989583C19.0022 1.31597 19.1654 1.70833 19.1654 2.16667V13.8333C19.1654 14.2917 19.0022 14.684 18.6758 15.0104C18.3494 15.3368 17.957 15.5 17.4987 15.5ZM7.4987 9.66667C6.58203 9.66667 5.79731 9.34028 5.14453 8.6875C4.49175 8.03472 4.16536 7.25 4.16536 6.33333C4.16536 5.41667 4.49175 4.63194 5.14453 3.97917C5.79731 3.32639 6.58203 3 7.4987 3C8.41536 3 9.20009 3.32639 9.85286 3.97917C10.5056 4.63194 10.832 5.41667 10.832 6.33333C10.832 7.25 10.5056 8.03472 9.85286 8.6875C9.20009 9.34028 8.41536 9.66667 7.4987 9.66667ZM2.4987 16.3333C2.04036 16.3333 1.648 16.1701 1.32161 15.8438C0.995226 15.5174 0.832031 15.125 0.832031 14.6667V14C0.832031 13.5278 0.953559 13.0938 1.19661 12.6979C1.43967 12.3021 1.76259 12 2.16536 11.7917C3.02648 11.3611 3.90148 11.0382 4.79036 10.8229C5.67925 10.6076 6.58203 10.5 7.4987 10.5C8.41536 10.5 9.31814 10.6076 10.207 10.8229C11.0959 11.0382 11.9709 11.3611 12.832 11.7917C13.2348 12 13.5577 12.3021 13.8008 12.6979C14.0438 13.0938 14.1654 13.5278 14.1654 14V14.6667C14.1654 15.125 14.0022 15.5174 13.6758 15.8438C13.3494 16.1701 12.957 16.3333 12.4987 16.3333H2.4987Z" fill="#0CAF6F"/>
</svg>
