<svg width="16" height="17" viewBox="0 0 16 17" fill="none" xmlns="http://www.w3.org/2000/svg">
<path d="M7.99933 13.7996L4.29933 16.6246C4.116 16.7746 3.916 16.8456 3.69933 16.8376C3.48266 16.8296 3.291 16.7669 3.12433 16.6496C2.95766 16.5323 2.82866 16.3739 2.73733 16.1746C2.646 15.9753 2.64166 15.7586 2.72433 15.5246L4.14933 10.8996L0.52433 8.32461C0.32433 8.19128 0.19933 8.01628 0.14933 7.79961C0.0993303 7.58295 0.107664 7.38295 0.17433 7.19961C0.240997 7.01628 0.357664 6.85361 0.52433 6.71161C0.690997 6.56961 0.890997 6.49895 1.12433 6.49961H5.59933L7.04933 1.69961C7.13266 1.46628 7.262 1.28695 7.43733 1.16161C7.61266 1.03628 7.8 0.973948 7.99933 0.974615C8.19866 0.975281 8.38633 1.03795 8.56233 1.16261C8.73833 1.28728 8.86733 1.46628 8.94933 1.69961L10.3993 6.49961H14.8743C15.1077 6.49961 15.3077 6.57061 15.4743 6.71262C15.641 6.85462 15.7577 7.01695 15.8243 7.19961C15.891 7.38228 15.8993 7.58228 15.8493 7.79961C15.7993 8.01695 15.6743 8.19195 15.4743 8.32461L11.8493 10.8996L13.2743 15.5246C13.3577 15.7579 13.3537 15.9746 13.2623 16.1746C13.171 16.3746 13.0417 16.5329 12.8743 16.6496C12.707 16.7663 12.5153 16.8289 12.2993 16.8376C12.0833 16.8463 11.8833 16.7753 11.6993 16.6246L7.99933 13.7996Z" fill="#737373"/>
</svg>
