<svg width="20" height="20" viewBox="0 0 20 20" fill="none" xmlns="http://www.w3.org/2000/svg">
<path d="M4 16.5L1.7 18.8C1.38334 19.1167 1.02067 19.1877 0.612002 19.013C0.203335 18.8383 -0.000665038 18.5257 1.62866e-06 18.075V2.5C1.62866e-06 1.95 0.196002 1.47933 0.588002 1.088C0.980002 0.696667 1.45067 0.500667 2 0.5H18C18.55 0.5 19.021 0.696 19.413 1.088C19.805 1.48 20.0007 1.95067 20 2.5V14.5C20 15.05 19.8043 15.521 19.413 15.913C19.0217 16.305 18.5507 16.5007 18 16.5H4ZM10 13.5C10.2833 13.5 10.521 13.404 10.713 13.212C10.905 13.02 11.0007 12.7827 11 12.5C10.9993 12.2173 10.9033 11.98 10.712 11.788C10.5207 11.596 10.2833 11.5 10 11.5C9.71667 11.5 9.47934 11.596 9.288 11.788C9.09667 11.98 9.00067 12.2173 9 12.5C8.99934 12.7827 9.09534 13.0203 9.288 13.213C9.48067 13.4057 9.718 13.5013 10 13.5ZM10 9.5C10.2833 9.5 10.521 9.404 10.713 9.212C10.905 9.02 11.0007 8.78267 11 8.5V4.5C11 4.21667 10.904 3.97933 10.712 3.788C10.52 3.59667 10.2827 3.50067 10 3.5C9.71734 3.49933 9.48 3.59533 9.288 3.788C9.096 3.98067 9 4.218 9 4.5V8.5C9 8.78333 9.096 9.021 9.288 9.213C9.48 9.405 9.71734 9.50067 10 9.5Z" fill="#737373"/>
</svg>
