<svg width="20" height="18" viewBox="0 0 20 18" fill="none" xmlns="http://www.w3.org/2000/svg">
<path d="M2.47012 17.5007H17.5301C19.0701 17.5007 20.0301 15.8307 19.2601 14.5007L11.7301 1.49066C10.9601 0.160664 9.04012 0.160664 8.27012 1.49066L0.740121 14.5007C-0.0298788 15.8307 0.930121 17.5007 2.47012 17.5007ZM10.0001 10.5007C9.45012 10.5007 9.00012 10.0507 9.00012 9.50066V7.50066C9.00012 6.95066 9.45012 6.50066 10.0001 6.50066C10.5501 6.50066 11.0001 6.95066 11.0001 7.50066V9.50066C11.0001 10.0507 10.5501 10.5007 10.0001 10.5007ZM11.0001 14.5007H9.00012V12.5007H11.0001V14.5007Z" fill="#737373"/>
</svg>
