<svg width="18" height="19" viewBox="0 0 18 19" fill="none" xmlns="http://www.w3.org/2000/svg">
<path fill-rule="evenodd" clip-rule="evenodd" d="M9 18.5C10.1819 18.5 11.3522 18.2672 12.4442 17.8149C13.5361 17.3626 14.5282 16.6997 15.364 15.864C16.1997 15.0282 16.8626 14.0361 17.3149 12.9442C17.7672 11.8522 18 10.6819 18 9.5C18 8.3181 17.7672 7.14778 17.3149 6.05585C16.8626 4.96392 16.1997 3.97177 15.364 3.13604C14.5282 2.30031 13.5361 1.63738 12.4442 1.18508C11.3522 0.732792 10.1819 0.5 9 0.5C6.61305 0.5 4.32387 1.44821 2.63604 3.13604C0.948212 4.82387 0 7.11305 0 9.5C0 11.8869 0.948212 14.1761 2.63604 15.864C4.32387 17.5518 6.61305 18.5 9 18.5ZM10 4C10 3.73478 9.89464 3.48043 9.70711 3.29289C9.51957 3.10536 9.26522 3 9 3C8.73478 3 8.48043 3.10536 8.29289 3.29289C8.10536 3.48043 8 3.73478 8 4V9.25C8 9.94 8.56 10.5 9.25 10.5H12.5C12.7652 10.5 13.0196 10.3946 13.2071 10.2071C13.3946 10.0196 13.5 9.76522 13.5 9.5C13.5 9.23478 13.3946 8.98043 13.2071 8.79289C13.0196 8.60536 12.7652 8.5 12.5 8.5H10V4Z" fill="#737373"/>
</svg>
