<svg width="20" height="21" viewBox="0 0 20 21" fill="none" xmlns="http://www.w3.org/2000/svg">
<path d="M10.0011 16.375L5.37612 19.9063C5.14695 20.0938 4.89695 20.1825 4.62612 20.1725C4.35528 20.1625 4.1157 20.0842 3.90737 19.9375C3.69903 19.7908 3.53778 19.5929 3.42362 19.3438C3.30945 19.0946 3.30403 18.8238 3.40737 18.5313L5.18862 12.75L0.657366 9.53126C0.407366 9.36459 0.251116 9.14584 0.188616 8.87501C0.126116 8.60417 0.136533 8.35417 0.219866 8.12501C0.303199 7.89584 0.449033 7.69251 0.657366 7.51501C0.865699 7.33751 1.1157 7.24917 1.40737 7.25001H7.00112L8.81362 1.25001C8.91778 0.95834 9.07945 0.734173 9.29862 0.577507C9.51778 0.42084 9.75195 0.342923 10.0011 0.343757C10.2503 0.34459 10.4849 0.422924 10.7049 0.578757C10.9249 0.73459 11.0861 0.95834 11.1886 1.25001L13.0011 7.25001H18.5949C18.8865 7.25001 19.1365 7.33876 19.3449 7.51626C19.5532 7.69376 19.699 7.89667 19.7824 8.12501C19.8657 8.35334 19.8761 8.60334 19.8136 8.87501C19.7511 9.14667 19.5949 9.36542 19.3449 9.53126L14.8136 12.75L16.5949 18.5313C16.699 18.8229 16.694 19.0938 16.5799 19.3438C16.4657 19.5938 16.304 19.7917 16.0949 19.9375C15.8857 20.0833 15.6461 20.1617 15.3761 20.1725C15.1061 20.1833 14.8561 20.0946 14.6261 19.9063L10.0011 16.375Z" fill="#F49D07"/>
</svg>
