<svg width="33" height="36" viewBox="0 0 33 36" fill="none" xmlns="http://www.w3.org/2000/svg">
<path d="M28.2505 14.8374H17.8755C17.6928 14.8374 17.5119 14.8738 17.3434 14.9444C17.175 15.0151 17.0223 15.1186 16.8943 15.2489C16.7662 15.3793 16.6655 15.5338 16.5979 15.7035C16.5303 15.8733 16.4971 16.0548 16.5005 16.2374V20.0374C16.5005 20.4021 16.6453 20.7518 16.9032 21.0097C17.1611 21.2675 17.5108 21.4124 17.8755 21.4124H25.018C25.0375 22.4539 24.8371 23.4878 24.4299 24.4466C24.0227 25.4054 23.4179 26.2675 22.6549 26.9767C21.8919 27.6859 20.9879 28.2262 20.002 28.5623C19.016 28.8985 17.9703 29.0229 16.933 28.9274C10.893 28.9274 7.98297 23.8074 7.98297 17.9899C7.98297 12.1724 11.108 7.05241 16.933 7.05241C19.5023 6.96899 22.0197 7.78807 24.048 9.36741C24.2099 9.47346 24.3931 9.5426 24.5848 9.56994C24.7764 9.59728 24.9717 9.58215 25.1568 9.52561C25.3419 9.46907 25.5123 9.37252 25.6559 9.24279C25.7996 9.11306 25.9129 8.95333 25.988 8.77491L27.688 4.89741C27.828 4.61103 27.8642 4.28489 27.7903 3.97479C27.7164 3.66469 27.5371 3.3899 27.283 3.19741C24.1911 1.352 20.6401 0.41939 17.0405 0.507411C7.22547 0.479911 0.542969 8.10241 0.542969 17.9899C0.542969 27.8749 7.25547 35.4999 16.933 35.4999C26.6105 35.4999 32.458 28.6024 32.458 19.3374C32.458 16.3724 31.273 14.8374 28.253 14.8374H28.2505Z" fill="#0CAF6F"/>
</svg>
