<svg width="53" height="53" viewBox="0 0 53 53" fill="none" xmlns="http://www.w3.org/2000/svg">
<path d="M13.1824 15.3765C13.1824 12.4631 14.3397 9.66905 16.3998 7.60899C18.4599 5.54893 21.2539 4.3916 24.1673 4.3916C27.0806 4.3916 29.8747 5.54893 31.9347 7.60899C33.9948 9.66905 35.1521 12.4631 35.1521 15.3765C35.1521 18.2898 33.9948 21.0839 31.9347 23.1439C29.8747 25.204 27.0806 26.3613 24.1673 26.3613C21.2539 26.3613 18.4599 25.204 16.3998 23.1439C14.3397 21.0839 13.1824 18.2898 13.1824 15.3765ZM10.5944 32.2316C14.1161 30.083 18.9055 28.5583 24.1673 28.5583C25.15 28.5583 26.1138 28.6095 27.0585 28.7121C27.4358 28.7525 27.7963 28.8901 28.1047 29.1113C28.4131 29.3325 28.6589 29.6299 28.8182 29.9744C28.9775 30.3189 29.0449 30.6987 29.0137 31.077C28.9825 31.4553 28.8539 31.819 28.6403 32.1327C27.1523 34.3171 26.3589 36.9001 26.3642 39.5431C26.3642 41.5643 26.819 43.4757 27.6275 45.1827C27.785 45.5153 27.8565 45.8821 27.8354 46.2495C27.8142 46.6168 27.7011 46.973 27.5065 47.2853C27.3119 47.5976 27.0419 47.856 26.7214 48.0368C26.4009 48.2176 26.0401 48.315 25.6722 48.32L24.1673 48.331C19.2702 48.331 14.6434 48.0234 11.1766 47.1051C9.45196 46.6481 7.8284 45.9934 6.59809 45.0048C5.29529 43.959 4.39453 42.498 4.39453 40.6416C4.39453 38.9126 5.18105 37.2956 6.24877 35.9423C7.33408 34.5692 8.83461 33.3059 10.5944 32.2294V32.2316ZM37.3491 46.134C37.3492 45.5959 37.5467 45.0765 37.9043 44.6744C38.2619 44.2723 38.7546 44.0154 39.289 43.9524L39.5504 43.9371C40.1104 43.9377 40.649 44.1521 41.0562 44.5365C41.4634 44.9209 41.7084 45.4463 41.7412 46.0053C41.774 46.5643 41.5921 47.1147 41.2327 47.5441C40.8733 47.9735 40.3635 48.2495 39.8075 48.3156L39.5461 48.331C38.9634 48.331 38.4046 48.0995 37.9926 47.6875C37.5805 47.2755 37.3491 46.7167 37.3491 46.134ZM38.5948 35.6984C38.7157 35.489 38.9023 35.3254 39.1257 35.2328C39.3491 35.1403 39.5968 35.1241 39.8304 35.1867C40.0639 35.2492 40.2703 35.3871 40.4175 35.579C40.5647 35.7708 40.6445 36.0059 40.6445 36.2477C40.6445 36.5443 40.5391 36.8079 39.9393 37.3022L39.6208 37.5527L39.3791 37.7328C39.2165 37.8536 39.0232 37.9964 38.8452 38.1414L38.5398 38.3963C38.0584 38.8076 37.6895 39.3345 37.4677 39.9276C37.2879 40.4526 37.3135 41.0262 37.5393 41.5332C37.7651 42.0401 38.1744 42.4428 38.6849 42.6604C39.1954 42.8779 39.7694 42.8942 40.2914 42.706C40.8135 42.5178 41.245 42.1389 41.4992 41.6456L41.7123 41.4764L42.4966 40.8833L42.7317 40.6943L43.1293 40.3472C44.0213 39.5255 45.0385 38.2205 45.0385 36.2477C45.0393 35.0394 44.6417 33.8646 43.9072 32.9052C43.1728 31.9458 42.1425 31.2554 40.9759 30.9409C39.8093 30.6263 38.5716 30.7052 37.4544 31.1654C36.3372 31.6255 35.4029 32.4412 34.7962 33.4861C34.5028 33.9898 34.4216 34.5894 34.5703 35.1531C34.719 35.7167 35.0856 36.1982 35.5893 36.4915C36.093 36.7849 36.6927 36.8662 37.2563 36.7174C37.8199 36.5687 38.3014 36.2021 38.5948 35.6984Z" fill="#0CAF6F"/>
</svg>
