<svg width="53" height="53" viewBox="0 0 53 53" fill="none" xmlns="http://www.w3.org/2000/svg">
<path d="M17.95 4.94141H38.228C39.6934 4.94141 41.1632 5.18088 42.1892 6.24421C43.1998 7.29436 43.3909 8.74875 43.3909 10.1043V36.0285C43.3909 37.2215 43.2327 38.3947 42.622 39.3438C42.2696 39.8912 41.7763 40.3336 41.1939 40.6246V42.6194C41.1939 44.0826 40.9567 45.5524 39.8955 46.5784C38.8454 47.5934 37.391 47.7823 36.0355 47.7823H12.6333C11.7593 47.7823 10.9211 47.4351 10.3031 46.8171C9.68507 46.1991 9.33787 45.3609 9.33787 44.4869V13.2174C9.33128 12.1233 9.32469 10.7568 9.62348 9.5111C9.99037 7.9908 10.8362 6.51663 12.6355 5.6005C13.3781 5.22262 14.1602 5.07322 14.9951 5.00732C15.797 4.94141 16.7746 4.94141 17.95 4.94141ZM12.6333 44.4869H36.0355C37.2372 44.4869 37.536 44.276 37.6041 44.21C37.659 44.1573 37.8985 43.8695 37.8985 42.6194V41.1914H15.9288C15.0548 41.1914 14.2166 41.5386 13.5985 42.1566C12.9805 42.7746 12.6333 43.6129 12.6333 44.4869Z" fill="#0CAF6F"/>
</svg>
