<svg width="53" height="53" viewBox="0 0 53 53" fill="none" xmlns="http://www.w3.org/2000/svg">
<path d="M41.743 35.1495H36.1957C35.8681 35.1497 35.5449 35.224 35.2501 35.3666C34.9553 35.5093 34.6965 35.7167 34.493 35.9733L28.0669 43.9923C27.8611 44.2497 27.6 44.4575 27.303 44.6002C27.0059 44.743 26.6806 44.8172 26.351 44.8172C26.0215 44.8172 25.6962 44.743 25.3991 44.6002C25.1021 44.4575 24.841 44.2497 24.6352 43.9923L18.2091 35.9733C18.0054 35.7164 17.7462 35.5088 17.451 35.3662C17.1558 35.2235 16.8321 35.1494 16.5042 35.1495H10.9854C7.33408 35.1495 4.39453 32.2099 4.39453 28.5586V13.1798C4.39453 9.52841 7.33408 6.58887 10.9854 6.58887H41.743C45.3966 6.58887 48.3339 9.52841 48.3339 13.1798V28.5586C48.3339 32.2099 45.3966 35.1495 41.743 35.1495Z" fill="#0CAF6F"/>
</svg>
