<svg width="18" height="22" viewBox="0 0 18 22" fill="none" xmlns="http://www.w3.org/2000/svg">
<path d="M6.99929 2.5H10.9993C11.5493 2.5 11.9993 2.05 11.9993 1.5C11.9993 0.95 11.5493 0.5 10.9993 0.5H6.99929C6.44929 0.5 5.99929 0.95 5.99929 1.5C5.99929 2.05 6.44929 2.5 6.99929 2.5ZM16.0293 6.89L16.7793 6.14C16.9642 5.95395 17.068 5.7023 17.068 5.44C17.068 5.1777 16.9642 4.92605 16.7793 4.74L16.7693 4.73C16.5833 4.54509 16.3316 4.44131 16.0693 4.44131C15.807 4.44131 15.5553 4.54509 15.3693 4.73L14.6193 5.48C13.0267 4.19818 11.0437 3.49953 8.99929 3.5C4.19929 3.5 0.119295 7.46 -0.000705459 12.26C-0.0327686 13.4619 0.176331 14.6581 0.614246 15.7779C1.05216 16.8977 1.71001 17.9184 2.54895 18.7797C3.3879 19.641 4.39092 20.3255 5.49879 20.7927C6.60667 21.2599 7.79693 21.5004 8.99929 21.5C10.6936 21.5009 12.3537 21.0232 13.7884 20.122C15.2231 19.2207 16.3741 17.9325 17.1087 16.4057C17.8434 14.879 18.1318 13.1758 17.9408 11.4923C17.7499 9.80874 17.0872 8.21341 16.0293 6.89ZM9.99929 12.5C9.99929 13.05 9.54929 13.5 8.99929 13.5C8.44929 13.5 7.99929 13.05 7.99929 12.5V8.5C7.99929 7.95 8.44929 7.5 8.99929 7.5C9.54929 7.5 9.99929 7.95 9.99929 8.5V12.5Z" fill="#3C3C43" fill-opacity="0.3"/>
</svg>
