<svg width="16" height="23" viewBox="0 0 16 23" fill="none" xmlns="http://www.w3.org/2000/svg">
<path fill-rule="evenodd" clip-rule="evenodd" d="M10.447 0.105363C10.684 0.224015 10.8642 0.43191 10.948 0.683367C11.0319 0.934824 11.0124 1.20927 10.894 1.4464L10.118 2.99945H14C14.5304 2.99945 15.0391 3.21017 15.4142 3.58526C15.7893 3.96034 16 4.46906 16 4.99951V18.9999C16 19.5304 15.7893 20.0391 15.4142 20.4142C15.0391 20.7893 14.5304 21 14 21H2C1.46957 21 0.960859 20.7893 0.585786 20.4142C0.210714 20.0391 0 19.5304 0 18.9999V4.99951C0 4.46906 0.210714 3.96034 0.585786 3.58526C0.960859 3.21017 1.46957 2.99945 2 2.99945H5.882L5.106 1.4464C4.99702 1.21049 4.98416 0.94141 5.07014 0.696172C5.15611 0.450934 5.33418 0.248797 5.56661 0.132578C5.79904 0.0163588 6.06758 -0.00481333 6.31535 0.0735462C6.56312 0.151906 6.77066 0.323642 6.894 0.552377L8 2.76244L9.106 0.552377C9.22465 0.315358 9.43254 0.135138 9.68399 0.0513192C9.93544 -0.0324999 10.2099 -0.0130614 10.447 0.105363ZM9.5 12.9998H6.5C5.86528 12.9997 5.25429 13.241 4.79095 13.6748C4.32762 14.1086 4.04664 14.7025 4.005 15.3358L4 15.4998V15.9998C4.00028 16.2547 4.09788 16.4999 4.27285 16.6852C4.44782 16.8706 4.68695 16.9821 4.94139 16.997C5.19584 17.012 5.44638 16.9292 5.64183 16.7656C5.83729 16.602 5.9629 16.37 5.993 16.1169L6 15.9998V15.4998C5.99996 15.3828 6.04097 15.2695 6.11589 15.1796C6.19081 15.0897 6.29489 15.0289 6.41 15.0078L6.5 14.9998H9.5C9.61703 14.9998 9.73036 15.0408 9.82026 15.1157C9.91016 15.1906 9.97093 15.2947 9.992 15.4098L10 15.4998V15.9998C10.0003 16.2547 10.0979 16.4999 10.2728 16.6852C10.4478 16.8706 10.687 16.9821 10.9414 16.997C11.1958 17.012 11.4464 16.9292 11.6418 16.7656C11.8373 16.602 11.9629 16.37 11.993 16.1169L12 15.9998V15.4998C12.0001 14.8651 11.7588 14.2541 11.325 13.7907C10.8912 13.3274 10.2974 13.0464 9.664 13.0048L9.5 12.9998ZM8 7.9996C7.46957 7.9996 6.96086 8.21032 6.58579 8.58541C6.21071 8.96049 6 9.46922 6 9.99966C6 10.5301 6.21071 11.0388 6.58579 11.4139C6.96086 11.789 7.46957 11.9997 8 11.9997C8.53043 11.9997 9.03914 11.789 9.41421 11.4139C9.78929 11.0388 10 10.5301 10 9.99966C10 9.46922 9.78929 8.96049 9.41421 8.58541C9.03914 8.21032 8.53043 7.9996 8 7.9996Z" fill="#3C3C43" fill-opacity="0.3"/>
</svg>
