<svg width="20" height="22" viewBox="0 0 20 22" fill="none" xmlns="http://www.w3.org/2000/svg">
<path fill-rule="evenodd" clip-rule="evenodd" d="M10.3217 20.8229L10.3107 20.8249L10.2397 20.8599L10.2197 20.8639L10.2057 20.8599L10.1347 20.8249C10.124 20.8215 10.116 20.8232 10.1107 20.8299L10.1067 20.8399L10.0897 21.2679L10.0947 21.2879L10.1047 21.3009L10.2087 21.3749L10.2237 21.3789L10.2357 21.3749L10.3397 21.3009L10.3517 21.2849L10.3557 21.2679L10.3387 20.8409C10.336 20.8302 10.3304 20.8242 10.3217 20.8229ZM10.5867 20.7099L10.5737 20.7119L10.3887 20.8049L10.3787 20.8149L10.3757 20.8259L10.3937 21.2559L10.3987 21.2679L10.4067 21.2749L10.6077 21.3679C10.6204 21.3712 10.63 21.3685 10.6367 21.3599L10.6407 21.3459L10.6067 20.7319C10.6034 20.7199 10.5967 20.7125 10.5867 20.7099ZM9.87169 20.7119C9.86728 20.7092 9.86201 20.7083 9.85698 20.7095C9.85195 20.7106 9.84755 20.7136 9.84469 20.7179L9.83869 20.7319L9.80469 21.3459C9.80535 21.3579 9.81102 21.3659 9.82169 21.3699L9.83669 21.3679L10.0377 21.2749L10.0477 21.2669L10.0517 21.2559L10.0687 20.8259L10.0657 20.8139L10.0557 20.8039L9.87169 20.7119Z" fill="#3C3C43" fill-opacity="0.3"/>
<path fill-rule="evenodd" clip-rule="evenodd" d="M5.25475 0.221409C6.50467 -0.100631 7.81929 -0.070862 9.05335 0.307428C10.2874 0.685718 11.3929 1.3978 12.2476 2.365C13.1023 3.33219 13.673 4.51685 13.8966 5.78807C14.1202 7.05929 13.9881 8.36759 13.5147 9.56841L18.1137 13.4614C18.4625 13.7562 18.7464 14.1201 18.9473 14.5302C19.1481 14.9403 19.2617 15.3877 19.2808 15.8439C19.2999 16.3002 19.2241 16.7554 19.0582 17.1809C18.8923 17.6064 18.6399 17.9927 18.3169 18.3156C17.994 18.6385 17.6075 18.8908 17.182 19.0566C16.7565 19.2225 16.3013 19.2982 15.845 19.279C15.3887 19.2598 14.9414 19.1461 14.5314 18.9451C14.1213 18.7442 13.7574 18.4603 13.4627 18.1114L9.57175 13.5144C8.37078 13.9885 7.0621 14.1213 5.79039 13.898C4.51868 13.6747 3.33348 13.1041 2.36583 12.2493C1.39819 11.3945 0.685783 10.2887 0.307392 9.05421C-0.0709995 7.81974 -0.10064 6.50467 0.221748 5.25441C0.267204 5.07873 0.359149 4.91855 0.487917 4.7907C0.616684 4.66284 0.777519 4.57204 0.953512 4.52784C1.12951 4.48364 1.31416 4.48766 1.48806 4.5395C1.66196 4.59133 1.81868 4.68906 1.94175 4.82241L4.98675 8.12941L7.28375 7.28441L8.13075 4.98441L4.82175 1.94441C4.6876 1.82138 4.5892 1.66438 4.53694 1.49002C4.48469 1.31567 4.48052 1.13043 4.52488 0.953897C4.56925 0.777366 4.66049 0.616104 4.78897 0.487166C4.91744 0.358227 5.07838 0.266405 5.25475 0.221409Z" fill="#3C3C43" fill-opacity="0.3"/>
</svg>
