<svg width="21" height="20" viewBox="0 0 21 20" fill="none" xmlns="http://www.w3.org/2000/svg">
<path d="M18.9686 0.000139831H2.02859C1.83817 -0.00250479 1.64909 0.0323873 1.47216 0.102824C1.29522 0.17326 1.1339 0.27786 0.997391 0.410652C0.860885 0.543443 0.751875 0.701824 0.676586 0.876749C0.601296 1.05167 0.561202 1.23972 0.558594 1.43014V18.5701C0.561202 18.7606 0.601296 18.9486 0.676586 19.1235C0.751875 19.2985 0.860885 19.4568 0.997391 19.5896C1.1339 19.7224 1.29522 19.827 1.47216 19.8975C1.64909 19.9679 1.83817 20.0028 2.02859 20.0001H18.9686C19.159 20.0028 19.3481 19.9679 19.525 19.8975C19.702 19.827 19.8633 19.7224 19.9998 19.5896C20.1363 19.4568 20.2453 19.2985 20.3206 19.1235C20.3959 18.9486 20.436 18.7606 20.4386 18.5701V1.43014C20.436 1.23972 20.3959 1.05167 20.3206 0.876749C20.2453 0.701824 20.1363 0.543443 19.9998 0.410652C19.8633 0.27786 19.702 0.17326 19.525 0.102824C19.3481 0.0323873 19.159 -0.00250479 18.9686 0.000139831ZM6.58859 16.7401H3.58859V7.74014H6.58859V16.7401ZM5.08859 6.48014C4.67486 6.48014 4.27806 6.31578 3.98551 6.02323C3.69295 5.73067 3.52859 5.33388 3.52859 4.92014C3.52859 4.5064 3.69295 4.10961 3.98551 3.81705C4.27806 3.5245 4.67486 3.36014 5.08859 3.36014C5.30829 3.33522 5.53077 3.35699 5.74147 3.42402C5.95217 3.49105 6.14633 3.60183 6.31125 3.7491C6.47617 3.89637 6.60812 4.07682 6.69846 4.27862C6.78881 4.48043 6.83551 4.69904 6.83551 4.92014C6.83551 5.14124 6.78881 5.35985 6.69846 5.56166C6.60812 5.76346 6.47617 5.94391 6.31125 6.09118C6.14633 6.23845 5.95217 6.34923 5.74147 6.41626C5.53077 6.48329 5.30829 6.50505 5.08859 6.48014ZM17.4086 16.7401H14.4086V11.9101C14.4086 10.7001 13.9786 9.91014 12.8886 9.91014C12.5513 9.91261 12.2228 10.0184 11.9474 10.2133C11.6721 10.4082 11.4631 10.6828 11.3486 11.0001C11.2703 11.2352 11.2364 11.4827 11.2486 11.7301V16.7301H8.24859V7.73014H11.2486V9.00014C11.5211 8.52725 11.9175 8.13766 12.395 7.87334C12.8726 7.60902 13.4132 7.47999 13.9586 7.50014C15.9586 7.50014 17.4086 8.79014 17.4086 11.5601V16.7401Z" fill="white"/>
</svg>
