<svg width="20" height="23" viewBox="0 0 20 23" fill="none" xmlns="http://www.w3.org/2000/svg">
<path fill-rule="evenodd" clip-rule="evenodd" d="M10.5951 21.7584L10.5841 21.7604L10.5131 21.7954L10.4931 21.7994L10.4791 21.7954L10.4081 21.7604C10.3975 21.7571 10.3895 21.7588 10.3841 21.7654L10.3801 21.7754L10.3631 22.2034L10.3681 22.2234L10.3781 22.2364L10.4821 22.3104L10.4971 22.3144L10.5091 22.3104L10.6131 22.2364L10.6251 22.2204L10.6291 22.2034L10.6121 21.7764C10.6095 21.7658 10.6038 21.7598 10.5951 21.7584ZM10.8601 21.6454L10.8471 21.6474L10.6621 21.7404L10.6521 21.7504L10.6491 21.7614L10.6671 22.1914L10.6721 22.2034L10.6801 22.2104L10.8811 22.3034C10.8938 22.3068 10.9035 22.3041 10.9101 22.2954L10.9141 22.2814L10.8801 21.6674C10.8768 21.6554 10.8701 21.6481 10.8601 21.6454ZM10.1451 21.6474C10.1407 21.6448 10.1355 21.6439 10.1304 21.645C10.1254 21.6461 10.121 21.6491 10.1181 21.6534L10.1121 21.6674L10.0781 22.2814C10.0788 22.2934 10.0845 22.3014 10.0951 22.3054L10.1101 22.3034L10.3111 22.2104L10.3211 22.2024L10.3251 22.1914L10.3421 21.7614L10.3391 21.7494L10.3291 21.7394L10.1451 21.6474Z" fill="#3C3C43" fill-opacity="0.3"/>
<path fill-rule="evenodd" clip-rule="evenodd" d="M5.52819 1.15696C6.77811 0.834915 8.09273 0.864685 9.32679 1.24297C10.5608 1.62126 11.6663 2.33335 12.521 3.30054C13.3757 4.26774 13.9464 5.4524 14.1701 6.72362C14.3937 7.99484 14.2615 9.30314 13.7882 10.504L18.3872 14.397C18.736 14.6917 19.0198 15.0557 19.2207 15.4658C19.4216 15.8759 19.5352 16.3232 19.5543 16.7795C19.5734 17.2357 19.4975 17.691 19.3316 18.1164C19.1657 18.5419 18.9133 18.9283 18.5903 19.2512C18.2674 19.574 17.881 19.8264 17.4555 19.9922C17.03 20.158 16.5747 20.2337 16.1184 20.2145C15.6622 20.1953 15.2149 20.0817 14.8048 19.8807C14.3948 19.6797 14.0309 19.3958 13.7362 19.047L9.84519 14.45C8.64422 14.9241 7.33554 15.0568 6.06383 14.8336C4.79212 14.6103 3.60692 14.0397 2.63927 13.1849C1.67162 12.33 0.959221 11.2242 0.580829 9.98976C0.202438 8.75529 0.172798 7.44022 0.495186 6.18996C0.540642 6.01428 0.632586 5.8541 0.761354 5.72624C0.890122 5.59839 1.05096 5.50759 1.22695 5.46339C1.40294 5.41918 1.5876 5.42321 1.76149 5.47505C1.93539 5.52688 2.09212 5.62461 2.21519 5.75796L5.26019 9.06495L7.55719 8.21996L8.40419 5.91996L5.09519 2.87996C4.96104 2.75692 4.86264 2.59993 4.81038 2.42557C4.75812 2.25121 4.75396 2.06597 4.79832 1.88944C4.84268 1.71291 4.93393 1.55165 5.0624 1.42271C5.19088 1.29377 5.35181 1.20195 5.52819 1.15696Z" fill="#3C3C43" fill-opacity="0.3"/>
</svg>
