<svg width="24" height="25" viewBox="0 0 24 25" fill="none" xmlns="http://www.w3.org/2000/svg">
<path fill-rule="evenodd" clip-rule="evenodd" d="M14.447 2.10536C14.684 2.22401 14.8642 2.43191 14.948 2.68337C15.0319 2.93482 15.0124 3.20927 14.894 3.4464L14.118 4.99945H18C18.5304 4.99945 19.0391 5.21017 19.4142 5.58526C19.7893 5.96034 20 6.46906 20 6.99951V20.9999C20 21.5304 19.7893 22.0391 19.4142 22.4142C19.0391 22.7893 18.5304 23 18 23H6C5.46957 23 4.96086 22.7893 4.58579 22.4142C4.21071 22.0391 4 21.5304 4 20.9999V6.99951C4 6.46906 4.21071 5.96034 4.58579 5.58526C4.96086 5.21017 5.46957 4.99945 6 4.99945H9.882L9.106 3.4464C8.99702 3.21049 8.98416 2.94141 9.07014 2.69617C9.15611 2.45093 9.33418 2.2488 9.56661 2.13258C9.79904 2.01636 10.0676 1.99519 10.3153 2.07355C10.5631 2.15191 10.7707 2.32364 10.894 2.55238L12 4.76244L13.106 2.55238C13.2246 2.31536 13.4325 2.13514 13.684 2.05132C13.9354 1.9675 14.2099 1.98694 14.447 2.10536ZM13.5 14.9998H10.5C9.86528 14.9997 9.25429 15.241 8.79095 15.6748C8.32762 16.1086 8.04664 16.7025 8.005 17.3358L8 17.4998V17.9998C8.00028 18.2547 8.09788 18.4999 8.27285 18.6852C8.44782 18.8706 8.68695 18.9821 8.94139 18.997C9.19584 19.012 9.44638 18.9292 9.64183 18.7656C9.83729 18.602 9.9629 18.37 9.993 18.1169L10 17.9998V17.4998C9.99996 17.3828 10.041 17.2695 10.1159 17.1796C10.1908 17.0897 10.2949 17.0289 10.41 17.0078L10.5 16.9998H13.5C13.617 16.9998 13.7304 17.0408 13.8203 17.1157C13.9102 17.1906 13.9709 17.2947 13.992 17.4098L14 17.4998V17.9998C14.0003 18.2547 14.0979 18.4999 14.2728 18.6852C14.4478 18.8706 14.687 18.9821 14.9414 18.997C15.1958 19.012 15.4464 18.9292 15.6418 18.7656C15.8373 18.602 15.9629 18.37 15.993 18.1169L16 17.9998V17.4998C16.0001 16.8651 15.7588 16.2541 15.325 15.7907C14.8912 15.3274 14.2974 15.0464 13.664 15.0048L13.5 14.9998ZM12 9.9996C11.4696 9.9996 10.9609 10.2103 10.5858 10.5854C10.2107 10.9605 10 11.4692 10 11.9997C10 12.5301 10.2107 13.0388 10.5858 13.4139C10.9609 13.789 11.4696 13.9997 12 13.9997C12.5304 13.9997 13.0391 13.789 13.4142 13.4139C13.7893 13.0388 14 12.5301 14 11.9997C14 11.4692 13.7893 10.9605 13.4142 10.5854C13.0391 10.2103 12.5304 9.9996 12 9.9996Z" fill="#3C3C43" fill-opacity="0.3"/>
</svg>
