<svg width="199" height="150" viewBox="0 0 199 150" fill="none" xmlns="http://www.w3.org/2000/svg">
<circle cx="99.167" cy="75" r="75" fill="#F5F5F5"/>
<g filter="url(#filter0_dddd_858_5703)">
<path d="M169.687 19.4805H23.167V133.999H169.687V19.4805Z" fill="#A6A6A6" stroke="#A6A6A6" stroke-miterlimit="10"/>
<path d="M174.882 15H27.9202V129.79H174.882V15Z" fill="#0CAF6F"/>
<path d="M174.882 15H27.9202V129.79H174.882V15Z" fill="white" stroke="#A6A6A6" stroke-linecap="round" stroke-linejoin="round"/>
<path d="M63.0233 31.2656H31.9198V50.9793H63.0233V31.2656Z" fill="white" stroke="#A6A6A6" stroke-linecap="round" stroke-linejoin="round"/>
<path d="M40.4624 39.8145H53.6047" stroke="#A6A6A6" stroke-miterlimit="10"/>
<path d="M37.1768 43.0977H58.8616" stroke="#A6A6A6" stroke-miterlimit="10"/>
<path d="M63.0233 54.7031H31.9198V74.4168H63.0233V54.7031Z" fill="white" stroke="#A6A6A6" stroke-linecap="round" stroke-linejoin="round"/>
<path d="M35.1572 59.3828H46.0654" stroke="#A6A6A6" stroke-miterlimit="10"/>
<path d="M35.1572 61.9922H46.0654" stroke="#A6A6A6" stroke-miterlimit="10"/>
<path d="M35.1572 64.6035H46.0654" stroke="#A6A6A6" stroke-miterlimit="10"/>
<path d="M35.1572 67.2148H46.0654" stroke="#A6A6A6" stroke-miterlimit="10"/>
<path d="M35.1572 69.8262H46.0654" stroke="#A6A6A6" stroke-miterlimit="10"/>
<path d="M48.6631 59.3828H59.5712" stroke="#A6A6A6" stroke-miterlimit="10"/>
<path d="M48.6631 61.9922H59.5712" stroke="#A6A6A6" stroke-miterlimit="10"/>
<path d="M48.6631 64.6035H59.5712" stroke="#A6A6A6" stroke-miterlimit="10"/>
<path d="M48.6631 67.2148H59.5712" stroke="#A6A6A6" stroke-miterlimit="10"/>
<path d="M48.6631 69.8262H59.5712" stroke="#A6A6A6" stroke-miterlimit="10"/>
<path d="M63.0233 78.1406H31.9198V97.8543H63.0233V78.1406Z" fill="white" stroke="#A6A6A6" stroke-linecap="round" stroke-linejoin="round"/>
<path d="M35.1572 82.8203H46.0654" stroke="#A6A6A6" stroke-miterlimit="10"/>
<path d="M35.1572 85.4297H46.0654" stroke="#A6A6A6" stroke-miterlimit="10"/>
<path d="M35.1572 88.041H46.0654" stroke="#A6A6A6" stroke-miterlimit="10"/>
<path d="M35.1572 90.6523H46.0654" stroke="#A6A6A6" stroke-miterlimit="10"/>
<path d="M35.1572 93.2637H46.0654" stroke="#A6A6A6" stroke-miterlimit="10"/>
<path d="M48.6631 82.8203H59.5712" stroke="#A6A6A6" stroke-miterlimit="10"/>
<path d="M48.6631 85.4297H59.5712" stroke="#A6A6A6" stroke-miterlimit="10"/>
<path d="M48.6631 88.041H59.5712" stroke="#A6A6A6" stroke-miterlimit="10"/>
<path d="M48.6631 90.6523H59.5712" stroke="#A6A6A6" stroke-miterlimit="10"/>
<path d="M48.6631 93.2637H59.5712" stroke="#A6A6A6" stroke-miterlimit="10"/>
<path d="M63.0233 101.578H31.9198V121.292H63.0233V101.578Z" fill="white" stroke="#A6A6A6" stroke-linecap="round" stroke-linejoin="round"/>
<path d="M35.1572 106.256H46.0654" stroke="#A6A6A6" stroke-miterlimit="10"/>
<path d="M35.1572 108.867H46.0654" stroke="#A6A6A6" stroke-miterlimit="10"/>
<path d="M35.1572 111.479H46.0654" stroke="#A6A6A6" stroke-miterlimit="10"/>
<path d="M35.1572 114.09H46.0654" stroke="#A6A6A6" stroke-miterlimit="10"/>
<path d="M35.1572 116.701H46.0654" stroke="#A6A6A6" stroke-miterlimit="10"/>
<path d="M48.6631 106.256H59.5712" stroke="#A6A6A6" stroke-miterlimit="10"/>
<path d="M48.6631 108.867H59.5712" stroke="#A6A6A6" stroke-miterlimit="10"/>
<path d="M48.6631 111.479H59.5712" stroke="#A6A6A6" stroke-miterlimit="10"/>
<path d="M48.6631 114.09H59.5712" stroke="#A6A6A6" stroke-miterlimit="10"/>
<path d="M48.6631 116.701H59.5712" stroke="#A6A6A6" stroke-miterlimit="10"/>
<path d="M174.878 15H67.4042V129.79H174.878V15Z" fill="#EBEBEB" stroke="#A6A6A6" stroke-linecap="round" stroke-linejoin="round"/>
<path d="M167.724 36.7461H70.4707V102.896H167.724V36.7461Z" fill="white" stroke="#A6A6A6" stroke-linecap="round" stroke-linejoin="round"/>
<path d="M93.0667 63.0039H146.442" stroke="#A6A6A6" stroke-miterlimit="10"/>
<path d="M85.8121 68.8047H153.697" stroke="#A6A6A6" stroke-miterlimit="10"/>
<path d="M174.878 15H171.08V129.79H174.878V15Z" fill="#EBEBEB" stroke="#A6A6A6" stroke-miterlimit="10"/>
<path d="M174.878 50.5645H171.08V81.5806H174.878V50.5645Z" fill="#878787"/>
<path d="M174.882 15H27.9202V22.4561H174.882V15Z" fill="#0CAF6F" stroke="#A6A6A6" stroke-linecap="round" stroke-linejoin="round"/>
<path d="M132.069 16.2715H37.5842V20.4771H132.069V16.2715Z" fill="white"/>
<path d="M167.72 25.0938H160.426" stroke="#A6A6A6" stroke-miterlimit="10"/>
<path d="M167.72 27.3398H160.426" stroke="#A6A6A6" stroke-miterlimit="10"/>
<path d="M167.72 29.584H160.426" stroke="#A6A6A6" stroke-miterlimit="10"/>
</g>
<g filter="url(#filter1_dddd_858_5703)">
<circle cx="168.583" cy="105.751" r="24.751" fill="white"/>
</g>
<path opacity="0.1" d="M161.184 94.9274L152.254 114.236C151.973 114.843 151.853 115.511 151.906 116.178C151.959 116.844 152.183 117.485 152.556 118.04C152.928 118.594 153.438 119.043 154.035 119.344C154.632 119.644 155.296 119.785 155.964 119.754L178.504 118.694C179.209 118.661 179.892 118.437 180.479 118.046C181.067 117.655 181.536 117.111 181.838 116.473C182.14 115.835 182.263 115.127 182.193 114.424C182.123 113.722 181.863 113.052 181.441 112.486L167.838 94.2327C167.435 93.6908 166.899 93.263 166.281 92.9915C165.663 92.72 164.985 92.6141 164.313 92.6842C163.642 92.7543 163 92.998 162.451 93.3913C161.903 93.7847 161.466 94.3141 161.184 94.9274Z" fill="#263238"/>
<path d="M164.656 89.7404L157.114 110.829C156.878 111.488 156.815 112.196 156.932 112.886C157.048 113.575 157.34 114.224 157.778 114.769C158.217 115.314 158.788 115.737 159.437 115.998C160.086 116.259 160.791 116.349 161.485 116.26L184.859 113.263C185.594 113.169 186.29 112.876 186.872 112.417C187.453 111.958 187.899 111.35 188.162 110.656C188.425 109.963 188.494 109.212 188.362 108.483C188.231 107.753 187.903 107.073 187.415 106.516L171.581 88.4165C171.112 87.8805 170.51 87.4766 169.836 87.2448C169.162 87.013 168.439 86.9615 167.739 87.0953C167.039 87.2291 166.387 87.5436 165.846 88.0076C165.305 88.4716 164.894 89.0689 164.656 89.7404Z" fill="#0CAF6F"/>
<path d="M161.599 114.525C161.177 114.578 160.748 114.525 160.351 114.372C159.953 114.219 159.6 113.97 159.322 113.648C159.044 113.347 158.852 112.977 158.767 112.576C158.682 112.175 158.707 111.759 158.839 111.371L166.399 90.2204C166.537 89.8423 166.778 89.5107 167.096 89.2635C167.413 89.0163 167.794 88.8636 168.195 88.8228C168.617 88.7694 169.046 88.8215 169.444 88.9745C169.841 89.1275 170.194 89.3765 170.472 89.6995L186.339 107.845C186.617 108.146 186.808 108.516 186.893 108.917C186.978 109.318 186.953 109.734 186.821 110.122C186.684 110.5 186.443 110.832 186.125 111.08C185.808 111.328 185.427 111.481 185.026 111.522L161.599 114.525Z" fill="white"/>
<path d="M168.825 95.4205L170.314 95.2286C170.78 95.1725 171.251 95.29 171.637 95.5588C172.022 95.8276 172.295 96.2288 172.403 96.686L172.804 98.5871C172.82 98.6557 172.831 98.7254 172.836 98.7956L173.316 104.72C173.346 105.129 173.216 105.533 172.952 105.848C172.688 106.162 172.313 106.361 171.905 106.402C171.473 106.453 171.038 106.357 170.668 106.13C170.298 105.902 170.017 105.556 169.869 105.147L167.904 99.4169C167.881 99.3507 167.863 99.283 167.85 99.2142L167.446 97.3113C167.399 97.0953 167.399 96.8719 167.445 96.6558C167.491 96.4396 167.582 96.2356 167.712 96.0571C167.842 95.8786 168.009 95.7296 168.201 95.6199C168.393 95.5102 168.605 95.4423 168.825 95.4205ZM172.058 108.04L172.462 107.987C172.879 107.937 173.301 108.042 173.646 108.282C173.991 108.523 174.235 108.882 174.333 109.291C174.375 109.485 174.376 109.685 174.335 109.879C174.295 110.074 174.213 110.257 174.097 110.418C173.98 110.578 173.831 110.712 173.659 110.811C173.487 110.91 173.296 110.972 173.099 110.991L172.694 111.042C172.277 111.092 171.855 110.988 171.51 110.748C171.166 110.508 170.921 110.149 170.824 109.74C170.781 109.546 170.78 109.346 170.82 109.151C170.861 108.957 170.942 108.773 171.058 108.613C171.175 108.452 171.324 108.318 171.497 108.219C171.669 108.12 171.86 108.059 172.058 108.04Z" fill="#0CAF6F"/>
<g filter="url(#filter2_dddd_858_5703)">
<circle cx="39.915" cy="91.915" r="34.915" fill="white"/>
</g>
<path opacity="0.1" d="M33.0061 77.0198L15.4694 98.1355C14.9182 98.7986 14.5472 99.5925 14.3922 100.441C14.2373 101.289 14.3035 102.163 14.5846 102.978C14.8657 103.793 15.3522 104.522 15.997 105.094C16.6419 105.667 17.4234 106.063 18.2661 106.245L46.7225 112.396C47.6126 112.589 48.5383 112.537 49.4006 112.243C50.2628 111.95 51.029 111.428 51.617 110.732C52.2049 110.037 52.5925 109.195 52.738 108.296C52.8836 107.397 52.7816 106.475 52.4432 105.629L41.5332 78.3595C41.2109 77.5503 40.6835 76.839 40.0029 76.2955C39.3222 75.7521 38.5118 75.3952 37.6514 75.26C36.791 75.1248 35.9101 75.216 35.0956 75.5246C34.2811 75.8331 33.561 76.3484 33.0061 77.0198Z" fill="#263238"/>
<path d="M39.0515 71.7031L22.6557 95.4983C22.1436 96.2415 21.8308 97.1037 21.7472 98.0025C21.6637 98.9012 21.8122 99.8063 22.1785 100.631C22.5449 101.456 23.1168 102.173 23.8395 102.714C24.5623 103.254 25.4117 103.601 26.3064 103.719L56.4448 107.732C57.3926 107.858 58.357 107.724 59.2346 107.344C60.1123 106.965 60.8703 106.354 61.4274 105.577C61.9846 104.8 62.3199 103.886 62.3977 102.933C62.4754 101.979 62.2926 101.023 61.8688 100.166L48.1263 72.3485C47.7184 71.5244 47.1021 70.8213 46.3386 70.3089C45.5751 69.7965 44.6909 69.4926 43.7737 69.4274C42.8565 69.3621 41.9382 69.5378 41.1098 69.937C40.2815 70.3362 39.5719 70.9451 39.0515 71.7031Z" fill="#0CAF6F"/>
<path d="M27.0257 101.595C26.4814 101.521 25.9638 101.314 25.5191 100.991C25.0743 100.669 24.7163 100.241 24.4767 99.7469C24.2297 99.2796 24.1136 98.7542 24.1405 98.2264C24.1675 97.6985 24.3366 97.1877 24.6299 96.748L41.0681 72.8812C41.3653 72.4554 41.7764 72.122 42.2543 71.9191C42.7322 71.7162 43.2576 71.6519 43.7703 71.7338C44.3148 71.8072 44.8327 72.0145 45.2775 72.337C45.7223 72.6595 46.0803 73.0873 46.3194 73.582L60.0879 101.468C60.3349 101.935 60.4511 102.461 60.4241 102.988C60.3971 103.516 60.2281 104.027 59.9347 104.467C59.6382 104.893 59.2273 105.228 58.7493 105.431C58.2713 105.635 57.7456 105.699 57.2325 105.617L27.0257 101.595Z" fill="white"/>
<path d="M42.3695 80.1708L44.2895 80.4251C44.8897 80.5097 45.4378 80.8124 45.8292 81.2753C46.2205 81.7382 46.4278 82.329 46.4115 82.935L46.2811 85.4383C46.2779 85.5291 46.2681 85.6195 46.2517 85.7089L44.886 93.2549C44.7882 93.775 44.4912 94.2363 44.0584 94.5407C43.6255 94.8451 43.0909 94.9685 42.5684 94.8847C42.0138 94.8059 41.5022 94.5416 41.1169 94.135C40.7316 93.7284 40.4953 93.2034 40.4464 92.6453L39.8955 84.8483C39.889 84.7583 39.889 84.6679 39.8955 84.5778L40.0226 82.0712C40.0364 81.7864 40.1101 81.5077 40.239 81.2535C40.3679 80.9992 40.5491 80.775 40.7707 80.5956C40.9922 80.4162 41.2492 80.2856 41.5247 80.2124C41.8003 80.1392 42.0881 80.125 42.3695 80.1708ZM42.2163 96.9774L42.7379 97.0458C43.2751 97.1216 43.7656 97.3924 44.1161 97.8066C44.4665 98.2207 44.6524 98.7493 44.6382 99.2917C44.6268 99.5474 44.5614 99.7978 44.4463 100.027C44.3312 100.255 44.1691 100.457 43.9706 100.619C43.772 100.78 43.5416 100.898 43.2943 100.964C43.047 101.03 42.7885 101.044 42.5358 101.003L42.0142 100.931C41.4773 100.856 40.9868 100.586 40.6363 100.172C40.2858 99.7588 40.0999 99.2306 40.1139 98.6887C40.1248 98.4327 40.1899 98.182 40.3048 97.9531C40.4197 97.7242 40.5818 97.5222 40.7805 97.3605C40.9792 97.1988 41.2099 97.081 41.4573 97.015C41.7048 96.9489 41.9635 96.9361 42.2163 96.9774Z" fill="#0CAF6F"/>
<defs>
<filter id="filter0_dddd_858_5703" x="18.667" y="14.5" width="160.715" height="134" filterUnits="userSpaceOnUse" color-interpolation-filters="sRGB">
<feFlood flood-opacity="0" result="BackgroundImageFix"/>
<feColorMatrix in="SourceAlpha" type="matrix" values="0 0 0 0 0 0 0 0 0 0 0 0 0 0 0 0 0 0 127 0" result="hardAlpha"/>
<feOffset dy="1"/>
<feGaussianBlur stdDeviation="0.5"/>
<feColorMatrix type="matrix" values="0 0 0 0 0 0 0 0 0 0 0 0 0 0 0 0 0 0 0.1 0"/>
<feBlend mode="normal" in2="BackgroundImageFix" result="effect1_dropShadow_858_5703"/>
<feColorMatrix in="SourceAlpha" type="matrix" values="0 0 0 0 0 0 0 0 0 0 0 0 0 0 0 0 0 0 127 0" result="hardAlpha"/>
<feOffset dy="3"/>
<feGaussianBlur stdDeviation="1.5"/>
<feColorMatrix type="matrix" values="0 0 0 0 0 0 0 0 0 0 0 0 0 0 0 0 0 0 0.09 0"/>
<feBlend mode="normal" in2="effect1_dropShadow_858_5703" result="effect2_dropShadow_858_5703"/>
<feColorMatrix in="SourceAlpha" type="matrix" values="0 0 0 0 0 0 0 0 0 0 0 0 0 0 0 0 0 0 127 0" result="hardAlpha"/>
<feOffset dy="6"/>
<feGaussianBlur stdDeviation="1.5"/>
<feColorMatrix type="matrix" values="0 0 0 0 0 0 0 0 0 0 0 0 0 0 0 0 0 0 0.05 0"/>
<feBlend mode="normal" in2="effect2_dropShadow_858_5703" result="effect3_dropShadow_858_5703"/>
<feColorMatrix in="SourceAlpha" type="matrix" values="0 0 0 0 0 0 0 0 0 0 0 0 0 0 0 0 0 0 127 0" result="hardAlpha"/>
<feOffset dy="10"/>
<feGaussianBlur stdDeviation="2"/>
<feColorMatrix type="matrix" values="0 0 0 0 0 0 0 0 0 0 0 0 0 0 0 0 0 0 0.01 0"/>
<feBlend mode="normal" in2="effect3_dropShadow_858_5703" result="effect4_dropShadow_858_5703"/>
<feBlend mode="normal" in="SourceGraphic" in2="effect4_dropShadow_858_5703" result="shape"/>
</filter>
<filter id="filter1_dddd_858_5703" x="138.832" y="80" width="59.502" height="69.502" filterUnits="userSpaceOnUse" color-interpolation-filters="sRGB">
<feFlood flood-opacity="0" result="BackgroundImageFix"/>
<feColorMatrix in="SourceAlpha" type="matrix" values="0 0 0 0 0 0 0 0 0 0 0 0 0 0 0 0 0 0 127 0" result="hardAlpha"/>
<feOffset dy="1"/>
<feGaussianBlur stdDeviation="1"/>
<feColorMatrix type="matrix" values="0 0 0 0 0 0 0 0 0 0 0 0 0 0 0 0 0 0 0.1 0"/>
<feBlend mode="normal" in2="BackgroundImageFix" result="effect1_dropShadow_858_5703"/>
<feColorMatrix in="SourceAlpha" type="matrix" values="0 0 0 0 0 0 0 0 0 0 0 0 0 0 0 0 0 0 127 0" result="hardAlpha"/>
<feOffset dy="3"/>
<feGaussianBlur stdDeviation="1.5"/>
<feColorMatrix type="matrix" values="0 0 0 0 0 0 0 0 0 0 0 0 0 0 0 0 0 0 0.09 0"/>
<feBlend mode="normal" in2="effect1_dropShadow_858_5703" result="effect2_dropShadow_858_5703"/>
<feColorMatrix in="SourceAlpha" type="matrix" values="0 0 0 0 0 0 0 0 0 0 0 0 0 0 0 0 0 0 127 0" result="hardAlpha"/>
<feOffset dy="8"/>
<feGaussianBlur stdDeviation="2.5"/>
<feColorMatrix type="matrix" values="0 0 0 0 0 0 0 0 0 0 0 0 0 0 0 0 0 0 0.05 0"/>
<feBlend mode="normal" in2="effect2_dropShadow_858_5703" result="effect3_dropShadow_858_5703"/>
<feColorMatrix in="SourceAlpha" type="matrix" values="0 0 0 0 0 0 0 0 0 0 0 0 0 0 0 0 0 0 127 0" result="hardAlpha"/>
<feOffset dy="14"/>
<feGaussianBlur stdDeviation="2.5"/>
<feColorMatrix type="matrix" values="0 0 0 0 0 0 0 0 0 0 0 0 0 0 0 0 0 0 0.01 0"/>
<feBlend mode="normal" in2="effect3_dropShadow_858_5703" result="effect4_dropShadow_858_5703"/>
<feBlend mode="normal" in="SourceGraphic" in2="effect4_dropShadow_858_5703" result="shape"/>
</filter>
<filter id="filter2_dddd_858_5703" x="0" y="56" width="79.8301" height="89.8301" filterUnits="userSpaceOnUse" color-interpolation-filters="sRGB">
<feFlood flood-opacity="0" result="BackgroundImageFix"/>
<feColorMatrix in="SourceAlpha" type="matrix" values="0 0 0 0 0 0 0 0 0 0 0 0 0 0 0 0 0 0 127 0" result="hardAlpha"/>
<feOffset dy="1"/>
<feGaussianBlur stdDeviation="1"/>
<feColorMatrix type="matrix" values="0 0 0 0 0 0 0 0 0 0 0 0 0 0 0 0 0 0 0.1 0"/>
<feBlend mode="normal" in2="BackgroundImageFix" result="effect1_dropShadow_858_5703"/>
<feColorMatrix in="SourceAlpha" type="matrix" values="0 0 0 0 0 0 0 0 0 0 0 0 0 0 0 0 0 0 127 0" result="hardAlpha"/>
<feOffset dy="3"/>
<feGaussianBlur stdDeviation="1.5"/>
<feColorMatrix type="matrix" values="0 0 0 0 0 0 0 0 0 0 0 0 0 0 0 0 0 0 0.09 0"/>
<feBlend mode="normal" in2="effect1_dropShadow_858_5703" result="effect2_dropShadow_858_5703"/>
<feColorMatrix in="SourceAlpha" type="matrix" values="0 0 0 0 0 0 0 0 0 0 0 0 0 0 0 0 0 0 127 0" result="hardAlpha"/>
<feOffset dy="8"/>
<feGaussianBlur stdDeviation="2.5"/>
<feColorMatrix type="matrix" values="0 0 0 0 0 0 0 0 0 0 0 0 0 0 0 0 0 0 0.05 0"/>
<feBlend mode="normal" in2="effect2_dropShadow_858_5703" result="effect3_dropShadow_858_5703"/>
<feColorMatrix in="SourceAlpha" type="matrix" values="0 0 0 0 0 0 0 0 0 0 0 0 0 0 0 0 0 0 127 0" result="hardAlpha"/>
<feOffset dy="14"/>
<feGaussianBlur stdDeviation="2.5"/>
<feColorMatrix type="matrix" values="0 0 0 0 0 0 0 0 0 0 0 0 0 0 0 0 0 0 0.01 0"/>
<feBlend mode="normal" in2="effect3_dropShadow_858_5703" result="effect4_dropShadow_858_5703"/>
<feBlend mode="normal" in="SourceGraphic" in2="effect4_dropShadow_858_5703" result="shape"/>
</filter>
</defs>
</svg>
