<svg width="202" height="150" viewBox="0 0 202 150" fill="none" xmlns="http://www.w3.org/2000/svg">
<circle cx="100.875" cy="75" r="75" fill="#F5F5F5"/>
<g filter="url(#filter0_dddd_858_5776)">
<path d="M171.395 19.4805H24.8755V133.999H171.395V19.4805Z" fill="#A6A6A6" stroke="#A6A6A6" stroke-miterlimit="10"/>
<path d="M176.591 15H29.6287V129.79H176.591V15Z" fill="#0CAF6F"/>
<path d="M176.591 15H29.6287V129.79H176.591V15Z" fill="white" stroke="#A6A6A6" stroke-linecap="round" stroke-linejoin="round"/>
<path d="M64.7318 31.2656H33.6283V50.9793H64.7318V31.2656Z" fill="white" stroke="#A6A6A6" stroke-linecap="round" stroke-linejoin="round"/>
<path d="M42.1709 39.8145H55.3132" stroke="#A6A6A6" stroke-miterlimit="10"/>
<path d="M38.8853 43.0977H60.5701" stroke="#A6A6A6" stroke-miterlimit="10"/>
<path d="M64.7318 54.7031H33.6283V74.4168H64.7318V54.7031Z" fill="white" stroke="#A6A6A6" stroke-linecap="round" stroke-linejoin="round"/>
<path d="M36.8657 59.3828H47.7739" stroke="#A6A6A6" stroke-miterlimit="10"/>
<path d="M36.8657 61.9922H47.7739" stroke="#A6A6A6" stroke-miterlimit="10"/>
<path d="M36.8657 64.6035H47.7739" stroke="#A6A6A6" stroke-miterlimit="10"/>
<path d="M36.8657 67.2148H47.7739" stroke="#A6A6A6" stroke-miterlimit="10"/>
<path d="M36.8657 69.8262H47.7739" stroke="#A6A6A6" stroke-miterlimit="10"/>
<path d="M50.3716 59.3828H61.2797" stroke="#A6A6A6" stroke-miterlimit="10"/>
<path d="M50.3716 61.9922H61.2797" stroke="#A6A6A6" stroke-miterlimit="10"/>
<path d="M50.3716 64.6035H61.2797" stroke="#A6A6A6" stroke-miterlimit="10"/>
<path d="M50.3716 67.2148H61.2797" stroke="#A6A6A6" stroke-miterlimit="10"/>
<path d="M50.3716 69.8262H61.2797" stroke="#A6A6A6" stroke-miterlimit="10"/>
<path d="M64.7318 78.1406H33.6283V97.8543H64.7318V78.1406Z" fill="white" stroke="#A6A6A6" stroke-linecap="round" stroke-linejoin="round"/>
<path d="M36.8657 82.8203H47.7739" stroke="#A6A6A6" stroke-miterlimit="10"/>
<path d="M36.8657 85.4297H47.7739" stroke="#A6A6A6" stroke-miterlimit="10"/>
<path d="M36.8657 88.041H47.7739" stroke="#A6A6A6" stroke-miterlimit="10"/>
<path d="M36.8657 90.6523H47.7739" stroke="#A6A6A6" stroke-miterlimit="10"/>
<path d="M36.8657 93.2637H47.7739" stroke="#A6A6A6" stroke-miterlimit="10"/>
<path d="M50.3716 82.8203H61.2797" stroke="#A6A6A6" stroke-miterlimit="10"/>
<path d="M50.3716 85.4297H61.2797" stroke="#A6A6A6" stroke-miterlimit="10"/>
<path d="M50.3716 88.041H61.2797" stroke="#A6A6A6" stroke-miterlimit="10"/>
<path d="M50.3716 90.6523H61.2797" stroke="#A6A6A6" stroke-miterlimit="10"/>
<path d="M50.3716 93.2637H61.2797" stroke="#A6A6A6" stroke-miterlimit="10"/>
<path d="M64.7318 101.578H33.6283V121.292H64.7318V101.578Z" fill="white" stroke="#A6A6A6" stroke-linecap="round" stroke-linejoin="round"/>
<path d="M36.8657 106.256H47.7739" stroke="#A6A6A6" stroke-miterlimit="10"/>
<path d="M36.8657 108.867H47.7739" stroke="#A6A6A6" stroke-miterlimit="10"/>
<path d="M36.8657 111.479H47.7739" stroke="#A6A6A6" stroke-miterlimit="10"/>
<path d="M36.8657 114.09H47.7739" stroke="#A6A6A6" stroke-miterlimit="10"/>
<path d="M36.8657 116.701H47.7739" stroke="#A6A6A6" stroke-miterlimit="10"/>
<path d="M50.3716 106.256H61.2797" stroke="#A6A6A6" stroke-miterlimit="10"/>
<path d="M50.3716 108.867H61.2797" stroke="#A6A6A6" stroke-miterlimit="10"/>
<path d="M50.3716 111.479H61.2797" stroke="#A6A6A6" stroke-miterlimit="10"/>
<path d="M50.3716 114.09H61.2797" stroke="#A6A6A6" stroke-miterlimit="10"/>
<path d="M50.3716 116.701H61.2797" stroke="#A6A6A6" stroke-miterlimit="10"/>
<path d="M176.586 15H69.1125V129.79H176.586V15Z" fill="#EBEBEB" stroke="#A6A6A6" stroke-linecap="round" stroke-linejoin="round"/>
<path d="M169.433 36.7461H72.1792V102.896H169.433V36.7461Z" fill="white" stroke="#A6A6A6" stroke-linecap="round" stroke-linejoin="round"/>
<path d="M94.7751 63.0039H148.151" stroke="#A6A6A6" stroke-miterlimit="10"/>
<path d="M87.5208 68.8047H155.405" stroke="#A6A6A6" stroke-miterlimit="10"/>
<path d="M176.586 15H172.788V129.79H176.586V15Z" fill="#EBEBEB" stroke="#A6A6A6" stroke-miterlimit="10"/>
<path d="M176.586 50.5645H172.788V81.5806H176.586V50.5645Z" fill="#878787"/>
<path d="M176.591 15H29.6287V22.4561H176.591V15Z" fill="#0CAF6F" stroke="#A6A6A6" stroke-linecap="round" stroke-linejoin="round"/>
<path d="M133.777 16.2715H39.2927V20.4771H133.777V16.2715Z" fill="white"/>
<path d="M169.428 25.0938H162.134" stroke="#A6A6A6" stroke-miterlimit="10"/>
<path d="M169.428 27.3398H162.134" stroke="#A6A6A6" stroke-miterlimit="10"/>
<path d="M169.428 29.584H162.134" stroke="#A6A6A6" stroke-miterlimit="10"/>
</g>
<g filter="url(#filter1_dddd_858_5776)">
<circle cx="172" cy="105.751" r="24.751" fill="white"/>
</g>
<path d="M172.249 127C183.847 127 193.249 117.598 193.249 106C193.249 94.402 183.847 85 172.249 85C160.651 85 151.249 94.402 151.249 106C151.249 117.598 160.651 127 172.249 127Z" fill="#0CAF6F"/>
<path d="M172.284 113.502C171.586 114.335 170.35 114.457 169.502 113.778L161.757 107.58C160.916 106.907 160.76 105.688 161.403 104.824L161.917 104.135C162.593 103.227 163.887 103.061 164.771 103.769L168.855 107.041C169.704 107.721 170.94 107.598 171.639 106.764L179.326 97.5876C180.053 96.7199 181.354 96.6278 182.196 97.3845L182.812 97.9381C183.614 98.6585 183.7 99.8845 183.008 100.71L172.284 113.502Z" fill="white"/>
<g filter="url(#filter2_dddd_858_5776)">
<circle cx="39.915" cy="91.915" r="34.915" fill="white"/>
</g>
<path d="M40 121C56.0163 121 69 108.016 69 92C69 75.9837 56.0163 63 40 63C23.9837 63 11 75.9837 11 92C11 108.016 23.9837 121 40 121Z" fill="#0CAF6F"/>
<path d="M39.5088 103.573C38.8137 104.374 37.6142 104.493 36.7751 103.844L24.5806 94.4165C23.7074 93.7414 23.5461 92.4865 24.2203 91.6126L25.8924 89.445C26.5677 88.5695 27.8254 88.4082 28.6999 89.0849L35.8598 94.6251C36.6991 95.2745 37.8994 95.1554 38.5947 94.3537L50.5988 80.5119C51.3228 79.677 52.5866 79.5875 53.421 80.312L55.4902 82.1086C56.3241 82.8327 56.4132 84.0957 55.6893 84.9297L39.5088 103.573Z" fill="white"/>
<defs>
<filter id="filter0_dddd_858_5776" x="20.3755" y="14.5" width="160.715" height="134" filterUnits="userSpaceOnUse" color-interpolation-filters="sRGB">
<feFlood flood-opacity="0" result="BackgroundImageFix"/>
<feColorMatrix in="SourceAlpha" type="matrix" values="0 0 0 0 0 0 0 0 0 0 0 0 0 0 0 0 0 0 127 0" result="hardAlpha"/>
<feOffset dy="1"/>
<feGaussianBlur stdDeviation="0.5"/>
<feColorMatrix type="matrix" values="0 0 0 0 0 0 0 0 0 0 0 0 0 0 0 0 0 0 0.1 0"/>
<feBlend mode="normal" in2="BackgroundImageFix" result="effect1_dropShadow_858_5776"/>
<feColorMatrix in="SourceAlpha" type="matrix" values="0 0 0 0 0 0 0 0 0 0 0 0 0 0 0 0 0 0 127 0" result="hardAlpha"/>
<feOffset dy="3"/>
<feGaussianBlur stdDeviation="1.5"/>
<feColorMatrix type="matrix" values="0 0 0 0 0 0 0 0 0 0 0 0 0 0 0 0 0 0 0.09 0"/>
<feBlend mode="normal" in2="effect1_dropShadow_858_5776" result="effect2_dropShadow_858_5776"/>
<feColorMatrix in="SourceAlpha" type="matrix" values="0 0 0 0 0 0 0 0 0 0 0 0 0 0 0 0 0 0 127 0" result="hardAlpha"/>
<feOffset dy="6"/>
<feGaussianBlur stdDeviation="1.5"/>
<feColorMatrix type="matrix" values="0 0 0 0 0 0 0 0 0 0 0 0 0 0 0 0 0 0 0.05 0"/>
<feBlend mode="normal" in2="effect2_dropShadow_858_5776" result="effect3_dropShadow_858_5776"/>
<feColorMatrix in="SourceAlpha" type="matrix" values="0 0 0 0 0 0 0 0 0 0 0 0 0 0 0 0 0 0 127 0" result="hardAlpha"/>
<feOffset dy="10"/>
<feGaussianBlur stdDeviation="2"/>
<feColorMatrix type="matrix" values="0 0 0 0 0 0 0 0 0 0 0 0 0 0 0 0 0 0 0.01 0"/>
<feBlend mode="normal" in2="effect3_dropShadow_858_5776" result="effect4_dropShadow_858_5776"/>
<feBlend mode="normal" in="SourceGraphic" in2="effect4_dropShadow_858_5776" result="shape"/>
</filter>
<filter id="filter1_dddd_858_5776" x="142.249" y="80" width="59.502" height="69.502" filterUnits="userSpaceOnUse" color-interpolation-filters="sRGB">
<feFlood flood-opacity="0" result="BackgroundImageFix"/>
<feColorMatrix in="SourceAlpha" type="matrix" values="0 0 0 0 0 0 0 0 0 0 0 0 0 0 0 0 0 0 127 0" result="hardAlpha"/>
<feOffset dy="1"/>
<feGaussianBlur stdDeviation="1"/>
<feColorMatrix type="matrix" values="0 0 0 0 0 0 0 0 0 0 0 0 0 0 0 0 0 0 0.1 0"/>
<feBlend mode="normal" in2="BackgroundImageFix" result="effect1_dropShadow_858_5776"/>
<feColorMatrix in="SourceAlpha" type="matrix" values="0 0 0 0 0 0 0 0 0 0 0 0 0 0 0 0 0 0 127 0" result="hardAlpha"/>
<feOffset dy="3"/>
<feGaussianBlur stdDeviation="1.5"/>
<feColorMatrix type="matrix" values="0 0 0 0 0 0 0 0 0 0 0 0 0 0 0 0 0 0 0.09 0"/>
<feBlend mode="normal" in2="effect1_dropShadow_858_5776" result="effect2_dropShadow_858_5776"/>
<feColorMatrix in="SourceAlpha" type="matrix" values="0 0 0 0 0 0 0 0 0 0 0 0 0 0 0 0 0 0 127 0" result="hardAlpha"/>
<feOffset dy="8"/>
<feGaussianBlur stdDeviation="2.5"/>
<feColorMatrix type="matrix" values="0 0 0 0 0 0 0 0 0 0 0 0 0 0 0 0 0 0 0.05 0"/>
<feBlend mode="normal" in2="effect2_dropShadow_858_5776" result="effect3_dropShadow_858_5776"/>
<feColorMatrix in="SourceAlpha" type="matrix" values="0 0 0 0 0 0 0 0 0 0 0 0 0 0 0 0 0 0 127 0" result="hardAlpha"/>
<feOffset dy="14"/>
<feGaussianBlur stdDeviation="2.5"/>
<feColorMatrix type="matrix" values="0 0 0 0 0 0 0 0 0 0 0 0 0 0 0 0 0 0 0.01 0"/>
<feBlend mode="normal" in2="effect3_dropShadow_858_5776" result="effect4_dropShadow_858_5776"/>
<feBlend mode="normal" in="SourceGraphic" in2="effect4_dropShadow_858_5776" result="shape"/>
</filter>
<filter id="filter2_dddd_858_5776" x="0" y="56" width="79.8301" height="89.8301" filterUnits="userSpaceOnUse" color-interpolation-filters="sRGB">
<feFlood flood-opacity="0" result="BackgroundImageFix"/>
<feColorMatrix in="SourceAlpha" type="matrix" values="0 0 0 0 0 0 0 0 0 0 0 0 0 0 0 0 0 0 127 0" result="hardAlpha"/>
<feOffset dy="1"/>
<feGaussianBlur stdDeviation="1"/>
<feColorMatrix type="matrix" values="0 0 0 0 0 0 0 0 0 0 0 0 0 0 0 0 0 0 0.1 0"/>
<feBlend mode="normal" in2="BackgroundImageFix" result="effect1_dropShadow_858_5776"/>
<feColorMatrix in="SourceAlpha" type="matrix" values="0 0 0 0 0 0 0 0 0 0 0 0 0 0 0 0 0 0 127 0" result="hardAlpha"/>
<feOffset dy="3"/>
<feGaussianBlur stdDeviation="1.5"/>
<feColorMatrix type="matrix" values="0 0 0 0 0 0 0 0 0 0 0 0 0 0 0 0 0 0 0.09 0"/>
<feBlend mode="normal" in2="effect1_dropShadow_858_5776" result="effect2_dropShadow_858_5776"/>
<feColorMatrix in="SourceAlpha" type="matrix" values="0 0 0 0 0 0 0 0 0 0 0 0 0 0 0 0 0 0 127 0" result="hardAlpha"/>
<feOffset dy="8"/>
<feGaussianBlur stdDeviation="2.5"/>
<feColorMatrix type="matrix" values="0 0 0 0 0 0 0 0 0 0 0 0 0 0 0 0 0 0 0.05 0"/>
<feBlend mode="normal" in2="effect2_dropShadow_858_5776" result="effect3_dropShadow_858_5776"/>
<feColorMatrix in="SourceAlpha" type="matrix" values="0 0 0 0 0 0 0 0 0 0 0 0 0 0 0 0 0 0 127 0" result="hardAlpha"/>
<feOffset dy="14"/>
<feGaussianBlur stdDeviation="2.5"/>
<feColorMatrix type="matrix" values="0 0 0 0 0 0 0 0 0 0 0 0 0 0 0 0 0 0 0.01 0"/>
<feBlend mode="normal" in2="effect3_dropShadow_858_5776" result="effect4_dropShadow_858_5776"/>
<feBlend mode="normal" in="SourceGraphic" in2="effect4_dropShadow_858_5776" result="shape"/>
</filter>
</defs>
</svg>
