<svg xmlns="http://www.w3.org/2000/svg" fill="none" viewBox="0 0 96 96" id="Apache-Flink--Streamline-Svg-Logos" height="24" width="24">
  <desc>
    Apache Flink Streamline Icon: https://streamlinehq.com
  </desc>
  <path fill="#000000" d="M51.5815 58.123h9.1908v2.2118h-6.6566v3.9015h6.2747v2.1317h-6.2747v5.9934h-2.5342V58.123Zm11.4431-.9653h2.4133v15.2037h-2.4133V57.1577Zm5.0476 2.2725c0-.3886.1439-.727.4323-1.0156.288-.2881.6537-.4324 1.0962-.4324.4424 0 .8144.1376 1.1161.4121.302.2748.4526.6205.4526 1.0356 0 .4159-.1507.761-.4526 1.0356-.3017.2749-.6735.4119-1.1161.4119-.4427 0-.8079-.1438-1.0962-.4322-.2884-.2875-.4323-.6261-.4323-1.015Zm.3419 3.2779h2.4132v9.6533h-2.4132v-9.6533Zm5.3494 0h2.2926v1.5485h.0405c.2141-.4825.5863-.9079 1.1161-1.2768.5296-.3688 1.1564-.5533 1.8804-.5533.6302 0 1.1695.1108 1.619.332.4491.2213.8175.5124 1.1062.8745.2881.3619.4993.7781.6335 1.2468.1339.4693.2013.9522.2013 1.4481v6.0335h-2.4134v-5.3495c0-.2816-.0202-.5764-.0603-.8848-.0403-.3081-.1274-.5865-.2615-.8347-.1341-.2479-.3184-.4525-.5528-.6133-.235-.1609-.5466-.2414-.9354-.2414-.3889 0-.724.0774-1.0054.2313-.2818.1543-.5129.352-.6939.593-.181.2412-.3187.5199-.412.8348-.0941.3152-.1406.6335-.1406.9552v5.3094h-2.4134v-9.6533h-.0009Zm11.7444-5.5504h2.4133v9.6126h.0602l3.6601-4.0623h3.0968l-4.1827 4.3641 4.4443 5.2893h-3.1975l-3.821-4.9476h-.0601v4.9476H85.508l-.0001-15.2037Z"></path>
  <path fill="#e65270" d="M31.7036 71.6509c-.6434-.0081-1.2854-.01-1.9283-.01l-1.6596.0014s-4.7453-.0019-7.014-.0019c-.3557 0-.7133.0014-1.07.0024-.3566.0009-.7133.0024-1.0709.0024-.223 0-.446-.0005-.6686-.0019-1.3495-.0081-2.6396-.1703-3.8337-.4832-4.75669-1.2444-8.35787-4.0662-10.70556-8.3854-1.1251-2.0705-1.76468-4.3868-1.89973-6.8824-.05992-1.1099-.00333-2.2473.16881-3.38.02045-.1351.04517-.2701.06943-.4061l.05468-.3091.09273.0913c.04898.0485.0642.0989.07513.1369.0466.1508.0894.3039.13315.4556.09035.3162.18451.6434.29483.9572.80887 2.3073 2.03716 4.4686 3.75478 6.6108.068.0847.11888.1783.14836.2692.58252 1.7932 1.59492 3.342 3.0082 4.6078 1.37479 1.2307 3.02289 2.1523 4.90559 2.7443-1.2074-.5164-2.3254-1.1769-3.3306-1.9696-1.63919-1.293-2.82135-2.8751-3.51087-4.703-.06895-.1836-.12697-.4051-.03329-.6505.03043-.0837.05231-.1703.07514-.2573.01474-.0599.02948-.1198.0485-.1793.37139-1.214.93536-2.166 1.72379-2.9088.73513-.6923 1.67103-1.1988 2.86173-1.5488 1.1118-.3271 2.2721-.4745 3.3939-.6172l.4812-.0618c.6277-.0823 1.2649-.1793 1.8798-.2744l.3704-.0571c.1379-.0209.2748-.0508.417-.0818l.3457-.0722-.0908.1545c-.0071.0133-.0128.0243-.0228.0357-.583.6524-1.0714 1.3776-1.4532 2.1579-.0319.0661-.1013.127-.1684.1484-.0827.0271-.165.0537-.2472.0813-.2621.088-.5322.1764-.807.2311-.2958.059-.5987.1018-.8921.1427-.2349.0333-.4694.0661-.7033.1089-.7856.1398-1.3943.3923-1.8536.7779.1008-.0242.2049-.0394.3072-.0542.1422-.0204.2886-.0423.4227-.0884.7242-.2521 1.5193-.369 2.5027-.369l.1327.0004c.1759.0019.3524.01.5307.0186l.3457.0143-.0262.0851c-.7047 2.3039-.6847 4.5646.0566 6.732-.31-1.4698-.3666-2.8351-.1745-4.1547.2934-2.0167 1.1822-3.7547 2.642-5.1656.9839-.9516 2.2193-1.7505 3.7748-2.4409 1.351-.6006 2.7585-.9611 4.0838-1.2797l.2506-.0613c.9454-.2273 1.9236-.4622 2.8703-.7404 1.4204-.4161 2.6549-1.1004 3.6692-2.0372.1517-.1403.3248-.2996.4608-.4755.9687-1.2554 2.098-2.1461 3.4514-2.7234.039-.0166.0832-.058.1113-.1051.4432-.7228.9743-1.2549 1.6244-1.6282.145-.0832.2891-.125.4294-.125.1778 0 .3557.068.5292.2002.0657.0504.1256.1032.1784.1569.2277.2287.4099.5102.5758.884.0205.0447.039.059.089.0651.1654.0219.3352.0443.5045.0776 2.7652.5482 4.6897 2.6748 5.024 5.5518.009.0765.0147.154.0214.2311.0142.1826.0294.3709.0836.5406.069.2145.1717.4261.273.6282.0437.0899.0894.1817.1308.2734.0356.079.0732.157.1103.235.088.1849.1774.3737.2525.5673.1141.2953.1279.6006.0399.9073-.038.1322-.1179.1517-.1626.1517-.0333 0-.0694-.0114-.1065-.0343-.0761-.049-.1474-.1032-.2178-.1593-.0333-.0276-.068-.0528-.1022-.0784-.0381-.0295-.0752-.0585-.1123-.0894-.0894-.0695-.1716-.137-.2648-.1879-.0333-.0185-.0685-.029-.1023-.029-.0352 0-.0689.0105-.1003.0309l.1303.1165c.2325.2064.4651.4133.6928.623.0481.0437.0799.1246.0756.1902-.0271.4318-.1778.7898-.4493 1.0657-.3234.3271-.6624.4859-1.0357.4859-.0799 0-.1617-.0076-.2445-.0223-.0147.145-.0461.1992-.1669.2639-.7637.4142-1.5083.6158-2.2754.6158l-.1198-.0009c-.5226 0-1.0314.1483-1.6016.4665-.1969.1089-.3704.1835-.5321.2263-.4903.1303-.9853.1793-1.4332.2002.1921.0266.3927.0395.6082.0395.1374 0 .2791-.0057.4317-.0157l.088-.009c.0647-.0062.1303-.0119.1931-.0119.0841 0 .1536.0104.2121.0347.3994.1636.7903.3614 1.1569.5487.0718.0371.1237.0523.1712.0523.0271 0 .0523-.0052.0799-.0152l.107-.0399c.2002-.0756.4066-.1536.6044-.2411.4689-.2088.874-.3072 1.2735-.3072.107 0 .2135.0081.32.0224.2734.037.5934.0998.8816.2772.1422.0875.3315.2335.3491.5059.0009.0048.0099.021.0323.0419.0352.0319.0713.0623.1084.0927.0371.0305.0751.0623.1108.0961.2235.2049.3219.4646.2944.7722-.0091.0861-.0281.2877-.2007.2877-.0518 0-.1132-.019-.1988-.0623-.0352-.0185-.0685-.0332-.0984-.0418.0846.0514.1664.1032.2468.1579.1907.1298.2839.3286.2748.5906-.018.5706-.6191 1.1108-1.2368 1.1108-.0732 0-.146-.009-.2145-.0233-.1821-.0404-.4085-.1165-.5449-.3533-.0043-.0067-.02-.0171-.0233-.0181l-.1051.0048c-.1237.0047-.2511.01-.3695.0371l-.0347.0081c-.2012.0466-.408.0927-.6206.0927-.0851 0-.164-.0076-.2411-.0224-.0946-.0176-.1883-.0409-.2843-.0646l-.0695-.0167c-.1093.3562-.2872.6905-.5273.9958-.5379.6843-1.255 1.166-2.1908 1.4727-.6781.2235-1.408.3352-2.1694.3352-.3999 0-.8198-.0299-1.2473-.0908-1.6862-.2411-2.8631-1.1579-3.4989-2.7243-.1075-.2625-.1793-.5411-.2492-.8112-.0338-.1303-.0685-.2635-.1065-.3933-.1997-.6795-.4513-1.2787-.7699-1.8351-.5787-1.0095-1.2939-1.729-2.1874-2.1993-.7143-.3761-1.496-.5668-2.3225-.5668-.3462 0-.7081.0328-1.0766.0989-.0747.0133-.1488.0295-.2245.0456.2602.0119.507.0262.7571.0504 1.156.117 2.2088.4722 3.129 1.0552 1.252.7946 2.02 1.7818 2.3477 3.0173.1835.6904.4446 1.3781.777 2.0443.1921.3861.4365.8331.7884 1.2107.4979.5321 1.1389.8959 2.0167 1.1427.2402.068.4789.1417.7162.2178.1312.0423.2225.1331.2791.2796.1374.3566.1717.7199.1013 1.0789-.1032.5274-.3538 1.0158-.767 1.4927-.3263.3762-.7309.6496-1.1228.9145-.1968.1317-.3818.272-.5502.4161-.144.1236-.2187.2853-.2101.4555.0118.2806.0328.291.0856.291.0437 0 .1122-.0166.2239-.0527.0547-.0181.1089-.04.1627-.0638l.3266-.1407c.1865-.0804.3719-.1612.5602-.2392.4071-.1693.8098-.2568 1.196-.2568.2068 0 .4127.0247.6139.0728.7233.173 1.1978.6024 1.4109 1.2772.0566.1826.049.3386-.0262.4656-.0494.0841-.1631.1545-.2572.1574-.0875 0-.1688-.0775-.2321-.1465-.0347-.0385-.0437-.0889-.0499-.1327-.0029-.0142-.0053-.0295-.0086-.0428-.0642-.2401-.1531-.397-.2872-.5021.2397.3257.3467.6738.3272 1.0604-.0195.3838-.3072.6515-.6995.6515-.0157 0-.0314-.001-.049-.0019-.1489-.0091-.244-.0894-.2592-.2216-.0104-.0913-.0104-.1855-.0109-.2758 0-.0376 0-.0752-.001-.1127-.0009-.0495-.0004-.0975 0-.147 0-.1055.0005-.2049-.0123-.3029-.0295-.2111-.1551-.3538-.3733-.4237-.0152-.0057-.0305-.0095-.0466-.0109.0661.0376.1227.0894.1636.1645.0808.1498.1493.2863.1873.4332.097.3904.0014.6948-.2763.8812-.1441.0956-.3286.1312-.4912.1541-.0661.0095-.1308.0123-.1959.0123-.243 0-.4808-.057-.7095-.1113l-.117-.028c-.2173-.0495-.4094-.0751-.5944-.0756-.1579 0-.3224.0304-.4812.0599l-.0733.0133c-1.2045.2169-2.2877.3219-3.3092.3219l-.1797.0072Z"></path>
  <path fill="#430a1d" d="M41.5076 57.5937s-1.7756 2.1189-4.7924.9049c-2.7628-1.1132-1.7552-4.177-1.7552-4.177s.4893 1.9002 1.9193 2.6201c2.0699 1.0429 4.6283.652 4.6283.652Z" opacity=".2"></path>
  <path fill="#430a1d" d="M32.7572 58.5011c.3847.3909.3919.7909.5127 1.2783.2277.9168.5078 1.7128 1.0918 2.467.5616.7247 1.2335 1.2373 2.1013 1.5707.7518.2882 1.7181.203 1.5745 1.3224l-.2515.9425c-1.9217 0-3.7211-.8768-4.4543-2.7837-.6429-1.6729.1141-3.6944-1.8341-6.5228.1555.1906 1.0604 1.5216 1.2596 1.7256Z" opacity=".2"></path>
  <path fill="#2b2b2b" d="M31.9962 57.6708c.0295.1189.0556.2397.0827.36-.0718-.0885-.1089-.2002-.0827-.36Z" opacity=".2"></path>
  <path fill="url(#a)" d="M9.61029 64.98c-7.24754-.7162-8.10064-7.9309-8.10064-7.9309s-.39373-3.3439.52499-6.6241c.59013 5.9679 5.37776 10.0997 5.37776 10.0997s1.05187 3.4006 2.19789 4.4553Z"></path>
  <path fill="#2b2b2b" d="M7.8028 62.2327s-1.52026.1446-3.54792-2.3173c1.9549 3.548 4.489 3.6202 4.489 3.6202l-.94108-1.3029Z" opacity=".2"></path>
  <path fill="url(#b)" d="M11.7195 66.375c-.3799-6.6717 3.537-3.576 5.559-7.1139.5682-3.0957 2.2735-5.0539 2.2735-5.0539s-12.12888-2.274-12.31909 6.5703c.42227 1.915 2.27826 3.7667 3.44089 4.7687-.2277-.5127-3.12324-8.4802 6.52-7.8306-3.3287-.2834-8.13391 3.1937-5.8438 8.4026.2302.1679.3695.2568.3695.2568Z"></path>
  <path fill="#ffffff" d="M14.9989 56.7532c-2.507.9425-6.76484.9382-5.55319 7.3355-.19402.1455-1.16267-1.3572-.9211-1.2112-1.11464-5.7192 3.89219-5.3887 6.47429-6.1243Z" opacity=".2"></path>
  <path fill="#8b4fba" d="M18.1732 54.4621c2.438-.9644.4584 1.7699.1122 2.2074-.8008 1.0119-2.8251.6828-3.9045 1.0205-.6206.194-3.1076.5587-3.9322 2.914-.3666 1.0433-.50406 2.749.2763 4.8247-.1936.1465-1.47606-1.2582-1.23354-1.1137-2.05761-9.1924 7.64984-5.8927 8.68174-9.8529Z" opacity=".6"></path>
  <path fill="#f9e0e7" d="M42.412 50.7085c.0665-.1826.1797-.4161.3228-.554.0333.0157.0695.0176.0966.0347.2377-.154.6129-.1336.912-.1336.1784 0 .4394-.0494.6116.0176.251.0975.2225.3619.3271.5621.1969.3737.8041.3785.806.9068.002.2487.0642.5859.001.8293-.048.1807-.2497.1256-.4242.1256-.5269 0-1.0533.0147-1.5816.0147l-.7304-.5445c-.195.0623-.3471-.3466-.3742-.4855-.0433-.2287-.049-.5459.0333-.7732Z"></path>
  <path fill="#ffffff" d="M44.8484 51.4332c.0894-.0366.2216-.1797.2763-.2639.0399-.0604.029-.0989.1141-.0965.223.0062.2249.3072.2135.4627-.0133.1988-.0936.3814-.1226.5768-.0723-.0181-.1123-.1089-.1941-.1317-.0642-.019-.1569-.01-.2249-.0072-.0984.0043-.2359.0709-.3253.0329l.263-.5731Z"></path>
  <path fill="url(#c)" d="M15.9624 41.6542c.0332-.0385.0423-.0499.0523-.0608.9677-.9035 1.4803-2.0439 1.7561-3.3187.1812-.8346-.0495-1.5707-.4256-2.2902-.0067-.0119-.0185-.0238-.0314-.0399-.0751.2349-.1436.4655-.2235.6923-.1964.5593-.4341 1.1004-.8117 1.5636-.1508.1845-6.47292 3.6867-5.8219 11.4431.0038.048.0119.0937.0185.1474.117-.1089.2192-.2216.3372-.3143.4208-.3291.9063-.5388 1.4137-.6805.9278-.2587 1.8612-.4964 2.7966-.7252 1.0633-.2606 2.1332-.5021 3.1599-.8949.5806-.2216 1.1194-.5136 1.6349-.8655.767-.525 1.4299-1.1531 2.0005-1.8807.3324-.4237.4874-.7471.6372-1.2449.0947.2553.0452.9696-.0974 1.4251-.1484.4703-.3985.8812-.7248 1.2583.078-.0248.1636-.0376.2335-.0775.9045-.5155 1.7058-1.1503 2.2973-2.0206.3966-.583.6382-1.2211.6719-1.9316.0005-.0099.0053-.0199.0081-.0356.1883.8716.1612 2.3553-.8212 3.4095.3471-.1222.6614-.2454.9824-.3409.2658-.079.4413-.2345.5878-.468.6448-1.0204 1.1793-2.0904 1.4684-3.2702.224-.9111.2796-1.826.029-2.7414-.2844-1.0347-.9092-1.8313-1.7594-2.4642-.5906-.4398-1.2421-.7661-1.9259-1.0333-.0414-.0162-.0828-.0309-.1237-.049-.0066-.0024-.01-.01-.0356-.0385.2368.0651.4489.1203.659.1826.9801.291 1.9183.6705 2.7496 1.2782.7418.5421 1.3096 1.2183 1.5935 2.1076.2534.796.2315 1.6006.0494 2.4052-.2663 1.1736-.8131 2.2183-1.4784 3.2079-.0205.0314-.0404.0614-.0599.0923-.0029.0042-.0024.0123-.0062.0299.0276-.0104.0494-.0176.0694-.028 1.3943-.7129 2.633-1.6244 3.6202-2.8494.9587-1.1888 1.6558-2.5127 1.9877-4.0125.4171-1.8926-.0399-3.5731-1.2658-5.0554-.7747-.9382-1.7329-1.6477-2.7928-2.2259-1.3681-.7447-2.8237-1.2316-4.3644-1.4556-.8759-.1279-1.7528-.1522-2.6283.0162-.4812.0913-.7931.2177-1.3262.5259.0675-.0575.1317-.1184.2026-.1702.4788-.3638 1.0309-.5517 1.6106-.6691.9586-.194 1.9254-.1917 2.8921-.079 1.497.175 2.9236.5897 4.2755 1.2583.1322.0666.263.1346.409.2097 0-.1227-.0076-.2297.0019-.3357.0119-.1636.0946-.2573.2235-.2725.1227-.0152.1945.0309.2187.1517.0195.1022.0248.2073.0395.31.0328.234.1417.4323.3024.6044.0157.0176.0352.0328.0547.0462.0095.0071.0219.0066.0561.0133 0-.0842.0005-.1617 0-.2387-.0023-.1565-.009-.3134-.0052-.4699.0009-.0385.0285-.1003.0547-.1079.0366-.01.1032.0086.1265.0376.0613.0808.1274.1683.155.2644.0613.2035.0894.4165.1526.6186.0424.1308.1085.2601.1917.3686.0908.1188.1835.0927.2182-.0528.0324-.136.0443-.2773.0647-.4161.0072-.048.0091-.0975.0238-.1422.0114-.0385.0399-.0704.0604-.106.0314.029.078.0504.0913.0865.0318.0808.0632.1679.0675.253.01.1883-.0081.378.0057.5654.0076.0999.0409.2064.0894.2929.0542.0965.1417.0851.1712-.0228.0433-.1541.0647-.3134.0956-.4708.0219-.1065.0442-.2125.0699-.3428.126.1074.1564.2268.1688.3423.0319.3077.048.6168.0747.9249.0214.2312.1003.4342.2368.6315.2477.3591.4669.739.689 1.1156.1137.1931.2192.2107.3262.0119.1208-.2258.2107-.4669.3129-.7033.0447-.1032.0818-.2083.1289-.31.0219-.0495.059-.0913.0927-.1427.1213.088.1503.2031.127.3172-.0347.1717-.098.3386-.1427.5083-.0485.1855-.0993.3705-.1284.5597-.0109.0761.0233.1674.0576.2411.0494.107.1274.1199.2106.0362.0856-.0847.1513-.1879.234-.2739.0471-.0495.1113-.0795.1683-.1184.0319.0694.0966.1417.0909.2082-.0119.1413-.0457.2854-.0975.4175-.1061.2687-.2478.5246-.3386.797-.0656.1979-.078.4142-.0994.6239-.0062.0514.0371.1422.0775.157.0424.0147.126-.0272.1636-.0685.1726-.1893.3348-.3895.5045-.584.0409-.0485.0966-.0827.1451-.1246.0166.0086.0323.0153.0494.0243-.0166.1098-.0118.2287-.0518.331-.0685.1697-.1522.3366-.2492.4912-.1536.2458-.329.4765-.486.719-.291.4484-.484.9382-.6044 1.4594-.0875.3747-.2106.7413-.319 1.1099-.0124.0456-.0295.0898-.0309.1407.0946-.1507.1873-.3048.2853-.4551.2049-.3157.4413-.6058.7589-.815.1598-.1046.3315-.1988.5103-.2644.9192-.3381 1.8483-.6524 2.7243-1.0933.2491-.1269.4874-.2796.7142-.445.2872-.2083.3928-.4989.3072-.8508-.0599-.2444-.1198-.4883-.1821-.7427-.1484.2368-.2796.465-.429.679-.1493.214-.3347.3956-.6101.5179.0252-.0471.0319-.0676.0447-.0842.3862-.5321.6082-1.137.7809-1.7633.0176-.0646-.0024-.1426-.0138-.2125-.079-.4565-.0409-.914-.0205-1.3719.0053-.0909.0053-.1855-.0081-.2758-.0057-.0419-.0394-.0942-.0751-.1099-.0242-.0109-.0875.0224-.1089.0514-.0889.1246-.1878.2468-.2473.3842-.2392.5559-.4679 1.1165-.6966 1.6758-.2844.6985-.6044 1.3766-1.0933 1.9596-.2211.2639-.4722.4936-.7813.6539-.0584.0299-.1217.0542-.1878.0751.4779-.4941.5849-1.1194.6063-1.759.0285-.8188.0119-1.6396.0205-2.4594.0085-.8864.0818-1.7652.3461-2.6192.01-.0338-.0071-.0832-.0256-.117-.0742-.1455-.1688-.2815-.2307-.4318-.1293-.3153-.2382-.6386-.3656-.9558-.0738-.1864-.0994-.2002-.2992-.1859-.2144.0152-.3433-.108-.4569-.2606-.0875-.1156-.1232-.1127-.1831.0228-.0652.1474-.1165.2991-.1869.4441-.0243.0495-.0865.0818-.1308.1218-.0342-.0504-.0908-.0999-.097-.1536-.018-.1755-.0133-.3524-.0261-.5283-.0062-.0875-.0176-.176-.0471-.2578-.0143-.0385-.0732-.0803-.116-.0837-.03-.0023-.0828.0495-.0956.0885-.0438.1251-.069.2554-.1089.3814-.0314.1013-.0771.1122-.1374.0295-.4399-.5992-1.0262-1.0239-1.6539-1.4014-.1855-.1113-.3671-.2278-.5512-.34-.0128.0042-.0256.009-.0375.0123.0237.204.048.4076.0708.6111-.0166.009-.0333.0166-.0494.0252-.0585-.0495-.1251-.0904-.1736-.1484-.1217-.1441-.2321-.2972-.3557-.4408-.2449-.2872-.5526-.4926-.8488-.5606.0937.3209.1831.6248.271.9296-.0133.0071-.029.0129-.0428.019-.0304-.038-.0665-.0732-.0917-.1146-.0714-.1165-.1422-.2325-.2083-.3523-.2825-.5112-.7181-.8061-1.2897-.8883-.3885-.0561-.7827-.0932-1.174-.1199-.2873-.0199-.5635-.0622-.8265-.1883-.1826-.0832-.3804-.1407-.5745-.2049-.0323-.0114-.0756.0024-.1131.0047.0028.0414-.0062.0894.0104.1237.0913.1788.1907.3533.2825.5321.0338.0642.0556.135.0823.203-.0091.01-.0176.0191-.0262.029-.0585-.0194-.1193-.0328-.174-.0594-.253-.1227-.5093-.2382-.7542-.3761-.2492-.1408-.5236-.1522-.7932-.175-.8436-.0709-1.6777-.0143-2.4932.2325-.496.1493-.9544.3747-1.3576.7233.0508-.0052.1036-.0052.1531-.0143.4922-.1013.9848-.1964 1.4917-.1797.3453.0109.6814.0661.9844.2411.0485.0275.0789.0856.1179.1288-.068.0238-.1393.0695-.2045.0609-.1574-.0185-.311-.077-.4698-.0899-.505-.0452-.991.0714-1.4718.204-1.1641.3196-2.2183.8631-3.1974 1.5626-.2387.1698-.4865.3272-.7347.4851-.4832.3071-.874.7042-1.1831 1.185-.0362.057-.0695.1184-.0928.1816-.0632.176-.0166.3229.1494.4104.1188.0628.2506.1075.3823.1393 1.7399.4242 3.0358 1.8584 3.2364 3.6326.0756.6653.1684 1.3324.1351 2.0072-.0766 1.5488-.631 2.8984-1.6653 4.051-.6149.6857-1.3415 1.2312-2.1375 1.6901-.0157.0104-.0328.0171-.0794.0413Z"></path>
  <path fill="#8b4fba" d="M38.2592 31.3734c-.7395 5.772-3.3007 4.4657-4.9764 7.6879-.0918-.1218-.3034.8635.1189-.9658.4227-1.8313 1.6344-1.0043 2.7809-3.0986 1.4517-2.6468 1.1621-2.8841 2.0766-3.6235Z" opacity=".2"></path>
  <path fill="#ffffff" d="M30.6059 31.4822c-.2749 1.652-2.6107 1.5774-4.6093.8764-2.1717-.7618-6.6845-1.0062-7.0473-.0975-.1812.2083-.545-.6481-.545-.6481s3.4271-3.7391 9.1644.2073c-.2335-.3633 2.0619-1.4266 2.0619-1.4266s.69-.2101.9753 1.0885Z" opacity=".3"></path>
  <path fill="#8b4fba" d="M18.7188 47.3435c.1246.3091 1.1394.1008 1.2345-.3819-1.497-1.6957 2.4442-4.8118-1.1908-8.879 2.3782 6.275-2.6857 6.5304-.0437 9.2609Z" opacity=".2"></path>
  <path fill="#8b4fba" d="M18.7188 47.344c.1246.3091.1022.2206.1969-.262-1.497-1.6963 2.4903-4.1695-.1532-8.999 2.3782 6.2751-2.6857 6.5305-.0437 9.261Z" opacity=".6"></path>
  <path fill="url(#d)" d="M24.1726 46.106c7.1942-7.57-1.9002-6.3018-4.8642-11.4398.0052-.0885.0114-.1741.0114-.2649 0-.7143-.1731-1.3867-.4746-1.983 2.7743 4.1148 9.8068.4865 8.4411 8.8981-.1231.4323-1.1018 4.6949-3.1137 4.7896Z"></path>
  <path fill="url(#e)" d="M24.1725 46.1053c-2.9616 1.4537-5.5508 1.4965-5.4286 1.0652 5.8847-3.993 1.1346-8.1078.0271-11.9838.0756-.3129.5488-.4294.5488-.7846 0-.0381-.0048-.0742-.0057-.1118.0856.3847.2881.5183.4826.7133 2.7353 2.759 11.4298 3.6811 4.3758 11.1017Z"></path>
  <path fill="#e65271" d="M23.2457 45.9926c4.5551-6.8039-3.9488-8.0963-3.8874-10.2533-.6772 4.4366 7.4743 6.3359-.185 11.6461-.1222.4309 1.1103.0614 4.0724-1.3928Z"></path>
  <path fill="url(#f)" d="M35.9754 34.1741c.3619.6044-.04 1.3177-.4613 1.9858-.389.6173-1.3281.4152-1.9654 1.9031l.0547-1.1594c.7057-1.2301-.4883-2.9235-.8212-4.0681-.5654-1.9497-1.1812-3.7486-.4308-5.7268.0504-.1327.0936-.2782.145-.4147.3742.2763.6567.5517.9786.9715.2126.2787.1384-.719.418-.5092.2059.1516-.01.8573.1864 1.0204.2193.1855.3519-.8882.5108-.6505.3713.5583.5844.204.7427.3714.1432.1517.4779 1.321.613 1.4794.1317.1536.2582.3119.3828.4712-.0751.8512-.2406 1.808-.5145 2.576-.2582.7251-.2701 1.0276.1612 1.7499Z"></path>
  <path fill="#e65271" d="M25.8482 25.2863c.0223.0081.0409.0114.0523.0109.1992-.0033-.5374-.9292-.3258-.9292.3576 0 .8617.369 1.2112.3961.7385.0566 1.5036.04 2.1575.3391.6263.2872.9049 1.1788 1.0452 1.2164.1417.039-.341-1.0305-.2026-.9829.2345.0789.4218.1949.5764.3233.6182.885.8193 5.2708-.0885 5.1576-.9529-.1189 1.5036.3367 1.5136.3001.8217-3.1009-1.0086-5.0078-.9258-4.9003.1084.1426.1954.2534.2881.2891.195.0751-.1217-.7476.0566-.6387.5673.3467.9696.5911 1.3001.8374.01.0143.0129.0486.029.0419.244-.1013 1.7466-.4546.603 4.9436 1.7366-3.5146.3771-4.8937.5102-4.7496.6168.6658.7428 2.2911.8222 3.255.0747.904-.494 2.9649-1.2306 3.6464-.5193.4793-.5089-.1142-.7033-.5726-.3201-.7527-.9069-1.3595-1.4395-1.9796-.3966-.4613-.8778-.7984-1.3139-1.2112-.475-.4498-.7251-1.0785-1.1498-1.5721-.3799-.4413-.8464-.7927-1.2074-1.253-.4051-.5155-.6757-1.1051-1.1227-1.5797-.1417-.1522-.3005-.2663-.4555-.388Z"></path>
  <path fill="url(#g)" d="M29.179 24.7931c1.0614-.0033 1.728.505 2.6059.991.7275.4047 1.622.4085 2.2369.9658.8169.7413 1.1702 1.476 1.3234 2.5612.1754 1.2354.1968 2.8104-.0371 4.0415-.1199.6315-.5683 1.9259-1.0414 2.3876l-.5678-.3614c-1.1194-2.8917-4.4952-4.0781-5.7725-6.9199-.3766-.8364-.5183-1.9235-.5274-2.8374-.0099-.9568 1.0068-.8256 1.78-.8284Z"></path>
  <path fill="#f6e8a0" d="M18.6176 32.019c-.6172-.9591-1.5944-1.6643-2.7424-1.9206-.2919-.0652-.8155-.2468-.2972-.8702.554-.8645 1.3501-1.1965 1.7785-1.5141 1.7229-1.2792 1.0105-1.41 2.0153-1.526.3928-.0456.2891-.0799.4884 0 .1992.0799-.1531-.0561-.2792-.1393-1.1213-.7423-1.0404.7385-.5587.4184 1.4356-1.1098 4.7415-1.8888 5.6683-1.7299.1346.0228 1.0661.5611 1.2093.5587.1992-.0033-.5369-.9292-.3253-.9292.3567 0 .8617.369 1.2112.3961.7233.0557 2.9226 1.0643 2.9064 3.7196-.0047.8113.0452 1.38-.0642 1.9093-.8013 3.8841-8.9195-1.5664-11.0104 1.6272Z"></path>
  <path fill="#ffffff" d="M28.3356 29.6249c-.3761-.4699-2.8218-1.3168-2.8218-1.3168s-4.0605-1.3995-7.8053 2.5859c1.9135-1.5193 5.2774-.8821 7.7097-.6015.3215.0376-.6947-.2867-.4284-.3852.903-.3343 1.74.6025 2.6406.4218.4204-.0837.6724-.3119.7052-.7042Z"></path>
  <path fill="#f6e8a0" d="M25.2209 28.9676c-1.4912-.3928-2.982.1822-3.2692.1997.1355-.203.3557-.6714 1.4598-.8331.254-.0375.7628.0033 1.0296.0029.4774-.001.7736.1141 1.195.3171.2686.1294.9187.2673 1.1246.235 0 0 2.2859.1721 1.5288.9472-.7566.7747-1.8603-.9991-4.2831-.4318.001-.0789.5545-.4741 1.2145-.437Z"></path>
  <path fill="#f8d285" d="M22.9601 25.7538c-.942-.6239-2.5902-.0889-2.8037-.0917-.0048-.0219.0085-.0462.0466-.0704 1.4361-1.1099 3.5626-1.011 4.4894-.8522.0072.001.0167.0043.0276.0081.0043.0014.011.0038.0167.0062.2006.077.8569.4465 1.0956.5278 1.3971.7918 3.604 2.4637 3.7985 5.1124-.7936-.3528-1.3643-.6966-1.8027-1.0314-.1479-.1127-3.4866-3.6026-12.3243.5906 0 0-.2458-.135-.1056-.4508 1.9958-3.2069 5.6393-4.128 11.4422-1.0908-.8231-.9811-1.2216-1.8693-3.8803-2.6578Z"></path>
  <path fill="url(#h)" d="M28.61 43.7773c3.2731-3.3472 4.6069-5.848 3.0225-8.5409-2.566-4.3649-10.4683.1878-13.905-4.2156.3643.4161 1.1389 1.2402 1.8874 1.6453 2.5474 1.6644 7.3422 1.1289 8.8701 2.4157 1.9663 1.6544 2.468 4.9916.125 8.6955Z"></path>
  <path fill="url(#i)" d="M17.9454 36.7811c-.0038.2244.5097 1.5193.4294 1.8174-.6895 2.5455-3.6773 3.7943-3.6773 3.7943s-3.3463 1.3467-3.8784 7.5019c-.6101.4389-.5255-.4959-.5065-.9116.3795-8.0721 7.0954-7.17 7.6328-12.202Z"></path>
  <path fill="url(#j)" d="M29.331 50.1204c-.0551-.0257-.1079-.0585-.1659-.0752-.293-.0818-.5883-.1569-.8822-.2406-.0927-.0266-.1811-.0689-.272-.1036.001-.02.0019-.0395.0019-.0585.1061-.0191.2098-.0523.3158-.0538.4218-.0047.8436.001 1.2659.0019.5963.0015 1.1945-.0014 1.7694-.1754.2806-.0856.5545-.214.8117-.3572 2.7167-1.5121 4.6364-3.7253 5.7915-6.6074.2363-.5892.4175-1.1984.5573-1.8166.0091-.0342.0124-.0699.0228-.1293-.0451.0276-.0741.0409-.1012.0585-1.6625 1.1389-3.4781 1.9111-5.4591 2.2863-.7086.1337-1.4238.2007-2.1447.2216-.0537.0015-.1226.0219-.1583.059-1.0776 1.0985-2.3501 1.9107-3.7229 2.5864-1.0961.5388-2.2531.8645-3.4429 1.0961-1.525.2962-3.0538.5778-4.5788.8712-1.8731.3599-3.7367.7599-5.5475 1.3723-1.1489.3881-2.2617.8546-3.2793 1.5227-.76607.504-1.44798 1.0994-1.93016 1.8921-.16929.2796-.2896.5892-.43559.8835-.02663.0528-.05468.108-.09558.1484-1.01002.9877-1.40804 2.1893-1.25302 3.5836.11508 1.0314.48457 1.9749 1.01145 2.8627.0623.1041.11508.2125.16406.3043.0252-.2249.04518-.4769.08036-.7266.22303-1.5887 1.04094-2.7718 2.43328-3.5622.8098-.4612 1.682-.7661 2.5859-.9658.991-.2187 1.9906-.4028 2.9897-.5839 1.2131-.2192 2.4328-.4023 3.6121-.7742.2292-.0718.456-.155.6814-.2406.2901-.1089.5612-.2492.8137-.4365.8359-.6159 1.7523-1.0876 2.7176-1.4651.0266-.01.0514-.0214.0775-.0314.001-.0038.0015-.0091.0053-.0191-.0157-.0014-.0295-.0033-.0438-.0033-1.0799-.0005-2.1622.0057-3.2422-.0005-.9667-.0061-1.9301.0238-2.8883.1498-1.3272.176-2.6116.5198-3.8627.9958-1.4756.563-2.8718 1.2834-4.22606 2.0918-.03614.0219-.07323.0428-.12221.0514.02568-.0204.04898-.0433.07371-.0623 1.48226-1.1237 3.06046-2.0833 4.80146-2.7562 1.2126-.4674 2.4637-.7746 3.7571-.9115 1.1394-.1204 2.2792-.1089 3.4195-.0262.9858.0718 1.9716.1436 2.9588.2111.0856.0072.1769-.0057.2601-.0299.9753-.2968 1.9734-.4713 2.9811-.6144.5953-.0842 1.1821-.2268 1.7723-.3443.0399-.0086.0775-.0295.1155-.0452.0019-.0104.0043-.0223.0062-.0337Z"></path>
  <path fill="#ffffff" d="M11.1729 53.4463c3.8636-4.615 13.8868-2.196 18.158-3.3249-2.7038 1.5535-4.9041 1.2853-4.9041 1.2853s-9.2295-1.0195-13.2539 2.0396Z" opacity=".2"></path>
  <path fill="#e65271" d="M40.7119 35.9332c-.1308.0224-.2274.0286-.3158.0571-.3476.1089-.7104.1898-1.0371.3467-.3105.1498-.5982.3623-.8669.5811-.5222.4241-1.02.8754-1.5346 1.3048-.4217.3514-.8687.6658-1.4013.8289-.1717.0523-.35.0822-.5293.1117.6938-.3495 1.0823-.9724 1.4851-1.6115-.0343.0061-.0466.0047-.0557.009-1.0585.5178-2.0951 1.0709-3.0376 1.7875-.2511.1916-.4499.4094-.5911.7066-.2268.4727-.5136.9173-.7737 1.3729-.0114.0204-.0243.0404-.0556.0951.2277-.048.4275-.0799.6239-.1298.8293-.2121 1.6006-.5711 2.3576-.9611 1.1822-.612 2.3082-1.3196 3.4001-2.079.0332-.0228.067-.0447.1103-.058-.01.0138-.0176.029-.0295.0404-1.2958 1.292-2.749 2.3563-4.4481 3.0615-.7347.3062-1.496.5102-2.2882.5925-.0295.0043-.068.0133-.0847.0338-.1764.2135-.3486.4294-.544.6704.4836-.1036.9387-.1944 1.3905-.2995 1.2649-.2939 2.5055-.6672 3.6896-1.2055.875-.3975 1.709-.865 2.4109-1.5298.9263-.8778 1.6082-1.9164 2.0063-3.1328.058-.1788.0761-.3723.1189-.593Z"></path>
  <path fill="#8b4fba" d="M18.8291 47.6788c.3752-.1261.8027-.282 1.2587-.457 5.3759-1.6763 7.1529-3.0743 7.1529-3.0743l5.4006-3.9983s.8821.6758 2.0248-.2078c-.7784.9344-3.167 1.6615-3.167 1.6615s-.1099.7352-.8888 1.3063c2.1247-.7223 5.6959-.515 8.1734-2.7462-1.8736 5.2993-6.5271 1.2597-11.0242 4.5556-.5188.3119-7.3778 2.0647-3.9692 1.9444 3.4086-.1198 5.654 2.2065 8.501 1.4437-2.672.9696-5.0339-.5834-8.7564-.845.5792.116 1.3724.4351 1.7105.8712-1.3495-.9634-3.9902-1.0077-4.6178-.7875-.5697.0723-1.1684.1812-1.7985.3334Z" opacity=".6"></path>
  <path fill="#2b2b2b" d="M31.7243 49.3144c-3.9169 1.556-17.761-2.9511-23.97712 4.0411 0 0-.46554-.2083 2.01006-2.983 9.73316-4.6531 16.97686-.253 21.96706-1.0581Z" opacity=".2"></path>
  <path fill="url(#k)" d="M37.7807 43.1154c1.1589-.6519.2173.9416-.941 1.8826-4.5627 3.1861-6.6256-.4394-11.1502 1.3053 6.9222-3.8161 7.6008.9397 12.0912-3.1879Z" opacity=".7"></path>
  <path fill="#8b4fba" d="M37.426 44.0204c1.1593-.652.572.0371-.5863.9786-4.5627 3.186-6.6256-.4394-11.1502 1.3053 4.4538-2.4784 7.247 1.8427 11.7365-2.2839Z" opacity=".2"></path>
  <g opacity=".7">
    <path fill="url(#l)" d="M14.9021 42.3116c-2.1104 1.9316-.456 6.1614-.456 6.1614l-1.5018.3219s-1.5155-4.0895 1.9578-6.4833Z"></path>
    <path fill="url(#m)" d="M18.5445 39.0708c1.5907 2.8308-2.6278 6.7249-.3628 8.1034-.0357.186-1.2954.8175-1.2364.6349-2.7956-4.2898 1.8151-5.3126 1.2098-7.9946-3.2327 4.4105-3.2674 5.2836-1.6967 8.0759-.0191.0152-.1917.2406-.3638.1122-2.4561-1.8412-3.1475-3.9107 2.4499-8.9318Z"></path>
  </g>
  <path fill="#8b4fba" d="M23.7429 44.8233c.1008 1.3258 1.0267-.8278 1.1669-2.3144.1208-5.5627-5.5194-4.2174-5.7772-8.7178-.5487 5.12 5.5542 5.0073 4.6103 11.0322Z" opacity=".2"></path>
  <path fill="#ffffff" d="M29.2118 42.6176c.0999 1.3258 2.7619-2.0866 2.9026-3.5726-.8935-9.5444-10.717-3.7396-13.2853-7.2566 2.1218 3.8527 15.8527-1.5065 10.3827 10.8292Z" opacity=".3"></path>
  <path fill="url(#n)" d="M47.1852 61.2021c-.1441.1265-.2625.2415-.3928.3414-.1046.0794-.2192.1498-.3372.2083-.2872.1388-.5763.1569-.8664.0028-.4522-.2396-.9377-.2577-1.4328-.2035-.144.0152-.2382.0837-.3043.2183-.496 1.0205-1.3224 1.6757-2.3577 2.0904-.1184.0476-.174.1027-.1949.2316-.0523.3248-.0747.6443.0023.9682.1256.5178.4475.8892.8817 1.175.4541.2996.961.476 1.4841.6072.6291.1555 1.2659.2606 1.9159.2588.3305-.0005.6577-.0391.9753-.1351.7095-.2145 1.1479-.6886 1.3087-1.4052.1041-.4655.2025-.9358.2501-1.409.1089-1.0847-.1817-2.0581-.8988-2.8931-.0123-.0162-.0213-.0362-.0332-.0561Z"></path>
  <path fill="#f6e8a0" d="M45.1335 61.2825c.0537.3257.6653.4142.9492.4046.4997-.0166.8231-.3081 1.1479-.6866.0523-.0618.0932-.1227.1288-.185.5654.4513.8822 1.0623.7951 1.6857-.154 1.0985-1.5069 1.8151-3.0205 1.6026-1.0467-.1474-1.8964-.7014-2.2693-1.3924.2768-.3538.3852-.8031.75-1.1094.3557-.2967 1.0575-.3395 1.5188-.3195Z" opacity=".3"></path>
  <path fill="url(#o)" d="M8.32804 50.9532c.32717.1617.5559.1969.75895.1237-.23349-1.1889-.3557-2.3877-.31433-3.5941.0466-1.3353.27771-2.6354.86356-3.8527.07418-.1546.16026-.3044.26107-.447-.00618.0237-.00999.048-.01902.0699-.31528.7917-.46079 1.6182-.50834 2.4665-.07514 1.322.08084 2.6231.36663 3.9113.00713.0314.01617.0618.02948.1074.18688-.1255.36856-.2453.54586-.3714.0214-.0156.0219-.0732.0172-.1098-.0904-.7822-.0842-1.564 0-2.3463.1208-1.1175.3966-2.1945.7898-3.2435.5478-1.4647 1.2906-2.8247 2.1974-4.0958.0214-.0295.0428-.0589.0628-.0889.0043-.0067.0038-.0147.01-.039-.1317.0466-.2554.0889-.3795.1336-.835.3025-1.6529.6439-2.4404 1.0567-.1232.0637-.242.144-.3467.2358-1.10793.9815-1.76179 2.2226-2.05709 3.6621-.04375.214-.07513.4318-.13457.6467.01284-.2387.01949-.4784.04042-.7171.09891-1.136.31147-2.2512.69427-3.3273.09748-.2734.02948-.5202-.01189-.777-.01284-.0799-.06943-.1531-.10652-.2297-.06134.0595-.13695.1094-.18117.1798-.3148.5007-.51786 1.0504-.68382 1.6144-.2544.8626-.4061 1.7499-.53116 2.6411-.11603.8322-.18974 1.6691-.18641 2.5103.00428.8507.06943 1.6938.35237 2.506.13457.3862.31575.748.57681 1.0643.09273.1131.20829.2097.31195.3143.00761-.0019.01427-.0029.02235-.0043Z"></path>
  <path fill="#2b2b2b" d="M12.1842 39.4733s-2.1142.2972-3.00582 1.7513c-.89209 1.4532-1.1484 3.9526-1.1484 3.9526s-.45651 3.7277 1.05663 5.8985c-.95867-7.9604 3.09759-11.6024 3.09759-11.6024Z" opacity=".2"></path>
  <path fill="url(#p)" d="M8.32827 50.9531c-.00808.0015-.01474.0024-.02235.0034-.43606-.1703-.77701-.4637-1.05567-.8322-.40563-.5373-.61867-1.1589-.75039-1.8089-.19497-.9691-.21161-1.9492-.12887-2.9288.04803-.5597.12935-1.1175.19735-1.6743.00237-.02.00285-.0395.00475-.0799-.03424.0295-.05849.0461-.07799.0666-1.61679 1.6762-2.83272 3.6073-3.62876 5.7971-.02092.0571-.01379.1341.00381.194.47553 1.5189 1.16267 2.9402 2.0053 4.286.3557.5678.74753 1.1127 1.12368 1.6677.02948.0437.06419.0832.11793.1536.01331-.2792.16263-.505.04755-.7785-.14694-.3485-.24157-.7152-.22207-1.1013.00808-.1427.04185-.2758.14123-.408.09844.2796.17452.5549.39374.7656.0642-.1146.07704-.2145.03614-.3372-.15217-.4555-.25821-.9211-.2292-1.4056.00903-.1484.04279-.2944.08321-.4437.1322.3638.35142.6615.60488.9473.01474-.0219.02853-.0362.03614-.0533.3381-.699.7713-1.3339 1.28725-1.913.02378-.0281.02283-.0776.03234-.1166Z"></path>
  <path fill="#2b2b2b" d="M6.69169 52.8172s-2.37765-4.6531-1.26491-8.649c.13838-.1093-.22302.1727-.6529.6677-.0661.0751-.86309 5.3516.75514 7.6779-2.17507-2.5802-1.14508-7.1905-1.23733-7.0559-.19401.2872-.36853.6044-.48409.9358-1.11273 5.2099 2.73144 8.3456 2.73144 8.3456l.15265-1.9221Z" opacity=".2"></path>
  <path fill="#e65270" d="M43.0767 69.5699c-.098.1493-.2116.2996-.302.465-.0837.1503-.1003.3215-.0451.4908.0684.2092.2082.2896.426.2592.1746-.0267.3491-.0533.525-.059.1869-.0062.1997.019.2211.2002.0048.048.011.0975.0291.1412.0703.1793.1745.3338.3828.3614.2025.0267.3447-.0865.4536-.242.3257-.4613.0556-1.0847-.5102-1.1598-.1755-.0233-.3586.0052-.5383.01-.0347.0014-.0695.0076-.1037.0104-.0086-.01-.0171-.0214-.0262-.0314.0485-.0566.0861-.1317.147-.1674.1289-.0727.2672-.1027.4261-.0846.9686.1108 1.8921-.0038 2.7138-.5844.456-.3229.7932-.7466 1.0504-1.2383.0019-.0033.0048-.0067.0067-.01.0323-.0894.0984-.1983.01-.2663-.0509-.0399-.1684-.0223-.2459.0029-.3618.1188-.7133.2696-1.0799.3695-.535.1464-1.0894.1512-1.6401.1212-.7442-.0399-1.476-.1583-2.1789-.4223-.7874-.2957-1.4984-.7133-2.1151-1.2882-.0709-.0665-.1427-.1317-.2226-.1854-.1341-.0894-.2263-.0452-.2311.1174-.0038.1151.0076.2335.0333.3467.2639 1.1493.9611 1.9577 1.9915 2.4918.2701.1417.5602.2411.8227.3514Z"></path>
  <path fill="url(#q)" d="M2.15623 48.1764c-.04185 4.1471 1.29201 7.7459 4.06958 10.8016-.039-.2815-.09083-.563-.11461-.844-.03947-.4798-.06514-.9611-.08845-1.4433-.00475-.0979-.02948-.1754-.08464-.2539-1.03998-1.5003-1.99389-3.0524-2.75474-4.7163-.38613-.8441-.71615-1.7109-.89304-2.6259-.05707-.2957-.08893-.5958-.1341-.9182Z"></path>
  <path fill="url(#r)" d="M36.0718 34.5396c.4974-.8603 1.0105-1.6882 1.1927-2.6635.0304-.1631.0214-.3367.0109-.505-.0542-.9406.0433-1.8588.3481-2.7547.0271-.0794.0594-.1631.0575-.244-.0009-.067-.0361-.1445-.0808-.1973-.0566-.0671-.1346-.0433-.2078-.0015-.2345.1327-.4047.3277-.5412.5545-.2777.456-.426.9606-.5288 1.477-.2829 1.4147-.3257 2.8451-.2701 4.2831.001.0076.0057.0143.0195.0514Z"></path>
  <path fill="#8b4fba" d="M36.3643 29.0591c.0903-.1921.4622-.6125.6115-.7337l.3362-.2145c-.3381.8617-.4589 1.7385-.4589 2.6563 0 .7732.2378 1.4913.2758 2.2607.03.6339-.2463.9525-.5749 1.4684-.1484.2321-.3509.7347-.6733.7366-.1494-.3666-.1256-.826-.1289-1.2183-.0043-.4693-.0794-.9273-.0609-1.4014.0347-.8949.5184-3.2245.6734-3.5541Z" opacity=".4"></path>
  <path fill="#e65270" d="M47.9397 66.1244c-.0143.0114-.019.0133-.0204.0162-.3657.7518-1.0158 1.0799-1.8013 1.146-1.2978.1103-2.5427-.1327-3.7239-.6757-.4979-.2293-.9235-.5621-1.1632-1.0738-.1041-.2211-.154-.4674-.2315-.7104-.2578-.0015-.5645.2534-.5845.5283-.0071.0894.0305.1892.0709.2729.1631.3372.4251.5925.7109.8237.7347.5929 1.5759.9672 2.488 1.1878 1.1978.2901 2.3952.2987 3.5802-.0604.2806-.0851.5459-.2277.807-.3666.2016-.1079.3043-.2925.2739-.5326-.0319-.2587-.1659-.4441-.4061-.5554Z"></path>
  <path fill="#2b2b2b" d="M47.9397 66.1244c-.0143.0114-.019.0133-.0204.0162-.3657.7518-1.0158 1.0799-1.8013 1.146-1.2978.1103-2.5427-.1327-3.7239-.6757-.4979-.2293-.9235-.5621-1.1632-1.0738-.1041-.2211-.154-.4674-.2315-.7104-.2578-.0015-.5645.2534-.5845.5283-.0071.0894.0305.1892.0709.2729.1631.3372.4251.5925.7109.8237.7347.5929 1.5759.9672 2.488 1.1878 1.1978.2901 2.3952.2987 3.5802-.0604.2806-.0851.5459-.2277.807-.3666.2016-.1079.3043-.2925.2739-.5326-.0319-.2587-.1659-.4441-.4061-.5554Z" opacity=".4"></path>
  <path fill="#0d0d0d" d="M34.9093 54.1929c-.0091.4646.0884.9016.2881 1.3163.4057.8326 1.0733 1.3771 1.9102 1.7342.73.312 1.4961.418 2.2859.3771.01-.0005.02-.0047.0537-.0152-.5525-.0851-1.0661-.2225-1.563-.4208-.8607-.3438-1.6192-.8327-2.2089-1.5617-.3162-.3899-.5544-.8241-.7171-1.3005-.0137-.0438-.0318-.0866-.0489-.1294Z"></path>
  <path fill="#0d0d0d" d="M41.3564 47.5454c.8498-.5188 1.0334-1.7376.4884-2.4342.1284.8702-.0475 1.6781-.4884 2.4342Z"></path>
  <path fill="#0d0d0d" d="M42.7573 52.3282c.4151.3405.9154.4346 1.4366.4256.2082-.0052.4156-.0395.6238-.0494.1123-.0053.2302.0019.3415.0261.2102.048.3038.0157.3756-.1859.1627-.4599.2392-.9363.1845-1.4219-.0266-.2325-.0746-.4712-.1678-.6842-.3624-.8479-1.4608-1.1965-2.2745-.7333-.1051.0594-.2035.1289-.2972.2059-.0989.0804-.1883.1736-.291.2696.0461.0528.0842.1037.127.1479.0984.1008.1355.2202.1055.3543-.0932.4204.089.7195.4404.9116.2511.1369.5259.2354.7993.3262.1413.0485.2863.0827.4337.1122.0447-.0014.0642-.009.0994-.0371.2192-.1417.3762-.3276.4727-.5711.0523.1436.0418.3823-.0043.5597-.0285.1094-.01.3776.0461.4556-.0047.0047-.009.0099-.0119.0142-.0261-.0123-.0513-.0256-.076-.0404-.2816-.1726-.5964-.2273-.9178-.2672-.3966-.0504-.7827-.1413-1.1208-.37-.4066-.2753-.6249-.6581-.6487-1.1503-.0009-.0152-.0033-.0295-.0085-.0699-.3686.7195-.2559 1.2896.3324 1.7718Z"></path>
  <path fill="url(#s)" d="M43.2954 50.7781c0 .4474.3628.8103.8094.8103.4479 0 .8107-.3629.8107-.8103 0-.4475-.3628-.8103-.8107-.8103-.4466 0-.8094.3628-.8094.8103Z"></path>
  <path fill="#ffffff" d="M43.8492 50.9775c.0176 0 .0352-.0048.0507-.0145l.1914-.1196c.0279-.0175.0449-.0481.0449-.0811v-.2392c0-.033-.017-.0637-.0449-.0812l-.1914-.1196c-.0155-.0096-.0331-.0145-.0507-.0145-.0176 0-.0352.0049-.0507.0145l-.1914.1196c-.0279.0175-.0449.0482-.0449.0812v.2392c0 .033.017.0636.0449.0811l.1914.1196c.0155.0097.0331.0145.0507.0145Z"></path>
  <path fill="#ffffff" d="M46.9185 64.4316c.1437.0894.3672.0514.4504-.1065.3457-.6572.3138-1.4228-.0243-2.0761-.194-.3748-.7751-.0723-.5816.301.2302.4465.2778.9952.0481 1.4332-.0818.1565-.0523.3495.1074.4484Z"></path>
  <path fill="#430a1d" d="M11.7367 66.3237c-.205-5.858 3.4072-3.9526 5.014-6.4258.1307-.1541.2082-.3272.2672-.4613-1.8032.9934-6.8585.3301-5.2812 6.8871Z" opacity=".2"></path>
  <path fill="#2b2b2b" d="M8.9859 54.9027c4.9607-4.2702 14.7533-3.8042 15.4699-3.7438-4.1076 2.9297-16.43047.1755-16.88222 9.0931-.79984-2.5327.23016-4.3312 1.41232-5.3493Z" opacity=".2"></path>
  <path fill="#430a1d" d="M16.9148 59.6696s-.0009 1.2944 0 2.2088c0 .914-1.1489.4156-1.5925-.8393 1.1075-.4342 1.5925-1.3695 1.5925-1.3695Z" opacity=".2"></path>
  <path fill="#430a1d" d="M16.3005 60.1029c.8307-1.466-.0229-2.7343-.1551-2.7885.4718-.0247 1.3786-.9101 1.595-1.205.3376-.4617.358-1.1322.3861-1.6805.67-.0299 1.1413-.4403 1.7514-.5858-.5188.4855-1.2217 1.0599-1.5365 1.7143-.2801.581-.5169 1.2501-.7047 1.8683-.1536.5064-.2972 1.0096-.3918 1.5322-.0704.3889-.3001.9125-.2583 1.2915 0 0-.0856 3.41.5983 5.0939-1.2949-.4409-1.9735-1.4975-2.2093-1.9064-.2673-.4627-.7699-1.613-.1475-2.3458.4019-.1465.8417-.5816 1.0724-.9882Z" opacity=".2"></path>
  <path fill="#0d0d0d" d="M4.17176 64.5325c2.60637 3.5917 6.09294 5.8999 10.42694 6.9028 1.4437.3343 2.9116.4261 4.3924.4204 3.6226-.0157 7.2447-.0067 10.8673-.0072 2.4361-.0009 4.8732 0 7.3094-.0061.5796-.001 1.1579-.0395 1.7123-.2326.5441-.1883.9635-.5216 1.1979-1.0614.3348-.7793.049-1.7599-.6743-2.2882-.5302-.3871-1.1394-.4998-1.7804-.4712-.1726.0085-.3447.0351-.5164.0527-.039.0043-.0818.0134-.1189.0048-.0556-.0119-.1079-.0395-.1612-.0595.0304-.0446.0523-.0989.0923-.1317.6624-.5635 1.1184-1.2577 1.3367-2.1004.0799-.3067.1032-.6182.0742-.9325-.0019-.0247-.0038-.049-.0048-.0723-.0067-.1626.0495-.213.2097-.2206.4736-.0219.9468-.0404 1.419-.0775.2259-.0181.4484-.0733.7033-.0894-.0295.039-.0514.0965-.0908.1146-.3776.1745-.6239.4655-.748.8535-.1451.457-.2468.924-.2259 1.4086.0318.7827.3367 1.456.8322 2.05.4455.5326.9943.9334 1.6149 1.2378.0798.039.1012.0732.0732.1631-.0794.2563-.0694.515.0204.7708.0547.156.1551.2692.2982.3495.3262.1817.7024.2074 1.058.0585.01.0509.0186.1084.031.1579.1027.3899.3542.5449.7342.7732l.2658 0c.0105 0 .0204-.0281.0314-.03.669-.1127.9501-.7242.8726-1.3034-.02-.1493-.0633-.2962-.0923-.4308.3034-.0799.6158-.1417.914-.2463 1.3766-.4789 2.2854-1.4081 2.6701-2.8237.1536-.5664.0585-1.0738-.3809-1.4941-.0276-.0276-.0295-.0942-.0233-.1394.0856-.5349.2173-1.0661.2515-1.6044.0828-1.2773-.3186-2.3971-1.2064-3.3311-.0523-.0542-.0556-.1008-.0418-.1683.0585-.2863.1255-.5721.1607-.8617.0723-.5839-.1503-1.068-.5397-1.4898-.0343-.0376-.0728-.078-.0894-.1246-.1089-.3248-.3338-.5459-.631-.6952-.5992-.302-1.2345-.3633-1.8893-.2544-.429.0718-.8208.2525-1.2079.436-.1707.0809-.3276.1213-.4855-.0171-.0271-.0233-.0694-.029-.0946-.0509-.0438-.0413-.117-.0989-.1089-.1336.0109-.0533.0742-.1137.1289-.1355.3019-.1189.6129-.1831.9401-.1831.2454 0 .4912-.0071.7337-.0357.7737-.0936 1.4832-.3728 2.1494-.7703.0447-.0267.0937-.0495.1441-.0576.8612-.1317 1.5531-.8084 1.7033-1.6653.0148-.0865.0129-.1859.0576-.2549.3652-.5639.3947-1.1631.184-1.7789-.1336-.3895-.3191-.7628-.466-1.1475-.0789-.2063-.1588-.4198-.1788-.6338-.0528-.6101-.1336-1.2145-.2972-1.8037-.3495-1.2583-.9725-2.3487-1.9725-3.2041-1.0096-.8631-2.1931-1.3177-3.5042-1.4571-.1155-.0118-.1764-.0489-.2278-.1631-.2862-.6491-.757-1.1051-1.4346-1.3419-.176-.0613-.3514-.0751-.5169-.0005-.2359.1089-.476.2173-.6872.3667-.5535.3861-.9919.8878-1.3557 1.4551-.0285.0428-.0599.0989-.1022.1131-.0571.0186-.1417.0253-.1855-.0052-.0333-.0228-.0409-.1151-.0281-.1688.0153-.0632.0642-.1194.1018-.175.9634-1.3933 1.5764-2.9259 1.8584-4.5965.01-.0523.0471-.1088.086-.1483.2369-.2411.4813-.4736.7162-.7166.3752-.3876.6053-.8569.728-1.3776.0319-.1365.0476-.2768.0566-.4161.0029-.0424-.0385-.0871-.0594-.1308-.0452.0261-.1042.0418-.1317.0794-.0642.0875-.1089.1878-.1684.2782-.039.0599-.0899.1108-.136.1683-.0142-.0337-.0104-.0528-.0038-.0703.252-.642.4275-1.3035.5122-1.9892.0237-.1911.0399-.3842.0447-.5763.0038-.1398-.0894-.2283-.1826-.1907-.05.02-.0932.0623-.1318.1003-.3747.3714-.8164.6467-1.2692.9073-.0099-.0138-.0175-.0199-.018-.0271-.0124-.0675-.0248-.1341-.0347-.2016-.1208-.7918-.3296-1.5616-.5711-2.3253-.1841-.583-.2882-1.1789-.1869-1.7933.0608-.3661.1907-.6976.5017-.9306.0233-.0176.0389-.0456.0665-.077-.0361-.0185-.0585-.0366-.0841-.0418-.4485-.099-.9121-.0409-1.1637.4741-.029.0575-.067.1093-.1188.1959-.0566-.1132-.1127-.1874-.1308-.2682-.0894-.4061-.1113-.8194-.0732-1.2345.0485-.5126.2292-.982.4522-1.4394.0575-.1189.1122-.2411.1493-.3667.0661-.2277-.0609-.3961-.2991-.3923-.1184.0024-.2435.021-.3524.0623-.5863.2207-1.0328.6082-1.3296 1.1632-.0242.0451-.0466.0898-.0727.1441-.2354-.2288-.4499-.4518-.5616-.7571-.0713-.1954-.1664-.3842-.2639-.5668-.0699-.1313-.1227-.1284-.2083-.0091-.0233.0319-.0438.0676-.069.0985-.0661.0794-.1169.0799-.1683-.01-.0461-.0789-.0808-.166-.1118-.2511-.1531-.4137-.4037-.757-.7475-1.0314-.0233-.0176-.0499-.0314-.1051-.0652.0205.1308.0371.2321.05.3339.0137.1041.0261.2082.0394.3181-.0309-.0038-.0404-.0029-.0471-.0067-.0332-.0214-.0675-.0437-.1003-.0675-1.3904-.9606-2.9107-1.6282-4.5537-2.0181-.5007-.1189-1.0257-.1612-1.4779-.4451-.01-.0067-.0228-.01-.0338-.0152-.0894-.0352-.155-.0157-.2244.0537-.0442.0437-.1232.0632-.1864.0623-.2007-.0048-.4014-.049-.6011-.0656-.184-.0153-.3733-.0571-.5497-.1013-.3029-.0766-.5973-.3709-.8945-.3709l-.2173 0c-.0694 0-.1517.1997-.2083.2696-.0984.1232-.2192.2672-.3737.2772-1.0238.0637-2.0362.2121-3.0334.4608-1.5179.3766-2.9436.9611-4.2213 1.8798-.9335.6719-1.7343 1.4698-2.302 2.4813-.1161.2054-.2083.4261-.3001.6429-.0694.1679-.0865.3448-.0285.5202.0489.1441.1574.224.3043.2012.8341-.1313 1.5407.1735 2.1917.6467.6477.4712 1.1413 1.0752 1.4228 1.8303.4147 1.1156.1902 2.1142-.5916 2.9982-.0789.0894-.1683.1703-.2643.2673-.0362-.1356-.0666-.2587-.1018-.3819-.1774-.6039-.4294-1.1679-.8593-1.6382-.2496-.2744-.6529-.4308-.282-.4165.3424.0118-.1231.0057-.1659 0 .427.2934.0984.4674.1616.9643.1346 1.0567-.1892 1.9659-.9249 2.7291-.0447.0466-.1122.0761-.1754.0984-.7751.2749-1.5555.5355-2.3263.8222-1.3762.5117-2.7048 1.127-3.96403 1.8855-.01712.01-.03519.0195-.05374.0295-.11936-.0771-.16834-.1921-.1631-.3205.00665-.1712.03423-.3424.05468-.5131.0019-.0205.00856-.0395.00999-.0595.04089-.3019-.07704-.4004-.35475-.2653-.13933.068-.26724.1807-.36758.3-.32051.3838-.51928.8384-.70997 1.294-.10081.2406-.1807.4897-.28294.7299-.03661.0875-.0951.1764-.16786.2378-1.09039.9272-2.10612 1.9249-2.96682 3.0738-.73802.9843-1.36715 2.031-1.87882 3.1504-.01236.0294-.02758.058-.04185.087-.0038.0062-.01093.01-.02758.0242-.16786-.981-.20067-1.9577-.10223-2.9444-.07847.2929-.16596.5844-.23396.8797-.27962 1.1907-.36664 2.3957-.28342 3.6159.00428.0618-.01141.1284-.02996.1883-.3633 1.1403-.61391 2.3059-.7209 3.4971-.369962 4.1608.64149 7.966 3.0976 11.3508Zm-.98863-12.8126c.76085 1.6639 1.71476 3.216 2.75474 4.7163.05469.0789.07989.1564.08464.2539.02331.4822.04898.963.08845 1.4432.02378.2825.07561.564.11461.8441-2.77757-3.0562-4.11143-6.6546-4.06958-10.8016.0466.3219.07703.6224.1341.9173.17689.9158.50691 1.7822.89304 2.6268ZM13.3885 39.4427c-.0062.0242-.0057.0323-.01.039-.02.0294-.0414.0589-.0628.0889-.9068 1.2711-1.6496 2.6316-2.1974 4.0957-.3933 1.049-.6691 2.1271-.7899 3.2436-.0841.7822-.0903 1.564 0 2.3463.0048.0366.0043.0941-.0171.1098-.1774.127-.35996.2468-.5459.3714-.01236-.0452-.02235-.0751-.02948-.1075-.28674-1.2882-.44177-2.5883-.36663-3.9112.0485-.8474.19306-1.6743.50834-2.4666.00903-.0228.01284-.047.01902-.0699-.10081.1441-.18688.2925-.26107.447-.58585 1.2179-.81743 2.5175-.86356 3.8528-.04137 1.2059.08084 2.4052.31433 3.594-.20305.0728-.43036.0381-.75895-.1236-.00998.0394-.00903.0894-.03186.116-.51595.5801-.94915 1.215-1.28725 1.9131-.00856.0175-.0214.0313-.03614.0532-.25346-.2872-.47268-.5844-.60488-.9472-.04042.1483-.07418.2948-.08321.4436-.02901.4855.07703.9501.2292 1.4057.0409.1227.02806.2225-.03614.3371-.21922-.2101-.2953-.4859-.39374-.7656-.09938.1322-.13315.2663-.14123.408-.0195.3862.07513.7528.22207 1.1014.11508.2724-.03328.4993-.04755.7784-.05374-.0704-.08892-.1094-.11793-.1536-.37615-.5549-.76798-1.0994-1.12368-1.6677-.84216-1.3462-1.52977-2.7661-2.0053-4.2859-.0176-.0599-.02473-.137-.00381-.194.79604-2.1898 2.01102-4.121 3.62876-5.7972.0195-.0204.04375-.0371.07799-.0666-.0019.04-.00238.0599-.00475.0799-.068.5578-.14932 1.1156-.19735 1.6744-.08322.9805-.06657 1.9596.12887 2.9287.13172.6501.34571 1.2711.75039 1.8089.27866.3681.61961.662 1.05614.8322-.10509-.1046-.21921-.2006-.31242-.3143-.26106-.3162-.44271-.6786-.57681-1.0642-.28389-.8118-.34762-1.6544-.35237-2.5061-.00428-.8421.06943-1.6776.18688-2.5103.12507-.8911.27676-1.777.53117-2.6411.16643-.564.36806-1.1137.68381-1.6144.04422-.0694.11983-.1203.18117-.1797.03662.0765.09273.1497.107.2296.04185.2573.1089.5041.01141.777-.38327 1.0766-.59536 2.1908-.69427 3.3273-.02092.2387-.02711.4784-.04042.7171.05944-.2149.09035-.4327.13505-.6467.2953-1.4394.9482-2.6806 2.0571-3.662.1042-.0918.2231-.1722.3462-.2359.7875-.4118 1.6054-.7542 2.4404-1.0566.1232-.0438.2454-.0866.3786-.1322Zm24.2938-11.0703c.0019.0808-.0309.1645-.0585.2439-.3053.8959-.4028 1.8146-.3476 2.7547.01.1684.0195.3424-.0105.5051-.1826.9748-.6957 1.8032-1.1931 2.6634-.0133-.0371-.0185-.0438-.0185-.0495-.0552-1.4365-.0124-2.8684.2701-4.2831.1036-.5169.2511-1.0209.5288-1.4769.1364-.2264.3067-.4214.5411-.5545.0728-.0414.1498-.0656.2078.0014.0428.0514.0785.1289.0804.1955Zm.5934 7.6175c-.2268.164-.465.3181-.7142.4441-.8769.4408-1.8061.7547-2.7243 1.0932-.1788.0657-.3505.1598-.5102.2644-.3177.2083-.554.5003-.759.816-.098.1494-.1897.3034-.2853.4551.0028-.0509.0185-.0956.0309-.1417.1084-.369.2316-.7352.3191-1.1099.1212-.5226.3134-1.0109.6044-1.4589.1569-.242.3324-.4736.486-.7195.097-.154.1816-.3214.2491-.4907.04-.1018.0352-.2207.0519-.3315-.0167-.008-.0324-.0161-.0495-.0237-.0485.0409-.1041.0765-.145.1241-.1688.1935-.331.3937-.5045.5839-.0376.0423-.1213.0837-.1636.0685-.0405-.0147-.0837-.1046-.0775-.1569.0214-.2097.0337-.4261.0993-.6239.0904-.2725.2326-.5279.3386-.7975.0519-.1312.0856-.2767.0975-.4175.0057-.0666-.059-.1388-.0908-.2078-.0566.0385-.1218.0694-.1684.1184-.0827.087-.1483.1888-.2339.2744-.0842.0832-.1622.0694-.2107-.0366-.0342-.0742-.0694-.1655-.0575-.2406.029-.1888.0799-.3743.1284-.5607.0447-.1693.1079-.3367.1426-.5074.0238-.1155-.0057-.2301-.1269-.3172-.0338.0495-.0709.0918-.0928.1417-.0475.1018-.0856.2083-.1288.3101-.1023.2349-.1921.4779-.3129.7033-.107.1983-.2116.1807-.3262-.0119-.2221-.3766-.4413-.7561-.6891-1.1156-.1365-.1973-.2154-.4004-.2368-.6315-.0276-.3072-.0428-.6172-.0747-.9249-.0123-.1146-.0432-.2339-.1688-.3424-.0266.1299-.0489.2364-.0699.3434-.0309.1569-.0523.3167-.0955.4703-.0295.1084-.117.1193-.1712.0228-.049-.0875-.0823-.1921-.0894-.292-.0129-.1883.0042-.3776-.0057-.5663-.0043-.0856-.0352-.1717-.0676-.253-.0133-.0347-.0599-.058-.0913-.0866-.0204.0352-.049.0676-.0604.1061-.0147.0451-.0166.0941-.0237.1422-.0205.1388-.0319.281-.0647.416-.0347.147-.1275.1717-.2183.0528-.0837-.1089-.1493-.2377-.1916-.368-.0642-.2026-.0913-.4147-.1527-.6192-.0285-.0956-.0936-.183-.155-.2644-.0233-.0294-.0894-.0485-.1265-.0375-.0271.0071-.0537.0694-.0547.1084-.0038.156.0029.3129.0053.4693.0004.0775 0 .1551 0 .2388-.0343-.0077-.0481-.0072-.0561-.0124-.0195-.0133-.039-.0295-.0547-.0471-.1608-.1707-.2682-.369-.3025-.6044-.0147-.1041-.0199-.2083-.0394-.3105-.0243-.1208-.0961-.1669-.2188-.1517-.1288.0152-.2102.1089-.2235.2725-.0095.1065-.0019.213-.0019.3357-.1469-.0751-.2767-.1441-.4089-.2092-1.352-.6691-2.7786-1.0838-4.2755-1.2588-.9668-.1127-1.9335-.1155-2.8922.079-.5797.1174-1.1317.3062-1.6106.669-.0704.0524-.1351.1132-.2026.1703.5331-.3086.845-.4346 1.3263-.5259.8764-.1684 1.7532-.1432 2.6282-.0162 1.5403.224 2.9963.7095 4.3644 1.4561 1.06.5782 2.0182 1.2872 2.7928 2.2254.0585.0695.1132.1422.1683.2135-1.5858-.7575-3.3772.6677-5.169.0352 2.4557 1.2659 3.9098-.3647 5.2946.6905.3524.2682.4151.9601-.3899.8441-.7685-.1099 1.1574.2705 1.5026 2.272-.0195.3267-.0656.6591-.1403.9991-.3304 1.4994-1.029 2.8237-1.9877 4.0125-.9872 1.225-2.2273 2.1366-3.6202 2.8494-.0199.0024-.0423.01-.0699.0209.0038-.0171.0034-.0252.0062-.0294.0195-.031.0395-.0609.0594-.0913.6658-.9896 1.2131-2.0344 1.4785-3.208.1826-.8036.2044-1.6092-.0495-2.4052-.2839-.8888-.8517-1.5654-1.5935-2.1075-.8312-.6078-1.7704-.9872-2.7495-1.2783-.2092-.0623-.4223-.1174-.6591-.1826.0267.0286.0295.0362.0362.0386.0399.0171.0818.0328.1231.0489.6838.2673 1.3353.5935 1.9259 1.0343.8503.632 1.4761 1.428 1.7595 2.4633.2501.9149.1945 1.8303-.0286 2.7409-.2886 1.1803-.8231 2.2488-1.4679 3.2697-.1479.2335-.3234.389-.5887.468-.3205.0951-.6348.2182-.982.3404.9825-1.0542 1.0096-2.5379.8213-3.4086-.0029.0153-.0077.0252-.0081.0357-.0338.7095-.2754 1.3486-.672 1.9316-.5915.8702-1.3928 1.5046-2.2972 2.0205-.0699.04-.1555.0528-.2335.078.3271-.3771.5777-.7879.7242-1.2587.1427-.4556.1921-1.1698.0975-1.4261-.1493.4979-.3048.8222-.6372 1.2459-.5706.7266-1.2335 1.3557-2.0015 1.8788-.5145.3523-1.0543.6438-1.6344.8654-1.0257.3933-2.0957.6344-3.1599.895-.9349.2287-1.8693.466-2.7971.7252-.5059.1417-.9929.3504-1.4137.6805-.0751-.1674-.2164-.759-.2216-1.2288-.0613-5.538 4.3454-8.4982 5.6883-10.0475.3909-.4512.6153-1.0043.8117-1.5635.0799-.2268.1484-.457.224-.6924.0123.0167.0252.0281.0309.04.3752.7204.6058 1.456.4261 2.2901-.2758 1.2759-.7894 2.4152-1.7566 3.3187-.0105.01-.0191.0229-.0524.0609.0476-.0243.0642-.0304.0795-.0409.7955-.4584 1.5226-1.0034 2.1375-1.69 1.0338-1.1527 1.5892-2.5018 1.6653-4.0511.0333-.6747-.0595-1.3409-.1346-2.0072-.2012-1.7732-1.496-3.2088-3.2369-3.6325-.1308-.0319-.264-.0771-.3819-.1394-.1674-.0889-.213-.2344-.1498-.4103.0228-.0633.0566-.1246.0928-.1817.3086-.4803.7009-.8773 1.1835-1.185.2478-.1574.4951-.3143.7338-.485.9796-.7 2.0329-1.2431 3.1979-1.5626.4808-.1318.9668-.2483 1.4723-.204.1578.0142.3119.0727.4693.0913.0656.0085.1365-.0376.2059-.0585-.039-.0438-.0699-.1018-.1179-.1289-.3044-.175-.6406-.2292-.9844-.2406-.5064-.0171-.9995.0789-1.4927.1793-.0494.0099-.1012.0099-.1521.0142.4037-.349.8616-.5744 1.3571-.7233.816-.2477 1.6492-.3033 2.4932-.2325.2701.0228.5445.0338.7932.175.2444.1379.5017.2535.7542.3762.0547.0266.1156.0399.174.0594.0091-.01.0172-.0186.0262-.0285-.0266-.0685-.0485-.1389-.0823-.2036-.0908-.1788-.1902-.3533-.2824-.5321-.0167-.0337-.0086-.0823-.011-.1236.0381-.0019.0809-.0162.1137-.0048.194.0647.3918.1218.5763.2083.2639.1255.5388.1683.8265.1878.3918.0271.7846.0642 1.1741.1199.5716.0822 1.0072.3771 1.2896.8883.0666.1193.1365.2363.2083.3528.0257.0414.0609.0766.0918.1141.0133-.0062.029-.0114.0428-.019-.0894-.3043-.1784-.6082-.2716-.9292.2958.0676.6044.2725.8484.5602.1241.1436.2339.2972.3566.4408.049.0571.1151.0989.1727.1484.0161-.0091.0328-.0162.0494-.0257-.0238-.2035-.048-.4066-.0708-.6111.0118-.0042.0252-.009.0375-.0123.1845.1122.3667.2278.5512.34.6267.3776 1.214.8027 1.6543 1.4018.0604.0828.1056.0709.1375-.0294.0389-.1261.0651-.2563.1084-.3814.0123-.0381.0656-.0899.096-.088.0424.0033.1013.0452.1151.0837.0295.0808.0419.1698.0476.2577.0118.176.0076.3529.0261.5279.0057.0537.0633.1036.097.1536.0452-.04.1075-.0714.1303-.1218.0699-.144.1222-.2967.1874-.4436.0599-.136.0956-.1384.1826-.0229.1141.1527.2425.2759.4579.2606.1997-.0152.2249-.0004.2991.1855.127.3172.2349.6405.3652.9558.0618.1503.1565.2872.2311.4318.0186.0342.0343.0832.0252.117-.2648.8535-.3376 1.7328-.3466 2.6192-.0081.8203.0085 1.6406-.0195 2.4594-.0214.6406-.1289 1.2654-.6068 1.759.0661-.0209.1289-.0447.1883-.0751.3077-.1598.5602-.3895.7804-.6539.4883-.5839.8088-1.2601 1.0937-1.9596.2278-.5602.4574-1.1199.6966-1.6753.0595-.1379.1584-.2597.2468-.3847.0214-.0295.0847-.0633.1089-.0509.0357.0157.0699.0689.0752.1094.0123.0903.0123.1854.008.2758-.0204.4579-.0585.9154.0205 1.3719.0114.0699.0314.1483.0138.2125-.1717.6263-.3947 1.2312-.7813 1.7633-.0114.0166-.0195.0371-.0438.0842.2749-.1227.4599-.3044.6097-.5179.1498-.2145.281-.4422.4284-.679.0628.2539.1227.4983.1826.7427.0851.3548-.0214.6458-.3077.8546Zm.311 3.6696c-.7033.6638-1.5359 1.1322-2.4109 1.5298-1.1841.5383-2.4247.9116-3.6896 1.2055-.4518.105-.9069.1959-1.3905.2995.1945-.2411.3667-.4569.544-.6705.0167-.0204.0543-.0294.0847-.0337.7922-.0823 1.5545-.2872 2.2882-.5925 1.6981-.7048 3.1523-1.77 4.4481-3.0615.0119-.0119.0205-.0271.0295-.0404-.0442.0133-.077.0352-.1103.058-1.0933.7589-2.2179 1.4665-3.4 2.079-.7571.39-1.5284.749-2.3577.9611-.1955.0499-.3952.0832-.6239.1298.0314-.0542.0442-.0742.0556-.0951.2601-.4556.5469-.9002.7737-1.3729.1412-.2972.34-.515.5911-.7066.9415-.7166 1.9791-1.2697 3.0377-1.7875.01-.0043.0214-.0029.0556-.0091-.4028.6392-.7913 1.2611-1.4851 1.6116.1793-.0295.3576-.0594.5293-.1117.5326-.1631.9805-.477 1.4014-.8289.5145-.4294 1.0124-.8816 1.5345-1.3048.2687-.2188.5564-.4299.8669-.5811.3267-.1574.6886-.2388 1.0371-.3467.0894-.0295.185-.0342.3158-.0571-.0428.2207-.0609.4142-.1189.594-.398 1.215-1.0799 2.2545-2.0063 3.1318Zm-6.4115 9.3984c-.2573.1431-.5312.2715-.8117.3571-.575.174-1.1732.1769-1.7695.1755-.4218-.0005-.8441-.0062-1.2654-.0015-.106.0015-.2111.0347-.3157.0538 0 .019-.001.0385-.0019.0585.0908.0347.1793.077.272.1036.2939.0837.5892.1588.8821.2406.0575.0167.1098.0495.1659.0752-.0019.0114-.0042.0233-.0061.0342-.0381.0152-.0756.0366-.1161.0457-.5896.1174-1.1764.2601-1.7718.3442-1.0072.1432-2.0058.3177-2.9811.6144-.0832.0248-.1745.0371-.2601.0314-.9862-.0689-1.972-.1393-2.9583-.2116-1.1403-.0832-2.2811-.0942-3.4195.0262-1.2939.1364-2.546.4436-3.7571.9115-1.741.6729-3.3188 1.6325-4.80146 2.7562-.0252.019-.04945.0419-.07371.0623.04898-.0095.08607-.0295.12221-.0514 1.35436-.8084 2.75046-1.5297 4.22606-2.0918 1.2511-.476 2.5355-.8198 3.8627-.9958.9591-.1269 1.9216-.1559 2.8884-.1498 1.0799.0058 2.1622 0 3.2421-.0004.0138 0 .0281.0019.0438.0033-.0043.0095-.0048.0143-.0067.0162-.0257.0095-.0514.0209-.0775.0309-.9658.3775-1.8817.8493-2.7177 1.4651-.2525.1873-.524.3276-.8136.4365-.2249.0851-.4513.1684-.6809.2406-1.1789.3724-2.3991.555-3.6126.7742-1.0001.1802-1.9987.3652-2.9897.5839-.903.1993-1.7751.5051-2.5859.9658-1.39141.7904-2.2098 1.9735-2.43282 3.5622-.03519.2497-.05516.5027-.08037.7266-.0485-.0903-.10128-.1997-.16358-.3043-.52736-.8869-.89637-1.8313-1.01145-2.8627-.15502-1.3938.24252-2.5959 1.25207-3.5836.04137-.0404.06943-.0946.09653-.1483.14551-.2949.26582-.6044.43464-.8836.48266-.7917 1.16362-1.388 1.93068-1.8921 1.0185-.6681 2.1308-1.1351 3.2792-1.5226 1.8113-.6125 3.6749-1.0124 5.5475-1.3724 1.526-.2929 3.0548-.5745 4.5799-.8707 1.1897-.2302 2.3467-.5564 3.4418-1.0961 1.3738-.6762 2.6454-1.4884 3.7225-2.5864.0356-.0371.1041-.0571.1583-.059.7205-.0204 1.4366-.0879 2.1442-.2216 1.982-.3756 3.7971-1.1474 5.4595-2.2863.0276-.0176.0561-.0309.1013-.0585-.01.0594-.0142.0951-.0228.1293-.1398.6197-.3215 1.2274-.5573 1.8166-1.1546 2.8836-3.0753 5.0972-5.791 6.6089Zm15.9421 15.0923c-.048.4736-.1465.943-.2501 1.409-.1608.7166-.5992 1.1907-1.3087 1.4052-.3176.096-.6439.1341-.9753.135-.65.0015-1.2868-.1032-1.9159-.2587-.524-.1312-1.03-.3076-1.4841-.6072-.4337-.2858-.7561-.6572-.8817-1.175-.077-.3239-.0546-.6439-.0023-.9682.0209-.1289.0765-.1855.1949-.2316 1.0353-.4132 1.8617-1.069 2.3577-2.0904.0661-.1351.1603-.2035.3043-.2183.4951-.0547.9806-.0366 1.4328.2035.2901.1541.5797.1365.8664-.0028.118-.0576.2326-.1289.3372-.2083.1303-.0994.2487-.2149.3928-.3414.0118.0209.0209.0399.0332.0551.7171.836 1.0067 1.8089.8988 2.8941Zm-7.6565 2.1152c.0799.0518.1512.1188.2226.1845.6167.5749 1.3276.9924 2.1151 1.2882.7033.2639 1.4347.3823 2.1789.4222.5506.0295 1.1051.0248 1.6401-.1212.3666-.0999.718-.2506 1.0799-.3695.077-.0252.1935-.0428.2459-.0029.0884.068.0223.176-.01.2663-.0019.0038-.0048.0072-.0067.01-.2573.4912-.5944.9159-1.0504 1.2383-.8217.5806-1.7452.6952-2.7139.5844-.1588-.018-.2962.011-.4261.0847-.0608.0347-.0984.1098-.1469.1674.009.0099.0176.0214.0262.0313.0342-.0038.0689-.0099.1036-.0104.1798-.0057.3629-.0333.5383-.01.5659.0751.836.6995.5103 1.1598-.1089.1555-.2511.2673-.4537.2421-.2083-.0276-.3119-.1822-.3828-.3614-.0171-.0438-.0242-.0933-.029-.1413-.0214-.1812-.0342-.2064-.2211-.2002-.1755.0053-.35.0324-.525.059-.2173.0304-.3576-.0495-.4261-.2592-.0551-.1693-.0385-.3405.0452-.4907.0894-.1646.204-.3143.302-.4651-.263-.1098-.5526-.2092-.8222-.349-1.0305-.534-1.7286-1.3424-1.9915-2.4918-.0271-.1122-.0376-.2311-.0338-.3467.0057-.165.097-.2087.2311-.1188Zm.5378-1.4385c.0771.243.1284.4893.2311.7104.2397.5117.6658.8436 1.1637 1.0738 1.1812.543 2.4271.786 3.7238.6757.7856-.0666 1.4366-.3947 1.8013-1.146.0015-.0029.0067-.0048.0205-.0162.2401.1113.3742.2967.4065.5573.0295.2397-.0727.4251-.2743.5321-.2606.1389-.5264.282-.807.3667-1.185.359-2.3834.3504-3.5807.0604-.9121-.2207-1.7538-.5949-2.4875-1.1879-.2868-.2311-.5478-.486-.7109-.8236-.0405-.0837-.078-.1845-.0714-.273.0214-.2763.3272-.5311.5849-.5297Zm-37.63619-6.034c-.962-1.6734-1.46273-3.4495-1.46377-3.722-.00277-.8516.06333-1.7005.19077-2.546.02949-.1959.06848-.3904.10224-.5858.03614.0357.04803.0718.05897.1089.14218.4722.26582.951.42845 1.4161.855 2.4371 2.1551 4.6231 3.76619 6.6313.05849.0732.1089.1597.1379.2487.34999 1.078.85215 2.0562 1.49602 2.9425-.72233-.3076-1.54452-.4184-2.52459-1.5459 1.20357 2.3211 4.05484 3.2407 4.05484 3.2407 1.58637 1.4195 3.43287 2.3577 5.47807 2.9193.1655.0452.3319.0813.4989.1213-.0362-.0352-.0771-.0495-.118-.0657-1.5221-.5444-2.9245-1.3034-4.1941-2.3044-1.58023-1.2459-2.77523-2.7809-3.48947-4.6735-.07609-.2035-.11223-.3932-.03377-.6034.05326-.1427.08084-.2944.12507-.4404.33572-1.097.86118-2.0833 1.70619-2.8793.80838-.7627 1.77988-1.2235 2.83368-1.5345 1.2621-.37 2.566-.5065 3.8637-.6767.7527-.098 1.5017-.2168 2.2521-.3314.2016-.03.4009-.0799.6153-.1242-.0162.0267-.0209.0386-.0295.0481-.5858.6576-1.0737 1.38-1.4617 2.1722-.0233.049-.0771.0975-.1289.1136-.3467.1094-.6905.2392-1.0462.3106-.5273.1051-1.0671.1455-1.5944.2491-2.828.5612-3.6996 2.0767-3.6868 2.0629.8588-.9121 2.2326-1.1693 2.5959-1.2958.846-.2944 1.7233-.3743 2.6116-.3657.2601.0038.5193.019.7865.0295-.7974 2.603-.6928 5.1404.3876 7.626.0009-.0471-.01-.0918-.0209-.1365-.4228-1.6053-.594-3.2293-.3524-4.8822.2915-2.0072 1.1641-3.7172 2.6216-5.1262 1.0923-1.0557 2.3767-1.8156 3.7548-2.4281 1.3091-.582 2.6848-.942 4.0724-1.2768 1.0443-.2515 2.0928-.4983 3.1238-.8022 1.3809-.4046 2.6311-1.0694 3.6958-2.0519.1655-.1521.3314-.3076.4679-.4855.8973-1.1612 1.9915-2.0705 3.3377-2.663.0852-.2848.2335-.5853.4656-.8992.3286-.4403.7356-.8032 1.1741-1.1289.1245-.0918.2891-.1446.4441-.175.1683-.0347.2691.0466.3272.2097.0152.0462.0261.0923.0347.1394.0894.0309.1792.0794.2672.1478.0604.0466.1189.0971.1717.1498.2477.2492.4218.5459.5621.8641.0304.0689.0713.096.1426.1051.1669.0218.3343.0451.4993.077 2.6787.5297 4.6279 2.565 4.9684 5.4914.0299.2639.0285.5374.1074.7846.1013.3144.2682.6073.4071.9097.1222.2658.2558.5264.3619.7994.1088.2791.1222.5701.0375.8635-.0295.1009-.088.1275-.1669.0785-.1098-.0694-.2092-.1564-.3148-.2349-.1279-.0956-.2473-.205-.3856-.2806-.1123-.0623-.2407-.0494-.3415.0661.0233.0176.0428.0314.0599.0476.2759.2458.5526.4893.8237.7399.0323.0295.0556.0894.0527.1355-.0242.3885-.1531.7409-.4289 1.0205-.3557.36-.7737.5521-1.2929.4304-.0129.1935-.0267.2268-.1375.2867-.7228.3914-1.4879.622-2.3163.6063-.6087-.0104-1.1584.1826-1.6819.4755-.1627.0909-.3372.1727-.5164.2202-.5659.1503-1.147.1936-1.7314.2088-.0481.0009-.0947.0038-.1427.0062.03.0337.0599.0442.0894.0508.466.1104.9387.1246 1.4147.0899.1541-.0109.3276-.0442.4617.01.3928.1598.7737.3509 1.1518.5454.106.0547.1997.0809.3072.0409.2401-.0899.4812-.1788.7151-.2829.4975-.2211 1.0063-.3543 1.556-.2787.3.0409.5934.107.8555.2673.1692.1046.3038.2377.3167.4546.0028.0304.0299.0642.0546.087.0704.0651.1484.1236.2193.1883.2092.1931.2981.4327.272.7157-.0224.2377-.0928.2772-.2996.1721-.0999-.0504-.204-.0918-.3086-.0119.1326.0847.2629.1608.3866.2464.1864.1274.252.311.2458.5321-.0195.6153-.7451 1.1598-1.3681 1.0224-.2059-.0452-.389-.1265-.5017-.321-.0147-.0257-.057-.0528-.0856-.0509-.1626.009-.3285.0081-.4855.0433-.2877.0651-.572.1341-.8683.078-.1365-.0262-.271-.0638-.4123-.0961-.1103.3842-.2919.7257-.5349 1.0352-.5635.7162-1.3039 1.1698-2.1585 1.4499-1.108.3638-2.2468.4037-3.3862.2402-1.6477-.2354-2.8161-1.1299-3.4457-2.6816-.156-.3837-.2363-.7979-.3538-1.1988-.1883-.6448-.4413-1.2649-.7756-1.8507-.5388-.9406-1.2459-1.7148-2.2145-2.2255-1.088-.5735-2.2445-.6881-3.4424-.475-.2273.0404-.4503.0989-.7023.1554.4379.0262.8407.0352 1.2397.0757 1.1108.1117 2.1522.4455 3.099 1.0447 1.1251.7138 1.9673 1.6496 2.3192 2.9773.1883.709.4517 1.3971.7817 2.0562.2192.4413.4618.864.7999 1.2268.563.6025 1.2696.943 2.0485 1.1622.2397.0671.4775.1413.7138.2173.117.0381.1902.1208.2364.2392.1302.3386.1678.6843.0974 1.0405-.1089.5602-.3832 1.0357-.7513 1.4608-.3167.3662-.7133.6344-1.1099.9021-.1926.1289-.3804.2691-.5564.4208-.1521.1294-.2449.3072-.2353.5103.0166.3628.038.4203.3994.3.0566-.019.1127-.0413.1683-.0656.2953-.1269.5887-.2563.886-.3804.5692-.2382 1.1602-.3262 1.7675-.1802.6724.1607 1.147.5559 1.3605 1.2311.0437.1384.0542.2853-.0195.4094-.0362.0614-.1279.1218-.1959.1237-.0614.0019-.1337-.068-.1841-.1227-.0304-.0342-.0294-.098-.0437-.1484-.0694-.2606-.1831-.4907-.4389-.6172-.049-.0243-.1037-.0304-.156-.0461.341.3538.525.7542.5007 1.2368-.0185.3667-.3062.6054-.6752.5844-.1075-.0061-.1831-.0565-.195-.1612-.0143-.1269-.009-.2553-.0114-.3832-.0038-.1522.0076-.3072-.0138-.4565-.0337-.2449-.185-.4042-.4199-.4799-.1136-.0361-.223-.0166-.3286.0371.1484.0305.2901.0752.3652.214.0714.1332.1451.272.1812.4171.077.3129.04.6148-.2477.8069-.1289.0861-.3044.1218-.4632.1436-.3414.0476-.6681-.0489-.9981-.125-.1979-.0461-.4028-.0766-.6044-.0771-.1907-.0004-.3833.04-.5721.0738-1.1498.2073-2.3054.1193-3.4761.1055-1.2663-.0157-2.5327-.0081-3.799-.009-2.2669 0-4.5342-.001-6.8029-.001-.9364 0-1.8727.0095-2.809.0034-1.2915-.0081-2.5683-.1536-3.8171-.4813-4.75667-1.244-8.31648-3.8189-10.66274-8.1353-1.03428-1.904-1.62489-3.9407-1.83269-6.0792-.02473-.2473 1.39615 2.3981 1.38284 2.138Z"></path>
  <path fill="#e65270" d="M40.5531 47.5795c-.3994-.8502-.4042-1.2102.0371-2.0148.3329-.6077 1.2178-.067 1.098-.7456-.0504-.5897-.6681-1.2373-.7827-1.3781-.1408-.1669-.2192-.331-.4271-.2886-.1897.039-.3699.1307-.5235.2444-.5407.4018-1.0414.8498-1.448 1.3923-.7337.9791-.4313 1.5731.4275 2.3539.3638.3286 1.6615.5274 1.6187.4365Z"></path>
  <path fill="#2b2b2b" d="M39.7572 44.3506c.2116-.2311.5416-.4546.8849-.6838.1826-.1208-.3614 1.3634-.5192 1.7595-.5193 1.2977.1607 2.1018-.0262 2.0024-.4123-.2187-1.0005-.9829-1.0409-1.4551-.0452-.5107.3514-1.2397.7014-1.623Z" opacity=".2"></path>
  <path fill="#0d0d0d" d="M40.3874 47.5003c-.3994-.8502-.4037-1.2097.0381-2.0148.3319-.6072.486-1.2192.3666-1.8988-.0128-.0756-.028-.1526-.0528-.2258-.0704-.204-.1954-.3039-.4032-.2611-.1902.039-.3947.1032-.5469.2164-.5407.4018-1.0419.8497-1.448 1.3923-.563.7509-.5017 1.2635-.0746 1.8327.1222.1626.1973.1579.3547.1874.2035.0385.2449-.2449.1802-.3595-.1488-.2635-.2468-.5284-.2653-.7366-.0457-.5117.2406-1.0671.5906-1.4499.3243-.3548.9805-.9054 1.4275-1.0391.1085.4142-.1222 1.2407-.2677 1.642-.1778.4903-.7166 1.3848-.5811 1.9678 0 0 .1893.5392.3909.6762.2007.1365.291.0708.291.0708Z"></path>
  <path fill="#8b4fba" d="M16.1445 57.3143c-.0547.0028-.1056-.0029-.1469-.0252.0518-.0034.1008.0066.1469.0252Z" opacity=".2"></path>
  <path fill="#430a1d" d="M40.7271 64.4435c.4665-.7086.991-.9482 1.5835-1.506.5635-.5293.9962-1.1679 1.5569-1.6877.4398.0918.9334.0176 1.3847.0404.3224.7961 1.8879.0386 2.031-.475l.2078.3115c.4513.8887-1.1674.9482-2.089.8559-.6462-.0642-3.4381.6696-3.3463 4.2698-.3138.4826-1.0547.0114-1.0557.6405-.0004.6439.01 1.7794.5659 2.1894-.1588.5616-.7123-.0324-.8645-.2573-.3419-.5036-.8293-1.3952-.9401-1.992-.1874-1.0195.4555-1.6149.9658-2.3895Z" opacity=".2"></path>
  <defs>
    <linearGradient id="a" x1="710.855" x2="-602.269" y1="-4959.08" y2="1168.46" gradientUnits="userSpaceOnUse">
      <stop offset=".384" stop-color="#faa100"></stop>
      <stop offset=".658" stop-color="#bf73f2"></stop>
      <stop offset=".665" stop-color="#c370e6"></stop>
      <stop offset=".685" stop-color="#cc68c7"></stop>
      <stop offset=".708" stop-color="#d461ab"></stop>
      <stop offset=".734" stop-color="#db5b95"></stop>
      <stop offset=".764" stop-color="#e05784"></stop>
      <stop offset=".802" stop-color="#e35479"></stop>
      <stop offset=".854" stop-color="#e55272"></stop>
      <stop offset="1" stop-color="#e65270"></stop>
    </linearGradient>
    <linearGradient id="b" x1="1533" x2="92.113" y1="-5181.53" y2="1542.36" gradientUnits="userSpaceOnUse">
      <stop offset=".384" stop-color="#faa100"></stop>
      <stop offset=".658" stop-color="#bf73f2"></stop>
      <stop offset=".665" stop-color="#c370e6"></stop>
      <stop offset=".685" stop-color="#cc68c7"></stop>
      <stop offset=".708" stop-color="#d461ab"></stop>
      <stop offset=".734" stop-color="#db5b95"></stop>
      <stop offset=".764" stop-color="#e05784"></stop>
      <stop offset=".802" stop-color="#e35479"></stop>
      <stop offset=".854" stop-color="#e55272"></stop>
      <stop offset="1" stop-color="#e65270"></stop>
    </linearGradient>
    <linearGradient id="c" x1="1471.45" x2="1403.37" y1="-2718.36" y2="448.186" gradientUnits="userSpaceOnUse">
      <stop stop-color="#faa7b5"></stop>
      <stop offset=".384" stop-color="#faa100"></stop>
      <stop offset=".732" stop-color="#bf73f2"></stop>
    </linearGradient>
    <linearGradient id="d" x1="101.757" x2="918.797" y1="-2337.76" y2="-930.163" gradientUnits="userSpaceOnUse">
      <stop stop-color="#f6e8a0"></stop>
      <stop offset="1" stop-color="#e65271"></stop>
    </linearGradient>
    <linearGradient id="e" x1="166.424" x2="868.612" y1="-1469.16" y2="-259.73" gradientUnits="userSpaceOnUse">
      <stop stop-color="#f6e8a0"></stop>
      <stop offset="1" stop-color="#e65271"></stop>
    </linearGradient>
    <linearGradient id="f" x1="255.06" x2="159.481" y1="-1601.82" y2="65.987" gradientUnits="userSpaceOnUse">
      <stop stop-color="#f6e8a0"></stop>
      <stop offset="1" stop-color="#e65271"></stop>
    </linearGradient>
    <linearGradient id="g" x1="556.694" x2="16.464" y1="298.541" y2="-2095.11" gradientUnits="userSpaceOnUse">
      <stop stop-color="#e65271"></stop>
      <stop offset=".384" stop-color="#faa100"></stop>
    </linearGradient>
    <linearGradient id="h" x1="-298.39" x2="1545.73" y1="-1458.6" y2="112.236" gradientUnits="userSpaceOnUse">
      <stop stop-color="#f6e8a0"></stop>
      <stop offset="1" stop-color="#e65271"></stop>
    </linearGradient>
    <linearGradient id="i" x1="1112.36" x2="284.075" y1="-1121.49" y2="-896.232" gradientUnits="userSpaceOnUse">
      <stop stop-color="#faa7b5"></stop>
      <stop offset=".384" stop-color="#faa100"></stop>
      <stop offset=".732" stop-color="#bf73f2"></stop>
    </linearGradient>
    <linearGradient id="j" x1="7962.48" x2="-73.897" y1="-2257.29" y2="2051.63" gradientUnits="userSpaceOnUse">
      <stop stop-color="#faa7b5"></stop>
      <stop offset=".384" stop-color="#faa100"></stop>
      <stop offset=".732" stop-color="#bf73f2"></stop>
    </linearGradient>
    <linearGradient id="n" x1="670.747" x2="263.626" y1="-665.632" y2="251.874" gradientUnits="userSpaceOnUse">
      <stop offset=".004" stop-color="#faa7b5"></stop>
      <stop offset=".384" stop-color="#faa100"></stop>
    </linearGradient>
    <linearGradient id="o" x1="395.214" x2="-28.905" y1="-2650.22" y2="572.748" gradientUnits="userSpaceOnUse">
      <stop stop-color="#faa7b5"></stop>
      <stop offset=".384" stop-color="#faa100"></stop>
      <stop offset=".732" stop-color="#bf73f2"></stop>
    </linearGradient>
    <linearGradient id="p" x1="347.544" x2="-75.905" y1="-3161.23" y2="56.89" gradientUnits="userSpaceOnUse">
      <stop stop-color="#faa7b5"></stop>
      <stop offset=".384" stop-color="#faa100"></stop>
      <stop offset=".732" stop-color="#bf73f2"></stop>
    </linearGradient>
    <linearGradient id="q" x1="185.785" x2="377.413" y1="-2084.83" y2="171.309" gradientUnits="userSpaceOnUse">
      <stop stop-color="#faa7b5"></stop>
      <stop offset=".384" stop-color="#faa100"></stop>
      <stop offset=".732" stop-color="#bf73f2"></stop>
    </linearGradient>
    <linearGradient id="r" x1="120.288" x2="34.512" y1="-1576.84" y2="2413.47" gradientUnits="userSpaceOnUse">
      <stop stop-color="#faa7b5"></stop>
      <stop offset=".384" stop-color="#faa100"></stop>
      <stop offset=".732" stop-color="#bf73f2"></stop>
    </linearGradient>
    <linearGradient id="s" x1="234.241" x2="21.775" y1="-210.918" y2="139.672" gradientUnits="userSpaceOnUse">
      <stop stop-color="#faa7b5"></stop>
      <stop offset=".384" stop-color="#faa100"></stop>
      <stop offset=".732" stop-color="#bf73f2"></stop>
    </linearGradient>
    <radialGradient id="k" cx="0" cy="0" r="1" gradientTransform="matrix(-323.87065 -363.95182 175.59503 -156.25715 -228.55 -85.619)" gradientUnits="userSpaceOnUse">
      <stop offset=".009" stop-color="#ffffff"></stop>
      <stop offset="1" stop-color="#ffffff" stop-opacity="0"></stop>
    </radialGradient>
    <radialGradient id="l" cx="0" cy="0" r="1" gradientTransform="matrix(-529.057 0 0 -529.058 -334.016 297.871)" gradientUnits="userSpaceOnUse">
      <stop offset=".009" stop-color="#ffffff"></stop>
      <stop offset="1" stop-color="#ffffff" stop-opacity="0"></stop>
    </radialGradient>
    <radialGradient id="m" cx="0" cy="0" r="1" gradientTransform="matrix(-529.078 0 0 -529.077 -171.14 376.417)" gradientUnits="userSpaceOnUse">
      <stop offset=".009" stop-color="#ffffff"></stop>
      <stop offset="1" stop-color="#ffffff" stop-opacity="0"></stop>
    </radialGradient>
  </defs>
</svg>