<?xml version="1.0" encoding="UTF-8"?>
<svg id="Layer_1" xmlns="http://www.w3.org/2000/svg" version="1.1" viewBox="0 0 512 512">
  <!-- Generator: Adobe Illustrator 29.6.1, SVG Export Plug-In . SVG Version: 2.1.1 Build 9)  -->
  <defs>
    <style>
      .st0 {
        fill: #fc0;
      }

      .st1 {
        fill: red;
      }

      .st1, .st2 {
        fill-rule: evenodd;
      }

      .st2 {
        fill: #fff;
      }
    </style>
  </defs>
  <polygon class="st0" points="381.9 484.1 0 484.1 0 27.9 380.6 27.9 512 256 381.9 484.1"/>
  <path class="st2" d="M355.7,191.3c-18.4,0-33.3,14.9-33.3,33.3s2.1,13.3,5.7,18.6l-53.3,51.7c2.9,2.7,5.5,5.6,7.9,8.7l53.5-52c5.5,3.9,12.2,6.3,19.4,6.3,18.4,0,33.3-14.9,33.3-33.3s-14.9-33.3-33.3-33.3"/>
  <path class="st2" d="M179.5,204.2l21.2,78.3c3.6-1.6,7.3-2.8,11.2-3.8l-21.1-77.6c17.8-7.2,30.4-24.7,30.4-45.1s-21.8-48.6-48.6-48.6-48.6,21.8-48.6,48.6,21.8,48.6,48.6,48.6c2.3,0,4.7-.2,6.9-.5"/>
  <path class="st2" d="M181.9,294.9l-53.3-51.7c3.6-5.3,5.7-11.7,5.7-18.6,0-18.4-14.9-33.3-33.3-33.3s-33.3,14.9-33.3,33.3,14.9,33.3,33.3,33.3,14-2.3,19.4-6.3l53.5,52c2.4-3.1,5-6,7.9-8.7"/>
  <path class="st1" d="M284.2,204.7c26.9,0,48.6-21.8,48.6-48.6s-21.8-48.6-48.6-48.6-48.6,21.8-48.6,48.6,12.6,37.9,30.4,45.1l-20.2,74.6c-5.6-1.4-11.3-2.2-17.3-2.2-39.5,0-71.5,32-71.5,71.5s32,71.5,71.5,71.5,71.5-32,71.5-71.5-17.7-54.6-43-65.6l20.4-75.3c2.3.3,4.6.5,6.9.5"/>
</svg>