<?xml version="1.0" encoding="UTF-8"?>
<svg xmlns="http://www.w3.org/2000/svg" width="600" height="300" viewBox="0 0 600 300" fill="none">
  <g clip-path="url(#clip0_101_450)">
    <path d="M23.0658 150.282H-0.699951V203.199H23.0658V150.282Z" fill="#ED0400"></path>
    <path d="M62.8705 123.355H39.1047V203.199H62.8705V123.355Z" fill="#ED0400"></path>
    <path d="M103.261 97.5996H79.4949V203.199H103.261V97.5996Z" fill="#ED0400"></path>
    <path d="M288.703 132.136C282.967 127.453 276.177 125.112 268.684 125.229C262.245 125.229 255.806 125.229 249.367 125.229C248.196 125.229 247.026 125.229 245.738 125.229C245.738 142.556 245.738 159.297 245.738 176.741C253.113 176.741 260.138 176.624 267.162 176.741C272.079 176.858 276.645 175.804 281.211 174.165C287.416 171.941 291.747 167.726 294.323 161.99C297.484 154.848 297.484 147.238 294.323 140.097C293.152 137.17 291.162 134.126 288.703 132.136ZM282.382 163.629C279.338 166.79 275.474 168.312 271.026 168.429C266.108 168.546 261.191 168.429 255.923 168.429C255.923 156.604 255.923 145.131 255.923 133.424C261.66 133.424 267.279 133.073 272.899 133.541C280.977 134.243 287.064 141.736 287.299 150.048C287.416 155.316 286.011 159.882 282.382 163.629Z" fill="#4D4D4D"></path>
    <path d="M384.235 158.595C384.235 158.712 384.118 158.829 384.001 158.946C383.884 158.946 383.767 158.946 383.415 158.946C374.167 147.707 364.918 136.351 355.786 125.229C352.977 125.229 350.752 125.229 348.411 125.229C348.411 142.322 348.411 159.298 348.411 176.507C350.752 176.507 352.859 176.507 354.967 176.507C355.669 176.507 356.84 176.507 357.894 176.507C357.894 172.41 357.894 168.546 357.894 164.8C357.894 161.171 357.776 157.425 357.894 153.795C357.894 149.229 357.894 147.356 357.894 142.088C367.494 153.795 376.625 165.034 385.757 176.273C388.567 176.273 391.025 176.273 393.367 176.273C393.367 159.064 393.367 142.088 393.367 125.229C390.323 125.229 387.396 125.229 384.352 125.229C384.235 136.586 384.235 147.59 384.235 158.595Z" fill="#4D4D4D"></path>
    <path d="M144.119 154.614C145.524 154.614 146.694 154.614 147.865 154.614C153.719 154.614 168.821 154.614 168.821 154.614C168.821 154.614 168.821 154.614 168.821 153.209C168.821 151.453 168.821 149.58 168.821 147.824C168.821 146.419 168.821 146.419 168.821 146.419C168.821 146.419 153.25 146.419 147.046 146.419C145.992 146.419 147.046 146.419 144.002 146.419C144.002 142.087 144.002 137.638 144.119 133.307C153.602 133.307 162.616 133.307 171.631 133.307C171.631 130.497 171.631 127.921 171.631 125.346C159.104 125.346 146.811 125.346 134.285 125.346C134.285 142.672 134.285 159.648 134.285 176.506C147.28 176.506 159.924 176.506 172.567 176.506C172.567 173.697 172.567 171.238 172.567 168.428C162.968 168.428 153.719 168.428 144.236 168.428C144.119 163.746 144.119 159.297 144.119 154.614Z" fill="#4D4D4D"></path>
    <path d="M313.523 154.614C314.928 154.614 316.099 154.614 317.269 154.614C323.123 154.614 338.225 154.614 338.225 154.614C338.225 154.614 338.225 154.614 338.225 153.209C338.225 151.453 338.225 149.58 338.225 147.824C338.225 146.419 338.225 146.419 338.225 146.419C338.225 146.419 322.655 146.419 316.45 146.419C315.396 146.419 316.45 146.419 313.406 146.419C313.406 142.087 313.406 137.638 313.523 133.307C323.006 133.307 332.02 133.307 341.035 133.307C341.035 130.497 341.035 127.921 341.035 125.346C328.508 125.346 316.216 125.346 303.689 125.346C303.689 142.672 303.689 159.648 303.689 176.506C316.684 176.506 329.328 176.506 341.972 176.506C341.972 173.697 341.972 171.238 341.972 168.428C332.372 168.428 323.123 168.428 313.64 168.428C313.523 163.746 313.523 159.297 313.523 154.614Z" fill="#4D4D4D"></path>
    <path d="M198.792 165.151C192.821 151.453 187.201 138.341 181.582 125.463C178.538 125.463 175.611 125.463 172.567 125.463C172.567 126.985 172.567 129.677 172.567 129.677C172.567 129.677 180.528 146.302 184.275 154.731C185.68 158.009 187.084 161.287 188.489 164.565C190.245 168.663 192.119 172.643 193.875 176.624C197.27 176.624 200.079 176.624 203.24 176.624C210.616 159.648 217.992 142.79 225.601 125.463C222.44 125.463 219.514 125.463 216.118 125.463C210.382 138.575 204.762 151.57 198.792 165.151Z" fill="#4D4D4D"></path>
    <path d="M495.454 150.399C490.303 141.853 485.152 133.541 480.235 125.463C476.605 125.463 473.444 125.463 470.166 125.463C477.074 136.702 483.747 147.824 490.654 159.18C490.654 165.033 490.654 170.77 490.654 176.506C493.815 176.506 496.625 176.506 499.552 176.506C499.552 170.536 499.552 164.682 499.552 158.946C506.225 147.824 512.898 136.702 519.805 125.346C516.761 125.346 514.069 125.346 510.673 125.346C505.873 133.307 500.722 141.619 495.454 150.399Z" fill="#4D4D4D"></path>
    <path d="M440.547 125.346H438.088C424.04 125.346 410.342 125.346 396.528 125.346C396.528 127.453 396.528 129.443 396.528 131.199V132.019V133.424H398.986C398.986 133.424 398.986 133.424 399.103 133.424C399.337 133.424 399.689 133.424 399.923 133.424C404.489 133.424 409.054 133.424 413.971 133.424C413.971 138.458 413.971 143.258 413.971 147.941C413.971 152.858 413.971 157.775 413.971 162.692C414.088 167.375 413.62 172.058 414.206 176.741C417.249 176.741 419.942 176.741 423.337 176.741C423.337 162.107 423.337 147.941 423.337 133.541C428.488 133.541 433.288 133.541 438.205 133.541H439.61H440.781L440.547 125.346Z" fill="#4D4D4D"></path>
    <path d="M452.605 154.029C452.605 149.112 452.605 144.195 452.605 139.278C452.605 134.712 452.605 129.912 452.605 125.229C449.561 125.229 446.518 125.229 443.591 125.229C443.591 142.556 443.591 159.532 443.591 176.507C455.649 176.507 467.356 176.507 479.181 176.507C479.181 173.815 479.181 171.239 479.181 168.429C470.283 168.429 461.62 168.429 452.605 168.429C452.605 163.512 452.605 158.712 452.605 154.029Z" fill="#4D4D4D"></path>
    <path d="M590.4 125.346C590.4 142.672 590.4 159.648 590.4 176.506C593.795 176.506 596.956 176.506 600 176.506C600 159.297 600 142.321 600 125.346C596.722 125.346 593.678 125.346 590.4 125.346Z" fill="#ED0400"></path>
    <path d="M236.723 125.463H227.006V176.741H236.723V125.463Z" fill="#4D4D4D"></path>
    <path d="M555.98 125.229C555.98 125.229 532.332 176.624 532.566 176.741H541.815L546.849 165.151H572.488L578.458 176.741H588.175L564.644 125.229H555.98ZM549.541 157.307L559.141 135.064L568.858 157.307H549.541Z" fill="#ED0400"></path>
  </g>
  <defs>
    <clipPath id="clip0_101_450">
      <rect width="600" height="300" fill="white"></rect>
    </clipPath>
  </defs>
</svg>
