<svg width="25" height="25" viewBox="0 0 25 25" fill="none" xmlns="http://www.w3.org/2000/svg">
<path d="M15.2961 11.9922L6.64844 10.4688V21.7258C6.64833 21.8481 6.67238 21.9693 6.7192 22.0823C6.76603 22.1954 6.8347 22.2981 6.92129 22.3845C7.00788 22.4709 7.11068 22.5395 7.22379 22.5861C7.33691 22.6327 7.45812 22.6566 7.58047 22.6562H22.5023C22.6248 22.6568 22.7462 22.6331 22.8595 22.5865C22.9728 22.54 23.0758 22.4715 23.1625 22.3851C23.2493 22.2986 23.3181 22.1958 23.365 22.0827C23.4119 21.9696 23.436 21.8483 23.4359 21.7258V17.5781L15.2961 11.9922Z" fill="#185C37"/>
<path d="M15.2961 2.34375H7.58047C7.45812 2.34344 7.33691 2.36729 7.22379 2.41392C7.11068 2.46055 7.00788 2.52905 6.92129 2.6155C6.8347 2.70194 6.76603 2.80463 6.7192 2.91766C6.67238 3.0307 6.64833 3.15187 6.64844 3.27422V7.42188L15.2961 12.5L19.875 14.0234L23.4359 12.5V7.42188L15.2961 2.34375Z" fill="#21A366"/>
<path d="M6.64844 7.42188H15.2961V12.5H6.64844V7.42188Z" fill="#107C41"/>
<path opacity="0.1" d="M12.8375 6.40625H6.64844V19.1016H12.8375C13.0841 19.1003 13.3203 19.002 13.4949 18.8278C13.6695 18.6537 13.7685 18.4177 13.7703 18.1711V7.33672C13.7685 7.09011 13.6695 6.85416 13.4949 6.67999C13.3203 6.50583 13.0841 6.40748 12.8375 6.40625Z" fill="black"/>
<path opacity="0.2" d="M12.3289 6.91406H6.64844V19.6094H12.3289C12.5755 19.6081 12.8117 19.5098 12.9863 19.3356C13.1609 19.1615 13.2599 18.9255 13.2617 18.6789V7.84453C13.2599 7.59792 13.1609 7.36197 12.9863 7.18781C12.8117 7.01364 12.5755 6.91529 12.3289 6.91406Z" fill="black"/>
<path opacity="0.2" d="M12.3289 6.91406H6.64844V18.5937H12.3289C12.5755 18.5925 12.8117 18.4942 12.9863 18.32C13.1609 18.1458 13.2599 17.9099 13.2617 17.6633V7.84453C13.2599 7.59792 13.1609 7.36197 12.9863 7.18781C12.8117 7.01364 12.5755 6.91529 12.3289 6.91406Z" fill="black"/>
<path opacity="0.2" d="M11.8203 6.91406H6.64844V18.5937H11.8203C12.0669 18.5925 12.3031 18.4942 12.4777 18.32C12.6523 18.1458 12.7513 17.9099 12.7531 17.6633V7.84453C12.7513 7.59792 12.6523 7.36197 12.4777 7.18781C12.3031 7.01364 12.0669 6.91529 11.8203 6.91406Z" fill="black"/>
<path d="M2.49531 6.91407H11.8219C12.0689 6.91386 12.306 7.01175 12.4809 7.18622C12.6558 7.3607 12.7543 7.59748 12.7547 7.84454V17.1555C12.7543 17.4025 12.6558 17.6393 12.4809 17.8138C12.306 17.9883 12.0689 18.0861 11.8219 18.0859H2.49531C2.3729 18.0864 2.2516 18.0626 2.1384 18.016C2.02519 17.9694 1.9223 17.9009 1.83563 17.8145C1.74896 17.728 1.68021 17.6253 1.63334 17.5122C1.58647 17.3991 1.5624 17.2779 1.5625 17.1555V7.84454C1.5624 7.72212 1.58647 7.60089 1.63334 7.4878C1.68021 7.37471 1.74896 7.27199 1.83563 7.18553C1.9223 7.09908 2.02519 7.0306 2.1384 6.98401C2.2516 6.93743 2.3729 6.91366 2.49531 6.91407Z" fill="url(#paint0_linear_1741_11658)"/>
<path d="M4.45312 15.5262L6.41484 12.4918L4.61797 9.47461H6.06094L7.04141 11.4066C7.13203 11.5895 7.19766 11.7254 7.22734 11.816H7.24062C7.30469 11.6697 7.3724 11.5275 7.44375 11.3895L8.49219 9.47773H9.82031L7.97734 12.4777L9.86719 15.5285H8.45391L7.32109 13.4105C7.26865 13.3194 7.22396 13.224 7.1875 13.1254H7.16875C7.13564 13.2215 7.0916 13.3135 7.0375 13.3996L5.87109 15.5262H4.45312Z" fill="white"/>
<path d="M22.5039 2.34376H15.2969V7.42188H23.4367V3.27422C23.4368 3.15181 23.4127 3.03057 23.3659 2.91748C23.319 2.8044 23.2503 2.70168 23.1636 2.61522C23.0769 2.52877 22.974 2.46028 22.8608 2.4137C22.7476 2.36711 22.6263 2.34334 22.5039 2.34376Z" fill="#33C481"/>
<path d="M15.2969 12.5H23.4367V17.5781H15.2969V12.5Z" fill="#107C41"/>
<defs>
<linearGradient id="paint0_linear_1741_11658" x1="3.51094" y1="6.18282" x2="10.8062" y2="18.8172" gradientUnits="userSpaceOnUse">
<stop stop-color="#18884F"/>
<stop offset="0.5" stop-color="#117E43"/>
<stop offset="1" stop-color="#0B6631"/>
</linearGradient>
</defs>
</svg>
