<svg xmlns="http://www.w3.org/2000/svg" fill="none" viewBox="0 0 24 24" id="Gin--Streamline-Svg-Logos" height="24" width="24">
  <desc>
    Gin Streamline Icon: https://streamlinehq.com
  </desc>
  <path fill="#f3d71d" d="M11.86185 23.735775c-1.947775 -0.08335 -3.301975 -0.342375 -4.38275 -0.8383 -0.15775 -0.072375 -0.134075 -0.023925 -0.304225 -0.6228 -0.296325 -1.043 -0.52155 -1.988 -0.76285 -3.20065 -0.1223 -0.61475 -0.179575 -0.871725 -0.46205 -2.072975 -0.50685 -2.155575 -0.699375 -3.1467 -0.810125 -4.17105 -0.02805 -0.259425 0.02245 -0.61415 0.1018 -0.715025 0.04695 -0.0597 0.047925 -0.21215 0.0014 -0.224325 -0.02715 -0.0071 -0.033875 -0.03 -0.0438 -0.149175 -0.00825 -0.098925 -0.021075 -0.152675 -0.043175 -0.18075 -0.0213 -0.0271 -0.031425 -0.067075 -0.031425 -0.124125 0 -0.046275 -0.007525 -0.088775 -0.016725 -0.094475 -0.010025 -0.0062 -0.0167 -0.11965 -0.0167 -0.2842 0 -0.164525 -0.006675 -0.277975 -0.016725 -0.284175 -0.0092 -0.0057 -0.016725 0.0047 -0.016725 0.0231 0 0.20605 -0.148075 -0.16925 -0.2344 -0.5941 -0.22155 -1.090275 -0.585125 -2.1737 -0.5015 -1.4943 0.029425 0.239 0.08365 0.474 0.23935 1.03715 0.182875 0.6616 0.2662 1.130025 0.229 1.2876 -0.05315 0.22515 -0.396625 -1.12705 -0.594575 -2.3408 -0.05025 -0.308025 -0.125675 -0.770675 -0.167625 -1.028125 -0.09375 -0.575275 -0.180975 -1.007275 -0.300125 -1.4867 -0.11925 -0.4799 -0.1159 -0.55775 0.032325 -0.7465 0.305525 -0.389075 1.20205 -0.69155 1.29895 -0.43825 0.066425 0.173625 -0.12935 0.293875 -0.661725 0.406525 -0.46145 0.097625 -0.504125 0.167425 -0.253625 0.4148 0.250425 0.247325 1.702975 0.468375 3.4216 0.5207 3.04385 0.092675 4.97355 0.117075 5.5168 0.06975 0.133325 -0.0116 0.322875 -0.0255 0.421225 -0.03085 0.17885 -0.00975 0.17885 -0.00975 0.1707 -0.0534 -0.00615 -0.03305 0.0081 -0.063925 0.058725 -0.127225 0.036775 -0.045975 0.09165 -0.11745 0.121975 -0.158825 0.103125 -0.14075 0.2763 -0.194375 0.348125 -0.10785 0.089875 0.1083 0.0105 0.3589 -0.13795 0.435675 -0.068575 0.03545 -0.048875 0.046375 0.109375 0.06065 0.0751 0.006775 0.17965 0.016875 0.232325 0.022425 0.1593 0.0168 0.280775 -0.04075 0.21385 -0.101325 -0.14745 -0.13345 0.13 -0.4026 0.5597 -0.542975 0.064375 -0.021025 0.124175 -0.0448 0.1329 -0.052875 0.00875 -0.00805 0.0278 -0.01465 0.042375 -0.01465 0.0548 0 0.21165 -0.12155 0.386025 -0.2992 0.09925 -0.101075 0.2107 -0.2029 0.2477 -0.22625 0.036975 -0.02335 0.07535 -0.0576 0.085275 -0.076125 0.03005 -0.056175 -0.028525 -0.04105 -0.1587 0.041 -0.06435 0.040575 -0.154625 0.09675 -0.2006 0.12485 -0.09545 0.058325 -0.30785 0.19915 -0.512175 0.3396 -0.0769 0.05285 -0.158625 0.108825 -0.181625 0.1244 -0.022975 0.015575 -0.05545 0.039775 -0.072125 0.05375 -0.036975 0.031 -0.208525 0.03845 -0.304 0.0132 -0.247925 -0.065575 -0.26575 -0.283225 -0.05415 -0.6612 0.09265 -0.165475 0.347925 -0.50395 0.3801 -0.50395 0.008 0 0.035725 -0.0314 0.061625 -0.0698 0.04685 -0.069475 0.07655 -0.091925 0.2257 -0.1706 0.107275 -0.056575 0.16995 -0.06275 0.186975 -0.01835 0.010125 0.02635 -0.06505 0.191825 -0.14975 0.329575 -0.177525 0.288775 -0.193025 0.31815 -0.176425 0.334725 0.0237 0.0237 0.204425 -0.08475 0.231225 -0.138725 0.011225 -0.022625 0.04125 -0.08605 0.066725 -0.140975 0.172425 -0.371575 0.5851 -0.408175 0.838925 -0.0744 0.0671 0.088225 0.085775 0.098225 0.08615 0.046075 0.00115 -0.16315 0.228325 -0.297 0.505425 -0.297825 0.114875 -0.00035 0.122425 -0.01915 0.02295 -0.05715 -0.135975 -0.051925 -0.143775 -0.0779 -0.054125 -0.18035 0.12425 -0.142075 0.0653 -0.169675 -0.170775 -0.079975 -0.227775 0.08655 -0.449175 0.1334 -0.6006 0.1271 -0.080375 -0.00335 -0.164225 0.000675 -0.1863 0.00895 -0.022075 0.008275 -0.08105 0.018525 -0.13105 0.022775 -0.049975 0.00425 -0.096975 0.0115 -0.1044 0.0161 -0.007425 0.004575 -0.050025 0.00335 -0.09465 -0.002725 -0.248125 -0.033875 -0.225075 -0.249 0.085625 -0.799575 0.0415 -0.07355 0.0988 -0.182625 0.1273 -0.2424 0.0285 -0.059775 0.14435 -0.296725 0.257425 -0.5266 0.113075 -0.229875 0.23665 -0.4856475 0.274625 -0.5684 0.037975 -0.08275 0.087675 -0.186195 0.11045 -0.229875 0.022775 -0.04368 0.041425 -0.0869725 0.041425 -0.0962075 0 -0.009235 0.01925 -0.05625 0.0428 -0.104475 0.151975 -0.3112975 0.39435 -1.0797225 0.364825 -1.156675 -0.006 -0.0156125 -0.000975 -0.0260125 0.01255 -0.0260125 0.0124 0 0.060225 -0.02508 0.106275 -0.05573 0.04605 -0.0306525 0.104225 -0.06831 0.129275 -0.0836875 0.03735 -0.022935 0.043825 -0.036455 0.036075 -0.0752725 -0.043125 -0.2156165 0.355025 -0.077795 0.850425 0.29438 0.72875 0.5474625 1.37565 1.4725675 1.916175 2.740255 0.4804 1.12665 0.606525 3.037375 0.295025 4.468925 -0.2184 1.003625 -0.36705 2.54385 -0.526775 5.458275 -0.1017 1.855575 -0.159825 2.692925 -0.2437 3.5107 -0.022625 0.220675 -0.05225 0.551675 -0.0658 0.735575 -0.0681 0.923275 -0.170675 1.7805 -0.34515 2.883775 -0.05965 0.377175 -0.068 0.4658 -0.072575 0.769025 -0.01715 1.1432 -0.436225 1.792375 -1.230925 1.906875 -0.077025 0.0111 -0.237875 0.0489 -0.3574 0.083975 -0.9689 0.28445 -2.002525 0.4353 -3.41875 0.4989 -1.1485 0.051575 -1.48065 0.056775 -2.05625 0.03215Zm-3.94545 -1.7291c-0.206225 -0.840925 -0.326875 -1.24015 -0.47195 -1.561825 -0.1553 -0.3443 -0.190575 -0.3899 -0.1714 -0.2215 0.088175 0.7741 0.30065 1.492 0.6465 2.184275 0.182375 0.365025 0.1823 0.355175 -0.00315 -0.40095Zm-0.361525 0.557125c0.0602 -0.2246 -0.036075 -0.697025 -0.316375 -1.55265 -0.159875 -0.488025 -0.2777 -0.912475 -0.299875 -1.08035 -0.01455 -0.11 -0.029675 -0.1193 -0.09225 -0.056725 -0.100375 0.100375 -0.070025 0.308075 0.15605 1.0679 0.060825 0.20445 0.1192 0.43765 0.129725 0.51825 0.06185 0.47355 0.373525 1.2872 0.422725 1.103575Zm5.668575 -2.489625c0.30505 -0.20205 0.265025 -0.790975 -0.066525 -0.97875 -0.29845 -0.16905 -0.45875 0.199325 -0.332025 0.76305 0.05685 0.252875 0.214025 0.337925 0.39855 0.2157Zm-0.899175 -0.044525c0.227475 -0.11665 0.303025 -0.505825 0.160475 -0.826775 -0.1405 -0.3164 -0.4224 -0.15605 -0.473175 0.2692 -0.00735 0.0615 -0.0247 0.18405 -0.03855 0.27235 -0.049675 0.316425 0.081925 0.4233 0.35125 0.285225Zm-5.5352 -0.581875c0.036475 -0.29185 -0.039175 -0.713575 -0.28385 -1.582675 -0.0694 -0.246525 -0.14945 -0.56625 -0.17785 -0.7105 -0.092875 -0.471575 -0.233475 -0.7014 -0.165575 -0.270575 0.032975 0.2091 0.219075 1.1634 0.2592 1.329025 0.02225 0.09195 0.059875 0.3239 0.0836 0.515425 0.059025 0.47695 0.110825 0.665925 0.212675 0.776025 0.0505 0.054575 0.0587 0.048075 0.0718 -0.056725Zm3.86905 -1.613075c1.273475 -0.291825 1.6841 -1.884275 0.678975 -2.633125 -0.6481 -0.482825 -1.05395 -0.517925 -2.066475 -0.17865 -0.2069 0.069325 -0.393125 0.136725 -0.4139 0.1498 -0.073775 0.046425 -0.187925 0.21105 -0.187925 0.27105 -0.000025 0.0308 -0.02955 0.12925 -0.06565 0.218775 -0.4783 1.186375 0.739475 2.473575 2.054975 2.17215Zm-1.6132 -0.91135c-0.50095 -0.074825 -0.608925 -0.50135 -0.225475 -0.8908 0.27855 -0.2829 0.602875 -0.307375 0.840975 -0.0635 0.47115 0.482575 0.098175 1.060875 -0.6155 0.9543Zm6.35155 0.676875c0.874725 -0.146925 1.4232 -1.15255 1.0625 -1.948075 -0.844625 -1.86275 -3.87795 -0.967925 -3.212725 0.94775 0.284425 0.819025 1.065725 1.1825 2.150225 1.000325Zm-1.70405 -0.773075c-0.389925 -0.096 -0.5164 -0.452325 -0.30745 -0.866225 0.2612 -0.51745 0.820125 -0.51135 1.09585 0.011975 0.16655 0.316075 0.1288 0.421425 -0.141275 0.3942 -0.2429 -0.0245 -0.3226 0.010225 -0.20385 0.0888 0.086525 0.057275 0.197175 0.156925 0.218525 0.1968 0.0667 0.124625 -0.38285 0.243125 -0.6618 0.17445ZM9.58185 9.915575c0.0654 -0.0095 0.111775 -0.032 0.19665 -0.095375 0.0611 -0.045625 0.158 -0.1174 0.21535 -0.159475 0.5171 -0.3795 0.683425 -0.5125 0.8733 -0.69825 0.06435 -0.062975 0.252425 -0.232625 0.417925 -0.377025 0.1655 -0.144375 0.3318 -0.29035 0.36955 -0.324375 0.037775 -0.034 0.105475 -0.094425 0.150475 -0.134275 0.141175 -0.12495 0.391175 -0.353475 0.58335 -0.533225 0.225575 -0.210975 0.71315 -0.70415 0.7098 -0.717875 -0.008125 -0.032825 -0.15195 -0.060275 -0.3253 -0.0621 -0.179975 -0.0019 -0.183875 -0.00275 -0.182525 -0.039925 0.001825 -0.05045 0.003925 -0.050175 -0.486175 -0.0615 -3.9206 -0.090525 -6.54765 -0.2257 -7.967525 -0.41 -0.165375 -0.021475 -0.1823 -0.02095 -0.1823 0.005625 0 0.046475 0.13535 0.17505 0.24235 0.2302 0.134625 0.0694 0.13665 0.0998 0.008225 0.123225 -0.1377 0.025075 -0.13355 0.008825 -0.0795 0.31135 0.216875 1.213625 0.535725 1.48835 1.2088 1.041575 0.387125 -0.25695 2.867675 -0.523075 4.5047 -0.4833 0.281 0.006825 0.47475 0.0039 0.5684 -0.008575 0.078175 -0.0104 0.184975 -0.02285 0.237375 -0.027675 0.0524 -0.0048 0.1041 -0.019375 0.1149 -0.032375 0.0108 -0.013 0.0483 -0.02365 0.08335 -0.02365 0.03505 0 0.084925 -0.0087 0.1108 -0.019325 0.1772 -0.0728 1.526575 -0.10075 1.526575 -0.031625 0 0.012125 -0.06945 0.078325 -0.2305 0.2197 -0.03765 0.03305 -0.2325 0.183425 -0.43305 0.3342 -0.304075 0.2286 -0.507175 0.3864 -0.59865 0.46515 -0.009175 0.007925 -0.109725 0.1134 -0.223425 0.2344 -0.467575 0.497625 -0.95585 0.840075 -1.3755 0.9647 -0.058675 0.017425 -0.08245 0.034525 -0.095875 0.06895 -0.0226 0.058025 -0.095525 0.1878 -0.118375 0.21065 -0.03805 0.03805 -0.01945 0.06505 0.03695 0.053625 0.029875 -0.00605 0.092825 -0.0166 0.139875 -0.023425Zm0.800475 -0.15325c0.0063 -0.010175 0.13305 -0.016725 0.324375 -0.016725 0.370575 0 0.670325 -0.016075 0.670325 -0.035975 0 -0.0078 -0.01075 -0.014175 -0.023875 -0.014175 -0.0712 0 -0.09345 -0.083125 -0.0485 -0.181375 0.055725 -0.121875 0.107725 -0.18045 0.677225 -0.763175 0.224675 -0.22985 0.4389 -0.45555 0.47605 -0.501525 0.32155 -0.397725 0.58085 -0.776225 0.551725 -0.80535 -0.01255 -0.012575 -0.25935 0.2184 -0.29705 0.278 -0.014825 0.0234 -0.086275 0.10125 -0.158825 0.173 -0.142225 0.140675 -0.150475 0.14985 -0.4171 0.463025 -0.09785 0.114925 -0.1992 0.231525 -0.22525 0.259125 -0.026075 0.027575 -0.08455 0.091525 -0.129975 0.1421 -0.14945 0.166375 -0.423825 0.432075 -0.546525 0.529225 -0.2756 0.2182 -0.701325 0.43325 -0.835875 0.422225 -0.0454 -0.003725 -0.1421 0.01955 -0.1421 0.034175 0 0.035275 0.105325 0.0499 0.125375 0.017425Zm3.83455 -0.065775c0.0213 -0.03205 0.03925 -0.03455 0.250775 -0.034775 0.31045 -0.00035 0.476575 -0.06495 0.361275 -0.1405 -0.0235 -0.0154 -0.041575 -0.04335 -0.041675 -0.064425 -0.000575 -0.12955 -0.096275 -0.236525 -0.149225 -0.1668 -0.154025 0.202775 -0.182775 0.23275 -0.2604 0.27165 -0.504125 0.252725 -0.803525 -0.32835 -0.551475 -1.0703 0.217375 -0.639875 0.234775 -0.697775 0.286175 -0.952525 0.024875 -0.123375 0.001825 -0.365975 -0.0354 -0.37225 -0.078525 -0.013275 -0.441225 1.13505 -0.5928 1.87685 -0.06525 0.3194 -0.066625 0.32275 -0.154675 0.378525 -0.309275 0.19585 -0.43335 0.10535 -0.335625 -0.2448 0.030575 -0.109575 0.128575 -0.381025 0.17345 -0.48045 0.017575 -0.038975 0.031975 -0.075125 0.031975 -0.080325 0 -0.0052 0.01545 -0.044775 0.03435 -0.08795 0.22 -0.50275 0.271775 -0.685975 0.1997 -0.706725 -0.20785 -0.0599 -0.493475 0.09975 -0.618175 0.345525 -0.013575 0.026775 -0.04165 0.076525 -0.0624 0.11055 -0.047175 0.077475 -0.129325 0.2297 -0.2688 0.49815 -0.190075 0.365875 -0.231975 0.43565 -0.3601 0.5997 -0.13585 0.1739 -0.277125 0.25895 -0.5044 0.303625 -0.16245 0.03195 -0.159775 0.0402 0.016725 0.051625 0.458425 0.0297 2.556725 0.00175 2.580725 -0.034375Zm-1.8835 -0.085475c-0.0716 -0.028725 -0.108325 -0.178225 -0.0684 -0.27845 0.078825 -0.197975 0.18475 -0.36275 0.551275 -0.85755 0.078325 -0.10575 0.17095 -0.235525 0.205825 -0.288375 0.18595 -0.281925 0.213775 0.21635 0.03525 0.631075 -0.19075 0.443125 -0.504 0.821425 -0.6705 0.80975 -0.0083 -0.000575 -0.03235 -0.008 -0.05345 -0.01645Zm4.439925 -0.0674c0.0931 -0.01035 0.173575 -0.02815 0.188725 -0.0418 0.018225 -0.0164 0.068325 -0.02375 0.162 -0.02375 0.0746 0 0.140275 -0.007525 0.14595 -0.016725 0.005675 -0.0092 0.02405 -0.0167 0.040825 -0.0167 0.027925 0 0.060575 -0.063 0.0422 -0.081375 -0.004175 -0.004175 -0.047125 0.001225 -0.09545 0.012025 -0.085475 0.019075 -0.158825 0.030375 -0.313575 0.048325 -0.20535 0.023825 -0.777825 0.00785 -0.935425 -0.026125 -0.055325 -0.0119 -0.058525 -0.016725 -0.0762 -0.114425 -0.031875 -0.1763 -0.125275 -0.2591 -0.2449 -0.21715 -0.118275 0.041475 -0.12495 0.063225 -0.03095 0.100825 0.06825 0.027325 0.133975 0.081325 0.133975 0.110125 0 0.0306 -0.10385 0.134325 -0.1345 0.134325 -0.016875 0 -0.0349 0.0068 -0.040025 0.015075 -0.011325 0.018325 -0.207875 0.07925 -0.3061 0.0949 -0.1847 0.029425 -0.0168 0.040475 0.615025 0.040475 0.379275 0 0.758675 -0.00805 0.848425 -0.018025Zm1.086425 -0.9091c0.090075 -0.0153 0.187625 -0.1017 0.187625 -0.166175 0 -0.04825 -0.03805 -0.07375 -0.071275 -0.047775 -0.020675 0.016175 -0.14885 0.04995 -0.1962 0.051725 -0.0138 0.0005 -0.056825 0.00605 -0.0956 0.012325 -0.25645 0.041375 -0.96975 -0.1847 -1.30335 -0.413125 -0.038425 -0.026325 -0.07425 -0.04785 -0.079575 -0.04785 -0.0156 0 -0.180675 -0.117325 -0.23085 -0.16405 -0.172925 -0.16105 0.15035 -0.176625 0.572575 -0.027575 0.26695 0.094225 0.30205 0.10785 0.373775 0.144875 0.1106 0.057125 0.123475 0.062675 0.241425 0.1044 0.271575 0.09605 0.294125 0.0731 0.078575 -0.080025 -0.321025 -0.22805 -0.662575 -0.36935 -0.790675 -0.327075 -0.138825 0.045825 -0.456025 -0.0369 -0.755675 -0.1971 -0.53675 -0.28695 -0.739775 -0.338975 -0.5567 -0.142675 0.2453 0.26305 0.563475 0.556525 0.76405 0.704825 0.124675 0.092175 0.294825 0.2084 0.327575 0.2238 0.0138 0.0065 0.05895 0.03145 0.100325 0.0555 0.096425 0.05605 0.415675 0.199475 0.497325 0.22345 0.159575 0.046875 0.2393 0.0657 0.32315 0.07635 0.04985 0.006325 0.099825 0.01635 0.1111 0.022275 0.026875 0.01415 0.410625 0.0095 0.5024 -0.0061Zm-1.96895 -2.4611c0.041375 -0.003525 0.109075 -0.0098 0.15045 -0.014 0.08045 -0.008125 0.328675 -0.058325 0.493175 -0.099725 0.055175 -0.0139 0.29215 -0.051475 0.5266 -0.08355 0.866825 -0.1185 1.123325 -0.21515 1.3387 -0.504375 0.09435 -0.126675 0.09475 -0.142925 0.007675 -0.3117 -0.17425 -0.337725 0.00865 -0.441775 0.417325 -0.2374 0.143275 0.07165 0.1421 0.07165 0.1421 0.00085 0 -0.06425 -0.012725 -0.076325 -0.099 -0.094025 -0.46975 -0.096375 -0.686775 -0.45155 -0.440125 -0.720275 0.044325 -0.0483 0.0407 -0.101375 -0.022425 -0.327675 -0.0278 -0.09965 -0.0439 -0.10535 -0.1248 -0.044325 -0.03165 0.0239 -0.09015 0.05775 -0.12995 0.075225 -0.0724 0.03175 -0.0724 0.03175 0.00165 0.1058 0.23605 0.23605 -0.06245 0.528225 -0.5729 0.56075 -0.334375 0.0213 -0.363275 0.0316 -0.212025 0.075575 0.255625 0.0743 0.293825 0.233375 0.08095 0.33685 -0.198275 0.0964 -0.18945 0.103775 0.05705 0.04755 0.395325 -0.090175 0.699375 -0.077025 0.73765 0.0319 0.10545 0.30005 -0.099925 0.60745 -0.513175 0.7681 -0.09885 0.038425 -0.158 0.056425 -0.359425 0.109275 -0.101825 0.026725 -0.39575 0.07165 -0.405425 0.061975 -0.0047 -0.0047 -0.02105 -0.00185 -0.03635 0.00635 -0.0153 0.008175 -0.08765 0.019825 -0.1608 0.025875 -0.42805 0.0354 -0.653825 0.065225 -1.13145 0.149425 -0.2644 0.046625 -0.29715 0.05515 -0.29715 0.07735 0 0.0162 0.328075 0.030775 0.417925 0.01855 0.0322 -0.004375 0.092375 -0.01085 0.13375 -0.01435Zm1.426725 -2.37605c0.0658 -0.0441 0.206225 -0.137425 0.31205 -0.207425 0.33425 -0.221075 0.561775 -0.459275 0.6092 -0.6378 0.01255 -0.047225 0.027725 -0.098125 0.033725 -0.1131 0.0184 -0.045825 -0.04315 -0.211525 -0.0651 -0.175325 -0.101 0.166525 -0.176975 0.2618 -0.3268 0.4098 -0.248625 0.2456 -0.3392 0.330675 -0.3694 0.346975 -0.049725 0.026825 -0.319175 0.331875 -0.34285 0.388175 -0.0467 0.11095 -0.0316 0.109825 0.149175 -0.0113Zm-11.925375 1.236225c0 -0.017075 0.0252 -0.064075 0.056 -0.104475 0.077325 -0.101425 0.111175 -0.171625 0.111175 -0.23045 0 -0.06535 -0.022275 -0.05695 0.3781 -0.142525 0.8958 -0.1914 1.2795 -0.2406 1.965275 -0.252 3.617275 -0.06005 4.679025 -0.09325 5.8287 -0.1822 0.29255 -0.02265 0.292025 -0.0228 0.372375 0.1039 0.173625 0.2738 -0.318025 0.45375 -1.08005 0.395325 -0.07355 -0.005625 -0.42335 -0.012425 -0.77735 -0.0151 -0.643625 -0.004825 -0.643625 -0.004825 -0.99315 -0.0752 -0.5102 -0.10275 -0.6596 -0.0968 -0.8065 0.032175 -0.068875 0.0605 -0.04685 0.060275 -0.211975 0.002075 -0.417475 -0.14715 -0.93395 -0.156175 -1.76655 -0.030825 -0.28045 0.0422 -0.6077 0.08505 -0.727225 0.095175 -0.621025 0.05265 -1.20345 0.160275 -1.950575 0.36045 -0.310625 0.083225 -0.39825 0.092825 -0.39825 0.043675Z" stroke-width="0.25"></path>
  <path fill="#d5ad2d" d="M11.86185 23.73575c-1.947775 -0.08335 -3.301975 -0.342375 -4.38275 -0.8383 -0.15775 -0.072375 -0.134075 -0.023925 -0.304225 -0.6228 -0.296325 -1.043 -0.52155 -1.988 -0.76285 -3.20065 -0.1223 -0.61475 -0.179575 -0.871725 -0.46205 -2.072975 -0.50685 -2.155575 -0.699375 -3.1467 -0.810125 -4.17105 -0.02805 -0.259425 0.02245 -0.61415 0.1018 -0.715025 0.04695 -0.0597 0.047925 -0.21215 0.0014 -0.224325 -0.02715 -0.0071 -0.033875 -0.03 -0.0438 -0.149175 -0.00825 -0.098925 -0.021075 -0.152675 -0.043175 -0.18075 -0.0213 -0.0271 -0.031425 -0.067075 -0.031425 -0.124125 0 -0.046275 -0.007525 -0.088775 -0.016725 -0.094475 -0.010025 -0.0062 -0.0167 -0.11965 -0.0167 -0.2842 0 -0.164525 -0.006675 -0.277975 -0.016725 -0.284175 -0.0092 -0.0057 -0.016725 0.0047 -0.016725 0.0231 0 0.20605 -0.148075 -0.16925 -0.2344 -0.5941 -0.22155 -1.090275 -0.585125 -2.1737 -0.5015 -1.4943 0.029425 0.239 0.08365 0.474 0.23935 1.03715 0.182875 0.6616 0.2662 1.130025 0.229 1.2876 -0.05315 0.22515 -0.396625 -1.12705 -0.594575 -2.3408 -0.05025 -0.308025 -0.125675 -0.770675 -0.167625 -1.028125 -0.09375 -0.575275 -0.180975 -1.007275 -0.300125 -1.4867 -0.11925 -0.4799 -0.1159 -0.55775 0.032325 -0.7465 0.305525 -0.389075 1.20205 -0.69155 1.29895 -0.43825 0.066425 0.173625 -0.12935 0.293875 -0.661725 0.406525 -0.46145 0.097625 -0.504125 0.167425 -0.253625 0.4148 0.250425 0.247325 1.702975 0.468375 3.4216 0.5207 3.04385 0.092675 4.97355 0.117075 5.5168 0.06975 0.133325 -0.0116 0.322875 -0.0255 0.421225 -0.03085 0.17885 -0.00975 0.17885 -0.00975 0.1707 -0.0534 -0.00615 -0.03305 0.0081 -0.063925 0.058725 -0.127225 0.036775 -0.045975 0.09165 -0.11745 0.121975 -0.158825 0.10955 -0.1495 0.28505 -0.19625 0.356075 -0.09485 0.047 0.067125 0.025275 0.0863 -0.02655 0.023425 -0.082275 -0.0998 -0.20695 -0.0598 -0.324775 0.104175 -0.0276 0.0384 -0.0746 0.1001 -0.1045 0.137125 -0.11635 0.1442 -0.0107 0.246325 0.193875 0.1874 0.144525 -0.04165 0.27005 -0.18955 0.27005 -0.318275 0 -0.030575 0.00555 -0.040125 0.016775 -0.0289 0.047625 0.047625 -0.069375 0.2653 -0.170775 0.317725 -0.068575 0.03545 -0.048875 0.046375 0.109375 0.06065 0.0751 0.006775 0.17965 0.016875 0.232325 0.022425 0.1593 0.0168 0.280775 -0.04075 0.21385 -0.101325 -0.14745 -0.13345 0.13 -0.4026 0.5597 -0.542975 0.064375 -0.021025 0.124175 -0.0448 0.1329 -0.052875 0.00875 -0.00805 0.0278 -0.014625 0.042375 -0.014625 0.05475 0 0.211575 -0.1215 0.385475 -0.29865 0.17755 -0.18085 0.2593 -0.249375 0.27675 -0.231925 0.004925 0.004925 -0.019775 0.0301 -0.05485 0.055975 -0.25945 0.19135 -0.270225 0.264975 -0.01975 0.134825 0.364 -0.189175 0.515825 -0.22805 0.397925 -0.1019 -0.151425 0.16195 -0.651625 0.40085 -0.7123 0.340175 -0.0127 -0.0127 -0.044375 -0.00095 -0.109425 0.04065 -0.050325 0.0322 -0.166025 0.084675 -0.2571 0.116575 -0.312475 0.109525 -0.39385 0.155225 -0.574825 0.322775 -0.579025 0.5361 2.5311 0.312975 4.239825 -0.30415 0.28665 -0.103525 0.341375 -0.165275 0.3184 -0.359275 -0.039475 -0.33345 -0.69195 -0.749125 -0.87165 -0.555325 -0.042825 0.046175 -0.0604 0.0334 -0.021575 -0.015675 0.0668 -0.0845 0.24745 -0.067175 0.47225 0.04525 0.14335 0.071675 0.1421 0.071675 0.1421 0.00045 0 -0.062225 -0.032275 -0.0915 -0.103375 -0.093775 -0.037525 -0.0012 -0.18675 -0.0619 -0.1583 -0.0644 0.007775 -0.000675 0.05575 0.010875 0.106625 0.02565 0.361425 0.105075 0.4957 -0.076325 0.32215 -0.435225 -0.018125 -0.03745 -0.070125 -0.2148 -0.11555 -0.3941 -0.23835 -0.940725 -0.7223 -1.9559025 -0.9324 -1.95595 -0.049675 -0.00001 -0.048675 0.0023975 -0.131525 -0.31766 -0.14215 -0.5492825 -0.24705 -0.7514175 -0.449825 -0.8667825 -0.4406 -0.2506875 -0.54845 -0.706338 -0.12595 -0.532225 0.90665 0.37365 1.8309 1.516775 2.5055 3.0988925 0.4804 1.12665 0.606525 3.037375 0.295025 4.468925 -0.2184 1.003625 -0.36705 2.54385 -0.526775 5.458275 -0.1017 1.855575 -0.159825 2.692925 -0.2437 3.5107 -0.022625 0.220675 -0.05225 0.551675 -0.0658 0.735575 -0.0681 0.923275 -0.170675 1.7805 -0.34515 2.883775 -0.05965 0.377175 -0.068 0.4658 -0.072575 0.769025 -0.01715 1.1432 -0.436225 1.792375 -1.230925 1.906875 -0.077025 0.0111 -0.237875 0.0489 -0.3574 0.083975 -0.9689 0.28445 -2.002525 0.4353 -3.41875 0.4989 -1.1485 0.051575 -1.48065 0.056775 -2.05625 0.03215Zm-3.94545 -1.7291c-0.206225 -0.840925 -0.326875 -1.24015 -0.47195 -1.561825 -0.1553 -0.3443 -0.190575 -0.3899 -0.1714 -0.2215 0.088175 0.7741 0.30065 1.492 0.6465 2.184275 0.182375 0.365025 0.1823 0.355175 -0.00315 -0.40095Zm-0.361525 0.557125c0.0602 -0.2246 -0.036075 -0.697025 -0.316375 -1.55265 -0.159875 -0.488025 -0.2777 -0.912475 -0.299875 -1.08035 -0.01455 -0.11 -0.029675 -0.1193 -0.09225 -0.056725 -0.100375 0.100375 -0.070025 0.308075 0.15605 1.0679 0.060825 0.20445 0.1192 0.43765 0.129725 0.51825 0.06185 0.47355 0.373525 1.2872 0.422725 1.103575Zm5.668575 -2.489625c0.30505 -0.20205 0.265025 -0.790975 -0.066525 -0.97875 -0.29845 -0.16905 -0.45875 0.199325 -0.332025 0.76305 0.05685 0.252875 0.214025 0.337925 0.39855 0.2157Zm-0.899175 -0.044525c0.227475 -0.11665 0.303025 -0.505825 0.160475 -0.826775 -0.1405 -0.3164 -0.4224 -0.15605 -0.473175 0.2692 -0.00735 0.0615 -0.0247 0.18405 -0.03855 0.27235 -0.049675 0.316425 0.081925 0.4233 0.35125 0.285225ZM6.789075 19.44775c0.036475 -0.29185 -0.039175 -0.713575 -0.28385 -1.582675 -0.0694 -0.246525 -0.14945 -0.56625 -0.17785 -0.7105 -0.092875 -0.471575 -0.233475 -0.701375 -0.165575 -0.270575 0.032975 0.2091 0.219075 1.1634 0.2592 1.329025 0.02225 0.09195 0.059875 0.3239 0.0836 0.515425 0.059025 0.47695 0.110825 0.665925 0.212675 0.776025 0.0505 0.054575 0.0587 0.048075 0.0718 -0.056725Zm3.86905 -1.613075c1.273475 -0.291825 1.6841 -1.884275 0.678975 -2.633125 -0.6481 -0.482825 -1.05395 -0.517925 -2.066475 -0.17865 -0.2069 0.069325 -0.393125 0.136725 -0.4139 0.1498 -0.073775 0.046425 -0.187925 0.21105 -0.187925 0.27105 -0.000025 0.0308 -0.02955 0.12925 -0.06565 0.218775 -0.4783 1.186375 0.739475 2.473575 2.054975 2.17215Zm-1.6132 -0.91135c-0.50095 -0.074825 -0.608925 -0.50135 -0.225475 -0.8908 0.27855 -0.2829 0.602875 -0.307375 0.840975 -0.0635 0.47115 0.482575 0.098175 1.060875 -0.6155 0.9543Zm6.35155 0.676875c0.874725 -0.146925 1.4232 -1.15255 1.0625 -1.948075 -0.844625 -1.86275 -3.87795 -0.967925 -3.212725 0.94775 0.284425 0.819025 1.065725 1.1825 2.150225 1.000325Zm-1.70405 -0.773075c-0.389925 -0.096 -0.5164 -0.452325 -0.30745 -0.866225 0.2612 -0.51745 0.820125 -0.51135 1.09585 0.011975 0.16655 0.316075 0.1288 0.421425 -0.141275 0.3942 -0.2429 -0.0245 -0.3226 0.010225 -0.20385 0.0888 0.086525 0.057275 0.197175 0.156925 0.218525 0.1968 0.0667 0.124625 -0.38285 0.24315 -0.6618 0.17445ZM9.5821 9.915525c0.0659 -0.009575 0.111425 -0.031725 0.19605 -0.095375 0.06065 -0.0456 0.153675 -0.114575 0.20675 -0.153275 0.291825 -0.2127 0.542875 -0.403675 0.631475 -0.480425 0.11495 -0.09955 0.1421 -0.117875 0.1421 -0.095875 0 0.0086 -0.04325 0.050825 -0.096125 0.0938 -0.052875 0.042975 -0.1092 0.088875 -0.12515 0.102 -0.044525 0.03655 -0.3578 0.269875 -0.5375 0.4003 -0.192675 0.13985 -0.1949 0.147575 -0.039475 0.136525 0.2199 -0.015625 0.265725 -0.026925 0.25435 -0.0627 -0.01145 -0.03615 0.056925 -0.071375 0.1165 -0.06 0.0271 0.005175 0.022675 0.009425 -0.02045 0.0197 -0.030225 0.0072 -0.052225 0.0215 -0.04885 0.031775 0.008325 0.0254 0.095225 0.034 0.117575 0.011625 0.0116 -0.0116 0.12915 -0.018025 0.329725 -0.018025 0.36845 0 0.66795 -0.016125 0.66795 -0.035975 0 -0.0078 -0.01075 -0.014175 -0.023875 -0.014175 -0.026775 0 -0.076425 -0.044225 -0.076425 -0.06805 0 -0.00855 0.01505 -0.0005 0.033425 0.0179 0.023775 0.02375 0.055725 0.033425 0.11045 0.033425 0.058975 0 0.074925 0.005475 0.0681 0.0233 -0.0245 0.063825 2.684975 0.05775 2.728175 -0.0061 0.02115 -0.03125 0.04075 -0.033925 0.250775 -0.03415 0.31045 -0.00035 0.476575 -0.06495 0.361275 -0.1405 -0.0235 -0.0154 -0.041575 -0.04335 -0.041675 -0.064425 -0.000075 -0.020475 -0.01855 -0.076725 -0.041025 -0.125s-0.034125 -0.087775 -0.0259 -0.087775c0.0215 0 0.0342 0.024875 0.07585 0.148575 0.035975 0.10675 0.03915 0.110475 0.110275 0.128725 0.0712 0.01825 0.071825 0.019 0.023075 0.02705 -0.0276 0.00455 0.01755 0.008425 0.1003 0.008575 0.105625 0.000225 0.133025 -0.00335 0.09195 -0.012 -0.0322 -0.006775 -0.053425 -0.0133 -0.0472 -0.014525 0.00625 -0.0012 0.069875 -0.01035 0.141425 -0.0203 0.225825 -0.0314 0.387425 -0.09105 0.393675 -0.145275 0.00475 -0.041125 0.011775 -0.0456 0.071875 -0.0456 0.116675 0 0.08775 -0.11215 -0.034875 -0.13515 -0.060875 -0.011425 -0.099325 -0.045625 -0.082275 -0.0732 0.016575 -0.0268 0.10875 -0.070475 0.131075 -0.062075 0.01125 0.004225 0.005375 0.012375 -0.013675 0.018925 -0.104975 0.03615 -0.11235 0.064175 -0.026 0.098725 0.06885 0.02755 0.134675 0.0815 0.134675 0.1104 0 0.030625 -0.10385 0.134325 -0.1345 0.134325 -0.016875 0 -0.0349 0.0068 -0.040025 0.0151 -0.011325 0.0183 -0.207875 0.079225 -0.3061 0.094875 -0.1847 0.02945 -0.0168 0.0405 0.615025 0.0405 0.698425 0 0.989325 -0.0168 1.03715 -0.05985 0.018225 -0.0164 0.068325 -0.02375 0.162 -0.02375 0.0746 0 0.140275 -0.007525 0.14595 -0.016725 0.005675 -0.009175 0.02405 -0.0167 0.040825 -0.0167 0.027925 0 0.060575 -0.063 0.0422 -0.081375 -0.004175 -0.004175 -0.047125 0.0007 -0.09545 0.010825 -0.17595 0.03685 -0.19655 0.0395 -0.19655 0.02535 0 -0.007925 0.0537 -0.02435 0.119325 -0.0365 0.58355 -0.107925 1.03115 -0.434625 1.21875 -0.88955 0.02605 -0.06315 0.101675 -0.214625 0.1681 -0.3366 0.4061 -0.74605 0.643275 -1.3907 0.582675 -1.583775 -0.0073 -0.023275 -0.017725 -0.069225 -0.02315 -0.1021 -0.01875 -0.113725 -0.028075 -0.117475 -0.22675 -0.09105 -0.888275 0.118175 -2.614375 0.294875 -3.669525 0.375625 -0.741 0.0567 -1.749075 0.117525 -1.952275 0.1178 -0.0799 0.0001 -0.0799 0.0001 -0.375525 0.283525 -0.369925 0.354675 -0.40095 0.356175 -0.047625 0.002325 0.1454 -0.145625 0.2579 -0.26855 0.249975 -0.273175 -0.05395 -0.031525 -0.254425 -0.062925 -0.376425 -0.058925 -0.135625 0.00445 -0.13945 0.003525 -0.138125 -0.033425 0.001825 -0.05045 0.003925 -0.050175 -0.486175 -0.0615 -3.9206 -0.090525 -6.54765 -0.2257 -7.967525 -0.41 -0.165375 -0.021475 -0.1823 -0.02095 -0.1823 0.005625 0 0.046475 0.13535 0.17505 0.24235 0.2302 0.134625 0.0694 0.13665 0.0998 0.008225 0.123225 -0.1377 0.025075 -0.13355 0.008825 -0.0795 0.31135 0.216875 1.213625 0.535725 1.48835 1.2088 1.041575 0.387125 -0.25695 2.867675 -0.523075 4.5047 -0.4833 0.281 0.006825 0.47475 0.0039 0.5684 -0.008575 0.078175 -0.0104 0.184975 -0.02285 0.237375 -0.027675 0.0524 -0.0048 0.1041 -0.019375 0.1149 -0.032375 0.0108 -0.013 0.0483 -0.02365 0.08335 -0.02365 0.03505 0 0.084925 -0.0087 0.1108 -0.019325 0.1772 -0.072775 1.526575 -0.10075 1.526575 -0.031625 0 0.012125 -0.06945 0.078325 -0.2305 0.2197 -0.03765 0.03305 -0.2325 0.183425 -0.43305 0.3342 -0.304075 0.2286 -0.507175 0.3864 -0.59865 0.46515 -0.009175 0.007925 -0.109725 0.1134 -0.223425 0.2344 -0.467575 0.497625 -0.95585 0.840075 -1.3755 0.9647 -0.058675 0.017425 -0.08245 0.034525 -0.095875 0.068975 -0.0226 0.058 -0.095525 0.187775 -0.118375 0.210625 -0.03805 0.03805 -0.01945 0.06505 0.03695 0.053625 0.029875 -0.00605 0.09295 -0.0166 0.140125 -0.02345ZM5.392125 5.033625c0 -0.017075 0.0252 -0.064075 0.056 -0.104475 0.077325 -0.101425 0.111175 -0.171625 0.111175 -0.23045 0 -0.06535 -0.022275 -0.05695 0.3781 -0.142525 0.8958 -0.1914 1.2795 -0.2406 1.965275 -0.252 3.617275 -0.06005 4.679025 -0.09325 5.8287 -0.1822 0.29255 -0.02265 0.292025 -0.0228 0.372375 0.1039 0.173625 0.2738 -0.318025 0.45375 -1.08005 0.395325 -0.07355 -0.005625 -0.42335 -0.012425 -0.77735 -0.015075 -0.643625 -0.00485 -0.643625 -0.00485 -0.99315 -0.075225 -0.5102 -0.10275 -0.6596 -0.0968 -0.8065 0.032175 -0.068875 0.0605 -0.04685 0.060275 -0.211975 0.002075 -0.417475 -0.14715 -0.93395 -0.156175 -1.76655 -0.030825 -0.28045 0.0422 -0.6077 0.08505 -0.727225 0.095175 -0.621025 0.05265 -1.20345 0.160275 -1.950575 0.36045 -0.310625 0.083225 -0.39825 0.092825 -0.39825 0.043675Z" stroke-width="0.25"></path>
  <path fill="#28a8dd" d="M11.86185 23.735725c-1.947775 -0.08335 -3.301975 -0.34235 -4.38275 -0.838275 -0.15775 -0.0724 -0.134075 -0.02395 -0.304225 -0.6228 -0.296325 -1.043025 -0.52155 -1.988025 -0.76285 -3.200675 -0.1223 -0.614725 -0.179575 -0.8717 -0.46205 -2.072975 -0.50685 -2.15555 -0.699375 -3.1467 -0.810125 -4.171025 -0.02805 -0.259425 0.02245 -0.61415 0.1018 -0.715025 0.04695 -0.0597 0.047925 -0.21215 0.0014 -0.224325 -0.02715 -0.0071 -0.033875 -0.030025 -0.0438 -0.149175 -0.00825 -0.09895 -0.021075 -0.1527 -0.043175 -0.180775 -0.0213 -0.027075 -0.031425 -0.06705 -0.031425 -0.1241 0 -0.046275 -0.007525 -0.0888 -0.016725 -0.094475 -0.010025 -0.0062 -0.0167 -0.11965 -0.0167 -0.2842s-0.006675 -0.278 -0.016725 -0.2842c-0.0092 -0.005675 -0.016725 0.004725 -0.016725 0.0231 0 0.206075 -0.148075 -0.169225 -0.2344 -0.594075 -0.22155 -1.090275 -0.585125 -2.1737 -0.5015 -1.494325 0.029425 0.239025 0.08365 0.474025 0.23935 1.037175 0.182875 0.661575 0.2662 1.130025 0.229 1.287575 -0.05315 0.225175 -0.396625 -1.127025 -0.594575 -2.340775 -0.05025 -0.308025 -0.125675 -0.7707 -0.167625 -1.02815 -0.09375 -0.57525 -0.180975 -1.00725 -0.300125 -1.4867 -0.11925 -0.4799 -0.1159 -0.557725 0.032325 -0.746475 0.305525 -0.3891 1.20205 -0.691575 1.29895 -0.43825 0.066425 0.1736 -0.12935 0.293875 -0.661725 0.406525 -0.46145 0.097625 -0.504125 0.167425 -0.253625 0.4148 0.250425 0.247325 1.702975 0.468375 3.4216 0.5207 3.041225 0.092575 4.97245 0.117025 5.5168 0.06985 0.537675 -0.046625 0.570025 -0.0463 0.659925 0.006375 0.080125 0.04695 0.080125 0.04695 0.182375 0.02155 0.102325 -0.0254 0.126825 -0.024775 0.483425 0.012625 0.077625 0.00815 0.114975 0.002875 0.187175 -0.02645 0.080125 -0.0325 0.09735 -0.03425 0.1538 -0.015475 0.117125 0.03895 1.23345 0.027725 1.62665 -0.016375 1.09345 -0.1226 2.387775 -0.42115 2.8182 -0.65005 0.050675 -0.02695 0.383575 -0.107625 0.60055 -0.145575 0.20835 -0.0364 0.343 -0.068525 0.443025 -0.105625 0.09195 -0.034125 0.09195 -0.034125 0.10275 0.11095 0.048025 0.645 -0.023775 1.68585 -0.153 2.218075 -0.0339 0.139575 -0.073775 0.3623 -0.1332 0.743925 -0.01935 0.124125 -0.0434 0.242125 -0.053475 0.2622 -0.010075 0.020075 -0.013775 0.053925 -0.0082 0.0752 0.00555 0.021275 -0.0084 0.18915 -0.031 0.37305 -0.119 0.967675 -0.193925 1.949075 -0.308825 4.0457 -0.1017 1.855575 -0.159825 2.692925 -0.2437 3.5107 -0.02265 0.220675 -0.05225 0.551675 -0.0658 0.735575 -0.0681 0.923275 -0.170675 1.7805 -0.34515 2.883775 -0.05965 0.377175 -0.068 0.4658 -0.072575 0.769 -0.01715 1.1432 -0.436225 1.7924 -1.230925 1.906875 -0.07705 0.0111 -0.237875 0.0489 -0.3574 0.084 -0.9689 0.28445 -2.002525 0.435275 -3.41875 0.4989 -1.1485 0.051575 -1.48065 0.056775 -2.05625 0.032125Zm-3.94545 -1.729075c-0.206225 -0.840925 -0.326875 -1.240175 -0.47195 -1.561825 -0.1553 -0.344325 -0.190575 -0.389925 -0.1714 -0.2215 0.088175 0.774075 0.30065 1.492 0.6465 2.18425 0.182375 0.365025 0.1823 0.3552 -0.00315 -0.400925Zm-0.361525 0.557125c0.0602 -0.2246 -0.036075 -0.697025 -0.316375 -1.55265 -0.159875 -0.48805 -0.2777 -0.912475 -0.299875 -1.08035 -0.01455 -0.110025 -0.029675 -0.119325 -0.09225 -0.056725 -0.100375 0.100375 -0.070025 0.308075 0.15605 1.067875 0.060825 0.20445 0.1192 0.437675 0.129725 0.51825 0.06185 0.473575 0.373525 1.287225 0.422725 1.1036Zm5.668575 -2.489625c0.30505 -0.20205 0.265025 -0.790975 -0.066525 -0.97875 -0.29845 -0.16905 -0.45875 0.199325 -0.332025 0.76305 0.05685 0.25285 0.214025 0.337925 0.39855 0.2157Zm-0.899175 -0.04455c0.227475 -0.116625 0.303 -0.5058 0.160475 -0.82675 -0.1405 -0.316425 -0.4224 -0.156075 -0.4732 0.269175 -0.007325 0.061525 -0.024675 0.184075 -0.038525 0.27235 -0.049675 0.31645 0.081925 0.423325 0.35125 0.285225Zm-5.5352 -0.581875c0.036475 -0.29185 -0.039175 -0.71355 -0.28385 -1.58265 -0.0694 -0.24655 -0.14945 -0.566275 -0.17785 -0.7105 -0.092875 -0.4716 -0.233475 -0.7014 -0.165575 -0.2706 0.032975 0.209125 0.219075 1.1634 0.2592 1.32905 0.02225 0.09195 0.059875 0.323875 0.0836 0.5154 0.059025 0.476975 0.110825 0.66595 0.212675 0.776025 0.0505 0.054575 0.0587 0.0481 0.0718 -0.056725Zm5.026975 -0.5409c0.1703 -0.091875 0.3441 -0.133775 0.554175 -0.133675 0.1616 0.000175 0.283475 0.016775 0.745425 0.10205 0.5638 0.104075 0.895175 0.025725 0.856075 -0.202375 -0.088625 -0.51675 -0.351375 -0.63015 -1.158275 -0.4999 -0.47065 0.07595 -0.8115 0.079525 -1.003025 0.0105 -0.1513 -0.054525 -0.142075 -0.054075 -0.254375 -0.01205 -0.4061 0.151925 -0.388225 0.636025 0.028325 0.7681 0.05605 0.017775 0.103225 0.03275 0.104825 0.033275 0.0016 0.0005 0.058675 -0.029175 0.12685 -0.065925Zm-1.157925 -1.072175c1.273475 -0.2918 1.6841 -1.884275 0.678975 -2.6331 -0.6481 -0.48285 -1.053975 -0.517925 -2.066475 -0.17865 -0.2069 0.069325 -0.39315 0.136725 -0.4139 0.149775 -0.073775 0.04645 -0.187925 0.211075 -0.187925 0.271075 -0.000025 0.0308 -0.02955 0.12925 -0.06565 0.218775 -0.478325 1.18635 0.739475 2.473575 2.054975 2.172125Zm-1.6132 -0.91135c-0.50095 -0.0748 -0.608925 -0.50135 -0.225475 -0.890775 0.278525 -0.2829 0.602875 -0.3074 0.840975 -0.0635 0.47115 0.482575 0.09815 1.06085 -0.6155 0.954275Zm6.35155 0.6769c0.874725 -0.14695 1.4232 -1.152575 1.0625 -1.9481 -0.844625 -1.86275 -3.87795 -0.9679 -3.212725 0.94775 0.284425 0.81905 1.065725 1.182525 2.150225 1.00035Zm-1.70405 -0.773075c-0.389925 -0.096025 -0.5164 -0.45235 -0.307475 -0.866225 0.261225 -0.517475 0.82015 -0.511375 1.095875 0.011975 0.16655 0.316075 0.1288 0.4214 -0.141275 0.394175 -0.2429 -0.024475 -0.3226 0.01025 -0.20385 0.088825 0.086525 0.05725 0.197175 0.1569 0.218525 0.1968 0.0667 0.124625 -0.38285 0.243125 -0.6618 0.17445ZM9.486975 9.93c0.016625 -0.008925 0.07715 -0.01805 0.1345 -0.020325 0.083975 -0.003325 0.106475 -0.01015 0.115725 -0.035125 0.010025 -0.027125 0.03445 -0.0317 0.19455 -0.036575 0.240725 -0.0073 0.3361 -0.020725 0.41715 -0.058675 0.072375 -0.033875 0.76825 -0.061075 1.22875 -0.048025 0.818925 0.02325 2.616325 -0.00025 2.63905 -0.034475 0.021525 -0.032425 0.038825 -0.034825 0.25095 -0.035075 0.2383 -0.00025 0.335525 -0.019325 0.375225 -0.073625 0.020225 -0.027675 0.077325 -0.029425 0.89 -0.02745 0.885025 0.00215 1.17695 -0.0118 1.22915 -0.0588 0.018225 -0.016425 0.068325 -0.02375 0.162 -0.02375 0.0746 0 0.140275 -0.007525 0.14595 -0.016725 0.006625 -0.0107 0.253525 -0.016725 0.685825 -0.016725 0.651125 0 0.6761 -0.001175 0.692825 -0.0324 0.014975 -0.027975 0.041725 -0.0336 0.197 -0.041375 0.369575 -0.018475 0.463525 -0.02885 0.491825 -0.054325 0.021725 -0.01955 0.064375 -0.0241 0.191375 -0.0204 0.163425 0.004775 0.163425 0.004775 0.183675 -0.06965 0.011125 -0.040925 0.035325 -0.115775 0.053775 -0.16635 0.02675 -0.0734 0.03585 -0.154325 0.04515 -0.401225 0.0127 -0.337825 0.02445 -0.445575 0.06935 -0.635275 0.036 -0.1521 0.0369 -1.1666 0.0014 -1.563075 -0.022175 -0.24745 -0.4787 -0.340375 -0.8167 -0.16625 -0.055775 0.028725 -1.409325 0.189175 -2.45585 0.291125 -1.0581 0.10305 -2.3929 0.20095 -3.109475 0.22805 -0.19065 0.007225 -0.308 0.01885 -0.336875 0.03345 -0.03795 0.019125 -0.057275 0.01825 -0.13375 -0.006025 -0.06 -0.01905 -0.14715 -0.02855 -0.26495 -0.02885 -0.171675 -0.000425 -0.1755 -0.001275 -0.17415 -0.03845 0.001825 -0.050425 0.003925 -0.05015 -0.486175 -0.061475 -3.9206 -0.090525 -6.54765 -0.225725 -7.967525 -0.410025 -0.165375 -0.02145 -0.1823 -0.020925 -0.1823 0.005625 0 0.0465 0.13535 0.175075 0.24235 0.230225 0.134625 0.0694 0.13665 0.0998 0.008225 0.1232 -0.1377 0.0251 -0.13355 0.008825 -0.0795 0.31135 0.216875 1.213625 0.535725 1.488375 1.2088 1.0416 0.387125 -0.25695 2.867675 -0.5231 4.5047 -0.483325 0.281 0.00685 0.47475 0.003925 0.5684 -0.00855 0.078175 -0.0104 0.184975 -0.02285 0.237375 -0.027675 0.0524 -0.004825 0.1041 -0.0194 0.1149 -0.0324 0.010775 -0.013 0.0483 -0.023625 0.08335 -0.023625 0.03505 0 0.0849 -0.0087 0.1108 -0.019325 0.1772 -0.0728 1.526575 -0.10075 1.526575 -0.031625 0 0.012125 -0.06945 0.0783 -0.2305 0.2197 -0.03765 0.033025 -0.232525 0.183425 -0.43305 0.334175 -0.304075 0.2286 -0.507175 0.386425 -0.59865 0.465175 -0.009175 0.0079 -0.109725 0.113375 -0.223425 0.234375 -0.467575 0.497625 -0.95585 0.8401 -1.3755 0.9647 -0.058675 0.01745 -0.08245 0.03455 -0.095875 0.068975 -0.0226 0.058025 -0.095525 0.187775 -0.118375 0.210625 -0.048575 0.0486 0.01245 0.08185 0.08195 0.044675ZM5.392125 5.033625c0 -0.017075 0.0252 -0.0641 0.056 -0.1045 0.077325 -0.101425 0.111175 -0.1716 0.111175 -0.23045 0 -0.06535 -0.022275 -0.05695 0.3781 -0.1425 0.8958 -0.191425 1.2795 -0.240625 1.965275 -0.252 3.617275 -0.060075 4.679025 -0.09325 5.8287 -0.182225 0.29255 -0.022625 0.292025 -0.022775 0.372375 0.1039 0.173625 0.2738 -0.318025 0.453775 -1.08005 0.39535 -0.07355 -0.00565 -0.423375 -0.012425 -0.77735 -0.0151 -0.643625 -0.004825 -0.643625 -0.004825 -0.99315 -0.075225 -0.5102 -0.10275 -0.6596 -0.096775 -0.8065 0.0322 -0.068875 0.060475 -0.04685 0.060275 -0.211975 0.00205 -0.417475 -0.14715 -0.93395 -0.15615 -1.76655 -0.030825 -0.28045 0.042225 -0.6077 0.08505 -0.727225 0.0952 -0.621025 0.05265 -1.20345 0.160275 -1.950575 0.36045 -0.310625 0.083225 -0.39825 0.092825 -0.39825 0.043675Z" stroke-width="0.25"></path>
  <path fill="#3698a6" d="M11.86185 23.735725c-1.947775 -0.08335 -3.301975 -0.34235 -4.38275 -0.838275 -0.15775 -0.0724 -0.134075 -0.02395 -0.304225 -0.6228 -0.296325 -1.043025 -0.52155 -1.988025 -0.76285 -3.200675 -0.1223 -0.614725 -0.179575 -0.8717 -0.46205 -2.072975 -0.50685 -2.15555 -0.699375 -3.1467 -0.810125 -4.171025 -0.031 -0.286725 0.026625 -0.637875 0.12 -0.73125 0.060975 -0.060975 0.069025 -0.17635 0.01575 -0.225975 -0.024375 -0.022725 -0.037 -0.066675 -0.0484 -0.168775 -0.008875 -0.07925 -0.026175 -0.1501 -0.04065 -0.166375 -0.03205 -0.03605 -0.044525 -0.141925 -0.0588 -0.49925 -0.0063 -0.157875 -0.0175 -0.293075 -0.0249 -0.30045 -0.016125 -0.01605 -0.04445 0.02445 -0.0448 0.064075 -0.0018 0.197475 -0.14935 -0.17935 -0.234675 -0.59925 -0.22155 -1.090275 -0.585125 -2.1737 -0.5015 -1.494325 0.029425 0.239025 0.08365 0.474025 0.23935 1.037175 0.182875 0.661575 0.2662 1.130025 0.229 1.287575 -0.05315 0.225175 -0.396625 -1.127025 -0.594575 -2.340775 -0.05025 -0.308025 -0.125675 -0.7707 -0.167625 -1.02815 -0.09375 -0.57525 -0.180975 -1.00725 -0.300125 -1.4867 -0.11925 -0.4799 -0.1159 -0.557725 0.032325 -0.746475 0.305525 -0.3891 1.20205 -0.691575 1.29895 -0.43825 0.066425 0.1736 -0.12935 0.293875 -0.661725 0.406525 -0.46145 0.097625 -0.504125 0.167425 -0.253625 0.4148 0.250425 0.247325 1.702975 0.468375 3.4216 0.5207 3.041225 0.092575 4.97245 0.117025 5.5168 0.06985 0.537675 -0.046625 0.570025 -0.0463 0.659925 0.006375 0.080125 0.04695 0.080125 0.04695 0.182375 0.02155 0.102325 -0.0254 0.126825 -0.024775 0.483425 0.012625 0.077625 0.00815 0.114975 0.002875 0.187175 -0.02645 0.080125 -0.0325 0.09735 -0.03425 0.1538 -0.015475 0.117125 0.03895 1.23345 0.027725 1.62665 -0.016375 1.09345 -0.1226 2.387775 -0.42115 2.8182 -0.65005 0.050675 -0.02695 0.383575 -0.107625 0.60055 -0.145575 0.20835 -0.0364 0.343 -0.068525 0.443025 -0.105625 0.09195 -0.034125 0.09195 -0.034125 0.10275 0.11095 0.048025 0.645 -0.023775 1.68585 -0.153 2.218075 -0.0339 0.139575 -0.073775 0.3623 -0.1332 0.743925 -0.01935 0.124125 -0.0434 0.242125 -0.053475 0.2622 -0.010075 0.020075 -0.013775 0.053925 -0.0082 0.0752 0.00555 0.021275 -0.0084 0.18915 -0.031 0.37305 -0.119 0.967675 -0.193925 1.949075 -0.308825 4.0457 -0.1017 1.855575 -0.159825 2.692925 -0.2437 3.5107 -0.02265 0.220675 -0.05225 0.551675 -0.0658 0.735575 -0.0681 0.923275 -0.170675 1.7805 -0.34515 2.883775 -0.05965 0.377175 -0.068 0.4658 -0.072575 0.769 -0.01715 1.1432 -0.436225 1.7924 -1.230925 1.906875 -0.07705 0.0111 -0.237875 0.0489 -0.3574 0.084 -0.9689 0.28445 -2.002525 0.435275 -3.41875 0.4989 -1.1485 0.051575 -1.48065 0.056775 -2.05625 0.032125Zm-3.94545 -1.729075c-0.206225 -0.840925 -0.326875 -1.240175 -0.47195 -1.561825 -0.1553 -0.344325 -0.190575 -0.389925 -0.1714 -0.2215 0.088175 0.774075 0.30065 1.492 0.6465 2.18425 0.182375 0.365025 0.1823 0.3552 -0.00315 -0.400925Zm-0.361525 0.557125c0.0602 -0.2246 -0.036075 -0.697025 -0.316375 -1.55265 -0.159875 -0.48805 -0.2777 -0.912475 -0.299875 -1.08035 -0.01455 -0.110025 -0.029675 -0.119325 -0.09225 -0.056725 -0.100375 0.100375 -0.070025 0.308075 0.15605 1.067875 0.060825 0.20445 0.1192 0.437675 0.129725 0.51825 0.06185 0.473575 0.373525 1.287225 0.422725 1.1036Zm5.668575 -2.489625c0.30505 -0.20205 0.265025 -0.790975 -0.066525 -0.97875 -0.29845 -0.16905 -0.45875 0.199325 -0.332025 0.76305 0.05685 0.25285 0.214025 0.337925 0.39855 0.2157Zm-0.899175 -0.04455c0.227475 -0.116625 0.303 -0.5058 0.160475 -0.82675 -0.1405 -0.316425 -0.4224 -0.156075 -0.4732 0.269175 -0.007325 0.061525 -0.024675 0.184075 -0.038525 0.27235 -0.049675 0.31645 0.081925 0.423325 0.35125 0.285225Zm-5.5352 -0.581875c0.036475 -0.29185 -0.039175 -0.71355 -0.28385 -1.58265 -0.0694 -0.24655 -0.14945 -0.566275 -0.17785 -0.7105 -0.092875 -0.4716 -0.233475 -0.7014 -0.165575 -0.2706 0.032975 0.209125 0.219075 1.1634 0.2592 1.32905 0.02225 0.09195 0.059875 0.323875 0.0836 0.5154 0.059025 0.476975 0.110825 0.66595 0.212675 0.776025 0.0505 0.054575 0.0587 0.0481 0.0718 -0.056725Zm5.026975 -0.5409c0.1703 -0.091875 0.3441 -0.133775 0.554175 -0.133675 0.1616 0.000175 0.283475 0.016775 0.745425 0.10205 0.5638 0.104075 0.895175 0.025725 0.856075 -0.202375 -0.088625 -0.51675 -0.351375 -0.63015 -1.158275 -0.4999 -0.47065 0.07595 -0.8115 0.079525 -1.003025 0.0105 -0.1513 -0.054525 -0.142075 -0.054075 -0.254375 -0.01205 -0.4061 0.151925 -0.388225 0.636025 0.028325 0.7681 0.05605 0.017775 0.103225 0.03275 0.104825 0.033275 0.0016 0.0005 0.058675 -0.029175 0.12685 -0.065925Zm-1.157925 -1.072175c1.273475 -0.2918 1.6841 -1.884275 0.678975 -2.6331 -0.66455 -0.4951 -1.08815 -0.523175 -2.1704 -0.143825 -0.227 0.07955 -0.334975 0.110125 -0.3469 0.098225 -0.0119 -0.0119 -0.017275 -0.008275 -0.017275 0.01165 0 0.015925 -0.01065 0.03305 -0.023675 0.038025 -0.049375 0.01895 -0.105525 0.130125 -0.1088 0.215475 -0.002025 0.051925 -0.0277 0.1442 -0.067875 0.24385 -0.47735 1.18395 0.742025 2.4708 2.05595 2.1697Zm-1.6132 -0.91135c-0.50095 -0.0748 -0.608925 -0.50135 -0.225475 -0.890775 0.278525 -0.2829 0.602875 -0.3074 0.840975 -0.0635 0.47115 0.482575 0.09815 1.06085 -0.6155 0.954275Zm6.35155 0.6769c0.874725 -0.14695 1.4232 -1.152575 1.0625 -1.9481 -0.844625 -1.86275 -3.87795 -0.9679 -3.212725 0.94775 0.284425 0.81905 1.065725 1.182525 2.150225 1.00035Zm-1.70405 -0.773075c-0.389925 -0.096025 -0.5164 -0.45235 -0.307475 -0.866225 0.261225 -0.517475 0.82015 -0.511375 1.095875 0.011975 0.16655 0.316075 0.1288 0.4214 -0.141275 0.394175 -0.2429 -0.024475 -0.3226 0.01025 -0.20385 0.088825 0.086525 0.05725 0.197175 0.1569 0.218525 0.1968 0.0667 0.124625 -0.38285 0.243125 -0.6618 0.17445Zm-0.972825 -5.720225c0.0123 -0.0431 0.006475 -0.0642 -0.0365 -0.131975 -0.328525 -0.518025 0.03805 -1.237925 0.556975 -1.09385 0.212275 0.05895 0.213 0.176175 0.003925 0.633175 -0.1975 0.431675 -0.182375 0.510225 0.098325 0.510225 0.198725 0 0.189525 0.01375 0.2081 -0.3111 0.047775 -0.8349 0.299525 -1.1166 0.835775 -0.935225 0.13915 0.047075 0.14155 0.049875 0.18355 0.21575 0.161175 0.6364 0.380975 0.81695 0.9616 0.7899 0.41185 -0.019175 0.503475 -0.106475 0.661175 -0.62995 0.13425 -0.445675 0.2273 -0.5549 0.50505 -0.592875 0.066575 -0.0091 0.154875 -0.023625 0.19625 -0.032275 0.17545 -0.036675 0.349275 -0.010825 0.39485 0.05875 0.0388 0.0592 0.061575 0.0326 0.05255 -0.061375 -0.007825 -0.081425 -0.007825 -0.081425 0.641125 -0.081425 0.62485 0 0.649575 -0.0012 0.666275 -0.0324 0.014975 -0.027975 0.041725 -0.0336 0.197 -0.041375 0.369575 -0.018475 0.463525 -0.02885 0.491825 -0.054325 0.021725 -0.01955 0.064375 -0.0241 0.191375 -0.0204 0.163425 0.004775 0.163425 0.004775 0.183675 -0.06965 0.011125 -0.040925 0.035325 -0.115775 0.053775 -0.16635 0.02675 -0.0734 0.03585 -0.154325 0.04515 -0.401225 0.0127 -0.337825 0.02445 -0.445575 0.06935 -0.635275 0.036 -0.1521 0.0369 -1.1666 0.0014 -1.563075 -0.022175 -0.24745 -0.4787 -0.340375 -0.8167 -0.16625 -0.055775 0.028725 -1.409325 0.189175 -2.45585 0.291125 -1.0581 0.10305 -2.3929 0.20095 -3.109475 0.22805 -0.19065 0.007225 -0.308 0.01885 -0.336875 0.03345 -0.03795 0.019125 -0.057275 0.01825 -0.13375 -0.006025 -0.06 -0.01905 -0.14715 -0.02855 -0.26495 -0.02885 -0.171675 -0.000425 -0.1755 -0.001275 -0.17415 -0.03845 0.001825 -0.050425 0.003925 -0.05015 -0.486175 -0.061475 -3.9206 -0.090525 -6.54765 -0.225725 -7.967525 -0.410025 -0.165375 -0.02145 -0.1823 -0.020925 -0.1823 0.005625 0 0.0465 0.13535 0.175075 0.24235 0.230225 0.134625 0.0694 0.13665 0.0998 0.008225 0.1232 -0.1377 0.0251 -0.13355 0.008825 -0.0795 0.31135 0.216875 1.213625 0.535725 1.488375 1.2088 1.0416 0.3203 -0.2126 1.61365 -0.38665 3.4703 -0.46695 1.480075 -0.064025 1.148 0.03 -0.796175 0.225425 -0.957675 0.096275 -1.40785 0.15845 -1.87235 0.258625 -0.10115 0.021825 -0.236725 0.0435 -0.3013 0.0482 -0.562375 0.04085 -1.099325 0.71815 -0.817075 1.030575 0.08345 0.09235 0.204125 0.133975 0.4351 0.15005 0.1023 0.007125 0.193125 0.017325 0.201775 0.022675 0.008675 0.00535 0.1168 0.028225 0.240275 0.050825 0.263 0.048125 0.3166 0.0663 0.328375 0.1113 0.007925 0.0303 0.023075 0.03325 0.171875 0.03325 0.148125 0 0.165375 0.003275 0.1869 0.035725 0.019825 0.02985 0.044825 0.037075 0.151875 0.04395 0.096725 0.0062 0.135075 0.015875 0.156425 0.0395 0.018175 0.02005 0.051 0.031275 0.0916 0.031275 0.034825 0 0.06795 0.007525 0.073625 0.016725 0.0057 0.009175 0.0489 0.0167 0.09605 0.0167 0.065875 0 0.09495 0.0087 0.1257 0.037625 0.03825 0.035975 0.0545 0.03785 0.371575 0.043025 0.30215 0.00495 0.33415 0.008275 0.3607 0.037625 0.0303 0.03345 0.19115 0.0482 0.19115 0.0175 0 -0.058575 0.288575 -0.1073 0.660325 -0.111475 0.266575 -0.003 0.3665 -0.010825 0.49285 -0.0386 0.209975 -0.046125 0.2169 -0.0354 0.1014 0.1564 -0.0277 0.045975 -0.057575 0.0999 -0.066425 0.11985 -0.00885 0.01995 -0.0366 0.046275 -0.0617 0.058525 -0.0251 0.012225 -0.075475 0.06605 -0.111925 0.1196 -0.050475 0.074125 -0.0867 0.107025 -0.151725 0.1378 -0.28055 0.132675 -0.508275 0.358325 -0.36165 0.358325 0.037625 0 0.086375 0.011775 0.10835 0.02615 0.036225 0.02375 0.0446 0.02375 0.090525 0 0.027825 -0.014375 0.061175 -0.02615 0.074125 -0.02615 0.01295 0 0.0524 -0.047025 0.0877 -0.1045 0.111175 -0.181 0.573625 -0.610275 0.632925 -0.587525 0.01735 0.00665 0.030875 -0.002275 0.03975 -0.02625 0.0125 -0.033775 0.026425 -0.036775 0.196525 -0.042075 0.21565 -0.00675 0.3599 -0.02305 0.385025 -0.0435 0.010925 -0.008875 0.06255 0.002525 0.130475 0.028775 0.1933 0.0747 0.207425 0.158075 0.0417 0.246025 -0.29305 0.15555 -0.342675 0.492075 -0.1113 0.75495 0.1994 0.2265 0.53435 0.18105 0.34475 -0.0468 -0.36145 -0.434325 -0.108225 -0.7975 0.65465 -0.93895 0.48635 -0.090175 1.199925 0.064125 1.0686 0.231075 -0.113975 0.144925 -0.1139 0.34695 0.0003 0.81255 0.028125 0.1147 0.05115 0.226025 0.05115 0.247375 0 0.06895 0.202225 0.048575 0.2225 -0.022425Zm2.45035 -0.598675c-0.48455 -0.17315 -0.47895 -0.70795 0.00725 -0.693875 0.1357 0.003925 0.1652 -0.00075 0.25385 -0.040125 0.3458 -0.15365 0.670875 0.0991 0.570425 0.44355 -0.0591 0.202675 -0.1772 0.278975 -0.461775 0.298325 -0.26245 0.017825 -0.30005 0.017025 -0.36975 -0.007875ZM5.392125 5.033625c0 -0.017075 0.0252 -0.0641 0.056 -0.1045 0.077325 -0.101425 0.111175 -0.1716 0.111175 -0.23045 0 -0.06535 -0.022275 -0.05695 0.3781 -0.1425 0.8958 -0.191425 1.2795 -0.240625 1.965275 -0.252 3.617275 -0.060075 4.679025 -0.09325 5.8287 -0.182225 0.29255 -0.022625 0.292025 -0.022775 0.372375 0.1039 0.173625 0.2738 -0.318025 0.453775 -1.08005 0.39535 -0.07355 -0.00565 -0.423375 -0.012425 -0.77735 -0.0151 -0.643625 -0.004825 -0.643625 -0.004825 -0.99315 -0.075225 -0.5102 -0.10275 -0.6596 -0.096775 -0.8065 0.0322 -0.068875 0.060475 -0.04685 0.060275 -0.211975 0.00205 -0.417475 -0.14715 -0.93395 -0.15615 -1.76655 -0.030825 -0.28045 0.042225 -0.6077 0.08505 -0.727225 0.0952 -0.621025 0.05265 -1.20345 0.160275 -1.950575 0.36045 -0.310625 0.083225 -0.39825 0.092825 -0.39825 0.043675Z" stroke-width="0.25"></path>
  <path fill="#008ecf" d="M12.17105 23.7443c-2.1998 -0.117775 -3.24705 -0.2908 -4.3382 -0.7167 -0.4746 -0.185225 -0.47585 -0.18605 -0.524325 -0.34515 -0.2939 -0.96445 -0.600425 -2.21375 -0.856625 -3.491125 -0.149 -0.742975 -0.200425 -0.97435 -0.49825 -2.24145 -0.7555 -3.214325 -0.945525 -4.534525 -0.693975 -4.821025 0.06175 -0.0703 0.0701 -0.20555 0.01585 -0.2561 -0.024375 -0.0227 -0.036975 -0.066675 -0.0484 -0.16875 -0.008875 -0.079275 -0.026175 -0.150125 -0.040625 -0.1664 -0.032125 -0.036125 -0.04455 -0.142125 -0.0588 -0.50125 -0.00895 -0.2255 -0.0168 -0.2923 -0.03575 -0.303975 -0.0341 -0.021025 -0.05085 -0.005875 -0.051475 0.0465 -0.001825 0.154125 -0.137875 -0.252275 -0.217225 -0.6488 -0.2433 -1.21625 -0.67355 -2.3084 -0.49135 -1.247325 0.029975 0.1746 0.1177 0.523925 0.2471 0.983875 0.1107 0.393525 0.17265 0.6932 0.192775 0.93215 0.06405 0.761475 -0.344875 -0.768675 -0.558475 -2.0897 -0.2927 -1.810225 -0.375575 -2.238175 -0.5374 -2.7751 -0.06985 -0.2318 -0.0365 -0.353 0.1512 -0.549125 0.3949 -0.412675 1.289225 -0.64245 1.2236 -0.314375 -0.027075 0.135425 -0.206375 0.220725 -0.660725 0.3143 -0.46995 0.096825 -0.517575 0.1777 -0.256425 0.435725 0.20575 0.203325 1.329175 0.415725 2.629375 0.497125 0.241775 0.01515 0.524275 0.02475 2.0061 0.0682 1.9948 0.0585 3.838425 0.07355 4.304775 0.035175 0.54235 -0.044625 0.604825 -0.044825 0.680775 -0.00215 0.061025 0.0343 0.0764 0.03645 0.145125 0.02015 0.07335 -0.0174 0.1298 -0.01485 0.52215 0.0235 0.0788 0.0077 0.10925 0.0021 0.18615 -0.034275 0.07875 -0.03725 0.098825 -0.040775 0.139825 -0.024425 0.094075 0.037525 1.25005 0.02555 1.6277 -0.016825 1.094125 -0.1228 2.3878 -0.421225 2.8182 -0.6501 0.05065 -0.02695 0.38355 -0.107625 0.60055 -0.14555 0.211225 -0.036925 0.34465 -0.068525 0.43125 -0.102125 0.146675 -0.0569 0.181375 0.719225 0.069575 1.5554 -0.0611 0.456975 -0.0747 0.545525 -0.1067 0.694875 -0.018725 0.08735 -0.04455 0.2077 -0.0574 0.267475 -0.1853 0.8627 -0.34485 2.57775 -0.495375 5.32455 -0.109275 1.994225 -0.16185 2.7328 -0.267175 3.7531 -0.017575 0.1701 -0.036525 0.38075 -0.042125 0.4681 -0.0494 0.770125 -0.160125 1.697925 -0.35165 2.946575 -0.059425 0.38745 -0.07185 0.50585 -0.06395 0.610175 0.081025 1.072925 -0.414175 1.871925 -1.2396 2.000075 -0.08275 0.01285 -0.282875 0.061775 -0.444725 0.10875 -0.817725 0.237325 -1.745425 0.378975 -2.96565 0.452825 -0.789875 0.0478 -1.862425 0.085375 -2.0897 0.0732Zm-0.072475 -0.236225c0.06135 -0.06135 -0.119875 -0.090575 -0.9055 -0.14595 -0.1885 -0.013275 -0.43675 -0.03535 -0.551675 -0.04905 -0.62795 -0.074775 -1.1255 -0.07905 -0.941375 -0.008075 0.333725 0.12865 2.306 0.29565 2.39855 0.203075Zm-4.014975 -0.862775c0 -0.0432 -0.298475 -1.238725 -0.37405 -1.498325 -0.1395 -0.479 -0.38715 -1.069925 -0.4484 -1.069925 -0.057275 0 0.084825 0.8132 0.222025 1.270525 0.180875 0.60295 0.600425 1.509725 0.600425 1.297725Zm-0.51605 -0.07035c0.058 -0.2679 -0.02605 -0.68855 -0.31205 -1.561725 -0.1572 -0.479975 -0.2769 -0.9087 -0.301025 -1.078275 -0.015425 -0.108475 -0.03165 -0.128975 -0.08335 -0.105425 -0.149325 0.068025 -0.126275 0.3068 0.102875 1.065525 0.059525 0.19705 0.119725 0.434 0.1338 0.5266 0.090275 0.593525 0.40825 1.391175 0.45975 1.1533Zm5.65025 -2.4788c0.266425 -0.16895 0.313025 -0.55565 0.10295 -0.854275 -0.34835 -0.4952 -0.706825 -0.00765 -0.49865 0.678225 0.06305 0.207725 0.2292 0.28165 0.3957 0.17605Zm-0.8936 -0.049925c0.289575 -0.1489 0.338175 -0.717475 0.084175 -0.984775 -0.1518 -0.15975 -0.374625 0.0712 -0.41475 0.429825 -0.008475 0.075725 -0.0226 0.1689 -0.031425 0.207075 -0.078675 0.340825 0.079725 0.49305 0.362 0.347875Zm-5.520925 -0.597425c0.038875 -0.251475 -0.042575 -0.72305 -0.2587 -1.4977 -0.082925 -0.297275 -0.176825 -0.670525 -0.208675 -0.829425 -0.07735 -0.38625 -0.20825 -0.648325 -0.20825 -0.416975 0 0.116775 0.185525 1.12655 0.275575 1.499975 0.0233 0.09655 0.061475 0.32975 0.08485 0.51825 0.062075 0.5002 0.101475 0.649825 0.20215 0.767425 0.075575 0.088325 0.09405 0.081525 0.11305 -0.04155Zm5.014675 -0.54195c0.298 -0.16355 0.54795 -0.173275 1.2057 -0.046925 0.8712 0.167375 1.219975 -0.08515 0.785325 -0.568575 -0.178 -0.197975 -0.3641 -0.2194 -1.011025 -0.1164 -0.43165 0.068725 -0.803675 0.0745 -0.96125 0.01495 -0.191775 -0.072475 -0.312275 -0.0473 -0.460225 0.096175 -0.253025 0.24535 -0.0838 0.614575 0.314725 0.686725 0.00275 0.000475 0.059775 -0.0292 0.12675 -0.06595Zm-1.139325 -1.060025c0.18385 -0.04665 0.2306 -0.068325 0.519825 -0.241225 0.958675 -0.573075 0.9603 -1.962175 0.002975 -2.5144 -0.06435 -0.037125 -0.1584 -0.091875 -0.208975 -0.12165 -0.45925 -0.270525 -0.900475 -0.255875 -1.788775 0.059475 -0.1609 0.057125 -0.313625 0.1034 -0.33935 0.102825 -0.034725 -0.00075 -0.0508 0.009475 -0.062275 0.039675 -0.008525 0.022375 -0.021925 0.0407 -0.029775 0.0407 -0.037625 0 -0.120275 0.1495 -0.120275 0.21755 0 0.0427 -0.025725 0.133775 -0.066 0.23365 -0.481525 1.194375 0.784425 2.51525 2.092625 2.1834Zm-1.676525 -0.94625c-0.44425 -0.07525 -0.528475 -0.4767 -0.17785 -0.847825 0.271125 -0.286975 0.574925 -0.3146 0.814625 -0.07405 0.4888 0.4906 0.1042 1.047375 -0.636775 0.921875Zm6.4208 0.71065c1.0619 -0.211225 1.492625 -1.37875 0.847725 -2.297825 -0.980075 -1.3967 -3.39265 -0.584425 -3.104025 1.0451 0.172525 0.974075 1.091625 1.484375 2.2563 1.252725Zm-1.715375 -0.794625c-0.463625 -0.091925 -0.54855 -0.65995 -0.157575 -1.053625 0.344825 -0.347175 0.835 -0.146975 0.994675 0.406225 0.049725 0.17235 0.018825 0.19635 -0.2365 0.183825 -0.29445 -0.01445 -0.3179 0.0124 -0.1323 0.151625 0.1471 0.11035 0.1911 0.166525 0.159875 0.204125 -0.076525 0.092225 -0.4144 0.1502 -0.628175 0.107825Zm0.01825 -4.0361c0.11955 -0.004925 0.243675 -0.01335 0.27585 -0.018725 0.032175 -0.005375 0.081075 -0.01235 0.108675 -0.015475 0.027575 -0.00315 0.084 -0.01005 0.125375 -0.015325 0.041375 -0.0053 0.10155 -0.012925 0.13375 -0.017 0.032175 -0.00405 0.084825 -0.011625 0.117 -0.01685 0.0322 -0.0052 0.0811 -0.0127 0.108675 -0.01665 0.050825 -0.0073 0.218025 -0.036325 0.47645 -0.08265 1.1083 -0.198775 1.88125 -0.5559 2.710325 -1.2523 0.02415 -0.020275 0.0758 -0.063175 0.114825 -0.095375 0.039 -0.032175 0.102725 -0.0886 0.1416 -0.125375 0.03885 -0.036775 0.121425 -0.112 0.1835 -0.167175 0.062075 -0.055175 0.1523 -0.137925 0.2005 -0.1839 0.172575 -0.164575 0.357425 -0.3315 0.513025 -0.463175 0.040275 -0.0341 0.095775 -0.08125 0.123375 -0.1048 0.027575 -0.023525 0.085575 -0.070875 0.128875 -0.1052 0.0552 -0.043725 0.08205 -0.0789 0.0898 -0.117525 0.009925 -0.049575 0.0162 -0.054625 0.06255 -0.05015 0.04045 0.0039 0.0559 -0.0037 0.071975 -0.035475 0.011275 -0.022225 0.032325 -0.04705 0.0468 -0.05515 0.018675 -0.01045 0.0263 -0.039975 0.0263 -0.101875 0 -0.07435 0.005525 -0.089575 0.0376 -0.10365 0.0207 -0.009075 0.0399 -0.0324 0.042675 -0.051825 0.00275 -0.019425 0.02285 -0.04345 0.04465 -0.053375 0.032575 -0.01485 0.041675 -0.035275 0.05135 -0.115125 0.00645 -0.0534 0.017225 -0.104625 0.02395 -0.113825 0.0067 -0.009175 0.020125 -0.0468 0.0298 -0.083575 0.0097 -0.036775 0.0327 -0.10825 0.05115 -0.158825 0.0268 -0.073425 0.0359 -0.1542 0.045175 -0.401225 0.0127 -0.337825 0.024475 -0.445575 0.06935 -0.63525 0.036 -0.152125 0.036925 -1.166625 0.0014 -1.5631 -0.02215 -0.247425 -0.4787 -0.340375 -0.816675 -0.16625 -0.0558 0.02875 -1.4101 0.189275 -2.45585 0.291125 -0.806575 0.078525 -1.839925 0.1594 -2.574525 0.201475 -0.179275 0.010275 -0.44635 0.026 -0.593475 0.034975 -0.34845 0.02125 -0.40765 0.0205 -0.4389 -0.005425 -0.018325 -0.015175 -0.082475 -0.020825 -0.217175 -0.01905 -0.18205 0.002375 -0.190775 0.000925 -0.182625 -0.030175 0.01365 -0.052225 -0.0328 -0.058675 -0.50705 -0.0703 -4.15225 -0.101825 -6.411775 -0.218525 -7.9822 -0.4122 -0.1752 -0.0216 -0.175975 -0.021525 -0.175975 0.0152 0 0.0514 0.1405 0.19245 0.2497 0.25065 0.12215 0.065125 0.12565 0.08015 0.02195 0.09425 -0.165275 0.02245 -0.16045 0.0006 -0.087175 0.3951 0.215225 1.158525 0.577425 1.44925 1.225675 0.9837 0.196975 -0.14145 1.299175 -0.331975 2.317875 -0.400625 0.444925 -0.029975 0.52795 -0.0344 1.120075 -0.059575 0.6839 -0.029075 0.848725 -0.030775 0.826475 -0.008525 -0.021925 0.02195 -0.627275 0.107025 -1.13575 0.159625 -1.4928 0.15445 -1.6915 0.17965 -2.2318 0.2831 -0.160925 0.0308 -0.360275 0.0644 -0.443025 0.074675 -0.895725 0.11115 -1.2037 1.1392 -0.359425 1.199775 0.301375 0.021625 0.769 0.132 0.769 0.1815 0 0.01995 0.032275 0.0245 0.1735 0.0245 0.158675 0 0.175525 0.00305 0.197225 0.035725 0.019825 0.02985 0.0448 0.037075 0.15185 0.04395 0.096725 0.0062 0.135075 0.0159 0.15645 0.0395 0.01815 0.020075 0.051 0.031275 0.0916 0.031275 0.0348 0 0.06795 0.007525 0.073625 0.016725 0.005675 0.0092 0.0489 0.016725 0.096025 0.016725 0.065875 0 0.09495 0.0087 0.1257 0.0376 0.03825 0.03595 0.0546 0.03785 0.368875 0.043025 0.29325 0.0048 0.332475 0.008775 0.3623 0.03655 0.045875 0.04275 0.1905 0.05175 0.22805 0.0142 0.0594 -0.0594 0.3196 -0.1016 0.610375 -0.098975 0.24015 0.002175 0.513175 -0.023475 0.62855 -0.059075 0.077975 -0.02405 -0.0922 0.31135 -0.17555 0.345975 -0.025275 0.0105 -0.0461 0.0276 -0.046275 0.037975 -0.001 0.05885 -0.1051 0.1805 -0.188 0.21965 -0.71435 0.33735 -0.727 1.070975 -0.026325 1.526475 0.4539 0.29505 0.538525 0.34645 0.732875 0.445025 0.457725 0.232125 1.061675 0.420675 1.55475 0.48535 0.041375 0.005425 0.094025 0.013225 0.117 0.017325 0.04915 0.008775 0.174975 0.02375 0.292575 0.0348 0.045975 0.004325 0.1212 0.011675 0.167175 0.016325 0.045975 0.004625 0.153 0.0105 0.23785 0.013025 0.08485 0.00255 0.157575 0.007925 0.1616 0.01195 0.0097 0.009675 1.14465 0.002725 1.42275 -0.0087ZM5.4088 5.025275c0 -0.012475 0.025175 -0.055725 0.055975 -0.096125 0.07705 -0.10105 0.1112 -0.1716 0.1112 -0.22965 0 -0.037125 0.0092 -0.051425 0.0376 -0.05835 0.7993 -0.195375 1.600075 -0.309925 2.24435 -0.32105 3.9245 -0.067875 4.754275 -0.0937 5.8595 -0.182375 0.294025 -0.0236 0.2995 -0.0223 0.3689 0.08715 0.17925 0.28265 -0.0922 0.38055 -1.0376 0.374225 -1.5102 -0.0101 -1.406175 -0.005275 -1.7933 -0.08315 -0.50955 -0.1025 -0.669425 -0.095475 -0.825525 0.036325 -0.052675 0.044475 -0.052675 0.044475 -0.22655 -0.013725 -0.431975 -0.14455 -0.8612 -0.147325 -1.79375 -0.0116 -0.321825 0.046825 -0.687 0.0926 -0.811525 0.10175 -0.43375 0.0318 -0.9057 0.11935 -1.6364 0.3036 -0.471525 0.1189 -0.552875 0.1326 -0.552875 0.092975Z" stroke-width="0.25"></path>
  <path fill="#1b6f95" d="M12.17105 23.7443c-2.1998 -0.117775 -3.24705 -0.2908 -4.3382 -0.7167 -0.4746 -0.185225 -0.47585 -0.18605 -0.524325 -0.34515 -0.2939 -0.96445 -0.600425 -2.21375 -0.856625 -3.491125 -0.149 -0.742975 -0.200425 -0.97435 -0.49825 -2.24145 -0.753625 -3.2064 -0.9459 -4.5387 -0.695425 -4.819025 0.0831 -0.093 0.1499 0.016075 0.223475 0.364775 0.419525 1.988375 1.1052 4.591525 1.618275 6.1437 0.191925 0.5806 0.1594 0.524925 0.29965 0.513175 0.145375 -0.0122 0.147725 -0.00715 0.075175 0.16175 -0.1346 0.313375 -0.06815 0.472125 0.35385 0.845375 0.17895 0.158275 0.162425 0.204725 -0.0614 0.172475 -0.155025 -0.022325 -0.14465 -0.044025 -0.086825 0.181325 0.026875 0.1048 0.064525 0.26575 0.08365 0.3577 0.2944 1.4147 0.59 1.9171 1.20185 2.0426 1.8909 0.387875 4.048725 0.454775 6.9017 0.214025 1.1209 -0.0946 1.99415 -0.4429 2.273525 -0.90685 0.072225 -0.11995 0.074175 -0.114425 -0.04515 -0.1269 -0.192575 -0.020125 -0.1875 -0.0668 0.016425 -0.151325 0.302175 -0.12525 0.396525 -0.223775 0.39185 -0.409325 -0.002025 -0.0805 0.00965 -0.14615 0.044775 -0.251825 0.119275 -0.358725 0.143475 -0.63705 0.115775 -1.330825 -0.0234 -0.585175 -0.016325 -0.817525 0.0315 -1.035525 0.0739 -0.336775 0.113325 -0.67265 0.178675 -1.5213 0.0443 -0.575425 0.077 -0.8992 0.116525 -1.153525 0.037225 -0.239375 0.05635 -0.494625 0.083325 -1.1117 0.03055 -0.6991 0.0499 -0.96725 0.0935 -1.295625 0.05425 -0.408425 0.063475 -0.439025 0.16225 -0.537775 0.1415 -0.141525 0.137325 -0.240775 -0.0198 -0.4702 -0.239875 -0.350275 -0.240075 -0.5339 -0.000725 -0.754525 0.09165 -0.084475 0.0946 -0.207275 0.0243 -1.012625 -0.074425 -0.852525 -0.073025 -1.132625 0.005625 -1.12505 0.04035 0.0039 0.055825 -0.003725 0.0719 -0.035475 0.011275 -0.022225 0.032325 -0.04705 0.046775 -0.05515 0.0187 -0.01045 0.026325 -0.039975 0.026325 -0.101875 0 -0.07435 0.005525 -0.089575 0.0376 -0.10365 0.0207 -0.009075 0.0399 -0.0324 0.042675 -0.051825 0.00275 -0.019425 0.02285 -0.04345 0.04465 -0.053375 0.032575 -0.01485 0.041675 -0.035275 0.05135 -0.115125 0.00645 -0.0534 0.017225 -0.104625 0.02395 -0.113825 0.0067 -0.009175 0.020125 -0.0468 0.0298 -0.083575 0.0097 -0.036775 0.0327 -0.10825 0.05115 -0.158825 0.0268 -0.073425 0.0359 -0.1542 0.045175 -0.401225 0.0127 -0.337825 0.024475 -0.445575 0.06935 -0.63525 0.036 -0.152125 0.036925 -1.166625 0.0014 -1.5631 -0.02215 -0.247425 -0.4787 -0.340375 -0.816675 -0.16625 -0.0558 0.02875 -1.4101 0.189275 -2.45585 0.291125 -0.806575 0.078525 -1.839925 0.1594 -2.574525 0.201475 -0.179275 0.010275 -0.44635 0.026 -0.593475 0.034975 -0.34845 0.02125 -0.40765 0.0205 -0.4389 -0.005425 -0.018325 -0.015175 -0.082475 -0.020825 -0.217175 -0.01905 -0.18205 0.002375 -0.190775 0.000925 -0.182625 -0.030175 0.01365 -0.052225 -0.0328 -0.058675 -0.50705 -0.0703 -4.15225 -0.101825 -6.411775 -0.218525 -7.9822 -0.4122 -0.1752 -0.0216 -0.175975 -0.021525 -0.175975 0.0152 0 0.0514 0.1405 0.19245 0.2497 0.25065 0.12215 0.065125 0.12565 0.08015 0.02195 0.09425 -0.165275 0.02245 -0.16045 0.0006 -0.087175 0.3951 0.215225 1.158525 0.577425 1.44925 1.225675 0.9837 0.196975 -0.14145 1.299175 -0.331975 2.317875 -0.400625 0.444925 -0.029975 0.52795 -0.0344 1.120075 -0.059575 0.6839 -0.029075 0.848725 -0.030775 0.826475 -0.008525 -0.021925 0.02195 -0.627275 0.107025 -1.13575 0.159625 -1.4928 0.15445 -1.6915 0.17965 -2.2318 0.2831 -0.160925 0.0308 -0.360275 0.0644 -0.443025 0.074675 -0.895725 0.11115 -1.2037 1.1392 -0.359425 1.199775 0.1463 0.0105 0.685625 0.1124 0.73515 0.1389 0.057575 0.030825 0.042025 0.081725 -0.034975 0.114425 -0.068825 0.029225 -0.068825 0.029225 0.0012 0.07555 0.057325 0.03795 0.0664 0.0507 0.05005 0.0704 -0.030375 0.036625 -0.0451 0.03365 -0.544475 -0.110075 -0.627475 -0.18055 -0.7628 -0.19385 -0.59145 -0.058125 0.13125 0.103975 0.113975 0.146925 -0.040275 0.100125 -0.1392 -0.042225 -0.130975 -0.08415 -0.067325 0.342875 0.01575 0.10575 0.028 0.2205 0.0272 0.255 -0.000775 0.034525 0.009675 0.1135 0.02325 0.17555 0.0633 0.289275 0.069275 0.49015 0.01225 0.412375 -0.039475 -0.053825 -0.1348 -0.385225 -0.189575 -0.659025 -0.2433 -1.21625 -0.67355 -2.3084 -0.49135 -1.247325 0.029975 0.1746 0.1177 0.523925 0.2471 0.983875 0.1107 0.393525 0.17265 0.6932 0.192775 0.93215 0.06405 0.761475 -0.344875 -0.768675 -0.558475 -2.0897 -0.2927 -1.810225 -0.375575 -2.238175 -0.5374 -2.7751 -0.06985 -0.2318 -0.0365 -0.353 0.1512 -0.549125 0.3949 -0.412675 1.289225 -0.64245 1.2236 -0.314375 -0.027075 0.135425 -0.206375 0.220725 -0.660725 0.3143 -0.46995 0.096825 -0.517575 0.1777 -0.256425 0.435725 0.20575 0.203325 1.329175 0.415725 2.629375 0.497125 0.241775 0.01515 0.524275 0.02475 2.0061 0.0682 1.9948 0.0585 3.838425 0.07355 4.304775 0.035175 0.54235 -0.044625 0.604825 -0.044825 0.680775 -0.00215 0.061025 0.0343 0.0764 0.03645 0.145125 0.02015 0.07335 -0.0174 0.1298 -0.01485 0.52215 0.0235 0.0788 0.0077 0.10925 0.0021 0.18615 -0.034275 0.07875 -0.03725 0.098825 -0.040775 0.139825 -0.024425 0.094075 0.037525 1.25005 0.02555 1.6277 -0.016825 1.094125 -0.1228 2.3878 -0.421225 2.8182 -0.6501 0.05065 -0.02695 0.38355 -0.107625 0.60055 -0.14555 0.211225 -0.036925 0.34465 -0.068525 0.43125 -0.102125 0.146675 -0.0569 0.181375 0.719225 0.069575 1.5554 -0.0611 0.456975 -0.0747 0.545525 -0.1067 0.694875 -0.018725 0.08735 -0.04455 0.2077 -0.0574 0.267475 -0.1853 0.8627 -0.34485 2.57775 -0.495375 5.32455 -0.109275 1.994225 -0.16185 2.7328 -0.267175 3.7531 -0.017575 0.1701 -0.036525 0.38075 -0.042125 0.4681 -0.0494 0.770125 -0.160125 1.697925 -0.35165 2.946575 -0.059425 0.38745 -0.07185 0.50585 -0.06395 0.610175 0.081025 1.072925 -0.414175 1.871925 -1.2396 2.000075 -0.08275 0.01285 -0.282875 0.061775 -0.444725 0.10875 -0.817725 0.237325 -1.745425 0.378975 -2.96565 0.452825 -0.789875 0.0478 -1.862425 0.085375 -2.0897 0.0732Zm-0.072475 -0.236225c0.06135 -0.06135 -0.119875 -0.090575 -0.9055 -0.14595 -0.1885 -0.013275 -0.43675 -0.03535 -0.551675 -0.04905 -0.62795 -0.074775 -1.1255 -0.07905 -0.941375 -0.008075 0.333725 0.12865 2.306 0.29565 2.39855 0.203075Zm-4.014975 -0.862775c0 -0.0432 -0.298475 -1.238725 -0.37405 -1.498325 -0.1395 -0.479 -0.38715 -1.069925 -0.4484 -1.069925 -0.057275 0 0.084825 0.8132 0.222025 1.270525 0.180875 0.60295 0.600425 1.509725 0.600425 1.297725Zm-0.51605 -0.07035c0.058 -0.2679 -0.02605 -0.68855 -0.31205 -1.561725 -0.1572 -0.479975 -0.2769 -0.9087 -0.301025 -1.078275 -0.015425 -0.108475 -0.03165 -0.128975 -0.08335 -0.105425 -0.149325 0.068025 -0.126275 0.3068 0.102875 1.065525 0.059525 0.19705 0.119725 0.434 0.1338 0.5266 0.090275 0.593525 0.40825 1.391175 0.45975 1.1533Zm-0.764275 -3.12615c0.038875 -0.251475 -0.042575 -0.72305 -0.2587 -1.4977 -0.082925 -0.297275 -0.176825 -0.670525 -0.208675 -0.829425 -0.07735 -0.38625 -0.20825 -0.648325 -0.20825 -0.416975 0 0.116775 0.185525 1.12655 0.275575 1.499975 0.0233 0.09655 0.061475 0.32975 0.08485 0.51825 0.062075 0.5002 0.101475 0.649825 0.20215 0.767425 0.075575 0.088325 0.09405 0.081525 0.11305 -0.04155Zm3.67095 1.65415c-0.023 -0.003325 -0.1095 -0.0142 -0.19225 -0.024175 -0.082775 -0.009975 -0.394975 -0.06675 -0.6938 -0.12615 -0.621075 -0.123475 -0.940225 -0.1728 -1.120525 -0.173175 -0.19965 -0.000425 -0.2653 -0.08815 -0.1513 -0.202175 0.083575 -0.08355 0.245275 -0.0649 0.745475 0.08595 0.3428 0.103375 0.598075 0.165475 0.751475 0.18275 0.064675 0.0073 0.192825 0.02945 0.284775 0.049225 0.137075 0.029475 1.114325 0.15145 1.213375 0.15145 0.0155 0 0.032125 0.01505 0.036925 0.03345 0.008275 0.031625 -0.68745 0.0498 -0.87415 0.02285Zm1.5798 -0.74795c-0.22305 -0.104975 -0.304425 -0.2631 -0.3513 -0.6826 -0.0633 -0.56665 -0.152475 -0.693 -0.545575 -0.773075 -0.093 -0.01895 -0.107 -0.3227 -0.0233 -0.50555 0.08865 -0.19365 0.290575 -0.416625 0.617825 -0.682275 0.090625 -0.07355 0.21315 -0.1805 0.272275 -0.237675 0.130275 -0.125925 0.14815 -0.1307 0.48145 -0.128325 0.748375 0.005325 1.51245 0.596375 1.74505 1.349925 0.061375 0.19885 0.0547 0.2091 -0.2739 0.421425 -0.4079 0.263575 -0.49425 0.397925 -0.4435 0.690075 0.0784 0.4513 -0.125525 0.5907 -0.66165 0.4523 -0.357475 -0.092275 -0.521425 -0.07145 -0.63775 0.08105 -0.04935 0.064725 -0.06985 0.0664 -0.179625 0.014725Zm1.163775 -0.25885c0.266425 -0.16895 0.313025 -0.55565 0.10295 -0.854275 -0.34835 -0.4952 -0.706825 -0.00765 -0.49865 0.678225 0.06305 0.207725 0.2292 0.28165 0.3957 0.17605Zm-0.8936 -0.049925c0.289575 -0.1489 0.338175 -0.717475 0.084175 -0.984775 -0.1518 -0.15975 -0.374625 0.0712 -0.41475 0.429825 -0.008475 0.075725 -0.0226 0.1689 -0.031425 0.207075 -0.078675 0.340825 0.079725 0.49305 0.362 0.347875Zm-0.50625 -1.139375c0.298 -0.16355 0.54795 -0.173275 1.2057 -0.046925 0.8712 0.167375 1.219975 -0.08515 0.785325 -0.568575 -0.178 -0.197975 -0.3641 -0.2194 -1.011025 -0.1164 -0.43165 0.068725 -0.803675 0.0745 -0.96125 0.01495 -0.191775 -0.072475 -0.312275 -0.0473 -0.460225 0.096175 -0.253025 0.24535 -0.0838 0.614575 0.314725 0.686725 0.00275 0.000475 0.059775 -0.0292 0.12675 -0.06595Zm-1.946925 -0.819375c-1.17335 -0.1986 -1.9743 -1.502025 -1.505 -2.44925 0.194425 -0.3924 0.3798 -0.371175 0.219975 0.0252 -0.518175 1.285275 1.0731 2.7274 2.324625 2.10675 1.22295 -0.6065 1.379725 -2.05085 0.2908 -2.678975 -0.06435 -0.037125 -0.1584 -0.091875 -0.208975 -0.12165 -0.45755 -0.269525 -0.897325 -0.255725 -1.7804 0.0559 -0.2809 0.099125 -0.314375 0.10905 -0.35525 0.105175 -0.03675 -0.0035 -0.0232 -0.025525 0.083625 -0.13615 0.9816 -1.01645 3.1058 -0.28895 3.237875 1.108925 0.115625 1.2237 -1.02165 2.20165 -2.307275 1.984075Zm4.866175 -0.1281c-1.47645 -0.148975 -2.367675 -1.564775 -1.6753 -2.66135 0.922025 -1.460275 3.0458 -1.2677 3.6561 0.331525 0.453275 1.1878 -0.633225 2.465775 -1.9808 2.329825Zm0.6857 -0.34815c1.0619 -0.211225 1.492625 -1.37875 0.847725 -2.297825 -0.980075 -1.3967 -3.39265 -0.584425 -3.104025 1.0451 0.172525 0.974075 1.091625 1.484375 2.2563 1.252725Zm-1.715375 -0.794625c-0.463625 -0.091925 -0.54855 -0.65995 -0.157575 -1.053625 0.344825 -0.347175 0.835 -0.146975 0.994675 0.406225 0.049725 0.17235 0.018825 0.19635 -0.2365 0.183825 -0.29445 -0.01445 -0.3179 0.0124 -0.1323 0.151625 0.1471 0.11035 0.1911 0.166525 0.159875 0.204125 -0.076525 0.092225 -0.4144 0.1502 -0.628175 0.107825Zm-4.705425 0.083975c-0.44425 -0.07525 -0.528475 -0.4767 -0.17785 -0.847825 0.271125 -0.286975 0.574925 -0.3146 0.814625 -0.07405 0.4888 0.4906 0.1042 1.047375 -0.636775 0.921875ZM5.4088 5.025275c0 -0.012475 0.025175 -0.055725 0.055975 -0.096125 0.07705 -0.10105 0.1112 -0.1716 0.1112 -0.22965 0 -0.037125 0.0092 -0.051425 0.0376 -0.05835 0.7993 -0.195375 1.600075 -0.309925 2.24435 -0.32105 3.9245 -0.067875 4.754275 -0.0937 5.8595 -0.182375 0.294025 -0.0236 0.2995 -0.0223 0.3689 0.08715 0.17925 0.28265 -0.0922 0.38055 -1.0376 0.374225 -1.5102 -0.0101 -1.406175 -0.005275 -1.7933 -0.08315 -0.50955 -0.1025 -0.669425 -0.095475 -0.825525 0.036325 -0.052675 0.044475 -0.052675 0.044475 -0.22655 -0.013725 -0.431975 -0.14455 -0.8612 -0.147325 -1.79375 -0.0116 -0.321825 0.046825 -0.687 0.0926 -0.811525 0.10175 -0.43375 0.0318 -0.9057 0.11935 -1.6364 0.3036 -0.471525 0.1189 -0.552875 0.1326 -0.552875 0.092975Z" stroke-width="0.25"></path>
  <path fill="#0c0e0e" d="M12.14595 23.73835c-2.1862 -0.120675 -3.27285 -0.304425 -4.3504 -0.735675 -0.439625 -0.175925 -0.43185 -0.170775 -0.477725 -0.3177 -0.26085 -0.835425 -0.595925 -2.20385 -0.86515 -3.533 -0.1567 -0.77375 -0.21405 -1.03095 -0.511225 -2.293075 -0.736425 -3.127625 -0.957175 -4.731075 -0.65135 -4.731075 0.0724 0 0.093725 0.0619 0.227475 0.66035 0.539 2.411725 1.130725 4.6283 1.61225 6.039525 0.136375 0.39965 0.11585 0.3694 0.24355 0.35915 0.135475 -0.010875 0.13435 -0.01335 0.0653 0.14325 -0.1225 0.277775 -0.046625 0.46725 0.3202 0.7997 0.2065 0.187125 0.205825 0.20865 -0.005625 0.17785 -0.167425 -0.0244 -0.164725 -0.027125 -0.12295 0.12315 0.01875 0.067475 0.07225 0.295725 0.1189 0.5072 0.31145 1.41225 0.593225 1.876525 1.216775 2.00495 1.85835 0.382675 4.190375 0.446725 7.075175 0.194325 1.0016 -0.087625 1.920525 -0.491325 2.147975 -0.943625 0.050125 -0.099675 0.047925 -0.103825 -0.062375 -0.1176 -0.1729 -0.0216 -0.1706 -0.03455 0.020825 -0.117 0.286075 -0.12325 0.375 -0.217325 0.3783 -0.4002 0.0015 -0.0831 0.0179 -0.169075 0.0533 -0.2796 0.11255 -0.3514 0.139025 -0.68845 0.10685 -1.361025 -0.0245 -0.5119 -0.01835 -0.718 0.028225 -0.945 0.0793 -0.386625 0.118875 -0.732825 0.194825 -1.704725 0.02335 -0.29885 0.064375 -0.708825 0.09115 -0.911125 0.051275 -0.3875 0.07625 -0.672075 0.091675 -1.04485 0.0435 -1.05055 0.07535 -1.425625 0.152425 -1.79595 0.02095 -0.100575 0.034875 -0.1272 0.105875 -0.202275 0.156425 -0.165375 0.151125 -0.251475 -0.03255 -0.530025 -0.2177 -0.330175 -0.217725 -0.448575 -0.0001 -0.6865 0.1013 -0.11075 0.10725 -0.30735 0.0342 -1.13085 -0.05415 -0.6105 -0.0544 -1.007575 -0.00065 -1.0205 0.0229 -0.005525 0.050575 -0.027925 0.06145 -0.04975 0.0109 -0.02185 0.03165 -0.04635 0.046125 -0.05445 0.018275 -0.010225 0.0263 -0.039425 0.0263 -0.09585 0 -0.0751 0.003725 -0.0824 0.05015 -0.0986 0.027575 -0.009625 0.05015 -0.029325 0.05015 -0.043775 0 -0.014475 0.017875 -0.03445 0.0397 -0.0444 0.047675 -0.021725 0.086075 -0.1255 0.072175 -0.19505 -0.010125 -0.050625 0.0115 -0.14585 0.069125 -0.3044 0.02665 -0.07325 0.0358 -0.1548 0.04505 -0.401225 0.0127 -0.337825 0.024475 -0.445575 0.069375 -0.63525 0.036 -0.152125 0.0369 -1.166625 0.001375 -1.5631 -0.02215 -0.247425 -0.4787 -0.340375 -0.816675 -0.16625 -0.055775 0.02875 -1.409325 0.1892 -2.45585 0.291125 -1.05575 0.102825 -2.387125 0.200525 -3.109475 0.2282 -0.1609 0.00615 -0.3067 0.016275 -0.323975 0.022475 -0.017275 0.006225 -0.06995 0.00065 -0.117025 -0.012375 -0.15725 -0.043475 -0.21855 -0.051175 -0.332175 -0.041725 -0.107625 0.00895 -0.11285 0.0077 -0.11285 -0.027 0 -0.05525 0.160475 -0.04745 -2.624675 -0.1276 -2.542625 -0.07315 -4.0815 -0.158975 -5.408125 -0.301675 -0.70355 -0.075675 -0.6953 -0.076125 -0.62745 0.03365 0.046975 0.076 0.133775 0.1504 0.235825 0.2021 0.100725 0.05105 0.09545 0.067025 -0.027125 0.08235 -0.1206 0.01505 -0.119225 0.00695 -0.0582 0.3461 0.21995 1.22235 0.551175 1.501925 1.2391 1.046 0.2278 -0.151 1.247025 -0.327925 2.3306 -0.404575 0.678325 -0.048 1.800975 -0.090775 1.77795 -0.067775 -0.022825 0.02285 -0.656925 0.099725 -1.5857 0.192275 -0.811775 0.0809 -1.33035 0.1534 -1.696825 0.237275 -0.08275 0.01895 -0.2157 0.04025 -0.2954 0.047375 -0.9744 0.0871 -1.34585 1.1814 -0.4252 1.252675 0.1021 0.007925 0.196925 0.018875 0.2107 0.02435 0.0138 0.005475 0.1241 0.028175 0.24515 0.05045 0.31145 0.057325 0.343675 0.081025 0.196025 0.144325 -0.089875 0.038525 -0.089875 0.0383 -0.002325 0.0948 0.1126 0.072675 0.038925 0.0665 -0.263575 -0.022125 -0.844125 -0.247275 -1.02415 -0.265425 -0.817 -0.0823 0.0978 0.086425 0.0928 0.099375 -0.025025 0.064825 -0.0615 -0.018025 -0.0941 -0.020675 -0.10615 -0.008625 -0.018425 0.0184 0.02445 0.3505 0.146 1.131225 0.04145 0.26625 -0.115325 -0.128075 -0.17645 -0.443825 -0.1907 -0.98485 -0.492275 -1.923175 -0.575075 -1.789225 -0.0385 0.0623 0.07335 0.6343 0.242375 1.239525 0.172275 0.616725 0.250025 0.99815 0.250025 1.2263 0 0.381175 -0.372675 -1.112075 -0.550425 -2.20545 -0.037375 -0.229875 -0.108925 -0.66995 -0.159025 -0.977975 -0.107475 -0.660825 -0.184775 -1.054075 -0.285825 -1.454425 -0.097825 -0.387575 -0.093625 -0.3729 -0.114125 -0.39895 -0.066625 -0.084725 0.0046 -0.317625 0.14685 -0.48025 0.3448 -0.39415 1.230025 -0.643425 1.230025 -0.34635 0 0.131 -0.18775 0.22075 -0.67705 0.323575 -0.458675 0.0964 -0.499075 0.1769 -0.228425 0.455275 0.087275 0.08975 0.123025 0.10325 0.5377 0.203 0.832675 0.200275 1.687625 0.287375 3.209775 0.326975 0.3632 0.00945 0.9086 0.024875 1.212025 0.034275 1.5666 0.04855 3.331275 0.063575 3.836675 0.032675 0.64355 -0.039375 0.763925 -0.040575 0.835225 -0.008425 0.05795 0.026125 0.076125 0.0273 0.14095 0.00915 0.040925 -0.01145 0.083675 -0.0151 0.095025 -0.008075 0.01135 0.007 0.08905 0.018975 0.172675 0.026575 0.083625 0.007625 0.1875 0.018475 0.2308 0.024125 0.08125 0.0106 0.20935 -0.02385 0.2658 -0.071525 0.021275 -0.01795 0.03705 -0.018675 0.075225 -0.00345 0.094525 0.037675 1.2493 0.02585 1.628125 -0.016675 1.094125 -0.1228 2.387825 -0.421225 2.8182 -0.6501 0.050425 -0.0268 0.382175 -0.1073 0.60055 -0.1457 0.2495 -0.043875 0.317475 -0.05975 0.4064 -0.0949 0.065925 -0.026075 0.093625 -0.030225 0.107625 -0.016225 0.046425 0.046425 0.055375 0.995875 0.01225 1.29815 -0.009175 0.064375 -0.03185 0.24115 -0.050375 0.392875 -0.018525 0.1517 -0.067225 0.44135 -0.108225 0.643625 -0.062025 0.306 -0.1545 0.8526 -0.18525 1.095 -0.136275 1.07455 -0.231525 2.249975 -0.332575 4.104175 -0.1238 2.2721 -0.168675 2.91485 -0.283675 4.06235 -0.0221 0.220675 -0.045025 0.480225 -0.050925 0.576775 -0.041425 0.677325 -0.156025 1.62675 -0.343525 2.845575 -0.055675 0.362 -0.066125 0.4708 -0.066125 0.68895 0 1.1591 -0.41765 1.7968 -1.254475 1.9155 -0.068475 0.0097 -0.195025 0.04025 -0.281275 0.067875 -0.897825 0.2876 -2.208625 0.468925 -3.79715 0.525275 -0.1517 0.005375 -0.36235 0.01675 -0.4681 0.025275 -0.279 0.022475 -0.712325 0.030175 -0.9529 0.0169Zm-0.05585 -0.2185c0.16945 -0.064425 -0.1013 -0.114525 -0.89775 -0.166175 -0.1429 -0.009275 -0.388925 -0.031625 -0.5467 -0.04965 -0.69215 -0.079125 -1.12375 -0.080675 -0.979625 -0.00355 0.2389 0.12785 2.198375 0.3052 2.424075 0.219375Zm-3.9898 -0.851825c0 -0.2927 -0.564775 -2.14595 -0.762875 -2.503225 -0.219125 -0.39525 -0.011275 0.83195 0.2669 1.57565 0.215 0.57485 0.495975 1.100325 0.495975 0.927575Zm-0.51625 -0.1743c0.0078 -0.396025 -0.03875 -0.61325 -0.312 -1.455425 -0.191475 -0.5902 -0.24215 -0.768175 -0.2921 -1.025875 -0.043875 -0.226375 -0.065875 -0.2508 -0.147675 -0.16375 -0.110475 0.1176 -0.089 0.303125 0.113875 0.9834 0.11975 0.40145 0.1559 0.550625 0.175625 0.724475 0.033075 0.2917 0.266325 0.92985 0.389925 1.06685 0.0416 0.046125 0.0699 -0.004575 0.07235 -0.129675Zm-0.78115 -2.961375c0.069475 -0.181075 -0.021925 -0.7671 -0.24325 -1.5595 -0.147275 -0.527325 -0.199375 -0.7377 -0.2384 -0.9627 -0.042325 -0.244025 -0.167325 -0.469425 -0.201175 -0.362725 -0.0186 0.058575 0.200525 1.2917 0.28265 1.590675 0.0139 0.050575 0.044675 0.246175 0.0684 0.434675 0.0829 0.6585 0.2464 1.0821 0.331775 0.859575Zm3.738175 1.552925c-0.169625 -0.01285 -0.5686 -0.07965 -0.977975 -0.16375 -0.519175 -0.10665 -0.70915 -0.1372 -1.019775 -0.163975 -0.23405 -0.020175 -0.23405 -0.020175 -0.238975 -0.070325 -0.016725 -0.1706 0.160525 -0.171025 0.732175 -0.001675 0.434425 0.1287 0.559875 0.1596 0.69375 0.170975 0.06435 0.005475 0.173425 0.024275 0.2424 0.0418 0.13435 0.03415 0.456075 0.07985 0.86095 0.122325 0.349475 0.036675 0.3927 0.04415 0.351075 0.0606 -0.032325 0.012775 -0.490325 0.01565 -0.643625 0.004025Zm1.512925 -0.76005c-0.2118 -0.1094 -0.282975 -0.26045 -0.3338 -0.7082 -0.038975 -0.3434 -0.071725 -0.451325 -0.1701 -0.560175 -0.073825 -0.08175 -0.1943 -0.1467 -0.298525 -0.161 -0.373225 -0.05115 -0.1336 -0.6177 0.47645 -1.126475 0.114925 -0.09585 0.2588 -0.220825 0.319725 -0.277725 0.12995 -0.1214 0.1693 -0.1325 0.457625 -0.128975 0.718525 0.00875 1.471125 0.592325 1.712625 1.3279 0.0648 0.1974 0.06815 0.192425 -0.286875 0.422625 -0.398775 0.258575 -0.48635 0.42015 -0.413025 0.762025 0.07385 0.3443 -0.181675 0.492675 -0.61985 0.35995 -0.310825 -0.094175 -0.56745 -0.0646 -0.6725 0.07745 -0.042225 0.05715 -0.080125 0.059925 -0.17175 0.0126Zm1.1068 -0.190025c0.4669 -0.195075 0.3119 -1.194625 -0.1712 -1.104 -0.280375 0.0526 -0.327925 0.89795 -0.060375 1.07325 0.0868 0.056875 0.149225 0.06515 0.231575 0.03075Zm-0.848275 -0.07755c0.31195 -0.133975 0.36815 -0.772875 0.0895 -1.01755 -0.134275 -0.117875 -0.35425 0.071525 -0.397775 0.342475 -0.0045 0.027975 -0.02335 0.142325 -0.0419 0.25415 -0.073625 0.4439 0.02385 0.561075 0.350175 0.420925Zm-0.479225 -1.14965c0.285275 -0.155575 0.5365 -0.166325 1.1433 -0.0489 0.606625 0.1174 1.02485 0.06745 1.01135 -0.120775 -0.0139 -0.193775 -0.0975 -0.395375 -0.202 -0.48715 -0.200475 -0.176 -0.3685 -0.18355 -1.205325 -0.054075 -0.3362 0.052 -0.67875 0.030325 -0.840275 -0.0532 -0.100775 -0.052125 -0.34575 0.06815 -0.435325 0.213725 -0.203975 0.331475 0.18555 0.7373 0.528275 0.550375Zm-1.901 -0.837725c-1.253675 -0.197125 -2.0992 -1.640375 -1.4821 -2.529775 0.182725 -0.26335 0.25315 -0.20095 0.129775 0.114925 -0.523875 1.34125 1.0819 2.75705 2.37935 2.097875 1.233375 -0.626625 1.321375 -2.082325 0.164325 -2.71835 -0.07675 -0.0422 -0.177175 -0.0984 -0.22315 -0.12485 -0.385125 -0.2218 -0.8739 -0.18425 -1.7692 0.135875 -0.304275 0.1088 -0.311425 0.104975 -0.132425 -0.070875 0.65155 -0.6401 1.948875 -0.54845 2.68125 0.189425 1.18975 1.198675 -0.002175 3.180225 -1.747825 2.90575Zm4.855025 -0.135375c-1.400925 -0.11895 -2.326125 -1.404875 -1.784475 -2.480275 0.8429 -1.6735 3.23985 -1.41315 3.761775 0.4086 0.294375 1.027525 -0.7978 2.17185 -1.9773 2.071675Zm0.254275 -0.285025c1.442825 0.041375 2.06725 -1.57815 1.00755 -2.613175 -0.7581 -0.740475 -2.26715 -0.515925 -2.748325 0.4089 -0.5175 0.994725 0.297175 2.286125 1.394575 2.210625 0.091925 -0.006325 0.247725 -0.009175 0.3462 -0.00635Zm-1.386275 -0.857025c-0.358925 -0.112175 -0.45255 -0.510775 -0.208625 -0.8882 0.314175 -0.486075 0.869575 -0.373025 1.073075 0.21845 0.071875 0.2089 0.049475 0.234425 -0.191325 0.218 -0.302875 -0.020625 -0.3604 0.023975 -0.188925 0.146525 0.202125 0.144425 0.238225 0.206725 0.1471 0.253825 -0.136125 0.0704 -0.480725 0.098475 -0.6313 0.0514Zm-4.5436 0.1086c-0.4488 -0.043925 -0.6045 -0.279875 -0.425125 -0.64425 0.206475 -0.4194 0.673275 -0.555775 0.94955 -0.277425 0.451225 0.454625 0.148025 0.987475 -0.524425 0.921675ZM5.418125 5.03285c-0.005125 -0.0083 0.02425 -0.05975 0.065275 -0.114325 0.079875 -0.10625 0.109275 -0.167675 0.109275 -0.228425 0 -0.0363 0.01945 -0.042025 0.4221 -0.1245 1.1366 -0.2328 0.974225 -0.22095 3.690425 -0.2692 2.0716 -0.0368 3.165 -0.07805 4.061875 -0.153275 0.244 -0.02045 0.308325 0.00895 0.349475 0.1599 0.067575 0.2477 -0.129025 0.285825 -1.45235 0.2816 -1.1251 -0.0036 -0.946025 0.0099 -1.638325 -0.123575 -0.28975 -0.05585 -0.49155 -0.027375 -0.591875 0.083575 -0.04045 0.044725 -0.056225 0.0442 -0.196275 -0.006325 -0.25055 -0.090375 -0.4272 -0.115425 -0.808375 -0.114675 -0.3652 0.0007 -0.409925 0.00525 -1.1953 0.12125 -0.1885 0.02785 -0.444275 0.058575 -0.5684 0.068275 -0.538675 0.042125 -1.097125 0.148075 -1.93735 0.367575 -0.275375 0.07195 -0.2958 0.075375 -0.310175 0.052125Z" stroke-width="0.25"></path>
</svg>