<svg xmlns="http://www.w3.org/2000/svg" fill="none" viewBox="0 0 24 24" id="Milvus--Streamline-Svg-Logos" height="24" width="24">
  <desc>
    Milvus Streamline Icon: https://streamlinehq.com
  </desc>
  <path fill="#4fc4f9" d="M2.04394 10.09175c1.050985 -1.0548 2.75521 -1.0548 3.806185 0 1.05265 1.054775 1.05265 2.764925 0 3.818 -1.050975 1.05305 -2.7552 1.05305 -3.806185 -0.00175l-1.7177825 -1.723975c-0.10154325 -0.102025 -0.10154325 -0.266275 0 -0.3683l1.7177825 -1.723975ZM5.44225 10.5984c-0.771725 -0.774675 -2.0241 -0.774675 -2.795825 0l-1.2625225 1.26575c-0.0744675 0.076075 -0.0744675 0.1971 0 0.271475l1.2641975 1.267475c0.77175 0.77465 2.0241 0.77465 2.79585 0 0.771725 -0.774675 0.771725 -2.03005 -0.0017 -2.8047Zm-1.387825 0.05015c0.731875 0 1.32515 0.606175 1.32515 1.353925s-0.593275 1.353925 -1.32515 1.353925c-0.73185 0 -1.325125 -0.606175 -1.325125 -1.353925s0.593275 -1.353925 1.325125 -1.353925Zm4.04655 1.168875 -0.7565 -0.772925c-0.0457 -0.0467 -0.121875 -0.00345 -0.106625 0.060525 0.130325 0.589625 0.130325 1.205225 0 1.794875 -0.01355 0.063975 0.0626 0.10545 0.106625 0.0605l0.7565 -0.772925c0.093975 -0.09765 0.0995 -0.2489 0.016575 -0.351425l-0.016575 -0.018625Z" stroke-width="0.25"></path>
  <path fill="#4fc4f9" d="M9.685425 11.7637c0 -0.144 0.0243 -0.268125 0.0729 -0.3724 0.048575 -0.1043 0.1166 -0.19365 0.2041 -0.26815 0.087475 -0.074475 0.189525 -0.1291 0.306175 -0.16385 0.116625 -0.034775 0.247875 -0.054625 0.38395 -0.054625 0.170075 0 0.32075 0.029775 0.456825 0.089375 0.1312 0.0596 0.242975 0.139025 0.3256 0.2433 0.0826 -0.104275 0.18955 -0.1837 0.320775 -0.2433 0.1312 -0.0596 0.28185 -0.089375 0.45195 -0.089375 0.136075 0 0.262425 0.01985 0.379075 0.054625 0.116625 0.03475 0.218675 0.089375 0.30615 0.16385 0.087475 0.0745 0.155525 0.16385 0.204125 0.26815 0.0486 0.104275 0.072925 0.2284 0.072925 0.3724v1.420125h-0.685275v-1.2215c0 -0.148975 -0.029125 -0.25325 -0.08745 -0.3178 -0.058325 -0.06455 -0.14095 -0.094325 -0.252725 -0.094325 -0.111775 0 -0.199275 0.0397 -0.272175 0.114175 -0.068025 0.0745 -0.10205 0.193675 -0.10205 0.3625v1.161925h-0.685225v-1.161925c0 -0.163875 -0.034025 -0.283025 -0.102075 -0.3625 -0.068025 -0.074475 -0.155525 -0.114175 -0.2673 -0.114175 -0.106925 0 -0.194375 0.029775 -0.2527 0.094325 -0.0632 0.06455 -0.09235 0.168825 -0.09235 0.3178v1.2215h-0.685225v-1.420125Zm4.05315 -1.39035c0 -0.109225 0.03405 -0.203575 0.106925 -0.27805 0.0729 -0.0745 0.160375 -0.114225 0.272175 -0.114225 0.1069 0 0.19925 0.039725 0.27215 0.114225 0.0729 0.074475 0.111775 0.168825 0.111775 0.27805 0 0.10925 -0.038875 0.2036 -0.111775 0.278075 -0.0729 0.074475 -0.16525 0.10925 -0.27215 0.10925 -0.106925 0 -0.199275 -0.034775 -0.272175 -0.10925 -0.068025 -0.07945 -0.106925 -0.168825 -0.106925 -0.278075Zm0.0389 0.903725c0 -0.1142 0.034 -0.19365 0.0972 -0.23835 0.063175 -0.0447 0.15065 -0.0695 0.257575 -0.0695 0.07775 0 0.1458 0.009925 0.208975 0.029775l0.07715 0.022975c0.02005 0.005575 0.034625 0.0093 0.04435 0.011775v2.15505h-0.68525v-1.911725Zm1.316975 -0.988125c0 -0.114225 0.034025 -0.19365 0.0972 -0.23835 0.063175 -0.0447 0.15065 -0.069525 0.257575 -0.069525 0.07775 0 0.1458 0.009925 0.208975 0.0298l0.061075 0.018425c0.028525 0.008175 0.048275 0.013225 0.060425 0.016325v3.1382h-0.68525V10.28895Zm1.939025 2.894875c-0.0875 -0.1589 -0.174975 -0.322775 -0.25755 -0.491575l-0.11965 -0.245175c-0.0255 -0.052575 -0.0502 -0.103725 -0.0739 -0.15335l-0.08395 -0.178175c-0.047175 -0.101725 -0.088175 -0.19295 -0.12105 -0.26745l-0.04545 -0.106375c-0.01925 -0.043975 -0.033275 -0.07435 -0.042025 -0.092225 -0.018225 -0.0447 -0.03645 -0.092175 -0.054675 -0.14245l-0.018225 -0.051225c-0.02905 -0.074475 -0.0389 -0.139025 -0.0389 -0.19365 0 -0.07945 0.029225 -0.14895 0.0875 -0.20855 0.058425 -0.054625 0.141 -0.0844 0.2577 -0.0844 0.09225 0 0.16515 0.009925 0.223575 0.029775l0.086025 0.030025c0.005025 0.00195 0.008675 0.0035 0.01115 0.004725 0.048575 0.144025 0.097175 0.288025 0.15545 0.432025 0.0321 0.0864 0.06415 0.169225 0.09515 0.24845l0.0603 0.15375c0.04875 0.124125 0.0924 0.233375 0.136075 0.327725l0.039675 0.093825c0.01975 0.045425 0.0357 0.07995 0.047825 0.1048l0.015675 -0.03445c0.0141 -0.0326 0.031 -0.074875 0.053125 -0.126875l0.013925 -0.032325c0.0311 -0.071525 0.062125 -0.15255 0.095725 -0.23805l0.268675 -0.6806 0.027425 -0.063925c0.004575 -0.010225 0.009275 -0.020325 0.014375 -0.030325l0.016625 -0.029875c0.019375 -0.039725 0.0486 -0.069525 0.07765 -0.0993 0.029225 -0.0298 0.068125 -0.04965 0.107025 -0.064575 0.043675 -0.014875 0.097175 -0.01985 0.15545 -0.01985 0.046625 0 0.087025 0.003175 0.126225 0.012075l0.029225 0.007775c0.043825 0.00995 0.087475 0.02485 0.121625 0.039725l0.038175 0.017575c0.0176 0.00845 0.032775 0.0162 0.0444 0.022175 0.019375 0.014875 0.033975 0.01985 0.0389 0.024825 -0.0097 0.0546 -0.0389 0.1291 -0.082575 0.238325l-0.103 0.25025c-0.015175 0.03645 -0.031025 0.073925 -0.047675 0.11225l-0.072375 0.165325c-0.0373 0.084725 -0.07635 0.172325 -0.117225 0.2617l-0.151025 0.326775 -0.04825 0.105225c-0.0632 0.139025 -0.1264 0.263175 -0.18465 0.377375l-0.041 0.07805c-0.038275 0.074025 -0.068375 0.135475 -0.090175 0.18015h-0.651325v-0.009925Zm2.6293 -1.032825c0 0.3029 0.13115 0.451875 0.39855 0.451875 0.267225 0 0.39855 -0.148975 0.39855 -0.451875v-0.873925c0 -0.1142 0.033975 -0.19365 0.097175 -0.23835 0.0632 -0.0447 0.150525 -0.0695 0.25755 -0.0695 0.0778 0 0.14575 0.009925 0.20895 0.029775l0.077175 0.022975c0.02005 0.005575 0.034625 0.0093 0.0443 0.011775v1.24635c0 0.163875 -0.029225 0.3029 -0.082575 0.422075 -0.0535 0.119175 -0.1313 0.218475 -0.228475 0.297925 -0.097175 0.07945 -0.208975 0.13905 -0.34505 0.17875 -0.13115 0.039725 -0.276925 0.0596 -0.4276 0.0596 -0.1556 0 -0.29645 -0.019875 -0.427775 -0.0596 -0.13115 -0.0397 -0.24785 -0.0993 -0.345025 -0.17875 -0.097175 -0.07945 -0.17005 -0.17875 -0.228325 -0.297925 -0.053525 -0.119175 -0.082725 -0.263175 -0.082725 -0.422075v-1.003025c0 -0.1142 0.034125 -0.19365 0.097325 -0.23835 0.06305 -0.0447 0.150525 -0.0695 0.25755 -0.0695 0.07765 0 0.14575 0.009925 0.20895 0.029775l0.077175 0.022975c0.02005 0.005575 0.034625 0.0093 0.0443 0.011775v1.11725Zm2.17725 0.357525c0.0243 0.01985 0.058275 0.039725 0.111775 0.06455 0.053525 0.024825 0.1167 0.04965 0.1896 0.069525 0.072875 0.01985 0.15545 0.039725 0.24785 0.0546 0.09225 0.0149 0.189425 0.02485 0.291525 0.02485 0.1167 0 0.2042 -0.00995 0.262475 -0.03475 0.058275 -0.019875 0.0875 -0.0596 0.0875 -0.114225 0 -0.0596 -0.0243 -0.0993 -0.0729 -0.119175 -0.048575 -0.01985 -0.126375 -0.039725 -0.23325 -0.054625l-0.22355 -0.024825c-0.1118 -0.0149 -0.218825 -0.03475 -0.32075 -0.06455 -0.1021 -0.029775 -0.194525 -0.0695 -0.27215 -0.124125 -0.077825 -0.054625 -0.141 -0.12415 -0.184675 -0.20855 -0.043825 -0.084425 -0.068125 -0.1887 -0.068125 -0.3178 0 -0.109225 0.019375 -0.20855 0.058275 -0.297925 0.0389 -0.0894 0.097175 -0.168825 0.1799 -0.23835 0.07225 -0.060825 0.1631 -0.11025 0.26935 -0.144925l0.046475 -0.013975c0.1264 -0.039725 0.28185 -0.059575 0.456825 -0.059575 0.1799 0 0.330575 0.009925 0.46175 0.03475 0.13115 0.024825 0.238175 0.0596 0.33535 0.10925 0.0535 0.029775 0.097175 0.06455 0.13115 0.104275 0.034125 0.039725 0.048575 0.09435 0.048575 0.153925 0 0.0447 -0.009675 0.089375 -0.02905 0.124125 -0.019525 0.034775 -0.0389 0.069525 -0.0632 0.09435 -0.018225 0.018625 -0.036425 0.03445 -0.05265 0.0475l-0.01545 0.0121c-0.019375 0.0149 -0.034 0.024825 -0.038925 0.024825 -0.009675 -0.009925 -0.033975 -0.024825 -0.06795 -0.04965 -0.0389 -0.02485 -0.0875 -0.0447 -0.15545 -0.069525 -0.0632 -0.019875 -0.141 -0.039725 -0.228475 -0.0596 -0.0875 -0.01985 -0.1896 -0.0248 -0.30615 -0.0248 -0.1264 0 -0.2188 0.014875 -0.2674 0.044675 -0.048575 0.0298 -0.072875 0.0695 -0.072875 0.119175 0 0.04965 0.0243 0.084425 0.068125 0.104275 0.043675 0.01985 0.111775 0.039725 0.204025 0.054625l0.388875 0.0546c0.097175 0.014925 0.189425 0.034775 0.276925 0.064575 0.087475 0.029775 0.1702 0.0695 0.238175 0.11915 0.0681 0.054625 0.126375 0.119175 0.165275 0.198625 0.0389 0.07945 0.0632 0.178775 0.0632 0.297925 0 0.2433 -0.0924 0.432 -0.27215 0.57105 -0.1799 0.13405 -0.432525 0.203575 -0.753275 0.203575 -0.1653 0 -0.315975 -0.009925 -0.447125 -0.034775 -0.131325 -0.0248 -0.238175 -0.04965 -0.33535 -0.079425 -0.092425 -0.0298 -0.170075 -0.06455 -0.2285 -0.09435l-0.121475 -0.0745 0.247875 -0.446875Z" stroke-width="0.25"></path>
</svg>