<svg width="27" height="18" viewBox="0 0 27 18" fill="none" xmlns="http://www.w3.org/2000/svg">
<g clip-path="url(#clip0_1741_11701)">
<path d="M8.03197 11.8778L8.85252 14.4817C9.03688 15.0729 9.11377 15.4856 9.08297 15.7209C9.53174 14.5454 9.84531 13.2643 10.0237 11.8778H11.0104C10.5861 14.1351 10.0266 15.7754 9.33198 16.7987C8.79082 17.5872 8.19798 17.9814 7.55241 17.9814C7.38028 17.9814 7.16808 17.9306 6.91627 17.8296V17.2855C7.0393 17.3031 7.18363 17.3126 7.34964 17.3126C7.65076 17.3125 7.89361 17.231 8.07822 17.068C8.29934 16.8695 8.41002 16.6464 8.41002 16.399C8.41002 16.2302 8.3237 15.8836 8.15184 15.3594L7.00856 11.8778H8.03197ZM1.75199 10.2773L3.25492 14.7622H3.2642L4.77636 10.2773H6.01182C6.28235 12.5015 6.44214 14.5365 6.49118 16.3811H5.44957C5.41287 14.6569 5.31148 13.0353 5.1454 11.5165H5.13633L3.55018 16.3811H2.75695L1.18041 11.5165H1.17112C1.05423 12.9751 0.980473 14.5967 0.949851 16.3811H0C0.0613828 14.2108 0.214998 12.1764 0.460846 10.2773H1.75199Z" fill="#00758F"/>
<path d="M18.5877 10.1866C20.2043 10.1866 21.0127 11.1967 21.0127 13.2161C21.0127 14.3134 20.7696 15.1423 20.2839 15.7023C20.1963 15.8046 20.0996 15.893 19.9977 15.9749L21.1417 16.5281L21.1406 16.5281L20.7344 17.2142L19.2445 16.3639C18.9975 16.4354 18.7259 16.4712 18.4297 16.4712C17.6359 16.4712 17.043 16.2449 16.6509 15.793C16.2206 15.293 16.0056 14.5059 16.0056 13.433C16.0056 12.3419 16.2483 11.5162 16.7342 10.9555C17.1767 10.4426 17.7946 10.1866 18.5877 10.1866ZM13.637 10.1954C14.2148 10.1954 14.7402 10.3466 15.2134 10.648L14.973 11.1718C14.5681 11.0035 14.1688 10.919 13.7751 10.919C13.4557 10.919 13.2095 10.9942 13.0379 11.1455C12.8654 11.2955 12.7586 11.4885 12.7586 11.7237C12.7586 12.0853 13.022 12.3988 13.5082 12.6637C13.6675 12.7489 13.8263 12.835 13.9845 12.9222L14.0208 12.9421L14.039 12.9521L14.0753 12.9721L14.0934 12.9821L14.1297 13.0021C14.4978 13.2051 14.8442 13.3988 14.8442 13.3988C15.3304 13.7363 15.5727 14.0962 15.5727 14.689C15.5727 15.2067 15.3788 15.6316 14.9921 15.9641C14.6052 16.2951 14.0854 16.4611 13.4345 16.4611C12.8256 16.4611 12.2356 16.2701 11.6641 15.8912L11.9314 15.3669C12.4233 15.608 12.8684 15.7284 13.268 15.7284C13.6429 15.7284 13.9363 15.6466 14.1485 15.4849C14.3604 15.3221 14.4873 15.095 14.4873 14.8071C14.4873 14.4446 14.2295 14.1348 13.7567 13.8749C13.6087 13.7949 13.4611 13.7142 13.314 13.6327L13.2777 13.6126C13.2112 13.5758 13.1442 13.5386 13.0785 13.5021L13.0429 13.4823C12.7236 13.3047 12.4475 13.1495 12.4475 13.1495C11.9748 12.8113 11.7378 12.4485 11.7378 11.8506C11.7378 11.3562 11.9146 10.9565 12.2676 10.6525C12.6214 10.3477 13.0779 10.1954 13.637 10.1954ZM22.9127 10.2771V15.6301H24.8764V16.3809H21.9167V10.2771L22.9127 10.2771ZM25.9676 15.6324V15.7593H25.7517V16.3802H25.5866V15.7593H25.3623V15.6324H25.9676ZM26.3662 15.6324L26.5735 16.1422L26.764 15.6324H26.998V16.3802H26.8424V15.8111L26.6256 16.3802H26.5135L26.2964 15.8111H26.288V16.3802H26.1409V15.6324H26.3662ZM18.486 10.9372C17.5333 10.9372 17.0567 11.7062 17.0567 13.2432C17.0567 14.1236 17.183 14.762 17.4351 15.1599C17.6686 15.5281 18.0343 15.7119 18.5323 15.7119C19.485 15.7119 19.9616 14.9369 19.9616 13.3877C19.9616 12.5196 19.8353 11.8867 19.5834 11.4886C19.3497 11.1211 18.9841 10.9372 18.486 10.9372" fill="#F29111"/>
<path d="M15.9889 0.37821C16.3049 -0.381297 17.41 0.193877 17.8388 0.459184C17.9439 0.525562 18.0644 0.665797 18.1849 0.717631C18.3729 0.724852 18.5608 0.739241 18.7491 0.746926C19.1023 0.828107 19.4332 0.894433 19.7115 1.04947C21.005 1.79448 21.847 2.55368 22.6219 3.8077C22.7875 4.07332 22.8702 4.36075 23.0055 4.64818C23.1932 5.07662 23.4042 5.52636 23.6221 5.93149C23.7196 6.12356 23.7951 6.33714 23.9306 6.49934C23.9835 6.57351 24.1337 6.59538 24.2235 6.63968C24.4718 6.76537 24.7726 6.86079 25.0061 7.0083C25.4421 7.27422 25.8638 7.5911 26.247 7.91552C26.3899 8.04074 26.4872 8.21801 26.6233 8.35046V8.4173C26.5025 8.45356 26.3821 8.49069 26.2616 8.52045C25.9984 8.58657 25.7653 8.57162 25.51 8.63779C25.3522 8.68255 25.1563 8.74161 24.9908 8.75662L25.0061 8.77168C25.1034 9.04374 25.6301 9.265 25.871 9.42772C26.1636 9.63423 26.4347 9.88469 26.6529 10.1723C26.7283 10.2457 26.8036 10.3125 26.8786 10.3857C26.931 10.4599 26.9458 10.5558 26.9989 10.6219V10.6443C26.9401 10.624 26.8979 10.5853 26.8579 10.5449L26.834 10.5205C26.8101 10.4963 26.786 10.4724 26.7585 10.4528C26.5925 10.3419 26.4276 10.2093 26.2616 10.1062C25.9762 9.92904 25.6452 9.82625 25.3522 9.64847C25.1865 9.54527 25.0286 9.42772 24.8706 9.30962C24.7274 9.2061 24.5698 9.00733 24.4798 8.85982C24.4268 8.77833 24.4195 8.68255 24.359 8.6236C24.3698 8.52514 24.462 8.4959 24.5551 8.47187L24.5765 8.46635C24.6086 8.4582 24.6401 8.45005 24.6675 8.43927C25.0585 8.27691 25.5246 8.21801 26.1265 8.23276C26.1038 8.08494 25.7277 7.90077 25.6076 7.81226C25.3666 7.64237 25.1114 7.4651 24.8558 7.31048C24.7203 7.22951 24.4869 7.1704 24.3368 7.10423C24.1337 7.02305 23.6823 6.94192 23.5698 6.78729C23.3787 6.54355 23.2413 6.25281 23.108 5.95914L23.0717 5.87899L23.0353 5.79889C22.8778 5.44524 22.682 5.07652 22.5241 4.7144C22.4415 4.53776 22.4036 4.38272 22.3132 4.21329C21.7643 3.17363 20.9521 2.30318 19.9673 1.69102C19.6436 1.49184 19.2828 1.30751 18.8844 1.18223C18.6587 1.11554 18.3877 1.15242 18.1472 1.10125H17.9889C17.8538 1.06402 17.741 0.923935 17.6356 0.850078C17.4027 0.695453 17.1695 0.591631 16.8911 0.48131C16.7935 0.437058 16.515 0.334009 16.4177 0.415138C16.3575 0.42994 16.327 0.45217 16.3121 0.511276C16.2522 0.599471 16.3049 0.73233 16.3422 0.813665C16.4552 1.04937 16.6129 1.18945 16.7562 1.38863C16.8836 1.56528 17.0418 1.76447 17.1322 1.95654C17.3271 2.3694 17.4178 2.82683 17.5984 3.23964C17.6654 3.39489 17.7714 3.57153 17.8689 3.71156C17.9515 3.82271 18.1017 3.90306 18.1472 4.04376C18.2378 4.19127 18.0116 4.67799 17.9592 4.83257C17.7633 5.4374 17.8013 6.27814 18.0268 6.80241L18.0389 6.83005L18.0509 6.85806C18.1333 7.05007 18.2214 7.25684 18.4404 7.31053C18.4555 7.29588 18.4404 7.30357 18.4703 7.29588C18.5233 6.89008 18.5383 6.49929 18.6813 6.18179C18.7639 5.98328 18.9289 5.84294 19.042 5.68089C19.1174 5.72504 19.1174 5.85815 19.1624 5.94624C19.2603 6.17473 19.3654 6.42523 19.486 6.65438C19.7336 7.1263 20.0123 7.58383 20.328 7.99665C20.4338 8.1441 20.5838 8.30641 20.7191 8.43922C20.7794 8.49064 20.8469 8.52035 20.8922 8.58652H20.9069V8.6088C20.6813 8.52746 20.5383 8.29919 20.3584 8.16592C20.0196 7.91541 19.6139 7.53922 19.3804 7.17824C19.2828 6.97101 19.1772 6.77239 19.0719 6.56619V6.55128C19.027 6.61018 19.042 6.66867 19.0195 6.75779C18.9219 7.1263 18.9971 7.5467 18.6587 7.67925C18.2751 7.83449 17.9889 7.42874 17.8689 7.24436C17.4852 6.63236 17.3801 5.59991 17.6506 4.7665C17.7108 4.58201 17.7189 4.36075 17.8239 4.21345C17.8012 4.08028 17.6963 4.04387 17.6356 3.96227C17.5303 3.82281 17.4402 3.66035 17.3578 3.50547C17.1994 3.20292 17.0868 2.84142 16.9666 2.51696C16.9138 2.38446 16.8987 2.25145 16.846 2.12602C16.7561 1.93457 16.5905 1.7425 16.4627 1.57312C16.2897 1.32968 15.7857 0.857866 15.9889 0.37821ZM18.4554 1.82311C18.4755 1.84281 18.4997 1.86004 18.5248 1.87701L18.5551 1.89733C18.5954 1.92466 18.6345 1.95344 18.6584 1.99264C18.6964 2.04452 18.7035 2.09574 18.7489 2.14773C18.7489 2.325 18.6964 2.44285 18.5904 2.51629C18.5904 2.51629 18.5831 2.52403 18.5757 2.53125C18.5156 2.41309 18.4629 2.29555 18.4024 2.17749C18.3278 2.07444 18.2224 1.99269 18.1616 1.87494H18.147V1.86014C18.2378 1.83822 18.3278 1.82311 18.4554 1.82311Z" fill="#00758F"/>
</g>
<defs>
<clipPath id="clip0_1741_11701">
<rect width="27" height="18" fill="white"/>
</clipPath>
</defs>
</svg>
