<svg role="img" viewBox="0 0 24 24" xmlns="http://www.w3.org/2000/svg" id="Onnx--Streamline-Simple-Icons" height="24" width="24">
  <desc>
    Onnx Streamline Icon: https://streamlinehq.com
  </desc>
  <title>ONNX</title>
  <path d="M23.0325 11.2963c-0.0503 0 -0.1006 0 -0.1508 0.0126l-4.021 -7.4387c0.0754 -0.1383 0.1131 -0.289 0.1131 -0.4524 0 -0.5403 -0.4398 -0.9675 -0.9675 -0.9675 -0.2765 0 -0.5278 0.113 -0.7037 0.3015L9.286 1.156C9.2357 0.6785 8.821 0.3016 8.3184 0.3016c-0.5277 0 -0.9675 0.4398 -0.9675 0.9675 0 0.1634 0.0377 0.3141 0.113 0.4524l-6.245 8.9591c-0.0753 -0.0251 -0.1633 -0.0377 -0.2513 -0.0377 -0.5403 0 -0.9675 0.4398 -0.9675 0.9676 0 0.5403 0.4398 0.9675 0.9675 0.9675h0.0377l3.3676 8.3309c-0.0503 0.1257 -0.088 0.2639 -0.088 0.402 0 0.5404 0.4398 0.9676 0.9676 0.9676 0.2764 0 0.5277 -0.113 0.7036 -0.3015l10.1152 0.9926c0.1005 0.4273 0.49 0.7288 0.9424 0.7288 0.5403 0 0.9676 -0.4398 0.9676 -0.9675 0 -0.2388 -0.088 -0.465 -0.2262 -0.6283l5.1141 -8.8712c0.0503 0.0126 0.1005 0.0126 0.1634 0.0126 0.5403 0 0.9675 -0.4398 0.9675 -0.9676 0 -0.5403 -0.4272 -0.98 -0.9675 -0.98zM17.2272 4.021c0.1131 0.1508 0.2765 0.264 0.4524 0.3267l-1.533 11.5728c-0.1005 0.0252 -0.1885 0.0503 -0.2764 0.1005L7.4513 8.708c0.0251 -0.0754 0.0377 -0.1634 0.0377 -0.2514 0 -0.0628 -0.0126 -0.1256 -0.0126 -0.1884zm4.8754 8.5068 -5.177 3.556a1.105 1.105 0 0 0 -0.1256 -0.0753L18.3455 4.335h0.0126l3.9456 7.288c-0.1508 0.1759 -0.2388 0.3895 -0.2388 0.6408 0 0.1005 0.0126 0.1885 0.0377 0.2638zM6.3832 7.5016c-0.4649 0.0754 -0.8293 0.4775 -0.8293 0.955v0.0628l-3.4555 2.0481 5.378 -7.7026zm0.3519 1.91c0.1256 -0.0252 0.2513 -0.088 0.3518 -0.1634l8.356 7.2628c-0.0377 0.113 -0.0628 0.2262 -0.0628 0.3518v0.0503l-9.311 3.845c-0.1382 -0.201 -0.3518 -0.3518 -0.6031 -0.402zm8.8963 8.1172c0.1257 0.1382 0.3016 0.2513 0.5026 0.289l0.465 4.046c-0.201 0.1006 -0.3519 0.264 -0.4524 0.4524l-9.8136 -0.955zm1.1435 0.2136c0.3267 -0.1633 0.5403 -0.49 0.5403 -0.867 0 -0.088 -0.0126 -0.1634 -0.0377 -0.2513l4.7372 -3.2545 -4.8 8.331zm0.2513 -14.3497 -9.889 4.31 -0.1131 -0.0755 1.2565 -5.3906h0.0377c0.3393 0 0.6409 -0.1759 0.8168 -0.4397l7.891 1.5706zM1.935 11.6105c0 -0.0629 -0.0126 -0.1257 -0.0126 -0.1885l3.9079 -2.2995c0.0754 0.0754 0.1633 0.1508 0.2638 0.201L4.8252 20.243l-3.2043 -7.9036c0.1885 -0.176 0.3142 -0.4398 0.3142 -0.7288Z" fill="#000000" stroke-width="1"></path>
</svg>