<svg xmlns="http://www.w3.org/2000/svg" fill="none" viewBox="0 0 24 24" id="Pinecone-Icon--Streamline-Svg-Logos" height="24" width="24">
  <desc>
    Pinecone Icon Streamline Icon: https://streamlinehq.com
  </desc>
  <path fill="#201d1e" d="M10.415975 21.060525c0.742675 0 1.34475 0.60205 1.34475 1.344725 0 0.7427 -0.602075 1.34475 -1.34475 1.34475 -0.742675 0 -1.344725 -0.60205 -1.344725 -1.34475 0 -0.742675 0.60205 -1.344725 1.344725 -1.344725Zm7.460625 -2.45355 1.328875 0.393725 -1.05485 3.560175c-0.092175 0.3111 -0.38785 0.516575 -0.71155 0.494525l-0.325825 -0.02235 -0.007975 0.006575 -3.385325 -0.237575 0.0942 -1.382775 2.27445 0.15435 -1.489025 -2.148 1.139025 -0.7897 1.490975 2.15065 0.647025 -2.1796Zm-14.463625 -2.46115 1.382525 0.097925 -0.161925 2.2741 2.144075 -1.490925 0.791475 1.13775 -2.146875 1.4925 2.19135 0.6457 -0.3917 1.329475 -3.576975 -1.053825c-0.312275 -0.092 -0.518425 -0.388975 -0.4954 -0.713725l0.26345 -3.718975Zm8.926525 -1.9365 2.495225 3.012525 -1.124575 0.931475 -1.485 -1.79285 -0.481425 2.7565 -1.43845 -0.25145 0.481925 -2.760775 -1.999175 1.178725 -0.7412 -1.25815 3.3598 -1.979325c0.308875 -0.181975 0.7042 -0.112775 0.932875 0.163325Zm6.9811 -2.02115 1.24645 -0.67815 1.815825 3.33745c0.159075 0.292375 0.093525 0.656 -0.157625 0.874425l-0.2569 0.221975 -2.621425 2.281375 -0.9312 -1.0707 1.762375 -1.53325 -2.625075 -0.472925 0.251825 -1.39645 2.623225 0.47265 -1.107475 -2.0364ZM4.621 8.698925l0.93895 1.0639 -1.738175 1.533025 2.630075 0.459175 -0.243775 1.3979 -2.632975 -0.45955 1.13095 2.044575 -1.241675 0.686875 -1.84492 -3.33505c-0.16108 -0.291175 -0.098145 -0.6552 0.1513525 -0.8754L4.621 8.698925Zm8.89015 -1.0976 2.486775 3.004425 -1.124875 0.931075 -1.48465 -1.793625 -0.48145 2.757325 -1.438425 -0.25145 0.48025 -2.750075 -1.9915 1.16745 -0.738375 -1.259825 3.05905 -1.79355 0.003025 -0.01165 0.013475 0.00175 0.285075 -0.166225c0.30885 -0.181 0.703375 -0.1114 0.931625 0.164375Zm3.204525 -1.477575 0.543875 -1.310625 3.51805 1.459925c0.30705 0.127425 0.484475 0.451 0.4268 0.7784l-0.058575 0.325675 -0.60075 3.4173 -1.397475 -0.246175 0.402675 -2.28755 -2.334 1.28995 -0.6859 -1.2422 2.338475 -1.291025 -2.153175 -0.893675ZM10.01385 3.54105l0.060475 1.4177 -2.323925 0.099325 1.75275 2.003025 -1.0679 0.934425 -1.7557 -2.00605 -0.40905 2.290225 -1.396825 -0.24985 0.669425 -3.742625c0.0585 -0.3271 0.336175 -0.569775 0.668175 -0.58395l0.32885 -0.0147 0.007375 -0.00535 3.46635 -0.142175ZM14.767625 0.517615 17.24315 3.541l-1.129825 0.9251 -1.469275 -1.79475 -0.495575 2.753675 -1.43715 -0.258625 0.4964 -2.759865 -2.006025 1.172865 -0.736725 -1.2607775L13.83435 0.349775c0.310025 -0.18116675 0.705775 -0.1099955 0.933275 0.16784Z" stroke-width="0.25"></path>
</svg>