<?xml version="1.0" encoding="UTF-8"?>
<svg version="1.1" xmlns="http://www.w3.org/2000/svg" width="552" height="552">
<path d="M0 0 C182.16 0 364.32 0 552 0 C552 182.16 552 364.32 552 552 C369.84 552 187.68 552 0 552 C0 369.84 0 187.68 0 0 Z " fill="#FEFEFE" transform="translate(0,0)"/>
<path d="M0 0 C18.15 0 36.3 0 55 0 C55 132.66 55 265.32 55 402 C36.85 402 18.7 402 0 402 C0 269.34 0 136.68 0 0 Z " fill="#702B4E" transform="translate(364,124)"/>
<path d="M0 0 C18.15 0 36.3 0 55 0 C55 88.77 55 177.54 55 269 C36.85 269 18.7 269 0 269 C0 180.23 0 91.46 0 0 Z " fill="#A33B73" transform="translate(424,257)"/>
<path d="M0 0 C0.76366302 -0.00467997 1.52732604 -0.00935994 2.31413037 -0.01418173 C4.86902664 -0.02613272 7.42338663 -0.01667422 9.97828674 -0.00723267 C11.81163343 -0.01129836 13.64497767 -0.01664023 15.47831726 -0.02316284 C20.4555991 -0.03684346 25.43269446 -0.03153443 30.40997958 -0.02202559 C35.61887538 -0.01443174 40.82775519 -0.02147394 46.03665161 -0.02618408 C54.78529223 -0.03164291 63.53385688 -0.02444716 72.28248596 -0.01016235 C82.39529971 0.00615929 92.50793197 0.00087967 102.62074131 -0.01564157 C111.30368237 -0.02925887 119.98656881 -0.03117474 128.6695171 -0.02332556 C133.85526412 -0.01864974 139.04092587 -0.01802163 144.2266674 -0.02793503 C149.1030679 -0.03660574 153.97923463 -0.03058077 158.85560989 -0.01325226 C160.64464111 -0.00928777 162.43369202 -0.01042082 164.22271538 -0.01704025 C166.66632 -0.02524752 169.10917726 -0.01494437 171.55273438 0 C172.6128139 -0.01003825 172.6128139 -0.01003825 173.69430918 -0.02027929 C178.29861466 0.03427606 181.42328422 0.97507282 185.33985901 3.38095093 C190.10180651 8.50828556 189.9259993 13.40530624 189.87110901 20.03720093 C189.87493591 21.05769531 189.87876282 22.0781897 189.88270569 23.12960815 C189.88542046 25.28127024 189.87808985 27.43296558 189.86134338 29.58456421 C189.83992837 32.8703091 189.86116071 36.15386746 189.88673401 39.43954468 C189.88409066 41.53460157 189.87896553 43.6296571 189.87110901 45.72470093 C189.87920593 46.70297852 189.88730286 47.6812561 189.89564514 48.68917847 C189.81812147 54.35286504 189.42716941 58.09442149 185.33985901 62.38095093 C180.31843329 64.97417752 176.21831152 65.81673217 170.55310059 65.76190186 C169.79997937 65.76658183 169.04685816 65.7712618 168.27091509 65.77608359 C165.76368449 65.78798769 163.25700514 65.77859464 160.74977112 65.76913452 C158.94568565 65.77320223 157.14160268 65.77854523 155.33752441 65.7850647 C150.44919986 65.79871936 145.56106564 65.79344753 140.67273784 65.78392744 C135.55327393 65.77632245 130.43382613 65.78337868 125.31436157 65.78808594 C116.71890848 65.79354054 108.12353277 65.78635908 99.52809143 65.77206421 C89.59359856 65.75573309 79.65929036 65.76103077 69.72480196 65.77754343 C61.19043903 65.79116048 52.65613166 65.79307703 44.12176138 65.78522742 C39.02658757 65.78055279 33.93150054 65.77992041 28.83633232 65.78983688 C24.046906 65.79850762 19.25771767 65.79248262 14.46831703 65.77515411 C12.71153534 65.77119008 10.95473359 65.7723219 9.1979599 65.77894211 C6.79824818 65.78715094 4.39929716 65.77684456 1.99963379 65.76190186 C1.30595119 65.76859402 0.61226859 65.77528619 -0.10243469 65.78218114 C-4.67208704 65.72706101 -7.76960673 64.75767824 -11.66014099 62.38095093 C-15.65314832 58.17210537 -16.75870639 54.88026998 -16.83714294 49.19833374 C-16.84997818 48.38358582 -16.86281342 47.56883789 -16.8760376 46.72940063 C-16.88342453 45.85644348 -16.89081146 44.98348633 -16.89842224 44.08407593 C-16.90649399 43.17647522 -16.91456573 42.26887451 -16.92288208 41.33377075 C-16.93669738 39.41396989 -16.94743093 37.49414472 -16.95530701 35.5743103 C-16.96682126 33.61915853 -16.98726426 31.66403805 -17.01683044 29.70907593 C-17.05966873 26.87552654 -17.07569875 24.04290964 -17.08592224 21.20907593 C-17.10343033 20.3442157 -17.12093842 19.47935547 -17.13897705 18.58828735 C-17.11885413 12.89748324 -16.28472798 7.94410016 -12.66014099 3.38095093 C-8.53749209 0.28280022 -4.99615931 -0.04716144 0 0 Z " fill="#F0D4E5" transform="translate(70.66014099121094,248.61904907226563)"/>
<path d="M0 0 C182.16 0 364.32 0 552 0 C552 182.16 552 364.32 552 552 C369.84 552 187.68 552 0 552 C0 369.84 0 187.68 0 0 Z M6 6 C6 184.2 6 362.4 6 546 C184.2 546 362.4 546 546 546 C546 367.8 546 189.6 546 6 C367.8 6 189.6 6 6 6 Z " fill="#3E1C35" transform="translate(0,0)"/>
<path d="M0 0 C18.15 0 36.3 0 55 0 C55 48.18 55 96.36 55 146 C36.85 146 18.7 146 0 146 C0 97.82 0 49.64 0 0 Z " fill="#EDACBB" transform="translate(485,380)"/>
<path d="M0 0 C0.99132935 -0.00137466 1.98265869 -0.00274933 3.00402832 -0.00416565 C4.08008835 -0.00057037 5.15614838 0.0030249 6.26481628 0.00672913 C7.40671417 0.0065831 8.54861206 0.00643707 9.72511292 0.00628662 C13.49642339 0.00698283 17.26768437 0.01476167 21.03898621 0.02259827 C23.65500868 0.02446348 26.2710315 0.0258869 28.88705444 0.02688599 C35.06698274 0.02999096 41.24689329 0.0381931 47.42681378 0.04823548 C54.46427825 0.05942251 61.50174358 0.06491359 68.53921473 0.06993091 C83.01180395 0.08037642 97.4843792 0.0979597 111.95695496 0.12025452 C111.95695496 0.78025452 111.95695496 1.44025452 111.95695496 2.12025452 C110.96695496 2.12025452 109.97695496 2.12025452 108.95695496 2.12025452 C109.14257996 3.41962952 109.32820496 4.71900452 109.51945496 6.05775452 C109.83586121 8.27259827 109.83586121 8.27259827 109.95695496 10.12025452 C109.62695496 10.45025452 109.29695496 10.78025452 108.95695496 11.12025452 C108.86911954 13.33880716 108.85000887 15.56013948 108.85929871 17.78041077 C108.86071365 18.44487717 108.8621286 19.10934357 108.86358643 19.79394531 C108.86919977 21.92359351 108.88175442 24.05313791 108.89445496 26.18275452 C108.89946824 27.62350821 108.90403145 29.06426355 108.90812683 30.50502014 C108.91917351 34.04346554 108.93644704 37.58184991 108.95695496 41.12025452 C107.47195496 41.61525452 107.47195496 41.61525452 105.95695496 42.12025452 C105.95695496 41.46025452 105.95695496 40.80025452 105.95695496 40.12025452 C104.96695496 40.12025452 103.97695496 40.12025452 102.95695496 40.12025452 C102.94237244 39.54581604 102.92778992 38.97137756 102.9127655 38.37953186 C102.83781771 35.75079755 102.74131502 33.123269 102.64445496 30.49525452 C102.62189636 29.5916217 102.59933777 28.68798889 102.57609558 27.75697327 C102.35864145 22.34038854 102.03889856 17.20219812 97.95695496 13.12025452 C92.93932812 12.67447362 88.51072884 12.76991961 83.95695496 15.12025452 C83.95695496 14.13025452 83.95695496 13.14025452 83.95695496 12.12025452 C82.30695496 11.79025452 80.65695496 11.46025452 78.95695496 11.12025452 C78.62695496 12.77025452 78.29695496 14.42025452 77.95695496 16.12025452 C76.47195496 16.61525452 76.47195496 16.61525452 74.95695496 17.12025452 C74.95695496 15.80025452 74.95695496 14.48025452 74.95695496 13.12025452 C73.30695496 13.12025452 71.65695496 13.12025452 69.95695496 13.12025452 C69.95695496 10.48025452 69.95695496 7.84025452 69.95695496 5.12025452 C68.30695496 5.12025452 66.65695496 5.12025452 64.95695496 5.12025452 C64.95695496 7.76025452 64.95695496 10.40025452 64.95695496 13.12025452 C63.63695496 13.12025452 62.31695496 13.12025452 60.95695496 13.12025452 C60.95695496 14.44025452 60.95695496 15.76025452 60.95695496 17.12025452 C61.94695496 17.12025452 62.93695496 17.12025452 63.95695496 17.12025452 C63.95695496 21.08025452 63.95695496 25.04025452 63.95695496 29.12025452 C63.29695496 29.45025452 62.63695496 29.78025452 61.95695496 30.12025452 C61.79259949 29.14185608 61.79259949 29.14185608 61.62492371 28.14369202 C60.37837073 20.70554167 60.37837073 20.70554167 56.95695496 14.12025452 C51.9350203 10.68529298 47.03517106 9.40056148 41.03117371 10.44837952 C36.36340253 11.96035059 33.78926451 14.87179018 31.08195496 18.93275452 C29.30907901 23.95590303 29.24964362 28.9983205 30.95695496 34.12025452 C30.29695496 34.12025452 29.63695496 34.12025452 28.95695496 34.12025452 C26.95695496 32.12025452 26.95695496 32.12025452 26.72990417 29.13929749 C26.74037781 27.89293518 26.75085144 26.64657288 26.76164246 25.36244202 C26.76447235 24.69939056 26.76730225 24.03633911 26.7702179 23.35319519 C26.78142061 21.23369869 26.80652445 19.11462347 26.83195496 16.99525452 C26.84198468 15.5590627 26.85111054 14.12286426 26.85929871 12.68666077 C26.88135995 9.16438823 26.91589002 5.64236248 26.95695496 2.12025452 C24.64695496 2.12025452 22.33695496 2.12025452 19.95695496 2.12025452 C19.95695496 13.01025452 19.95695496 23.90025452 19.95695496 35.12025452 C19.62695496 35.12025452 19.29695496 35.12025452 18.95695496 35.12025452 C18.62695496 33.47025452 18.29695496 31.82025452 17.95695496 30.12025452 C17.62695496 30.12025452 17.29695496 30.12025452 16.95695496 30.12025452 C16.95308777 29.01617249 16.95308777 29.01617249 16.94914246 27.88978577 C16.87289395 22.28573402 16.87289395 22.28573402 14.66007996 17.31166077 C9.9581361 13.38949473 5.91689922 12.80657324 -0.04304504 13.12025452 C-2.39674311 14.00090378 -2.39674311 14.00090378 -4.04304504 15.12025452 C-4.04304504 14.46025452 -4.04304504 13.80025452 -4.04304504 13.12025452 C-6.02304504 13.12025452 -8.00304504 13.12025452 -10.04304504 13.12025452 C-10.04304504 26.32025452 -10.04304504 39.52025452 -10.04304504 53.12025452 C-15.04304504 51.12025452 -15.04304504 51.12025452 -16.04304504 50.12025452 C-16.16695613 48.7303952 -16.2235745 47.33443306 -16.25178528 45.93934631 C-16.2710759 45.05139877 -16.29036652 44.16345123 -16.3102417 43.24859619 C-16.36776279 39.17859181 -16.41726465 35.10876941 -16.44807434 31.03846741 C-16.46966914 28.88986656 -16.50378929 26.74135402 -16.5506134 24.59315491 C-16.617435 21.50152654 -16.64504454 18.41172079 -16.66413879 15.31947327 C-16.70588478 13.87866646 -16.70588478 13.87866646 -16.74847412 12.40875244 C-16.74054745 9.84490015 -16.66517408 7.6075742 -16.04304504 5.12025452 C-11.31220741 0.65207644 -6.29433408 -0.00676083 0 0 Z " fill="#F4D6E8" transform="translate(74.04304504394531,253.87974548339844)"/>
<path d="M0 0 C16.9268879 -0.70072498 30.12125315 7.94369444 42.265625 18.87109375 C57.50063878 33.5431509 69.99931687 52.84353371 79.90625 71.40234375 C81.98269682 75.2881878 84.14164109 79.12784758 86.29296875 82.97265625 C87.39453125 85.1875 87.39453125 85.1875 87.39453125 87.1875 C85.14453125 88.9375 85.14453125 88.9375 82.39453125 90.1875 C78.65770464 88.99426591 77.44979244 87.06961904 75.6953125 83.671875 C75.21304199 82.75728516 74.73077148 81.84269531 74.23388672 80.90039062 C73.73002441 79.92263672 73.22616211 78.94488281 72.70703125 77.9375 C67.98460274 69.03571508 63.07756683 60.51052729 57.39453125 52.1875 C57.00587891 51.6109668 56.61722656 51.03443359 56.21679688 50.44042969 C50.28168179 41.67155997 43.82862538 33.72855951 36.39453125 26.1875 C35.57082031 25.35089844 34.74710937 24.51429687 33.8984375 23.65234375 C23.84497885 14.01710898 13.30927404 9.64652917 -0.45703125 9.91796875 C-10.9790098 10.40319402 -17.90241152 15.44049597 -25.60546875 22.1875 C-26.61609375 22.950625 -27.62671875 23.71375 -28.66796875 24.5 C-33.18032651 28.62832731 -36.87460127 33.35719116 -40.60546875 38.1875 C-41.03520996 38.74228027 -41.46495117 39.29706055 -41.90771484 39.86865234 C-54.03332697 55.65013875 -63.73320517 72.94783247 -73.60546875 90.1875 C-76.54296875 89.375 -76.54296875 89.375 -79.60546875 88.1875 C-80.60546875 85.1875 -80.60546875 85.1875 -79.12109375 81.80859375 C-78.37816893 80.40748 -77.62192889 79.01337887 -76.85546875 77.625 C-76.4493335 76.87629639 -76.04319824 76.12759277 -75.62475586 75.35620117 C-60.0318502 46.94397166 -40.3371276 13.2829808 -8.60546875 1.1875 C-5.67544898 0.377069 -3.01827315 0.21720706 0 0 Z " fill="#5B2D43" transform="translate(272.60546875,25.8125)"/>
<path d="M0 0 C0.76366302 -0.00467997 1.52732604 -0.00935994 2.31413037 -0.01418173 C4.86902664 -0.02613272 7.42338663 -0.01667422 9.97828674 -0.00723267 C11.81163343 -0.01129836 13.64497767 -0.01664023 15.47831726 -0.02316284 C20.4555991 -0.03684346 25.43269446 -0.03153443 30.40997958 -0.02202559 C35.61887538 -0.01443174 40.82775519 -0.02147394 46.03665161 -0.02618408 C54.78529223 -0.03164291 63.53385688 -0.02444716 72.28248596 -0.01016235 C82.39529971 0.00615929 92.50793197 0.00087967 102.62074131 -0.01564157 C111.30368237 -0.02925887 119.98656881 -0.03117474 128.6695171 -0.02332556 C133.85526412 -0.01864974 139.04092587 -0.01802163 144.2266674 -0.02793503 C149.1030679 -0.03660574 153.97923463 -0.03058077 158.85560989 -0.01325226 C160.64464111 -0.00928777 162.43369202 -0.01042082 164.22271538 -0.01704025 C166.66632 -0.02524752 169.10917726 -0.01494437 171.55273438 0 C172.6128139 -0.01003825 172.6128139 -0.01003825 173.69430918 -0.02027929 C178.29861466 0.03427606 181.42328422 0.97507282 185.33985901 3.38095093 C190.10180651 8.50828556 189.9259993 13.40530624 189.87110901 20.03720093 C189.87493591 21.05769531 189.87876282 22.0781897 189.88270569 23.12960815 C189.88542046 25.28127024 189.87808985 27.43296558 189.86134338 29.58456421 C189.83992837 32.8703091 189.86116071 36.15386746 189.88673401 39.43954468 C189.88409066 41.53460157 189.87896553 43.6296571 189.87110901 45.72470093 C189.87920593 46.70297852 189.88730286 47.6812561 189.89564514 48.68917847 C189.81812147 54.35286504 189.42716941 58.09442149 185.33985901 62.38095093 C180.31843329 64.97417752 176.21831152 65.81673217 170.55310059 65.76190186 C169.79997937 65.76658183 169.04685816 65.7712618 168.27091509 65.77608359 C165.76368449 65.78798769 163.25700514 65.77859464 160.74977112 65.76913452 C158.94568565 65.77320223 157.14160268 65.77854523 155.33752441 65.7850647 C150.44919986 65.79871936 145.56106564 65.79344753 140.67273784 65.78392744 C135.55327393 65.77632245 130.43382613 65.78337868 125.31436157 65.78808594 C116.71890848 65.79354054 108.12353277 65.78635908 99.52809143 65.77206421 C89.59359856 65.75573309 79.65929036 65.76103077 69.72480196 65.77754343 C61.19043903 65.79116048 52.65613166 65.79307703 44.12176138 65.78522742 C39.02658757 65.78055279 33.93150054 65.77992041 28.83633232 65.78983688 C24.046906 65.79850762 19.25771767 65.79248262 14.46831703 65.77515411 C12.71153534 65.77119008 10.95473359 65.7723219 9.1979599 65.77894211 C6.79824818 65.78715094 4.39929716 65.77684456 1.99963379 65.76190186 C1.30595119 65.76859402 0.61226859 65.77528619 -0.10243469 65.78218114 C-4.67208704 65.72706101 -7.76960673 64.75767824 -11.66014099 62.38095093 C-15.65314832 58.17210537 -16.75870639 54.88026998 -16.83714294 49.19833374 C-16.84997818 48.38358582 -16.86281342 47.56883789 -16.8760376 46.72940063 C-16.88342453 45.85644348 -16.89081146 44.98348633 -16.89842224 44.08407593 C-16.90649399 43.17647522 -16.91456573 42.26887451 -16.92288208 41.33377075 C-16.93669738 39.41396989 -16.94743093 37.49414472 -16.95530701 35.5743103 C-16.96682126 33.61915853 -16.98726426 31.66403805 -17.01683044 29.70907593 C-17.05966873 26.87552654 -17.07569875 24.04290964 -17.08592224 21.20907593 C-17.10343033 20.3442157 -17.12093842 19.47935547 -17.13897705 18.58828735 C-17.11885413 12.89748324 -16.28472798 7.94410016 -12.66014099 3.38095093 C-8.53749209 0.28280022 -4.99615931 -0.04716144 0 0 Z M-10.66014099 6.38095093 C-12.64356503 9.16902142 -12.92024324 11.51252081 -12.96653748 14.88656616 C-12.98252487 15.77105942 -12.99851227 16.65555267 -13.01498413 17.56684875 C-13.02034683 18.51483841 -13.02570953 19.46282806 -13.03123474 20.43954468 C-13.04026321 21.42084854 -13.04929169 22.4021524 -13.05859375 23.41319275 C-13.07308892 25.48680574 -13.08198116 27.5604644 -13.0856781 29.63412476 C-13.09758585 32.80377201 -13.14678873 35.97147938 -13.19725037 39.14071655 C-13.20671359 41.15698311 -13.2139491 43.1732616 -13.21873474 45.18954468 C-13.23826706 46.1355101 -13.25779938 47.08147552 -13.27792358 48.05610657 C-13.2459054 52.7323268 -13.2063266 54.70176505 -10.18772888 58.45541382 C-9.35362488 59.09084106 -8.51952087 59.72626831 -7.66014099 60.38095093 C-7.33014099 60.71095093 -7.00014099 61.04095093 -6.66014099 61.38095093 C-4.26592309 61.48304207 -1.90039987 61.51982849 0.49447632 61.5146637 C1.25204922 61.51692925 2.00962212 61.51919481 2.79015177 61.52152902 C5.34815855 61.52789789 7.90611273 61.52703781 10.46412659 61.5262146 C12.29027373 61.52920434 14.11642025 61.53260643 15.94256592 61.53639221 C20.91782658 61.54525638 25.89307007 61.54757137 30.86833787 61.548208 C35.01602572 61.54915529 39.16370952 61.55283161 43.31139582 61.55638009 C53.09538106 61.56453423 62.87935709 61.5669635 72.66334534 61.56625366 C82.76698716 61.56565297 92.87057558 61.57620098 102.97420388 61.59199733 C111.63748706 61.60506079 120.30075275 61.61043804 128.9640457 61.60979825 C134.14307033 61.60954286 139.32204755 61.61241629 144.50106239 61.6229763 C149.37242255 61.63263695 154.2436898 61.63275047 159.11505318 61.62545967 C160.9049264 61.62441121 162.69480535 61.62679212 164.48466873 61.63282013 C166.924653 61.64050642 169.36431376 61.63591765 171.80429077 61.62818909 C172.51567367 61.63333265 173.22705657 61.63847621 173.95999652 61.64377564 C177.57024999 61.61843785 180.33287288 61.48094718 183.33985901 59.38095093 C186.75510996 54.36113543 186.76646438 49.84763318 186.70314026 44.00204468 C186.70363876 43.11235489 186.70413727 42.2226651 186.70465088 41.30601501 C186.7023188 39.43261471 186.6926416 37.55921077 186.67604065 35.68588257 C186.65240638 32.82418729 186.65549164 29.96342247 186.66212463 27.10165405 C186.65654851 25.27677873 186.64943904 23.45190731 186.64064026 21.62704468 C186.64200737 20.34875038 186.64200737 20.34875038 186.6434021 19.04463196 C186.65049025 12.91729384 186.65049025 12.91729384 184.33985901 7.38095093 C179.36805794 4.01317268 175.6738335 2.79482089 169.62902832 2.87974548 C168.88407421 2.87421109 168.1391201 2.86867669 167.37159163 2.86297458 C164.89183653 2.84943298 162.41309934 2.86430103 159.93336487 2.87924194 C158.14898249 2.87545642 156.36460304 2.86995446 154.58023071 2.86286926 C149.74556038 2.84892879 144.91124649 2.86007412 140.07659602 2.87658048 C135.01318898 2.89044871 129.94980225 2.88396896 124.88638306 2.88044739 C116.38505826 2.87774692 107.88387479 2.89120771 99.38258362 2.91439819 C89.55714613 2.94101543 79.73194478 2.94275168 69.90648359 2.93100983 C60.44885105 2.92022752 50.99130383 2.92642214 41.53367805 2.94056511 C37.51107832 2.9463201 33.48854112 2.94624607 29.46594048 2.94149971 C24.72902922 2.93672433 19.99237628 2.94685491 15.25551414 2.96845436 C13.51808798 2.97401442 11.78063696 2.97449469 10.04320908 2.9695015 C7.66975564 2.96353626 5.29708871 2.97607684 2.92370605 2.99327087 C1.894855 2.98425581 1.894855 2.98425581 0.84521908 2.97505862 C-3.69243287 3.03474857 -6.7957467 4.02022 -10.66014099 6.38095093 Z " fill="#8D425F" transform="translate(70.66014099121094,248.61904907226563)"/>
<path d="M0 0 C0.33 0 0.66 0 1 0 C2.6926497 5.88382644 3.28145183 11.0796052 3.23047829 17.1835022 C3.2310976 18.07912914 3.23171692 18.97475608 3.232355 19.89752322 C3.23197392 22.89613237 3.21722812 25.89449572 3.20254517 28.89306641 C3.19928613 31.06548992 3.19691288 33.23791491 3.1953491 35.41034031 C3.18848935 41.37813637 3.1690578 47.34583563 3.14758825 53.31359458 C3.12663085 59.74976468 3.11731144 66.1859528 3.10658264 72.62214661 C3.08674867 83.77268709 3.05890586 94.92319006 3.02626419 106.07369995 C2.99206332 117.76731612 2.96203575 129.46093077 2.93757248 141.15457153 C2.93604865 141.88185368 2.93452483 142.60913582 2.93295482 143.35845681 C2.92523766 147.0520086 2.91759496 150.74556054 2.90998094 154.43911254 C2.85592759 180.59533511 2.79253129 206.75152752 2.72363281 232.90771484 C2.65672347 258.31688484 2.5940509 283.72605953 2.53710938 309.13525391 C2.53535227 309.91858105 2.53359516 310.7019082 2.5317848 311.50897253 C2.51414375 319.37552035 2.49658879 327.24206837 2.47909689 335.10861653 C2.44346243 351.13344731 2.40725345 367.15827677 2.37069702 383.18310547 C2.36901695 383.91988883 2.36733688 384.6566722 2.3656059 385.41578233 C2.25336245 434.61054515 2.1276847 483.8052751 2 533 C1.34 532.67 0.68 532.34 0 532 C0 356.44 0 180.88 0 0 Z " fill="#362436" transform="translate(546,11)"/>
<path d="M0 0 C4.2877847 2.38073555 7.00354828 5.40210801 8.765625 9.99609375 C9.67930948 14.93197624 8.79917011 20.34602426 7 25 C5.01977284 27.41965959 4.0540158 27.98199473 1 29 C0.67 29.66 0.34 30.32 0 31 C-4.78868941 32.60666268 -10.39881465 33.18280315 -15.0703125 31.05859375 C-18.84168231 28.54171725 -20.64993392 26.41839808 -22 22 C-22.66 21.67 -23.32 21.34 -24 21 C-24.08121924 19.39667209 -24.13929134 17.79215974 -24.1875 16.1875 C-24.22230469 15.29417969 -24.25710937 14.40085937 -24.29296875 13.48046875 C-23.94431382 10.5285237 -23.16839893 9.91065643 -21 8 C-20.87625 7.175 -20.7525 6.35 -20.625 5.5 C-20 3 -20 3 -17.91796875 1.38671875 C-12.22072052 -1.32080886 -6.12638583 -1.00485694 0 0 Z " fill="#F5E2E1" transform="translate(36,424)"/>
<path d="M0 0 C4.5561975 2.43959293 6.67711845 4.79063124 8.38671875 9.66015625 C9.51625663 15.21748264 8.7172916 19.43808049 6.125 24.4375 C2.46815644 28.70381748 -0.49686302 30.1453818 -6 30.9375 C-10.84512344 31.25379886 -13.96329281 30.78361624 -18.125 28.0625 C-21.59249678 24.27208777 -24.43950834 20.24260494 -24.8125 15 C-23.73795788 8.84580424 -21.04218768 4.8427457 -16.5 0.625 C-10.8464191 -3.09446112 -6.01163679 -2.57641577 0 0 Z " fill="#B64581" transform="translate(127.125,264.9375)"/>
<path d="M0 0 C3.72050077 3.10041731 6.75650079 6.22301824 7.66796875 11.12109375 C7.89602204 17.56088428 6.1006706 21.73211825 1.875 26.625 C-2.30679493 30.20939566 -5.16792131 31.0896506 -10.625 30.875 C-16.07652161 30.19152565 -19.25092215 28.0371684 -22.75 23.875 C-25.57172191 19.4583918 -25.41039065 13.95430092 -24.75 8.875 C-22.54464531 4.46429061 -19.82769265 1.62744254 -15.75 -1.125 C-10.51164293 -2.85659828 -5.03667031 -2.06045603 0 0 Z " fill="#913A64" transform="translate(173.75,163.125)"/>
<path d="M0 0 C3.98385083 1.78087961 6.77760797 3.31765953 9.50390625 6.765625 C11.0639736 12.67159425 11.48647326 17.82039224 8.75390625 23.390625 C4.47692978 28.23036153 0.79251203 31.82049438 -5.93359375 32.328125 C-11.21047423 31.97037039 -14.28301618 30.52770903 -17.87109375 26.640625 C-21.89413803 20.74973873 -22.26443109 16.15483575 -21.62109375 9.078125 C-20.04764888 4.554471 -16.83658415 2.35750474 -12.7890625 0.03515625 C-8.13746515 -2.01825159 -4.61296261 -1.62244289 0 0 Z " fill="#EBA5B8" transform="translate(79.62109375,355.921875)"/>
<path d="M0 0 C3.52326816 1.30176976 6.29129592 2.95235049 8.4375 6.125 C9.85334793 13.3615561 9.62708084 19.52306993 6 26 C4.2436977 28.47183286 3.04449205 29.70711151 0.10546875 30.53125 C-4.34560539 31.25795598 -5.72539335 31.13730333 -10 29 C-10.33 32.96 -10.66 36.92 -11 41 C-12.65 41 -14.3 41 -16 41 C-16 27.8 -16 14.6 -16 1 C-13.66666667 1 -11.33333333 1 -9 1 C-5.88111322 -0.55944339 -3.4545855 -0.28316275 0 0 Z " fill="#8B3F64" transform="translate(81,266)"/>
<path d="M0 0 C0.33 0 0.66 0 1 0 C1 88.44 1 176.88 1 268 C26.245 267.505 26.245 267.505 52 267 C52.33 179.55 52.66 92.1 53 2 C53.33 2 53.66 2 54 2 C54.33 90.11 54.66 178.22 55 269 C36.85 269 18.7 269 0 269 C0 180.23 0 91.46 0 0 Z " fill="#BE759D" transform="translate(424,257)"/>
<path d="M0 0 C0.74844222 -0.00155999 1.49688445 -0.00311998 2.26800674 -0.00472724 C4.78301536 -0.00872493 7.29796392 -0.00555236 9.81297302 -0.00241089 C11.61310359 -0.00376546 13.41323388 -0.00554571 15.21336365 -0.00772095 C20.10779918 -0.01228826 25.00221369 -0.01050867 29.8966496 -0.00734186 C35.01133103 -0.00481505 40.12601064 -0.00715666 45.24069214 -0.00872803 C53.82973047 -0.01054861 62.41876021 -0.00814614 71.00779724 -0.00338745 C80.94904664 0.00205668 90.89027553 0.00029096 100.83152443 -0.00521386 C109.35638815 -0.00974607 117.88124569 -0.01039505 126.40611023 -0.00777519 C131.5023065 -0.00621324 136.59849313 -0.00601645 141.6946888 -0.00931168 C146.48397155 -0.01219202 151.27322776 -0.01021167 156.06250763 -0.00441742 C157.82419478 -0.00309078 159.58588414 -0.00348233 161.34757042 -0.00568008 C163.74427672 -0.00839527 166.1408969 -0.00500592 168.53759766 0 C169.24176915 -0.00223072 169.94594065 -0.00446144 170.67145067 -0.00675976 C175.47700658 0.01283343 175.47700658 0.01283343 177.70530701 1.12698364 C177.37530701 2.11698364 177.04530701 3.10698364 176.70530701 4.12698364 C114.99530701 4.12698364 53.28530701 4.12698364 -10.29469299 4.12698364 C-10.29469299 3.13698364 -10.29469299 2.14698364 -10.29469299 1.12698364 C-6.78907065 -0.04155714 -3.64604284 -0.01158688 0 0 Z " fill="#894260" transform="translate(74.29469299316406,248.87301635742188)"/>
<path d="M0 0 C3.42634576 1.68640456 6.06843947 3.82542368 8.4375 6.8125 C9 9 9 9 9 17 C2.07 17 -4.86 17 -12 17 C-10.68 19.64 -9.36 22.28 -8 25 C-3.27519477 25.45444068 -3.27519477 25.45444068 0.875 23.625 C2.06481812 21.98821489 2.06481812 21.98821489 3 20 C4.65 20 6.3 20 8 20 C7.7559996 23.57867255 7.39251815 25.5315106 5.0625 28.3125 C0.77645642 30.67419748 -3.12176442 31.32834278 -8 31 C-13.37701371 28.45813897 -15.42784659 25.14430681 -18 20 C-18.88092894 13.93417501 -17.97453072 9.65667436 -14.4140625 4.6640625 C-10.50516482 0.06408899 -5.89810874 -1.20643133 0 0 Z " fill="#904C6C" transform="translate(242,266)"/>
<path d="M0 0 C4.10554673 2.10825373 6.11232487 3.76858309 8 8 C8.45138281 11.51941386 8.44417466 15.01398733 8.43359375 18.55859375 C8.4388356 19.58050308 8.44407745 20.60241241 8.44947815 21.6552887 C8.45589133 23.81290785 8.45457049 25.97056199 8.44604492 28.12817383 C8.43753828 31.4226736 8.46630202 34.71543717 8.49804688 38.00976562 C8.49965915 40.10937448 8.49908086 42.2089864 8.49609375 44.30859375 C8.50732773 45.29000839 8.51856171 46.27142303 8.53013611 47.28257751 C8.47044555 53.16438816 7.89703989 56.50885767 4 61 C1.32655486 62.78229676 0.26229641 63 -3 63 C-3 62.34 -3 61.68 -3 61 C-63.39 61 -123.78 61 -186 61 C-186 60.67 -186 60.34 -186 60 C-185.05540043 59.99576806 -184.11080086 59.99153612 -183.13757706 59.98717594 C-160.17015118 59.8840547 -137.20275717 59.77531556 -114.23538589 59.66066074 C-103.12861435 59.60534544 -92.0218396 59.55186619 -80.91503906 59.50268555 C-71.23614536 59.45982301 -61.55727514 59.41353974 -51.87841773 59.36312145 C-46.75194269 59.33653723 -41.62547225 59.31168453 -36.49897003 59.29092598 C-31.67605061 59.27134273 -26.85317584 59.24719381 -22.03029633 59.21950912 C-20.2581717 59.21014765 -18.48603728 59.20246912 -16.71389771 59.19658089 C-14.29800597 59.18830438 -11.88222212 59.17402331 -9.46636963 59.15821838 C-8.76208651 59.15724028 -8.05780339 59.15626217 -7.33217835 59.15525442 C-2.56595747 59.16751418 -2.56595747 59.16751418 2 58 C4.46974804 53.05025601 4.27611277 48.02157729 4.23046875 42.62109375 C4.23001053 41.73140396 4.22955231 40.84171417 4.2290802 39.92506409 C4.22607008 38.05167297 4.21822112 36.17828407 4.20581055 34.30493164 C4.18753788 31.44343159 4.18530123 28.5822555 4.18554688 25.72070312 C4.18063148 23.89583055 4.17480307 22.07096015 4.16796875 20.24609375 C4.16629951 18.96779945 4.16629951 18.96779945 4.16459656 17.66368103 C4.18169867 11.75271906 4.18169867 11.75271906 3 6 C0.52363988 4.62533375 0.52363988 4.62533375 -2 4 C-1.34 2.68 -0.68 1.36 0 0 Z " fill="#A5627E" transform="translate(252,250)"/>
<path d="M0 0 C1.65 0 3.3 0 5 0 C5.33 0.99 5.66 1.98 6 3 C6.495 2.505 6.99 2.01 7.5 1.5 C10.95167356 -0.57100413 14.11757434 -0.57774191 18 0 C20.9375 1.3125 20.9375 1.3125 23 3 C24.01973129 6.05919388 24.11533602 8.12418025 24.09765625 11.32421875 C24.09443359 12.35224609 24.09121094 13.38027344 24.08789062 14.43945312 C24.07951172 15.51130859 24.07113281 16.58316406 24.0625 17.6875 C24.05798828 18.77095703 24.05347656 19.85441406 24.04882812 20.97070312 C24.03703743 23.64719085 24.02058063 26.32356777 24 29 C22.35 29 20.7 29 19 29 C18.97494385 28.40985107 18.9498877 27.81970215 18.92407227 27.21166992 C18.80799948 24.53673186 18.68532428 21.8621362 18.5625 19.1875 C18.52318359 18.25873047 18.48386719 17.32996094 18.44335938 16.37304688 C18.40146484 15.48037109 18.35957031 14.58769531 18.31640625 13.66796875 C18.27974854 12.84578857 18.24309082 12.0236084 18.20532227 11.17651367 C18.06572228 8.82094822 18.06572228 8.82094822 17 6 C15.72125 5.938125 14.4425 5.87625 13.125 5.8125 C12.04605469 5.76029297 12.04605469 5.76029297 10.9453125 5.70703125 C9.98238281 5.85205078 9.98238281 5.85205078 9 6 C6.87719437 9.18420845 6.71980463 10.20537255 6.5859375 13.88671875 C6.54726562 14.82451172 6.50859375 15.76230469 6.46875 16.72851562 C6.4378125 17.70498047 6.406875 18.68144531 6.375 19.6875 C6.33632812 20.67556641 6.29765625 21.66363281 6.2578125 22.68164062 C6.16354133 25.12090707 6.07793782 27.56016595 6 30 C4.02 30 2.04 30 0 30 C0 20.1 0 10.2 0 0 Z " fill="#934C6D" transform="translate(195,266)"/>
<path d="M0 0 C3.27202584 3.0266239 4.89643762 5.84701607 5.11352539 10.36010742 C5.10828857 11.26607666 5.10305176 12.1720459 5.09765625 13.10546875 C5.09443359 14.08837891 5.09121094 15.07128906 5.08789062 16.08398438 C5.07951172 17.10814453 5.07113281 18.13230469 5.0625 19.1875 C5.05798828 20.22326172 5.05347656 21.25902344 5.04882812 22.32617188 C5.0370401 24.88417266 5.02058515 27.44205733 5 30 C3.02 30 1.04 30 -1 30 C-1.495 18.615 -1.495 18.615 -2 7 C-4.79870027 5.60064987 -6.90498792 5.74734595 -10 6 C-12.16488068 7.59666719 -12.90442537 8.51888888 -13.43237305 11.17651367 C-13.45855713 11.99869385 -13.48474121 12.82087402 -13.51171875 13.66796875 C-13.54716797 14.56064453 -13.58261719 15.45332031 -13.61914062 16.37304688 C-13.64169922 17.30181641 -13.66425781 18.23058594 -13.6875 19.1875 C-13.72166016 20.12787109 -13.75582031 21.06824219 -13.79101562 22.03710938 C-13.87348218 24.35795393 -13.94263403 26.67842148 -14 29 C-15.65 29 -17.3 29 -19 29 C-19 19.76 -19 10.52 -19 1 C-17.35 1 -15.7 1 -14 1 C-14 1.66 -14 2.32 -14 3 C-13.360625 2.505 -12.72125 2.01 -12.0625 1.5 C-7.99005854 -0.49466521 -4.45958109 -0.90858755 0 0 Z " fill="#A2597A" transform="translate(172,266)"/>
<path d="M0 0 C3.63326668 0.60554445 4.74144325 1.6558915 7 4.5 C8.87740056 8.25480111 8.34965287 12.31655953 7.1875 16.25 C5.9506882 18.59343288 5.19646502 20.0095416 3 21.5 C0.0625 21.9375 0.0625 21.9375 -3 21.5 C-5.95944246 19.27908025 -6.8983822 18.09177425 -7.53125 14.40625 C-7.5209375 13.2821875 -7.510625 12.158125 -7.5 11 C-7.51546875 9.31390625 -7.51546875 9.31390625 -7.53125 7.59375 C-6.71900213 2.86360067 -4.72467398 0.78744566 0 0 Z " fill="#EFD1E3" transform="translate(77,270.5)"/>
<path d="M0 0 C-0.99 0 -1.98 0 -3 0 C-3.1546875 0.9590625 -3.1546875 0.9590625 -3.3125 1.9375 C-3.539375 2.618125 -3.76625 3.29875 -4 4 C-4.99 4.33 -5.98 4.66 -7 5 C-8.05897404 7.79367619 -8.14349467 10.52402878 -8.19287109 13.48974609 C-8.21696548 14.81164444 -8.21696548 14.81164444 -8.24154663 16.1602478 C-8.2862405 20.17290218 -8.32703533 24.18539706 -8.35009766 28.19824219 C-8.36667203 30.31261185 -8.39398138 32.42692515 -8.43212891 34.54101562 C-8.4869554 37.59795025 -8.50877774 40.65357717 -8.5234375 43.7109375 C-8.54610687 44.65174164 -8.56877625 45.59254578 -8.59213257 46.56185913 C-8.57755699 51.10104534 -8.428562 54.06568937 -5.46728516 57.64306641 C-4.245979 58.80974854 -4.245979 58.80974854 -3 60 C-3.66 60.99 -4.32 61.98 -5 63 C-9.67313021 59.54594723 -11.46779816 57.76714959 -13 52 C-13.30118666 48.83522325 -13.32773907 45.68542921 -13.3359375 42.5078125 C-13.3425943 41.60304169 -13.3492511 40.69827087 -13.35610962 39.76608276 C-13.36620231 37.85823591 -13.37092769 35.95035399 -13.37060547 34.04248047 C-13.37497589 31.14100329 -13.41132341 28.24105199 -13.44921875 25.33984375 C-13.45508838 23.47917182 -13.45905679 21.61849273 -13.4609375 19.7578125 C-13.47530853 18.89922638 -13.48967957 18.04064026 -13.50448608 17.15603638 C-13.4608276 11.33159427 -12.3259284 6.85007068 -9 2 C-5.79292554 -0.64583643 -3.94180893 -1.60592216 0 0 Z " fill="#8F4462" transform="translate(67,250)"/>
<path d="M0 0 C0.66 0 1.32 0 2 0 C2 1.98 2 3.96 2 6 C-4.27 6 -10.54 6 -17 6 C-16.4635601 11.74922159 -16.4635601 11.74922159 -14 15 C-9.27149004 15.57890038 -9.27149004 15.57890038 -5.125 13.625 C-3.93518188 11.98821489 -3.93518188 11.98821489 -3 10 C-1.35 10 0.3 10 2 10 C1.7559996 13.57867255 1.39251815 15.5315106 -0.9375 18.3125 C-5.22354358 20.67419748 -9.12176442 21.32834278 -14 21 C-18.43653561 18.90272862 -21.13310847 16.56351263 -23 12 C-23.22805455 9.27854899 -23.13934685 6.740488 -23 4 C-18.89162554 3.01399013 -15.03138166 2.86610878 -10.8125 2.875 C-9.58144531 2.87242187 -8.35039062 2.86984375 -7.08203125 2.8671875 C-4 3 -4 3 -2 4 C-1.34 2.68 -0.68 1.36 0 0 Z " fill="#97496C" transform="translate(248,276)"/>
<path d="M0 0 C1.98 0 3.96 0 6 0 C6 13.2 6 26.4 6 40 C4.02 40 2.04 40 0 40 C0 26.8 0 13.6 0 0 Z " fill="#995375" transform="translate(95,256)"/>
<path d="M0 0 C1.65 0 3.3 0 5 0 C5 2.64 5 5.28 5 8 C6.32 8 7.64 8 9 8 C9 9.32 9 10.64 9 12 C7.68 12 6.36 12 5 12 C5.33 18.6 5.66 25.2 6 32 C6.99 32.33 7.98 32.66 9 33 C9 34.32 9 35.64 9 37 C5.625 37.1875 5.625 37.1875 2 37 C-0.20192224 33.69711664 -0.23959968 32.72537273 -0.1953125 28.89453125 C-0.18886719 27.91162109 -0.18242187 26.92871094 -0.17578125 25.91601562 C-0.15902344 24.89185547 -0.14226562 23.86769531 -0.125 22.8125 C-0.11597656 21.77673828 -0.10695312 20.74097656 -0.09765625 19.67382812 C-0.0740786 17.11565315 -0.0411703 14.55794252 0 12 C-1.32 12 -2.64 12 -4 12 C-4 10.68 -4 9.36 -4 8 C-2.68 8 -1.36 8 0 8 C0 5.36 0 2.72 0 0 Z " fill="#8B4064" transform="translate(139,259)"/>
<path d="M0 0 C3.52326816 1.30176976 6.29129592 2.95235049 8.4375 6.125 C9.85334793 13.3615561 9.62708084 19.52306993 6 26 C4.21875095 28.5069431 3.0218048 29.72372673 0.03515625 30.53125 C-2.125 30.875 -2.125 30.875 -6 31 C-6.66 30.34 -7.32 29.68 -8 29 C-7.625 26.875 -7.625 26.875 -7 25 C-5.6078125 25.0928125 -5.6078125 25.0928125 -4.1875 25.1875 C-1.07176444 25.28058106 -1.07176444 25.28058106 0.8125 23.75 C3.4906424 19.80326383 3.24975277 15.66205171 3 11 C2.6824493 8.61441973 2.6824493 8.61441973 1 7 C-1.66069409 6.04975211 -4.20869174 5.54025321 -7 5 C-7 4.67 -7 4.34 -7 4 C-5.02 4 -3.04 4 -1 4 C-1 3.34 -1 2.68 -1 2 C-2.60875 2.495 -2.60875 2.495 -4.25 3 C-8 4 -8 4 -12 4 C-11.67 3.01 -11.34 2.02 -11 1 C-10.34 1 -9.68 1 -9 1 C-5.88111322 -0.55944339 -3.4545855 -0.28316275 0 0 Z " fill="#914A6A" transform="translate(81,266)"/>
<path d="M0 0 C1.65 0 3.3 0 5 0 C6 1 6 1 6.11352539 3.77563477 C6.10828857 4.98533936 6.10305176 6.19504395 6.09765625 7.44140625 C6.09443359 8.74658203 6.09121094 10.05175781 6.08789062 11.39648438 C6.07953401 12.7851569 6.07106905 14.17382877 6.0625 15.5625 C6.05748666 16.95507656 6.05292347 18.34765481 6.04882812 19.74023438 C6.03699434 23.1601987 6.0205088 26.58007844 6 30 C4.02 30 2.04 30 0 30 C0 20.1 0 10.2 0 0 Z " fill="#9D5374" transform="translate(183,266)"/>
<path d="M0 0 C8.78723404 -0.44680851 8.78723404 -0.44680851 13 3 C14.01973129 6.05919388 14.11533602 8.12418025 14.09765625 11.32421875 C14.09443359 12.35224609 14.09121094 13.38027344 14.08789062 14.43945312 C14.07951172 15.51130859 14.07113281 16.58316406 14.0625 17.6875 C14.05798828 18.77095703 14.05347656 19.85441406 14.04882812 20.97070312 C14.03703743 23.64719085 14.02058063 26.32356777 14 29 C12.35 29 10.7 29 9 29 C8.97494385 28.40985107 8.9498877 27.81970215 8.92407227 27.21166992 C8.80799948 24.53673186 8.68532428 21.8621362 8.5625 19.1875 C8.52318359 18.25873047 8.48386719 17.32996094 8.44335938 16.37304688 C8.40146484 15.48037109 8.35957031 14.58769531 8.31640625 13.66796875 C8.27974854 12.84578857 8.24309082 12.0236084 8.20532227 11.17651367 C8.06572228 8.82094822 8.06572228 8.82094822 7 6 C4.03 5.505 4.03 5.505 1 5 C1 4.67 1 4.34 1 4 C2.65 4 4.3 4 6 4 C6 3.34 6 2.68 6 2 C3.03 1.505 3.03 1.505 0 1 C0 0.67 0 0.34 0 0 Z " fill="#8A4162" transform="translate(205,266)"/>
<path d="M0 0 C1.32 0 2.64 0 4 0 C4 0.99 4 1.98 4 3 C5.32 3.33 6.64 3.66 8 4 C7.67854004 4.56170898 7.35708008 5.12341797 7.02587891 5.70214844 C5.90241943 8.21856933 5.69140607 10.02344205 5.5859375 12.765625 C5.54726562 13.65507812 5.50859375 14.54453125 5.46875 15.4609375 C5.4378125 16.38132812 5.406875 17.30171875 5.375 18.25 C5.31699219 19.65378906 5.31699219 19.65378906 5.2578125 21.0859375 C5.16375156 23.39043054 5.07810601 25.69492013 5 28 C3.35 28 1.7 28 0 28 C0 18.76 0 9.52 0 0 Z " fill="#873B5D" transform="translate(153,267)"/>
<path d="M0 0 C0.33 0 0.66 0 1 0 C1 13.2 1 26.4 1 40 C3.31 40 5.62 40 8 40 C8.33 40.33 8.66 40.66 9 41 C11.17731389 41.12401914 13.35863454 41.1780151 15.53930664 41.20532227 C16.22220261 41.21522186 16.90509857 41.22512146 17.60868835 41.23532104 C19.87580853 41.26701935 22.14294969 41.29172613 24.41015625 41.31640625 C25.97815001 41.3369686 27.54613813 41.35796488 29.11412048 41.37937927 C33.24870248 41.43467424 37.38333511 41.48405062 41.51800537 41.53222656 C45.73405483 41.58238753 49.95003043 41.63810174 54.16601562 41.69335938 C62.44394803 41.8010317 70.72194208 41.90245635 79 42 C79 42.33 79 42.66 79 43 C68.76884005 43.09265338 58.5377798 43.1637413 48.30628586 43.20724869 C43.55543964 43.22812944 38.80488031 43.2564559 34.05419922 43.30175781 C29.47006661 43.3451983 24.88621006 43.36913343 20.30188751 43.37950897 C18.55234684 43.38690359 16.80282138 43.40134355 15.05339813 43.42292023 C12.60395075 43.45193101 10.15564605 43.45595708 7.70605469 43.45410156 C6.98172745 43.46848267 6.25740021 43.48286377 5.51112366 43.49768066 C1.96999864 43.46862823 0.30309497 43.24773741 -2.48162842 40.97161865 C-2.98269104 40.3209845 -3.48375366 39.67035034 -4 39 C-2.68 39.33 -1.36 39.66 0 40 C0 26.8 0 13.6 0 0 Z " fill="#ECBDD5" transform="translate(64,267)"/>
<path d="M0 0 C0.33 0 0.66 0 1 0 C1.33 16.5 1.66 33 2 50 C-15.82 50 -33.64 50 -52 50 C-52 49.67 -52 49.34 -52 49 C-26.755 48.505 -26.755 48.505 -1 48 C-0.67 32.16 -0.34 16.32 0 0 Z " fill="#AA5982" transform="translate(477,476)"/>
<path d="M0 0 C0.66 0 1.32 0 2 0 C2 1.98 2 3.96 2 6 C-4.27 6 -10.54 6 -17 6 C-17.99 8.31 -18.98 10.62 -20 13 C-20.99 12.67 -21.98 12.34 -23 12 C-23 9.36 -23 6.72 -23 4 C-18.89162554 3.01399013 -15.03138166 2.86610878 -10.8125 2.875 C-9.58144531 2.87242187 -8.35039062 2.86984375 -7.08203125 2.8671875 C-4 3 -4 3 -2 4 C-1.34 2.68 -0.68 1.36 0 0 Z " fill="#8C3B60" transform="translate(248,276)"/>
<path d="M0 0 C2.98779798 0.07591501 3.74701488 0.09895052 6.0625 2.125 C7.0625 4.375 7.0625 4.375 7.0625 8.375 C2.1125 8.375 -2.8375 8.375 -7.9375 8.375 C-5.31454918 0.50614754 -5.31454918 0.50614754 0 0 Z " fill="#F7CFE6" transform="translate(237.9375,270.625)"/>
<path d="M0 0 C0.33 0 0.66 0 1 0 C1.10161289 6.58352441 1.1715547 13.16684577 1.21972656 19.75097656 C1.23981316 21.98966021 1.2670878 24.22829158 1.30175781 26.46679688 C1.35040464 29.68893349 1.37299874 32.91037501 1.390625 36.1328125 C1.41127014 37.12991241 1.43191528 38.12701233 1.45318604 39.15432739 C1.45509562 45.09891371 0.96004225 48.47121851 -3 53 C-5.67344514 54.78229676 -6.73770359 55 -10 55 C-10.495 53.515 -10.495 53.515 -11 52 C-10.05125 51.79375 -9.1025 51.5875 -8.125 51.375 C-4.72305853 50.30709993 -4.72305853 50.30709993 -3.75 47 C-3.5025 46.01 -3.255 45.02 -3 44 C-2.34 43.34 -1.68 42.68 -1 42 C-0.67087115 40.10388475 -0.67087115 40.10388475 -0.68115234 37.91748047 C-0.66128265 37.07675995 -0.64141296 36.23603943 -0.62094116 35.36984253 C-0.60938995 34.46146637 -0.59783875 33.55309021 -0.5859375 32.6171875 C-0.56657135 31.68778351 -0.5472052 30.75837952 -0.5272522 29.80081177 C-0.46736315 26.8256352 -0.4210339 23.85042012 -0.375 20.875 C-0.33682879 18.86066 -0.29777757 16.84633646 -0.2578125 14.83203125 C-0.161654 9.88815425 -0.0776576 4.94420083 0 0 Z " fill="#924E6C" transform="translate(259,258)"/>
<path d="M0 0 C0.33 0 0.66 0 1 0 C1.00410889 1.24088379 1.00821777 2.48176758 1.01245117 3.76025391 C1.0342778 8.37883634 1.08860432 12.99657114 1.15258789 17.61474609 C1.17573708 19.610757 1.19015637 21.60688951 1.19555664 23.60302734 C1.20486871 26.47830725 1.24590816 29.35168251 1.29296875 32.2265625 C1.2890361 33.11429352 1.28510345 34.00202454 1.28105164 34.91665649 C1.42321384 40.99898296 2.62165001 43.74047788 7 48 C6.34 48.99 5.68 49.98 5 51 C-0.75357711 46.83783784 -0.75357711 46.83783784 -1.9375 42.8125 C-2 40 -2 40 -1 38 C-0.84293669 35.15791974 -0.7415043 32.33662693 -0.68359375 29.4921875 C-0.66281265 28.65156769 -0.64203156 27.81094788 -0.62062073 26.94485474 C-0.55514561 24.25498765 -0.4962498 21.56502157 -0.4375 18.875 C-0.39431284 17.05337511 -0.35069848 15.23176029 -0.30664062 13.41015625 C-0.19946632 8.94020606 -0.09819315 4.47015614 0 0 Z " fill="#9F5C7B" transform="translate(57,262)"/>
<path d="M0 0 C0.33 0 0.66 0 1 0 C1 7.26 1 14.52 1 22 C-0.32 22 -1.64 22 -3 22 C-5.33634657 22.31151288 -7.67038557 22.64159778 -10 23 C-9.67 22.34 -9.34 21.68 -9 21 C-8.34 21 -7.68 21 -7 21 C-5.26337666 17.77484237 -4.1094072 14.48670834 -3 11 C-2.34 11.33 -1.68 11.66 -1 12 C-0.67 8.04 -0.34 4.08 0 0 Z " fill="#E8B7D7" transform="translate(138,271)"/>
<path d="M0 0 C4.21865333 4.21865333 3.22022673 9.97629113 3.25 15.5625 C3.270625 16.53380859 3.29125 17.50511719 3.3125 18.50585938 C3.31765625 19.43333984 3.3228125 20.36082031 3.328125 21.31640625 C3.3374707 22.16662354 3.34681641 23.01684082 3.35644531 23.89282227 C3.23881836 24.58819092 3.12119141 25.28355957 3 26 C2.01 26.66 1.02 27.32 0 28 C0 18.76 0 9.52 0 0 Z " fill="#FAD6EC" transform="translate(192,267)"/>
<path d="M0 0 C2.75137919 1.0473692 4.55846274 2.24209318 7 4 C7.9375 6.25 7.9375 6.25 8 8 C7.01 7.67 6.02 7.34 5 7 C4.67 7 4.34 7 4 7 C3.67 8.32 3.34 9.64 3 11 C2.835 10.38125 2.67 9.7625 2.5 9.125 C0.09818625 5.72243051 -3.00162134 5.77387974 -7 5 C-7 4.67 -7 4.34 -7 4 C-5.02 4 -3.04 4 -1 4 C-1 3.34 -1 2.68 -1 2 C-2.60875 2.495 -2.60875 2.495 -4.25 3 C-8 4 -8 4 -12 4 C-11.67 3.01 -11.34 2.02 -11 1 C-10.34 1 -9.68 1 -9 1 C-5.88111322 -0.55944339 -3.4545855 -0.28316275 0 0 Z " fill="#9A5477" transform="translate(81,266)"/>
<path d="M0 0 C1.32 0 2.64 0 4 0 C4 0.99 4 1.98 4 3 C5.32 3.33 6.64 3.66 8 4 C6.79618552 6.49361571 5.54571278 8.68143083 4 11 C3.34 11 2.68 11 2 11 C2 16.61 2 22.22 2 28 C1.34 28 0.68 28 0 28 C0 18.76 0 9.52 0 0 Z " fill="#8B4163" transform="translate(153,267)"/>
<path d="M0 0 C3.16115776 1.36983503 3.9927092 1.9890638 6 5 C6 5.99 6 6.98 6 8 C3 10 3 10 0.4375 9.8125 C-2 9 -2 9 -4 6 C-3.8125 3.9375 -3.8125 3.9375 -3 2 C-2.01 1.34 -1.02 0.68 0 0 Z " fill="#5A273D" transform="translate(328,63)"/>
<path d="M0 0 C0.66 0 1.32 0 2 0 C3.71050559 4.97601626 2.00885647 8.42616295 0 13 C-0.33 12.34 -0.66 11.68 -1 11 C-2.32 11.33 -3.64 11.66 -5 12 C-5 13.98 -5 15.96 -5 18 C-5.33 18 -5.66 18 -6 18 C-6.74224763 10.87442279 -5.39195732 6.64474515 -1 1 C-0.67 0.67 -0.34 0.34 0 0 Z " fill="#954368" transform="translate(230,268)"/>
<path d="M0 0 C2.58548628 2.58548628 2.97641847 4.29538385 3.09765625 7.91796875 C3.08605469 8.99691406 3.07445312 10.07585937 3.0625 11.1875 C3.05347656 12.27417969 3.04445312 13.36085938 3.03515625 14.48046875 C3.02355469 15.31191406 3.01195312 16.14335937 3 17 C3.66 17 4.32 17 5 17 C5 18.98 5 20.96 5 23 C3.68 23 2.36 23 1 23 C0.67 15.41 0.34 7.82 0 0 Z " fill="#893A5D" transform="translate(171,272)"/>
<path d="M0 0 C0.66 0.33 1.32 0.66 2 1 C2.4140625 3.28515625 2.4140625 3.28515625 2.625 6.0625 C2.69976562 6.98160156 2.77453125 7.90070313 2.8515625 8.84765625 C2.90054688 9.55792969 2.94953125 10.26820313 3 11 C3.33 11 3.66 11 4 11 C4.1875 13.875 4.1875 13.875 4 17 C3.01 17.66 2.02 18.32 1 19 C0.67 19.66 0.34 20.32 0 21 C-1.64363134 21.72159424 -3.31050386 22.39351421 -5 23 C-4.0409375 21.63875 -4.0409375 21.63875 -3.0625 20.25 C0.0146876 15.40109832 0.11968408 11.96840825 0.0625 6.25 C0.05347656 5.07953125 0.04445313 3.9090625 0.03515625 2.703125 C0.02355469 1.81109375 0.01195313 0.9190625 0 0 Z " fill="#E9C2D7" transform="translate(89,272)"/>
<path d="M0 0 C0.66 0 1.32 0 2 0 C4.65350475 4.89176638 4.02440164 9.45652407 3.625 14.8125 C3.56828125 15.69615234 3.5115625 16.57980469 3.453125 17.49023438 C3.31232863 19.6608451 3.1575466 21.83054071 3 24 C2.34 24 1.68 24 1 24 C0.67 16.08 0.34 8.16 0 0 Z " fill="#F0C1D9" transform="translate(218,271)"/>
<path d="M0 0 C3.465 1.485 3.465 1.485 7 3 C6.67 3.66 6.34 4.32 6 5 C8.97 5.495 8.97 5.495 12 6 C12 6.33 12 6.66 12 7 C7.05 7 2.1 7 -3 7 C-1 1 -1 1 0 0 Z " fill="#E1BFD3" transform="translate(233,272)"/>
<path d="M0 0 C0.33 0.99 0.66 1.98 1 3 C1.99 3.33 2.98 3.66 4 4 C4 7.3 4 10.6 4 14 C2.02 14.99 2.02 14.99 0 16 C-0.19389096 13.5211787 -0.38040123 11.04219069 -0.5625 8.5625 C-0.61857422 7.85544922 -0.67464844 7.14839844 -0.73242188 6.41992188 C-0.86190993 4.61572163 -0.93521608 2.80768048 -1 1 C-0.67 0.67 -0.34 0.34 0 0 Z " fill="#893559" transform="translate(85,270)"/>
<path d="M0 0 C0.99 0.66 1.98 1.32 3 2 C0.47542462 6.20762564 -1.44078963 9.03125007 -6 11 C-8.67934351 11.50892558 -11.27449316 11.76902484 -14 12 C-12.375 10 -12.375 10 -10 8 C-6.75 7.75 -6.75 7.75 -4 8 C-3.34 6.68 -2.68 5.36 -2 4 C-1.34 4 -0.68 4 0 4 C0 2.68 0 1.36 0 0 Z " fill="#AE4F83" transform="translate(132,284)"/>
<path d="M0 0 C0.556875 0.226875 1.11375 0.45375 1.6875 0.6875 C0.6975 0.6875 -0.2925 0.6875 -1.3125 0.6875 C-1.4671875 1.6465625 -1.4671875 1.6465625 -1.625 2.625 C-1.851875 3.305625 -2.07875 3.98625 -2.3125 4.6875 C-3.3025 5.0175 -4.2925 5.3475 -5.3125 5.6875 C-6.04573796 7.70258358 -6.04573796 7.70258358 -6.3125 9.6875 C-6.9725 9.6875 -7.6325 9.6875 -8.3125 9.6875 C-8.6425 10.3475 -8.9725 11.0075 -9.3125 11.6875 C-10 10 -10 10 -10.3125 7.6875 C-8.36329191 3.24763712 -5.25468642 -0.71009276 0 0 Z " fill="#90516C" transform="translate(65.3125,249.3125)"/>
<path d="M0 0 C4.29 0 8.58 0 13 0 C13.33 1.65 13.66 3.3 14 5 C13.505 4.67 13.01 4.34 12.5 4 C8.98533168 2.59413267 5.69924534 2.4024296 2 3 C-1.14344435 4.74635797 -3.46862726 6.46862726 -6 9 C-6.33 8.01 -6.66 7.02 -7 6 C-5.8125 3.8125 -5.8125 3.8125 -4 2 C-2.68 2 -1.36 2 0 2 C0 1.34 0 0.68 0 0 Z " fill="#ECC7DB" transform="translate(232,264)"/>
<path d="M0 0 C-1.98 0.99 -1.98 0.99 -4 2 C-4 2.99 -4 3.98 -4 5 C-10.4 6.23076923 -10.4 6.23076923 -13.4375 5.0625 C-13.953125 4.711875 -14.46875 4.36125 -15 4 C-14.67 3.01 -14.34 2.02 -14 1 C-14 1.66 -14 2.32 -14 3 C-13.360625 2.505 -12.72125 2.01 -12.0625 1.5 C-7.95976517 -0.50950277 -4.48556418 -0.26385672 0 0 Z " fill="#985272" transform="translate(172,266)"/>
<path d="M0 0 C1.19882813 0.15275391 1.19882813 0.15275391 2.421875 0.30859375 C3.02515625 0.39238281 3.6284375 0.47617188 4.25 0.5625 C4.25 0.8925 4.25 1.2225 4.25 1.5625 C3.53714844 1.57667969 2.82429688 1.59085938 2.08984375 1.60546875 C-4.39190066 1.92824741 -9.2072729 2.65254645 -13.75 7.5625 C-15.22772157 10.2003567 -15.22772157 10.2003567 -15.75 12.5625 C-16.41 12.5625 -17.07 12.5625 -17.75 12.5625 C-16.51176234 6.7840576 -13.58989536 3.69720016 -8.75 0.5625 C-5.67329635 -0.54610982 -3.2184537 -0.42597181 0 0 Z " fill="#995974" transform="translate(166.75,161.4375)"/>
<path d="M0 0 C0.66 0.66 1.32 1.32 2 2 C1.2575 3.2375 1.2575 3.2375 0.5 4.5 C-1.69626843 9.62462633 -1.79195953 14.62412142 0 20 C-0.66 20 -1.32 20 -2 20 C-4 18 -4 18 -4.1953125 14.9609375 C-4.17210938 13.77757812 -4.14890625 12.59421875 -4.125 11.375 C-4.10695313 10.18648438 -4.08890625 8.99796875 -4.0703125 7.7734375 C-4.04710938 6.85820312 -4.02390625 5.94296875 -4 5 C-3.01 5 -2.02 5 -1 5 C-0.67 3.35 -0.34 1.7 0 0 Z " fill="#F5C4E4" transform="translate(105,268)"/>
<path d="M0 0 C1.98 0 3.96 0 6 0 C6 1.98 6 3.96 6 6 C4.02 6 2.04 6 0 6 C0 4.02 0 2.04 0 0 Z " fill="#985775" transform="translate(183,256)"/>
<path d="M0 0 C1.27133789 0.00966797 1.27133789 0.00966797 2.56835938 0.01953125 C3.8899707 0.04466797 3.8899707 0.04466797 5.23828125 0.0703125 C6.57729492 0.08384766 6.57729492 0.08384766 7.94335938 0.09765625 C10.14610439 0.12121502 12.34830713 0.15410921 14.55078125 0.1953125 C14.55078125 0.5253125 14.55078125 0.8553125 14.55078125 1.1953125 C13.30941406 1.31648437 12.06804687 1.43765625 10.7890625 1.5625 C9.14709599 1.73138798 7.50517102 1.9006801 5.86328125 2.0703125 C5.04666016 2.14894531 4.23003906 2.22757813 3.38867188 2.30859375 C-0.87550247 2.75745421 -4.53859329 3.29973437 -8.44921875 5.1953125 C-6.89999892 0.547653 -4.53206736 -0.06083312 0 0 Z " fill="#E8C6DB" transform="translate(67.44921875,252.8046875)"/>
<path d="M0 0 C2.4375 1.125 2.4375 1.125 5 3 C5.8125 6.1875 5.8125 6.1875 6 9 C5.01 8.67 4.02 8.34 3 8 C3 7.34 3 6.68 3 6 C0.525 5.01 0.525 5.01 -2 4 C-1.34 2.68 -0.68 1.36 0 0 Z " fill="#92516B" transform="translate(252,250)"/>
<path d="M0 0 C0.99 0 1.98 0 3 0 C3 3.96 3 7.92 3 12 C2.01 12.495 2.01 12.495 1 13 C0.67 8.71 0.34 4.42 0 0 Z " fill="#FBCEEE" transform="translate(135,271)"/>
<path d="M0 0 C2.375 0.1875 2.375 0.1875 5 1 C6.3125 3.5625 6.3125 3.5625 7 6 C6.01 5.67 5.02 5.34 4 5 C3.67 5 3.34 5 3 5 C2.67 6.32 2.34 7.64 2 9 C0.4375 6.1875 0.4375 6.1875 -1 3 C-0.67 2.01 -0.34 1.02 0 0 Z " fill="#8F4D6D" transform="translate(82,268)"/>
<path d="M0 0 C5.39449293 -0.27429625 8.51925805 -0.36055646 13 3 C12.67 3.66 12.34 4.32 12 5 C8.37 5 4.74 5 1 5 C1 4.67 1 4.34 1 4 C2.65 4 4.3 4 6 4 C6 3.34 6 2.68 6 2 C3.03 1.505 3.03 1.505 0 1 C0 0.67 0 0.34 0 0 Z " fill="#935673" transform="translate(205,266)"/>
<path d="M0 0 C3.49823043 2.33215362 3.9218403 3.01910264 5 7 C5.2585813 10.35100257 5.40211802 13.65887234 5 17 C4.34 17.66 3.68 18.32 3 19 C3.33 15.7 3.66 12.4 4 9 C3.34 9 2.68 9 2 9 C1.34 6.03 0.68 3.06 0 0 Z " fill="#E4BBC7" transform="translate(85,359)"/>
<path d="M0 0 C3.93544623 1.31181541 5.74938163 3.95958727 8.14453125 7.1484375 C9.22877115 9.49514852 8.85573613 10.61653863 8 13 C4 6.25 4 6.25 4 4 C2.68 3.67 1.36 3.34 0 3 C0 2.01 0 1.02 0 0 Z " fill="#8F5B77" transform="translate(172,163)"/>
<path d="M0 0 C1.125 3.75 1.125 3.75 0 6 C-0.66 6 -1.32 6 -2 6 C-1.79375 7.093125 -1.5875 8.18625 -1.375 9.3125 C-1 13 -1 13 -3 16 C-3.55353075 4.29384966 -3.55353075 4.29384966 0 0 Z " fill="#EFBBCB" transform="translate(61,360)"/>
<path d="M0 0 C1.65 0.33 3.3 0.66 5 1 C5 2.65 5 4.3 5 6 C4.67 5.34 4.34 4.68 4 4 C2.68 4.33 1.36 4.66 0 5 C0 6.98 0 8.96 0 11 C-0.33 11 -0.66 11 -1 11 C-1.0270043 9.54176788 -1.04639787 8.08339325 -1.0625 6.625 C-1.07410156 5.81289063 -1.08570313 5.00078125 -1.09765625 4.1640625 C-1 2 -1 2 0 0 Z " fill="#A45D7E" transform="translate(225,275)"/>
<path d="M0 0 C0.66 0.66 1.32 1.32 2 2 C-0.30636275 4.30636275 -2.26663965 6.17775977 -5 8 C-5.99 7.67 -6.98 7.34 -8 7 C-5.36 4.69 -2.72 2.38 0 0 Z " fill="#EDDAE3" transform="translate(248,46)"/>
<path d="M0 0 C1.90845703 0.15275391 1.90845703 0.15275391 3.85546875 0.30859375 C4.83128906 0.39238281 5.80710937 0.47617187 6.8125 0.5625 C6.8125 0.8925 6.8125 1.2225 6.8125 1.5625 C-1.1075 2.0575 -1.1075 2.0575 -9.1875 2.5625 C-9.5175 1.9025 -9.8475 1.2425 -10.1875 0.5625 C-6.51762779 -0.66079074 -3.84782178 -0.31771006 0 0 Z " fill="#7F5B70" transform="translate(273.1875,33.4375)"/>
<path d="M0 0 C0.66 0 1.32 0 2 0 C2 0.99 2 1.98 2 3 C-0.98055586 5.42603384 -3.00323092 6.91332443 -6.875 7.25 C-7.57625 7.1675 -8.2775 7.085 -9 7 C-6 5 -6 5 -3.9375 4.625 C-1.79331795 4.16676943 -1.79331795 4.16676943 -0.75 1.9375 C-0.37875 0.9784375 -0.37875 0.9784375 0 0 Z " fill="#F4DFEC" transform="translate(258,307)"/>
<path d="M0 0 C0.33 0.66 0.66 1.32 1 2 C-0.98 2.99 -0.98 2.99 -3 4 C-3 3.34 -3 2.68 -3 2 C-4.65 2 -6.3 2 -8 2 C-8 1.34 -8 0.68 -8 0 C-4.97878489 -0.97110486 -2.99536737 -1.13617383 0 0 Z " fill="#EDC0D9" transform="translate(73,265)"/>
<path d="M0 0 C1.32 0.33 2.64 0.66 4 1 C4 2.32 4 3.64 4 5 C1.69 5 -0.62 5 -3 5 C-2.34 4.67 -1.68 4.34 -1 4 C-0.34786708 1.97536745 -0.34786708 1.97536745 0 0 Z " fill="#944566" transform="translate(144,291)"/>
<path d="M0 0 C1.65 0 3.3 0 5 0 C5 1.65 5 3.3 5 5 C3.68 5.33 2.36 5.66 1 6 C0.67 4.02 0.34 2.04 0 0 Z " fill="#8A4969" transform="translate(139,259)"/>
<path d="M0 0 C0.66 0 1.32 0 2 0 C2 2.64 2 5.28 2 8 C1.34 8 0.68 8 0 8 C-1.125 2.25 -1.125 2.25 0 0 Z " fill="#914668" transform="translate(56,300)"/>
<path d="M0 0 C0.66 0.99 1.32 1.98 2 3 C1.01 4.485 1.01 4.485 0 6 C-1.32 6 -2.64 6 -4 6 C-4 5.01 -4 4.02 -4 3 C-2 1.3125 -2 1.3125 0 0 Z " fill="#C23C7E" transform="translate(128,286)"/>
<path d="M0 0 C-7.28571429 3.42857143 -7.28571429 3.42857143 -12 3 C-7.91789166 -0.35316042 -5.14839074 -1.65483988 0 0 Z " fill="#F4E2F0" transform="translate(272,36)"/>
<path d="M0 0 C0.66 0 1.32 0 2 0 C3.6875 2.375 3.6875 2.375 5 5 C4.67 5.66 4.34 6.32 4 7 C3.01 6.67 2.02 6.34 1 6 C0.67 4.02 0.34 2.04 0 0 Z " fill="#624052" transform="translate(343,84)"/>
<path d="M0 0 C0 0.66 0 1.32 0 2 C-0.78375 1.95875 -1.5675 1.9175 -2.375 1.875 C-5.16116119 1.71271266 -5.16116119 1.71271266 -7 4 C-7 2.68 -7 1.36 -7 0 C-4.3333581 -1.33332095 -2.83319697 -0.67102033 0 0 Z " fill="#57263A" transform="translate(339,76)"/>
<path d="M0 0 C1.9375 0.3125 1.9375 0.3125 4 1 C4.33 1.99 4.66 2.98 5 4 C3.35 4 1.7 4 0 4 C0 2.68 0 1.36 0 0 Z " fill="#833B5C" transform="translate(230,290)"/>
<path d="M0 0 C1.65 0 3.3 0 5 0 C4.67 1.98 4.34 3.96 4 6 C3.54625 5.525625 3.0925 5.05125 2.625 4.5625 C1.06741796 2.90972192 1.06741796 2.90972192 -1 2 C-0.67 1.34 -0.34 0.68 0 0 Z " fill="#91627B" transform="translate(245,286)"/>
<path d="M0 0 C-0.8125 1.9375 -0.8125 1.9375 -2 4 C-2.99 4.33 -3.98 4.66 -5 5 C-5 3.68 -5 2.36 -5 1 C-3 0 -3 0 0 0 Z " fill="#8A4666" transform="translate(161,271)"/>
<path d="M0 0 C1.32 0 2.64 0 4 0 C3.67 1.32 3.34 2.64 3 4 C1.68 3.67 0.36 3.34 -1 3 C-0.67 2.01 -0.34 1.02 0 0 Z " fill="#96365F" transform="translate(168,267)"/>
</svg>
