<svg width="18" height="24" viewBox="0 0 18 24" fill="none" xmlns="http://www.w3.org/2000/svg">
    <g clip-path="url(#clip0_1741_11672)">
        <mask id="mask0_1741_11672" style="mask-type:luminance" maskUnits="userSpaceOnUse" x="0" y="0" width="18"
            height="24">
            <path
                d="M9.99998 0.998035C9.99998 0.446877 10.4477 0 11 0H17C17.5522 0 18 0.446877 18 0.998035V22.9552C18 23.5064 17.5522 23.9532 17 23.9532H0.999984C0.44775 23.9532 0 23.5064 0 22.9552V12.9747C0 12.4235 0.44775 11.9767 0.999984 11.9767H5.00006V6.98639C5.00006 6.43516 5.44774 5.98828 6.00005 5.98828H9.99998V0.998035Z"
                fill="white" />
        </mask>
        <g mask="url(#mask0_1741_11672)">
            <path d="M18 0V23.9532H10V0H18Z" fill="url(#paint0_linear_1741_11672)" />
        </g>
        <mask id="mask1_1741_11672" style="mask-type:luminance" maskUnits="userSpaceOnUse" x="0" y="0" width="18"
            height="24">
            <path
                d="M9.99998 0.998035C9.99998 0.446877 10.4477 0 11 0H17C17.5522 0 18 0.446877 18 0.998035V22.9552C18 23.5064 17.5522 23.9532 17 23.9532H0.999984C0.44775 23.9532 0 23.5064 0 22.9552V12.9747C0 12.4235 0.44775 11.9767 0.999984 11.9767H5.00006V6.98639C5.00006 6.43516 5.44774 5.98828 6.00005 5.98828H9.99998V0.998035Z"
                fill="white" />
        </mask>
        <g mask="url(#mask1_1741_11672)">
            <path d="M13.0001 7.08593V24.0528H5V6.08789H12C12.5523 6.08789 13 6.5347 13 7.08593" fill="black"
                fill-opacity="0.2" />
        </g>
        <mask id="mask2_1741_11672" style="mask-type:luminance" maskUnits="userSpaceOnUse" x="0" y="0" width="18"
            height="24">
            <path
                d="M9.99998 0.998035C9.99998 0.446877 10.4477 0 11 0H17C17.5522 0 18 0.446877 18 0.998035V22.9552C18 23.5064 17.5522 23.9532 17 23.9532H0.999984C0.44775 23.9532 0 23.5064 0 22.9552V12.9747C0 12.4235 0.44775 11.9767 0.999984 11.9767H5.00006V6.98639C5.00006 6.43516 5.44774 5.98828 6.00005 5.98828H9.99998V0.998035Z"
                fill="white" />
        </mask>
        <g mask="url(#mask2_1741_11672)">
            <path d="M13.0001 7.48541V24.4522H5V6.4873H12C12.5523 6.4873 13 6.93418 13 7.48541" fill="black"
                fill-opacity="0.18" />
        </g>
        <mask id="mask3_1741_11672" style="mask-type:luminance" maskUnits="userSpaceOnUse" x="0" y="0" width="18"
            height="24">
            <path
                d="M9.99998 0.998035C9.99998 0.446877 10.4477 0 11 0H17C17.5522 0 18 0.446877 18 0.998035V22.9552C18 23.5064 17.5522 23.9532 17 23.9532H0.999984C0.44775 23.9532 0 23.5064 0 22.9552V12.9747C0 12.4235 0.44775 11.9767 0.999984 11.9767H5.00006V6.98639C5.00006 6.43516 5.44774 5.98828 6.00005 5.98828H9.99998V0.998035Z"
                fill="white" />
        </mask>
        <g mask="url(#mask3_1741_11672)">
            <path d="M13.0001 6.98639V23.9532H5V5.98828H12C12.5523 5.98828 13 6.43516 13 6.98639"
                fill="url(#paint1_linear_1741_11672)" />
        </g>
        <mask id="mask4_1741_11672" style="mask-type:luminance" maskUnits="userSpaceOnUse" x="0" y="0" width="18"
            height="24">
            <path
                d="M9.99998 0.998035C9.99998 0.446877 10.4477 0 11 0H17C17.5522 0 18 0.446877 18 0.998035V22.9552C18 23.5064 17.5522 23.9532 17 23.9532H0.999984C0.44775 23.9532 0 23.5064 0 22.9552V12.9747C0 12.4235 0.44775 11.9767 0.999984 11.9767H5.00006V6.98639C5.00006 6.43516 5.44774 5.98828 6.00005 5.98828H9.99998V0.998035Z"
                fill="white" />
        </mask>
        <g mask="url(#mask4_1741_11672)">
            <path d="M0 11.9766V23.9531H8.00002V12.9747C8.00002 12.4234 7.55227 11.9766 7.00003 11.9766L0 11.9766Z"
                fill="url(#paint2_linear_1741_11672)" />
        </g>
    </g>
    <defs>
        <linearGradient id="paint0_linear_1741_11672" x1="350.745" y1="-5.81702e-06" x2="1232.16" y2="1872"
            gradientUnits="userSpaceOnUse">
            <stop stop-color="#E6AD10" />
            <stop offset="1" stop-color="#C87E0E" />
        </linearGradient>
        <linearGradient id="paint1_linear_1741_11672" x1="325.979" y1="5.98827" x2="1061.37" y2="1435.04"
            gradientUnits="userSpaceOnUse">
            <stop stop-color="#F6D751" />
            <stop offset="1" stop-color="#E6AD10" />
        </linearGradient>
        <linearGradient id="paint2_linear_1741_11672" x1="222.192" y1="11.9766" x2="669.821" y2="1074.9"
            gradientUnits="userSpaceOnUse">
            <stop stop-color="#F9E589" />
            <stop offset="1" stop-color="#F6D751" />
        </linearGradient>
        <clipPath id="clip0_1741_11672">
            <rect width="18" height="24" fill="white" />
        </clipPath>
    </defs>
</svg>