<svg width="25" height="25" viewBox="0 0 25 25" fill="none" xmlns="http://www.w3.org/2000/svg">
    <path
        d="M12.3826 2.39176C11.5579 2.39566 10.7708 2.46578 10.0779 2.58844C8.03686 2.94898 7.66654 3.70367 7.66654 5.09566V6.93375H12.4894V7.54644H5.85639C4.45482 7.54644 3.22748 8.38883 2.8435 9.99195C2.40053 11.8289 2.381 12.9754 2.8435 14.8935C3.18627 16.3214 4.00502 17.3386 5.40678 17.3386H7.06518V15.1351C7.06518 13.5431 8.44232 12.139 10.0781 12.139H14.8955C16.2365 12.139 17.3068 11.0347 17.3068 9.68824V5.09586C17.3068 3.78863 16.204 2.8068 14.8955 2.58863C14.0665 2.45074 13.207 2.38805 12.3826 2.39176ZM9.77436 3.87008C10.2724 3.87008 10.6794 4.28355 10.6794 4.79215C10.6794 5.29859 10.2726 5.70816 9.77436 5.70816C9.27436 5.70816 8.86947 5.29859 8.86947 4.79215C8.86928 4.28355 9.27436 3.87008 9.77436 3.87008Z"
        fill="url(#paint0_linear_1741_11695)" />
    <path
        d="M17.9057 7.54707V9.68887C17.9057 11.349 16.4979 12.7465 14.8928 12.7465H10.0754C8.75586 12.7465 7.66406 13.876 7.66406 15.1975V19.7902C7.66406 21.0971 8.80039 21.866 10.0754 22.2408C11.602 22.6895 13.066 22.7707 14.8928 22.2408C16.1068 21.8891 17.3041 21.1816 17.3041 19.7902V17.952H12.4869V17.3391H19.7158C21.1174 17.3391 21.64 16.3615 22.1275 14.8939C22.6311 13.3832 22.6094 11.9303 22.1275 9.99238C21.7811 8.59688 21.1195 7.54688 19.7158 7.54688L17.9057 7.54707ZM15.1961 19.1773C15.6963 19.1773 16.1012 19.5869 16.1012 20.0938C16.1012 20.602 15.6961 21.0154 15.1961 21.0154C14.698 21.0154 14.2912 20.602 14.2912 20.0938C14.2912 19.5869 14.698 19.1773 15.1961 19.1773Z"
        fill="url(#paint1_linear_1741_11695)" />
    <path opacity="0.444"
        d="M19.0045 23.3588C19.0045 24.0508 16.1107 24.6119 12.5414 24.6119C8.97188 24.6119 6.07812 24.0508 6.07812 23.3588C6.07812 22.6668 8.97168 22.1055 12.5414 22.1055C16.1107 22.1055 19.0045 22.6664 19.0045 23.3588Z"
        fill="url(#paint2_radial_1741_11695)" />
    <defs>
        <linearGradient id="paint0_linear_1741_11695" x1="2.02043" y1="2.96649" x2="13.1442" y2="12.4528"
            gradientUnits="userSpaceOnUse">
            <stop stop-color="#5A9FD4" />
            <stop offset="1" stop-color="#306998" />
        </linearGradient>
        <linearGradient id="paint1_linear_1741_11695" x1="17.3269" y1="18.3503" x2="13.3378" y2="12.7561"
            gradientUnits="userSpaceOnUse">
            <stop stop-color="#FFD43B" />
            <stop offset="1" stop-color="#FFE873" />
        </linearGradient>
        <radialGradient id="paint2_radial_1741_11695" cx="0" cy="0" r="1" gradientUnits="userSpaceOnUse"
            gradientTransform="translate(12.5153 23.3229) rotate(-90) scale(1.25358 5.51052)">
            <stop stop-color="#B8B8B8" stop-opacity="0.498" />
            <stop offset="1" stop-color="#7F7F7F" stop-opacity="0" />
        </radialGradient>
    </defs>
</svg>