<?xml version="1.0" encoding="UTF-8"?>
<svg version="1.1" xmlns="http://www.w3.org/2000/svg" width="590" height="541">
<path d="M0 0 C0 0.99 0 1.98 0 3 C0.99 3.33 1.98 3.66 3 4 C2.67 6.31 2.34 8.62 2 11 C5.80427492 13.2013866 5.80427492 13.2013866 10 14 C10.66 15.65 11.32 17.3 12 19 C12.99 18.67 13.98 18.34 15 18 C15.66 18.33 16.32 18.66 17 19 C16.67 20.32 16.34 21.64 16 23 C15.34 23 14.68 23 14 23 C14.350625 23.61875 14.70125 24.2375 15.0625 24.875 C15.371875 25.57625 15.68125 26.2775 16 27 C15.67 27.66 15.34 28.32 15 29 C15.66 29 16.32 29 17 29 C17.33 29.99 17.66 30.98 18 32 C17.01 32 16.02 32 15 32 C15.33 33.65 15.66 35.3 16 37 C14.515 37.495 14.515 37.495 13 38 C12.979375 38.721875 12.95875 39.44375 12.9375 40.1875 C11.55987495 44.32037516 8.60643381 45.78717508 5 48 C5.92683594 48.04898438 6.85367187 48.09796875 7.80859375 48.1484375 C9.00613281 48.22320312 10.20367187 48.29796875 11.4375 48.375 C13.22994141 48.47941406 13.22994141 48.47941406 15.05859375 48.5859375 C16.02925781 48.72257812 16.99992187 48.85921875 18 49 C18.33 49.66 18.66 50.32 19 51 C20.65 50.34 22.3 49.68 24 49 C24.680625 49.7115625 24.680625 49.7115625 25.375 50.4375 C26.93258204 52.09027808 26.93258204 52.09027808 29 53 C29 52.34 29 51.68 29 51 C30.485 50.505 30.485 50.505 32 50 C32.33 51.32 32.66 52.64 33 54 C34.32 54.33 35.64 54.66 37 55 C37 55.66 37 56.32 37 57 C37.99 57 38.98 57 40 57 C40.309375 56.0409375 40.309375 56.0409375 40.625 55.0625 C42 53 42 53 45.125 52.25 C46.07375 52.1675 47.0225 52.085 48 52 C49.125 58.75 49.125 58.75 48 61 C48.639375 61.12375 49.27875 61.2475 49.9375 61.375 C50.618125 61.58125 51.29875 61.7875 52 62 C52.33 62.66 52.66 63.32 53 64 C54.32 63.67 55.64 63.34 57 63 C57.33 64.32 57.66 65.64 58 67 C58.99 67 59.98 67 61 67 C61 67.99 61 68.98 61 70 C61.66 70 62.32 70 63 70 C64.37310707 71.29233607 65.71034824 72.62437146 67 74 C67.27263672 73.04287109 67.27263672 73.04287109 67.55078125 72.06640625 C67.80214844 71.24011719 68.05351562 70.41382812 68.3125 69.5625 C68.55613281 68.73878906 68.79976563 67.91507812 69.05078125 67.06640625 C69.52064453 66.04353516 69.52064453 66.04353516 70 65 C71.485 64.505 71.485 64.505 73 64 C74.66710346 62.50014391 74.66710346 62.50014391 76 61 C76.33 61.99 76.66 62.98 77 64 C78.485 63.505 78.485 63.505 80 63 C81.33568021 63.32380126 82.66923011 63.65657551 84 64 C84.66 63.67 85.32 63.34 86 63 C86.99 63.66 87.98 64.32 89 65 C88.67 65.53625 88.34 66.0725 88 66.625 C86.75908477 69.57217367 86.79321834 71.82934784 87 75 C87.33 75.66 87.66 76.32 88 77 C86.515 77.495 86.515 77.495 85 78 C84.34 78.99 83.68 79.98 83 81 C79.375 82.1875 79.375 82.1875 76 83 C76.33 83.99 76.66 84.98 77 86 C77.99 86.33 78.98 86.66 80 87 C80.33 87.66 80.66 88.32 81 89 C81.99 89.66 82.98 90.32 84 91 C84.6875 93.125 84.6875 93.125 85 95 C86.32 95 87.64 95 89 95 C88.67 97.31 88.34 99.62 88 102 C88.66 102 89.32 102 90 102 C90.144375 102.78375 90.28875 103.5675 90.4375 104.375 C90.87798925 106.96421018 90.87798925 106.96421018 92 109 C92.5775 108.484375 93.155 107.96875 93.75 107.4375 C96 106 96 106 98 106.125 C100.29400986 107.12862931 102.06970438 108.41440003 104 110 C102.71792641 112.86001033 101.50848764 115.07039412 99 117 C97.68 117 96.36 117 95 117 C95.32960216 122.01535052 95.32960216 122.01535052 98 126 C97.34 128.31 96.68 130.62 96 133 C97.65 132.67 99.3 132.34 101 132 C101.66 133.65 102.32 135.3 103 137 C100 139 100 139 97 139 C96.855625 140.11375 96.71125 141.2275 96.5625 142.375 C96 146 96 146 95 148 C95.99 148 96.98 148 98 148 C98.33 149.32 98.66 150.64 99 152 C97.68 152 96.36 152 95 152 C94.20046862 155.28696233 93.90341064 156.71023192 95 160 C93.68 160 92.36 160 91 160 C91 161.65 91 163.3 91 165 C90.34 165.33 89.68 165.66 89 166 C88.67 166.99 88.34 167.98 88 169 C85.85546875 171.0078125 85.85546875 171.0078125 83.1875 173.125 C81.87845703 174.18074219 81.87845703 174.18074219 80.54296875 175.2578125 C78.23237178 176.84080213 76.72934148 177.58010131 74 178 C74 178.66 74 179.32 74 180 C74.58652344 180.11601562 75.17304688 180.23203125 75.77734375 180.3515625 C78.13335688 181.03890552 79.59714994 181.92407042 81.5625 183.375 C82.43068359 184.00535156 82.43068359 184.00535156 83.31640625 184.6484375 C86.2317239 186.98880852 87.79424496 188.38273489 89 192 C89.66 192 90.32 192 91 192 C91 193.98 91 195.96 91 198 C92.32 198.33 93.64 198.66 95 199 C94.814375 199.598125 94.62875 200.19625 94.4375 200.8125 C93.77906313 203.16408762 93.77906313 203.16408762 95 206 C96.32 206 97.64 206 99 206 C98.67 207.32 98.34 208.64 98 210 C97.01 210 96.02 210 95 210 C95.33 210.7425 95.66 211.485 96 212.25 C97 215 97 215 97 219 C97.61875 219.144375 98.2375 219.28875 98.875 219.4375 C101 220 101 220 103 221 C102.34 222.32 101.68 223.64 101 225 C99.35 225 97.7 225 96 225 C96.66 227.64 97.32 230.28 98 233 C97.34 233.33 96.68 233.66 96 234 C95.61781233 235.65614657 95.28604898 237.32457024 95 239 C94.67 239.66 94.34 240.32 94 241 C95.093125 240.896875 96.18625 240.79375 97.3125 240.6875 C99.1378125 240.8421875 99.1378125 240.8421875 101 241 C102.95578117 243.39740918 104 244.87586608 104 248 C103.01 248 102.02 248 101 248 C101 248.66 101 249.32 101 250 C100.34 250 99.68 250 99 250 C98.67 250.66 98.34 251.32 98 252 C95.13275314 251.42655063 94.1385485 251.1385485 92 249 C90.49069817 252.3863251 90.49069817 252.3863251 90 256 C89.34 256 88.68 256 88 256 C88.33 258.31 88.66 260.62 89 263 C87.68 263 86.36 263 85 263 C84.67 264.65 84.34 266.3 84 268 C82.68 268 81.36 268 80 268 C79.67 269.32 79.34 270.64 79 272 C78.34 272 77.68 272 77 272 C76.67 272.99 76.34 273.98 76 275 C78.64 275.66 81.28 276.32 84 277 C84.33 278.32 84.66 279.64 85 281 C85.99 281.33 86.98 281.66 88 282 C87.814375 282.5775 87.62875 283.155 87.4375 283.75 C86.94763862 286.26928708 87.24220802 287.57506565 88 290 C88.33333333 291.33333333 88.66666667 292.66666667 89 294 C86.98177083 293.96744792 84.96354167 293.93489583 82.9453125 293.90234375 C80.91814596 293.87350758 80.91814596 293.87350758 79 295 C78.34 294.67 77.68 294.34 77 294 C77 294.66 77 295.32 77 296 C76.01 296 75.02 296 74 296 C73.67 295.34 73.34 294.68 73 294 C72.01 293.67 71.02 293.34 70 293 C70 292.01 70 291.02 70 290 C69.34 290 68.68 290 68 290 C67.67 288.02 67.34 286.04 67 284 C66.38125 284.66 65.7625 285.32 65.125 286 C63 288 63 288 61 288 C61 288.66 61 289.32 61 290 C59.68 290.66 58.36 291.32 57 292 C57 292.99 57 293.98 57 295 C55.68 294.67 54.36 294.34 53 294 C52.67 294.66 52.34 295.32 52 296 C49.9375 296.625 49.9375 296.625 48 297 C48.185625 297.928125 48.37125 298.85625 48.5625 299.8125 C49 303 49 303 48 306 C45.125 305.75 45.125 305.75 42 305 C40.625 302.9375 40.625 302.9375 40 301 C39.01 301 38.02 301 37 301 C37 301.66 37 302.32 37 303 C36.38125 303.0825 35.7625 303.165 35.125 303.25 C32.81562433 303.81258459 32.81562433 303.81258459 31.75 306.0625 C31.5025 306.701875 31.255 307.34125 31 308 C30.01 307.01 29.02 306.02 28 305 C27.443125 305.515625 26.88625 306.03125 26.3125 306.5625 C24 308 24 308 21.25 307.6875 C20.13625 307.3471875 20.13625 307.3471875 19 307 C18.67 307.66 18.34 308.32 18 309 C17.01 309 16.02 309 15 309 C13.26953591 309.15260786 11.54037955 309.32048005 9.8125 309.5 C8.91144531 309.5928125 8.01039063 309.685625 7.08203125 309.78125 C6.39496094 309.8534375 5.70789063 309.925625 5 310 C6.2375 310.680625 6.2375 310.680625 7.5 311.375 C8.7375 312.179375 8.7375 312.179375 10 313 C10 313.66 10 314.32 10 315 C10.66 315 11.32 315 12 315 C12.33 316.65 12.66 318.3 13 320 C13.66 320 14.32 320 15 320 C15 321.98 15 323.96 15 326 C15.99 326.33 16.98 326.66 18 327 C17.01 327.33 16.02 327.66 15 328 C15.20625 328.598125 15.4125 329.19625 15.625 329.8125 C16 332 16 332 14 335 C14.99 335 15.98 335 17 335 C17 336.32 17 337.64 17 339 C15.35 339 13.7 339 12 339 C11.62875 340.2065625 11.62875 340.2065625 11.25 341.4375 C10 344 10 344 8.125 344.6875 C7.42375 344.790625 6.7225 344.89375 6 345 C4.6520257 345.63654342 3.31403276 346.29605388 2 347 C2.33 349.31 2.66 351.62 3 354 C2.01 354.33 1.02 354.66 0 355 C0 355.99 0 356.98 0 358 C-0.99 357.67 -1.98 357.34 -3 357 C-3 356.34 -3 355.68 -3 355 C-3.99 355 -4.98 355 -6 355 C-6.38133299 353.0085944 -6.71325582 351.00720923 -7 349 C-6.67 348.67 -6.34 348.34 -6 348 C-7.65 347.67 -9.3 347.34 -11 347 C-11 346.34 -11 345.68 -11 345 C-12.32 345.33 -13.64 345.66 -15 346 C-15 345.01 -15 344.02 -15 343 C-18.01031744 342.06576355 -18.86650268 341.95550089 -22 343 C-22.66 342.67 -23.32 342.34 -24 342 C-24 338 -24 338 -22 336 C-22.32041397 333.39719432 -22.32041397 333.39719432 -23 331 C-23.99 330.67 -24.98 330.34 -26 330 C-26 329.34 -26 328.68 -26 328 C-25.01 328 -24.02 328 -23 328 C-23.33 326.02 -23.66 324.04 -24 322 C-23.34 322 -22.68 322 -22 322 C-21.938125 321.278125 -21.87625 320.55625 -21.8125 319.8125 C-20.44185055 315.06794422 -16.99495696 312.66330464 -13 310 C-13.67546875 309.93941406 -14.3509375 309.87882812 -15.046875 309.81640625 C-15.93890625 309.73261719 -16.8309375 309.64882813 -17.75 309.5625 C-18.63171875 309.48128906 -19.5134375 309.40007812 -20.421875 309.31640625 C-23 309 -23 309 -25.1875 308.4375 C-27.41518561 307.89978278 -28.84457475 308.30718474 -31 309 C-31.33 308.01 -31.66 307.02 -32 306 C-34.01508358 305.26676204 -34.01508358 305.26676204 -36 305 C-36.33 305.99 -36.66 306.98 -37 308 C-40 307 -40 307 -42 304 C-42.66 304 -43.32 304 -44 304 C-44 303.34 -44 302.68 -44 302 C-45.32 301.67 -46.64 301.34 -48 301 C-48 302.65 -48 304.3 -48 306 C-49.65 306.33 -51.3 306.66 -53 307 C-55.125 302.375 -55.125 302.375 -54 299 C-57.86763446 297.12456646 -57.86763446 297.12456646 -62 298 C-62.66 296.68 -63.32 295.36 -64 294 C-64.66 294 -65.32 294 -66 294 C-66 293.34 -66 292.68 -66 292 C-66.639375 291.690625 -67.27875 291.38125 -67.9375 291.0625 C-70 290 -70 290 -71 289 C-71.185625 290.9490625 -71.185625 290.9490625 -71.375 292.9375 C-71.5859375 295.15234375 -71.5859375 295.15234375 -72 297 C-72.66 297.33 -73.32 297.66 -74 298 C-74.33 298.99 -74.66 299.98 -75 301 C-77.64 300.67 -80.28 300.34 -83 300 C-83.33 300.66 -83.66 301.32 -84 302 C-85.32 302 -86.64 302 -88 302 C-87.773125 301.13375 -87.54625 300.2675 -87.3125 299.375 C-86.9367237 295.31661591 -87.94742069 293.44833324 -90 290 C-84.85714286 283.42857143 -84.85714286 283.42857143 -81 282 C-82.32 281.34 -83.64 280.68 -85 280 C-85 279.34 -85 278.68 -85 278 C-85.99 278 -86.98 278 -88 278 C-88.99 276.515 -88.99 276.515 -90 275 C-92.05925139 274.27617533 -92.05925139 274.27617533 -94 274 C-93.67 273.01 -93.34 272.02 -93 271 C-93.99 270.67 -94.98 270.34 -96 270 C-97.1875 267.9375 -97.1875 267.9375 -98 266 C-98.7425 266.7734375 -98.7425 266.7734375 -99.5 267.5625 C-103.24714452 269.7171081 -105.80844613 268.76845154 -110 268 C-109.57507874 266.70414084 -109.13454118 265.4133956 -108.6875 264.125 C-108.44386719 263.40570313 -108.20023438 262.68640625 -107.94921875 261.9453125 C-107 260 -107 260 -104 258 C-104.66 256.68 -105.32 255.36 -106 254 C-106.99 254 -107.98 254 -109 254 C-109.33 252.35 -109.66 250.7 -110 249 C-110.5775 249.185625 -111.155 249.37125 -111.75 249.5625 C-114.20692525 250.04023546 -115.64397534 249.75729364 -118 249 C-117.34 247.35 -116.68 245.7 -116 244 C-115.01 244 -114.02 244 -113 244 C-113.33 242.68 -113.66 241.36 -114 240 C-114.66 240 -115.32 240 -116 240 C-116.33 239.01 -116.66 238.02 -117 237 C-118.65 236.67 -120.3 236.34 -122 236 C-121.484375 235.4225 -120.96875 234.845 -120.4375 234.25 C-118.73494807 232.12172477 -118.73494807 232.12172477 -119.3125 229.75 C-119.539375 229.1725 -119.76625 228.595 -120 228 C-121.32 227.67 -122.64 227.34 -124 227 C-123.34 225.35 -122.68 223.7 -122 222 C-122.99 221.67 -123.98 221.34 -125 221 C-125.22786458 219.07942708 -125.45572917 217.15885417 -125.68359375 215.23828125 C-126.02835331 212.79942657 -126.50634847 210.41340748 -127 208 C-127.52821064 205.23054987 -128.04486651 202.45894439 -128.5625 199.6875 C-128.77036133 198.57665039 -128.77036133 198.57665039 -128.98242188 197.44335938 C-129.32189055 195.62895786 -129.66098323 193.81448601 -130 192 C-130.25394531 192.72445312 -130.50789062 193.44890625 -130.76953125 194.1953125 C-135.50931677 207.50931677 -135.50931677 207.50931677 -139 211 C-139.45375 211.825 -139.9075 212.65 -140.375 213.5 C-142.08091684 216.12448744 -143.12793328 216.91059538 -146 218 C-146 218.66 -146 219.32 -146 220 C-147.98 220.33 -149.96 220.66 -152 221 C-152 222.32 -152 223.64 -152 225 C-152.8353125 224.6596875 -152.8353125 224.6596875 -153.6875 224.3125 C-156.13769023 223.77896099 -156.13769023 223.77896099 -158.75 225.1875 C-159.4925 225.785625 -160.235 226.38375 -161 227 C-161 228.32 -161 229.64 -161 231 C-162.32 231 -163.64 231 -165 231 C-165.33 230.01 -165.66 229.02 -166 228 C-166.99 228 -167.98 228 -169 228 C-169 228.66 -169 229.32 -169 230 C-171.31 230 -173.62 230 -176 230 C-175.67 231.32 -175.34 232.64 -175 234 C-175.66 234 -176.32 234 -177 234 C-177.33 234.99 -177.66 235.98 -178 237 C-179.9375 236.1875 -179.9375 236.1875 -182 235 C-182.33 234.01 -182.66 233.02 -183 232 C-182.67 231.34 -182.34 230.68 -182 230 C-182.78375 230 -183.5675 230 -184.375 230 C-186.91666667 230 -189.45833333 230 -192 230 C-192.66 229.34 -193.32 228.68 -194 228 C-196.31648799 226.96157435 -198.64903024 225.9578025 -201 225 C-200.938125 225.763125 -200.87625 226.52625 -200.8125 227.3125 C-201 230 -201 230 -202.0625 231.75 C-204.89753909 233.57905748 -207.68800975 233.68754809 -211 234 C-211.144375 233.401875 -211.28875 232.80375 -211.4375 232.1875 C-211.8872439 230.43849596 -212.42892341 228.71322977 -213 227 C-212.03921617 223.96983561 -211.26185454 222.26185454 -209 220 C-210.32 219.34 -211.64 218.68 -213 218 C-213 217.34 -213 216.68 -213 216 C-213.99 216 -214.98 216 -216 216 C-217.6875 213.5 -217.6875 213.5 -219 211 C-220.65 211.33 -222.3 211.66 -224 212 C-223.835 211.21625 -223.67 210.4325 -223.5 209.625 C-222.9376293 207.11791961 -222.9376293 207.11791961 -223 205 C-223.99 204.01 -223.99 204.01 -225 203 C-225.99 202.01 -225.99 202.01 -227 201 C-226.625 198.875 -226.625 198.875 -226 197 C-226.66 196.67 -227.32 196.34 -228 196 C-228.6328125 193.49609375 -228.6328125 193.49609375 -229.125 190.4375 C-229.29257813 189.42558594 -229.46015625 188.41367188 -229.6328125 187.37109375 C-229.75398438 186.58863281 -229.87515625 185.80617187 -230 185 C-230.78375 185.825 -231.5675 186.65 -232.375 187.5 C-235 190 -235 190 -237 190 C-237.33 190.66 -237.66 191.32 -238 192 C-239.8125 192.75 -239.8125 192.75 -242 193 C-243.34136367 192.34964186 -244.67532254 191.6837045 -246 191 C-246.99 191.33 -247.98 191.66 -249 192 C-249.268125 191.278125 -249.53625 190.55625 -249.8125 189.8125 C-251.01261623 186.97011947 -252.19186511 184.50357139 -254 182 C-256.08533633 181.12177688 -256.08533633 181.12177688 -258 181 C-258 179.68 -258 178.36 -258 177 C-257.195625 176.7525 -256.39125 176.505 -255.5625 176.25 C-254.2940625 175.63125 -254.2940625 175.63125 -253 175 C-252.26676204 172.98491642 -252.26676204 172.98491642 -252 171 C-251.34 170.67 -250.68 170.34 -250 170 C-249.34786708 167.97536745 -249.34786708 167.97536745 -249 166 C-248.4225 166.20625 -247.845 166.4125 -247.25 166.625 C-244.97242945 167.23128627 -244.97242945 167.23128627 -243 166 C-241 165 -241 165 -238.75 165.375 C-238.1725 165.58125 -237.595 165.7875 -237 166 C-237 166.66 -237 167.32 -237 168 C-236.21625 168.28875 -235.4325 168.5775 -234.625 168.875 C-232 170 -232 170 -230 172 C-229.01 166.555 -229.01 166.555 -228 161 C-227.34 161 -226.68 161 -226 161 C-226.495 158.525 -226.495 158.525 -227 156 C-225.68 155.67 -224.36 155.34 -223 155 C-222.67 153.68 -222.34 152.36 -222 151 C-222.66 150.67 -223.32 150.34 -224 150 C-224 148.68 -224 147.36 -224 146 C-222.35 146.33 -220.7 146.66 -219 147 C-218.566875 146.175 -218.13375 145.35 -217.6875 144.5 C-217.130625 143.675 -216.57375 142.85 -216 142 C-215.01 142 -214.02 142 -213 142 C-213 141.34 -213 140.68 -213 140 C-211 138.375 -211 138.375 -209 137 C-209.474375 136.5875 -209.94875 136.175 -210.4375 135.75 C-212.2236098 133.74955702 -212.7580753 132.66117166 -213 130 C-212.0625 127.875 -212.0625 127.875 -211 126 C-211 125.34 -211 124.68 -211 124 C-209.72125 124.103125 -208.4425 124.20625 -207.125 124.3125 C-206.40570313 124.37050781 -205.68640625 124.42851562 -204.9453125 124.48828125 C-203 125 -203 125 -201 128 C-200.875 130.6875 -200.875 130.6875 -201 133 C-196.13920526 131.08560515 -196.13920526 131.08560515 -191.8125 128.25 C-190 127 -190 127 -188 127.3125 C-187.34 127.539375 -186.68 127.76625 -186 128 C-184.68 128 -183.36 128 -182 128 C-182.33 127.01 -182.66 126.02 -183 125 C-181.68 123.68 -180.36 122.36 -179 121 C-177.68 122.32 -176.36 123.64 -175 125 C-175.495 126.485 -175.495 126.485 -176 128 C-174.9275 127.95875 -173.855 127.9175 -172.75 127.875 C-169.34252515 127.9885825 -167.79260369 128.21273364 -165 130 C-165 129.01 -165 128.02 -165 127 C-163.68 127 -162.36 127 -161 127 C-161 128.32 -161 129.64 -161 131 C-159.68 131.33 -158.36 131.66 -157 132 C-157 132.66 -157 133.32 -157 134 C-155.35 133.67 -153.7 133.34 -152 133 C-152 134.32 -152 135.64 -152 137 C-150.02 137.33 -148.04 137.66 -146 138 C-145.67 138.99 -145.34 139.98 -145 141 C-144.01 141.33 -143.02 141.66 -142 142 C-142 142.99 -142 143.98 -142 145 C-141.01 145.33 -140.02 145.66 -139 146 C-137.94091797 147.53466797 -137.94091797 147.53466797 -136.9921875 149.4921875 C-136.64542969 150.19730469 -136.29867187 150.90242187 -135.94140625 151.62890625 C-135.58949219 152.37011719 -135.23757812 153.11132812 -134.875 153.875 C-134.51535156 154.60847656 -134.15570313 155.34195313 -133.78515625 156.09765625 C-132.34926365 159.05010958 -131.04000727 161.8799782 -130 165 C-129.87882813 164.24976563 -129.75765625 163.49953125 -129.6328125 162.7265625 C-128.15510574 153.70118431 -126.66591154 144.75942365 -124 136 C-123.34 136 -122.68 136 -122 136 C-122.66 134.02 -123.32 132.04 -124 130 C-122.68 130 -121.36 130 -120 130 C-119.21717352 128.20800528 -119.21717352 128.20800528 -119 126 C-120.3516367 123.75244247 -120.3516367 123.75244247 -122 122 C-119.03 121.505 -119.03 121.505 -116 121 C-115.87625 120.401875 -115.7525 119.80375 -115.625 119.1875 C-115 117 -115 117 -113 114 C-113.99 114 -114.98 114 -116 114 C-116.66 112.35 -117.32 110.7 -118 109 C-112.25 107.875 -112.25 107.875 -110 109 C-109.67 107.35 -109.34 105.7 -109 104 C-108.01 104 -107.02 104 -106 104 C-105.690625 103.360625 -105.38125 102.72125 -105.0625 102.0625 C-104 100 -104 100 -103 99 C-104.65 98.34 -106.3 97.68 -108 97 C-108.33 94.69 -108.66 92.38 -109 90 C-105.67778618 88.89259539 -103.35896892 89.02766689 -100 90 C-99.34 90.66 -98.68 91.32 -98 92 C-97.71125 91.38125 -97.4225 90.7625 -97.125 90.125 C-96 88 -96 88 -94 86 C-94 85.01 -94 84.02 -94 83 C-92.35 83 -90.7 83 -89 83 C-88.67 82.01 -88.34 81.02 -88 80 C-87.01 80 -86.02 80 -85 80 C-85 79.34 -85 78.68 -85 78 C-83 76.375 -83 76.375 -81 75 C-82.32 74.67 -83.64 74.34 -85 74 C-85 73.34 -85 72.68 -85 72 C-85.66 72 -86.32 72 -87 72 C-88.8125 69.875 -88.8125 69.875 -90 67 C-89.06833174 64.96726926 -88.0650015 62.96615661 -87 61 C-87.20435808 58.21352443 -87.20435808 58.21352443 -88 56 C-86.68 56 -85.36 56 -84 56 C-83.34 56.66 -82.68 57.32 -82 58 C-78.40320934 57.67673447 -78.40320934 57.67673447 -75 57 C-74.67 57.99 -74.34 58.98 -74 60 C-73.34 60.66 -72.68 61.32 -72 62 C-71.875 65.625 -71.875 65.625 -72 69 C-71.38125 68.505 -70.7625 68.01 -70.125 67.5 C-68 66 -68 66 -66 66 C-66 65.34 -66 64.68 -66 64 C-64.68 64 -63.36 64 -62 64 C-62 62.68 -62 61.36 -62 60 C-61.4225 60.226875 -60.845 60.45375 -60.25 60.6875 C-57.87827523 61.26505193 -57.87827523 61.26505193 -55.75 59.5625 C-55.1725 59.046875 -54.595 58.53125 -54 58 C-54.226875 57.4225 -54.45375 56.845 -54.6875 56.25 C-55 54 -55 54 -53.5625 51.75 C-53.046875 51.1725 -52.53125 50.595 -52 50 C-50.0625 50.75 -50.0625 50.75 -48 52 C-47.25 54.125 -47.25 54.125 -47 56 C-46.01 56 -45.02 56 -44 56 C-44 55.34 -44 54.68 -44 54 C-43.01 54 -42.02 54 -41 54 C-40.34 52.68 -39.68 51.36 -39 50 C-38.01 50.33 -37.02 50.66 -36 51 C-36 51.66 -36 52.32 -36 53 C-34.01508358 52.73323796 -34.01508358 52.73323796 -32 52 C-31.67 51.01 -31.34 50.02 -31 49 C-30.443125 49.185625 -29.88625 49.37125 -29.3125 49.5625 C-26.52083488 50.09065286 -24.78007549 49.61779455 -22 49 C-19.00463905 48.62179786 -16.00336796 48.30753441 -13 48 C-13.969375 47.4225 -14.93875 46.845 -15.9375 46.25 C-19 44 -19 44 -19.875 41.75 C-19.91625 41.1725 -19.9575 40.595 -20 40 C-20.66 40 -21.32 40 -22 40 C-22 38.68 -22 37.36 -22 36 C-22.66 36 -23.32 36 -24 36 C-23.67 34.02 -23.34 32.04 -23 30 C-23.99 30 -24.98 30 -26 30 C-25.67 29.01 -25.34 28.02 -25 27 C-24.34 27 -23.68 27 -23 27 C-22.67 25.02 -22.34 23.04 -22 21 C-22.66 20.67 -23.32 20.34 -24 20 C-24 18.68 -24 17.36 -24 16 C-21 15 -21 15 -18 16 C-17.01 15.67 -16.02 15.34 -15 15 C-15 14.01 -15 13.02 -15 12 C-12.03 11.34 -9.06 10.68 -6 10 C-6.33 8.68 -6.66 7.36 -7 6 C-5.81636731 2.44910192 -3.99368042 0 0 0 Z " fill="#040404" transform="translate(351,29)"/>
<path d="M0 0 C5.15947346 -0.07440448 10.31863151 -0.12872191 15.47851562 -0.16479492 C17.23215173 -0.17983995 18.98575047 -0.20028104 20.73925781 -0.22631836 C23.26637009 -0.26289121 25.79298296 -0.2797692 28.3203125 -0.29296875 C29.48785568 -0.31619453 29.48785568 -0.31619453 30.6789856 -0.33988953 C36.64866725 -0.34171671 40.70011145 1.0109072 45.3125 5 C48.4526939 8.72171129 48.39165323 12.30016127 48 17 C45.64830693 22.78124547 43.28999091 24.89359886 37.609375 27.37109375 C37.07828125 27.57863281 36.5471875 27.78617187 36 28 C36.67546875 28.31453125 37.3509375 28.6290625 38.046875 28.953125 C47.19597684 33.34257848 47.19597684 33.34257848 50 37 C51.71406508 42.14219525 51.90067745 47.74830638 49.875 52.8125 C46.20733228 57.09144567 42.41856615 60.34514187 37 62 C34.10427801 62.16585708 31.31009798 62.23341501 28.41796875 62.1953125 C27.60378983 62.1924826 26.7896109 62.18965271 25.95075989 62.18673706 C23.362854 62.17558584 20.77530042 62.15049083 18.1875 62.125 C16.42773939 62.11496365 14.66797333 62.10583894 12.90820312 62.09765625 C8.60533402 62.0756631 4.30272664 62.04116836 0 62 C0 61.01 0 60.02 0 59 C2.31 58.01 4.62 57.02 7 56 C7 39.5 7 23 7 6 C4.69 5.01 2.38 4.02 0 3 C0 2.01 0 1.02 0 0 Z M18 4 C18 11.59 18 19.18 18 27 C26.42991867 27.32937836 26.42991867 27.32937836 33 24 C36.43266292 20.22325154 36.50509187 17.3538643 36.359375 12.4140625 C35.85112287 8.99993403 34.55662313 7.26443763 32 5 C27.78779356 3.4202491 27.78779356 3.4202491 18 4 Z M18 31 C17.91279081 34.58317958 17.85953888 38.16608567 17.8125 41.75 C17.78736328 42.76578125 17.76222656 43.7815625 17.73632812 44.828125 C17.72666016 45.8078125 17.71699219 46.7875 17.70703125 47.796875 C17.6913208 48.69760742 17.67561035 49.59833984 17.65942383 50.52636719 C18.07335528 53.53278546 18.87457287 54.85310391 21 57 C26.95064729 58.48766182 30.56025039 58.19985271 36 55 C39.07016229 51.31580525 39.75051997 47.74012057 40 43 C38.98998466 37.94992329 36.88998556 35.32071938 33 32 C29.71480525 30.90493508 27.26336585 30.90039392 23.8125 30.9375 C22.72582031 30.94652344 21.63914062 30.95554687 20.51953125 30.96484375 C19.68808594 30.97644531 18.85664063 30.98804688 18 31 Z " fill="#131313" transform="translate(285,422)"/>
<path d="M0 0 C0.33 9.24 0.66 18.48 1 28 C2.98 26.68 4.96 25.36 7 24 C12.02477276 23.02792447 17.25366124 23.22654977 21.875 25.5625 C27.76999077 30.1605928 30.06671748 33.93980622 31.4375 41.375 C32.35059823 49.11417236 31.76678807 54.78481501 27.375 61.3125 C23.3543465 66.15468126 19.3761429 68.64934867 13.06640625 69.3046875 C7.34947447 69.43315788 2.37354797 68.95401744 -3 67 C-3.66 67.99 -4.32 68.98 -5 70 C-6.32 70 -7.64 70 -9 70 C-9.01030746 69.2277005 -9.02061493 68.455401 -9.03123474 67.65969849 C-9.12910994 60.3904686 -9.23161 53.12132579 -9.33933926 45.85223579 C-9.39456319 42.11489964 -9.44798232 38.37755565 -9.49731445 34.64013672 C-9.54496587 31.03503385 -9.59730892 27.43002715 -9.65294075 23.82503891 C-9.67336079 22.44791933 -9.69207447 21.07077338 -9.70907402 19.69360733 C-9.73312547 17.768496 -9.76374251 15.84347005 -9.79467773 13.91845703 C-9.81022202 12.82147491 -9.8257663 11.7244928 -9.84178162 10.5942688 C-9.82896195 8.01546248 -9.82896195 8.01546248 -11 6 C-12.97888961 5.27306096 -14.97954558 4.60183749 -17 4 C-17 3.01 -17 2.02 -17 1 C-13 0 -13 0 0 0 Z M3.25 31 C2.1775 31.66 1.105 32.32 0 33 C-0.14570522 37.20796686 -0.23421087 41.41528166 -0.3125 45.625 C-0.35439453 46.81480469 -0.39628906 48.00460937 -0.43945312 49.23046875 C-0.72222855 56.46176225 -0.72222855 56.46176225 2.3046875 62.765625 C5.70557273 65.58490957 7.58966486 66.1547486 12 66 C15.98989214 64.15851132 17.639079 62.63472315 19.8125 58.8125 C22.17500028 51.22763067 22.65355972 44.58975146 20 37 C18.14987775 33.49114745 16.97955556 31.53875556 13.5 29.625 C9.37953678 28.59488419 6.78959427 28.82178814 3.25 31 Z " fill="#1B1B1B" transform="translate(430,416)"/>
<path d="M0 0 C18.15 0 36.3 0 55 0 C55 5.61 55 11.22 55 17 C53.68 17 52.36 17 51 17 C50.69707031 16.38511719 50.39414063 15.77023437 50.08203125 15.13671875 C46.88494214 8.71903975 46.88494214 8.71903975 41 5 C38.36 4.67 35.72 4.34 33 4 C33.33 21.49 33.66 38.98 34 57 C36.97 57.66 39.94 58.32 43 59 C43 59.99 43 60.98 43 62 C33.1 62 23.2 62 13 62 C13 61.01 13 60.02 13 59 C15.97 58.34 18.94 57.68 22 57 C22.33 39.51 22.66 22.02 23 4 C12.68510133 4.84815295 12.68510133 4.84815295 9 8.8125 C7.75423168 10.79794325 6.55674922 12.81558144 5.4375 14.875 C4.7259375 15.926875 4.7259375 15.926875 4 17 C2.68 17 1.36 17 0 17 C0 11.39 0 5.78 0 0 Z " fill="#111111" transform="translate(105,422)"/>
<path d="M0 0 C4.92995011 2.91410187 8.46384801 8.14596029 10.203125 13.5546875 C11.61603184 21.44853656 10.66121575 28.6114616 6.5625 35.5625 C2.49787607 40.22429617 -2.04453014 43.16002358 -8.26953125 43.8984375 C-14.80839061 43.98413684 -20.19553375 43.77708757 -25.4375 39.5625 C-31.88659856 32.54892892 -32.89869593 26.71683161 -32.71484375 17.30859375 C-32.24387754 10.94723323 -30.2085271 6.92152437 -25.5 2.6875 C-18.1292773 -2.42687902 -8.41157525 -3.55624513 0 0 Z M-19.4375 5.5625 C-22.08320104 10.62820246 -22.9113857 14.82712962 -22.8125 20.5625 C-22.82410156 21.23539062 -22.83570313 21.90828125 -22.84765625 22.6015625 C-22.81275035 28.62864827 -21.28597193 33.14036437 -17.625 37.9375 C-14.80042515 40.03575561 -12.95058082 40.49080447 -9.4375 40.5625 C-4.43863278 38.35369821 -2.19534432 35.51694062 -0.25 30.5 C1.78960456 22.42800568 1.18256681 14.06789714 -2.4375 6.5625 C-4.71482953 3.3091721 -5.98533355 2.69647524 -9.8125 1.5625 C-14.40650698 1.5625 -16.05477987 2.48729988 -19.4375 5.5625 Z " fill="#1E1E1E" transform="translate(400.4375,441.4375)"/>
<path d="M0 0 C6.6 0 13.2 0 20 0 C20 0.99 20 1.98 20 3 C18.68 3 17.36 3 16 3 C16.79005662 4.43838552 17.58211045 5.87567415 18.375 7.3125 C18.81585938 8.11300781 19.25671875 8.91351563 19.7109375 9.73828125 C20.73513335 11.53527943 21.85267138 13.27900708 23 15 C25.31 12.03 27.62 9.06 30 6 C28.68 5.01 27.36 4.02 26 3 C26 2.01 26 1.02 26 0 C31.61 0 37.22 0 43 0 C42.67 1.32 42.34 2.64 42 4 C41.08992188 4.44988281 40.17984375 4.89976562 39.2421875 5.36328125 C35.42270479 7.29142975 33.49876571 9.76007298 31.125 13.1875 C30.7228125 13.74630859 30.320625 14.30511719 29.90625 14.88085938 C28.92623104 16.24588579 27.96149227 17.62186108 27 19 C29.46487826 23.71541928 32.35078676 28.02776861 35.5 32.3125 C36.2528125 33.33988281 37.005625 34.36726563 37.78125 35.42578125 C39.82620481 37.79836086 41.11351647 38.91756868 44 40 C44 40.99 44 41.98 44 43 C37.4 43 30.8 43 24 43 C24 42.01 24 41.02 24 40 C25.98 39.505 25.98 39.505 28 39 C27.4946875 38.22914063 26.989375 37.45828125 26.46875 36.6640625 C25.8190625 35.66117187 25.169375 34.65828125 24.5 33.625 C23.8503125 32.62726563 23.200625 31.62953125 22.53125 30.6015625 C21 28 21 28 21 26 C16.99027798 29.67557852 14.54664585 33.18966896 12 38 C13.32 38.66 14.64 39.32 16 40 C16 40.99 16 41.98 16 43 C10.39 43 4.78 43 -1 43 C-0.67 41.68 -0.34 40.36 0 39 C0.8971875 38.55398438 1.794375 38.10796875 2.71875 37.6484375 C6.77609116 35.61010658 8.79311092 33.18079512 11.5 29.625 C12.19996094 28.77808594 12.19996094 28.77808594 12.9140625 27.9140625 C14.42265161 26.05183302 14.42265161 26.05183302 16 23 C15.23234006 18.67440314 12.28053938 15.35272341 9.6875 11.875 C8.92824219 10.84117187 8.16898438 9.80734375 7.38671875 8.7421875 C5.06434004 6.0739226 2.99053225 4.78902637 0 3 C0 2.01 0 1.02 0 0 Z " fill="#1D1D1D" transform="translate(205,441)"/>
<path d="M0 0 C6.89189606 6.53846549 6.89189606 6.53846549 7.4375 11.3125 C7.4375 13.9525 7.4375 16.5925 7.4375 19.3125 C-2.1325 19.3125 -11.7025 19.3125 -21.5625 19.3125 C-19.29961209 30.0098881 -19.29961209 30.0098881 -12.3125 36.6875 C-8.52115847 37.54916853 -5.28076771 37.5116979 -1.5625 36.3125 C1.25081378 33.91666349 1.25081378 33.91666349 3.4375 31.3125 C4.4275 30.9825 5.4175 30.6525 6.4375 30.3125 C7.4275 30.8075 7.4275 30.8075 8.4375 31.3125 C7.06273555 36.50605461 3.69408407 39.31677491 -0.5625 42.3125 C-6.65702457 44.34400819 -13.89544851 44.13686137 -20 42.25 C-25.45849507 38.12284519 -28.76704695 33.98367876 -30.5625 27.3125 C-31.4145359 19.41630682 -31.19008284 11.99828102 -26.5625 5.3125 C-19.54906594 -2.22694161 -9.58972999 -4.54250368 0 0 Z M-18.5625 5.3125 C-20.21237621 8.79763178 -21.5625 12.42523054 -21.5625 16.3125 C-15.2925 16.3125 -9.0225 16.3125 -2.5625 16.3125 C-2.27656196 8.14643285 -2.27656196 8.14643285 -6.5625 2.3125 C-11.76337436 0.27737525 -14.58179151 1.59717208 -18.5625 5.3125 Z " fill="#1C1C1C" transform="translate(194.5625,441.6875)"/>
<path d="M0 0 C1.75570313 0.01353516 1.75570313 0.01353516 3.546875 0.02734375 C4.43890625 0.03894531 5.3309375 0.05054688 6.25 0.0625 C6.26030746 0.80752274 6.27061493 1.55254547 6.28123474 2.32014465 C6.37918408 9.33888883 6.48169492 16.35754805 6.58933926 23.37614918 C6.64452 26.9845406 6.6979322 30.59294021 6.74731445 34.20141602 C6.79502961 37.68333143 6.84737492 41.16514919 6.90294075 44.64694786 C6.93326037 46.62280553 6.95877575 48.59873502 6.98423767 50.57466125 C7.00418289 51.77567978 7.02412811 52.9766983 7.04467773 54.21411133 C7.06799416 55.80295891 7.06799416 55.80295891 7.09178162 57.42390442 C7.14223068 60.17065335 7.14223068 60.17065335 8.25 63.0625 C10.75447516 64.28119929 10.75447516 64.28119929 13.25 65.0625 C13.25 66.0525 13.25 67.0425 13.25 68.0625 C5.99 68.0625 -1.27 68.0625 -8.75 68.0625 C-8.75 67.0725 -8.75 66.0825 -8.75 65.0625 C-7.1 64.4025 -5.45 63.7425 -3.75 63.0625 C-3.75 44.2525 -3.75 25.4425 -3.75 6.0625 C-6.06 5.4025 -8.37 4.7425 -10.75 4.0625 C-10.75 3.0725 -10.75 2.0825 -10.75 1.0625 C-7.14006828 -0.07230527 -3.7657673 -0.03765767 0 0 Z " fill="#151515" transform="translate(350.75,415.9375)"/>
<path d="M0 0 C2.97 0 5.94 0 9 0 C9 4.29 9 8.58 9 13 C12.96 13 16.92 13 21 13 C21 14.32 21 15.64 21 17 C17.04 17 13.08 17 9 17 C9.11833202 21.21771839 9.24258602 25.43520823 9.37231445 29.65258789 C9.41560793 31.08711003 9.45728699 32.52168184 9.49731445 33.95629883 C9.55515267 36.0191952 9.61880753 38.08184283 9.68359375 40.14453125 C9.72025146 41.38565674 9.75690918 42.62678223 9.79467773 43.90551758 C9.87144121 47.03553347 9.87144121 47.03553347 11 50 C14.73486879 50.5745952 18.21293268 51 22 51 C22 52.32 22 53.64 22 55 C18.19018735 56.76107362 15.12652135 57.29661243 10.9375 57.3125 C9.91527344 57.32925781 8.89304687 57.34601563 7.83984375 57.36328125 C4.62525972 56.95206211 3.29009697 56.25836353 1 54 C-0.21077701 50.36766898 -0.12444164 47.04878013 -0.09765625 43.26953125 C-0.0962413 42.51911057 -0.09482635 41.76868988 -0.09336853 40.99552917 C-0.0877756 38.6011454 -0.07522444 36.20685547 -0.0625 33.8125 C-0.05748408 32.18815239 -0.05292134 30.56380332 -0.04882812 28.93945312 C-0.03780848 24.95959931 -0.02054873 20.97981556 0 17 C-2.64 17 -5.28 17 -8 17 C-8 15.68 -8 14.36 -8 13 C-5.36 13 -2.72 13 0 13 C0 8.71 0 4.42 0 0 Z " fill="#161616" transform="translate(258,428)"/>
<path d="M0 0 C0.66 0.33 1.32 0.66 2 1 C2 1.66 2 2.32 2 3 C2.99 2.67 3.98 2.34 5 2 C6.33568021 2.32380126 7.66923011 2.65657551 9 3 C9.66 2.67 10.32 2.34 11 2 C11.99 2.66 12.98 3.32 14 4 C13.67 4.53625 13.34 5.0725 13 5.625 C11.75908477 8.57217367 11.79321834 10.82934784 12 14 C12.33 14.66 12.66 15.32 13 16 C12.01 16.33 11.02 16.66 10 17 C9.34 17.99 8.68 18.98 8 20 C5.04244089 21.50588549 2.31722829 22.12385755 -1 22 C-4.3231025 20.32089715 -6.32951612 18.32924506 -8 15 C-8.03277868 10.96166718 -6.78809352 7.57618704 -5 4 C-4.01 3.67 -3.02 3.34 -2 3 C-1.34 2.01 -0.68 1.02 0 0 Z " fill="#2A2A2A" transform="translate(426,90)"/>
<path d="M0 0 C3.46941546 0.45822468 6.67395049 0.89131683 10 2 C10.33333333 3.33333333 10.66666667 4.66666667 11 6 C11.99 6.33 12.98 6.66 14 7 C13.814375 7.5775 13.62875 8.155 13.4375 8.75 C12.94763862 11.26928708 13.24220802 12.57506565 14 15 C14.33333333 16.33333333 14.66666667 17.66666667 15 19 C12.98177083 18.96744792 10.96354167 18.93489583 8.9453125 18.90234375 C6.91814596 18.87350758 6.91814596 18.87350758 5 20 C4.34 19.67 3.68 19.34 3 19 C3 19.66 3 20.32 3 21 C2.01 21 1.02 21 0 21 C-0.33 20.34 -0.66 19.68 -1 19 C-1.99 18.67 -2.98 18.34 -4 18 C-4 17.01 -4 16.02 -4 15 C-4.66 15 -5.32 15 -6 15 C-6.33 12.36 -6.66 9.72 -7 7 C-6.21625 6.5875 -5.4325 6.175 -4.625 5.75 C-1.94108344 3.9607223 -1.11901051 2.95011861 0 0 Z " fill="#2A2A2A" transform="translate(425,304)"/>
<path d="M0 0 C0.33 0.99 0.66 1.98 1 3 C-0.21484375 5.26171875 -0.21484375 5.26171875 -1.9375 7.6875 C-2.78634766 8.89986328 -2.78634766 8.89986328 -3.65234375 10.13671875 C-4.09707031 10.75160156 -4.54179687 11.36648438 -5 12 C-4.01 12.6496875 -4.01 12.6496875 -3 13.3125 C-2.34 13.869375 -1.68 14.42625 -1 15 C-1 15.99 -1 16.98 -1 18 C-6.61 18 -12.22 18 -18 18 C-17.67 16.68 -17.34 15.36 -17 14 C-15.6696875 13.38125 -15.6696875 13.38125 -14.3125 12.75 C-10.4039077 10.68508332 -8.8813589 8.46409528 -6.4921875 4.83984375 C-4.82778944 2.78766709 -3.3984628 2.03999736 -1 1 C-0.67 0.67 -0.34 0.34 0 0 Z " fill="#282828" transform="translate(222,466)"/>
<path d="M0 0 C0 0.66 0 1.32 0 2 C0.99 2.33 1.98 2.66 3 3 C3.35915493 8.38732394 3.35915493 8.38732394 1.9375 10.8125 C-0.90927247 12.55729603 -3.71846765 12.69042148 -7 13 C-7.144375 12.401875 -7.28875 11.80375 -7.4375 11.1875 C-7.8872439 9.43849596 -8.42892341 7.71322977 -9 6 C-8.19525421 3.00049296 -7.62195085 1.44138447 -5.0625 -0.375 C-3 -1 -3 -1 0 0 Z " fill="#262626" transform="translate(147,250)"/>
<path d="M0 0 C1.32 0.33 2.64 0.66 4 1 C4 3.66666667 4 6.33333333 4 9 C3.01 9.33 2.02 9.66 1 10 C1 10.99 1 11.98 1 13 C0.01 12.67 -0.98 12.34 -2 12 C-2 11.34 -2 10.68 -2 10 C-2.99 10 -3.98 10 -5 10 C-5.38133299 8.0085944 -5.71325582 6.00720923 -6 4 C-5.67 3.67 -5.34 3.34 -5 3 C-5.99 2.34 -6.98 1.68 -8 1 C-4.95613276 0.91773332 -2.92824652 1.02391783 0 2 C0 1.34 0 0.68 0 0 Z " fill="#4C4C4C" transform="translate(350,374)"/>
<path d="M0 0 C5.61 0 11.22 0 17 0 C17 0.33 17 0.66 17 1 C15.35 1.33 13.7 1.66 12 2 C12.33 3.32 12.66 4.64 13 6 C12.34 6 11.68 6 11 6 C10.67 6.99 10.34 7.98 10 9 C8.0625 8.1875 8.0625 8.1875 6 7 C5.67 6.01 5.34 5.02 5 4 C5.33 3.34 5.66 2.68 6 2 C4.35 2 2.7 2 1 2 C0.67 1.34 0.34 0.68 0 0 Z " fill="#5B5B5B" transform="translate(163,257)"/>
<path d="M0 0 C0.66 0.66 1.32 1.32 2 2 C1.34 4.31 0.68 6.62 0 9 C1.65 8.67 3.3 8.34 5 8 C5.66 9.65 6.32 11.3 7 13 C4 15 4 15 1 15 C0.34 16.32 -0.32 17.64 -1 19 C-1.02690104 16.20826945 -1.04679053 13.41679652 -1.0625 10.625 C-1.07087891 9.8309375 -1.07925781 9.036875 -1.08789062 8.21875 C-1.11328125 2.2265625 -1.11328125 2.2265625 0 0 Z " fill="#666666" transform="translate(447,153)"/>
<path d="M0 0 C0.2475 0.639375 0.495 1.27875 0.75 1.9375 C1.80256744 4.17077103 1.80256744 4.17077103 4 4.6875 C4.66 4.790625 5.32 4.89375 6 5 C6.66 5.33 7.32 5.66 8 6 C7.34 7.32 6.68 8.64 6 10 C4.35 10 2.7 10 1 10 C1.66 12.64 2.32 15.28 3 18 C2.01 18 1.02 18 0 18 C0 12 0 6 0 0 Z " fill="#626262" transform="translate(446,244)"/>
<path d="M0 0 C1.32 1.32 2.64 2.64 4 4 C3.34 5.65 2.68 7.3 2 9 C-0.4375 8.1875 -0.4375 8.1875 -3 7 C-3.33 6.01 -3.66 5.02 -4 4 C-2.68 2.68 -1.36 1.36 0 0 Z " fill="#4A4A4A" transform="translate(172,150)"/>
<path d="M0 0 C2.23915424 0.73602403 2.23915424 0.73602403 5.0625 -0.5 C3.50749019 3.31684226 1.02654505 5.69195732 -1.9375 8.5 C-1.9375 7.51 -1.9375 6.52 -1.9375 5.5 C-2.5975 5.17 -3.2575 4.84 -3.9375 4.5 C-3.9375 3.18 -3.9375 1.86 -3.9375 0.5 C-1.9375 -0.5 -1.9375 -0.5 0 0 Z " fill="#686868" transform="translate(330.9375,44.5)"/>
<path d="M0 0 C0 2.64 0 5.28 0 8 C-1.98 7.34 -3.96 6.68 -6 6 C-6 4.68 -6 3.36 -6 2 C-1.125 0 -1.125 0 0 0 Z " fill="#4F4F4F" transform="translate(99,204)"/>
<path d="M0 0 C0.33 0.99 0.66 1.98 1 3 C1.99 3.33 2.98 3.66 4 4 C3.34 4 2.68 4 2 4 C2 4.66 2 5.32 2 6 C-1.13349732 7.04449911 -1.98968256 6.93423645 -5 6 C-4.1875 3.5625 -4.1875 3.5625 -3 1 C-2.01 0.67 -1.02 0.34 0 0 Z " fill="#5F5F5F" transform="translate(238,272)"/>
<path d="M0 0 C0.66 0 1.32 0 2 0 C2.33 0.99 2.66 1.98 3 3 C4.49985609 4.66710346 4.49985609 4.66710346 6 6 C5.67 6.66 5.34 7.32 5 8 C4.34 7.34 3.68 6.68 3 6 C0.39719432 6.32041397 0.39719432 6.32041397 -2 7 C-1.125 2.25 -1.125 2.25 0 0 Z " fill="#7C7C7C" transform="translate(129,234)"/>
<path d="M0 0 C1.32 0 2.64 0 4 0 C4.66 0.66 5.32 1.32 6 2 C8.58354218 2.16687448 8.58354218 2.16687448 11 2 C7.91190305 3.76462683 6.76687864 4 3 4 C3 4.99 3 5.98 3 7 C2.34 6.67 1.68 6.34 1 6 C0.375 2.9375 0.375 2.9375 0 0 Z " fill="#818181" transform="translate(263,85)"/>
<path d="M0 0 C1.32 0 2.64 0 4 0 C4 1.32 4 2.64 4 4 C5.32 4.33 6.64 4.66 8 5 C7.67 5.66 7.34 6.32 7 7 C4.5625 6.625 4.5625 6.625 2 6 C1.67 5.34 1.34 4.68 1 4 C-0.32 4 -1.64 4 -3 4 C-2.67 3.34 -2.34 2.68 -2 2 C-1.34 2.33 -0.68 2.66 0 3 C0 2.01 0 1.02 0 0 Z " fill="#909090" transform="translate(186,156)"/>
<path d="M0 0 C2.475 0.495 2.475 0.495 5 1 C5 4 5 4 4 7 C2 6 2 6 0 4 C0 2.68 0 1.36 0 0 Z " fill="#727272" transform="translate(127,175)"/>
<path d="M0 0 C2.31 0 4.62 0 7 0 C7 0.66 7 1.32 7 2 C8.65 1.34 10.3 0.68 12 0 C12.33 1.32 12.66 2.64 13 4 C8.65535464 3.39174965 4.32448133 2.73832608 0 2 C0 1.34 0 0.68 0 0 Z " fill="#A0A0A0" transform="translate(363,78)"/>
<path d="M0 0 C0.66 0.66 1.32 1.32 2 2 C1.67 2.66 1.34 3.32 1 4 C1.66 4 2.32 4 3 4 C3.33 4.99 3.66 5.98 4 7 C3.01 7 2.02 7 1 7 C1.33 8.65 1.66 10.3 2 12 C1.01 12.33 0.02 12.66 -1 13 C-0.67 8.71 -0.34 4.42 0 0 Z " fill="#999999" transform="translate(365,54)"/>
<path d="M0 0 C0.66 0 1.32 0 2 0 C2.50471197 1.76949612 3.00360685 3.54065223 3.5 5.3125 C3.7784375 6.29863281 4.056875 7.28476563 4.34375 8.30078125 C5 11 5 11 5 14 C4.01 13.67 3.02 13.34 2 13 C1.855625 11.783125 1.71125 10.56625 1.5625 9.3125 C1.17219047 6.17329623 0.67648144 3.0924866 0 0 Z " fill="#A7A7A7" transform="translate(224,237)"/>
<path d="M0 0 C0.99 1.485 0.99 1.485 2 3 C3.32 3 4.64 3 6 3 C5.67 4.32 5.34 5.64 5 7 C3.68 7.33 2.36 7.66 1 8 C0.67 5.36 0.34 2.72 0 0 Z " fill="#757575" transform="translate(444,232)"/>
<path d="M0 0 C0.99 0.33 1.98 0.66 3 1 C2.4409112 4.24271506 1.5867822 5.93057424 -1 8 C-1.66 8 -2.32 8 -3 8 C-3 7.01 -3 6.02 -3 5 C-2.34 4.67 -1.68 4.34 -1 4 C-0.34786708 1.97536745 -0.34786708 1.97536745 0 0 Z " fill="#757575" transform="translate(102,195)"/>
<path d="M0 0 C0.4125 0.495 0.825 0.99 1.25 1.5 C3.12202338 3.43386092 3.12202338 3.43386092 7 3 C6.67 4.32 6.34 5.64 6 7 C5.01 7 4.02 7 3 7 C3 6.34 3 5.68 3 5 C2.34 5 1.68 5 1 5 C0.67 3.35 0.34 1.7 0 0 Z " fill="#808080" transform="translate(433,121)"/>
<path d="M0 0 C1.4540625 0.0309375 1.4540625 0.0309375 2.9375 0.0625 C2.256875 0.619375 1.57625 1.17625 0.875 1.75 C-0.0840625 2.8946875 -0.0840625 2.8946875 -1.0625 4.0625 C-0.92224801 6.76955512 -0.92224801 6.76955512 -0.0625 9.0625 C-1.0525 8.7325 -2.0425 8.4025 -3.0625 8.0625 C-3.44313221 5.7364143 -3.77519945 3.40194736 -4.0625 1.0625 C-3.0625 0.0625 -3.0625 0.0625 0 0 Z " fill="#828282" transform="translate(246.0625,117.9375)"/>
<path d="M0 0 C0.66 0 1.32 0 2 0 C2 3.63 2 7.26 2 11 C1.67 10.01 1.34 9.02 1 8 C0.01 7.67 -0.98 7.34 -2 7 C-2 6.34 -2 5.68 -2 5 C-1.01 5 -0.02 5 1 5 C0.67 3.35 0.34 1.7 0 0 Z " fill="#828282" transform="translate(327,352)"/>
<path d="M0 0 C-0.3125 1.9375 -0.3125 1.9375 -1 4 C-1.99 4.33 -2.98 4.66 -4 5 C-4.66 3.35 -5.32 1.7 -6 0 C-3 -1 -3 -1 0 0 Z " fill="#6E6E6E" transform="translate(368,48)"/>
<path d="M0 0 C2 0 2 0 3.5625 1.3125 C5 3 5 3 6 6 C6.66 6 7.32 6 8 6 C7.34 7.32 6.68 8.64 6 10 C6 9.34 6 8.68 6 8 C5.34 8 4.68 8 4 8 C4 6.68 4 5.36 4 4 C3.01 3.67 2.02 3.34 1 3 C0.67 2.01 0.34 1.02 0 0 Z " fill="#A8A8A8" transform="translate(434,215)"/>
<path d="M0 0 C0.33 0.99 0.66 1.98 1 3 C-0.65 4.32 -2.3 5.64 -4 7 C-4.33 5.02 -4.66 3.04 -5 1 C-4.34 1.66 -3.68 2.32 -3 3 C-2.01 2.01 -1.02 1.02 0 0 Z " fill="#646464" transform="translate(446,135)"/>
<path d="M0 0 C0.33 0.99 0.66 1.98 1 3 C1.66 3.33 2.32 3.66 3 4 C0.625 4.625 0.625 4.625 -2 5 C-2.66 4.34 -3.32 3.68 -4 3 C-2.68 2.01 -1.36 1.02 0 0 Z " fill="#707070" transform="translate(233,261)"/>
<path d="M0 0 C2.64 0.33 5.28 0.66 8 1 C7.67 1.66 7.34 2.32 7 3 C4.67843403 3.40729228 2.3431213 3.74438677 0 4 C0 2.68 0 1.36 0 0 Z " fill="#858585" transform="translate(140,259)"/>
<path d="M0 0 C-0.33 1.32 -0.66 2.64 -1 4 C-2.9375 3.625 -2.9375 3.625 -5 3 C-5.33 2.34 -5.66 1.68 -6 1 C-4 0 -4 0 0 0 Z " fill="#727272" transform="translate(235,150)"/>
<path d="M0 0 C1.98 0.495 1.98 0.495 4 1 C4 2.32 4 3.64 4 5 C2.35 4.67 0.7 4.34 -1 4 C-0.67 2.68 -0.34 1.36 0 0 Z " fill="#787878" transform="translate(364,363)"/>
<path d="M0 0 C1.32 0.33 2.64 0.66 4 1 C4 2.32 4 3.64 4 5 C2.68 5 1.36 5 0 5 C0 3.35 0 1.7 0 0 Z " fill="#717171" transform="translate(186,255)"/>
<path d="M0 0 C0.33 0.99 0.66 1.98 1 3 C0.071875 3.185625 0.071875 3.185625 -0.875 3.375 C-3.19120832 3.87197356 -3.19120832 3.87197356 -5 6 C-5 4.68 -5 3.36 -5 2 C-3.35 1.34 -1.7 0.68 0 0 Z " fill="#8F8F8F" transform="translate(98,204)"/>
<path d="M0 0 C1.32 0 2.64 0 4 0 C4.33 0.99 4.66 1.98 5 3 C5.99 3.33 6.98 3.66 8 4 C7.67 4.99 7.34 5.98 7 7 C7 6.34 7 5.68 7 5 C5.35 4.67 3.7 4.34 2 4 C2 3.34 2 2.68 2 2 C1.34 2 0.68 2 0 2 C0 1.34 0 0.68 0 0 Z " fill="#8B8B8B" transform="translate(201,167)"/>
<path d="M0 0 C0.33 0.66 0.66 1.32 1 2 C0.67 2.99 0.34 3.98 0 5 C-0.66 5 -1.32 5 -2 5 C-2.33 6.32 -2.66 7.64 -3 9 C-3.66 7.35 -4.32 5.7 -5 4 C-3.68 4 -2.36 4 -1 4 C-0.67 2.68 -0.34 1.36 0 0 Z " fill="#B0B0B0" transform="translate(232,155)"/>
<path d="M0 0 C0.66 0.33 1.32 0.66 2 1 C2 2.32 2 3.64 2 5 C0.68 5 -0.64 5 -2 5 C-2 3.68 -2 2.36 -2 1 C-1.34 0.67 -0.68 0.34 0 0 Z " fill="#5F5F5F" transform="translate(329,44)"/>
<path d="M0 0 C0.99 0 1.98 0 3 0 C2.67 0.99 2.34 1.98 2 3 C1.34 3 0.68 3 0 3 C0 2.01 0 1.02 0 0 Z " fill="#BDBDBD" transform="translate(339,0)"/>
<path d="M0 0 C0.99 0.33 1.98 0.66 3 1 C2.67 1.66 2.34 2.32 2 3 C1.34 3 0.68 3 0 3 C0 2.01 0 1.02 0 0 Z " fill="#B4B4B4" transform="translate(339,413)"/>
<path d="M0 0 C0.99 0.495 0.99 0.495 2 1 C1.01 1.495 1.01 1.495 0 2 C0 1.34 0 0.68 0 0 Z " fill="#C0C0C0" transform="translate(443,336)"/>
<path d="M0 0 C0.66 0 1.32 0 2 0 C1.67 0.66 1.34 1.32 1 2 C0.67 1.34 0.34 0.68 0 0 Z " fill="#D0D0D0" transform="translate(75,207)"/>
<path d="M0 0 C0.66 0.66 1.32 1.32 2 2 C1.34 2 0.68 2 0 2 C0 1.34 0 0.68 0 0 Z " fill="#C1C1C1" transform="translate(443,78)"/>
<path d="" fill="#F4F4F4" transform="translate(0,0)"/>
<path d="M0 0 C2 1 2 1 2 1 Z " fill="#F9F9F9" transform="translate(265,341)"/>
<path d="" fill="#F9F9F9" transform="translate(0,0)"/>
<path d="" fill="#E6E6E6" transform="translate(0,0)"/>
<path d="" fill="#FAFAFA" transform="translate(0,0)"/>
<path d="" fill="#F6F6F6" transform="translate(0,0)"/>
<path d="" fill="#F4F4F4" transform="translate(0,0)"/>
<path d="" fill="#FEFEFE" transform="translate(0,0)"/>
<path d="" fill="#FBFBFB" transform="translate(0,0)"/>
<path d="" fill="#DEDEDE" transform="translate(0,0)"/>
<path d="" fill="#FEFEFE" transform="translate(0,0)"/>
<path d="" fill="#DFDFDF" transform="translate(0,0)"/>
<path d="" fill="#F8F8F8" transform="translate(0,0)"/>
<path d="" fill="#FFFFFF" transform="translate(0,0)"/>
<path d="" fill="#FFFFFF" transform="translate(0,0)"/>
<path d="" fill="#F8F8F8" transform="translate(0,0)"/>
<path d="" fill="#DFDFDF" transform="translate(0,0)"/>
<path d="" fill="#FCFCFC" transform="translate(0,0)"/>
<path d="" fill="#E2E2E2" transform="translate(0,0)"/>
<path d="" fill="#ECECEC" transform="translate(0,0)"/>
<path d="" fill="#FBFBFB" transform="translate(0,0)"/>
<path d="" fill="#FAFAFA" transform="translate(0,0)"/>
<path d="" fill="#F4F4F4" transform="translate(0,0)"/>
<path d="" fill="#F5F5F5" transform="translate(0,0)"/>
<path d="" fill="#FBFBFB" transform="translate(0,0)"/>
<path d="" fill="#DBDBDB" transform="translate(0,0)"/>
<path d="" fill="#FAFAFA" transform="translate(0,0)"/>
</svg>
