<svg width="40" height="42" viewBox="0 0 40 42" fill="none" xmlns="http://www.w3.org/2000/svg">
<path d="M8 30H12V6H8V30ZM36 42H6C4.33333 42 2.91667 41.4167 1.75 40.25C0.583333 39.0833 0 37.6667 0 36V8C0 6.33333 0.583333 4.91667 1.75 3.75C2.91667 2.58333 4.33333 2 6 2H19.6C18.4667 3.16667 17.5833 4.51667 16.95 6.05C16.3167 7.58333 16 9.23333 16 11C16 14.4333 17.1583 17.3833 19.475 19.85C21.7917 22.3167 24.6333 23.6833 28 23.95V34H6C5.43333 34 4.95833 34.1917 4.575 34.575C4.19167 34.9583 4 35.4333 4 36C4 36.5667 4.19167 37.0417 4.575 37.425C4.95833 37.8083 5.43333 38 6 38H32V23.65C32.7333 23.4833 33.4333 23.2583 34.1 22.975C34.7667 22.6917 35.4 22.35 36 21.95V42ZM29 22C29 18.9333 30.0667 16.3333 32.2 14.2C34.3333 12.0667 36.9333 11 40 11C36.9333 11 34.3333 9.93333 32.2 7.8C30.0667 5.66667 29 3.06667 29 0C29 3.06667 27.9333 5.66667 25.8 7.8C23.6667 9.93333 21.0667 11 18 11C21.0667 11 23.6667 12.0667 25.8 14.2C27.9333 16.3333 29 18.9333 29 22Z" fill="#0CAF6F"/>
</svg>
