<svg width="40" height="40" viewBox="0 0 40 40" fill="none" xmlns="http://www.w3.org/2000/svg">
<path d="M6 6H34C34.8284 6 35.5 6.67157 35.5 7.5V11.5C35.5 12.3284 34.8284 13 34 13H6C5.17157 13 4.5 12.3284 4.5 11.5V7.5C4.5 6.67157 5.17157 6 6 6Z" fill="#0CAF6F" stroke="#0CAF6F"/>
<rect x="6" y="8.5" width="8" height="2" rx="1" fill="white"/>
<path d="M33.7571 10.5H31.2429C31.1741 10.5 31.1164 10.4802 31.0697 10.4407C31.0231 10.4012 30.9998 10.3551 31 10.3025C31 10.286 31.003 10.2687 31.009 10.2505C31.015 10.2323 31.0241 10.2151 31.0364 10.1988L32.2935 8.58889C32.3178 8.55926 32.3482 8.53701 32.3846 8.52213C32.4211 8.50724 32.4595 8.49987 32.5 8.5C32.5405 8.50013 32.5789 8.50751 32.6154 8.52213C32.6518 8.53674 32.6822 8.559 32.7065 8.58889L33.9636 10.1988C33.9757 10.2152 33.9849 10.2325 33.991 10.2505C33.9972 10.2686 34.0002 10.2859 34 10.3025C34 10.3551 33.9767 10.4012 33.93 10.4407C33.8834 10.4802 33.8257 10.5 33.7571 10.5Z" fill="white"/>
<rect x="4.5" y="15" width="31" height="9" rx="1.5" stroke="#0CAF6F"/>
<path d="M6 27H34C34.8284 27 35.5 27.6716 35.5 28.5V32.5C35.5 33.3284 34.8284 34 34 34H6C5.17157 34 4.5 33.3284 4.5 32.5V28.5C4.5 27.6716 5.17157 27 6 27Z" fill="#0CAF6F" stroke="#0CAF6F"/>
<rect x="6" y="29.5" width="8" height="2" rx="1" fill="white"/>
<path d="M31.2429 29.5H33.7571C33.8259 29.5 33.8836 29.5198 33.9303 29.5593C33.9769 29.5988 34.0002 29.6449 34 29.6975C34 29.714 33.997 29.7313 33.991 29.7495C33.985 29.7677 33.9759 29.7849 33.9636 29.8012L32.7065 31.4111C32.6822 31.4407 32.6518 31.463 32.6154 31.4779C32.5789 31.4928 32.5405 31.5001 32.5 31.5C32.4595 31.4999 32.4211 31.4925 32.3846 31.4779C32.3482 31.4633 32.3178 31.441 32.2935 31.4111L31.0364 29.8012C31.0243 29.7848 31.0151 29.7675 31.009 29.7495C31.0028 29.7314 30.9998 29.7141 31 29.6975C31 29.6449 31.0233 29.5988 31.07 29.5593C31.1166 29.5198 31.1743 29.5 31.2429 29.5Z" fill="white"/>
</svg>
