<svg width="34" height="26" viewBox="0 0 34 26" fill="none" xmlns="http://www.w3.org/2000/svg">
<path d="M30.8125 2.125C31.0943 2.125 31.3645 2.23694 31.5638 2.4362C31.7631 2.63546 31.875 2.90571 31.875 3.1875V22.3125C31.875 22.5943 31.7631 22.8645 31.5638 23.0638C31.3645 23.2631 31.0943 23.375 30.8125 23.375H3.1875C2.90571 23.375 2.63546 23.2631 2.4362 23.0638C2.23694 22.8645 2.125 22.5943 2.125 22.3125V3.1875C2.125 2.90571 2.23694 2.63546 2.4362 2.4362C2.63546 2.23694 2.90571 2.125 3.1875 2.125H30.8125ZM3.1875 0C2.34212 0 1.53137 0.335825 0.933597 0.933597C0.335825 1.53137 0 2.34212 0 3.1875L0 22.3125C0 23.1579 0.335825 23.9686 0.933597 24.5664C1.53137 25.1642 2.34212 25.5 3.1875 25.5H30.8125C31.6579 25.5 32.4686 25.1642 33.0664 24.5664C33.6642 23.9686 34 23.1579 34 22.3125V3.1875C34 2.34212 33.6642 1.53137 33.0664 0.933597C32.4686 0.335825 31.6579 0 30.8125 0H3.1875Z" fill="#0CAF6F"/>
<path d="M6.375 13.8125C6.375 13.5307 6.48694 13.2605 6.6862 13.0612C6.88546 12.8619 7.15571 12.75 7.4375 12.75H26.5625C26.8443 12.75 27.1145 12.8619 27.3138 13.0612C27.5131 13.2605 27.625 13.5307 27.625 13.8125C27.625 14.0943 27.5131 14.3645 27.3138 14.5638C27.1145 14.7631 26.8443 14.875 26.5625 14.875H7.4375C7.15571 14.875 6.88546 14.7631 6.6862 14.5638C6.48694 14.3645 6.375 14.0943 6.375 13.8125ZM6.375 18.0625C6.375 17.7807 6.48694 17.5105 6.6862 17.3112C6.88546 17.1119 7.15571 17 7.4375 17H20.1875C20.4693 17 20.7395 17.1119 20.9388 17.3112C21.1381 17.5105 21.25 17.7807 21.25 18.0625C21.25 18.3443 21.1381 18.6145 20.9388 18.8138C20.7395 19.0131 20.4693 19.125 20.1875 19.125H7.4375C7.15571 19.125 6.88546 19.0131 6.6862 18.8138C6.48694 18.6145 6.375 18.3443 6.375 18.0625ZM6.375 7.4375C6.375 7.15571 6.48694 6.88546 6.6862 6.6862C6.88546 6.48694 7.15571 6.375 7.4375 6.375H26.5625C26.8443 6.375 27.1145 6.48694 27.3138 6.6862C27.5131 6.88546 27.625 7.15571 27.625 7.4375V9.5625C27.625 9.84429 27.5131 10.1145 27.3138 10.3138C27.1145 10.5131 26.8443 10.625 26.5625 10.625H7.4375C7.15571 10.625 6.88546 10.5131 6.6862 10.3138C6.48694 10.1145 6.375 9.84429 6.375 9.5625V7.4375Z" fill="#0CAF6F"/>
</svg>
