<svg width="200" height="206" viewBox="0 0 200 206" fill="none" xmlns="http://www.w3.org/2000/svg">
<path d="M33.9132 119.918H33.3496V119.546H33.5359V119.359H33.9132V119.918Z" fill="#EBEBEB"/>
<path d="M32.6049 119.918H31.8597V119.545H32.6049V119.918ZM31.1144 119.918H30.3692V119.545H31.1144V119.918ZM29.6192 119.918H28.874V119.545H29.6192V119.918ZM28.1287 119.918H27.3835V119.545H28.1287V119.918ZM26.6382 119.918H25.8883V119.545H26.6382V119.918ZM25.143 119.918H24.3978V119.545H25.143V119.918ZM23.6525 119.918H22.9072V119.545H23.6525V119.918ZM22.1573 119.918H21.4121V119.545H22.1573V119.918ZM20.6668 119.918H19.9215V119.545H20.6668V119.918ZM19.1763 119.918H18.4264V119.545H19.1763V119.918ZM17.6811 119.918H16.9358V119.545H17.6811V119.918ZM16.1906 119.918H15.4453V119.545H16.1906V119.918ZM14.6954 119.918H13.9501V119.545H14.6954V119.918ZM13.2049 119.918H12.4596V119.545H13.2049V119.918ZM11.7144 119.918H10.9644V119.545H11.7144V119.918ZM10.2192 119.918H9.47392V119.545H10.2192V119.918ZM8.72866 119.918H7.9834V119.545H8.72866V119.918Z" fill="#EBEBEB"/>
<path d="M7.23375 119.918H6.6748V119.359H7.04743V119.546H7.23375V119.918Z" fill="#EBEBEB"/>
<path d="M7.04743 118.614H6.6748V117.869H7.04743V118.614ZM7.04743 117.119H6.6748V116.374H7.04743V117.119ZM7.04743 115.629H6.6748V114.884H7.04743V115.629ZM7.04743 114.138H6.6748V113.388H7.04743V114.138ZM7.04743 112.643H6.6748V111.898H7.04743V112.643ZM7.04743 111.153H6.6748V110.407H7.04743V111.153ZM7.04743 109.657H6.6748V108.912H7.04743V109.657ZM7.04743 108.167H6.6748V107.422H7.04743V108.167ZM7.04743 106.676H6.6748V105.926H7.04743V106.676ZM7.04743 105.181H6.6748V104.436H7.04743V105.181ZM7.04743 103.691H6.6748V102.945H7.04743V103.691ZM7.04743 102.195H6.6748V101.45H7.04743V102.195ZM7.04743 100.705H6.6748V99.9597H7.04743V100.705ZM7.04743 99.2144H6.6748V98.4645H7.04743V99.2144ZM7.04743 97.7192H6.6748V96.974H7.04743V97.7192ZM7.04743 96.2287H6.6748V95.4648H7.04743V96.2287ZM7.04743 94.7335H6.6748V93.9883H7.04743V94.7335Z" fill="#EBEBEB"/>
<path d="M7.04743 93.2425H6.6748V92.6836H7.23375V93.0562H7.04743V93.2425Z" fill="#EBEBEB"/>
<path d="M32.6049 93.0546H31.8597V92.668H32.6049V93.0546ZM31.1144 93.0546H30.3692V92.668H31.1144V93.0546ZM29.6192 93.0546H28.874V92.668H29.6192V93.0546ZM28.1287 93.0546H27.3835V92.668H28.1287V93.0546ZM26.6382 93.0546H25.8883V92.668H26.6382V93.0546ZM25.143 93.0546H24.3978V92.668H25.143V93.0546ZM23.6525 93.0546H22.9072V92.668H23.6525V93.0546ZM22.1573 93.0546H21.4121V92.668H22.1573V93.0546ZM20.6668 93.0546H19.9215V92.668H20.6668V93.0546ZM19.1763 93.0546H18.4264V92.668H19.1763V93.0546ZM17.6811 93.0546H16.9358V92.668H17.6811V93.0546ZM16.1906 93.0546H15.4453V92.668H16.1906V93.0546ZM14.6954 93.0546H13.9501V92.668H14.6954V93.0546ZM13.2049 93.0546H12.4596V92.668H13.2049V93.0546ZM11.7144 93.0546H10.9644V92.668H11.7144V93.0546ZM10.2192 93.0546H9.47392V92.668H10.2192V93.0546ZM8.72866 93.0546H7.9834V92.668H8.72866V93.0546Z" fill="#EBEBEB"/>
<path d="M33.9132 93.2425H33.5359V93.0562H33.3496V92.6836H33.9132V93.2425Z" fill="#EBEBEB"/>
<path d="M33.9144 118.614H33.5371V117.869H33.9144V118.614ZM33.9144 117.119H33.5371V116.374H33.9144V117.119ZM33.9144 115.629H33.5371V114.884H33.9144V115.629ZM33.9144 114.138H33.5371V113.388H33.9144V114.138ZM33.9144 112.643H33.5371V111.898H33.9144V112.643ZM33.9144 111.153H33.5371V110.407H33.9144V111.153ZM33.9144 109.657H33.5371V108.912H33.9144V109.657ZM33.9144 108.167H33.5371V107.422H33.9144V108.167ZM33.9144 106.676H33.5371V105.926H33.9144V106.676ZM33.9144 105.181H33.5371V104.436H33.9144V105.181ZM33.9144 103.691H33.5371V102.945H33.9144V103.691ZM33.9144 102.195H33.5371V101.45H33.9144V102.195ZM33.9144 100.705H33.5371V99.9597H33.9144V100.705ZM33.9144 99.2144H33.5371V98.4645H33.9144V99.2144ZM33.9144 97.7192H33.5371V96.974H33.9144V97.7192ZM33.9144 96.2287H33.5371V95.4648H33.9144V96.2287ZM33.9144 94.7382H33.5371V93.9883H33.9144V94.7382Z" fill="#EBEBEB"/>
<path d="M8.53749 118.059H5.18848V121.408H8.53749V118.059Z" fill="white"/>
<path d="M8.7058 121.59H4.97949V117.863H8.7058V121.59ZM5.35678 121.217H8.33317V118.245H5.37541L5.35678 121.217Z" fill="#EBEBEB"/>
<path d="M8.55116 104.625H5.20215V107.974H8.55116V104.625Z" fill="white"/>
<path d="M8.7058 108.162H4.97949V104.436H8.7058V108.162ZM5.35678 107.789H8.33317V104.813H5.37541L5.35678 107.789Z" fill="#EBEBEB"/>
<path d="M8.55116 91.1973H5.20215V94.5463H8.55116V91.1973Z" fill="white"/>
<path d="M8.7058 94.7263H4.97949V91H8.7058V94.7263ZM5.35678 94.3537H8.33317V91.3819H5.37541L5.35678 94.3537Z" fill="#EBEBEB"/>
<path d="M35.4135 118.059H32.0645V121.408H35.4135V118.059Z" fill="white"/>
<path d="M35.5867 121.59H31.8604V117.863H35.5867V121.59ZM32.2376 121.217H35.214V118.245H32.2376V121.217Z" fill="#EBEBEB"/>
<path d="M35.4135 104.625H32.0645V107.974H35.4135V104.625Z" fill="white"/>
<path d="M35.5867 108.162H31.8604V104.436H35.5867V108.162ZM32.2376 107.789H35.214V104.813H32.2376V107.789Z" fill="#EBEBEB"/>
<path d="M35.4135 91.1973H32.0645V94.5463H35.4135V91.1973Z" fill="white"/>
<path d="M35.5867 94.7263H31.8604V91H35.5867V94.7263ZM32.2376 94.3537H35.214V91.3819H32.2376V94.3537Z" fill="#EBEBEB"/>
<path d="M21.9848 91.1973H18.6357V94.5463H21.9848V91.1973Z" fill="white"/>
<path d="M22.1531 94.7263H18.4268V91H22.1531V94.7263ZM18.8087 94.3537H21.7804V91.3819H18.8087V94.3537Z" fill="#EBEBEB"/>
<path d="M21.9711 118.059H18.6221V121.408H21.9711V118.059Z" fill="white"/>
<path d="M22.1531 121.59H18.4268V117.863H22.1531V121.59ZM18.8087 121.217H21.7804V118.245H18.8087V121.217Z" fill="#EBEBEB"/>
<path d="M194.811 62.7843H194.252V62.407H194.438V62.2207H194.811V62.7843Z" fill="#EBEBEB"/>
<path d="M193.507 62.7838H192.757V62.3926H193.507V62.7838ZM192.012 62.7838H191.267V62.3926H192.012V62.7838ZM190.521 62.7838H189.776V62.3926H190.521V62.7838ZM189.026 62.7838H188.281V62.3926H189.026V62.7838ZM187.536 62.7838H186.79V62.3926H187.536V62.7838ZM186.045 62.7838H185.295V62.3926H186.045V62.7838ZM184.55 62.7838H183.805V62.3926H184.55V62.7838ZM183.059 62.7838H182.314V62.3926H183.059V62.7838ZM181.564 62.7838H180.819V62.3926H181.564V62.7838ZM180.074 62.7838H179.328V62.3926H180.074V62.7838ZM178.583 62.7838H177.833V62.3926H178.583V62.7838ZM177.088 62.7838H176.343V62.3926H177.088V62.7838ZM175.598 62.7838H174.852V62.3926H175.598V62.7838ZM174.102 62.7838H173.357V62.3926H174.102V62.7838ZM172.612 62.7838H171.867V62.3926H172.612V62.7838ZM171.121 62.7838H170.371V62.3926H171.121V62.7838ZM169.626 62.7838H168.881V62.3926H169.626V62.7838Z" fill="#EBEBEB"/>
<path d="M168.135 62.7843H167.576V62.2207H167.949V62.407H168.135V62.7843Z" fill="#EBEBEB"/>
<path d="M167.949 61.4614H167.576V60.7161H167.949V61.4614ZM167.949 59.9709H167.576V59.2256H167.949V59.9709ZM167.949 58.4757H167.576V57.7351H167.949V58.4757ZM167.949 56.9852H167.576V56.2399H167.949V56.9852ZM167.949 55.4947H167.576V54.7447H167.949V55.4947ZM167.949 53.9995H167.576V53.2542H167.949V53.9995ZM167.949 52.5089H167.576V51.7637H167.949V52.5089ZM167.949 51.0138H167.576V50.2825H167.949V51.0138ZM167.949 49.5232H167.576V48.778H167.949V49.5232ZM167.949 48.0327H167.576V47.2828H167.949V48.0327ZM167.949 46.5375H167.576V45.7923H167.949V46.5375ZM167.949 45.047H167.576V44.3018H167.949V45.047ZM167.949 43.5565H167.576V42.8299H167.949V43.5565ZM167.949 42.0613H167.576V41.3161H167.949V42.0613ZM167.949 40.5708H167.576V39.8255H167.949V40.5708ZM167.949 39.0756H167.576V38.3304H167.949V39.0756ZM167.949 37.5851H167.576V36.8398H167.949V37.5851Z" fill="#EBEBEB"/>
<path d="M167.949 36.1085H167.576V35.5449H168.135V35.9222H167.949V36.1085Z" fill="#EBEBEB"/>
<path d="M193.507 35.9176H192.757V35.5449H193.507V35.9176ZM192.012 35.9176H191.267V35.5449H192.012V35.9176ZM190.521 35.9176H189.776V35.5449H190.521V35.9176ZM189.026 35.9176H188.281V35.5449H189.026V35.9176ZM187.536 35.9176H186.79V35.5449H187.536V35.9176ZM186.045 35.9176H185.295V35.5449H186.045V35.9176ZM184.55 35.9176H183.805V35.5449H184.55V35.9176ZM183.059 35.9176H182.314V35.5449H183.059V35.9176ZM181.564 35.9176H180.819V35.5449H181.564V35.9176ZM180.074 35.9176H179.328V35.5449H180.074V35.9176ZM178.583 35.9176H177.833V35.5449H178.583V35.9176ZM177.088 35.9176H176.343V35.5449H177.088V35.9176ZM175.598 35.9176H174.852V35.5449H175.598V35.9176ZM174.102 35.9176H173.357V35.5449H174.102V35.9176ZM172.612 35.9176H171.867V35.5449H172.612V35.9176ZM171.121 35.9176H170.371V35.5449H171.121V35.9176ZM169.626 35.9176H168.881V35.5449H169.626V35.9176Z" fill="#EBEBEB"/>
<path d="M194.811 36.1085H194.438V35.9222H194.252V35.5449H194.811V36.1085Z" fill="#EBEBEB"/>
<path d="M194.811 61.4614H194.438V60.7161H194.811V61.4614ZM194.811 59.9709H194.438V59.2256H194.811V59.9709ZM194.811 58.4757H194.438V57.7351H194.811V58.4757ZM194.811 56.9852H194.438V56.2399H194.811V56.9852ZM194.811 55.4947H194.438V54.7447H194.811V55.4947ZM194.811 53.9995H194.438V53.2542H194.811V53.9995ZM194.811 52.5089H194.438V51.7637H194.811V52.5089ZM194.811 51.0138H194.438V50.2825H194.811V51.0138ZM194.811 49.5232H194.438V48.778H194.811V49.5232ZM194.811 48.0327H194.438V47.2828H194.811V48.0327ZM194.811 46.5375H194.438V45.7923H194.811V46.5375ZM194.811 45.047H194.438V44.3018H194.811V45.047ZM194.811 43.5565H194.438V42.8299H194.811V43.5565ZM194.811 42.0613H194.438V41.3161H194.811V42.0613ZM194.811 40.5708H194.438V39.8255H194.811V40.5708ZM194.811 39.0756H194.438V38.3304H194.811V39.0756ZM194.811 37.5851H194.438V36.8398H194.811V37.5851Z" fill="#EBEBEB"/>
<path d="M169.435 60.9219H166.086V64.2709H169.435V60.9219Z" fill="white"/>
<path d="M169.621 64.4568H165.895V60.7305H169.621V64.4568ZM166.272 64.0841H169.248V61.1078H166.272V64.0841Z" fill="#EBEBEB"/>
<path d="M169.449 47.4922H166.1V50.8412H169.449V47.4922Z" fill="white"/>
<path d="M169.621 51.0232H165.895V47.2969H169.621V51.0232ZM166.272 50.6505H169.248V47.6788H166.272V50.6505Z" fill="#EBEBEB"/>
<path d="M169.449 34.0586H166.1V37.4076H169.449V34.0586Z" fill="white"/>
<path d="M169.621 37.5935H165.895V33.8672H169.621V37.5935ZM166.272 37.2209H169.248V34.2445H166.272V37.2209Z" fill="#EBEBEB"/>
<path d="M196.316 60.9219H192.967V64.2709H196.316V60.9219Z" fill="white"/>
<path d="M196.483 64.4568H192.757V60.7305H196.483V64.4568ZM193.139 64.0841H196.111V61.1078H193.157L193.139 64.0841Z" fill="#EBEBEB"/>
<path d="M196.316 47.4922H192.967V50.8412H196.316V47.4922Z" fill="white"/>
<path d="M196.483 51.0232H192.757V47.2969H196.483V51.0232ZM193.139 50.6505H196.111V47.6788H193.157L193.139 50.6505Z" fill="#EBEBEB"/>
<path d="M196.316 34.0586H192.967V37.4076H196.316V34.0586Z" fill="white"/>
<path d="M196.483 37.5935H192.757V33.8672H196.483V37.5935ZM193.157 37.2395H196.129V34.2631H193.157V37.2395Z" fill="#EBEBEB"/>
<path d="M182.882 34.0586H179.533V37.4076H182.882V34.0586Z" fill="white"/>
<path d="M183.054 37.5935H179.328V33.8672H183.054V37.5935ZM179.705 37.2209H182.682V34.2445H179.705V37.2209Z" fill="#EBEBEB"/>
<path d="M182.869 60.9219H179.52V64.2709H182.869V60.9219Z" fill="white"/>
<path d="M183.054 64.4568H179.328V60.7305H183.054V64.4568ZM179.705 64.0841H182.682V61.1078H179.705V64.0841Z" fill="#EBEBEB"/>
<path d="M69.8731 44.2543H10.8857V3.89844H69.8731V44.2543ZM11.3515 43.7885H69.4073V4.36423H11.3515V43.7885Z" fill="#EBEBEB"/>
<path d="M15.497 6.498C15.497 6.73016 15.4281 6.9571 15.2992 7.15012C15.1702 7.34315 14.9869 7.4936 14.7724 7.58244C14.5579 7.67128 14.3219 7.69453 14.0942 7.64924C13.8665 7.60395 13.6574 7.49215 13.4932 7.328C13.3291 7.16384 13.2173 6.95469 13.172 6.727C13.1267 6.49931 13.1499 6.2633 13.2388 6.04882C13.3276 5.83433 13.4781 5.65102 13.6711 5.52204C13.8641 5.39306 14.091 5.32422 14.3232 5.32422C14.6345 5.32422 14.9331 5.44788 15.1532 5.66801C15.3733 5.88814 15.497 6.1867 15.497 6.498Z" fill="#A6A6A6"/>
<path d="M20.29 6.498C20.29 6.73016 20.2211 6.9571 20.0921 7.15012C19.9632 7.34315 19.7798 7.4936 19.5654 7.58244C19.3509 7.67128 19.1149 7.69453 18.8872 7.64924C18.6595 7.60395 18.4503 7.49215 18.2862 7.328C18.122 7.16384 18.0102 6.95469 17.9649 6.727C17.9196 6.49931 17.9429 6.2633 18.0317 6.04882C18.1206 5.83433 18.271 5.65102 18.4641 5.52204C18.6571 5.39306 18.884 5.32422 19.1162 5.32422C19.4275 5.32422 19.726 5.44788 19.9462 5.66801C20.1663 5.88814 20.29 6.1867 20.29 6.498Z" fill="#EBEBEB"/>
<path d="M25.0878 6.498C25.0878 6.73016 25.019 6.9571 24.89 7.15012C24.761 7.34315 24.5777 7.4936 24.3632 7.58244C24.1487 7.67128 23.9127 7.69453 23.685 7.64924C23.4573 7.60395 23.2482 7.49215 23.084 7.328C22.9199 7.16384 22.8081 6.95469 22.7628 6.727C22.7175 6.49931 22.7407 6.2633 22.8296 6.04882C22.9184 5.83433 23.0689 5.65102 23.2619 5.52204C23.4549 5.39306 23.6819 5.32422 23.914 5.32422C24.2253 5.32422 24.5239 5.44788 24.744 5.66801C24.9641 5.88814 25.0878 6.1867 25.0878 6.498Z" fill="#0CAF6F"/>
<path d="M69.6398 8.56641H11.1182V9.03219H69.6398V8.56641Z" fill="#EBEBEB"/>
<path d="M9.11532 82.7376C9.2733 82.6394 9.45563 82.5873 9.64166 82.5873C9.82769 82.5873 10.01 82.6394 10.168 82.7376L10.4335 82.8867L10.713 83.0311C10.8809 83.1071 11.0244 83.2285 11.1272 83.3815C11.2301 83.5345 11.2882 83.7132 11.2952 83.8974L11.3371 85.183L15.5292 85.0526L15.4873 83.767C15.4889 83.5856 15.5396 83.408 15.6339 83.2531C15.7282 83.0981 15.8626 82.9715 16.023 82.8867C16.2074 82.788 16.3862 82.6791 16.5586 82.5606C16.7088 82.453 16.886 82.3894 17.0703 82.3771C17.2547 82.3647 17.4388 82.4041 17.602 82.4908L18.7338 83.1009L20.7228 79.3746L19.5862 78.7691C19.4246 78.6798 19.2905 78.5479 19.1986 78.3878C19.1066 78.2277 19.0602 78.0454 19.0645 77.8608C19.0761 77.6529 19.0761 77.4446 19.0645 77.2367C19.0487 77.0535 19.0839 76.8696 19.1661 76.7052C19.2483 76.5408 19.3744 76.4023 19.5303 76.3051L20.6249 75.625L18.4124 72.0571L17.3085 72.7372C17.1518 72.8341 16.9711 72.8854 16.7868 72.8854C16.6026 72.8854 16.4219 72.8341 16.2652 72.7372L15.9997 72.5881C15.9065 72.5384 15.8133 72.4918 15.7202 72.4484C15.5522 72.3711 15.4089 72.2488 15.3061 72.0951C15.2033 71.9413 15.1451 71.7621 15.138 71.5773L15.096 70.2871L10.9039 70.4175L10.9412 71.7031C10.9517 71.8925 10.9077 72.0808 10.8144 72.2459C10.7211 72.411 10.5825 72.5459 10.4149 72.6347C10.2315 72.7343 10.0542 72.8448 9.88387 72.9654C9.73283 73.0713 9.55548 73.1334 9.37137 73.1449C9.18726 73.1564 9.00355 73.1169 8.84051 73.0306L7.70398 72.4251L5.71973 76.1514L6.84228 76.6917C7.00788 76.7824 7.14463 76.9178 7.23688 77.0826C7.32914 77.2473 7.37317 77.4347 7.36396 77.6233C7.35233 77.8327 7.35233 78.0426 7.36396 78.2521C7.37976 78.4352 7.34462 78.6191 7.26241 78.7835C7.18021 78.9479 7.05415 79.0864 6.89817 79.1837L5.80357 79.8591L8.01606 83.4316L9.11532 82.7376ZM10.168 76.1048C10.4903 75.5048 10.9833 75.0139 11.5848 74.6942C12.1862 74.3745 12.8689 74.2404 13.5465 74.3089C14.2242 74.3774 14.8663 74.6454 15.3916 75.0789C15.9168 75.5125 16.3017 76.0921 16.4974 76.7445C16.6931 77.3969 16.6909 78.0927 16.491 78.7438C16.2911 79.3949 15.9026 79.9721 15.3746 80.4023C14.8465 80.8325 14.2027 81.0963 13.5247 81.1605C12.8466 81.2246 12.1647 81.0862 11.5654 80.7627C10.7631 80.3296 10.1654 79.596 9.9034 78.7227C9.64143 77.8495 9.73659 76.908 10.168 76.1048Z" fill="#EBEBEB"/>
<path d="M19.8559 66.6685C19.9205 66.556 20.0155 66.4639 20.13 66.403C20.2445 66.342 20.374 66.3146 20.5034 66.3239H20.9412C21.0699 66.3157 21.1984 66.3431 21.3126 66.4031C21.4268 66.4631 21.5223 66.5533 21.5887 66.6639L22.0545 67.4464L24.6023 65.9792L24.1365 65.1967C24.0722 65.0836 24.0407 64.9547 24.0457 64.8247C24.0506 64.6947 24.0918 64.5686 24.1645 64.4607C24.2439 64.3372 24.317 64.2097 24.3834 64.0788C24.4414 63.9638 24.5298 63.8669 24.639 63.7988C24.7483 63.7306 24.8741 63.6937 25.0029 63.6922H25.9065V60.7484H25.0076C24.8787 60.7474 24.7526 60.7107 24.6433 60.6425C24.5339 60.5742 24.4456 60.4771 24.3881 60.3618C24.3182 60.2314 24.2483 60.1056 24.1691 59.9845C24.0964 59.8766 24.0553 59.7505 24.0503 59.6205C24.0454 59.4905 24.0769 59.3617 24.1412 59.2486L24.607 58.466L22.0591 56.9941L21.5933 57.7813C21.5278 57.8926 21.4324 57.9835 21.318 58.0435C21.2036 58.1036 21.0748 58.1306 20.9459 58.1213H20.5127C20.3838 58.1306 20.2549 58.1036 20.1406 58.0435C20.0262 57.9835 19.9308 57.8926 19.8653 57.7813L19.3995 56.9941L16.847 58.466L17.3127 59.2486C17.3813 59.3582 17.4177 59.4849 17.4177 59.6142C17.4177 59.7435 17.3813 59.8702 17.3127 59.9798C17.2336 60.1056 17.159 60.2314 17.0938 60.3618C17.0359 60.4778 16.9468 60.5754 16.8366 60.6437C16.7264 60.712 16.5993 60.7482 16.4697 60.7484H15.5381V63.6922H16.4371C16.5671 63.6933 16.6943 63.7305 16.8045 63.7996C16.9146 63.8686 17.0035 63.9669 17.0612 64.0834C17.1269 64.2133 17.2 64.3393 17.2801 64.4607C17.3486 64.5712 17.3849 64.6987 17.3849 64.8287C17.3849 64.9587 17.3486 65.0861 17.2801 65.1967L16.8143 65.9792L19.4181 67.4464L19.8559 66.6685ZM18.3095 62.2249C18.3086 61.7475 18.4493 61.2806 18.7139 60.8832C18.9784 60.4858 19.3549 60.1758 19.7957 59.9925C20.2365 59.8092 20.7218 59.7607 21.1902 59.8533C21.6585 59.9459 22.0888 60.1753 22.4267 60.5125C22.7646 60.8498 22.9949 61.2797 23.0884 61.7479C23.1819 62.216 23.1343 62.7014 22.9519 63.1425C22.7694 63.5837 22.4601 63.9608 22.0633 64.2261C21.6664 64.4914 21.1997 64.6331 20.7223 64.6331C20.0832 64.6331 19.4702 64.3795 19.0179 63.928C18.5655 63.4765 18.3108 62.864 18.3095 62.2249Z" fill="#EBEBEB"/>
<path d="M187.568 144.959C187.456 144.893 187.364 144.797 187.303 144.682C187.242 144.567 187.214 144.437 187.224 144.307C187.224 144.237 187.224 144.167 187.224 144.092C187.224 144.018 187.224 143.948 187.224 143.874C187.214 143.745 187.241 143.616 187.301 143.501C187.361 143.387 187.452 143.292 187.564 143.226L188.346 142.76L186.879 140.212L186.096 140.678C185.983 140.742 185.854 140.772 185.724 140.767C185.595 140.763 185.469 140.722 185.36 140.65C185.238 140.569 185.11 140.496 184.978 140.431C184.864 140.372 184.767 140.283 184.7 140.173C184.633 140.063 184.597 139.936 184.596 139.807V138.908H181.653V139.807C181.653 139.937 181.616 140.064 181.548 140.174C181.48 140.284 181.382 140.373 181.266 140.431C181.136 140.497 181.01 140.57 180.889 140.65C180.78 140.722 180.655 140.763 180.525 140.767C180.395 140.772 180.266 140.742 180.153 140.678L179.37 140.212L177.898 142.76L178.686 143.226C178.796 143.291 178.887 143.386 178.947 143.499C179.007 143.613 179.034 143.741 179.026 143.869C179.026 143.943 179.026 144.013 179.026 144.088C179.026 144.162 179.026 144.232 179.026 144.302C179.034 144.431 179.007 144.561 178.947 144.676C178.887 144.791 178.797 144.887 178.686 144.954L177.898 145.42L179.37 147.968L180.153 147.502C180.265 147.439 180.393 147.408 180.522 147.413C180.652 147.418 180.777 147.458 180.884 147.53C181.01 147.609 181.136 147.684 181.266 147.749C181.382 147.807 181.48 147.896 181.548 148.006C181.616 148.116 181.653 148.243 181.653 148.373V149.272H184.601V148.378C184.601 148.248 184.638 148.121 184.706 148.011C184.774 147.9 184.872 147.811 184.988 147.754C185.118 147.688 185.244 147.615 185.365 147.535C185.473 147.463 185.599 147.422 185.729 147.417C185.859 147.412 185.988 147.443 186.101 147.507L186.883 147.972L188.351 145.425L187.568 144.959ZM183.125 146.505C182.647 146.506 182.18 146.365 181.783 146.101C181.385 145.836 181.075 145.46 180.892 145.019C180.709 144.578 180.66 144.093 180.753 143.625C180.846 143.156 181.075 142.726 181.412 142.388C181.749 142.05 182.179 141.82 182.648 141.726C183.116 141.633 183.601 141.68 184.042 141.863C184.483 142.045 184.86 142.355 185.126 142.751C185.391 143.148 185.533 143.615 185.533 144.092C185.533 144.731 185.28 145.343 184.829 145.795C184.379 146.247 183.768 146.503 183.129 146.505H183.125Z" fill="#EBEBEB"/>
<path d="M76.897 159.738H52.1357V187.155H76.897V159.738Z" fill="#EBEBEB"/>
<path d="M39.3635 187.154H52.1494V159.733H39.3635V187.154Z" fill="#DBDBDB"/>
<path d="M62.4111 165.667H62.9375H63.3287L63.557 165.211L63.869 165.667L64.2976 164.726L64.7028 165.667H65.8626H66.389L66.5799 165.038L66.7616 165.667H67.1063V159.742H62.4111V165.667Z" fill="white"/>
<path d="M40.2295 185.272C41.1611 183.319 42.0926 181.363 43.0242 179.403L45.8189 173.506L48.5578 167.582C49.4645 165.607 50.3619 163.622 51.25 161.629C50.3185 163.582 49.3869 165.538 48.4553 167.498L45.6606 173.395L42.9264 179.306C42.0166 181.296 41.1176 183.285 40.2295 185.272Z" fill="#EBEBEB"/>
<path d="M40.2295 161.633C41.1176 163.62 42.0166 165.603 42.9264 167.581L45.6652 173.506L48.46 179.403C49.3915 181.368 50.3231 183.325 51.2547 185.272C50.3666 183.284 49.4676 181.3 48.5578 179.319L45.8189 173.394L43.0242 167.497C42.1113 165.538 41.1797 163.583 40.2295 161.633Z" fill="#EBEBEB"/>
<path d="M83.5347 132.363H58.7734V159.78H83.5347V132.363Z" fill="#EBEBEB"/>
<path d="M45.9963 159.779H58.7822V132.358H45.9963V159.779Z" fill="#DBDBDB"/>
<path d="M69.0488 138.293H69.5752H69.9664L70.19 137.836L70.5067 138.293L70.9353 137.352L71.3405 138.288H72.5003H73.0267L73.2176 137.664L73.3993 138.288H73.744V132.363L69.0488 132.368V138.293Z" fill="white"/>
<path d="M46.8682 157.88C47.7997 155.927 48.7313 153.97 49.6629 152.011L52.4576 146.114L55.1965 140.189C56.1001 138.214 56.9975 136.23 57.8887 134.236C56.9571 136.19 56.0256 138.146 55.094 140.105L52.2993 146.002L49.5604 151.927C48.6568 153.921 47.7594 155.905 46.8682 157.88Z" fill="#EBEBEB"/>
<path d="M46.8682 134.254C47.7594 136.247 48.6583 138.232 49.5651 140.207L52.3039 146.131L55.0986 152.028C56.0302 153.988 56.9618 155.944 57.8934 157.897C57.0053 155.904 56.1063 153.919 55.1965 151.945L52.4576 146.02L49.6629 140.123C48.7531 138.163 47.8215 136.207 46.8682 134.254Z" fill="#EBEBEB"/>
<path d="M100 205.837C150.884 205.837 192.133 202.327 192.133 197.997C192.133 193.668 150.884 190.158 100 190.158C49.1165 190.158 7.86719 193.668 7.86719 197.997C7.86719 202.327 49.1165 205.837 100 205.837Z" fill="#EBEBEB"/>
<path d="M5.43555 187.284L29.0789 187.167L52.7177 187.13L99.9998 187.051L147.282 187.13L170.921 187.167L194.559 187.284L170.921 187.395L147.282 187.437L99.9998 187.517L52.7177 187.437L29.0789 187.395L5.43555 187.284Z" fill="#1F2937"/>
<path d="M184.773 19.3125H15.2217V138.056H184.773V19.3125Z" fill="white"/>
<path d="M184.899 138.182H15.1006V19.1914H184.899V138.182ZM15.3521 137.935H184.652V19.4383H15.3475L15.3521 137.935Z" fill="#DBDBDB"/>
<path d="M184.773 19.3125H15.2217V23.4394H184.773V19.3125Z" fill="#0CAF6F"/>
<path d="M18.487 21.4036C18.487 21.6063 18.4269 21.8044 18.3143 21.9729C18.2017 22.1415 18.0416 22.2728 17.8544 22.3504C17.6671 22.4279 17.4611 22.4482 17.2623 22.4087C17.0635 22.3691 16.8809 22.2715 16.7376 22.1282C16.5943 21.9849 16.4967 21.8023 16.4572 21.6036C16.4177 21.4048 16.4379 21.1987 16.5155 21.0115C16.5931 20.8242 16.7244 20.6642 16.8929 20.5516C17.0614 20.439 17.2596 20.3789 17.4622 20.3789C17.734 20.3789 17.9947 20.4869 18.1868 20.679C18.379 20.8712 18.487 21.1319 18.487 21.4036Z" fill="#1F2937"/>
<path d="M22.6793 21.4036C22.6793 21.6063 22.6193 21.8044 22.5067 21.973C22.3941 22.1415 22.234 22.2728 22.0468 22.3504C21.8595 22.4279 21.6535 22.4482 21.4547 22.4087C21.2559 22.3692 21.0733 22.2716 20.93 22.1282C20.7867 21.9849 20.6891 21.8023 20.6496 21.6036C20.61 21.4048 20.6303 21.1987 20.7079 21.0115C20.7854 20.8243 20.9168 20.6642 21.0853 20.5516C21.2538 20.439 21.4519 20.3789 21.6546 20.3789C21.7894 20.3783 21.9229 20.4044 22.0475 20.4557C22.1721 20.5069 22.2853 20.5824 22.3806 20.6777C22.4759 20.773 22.5513 20.8862 22.6026 21.0108C22.6539 21.1354 22.68 21.2689 22.6793 21.4036Z" fill="white"/>
<path d="M26.8717 21.4036C26.8717 21.6065 26.8115 21.8048 26.6987 21.9734C26.5859 22.1421 26.4256 22.2734 26.2381 22.3508C26.0505 22.4282 25.8443 22.4483 25.6454 22.4083C25.4465 22.3684 25.2639 22.2704 25.1208 22.1266C24.9776 21.9828 24.8804 21.7998 24.8414 21.6007C24.8024 21.4016 24.8233 21.1954 24.9016 21.0083C24.9799 20.8211 25.112 20.6614 25.2811 20.5493C25.4502 20.4373 25.6488 20.378 25.8517 20.3789C25.986 20.3789 26.119 20.4055 26.2431 20.457C26.3672 20.5086 26.4798 20.5841 26.5746 20.6793C26.6694 20.7746 26.7444 20.8876 26.7954 21.0119C26.8464 21.1362 26.8723 21.2693 26.8717 21.4036Z" fill="#1F2937"/>
<path d="M184.773 23.4434H15.2217V37.2214H184.773V23.4434Z" fill="#1F2937"/>
<path d="M68.6899 27.2949H24.1699V33.3688H68.6899V27.2949Z" fill="white"/>
<path d="M68.7503 33.4301H24.1045V27.2305H68.7503V33.4301ZM24.2303 33.3043H68.6245V27.3562H24.2303V33.3043Z" fill="#C7C7C7"/>
<path d="M68.7504 27.2305H62.5508V33.4301H68.7504V27.2305Z" fill="#0CAF6F"/>
<path d="M67.5764 32.0329L67.0175 32.4568L65.9974 31.0874L65.6201 30.5843C65.6982 30.554 65.7718 30.5133 65.839 30.4632C65.9658 30.3652 66.064 30.2349 66.1232 30.0859L66.5284 30.6216L67.5764 32.0329Z" fill="white"/>
<path d="M66.4631 28.7996C66.2787 28.5556 66.0259 28.372 65.7369 28.2721C65.4479 28.1722 65.1357 28.1605 64.84 28.2385C64.5443 28.3165 64.2785 28.4806 64.0764 28.71C63.8742 28.9395 63.7448 29.2239 63.7047 29.527C63.6646 29.8302 63.7156 30.1384 63.8511 30.4125C63.9866 30.6866 64.2006 30.9143 64.4658 31.0665C64.731 31.2187 65.0355 31.2886 65.3406 31.2673C65.6456 31.246 65.9374 31.1344 66.1789 30.9468C66.3016 30.8562 66.4086 30.746 66.4957 30.6208C66.6851 30.3534 66.7841 30.0325 66.7782 29.7048C66.7723 29.3772 66.6619 29.06 66.4631 28.7996ZM65.8063 30.4624C65.7391 30.5125 65.6655 30.5532 65.5874 30.5835C65.3879 30.6657 65.1661 30.6761 64.9598 30.613C64.7535 30.5498 64.5755 30.417 64.4562 30.2373C64.3369 30.0575 64.2838 29.8419 64.3057 29.6272C64.3277 29.4126 64.4236 29.2123 64.5768 29.0604C64.7301 28.9086 64.9313 28.8146 65.1461 28.7946C65.3609 28.7747 65.5761 28.8298 65.7547 28.9508C65.9334 29.0717 66.0645 29.251 66.1257 29.4578C66.187 29.6647 66.1745 29.8864 66.0904 30.0851C66.0339 30.233 65.939 30.3632 65.8156 30.4624H65.8063Z" fill="white"/>
<path d="M25.7636 28.4883H25.4375V32.1727H25.7636V28.4883Z" fill="#C7C7C7"/>
<path d="M175.891 27.2305H169.691V28.4415H175.891V27.2305Z" fill="#EBEBEB"/>
<path d="M175.891 29.7227H169.691V30.9337H175.891V29.7227Z" fill="#EBEBEB"/>
<path d="M175.891 32.2188H169.691V33.4298H175.891V32.2188Z" fill="#EBEBEB"/>
<path d="M105.212 129.834H138.349V104.882H105.212V129.834Z" fill="#0CAF6F"/>
<path opacity="0.2" d="M108.771 110.341C108.649 110.962 108.73 111.606 109.002 112.178C109.273 112.749 109.722 113.219 110.28 113.516C110.839 113.814 111.478 113.924 112.104 113.831C112.73 113.738 113.31 113.446 113.757 112.998C114.205 112.551 114.497 111.971 114.59 111.345C114.683 110.719 114.573 110.08 114.275 109.521C113.977 108.963 113.508 108.515 112.937 108.243C112.365 107.971 111.721 107.89 111.1 108.012C110.525 108.126 109.996 108.408 109.581 108.823C109.167 109.237 108.885 109.766 108.771 110.341Z" fill="#1F2937"/>
<path opacity="0.2" d="M114.589 124.46H138.54L126.564 111.031L114.589 124.46Z" fill="#1F2937"/>
<path d="M105.208 124.467H124.981L115.097 115.725L105.208 124.467Z" fill="#0CAF6F"/>
<path opacity="0.3" d="M105.208 124.467H124.981L115.097 115.725L105.208 124.467Z" fill="#1F2937"/>
<path d="M138.344 124.459H105.208V129.834H138.344V124.459Z" fill="#0CAF6F"/>
<path opacity="0.3" d="M138.344 124.459H105.208V129.834H138.344V124.459Z" fill="#1F2937"/>
<path d="M129.62 70.9199H105.143V72.9787H129.62V70.9199Z" fill="#A6A6A6"/>
<path d="M175.975 75.6992H105.143V77.758H175.975V75.6992Z" fill="#EBEBEB"/>
<path d="M175.975 80.2285H105.143V82.2873H175.975V80.2285Z" fill="#EBEBEB"/>
<path d="M175.975 84.7598H105.143V86.8185H175.975V84.7598Z" fill="#EBEBEB"/>
<path d="M175.975 89.293H105.143V91.3518H175.975V89.293Z" fill="#EBEBEB"/>
<path d="M166.426 104.873H141.949V106.932H166.426V104.873Z" fill="#A6A6A6"/>
<path d="M175.97 109.652H141.949V111.711H175.97V109.652Z" fill="#EBEBEB"/>
<path d="M175.97 114.184H141.949V116.242H175.97V114.184Z" fill="#EBEBEB"/>
<path d="M175.97 118.711H141.949V120.77H175.97V118.711Z" fill="#EBEBEB"/>
<path d="M175.97 123.244H141.949V125.303H175.97V123.244Z" fill="#EBEBEB"/>
<path d="M175.97 127.775H141.949V129.834H175.97V127.775Z" fill="#EBEBEB"/>
<path d="M175.975 94.5977H105.143V100.215H175.975V94.5977Z" fill="#1F2937"/>
<path d="M48.5025 109.404H24.0254V111.463H48.5025V109.404Z" fill="#A6A6A6"/>
<path d="M94.8578 114.184H24.0254V116.242H94.8578V114.184Z" fill="#EBEBEB"/>
<path d="M94.8578 118.711H24.0254V120.77H94.8578V118.711Z" fill="#EBEBEB"/>
<path d="M94.8578 123.244H24.0254V125.303H94.8578V123.244Z" fill="#EBEBEB"/>
<path d="M94.8578 127.775H24.0254V129.834H94.8578V127.775Z" fill="#EBEBEB"/>
<path d="M94.8578 94.5977H24.0254V100.215H94.8578V94.5977Z" fill="#1F2937"/>
<path d="M176.012 67.2546H175.197V67.0217H175.78V66.4395H176.012V67.2546Z" fill="#A6A6A6"/>
<path d="M173.781 67.2563H172.383V67.0234H173.781V67.2563ZM170.949 67.2563H169.551V67.0234H170.949V67.2563ZM168.121 67.2563H166.724V67.0234H168.121V67.2563ZM165.289 67.2563H163.892V67.0234H165.289V67.2563ZM162.457 67.2563H161.06V67.0234H162.457V67.2563ZM159.625 67.2563H158.228V67.0234H159.625V67.2563ZM156.798 67.2563H155.401V67.0234H156.798V67.2563ZM153.966 67.2563H152.569V67.0234H153.966V67.2563ZM151.134 67.2563H149.737V67.0234H151.134V67.2563ZM148.302 67.2563H146.905V67.0234H148.302V67.2563ZM145.475 67.2563H144.077V67.0234H145.475V67.2563ZM142.643 67.2563H141.245V67.0234H142.643V67.2563ZM139.811 67.2563H138.413V67.0234H139.811V67.2563ZM136.979 67.2563H135.581V67.0234H136.979V67.2563ZM134.151 67.2563H132.754V67.0234H134.151V67.2563ZM131.319 67.2563H129.922V67.0234H131.319V67.2563ZM128.487 67.2563H127.09V67.0234H128.487V67.2563ZM125.655 67.2563H124.258V67.0234H125.655V67.2563ZM122.828 67.2563H121.431V67.0234H122.828V67.2563ZM119.996 67.2563H118.599V67.0234H119.996V67.2563ZM117.164 67.2563H115.767V67.0234H117.164V67.2563ZM114.332 67.2563H112.935V67.0234H114.332V67.2563ZM111.505 67.2563H110.107V67.0234H111.505V67.2563ZM108.673 67.2563H107.275V67.0234H108.673V67.2563Z" fill="#A6A6A6"/>
<path d="M105.841 67.2546H105.026V66.4395H105.259V67.0217H105.841V67.2546Z" fill="#A6A6A6"/>
<path d="M105.259 65.0897H105.026V63.7436H105.259V65.0897ZM105.259 62.3928H105.026V61.0467H105.259V62.3928ZM105.259 59.6959H105.026V58.3498H105.259V59.6959ZM105.259 56.999H105.026V55.6529H105.259V56.999ZM105.259 54.3021H105.026V52.956H105.259V54.3021ZM105.259 51.6052H105.026V50.2823H105.259V51.6052ZM105.259 48.9083H105.026V47.5621H105.259V48.9083ZM105.259 46.2114H105.026V44.8652H105.259V46.2114Z" fill="#A6A6A6"/>
<path d="M105.259 43.5143H105.026V42.6992H105.841V42.9321H105.259V43.5143Z" fill="#A6A6A6"/>
<path d="M173.781 42.9321H172.383V42.6992H173.781V42.9321ZM170.949 42.9321H169.551V42.6992H170.949V42.9321ZM168.121 42.9321H166.724V42.6992H168.121V42.9321ZM165.289 42.9321H163.892V42.6992H165.289V42.9321ZM162.457 42.9321H161.06V42.6992H162.457V42.9321ZM159.625 42.9321H158.228V42.6992H159.625V42.9321ZM156.798 42.9321H155.401V42.6992H156.798V42.9321ZM153.966 42.9321H152.569V42.6992H153.966V42.9321ZM151.134 42.9321H149.737V42.6992H151.134V42.9321ZM148.302 42.9321H146.905V42.6992H148.302V42.9321ZM145.475 42.9321H144.077V42.6992H145.475V42.9321ZM142.643 42.9321H141.245V42.6992H142.643V42.9321ZM139.811 42.9321H138.413V42.6992H139.811V42.9321ZM136.979 42.9321H135.581V42.6992H136.979V42.9321ZM134.151 42.9321H132.754V42.6992H134.151V42.9321ZM131.319 42.9321H129.922V42.6992H131.319V42.9321ZM128.487 42.9321H127.09V42.6992H128.487V42.9321ZM125.655 42.9321H124.258V42.6992H125.655V42.9321ZM122.828 42.9321H121.431V42.6992H122.828V42.9321ZM119.996 42.9321H118.599V42.6992H119.996V42.9321ZM117.164 42.9321H115.767V42.6992H117.164V42.9321ZM114.332 42.9321H112.935V42.6992H114.332V42.9321ZM111.505 42.9321H110.107V42.6992H111.505V42.9321ZM108.673 42.9321H107.275V42.6992H108.673V42.9321Z" fill="#A6A6A6"/>
<path d="M176.012 43.5143H175.78V42.9321H175.197V42.6992H176.012V43.5143Z" fill="#A6A6A6"/>
<path d="M176.012 65.0897H175.779V63.7436H176.012V65.0897ZM176.012 62.3928H175.779V61.0467H176.012V62.3928ZM176.012 59.6959H175.779V58.3498H176.012V59.6959ZM176.012 56.999H175.779V55.6529H176.012V56.999ZM176.012 54.3021H175.779V52.956H176.012V54.3021ZM176.012 51.6052H175.779V50.2823H176.012V51.6052ZM176.012 48.9083H175.779V47.5621H176.012V48.9083ZM176.012 46.2114H175.779V44.8652H176.012V46.2114Z" fill="#A6A6A6"/>
<path d="M143.174 145.834H72.0391V192.939H143.174V145.834Z" fill="#1F2937"/>
<path d="M115.271 171.97C116.688 167.74 114.409 163.162 110.179 161.745C105.95 160.327 101.372 162.607 99.9545 166.836C98.5369 171.066 100.816 175.643 105.046 177.061C109.275 178.479 113.853 176.199 115.271 171.97Z" fill="#1F2937"/>
<path d="M104.201 172.803V165.975L112.739 169.384L104.201 172.803Z" fill="white"/>
<path d="M143.179 189.258H72.0439V192.938H143.179V189.258Z" fill="#EBEBEB"/>
<path d="M136.225 190.555H76.3525V191.645H136.225V190.555Z" fill="#C7C7C7"/>
<path d="M75.0157 189.943H72.6914V192.268H75.0157V189.943Z" fill="#C7C7C7"/>
<path d="M73.6788 190.357H73.2363V191.853H73.6788V190.357Z" fill="#A6A6A6"/>
<path d="M74.4698 190.357H74.0273V191.853H74.4698V190.357Z" fill="#A6A6A6"/>
<path d="M139.504 189.93H137.18V192.254H139.504V189.93Z" fill="#C7C7C7"/>
<path d="M137.986 190.811H137.529V191.374H137.986V190.811Z" fill="#A6A6A6"/>
<path d="M138.493 191.736L137.809 191.372V190.809L138.493 190.445V191.736Z" fill="#A6A6A6"/>
<path d="M138.833 190.666L138.935 190.559C139.052 190.674 139.127 190.825 139.15 190.987C139.168 191.102 139.158 191.221 139.122 191.331C139.086 191.442 139.023 191.543 138.94 191.625L138.833 191.523C138.89 191.467 138.934 191.4 138.965 191.326C138.995 191.253 139.011 191.174 139.01 191.094C139.011 191.015 138.996 190.935 138.966 190.862C138.935 190.788 138.89 190.721 138.833 190.666Z" fill="#A6A6A6"/>
<path d="M138.73 191.415L138.623 191.313C138.653 191.284 138.676 191.25 138.692 191.213C138.708 191.175 138.716 191.135 138.716 191.094C138.717 191.053 138.709 191.012 138.693 190.974C138.677 190.937 138.653 190.903 138.623 190.875L138.726 190.768C138.81 190.854 138.858 190.97 138.859 191.09C138.86 191.211 138.814 191.328 138.73 191.415Z" fill="#A6A6A6"/>
<path d="M142.28 189.93H139.956V192.254H142.28V189.93Z" fill="#C7C7C7"/>
<path d="M141.288 190.301H140.328V191.26H141.288V190.301Z" fill="#A6A6A6"/>
<path d="M141.921 190.963H140.962V191.922H141.921V190.963Z" fill="white"/>
<path d="M87.5726 191.104C87.5706 191.293 87.6137 191.48 87.6984 191.649H76.3564V190.555H87.703C87.6168 190.725 87.5722 190.913 87.5726 191.104Z" fill="#A6A6A6"/>
<path d="M90.0645 191.104C90.0645 191.434 89.9335 191.75 89.7003 191.983C89.467 192.216 89.1507 192.347 88.8209 192.347C88.5874 192.349 88.3584 192.284 88.1604 192.161C87.9624 192.037 87.8038 191.859 87.703 191.649C87.6183 191.48 87.5752 191.293 87.5772 191.104C87.5768 190.913 87.6214 190.725 87.7076 190.554C87.8081 190.344 87.966 190.167 88.1631 190.044C88.3601 189.92 88.5882 189.855 88.8209 189.855C89.0538 189.856 89.282 189.922 89.4796 190.045C89.6771 190.169 89.8362 190.345 89.9388 190.554C90.0191 190.726 90.062 190.914 90.0645 191.104Z" fill="#A6A6A6"/>
<path d="M169.799 195.396V161.398H103.606V195.396H169.799Z" fill="white"/>
<path d="M169.915 195.514H103.489V161.283H169.915V195.514ZM103.727 195.281H169.682V161.516H103.727V195.281Z" fill="#DBDBDB"/>
<path d="M107.607 190.977H135.414V165.819H107.607V190.977Z" fill="#0CAF6F"/>
<path opacity="0.2" d="M111.179 171.321C111.052 171.948 111.131 172.599 111.403 173.177C111.675 173.755 112.127 174.231 112.69 174.533C113.253 174.835 113.899 174.948 114.531 174.854C115.164 174.761 115.749 174.467 116.201 174.015C116.653 173.563 116.948 172.977 117.041 172.345C117.134 171.712 117.022 171.067 116.72 170.503C116.417 169.94 115.942 169.489 115.364 169.217C114.785 168.945 114.134 168.866 113.508 168.992C112.934 169.109 112.407 169.392 111.993 169.806C111.578 170.22 111.295 170.747 111.179 171.321Z" fill="#1F2937"/>
<path opacity="0.2" d="M115.437 185.556H135.414L125.423 172.016L115.437 185.556Z" fill="#1F2937"/>
<path d="M107.606 185.569H124.105L115.856 176.752L107.606 185.569Z" fill="#0CAF6F"/>
<path opacity="0.3" d="M107.606 185.569H124.105L115.856 176.752L107.606 185.569Z" fill="#1F2937"/>
<path d="M135.414 185.557H107.606V190.978H135.414V185.557Z" fill="#0CAF6F"/>
<path opacity="0.3" d="M135.414 185.557H107.606V190.978H135.414V185.557Z" fill="#1F2937"/>
<path d="M163.758 165.82H140.072V167.544H163.758V165.82Z" fill="#EBEBEB"/>
<path d="M163.758 169.387H140.072V171.11H163.758V169.387Z" fill="#EBEBEB"/>
<path d="M163.758 172.955H140.072V174.678H163.758V172.955Z" fill="#EBEBEB"/>
<path d="M163.758 176.523H140.072V178.247H163.758V176.523Z" fill="#EBEBEB"/>
<path d="M163.758 180.088H140.072V181.811H163.758V180.088Z" fill="#EBEBEB"/>
<path d="M169.757 169.805C169.757 169.805 162.449 168.151 158.443 164.458C154.437 160.764 152.201 154.154 152.201 154.154C154.978 154.686 157.715 155.405 160.394 156.306C161.399 157.337 162.235 158.519 162.872 159.809C162.935 158.975 162.935 158.137 162.872 157.303C163.807 157.708 164.681 158.239 165.471 158.882C168.816 161.793 169.757 169.805 169.757 169.805Z" fill="#0CAF6F"/>
<path d="M156.761 157.367C155.764 156.677 154.754 156.016 153.762 155.317C153.749 155.309 153.739 155.296 153.736 155.282C153.732 155.267 153.735 155.251 153.743 155.238C153.751 155.225 153.764 155.216 153.779 155.212C153.794 155.209 153.809 155.212 153.822 155.22C155.685 156.347 157.548 157.548 159.356 158.806C159.977 159.247 160.598 159.702 161.219 160.171L161.093 159.952C160.874 159.584 160.627 159.225 160.408 158.867C159.951 158.133 159.432 157.439 158.857 156.794C158.853 156.789 158.851 156.783 158.851 156.776C158.852 156.769 158.855 156.763 158.86 156.759C158.865 156.755 158.871 156.752 158.878 156.753C158.884 156.753 158.89 156.756 158.895 156.761C159.463 157.418 160.031 158.066 160.553 158.764C160.8 159.095 161.019 159.435 161.247 159.784C161.359 159.966 161.47 160.152 161.573 160.339L161.685 160.525C162.616 161.27 163.548 162.043 164.428 162.854C164.968 163.36 165.492 163.883 165.998 164.424C165.714 163.539 165.467 162.644 165.141 161.773C165.141 161.745 165.178 161.731 165.187 161.773C165.504 162.705 165.853 163.604 166.119 164.54C166.678 165.145 167.214 165.774 167.717 166.403C167.717 166.361 167.717 166.324 167.693 166.282C167.609 165.937 167.521 165.593 167.432 165.253C167.251 164.591 167.06 163.934 166.836 163.287C166.418 161.934 165.752 160.67 164.871 159.561C164.871 159.537 164.871 159.5 164.908 159.528C166.275 161.235 167.231 163.234 167.703 165.369C167.78 165.68 167.855 165.99 167.926 166.301C167.963 166.468 168.005 166.636 168.033 166.808C168.257 167.106 168.471 167.409 168.681 167.717C169.926 169.618 170.963 171.648 171.774 173.772C172.682 176.161 173.459 178.597 174.103 181.071C174.103 181.122 174.047 181.136 174.028 181.071C172.603 176.795 171.14 172.458 168.695 168.639C168.178 167.835 167.621 167.058 167.027 166.31C165.816 166.234 164.621 165.995 163.473 165.602C162.218 165.181 161.021 164.604 159.91 163.883C159.277 163.45 158.668 162.983 158.084 162.486C158.079 162.482 158.076 162.475 158.076 162.469C158.075 162.462 158.077 162.456 158.082 162.451C158.086 162.446 158.092 162.443 158.099 162.443C158.105 162.442 158.112 162.444 158.117 162.449C159.137 163.271 160.263 163.953 161.466 164.475C162.647 165.016 163.882 165.429 165.15 165.709C165.69 165.83 166.24 165.914 166.785 165.989C166.109 165.158 165.39 164.362 164.633 163.604C164.386 163.357 164.13 163.138 163.874 162.882C163.021 162.287 162.117 161.769 161.172 161.335C159.975 160.758 158.797 160.143 157.614 159.542C156.943 159.202 156.282 158.853 155.606 158.522C155.578 158.522 155.606 158.466 155.634 158.48C156.831 159.062 158.052 159.603 159.267 160.157C160.408 160.683 161.559 161.205 162.658 161.82L162.793 161.904C161.806 161.042 160.781 160.222 159.733 159.43C158.752 158.747 157.761 158.059 156.761 157.367Z" fill="#1F2937"/>
<path d="M157.175 161.139C157.771 161.4 158.376 161.632 158.963 161.907C159.55 162.182 160.142 162.522 160.715 162.862C160.743 162.862 160.715 162.909 160.691 162.899C160.109 162.62 159.522 162.359 158.945 162.07C158.367 161.781 157.766 161.455 157.161 161.19C157.133 161.171 157.147 161.139 157.175 161.139Z" fill="#1F2937"/>
<path d="M193.493 132.979C192.146 134.717 191.382 136.836 191.309 139.034C191.309 139.691 191.388 140.603 191.467 141.675C189.641 142.737 188.024 144.125 186.697 145.769C188.158 144.924 189.833 144.523 191.518 144.614C191.478 145.348 191.385 146.078 191.239 146.798C190.175 146.802 189.122 147.011 188.137 147.413C189.097 147.402 190.049 147.591 190.931 147.968C189.632 152.113 185.757 156.352 175.067 158.178C173.932 153.095 174.6 147.776 176.958 143.133C180.162 136.826 193.493 132.979 193.493 132.979Z" fill="#0CAF6F"/>
<path d="M171.363 175.904C171.549 174.134 171.781 172.369 172.057 170.608C172.599 167.085 173.319 163.592 174.214 160.142C174.633 158.523 175.147 156.93 175.755 155.372C175.727 155.089 175.714 154.804 175.718 154.52C175.718 154.175 175.718 153.835 175.718 153.49C175.718 152.806 175.755 152.121 175.816 151.441C175.92 150.088 176.14 148.746 176.473 147.43C176.668 146.671 176.892 145.921 177.116 145.167C177.118 145.162 177.121 145.157 177.126 145.154C177.13 145.151 177.136 145.15 177.141 145.15C177.147 145.15 177.152 145.151 177.156 145.154C177.161 145.157 177.165 145.162 177.167 145.167C176.81 146.48 176.545 147.817 176.375 149.168C176.186 150.497 176.066 151.836 176.016 153.178C176.016 153.546 176.016 153.914 176.016 154.282C176.016 154.44 176.016 154.599 176.016 154.748C176.542 153.471 177.144 152.226 177.819 151.022C178.904 149.109 180.128 147.278 181.48 145.544C181.482 145.342 181.511 145.141 181.568 144.948C181.615 144.71 181.671 144.482 181.722 144.23C181.834 143.765 181.955 143.257 182.086 142.777C182.351 141.808 182.705 140.872 183.017 139.913C183.017 139.885 183.073 139.913 183.064 139.913C182.78 140.844 182.598 141.841 182.379 142.805C182.272 143.271 182.165 143.76 182.062 144.24C182.006 144.476 181.955 144.713 181.909 144.952C181.906 144.971 181.906 144.99 181.909 145.008C182.337 144.463 182.78 143.923 183.231 143.397C185.272 141.002 187.512 138.79 189.752 136.601C190.027 136.331 190.311 136.065 190.591 135.8C190.596 135.797 190.602 135.796 190.608 135.797C190.613 135.798 190.619 135.801 190.623 135.805C190.627 135.809 190.629 135.814 190.63 135.82C190.631 135.826 190.631 135.832 190.628 135.837C188.471 138.082 186.352 140.355 184.345 142.735C183.869 143.297 183.404 143.869 182.947 144.449L183.674 143.984C184.298 143.574 184.927 143.178 185.579 142.814C186.231 142.451 186.878 142.097 187.545 141.766C188.211 141.436 188.965 141.147 189.627 140.765C189.655 140.765 189.678 140.798 189.65 140.807C188.975 141.121 188.323 141.482 187.698 141.887C187.046 142.274 186.399 142.665 185.761 143.071C185.122 143.476 184.498 143.862 183.874 144.268C183.357 144.603 182.845 144.971 182.304 145.283C181.063 146.876 179.918 148.542 178.876 150.272C178.23 151.36 177.639 152.481 177.106 153.63L177.493 153.462L178.471 153.029L180.362 152.2C181.559 151.678 182.78 151.203 183.953 150.63C184.616 150.318 185.257 149.962 185.872 149.564C185.9 149.564 185.924 149.587 185.9 149.606C183.706 151.119 181.242 152.181 178.82 153.257L177.768 153.723C177.479 153.849 177.19 153.993 176.892 154.105C176.176 155.713 175.572 157.369 175.085 159.061C174.128 162.465 173.35 165.916 172.756 169.402C172.141 172.895 171.726 176.412 171.405 179.942C171.363 180.385 171.326 180.823 171.275 181.261C171.275 181.298 171.26 181.333 171.234 181.359C171.207 181.386 171.172 181.4 171.135 181.4C171.098 181.4 171.062 181.386 171.036 181.359C171.01 181.333 170.995 181.298 170.995 181.261C170.995 179.481 171.177 177.688 171.363 175.904Z" fill="#1F2937"/>
<path d="M177.871 146.378C178.066 145.288 178.336 144.226 178.648 143.164C178.648 143.158 178.651 143.152 178.655 143.147C178.66 143.143 178.666 143.141 178.672 143.141C178.678 143.141 178.684 143.143 178.688 143.147C178.693 143.152 178.695 143.158 178.695 143.164C178.425 144.207 178.229 145.274 178.034 146.331C177.838 147.389 177.656 148.502 177.507 149.592H177.475C177.546 148.514 177.679 147.441 177.871 146.378Z" fill="#1F2937"/>
<path d="M182.477 149.327C183.222 148.837 184 148.4 184.806 148.018C185.197 147.817 185.593 147.626 185.984 147.431C186.375 147.235 186.818 147.072 187.218 146.867C187.246 146.867 187.274 146.9 187.242 146.914C186.855 147.109 186.482 147.347 186.096 147.557L184.913 148.204C184.142 148.652 183.349 149.061 182.537 149.429C182.524 149.434 182.509 149.434 182.496 149.429C182.483 149.424 182.472 149.415 182.464 149.403C182.457 149.391 182.455 149.376 182.457 149.363C182.459 149.349 182.466 149.336 182.477 149.327Z" fill="#1F2937"/>
<path opacity="0.1" d="M169.621 157.149C169.621 157.149 162.881 155.551 159.756 150.996C156.789 146.664 155.829 139.276 155.755 138.629C155.895 139.248 157.292 145.676 161.875 148.685C165.401 150.991 168.806 152.882 169.621 157.149Z" fill="#1F2937"/>
<path d="M163.38 145.461C164.583 146.566 165.447 147.991 165.872 149.569C165.376 148.029 164.516 146.631 163.366 145.493C163.347 145.475 163.347 145.437 163.38 145.461Z" fill="#1F2937"/>
<path d="M169.621 157.148C169.621 157.148 162.881 155.551 159.756 150.995C156.789 146.663 155.829 139.276 155.755 138.629C155.756 138.613 155.756 138.598 155.755 138.582C155.755 138.582 159.015 143.193 162.411 144.367C165.807 145.541 170.6 149.612 169.621 157.148Z" fill="#0CAF6F"/>
<path d="M156.947 141.111C157.552 142.354 158.251 143.548 159.038 144.684C159.83 145.766 160.771 146.73 161.833 147.549C162.764 148.28 163.696 148.946 164.628 149.654V149.621C164.451 149.36 164.264 149.109 164.073 148.862C163.687 148.368 163.263 147.903 162.834 147.441C161.996 146.51 161.139 145.634 160.384 144.647C159.966 144.101 159.603 143.516 159.299 142.9C159.299 142.872 159.332 142.858 159.346 142.9C160.445 145.182 162.634 146.626 164.199 148.578C164.418 148.853 164.632 149.137 164.823 149.43C164.979 149.644 165.109 149.875 165.21 150.12C166.075 150.802 166.857 151.583 167.539 152.449C167.48 152.006 167.388 151.568 167.264 151.14C167.107 150.538 166.868 149.961 166.551 149.426C166.551 149.398 166.575 149.37 166.589 149.398C166.916 149.933 167.182 150.503 167.38 151.098C167.522 151.573 167.605 152.065 167.627 152.56C167.968 153.013 168.28 153.488 168.559 153.981L168.475 153.548C168.34 152.872 168.191 152.202 168.009 151.536C167.691 150.181 167.141 148.892 166.384 147.726C166.384 147.726 166.407 147.674 166.426 147.698C167.2 148.848 167.807 150.103 168.228 151.424C168.442 152.085 168.615 152.761 168.768 153.441C168.843 153.771 168.908 154.107 168.973 154.442C169.006 154.615 169.043 154.792 169.071 154.969C169.743 156.442 170.265 157.979 170.632 159.557C171.284 162.38 171.752 165.243 172.034 168.127C172.384 171.14 172.54 174.172 172.499 177.205C172.499 177.587 172.471 177.969 172.453 178.346C172.453 178.444 172.299 178.458 172.294 178.346C172.229 176.847 172.192 175.347 172.103 173.847C172.015 172.347 171.88 170.847 171.722 169.352C171.419 166.414 170.952 163.495 170.324 160.609C169.779 158.136 169.067 155.649 167.716 153.483C167.044 152.404 166.223 151.427 165.275 150.581C164.343 149.733 163.291 148.983 162.294 148.196C161.28 147.43 160.361 146.546 159.555 145.564C158.727 144.473 158.007 143.305 157.403 142.076C157.245 141.768 157.082 141.465 156.937 141.144C156.891 141.111 156.933 141.111 156.947 141.111Z" fill="#1F2937"/>
<path d="M194.439 154.154C194.439 154.154 194.546 163.763 188.798 166.535C183.051 169.306 179.972 167.001 176.068 167.932C176.222 167.704 179.007 163.698 183.442 162.594C188.002 161.453 193.056 158.16 194.439 154.154Z" fill="#0CAF6F"/>
<path opacity="0.1" d="M194.439 154.154C194.439 154.154 194.546 163.763 188.798 166.535C183.051 169.306 179.972 167.001 176.068 167.932C178.128 166.952 180.328 166.301 182.589 166.004C186.232 165.566 193.158 163.205 194.439 154.154Z" fill="#1F2937"/>
<path d="M175.69 168.127C176.373 167.504 177.141 166.983 177.973 166.58C178.098 166.52 178.224 166.473 178.35 166.417C178.476 166.362 178.476 166.268 178.541 166.198C178.712 166.018 178.892 165.847 179.081 165.686C179.441 165.373 179.83 165.094 180.241 164.852C181.173 164.293 182.235 163.897 183.208 163.38C183.236 163.38 183.259 163.408 183.231 163.422C182.766 163.674 182.3 163.949 181.834 164.224C181.368 164.498 180.902 164.741 180.469 165.025C180.073 165.285 179.693 165.569 179.333 165.877C179.235 165.966 179.137 166.063 179.039 166.161C179.675 165.947 180.324 165.774 180.982 165.644C182.034 165.435 183.096 165.281 184.144 165.057C184.661 164.949 185.171 164.812 185.672 164.647C186.138 164.265 186.604 163.884 187.07 163.464C187.616 162.965 188.114 162.414 188.555 161.82C188.555 161.792 188.616 161.82 188.597 161.82C187.903 162.765 187.113 163.636 186.24 164.419C186.492 164.326 186.734 164.228 186.976 164.116C188.95 163.231 190.643 161.821 191.872 160.041C191.872 160.017 191.932 160.041 191.914 160.069C190.872 161.596 189.524 162.891 187.955 163.87C187.169 164.36 186.33 164.759 185.453 165.057C184.433 165.37 183.394 165.616 182.342 165.793C181.311 165.962 180.293 166.203 179.296 166.515C178.379 166.827 177.518 167.281 176.743 167.861C175.279 168.996 174.1 170.457 173.301 172.128C172.272 174.345 171.631 176.723 171.405 179.157C171.405 179.259 171.233 179.259 171.237 179.157C171.494 175.114 172.574 170.922 175.69 168.127Z" fill="#1F2937"/>
<path d="M182.356 164.969C182.658 164.522 183.064 164.155 183.539 163.898C184.08 163.613 184.556 163.218 184.936 162.738C184.936 162.71 184.997 162.738 184.978 162.762C184.633 163.203 184.212 163.58 183.734 163.875C183.213 164.152 182.753 164.532 182.384 164.993C182.379 165.016 182.342 164.993 182.356 164.969Z" fill="#1F2937"/>
<path d="M179.309 175.197L179.049 180.479L178.247 196.624H166.193L165.392 180.479L165.131 175.197H179.309Z" fill="#1F2937"/>
<path d="M179.309 175.197L179.049 180.479H165.392L165.131 175.197H179.309Z" fill="#1F2937"/>
<path d="M180.153 172.99H164.283V178.03H180.153V172.99Z" fill="#1F2937"/>
<path d="M39.6671 71.7548C43.3934 74.4657 52.8442 80.5768 56.9012 80.6048C61.5963 80.6048 74.7735 74.121 77.1676 70.2363C78.3088 68.3732 68.1267 64.6469 65.7605 65.4946C62.3742 66.6824 58.1635 69.5097 55.979 69.7193C54.8471 69.8311 46.4722 66.9851 40.7151 66.3424C35.7591 65.7788 35.3213 68.5968 39.6671 71.7548Z" fill="#F7B3B4"/>
<path d="M66.408 78.3924L61.0655 67.2135C61.0655 67.2135 57.0038 68.9136 56.2632 68.9136C54.1439 68.9136 44.9678 67.1902 41.2229 66.2493C37.478 65.3084 34.1848 67.5069 38.7589 71.5499C43.3329 75.593 55.7927 81.2104 57.4137 81.3548C59.0346 81.4992 66.408 78.3924 66.408 78.3924Z" fill="#0CAF6F"/>
<path d="M57.348 79.2211C57.0353 79.3336 56.7404 79.4904 56.4724 79.6869C56.8029 79.6568 57.1275 79.5799 57.4365 79.4586C57.7492 79.3462 58.0442 79.1893 58.3122 78.9929C57.9816 79.0225 57.6569 79.0994 57.348 79.2211ZM47.8692 73.6782C47.5565 73.7907 47.2616 73.9476 46.9936 74.144C47.6659 74.082 48.3094 73.8407 48.8567 73.4453C48.518 73.4748 48.1854 73.5532 47.8692 73.6782ZM56.9148 72.9795C56.6021 73.092 56.3072 73.2489 56.0392 73.4453C56.37 73.4141 56.6947 73.3357 57.0033 73.2124C57.317 73.1021 57.6122 72.945 57.879 72.7466C57.5482 72.7783 57.2236 72.8567 56.9148 72.9795ZM53.2817 76.24C53.1673 75.9282 53.0105 75.6336 52.8159 75.3644C52.8779 76.0368 53.1192 76.6802 53.5146 77.2275C53.4834 76.8952 53.405 76.5689 53.2817 76.2587V76.24ZM61.4144 70.4363C61.3021 70.1235 61.1452 69.8286 60.9486 69.5607C60.9787 69.8912 61.0555 70.2158 61.1768 70.5248C61.2874 70.8384 61.4444 71.1336 61.6426 71.4005C61.6112 71.0762 61.5343 70.7579 61.4144 70.455V70.4363ZM45.2562 69.2858C45.1437 68.9731 44.9868 68.6782 44.7904 68.4102C44.8261 68.7432 44.9092 69.0695 45.0373 69.379C45.1495 69.6918 45.3064 69.9868 45.503 70.2547C45.4684 69.9275 45.3852 69.6072 45.2562 69.3045V69.2858ZM61.3398 76.2447C61.0443 76.1064 60.7306 76.0108 60.4083 75.9606C60.6633 76.1733 60.9471 76.3489 61.2513 76.4823C61.5469 76.6205 61.8605 76.7162 62.1829 76.7664C61.9279 76.5537 61.644 76.378 61.3398 76.2447ZM42.0609 73.6829C41.7932 73.5595 41.5117 73.4688 41.2225 73.4127C41.4833 73.5897 41.7535 73.7667 42.0283 73.9437C42.3058 74.0723 42.6009 74.1586 42.9039 74.1999C42.6507 73.9906 42.3702 73.8167 42.0702 73.6829H42.0609ZM52.2803 70.4224C52.142 70.7179 52.0463 71.0315 51.9961 71.3539C52.2089 71.0989 52.3845 70.815 52.5178 70.5109C52.6541 70.2146 52.7496 69.9012 52.8019 69.5793C52.5906 69.8421 52.4181 70.1338 52.2896 70.4456L52.2803 70.4224ZM38.7724 69.5234C38.6341 69.8189 38.5385 70.1326 38.4883 70.455C38.701 70.1999 38.8766 69.9161 39.01 69.6119C39.1462 69.3156 39.2418 69.0022 39.2941 68.6803C39.0903 68.9449 38.9242 69.2365 38.8004 69.5467L38.7724 69.5234Z" fill="white"/>
<path d="M63.6967 79.0588C62.9981 77.2935 62.1922 75.5794 61.4051 73.8513C60.6179 72.1232 59.8307 70.4045 58.955 68.7277C58.9498 68.7217 58.9429 68.7175 58.9352 68.7158C58.9275 68.714 58.9195 68.7148 58.9122 68.7179C58.905 68.721 58.8989 68.7263 58.8949 68.7331C58.8908 68.7399 58.8891 68.7477 58.8898 68.7556C59.5419 70.5396 60.2872 72.2769 61.0837 74.005C61.8802 75.7331 62.6534 77.4612 63.571 79.1287C63.5802 79.1454 63.5958 79.1577 63.6141 79.1629C63.6324 79.1682 63.6521 79.1659 63.6688 79.1566C63.6855 79.1474 63.6978 79.1319 63.703 79.1135C63.7083 79.0952 63.706 79.0755 63.6967 79.0588Z" fill="#1F2937"/>
<path d="M58.8337 81.1415C58.3804 81.2786 57.9099 81.3507 57.4363 81.3557C55.8107 81.2113 43.3509 75.5986 38.7769 71.5509C34.6872 67.9317 36.9137 65.7938 40.0904 66.0593L58.8337 81.1415Z" fill="#1F2937"/>
<path d="M96.2666 62.2044L37.124 71.0645L42.9911 110.229L102.134 101.369L96.2666 62.2044Z" fill="#0CAF6F"/>
<path opacity="0.2" d="M96.2666 62.2044L37.124 71.0645L42.9911 110.229L102.134 101.369L96.2666 62.2044Z" fill="#1F2937"/>
<path d="M76.3428 85.2152C76.5426 86.5436 76.344 87.9014 75.772 89.1168C75.2001 90.3323 74.2806 91.3509 73.1297 92.0437C71.9789 92.7365 70.6484 93.0724 69.3066 93.009C67.9648 92.9456 66.6719 92.4857 65.5915 91.6875C64.5111 90.8892 63.6917 89.7885 63.237 88.5245C62.7822 87.2606 62.7125 85.8901 63.0367 84.5865C63.3608 83.2829 64.0643 82.1047 65.0582 81.201C66.052 80.2972 67.2916 79.7085 68.62 79.5093C69.5018 79.3765 70.4011 79.4187 71.2666 79.6336C72.132 79.8485 72.9467 80.2319 73.6639 80.7618C74.3811 81.2917 74.9868 81.9578 75.4465 82.7219C75.9062 83.4861 76.2107 84.3333 76.3428 85.2152Z" fill="#0CAF6F"/>
<path d="M67.2225 89.4787L66.3701 83.8008L73.8926 85.5754L67.2225 89.4787Z" fill="white"/>
<path d="M101.671 98.308L42.5283 107.168L42.9865 110.227L102.129 101.367L101.671 98.308Z" fill="#EBEBEB"/>
<path d="M96.0615 100.247L46.2793 107.705L46.4152 108.613L96.1974 101.155L96.0615 100.247Z" fill="#C7C7C7"/>
<path d="M45.0861 107.361L43.1514 107.65L43.4412 109.585L45.3759 109.295L45.0861 107.361Z" fill="#C7C7C7"/>
<path d="M44.0114 107.877L43.6475 107.932L43.8338 109.175L44.1977 109.121L44.0114 107.877Z" fill="#A6A6A6"/>
<path d="M44.6881 107.766L44.3242 107.82L44.5105 109.064L44.8745 109.01L44.6881 107.766Z" fill="#A6A6A6"/>
<path d="M98.7052 99.3274L96.7705 99.6172L97.0603 101.552L98.9951 101.262L98.7052 99.3274Z" fill="#C7C7C7"/>
<path d="M97.5535 100.244L97.1758 100.301L97.2462 100.771L97.6239 100.714L97.5535 100.244Z" fill="#A6A6A6"/>
<path d="M98.0898 100.954L97.4703 100.74L97.4004 100.269L97.9267 99.8828L98.0898 100.954Z" fill="#A6A6A6"/>
<path d="M98.2344 100.02L98.3089 99.9219C98.4198 100.002 98.5015 100.117 98.5418 100.248C98.569 100.343 98.5744 100.443 98.5575 100.541C98.5405 100.639 98.5017 100.731 98.444 100.812L98.3415 100.737C98.3826 100.683 98.4121 100.622 98.4282 100.556C98.4442 100.49 98.4464 100.422 98.4347 100.355C98.4256 100.289 98.4032 100.225 98.3687 100.167C98.3343 100.109 98.2886 100.059 98.2344 100.02Z" fill="#A6A6A6"/>
<path d="M98.2441 100.661L98.1369 100.587C98.1792 100.531 98.1976 100.461 98.1882 100.391C98.1758 100.322 98.1374 100.261 98.0811 100.219L98.1556 100.121C98.1969 100.151 98.232 100.188 98.2589 100.231C98.2857 100.275 98.3037 100.323 98.312 100.373C98.3202 100.423 98.3184 100.474 98.3068 100.524C98.2951 100.573 98.2738 100.62 98.2441 100.661Z" fill="#A6A6A6"/>
<path d="M101.014 98.9797L99.0791 99.2695L99.3689 101.204L101.304 100.914L101.014 98.9797Z" fill="#C7C7C7"/>
<path d="M100.228 99.4138L99.4307 99.5332L99.55 100.33L100.347 100.211L100.228 99.4138Z" fill="#A6A6A6"/>
<path d="M100.841 99.8923L100.044 100.012L100.163 100.809L100.96 100.689L100.841 99.8923Z" fill="white"/>
<path d="M55.6713 106.763C55.6933 106.921 55.7524 107.071 55.8436 107.201L46.4114 108.598L46.2764 107.667L55.7086 106.27C55.6583 106.429 55.6455 106.598 55.6713 106.763Z" fill="#A6A6A6"/>
<path d="M57.7441 106.451C57.7645 106.587 57.7579 106.726 57.7244 106.86C57.691 106.994 57.6314 107.12 57.5492 107.231C57.467 107.341 57.3637 107.435 57.2453 107.506C57.1268 107.576 56.9956 107.623 56.8591 107.643C56.6653 107.672 56.4671 107.647 56.2875 107.568C56.1078 107.49 55.9539 107.362 55.8437 107.2C55.7524 107.07 55.6934 106.92 55.6713 106.763C55.6498 106.606 55.6625 106.448 55.7086 106.297C55.7666 106.109 55.8767 105.94 56.0262 105.812C56.1758 105.684 56.3586 105.6 56.5535 105.572C56.7484 105.543 56.9475 105.57 57.1277 105.65C57.3079 105.729 57.4618 105.858 57.5717 106.022C57.6597 106.151 57.7185 106.297 57.7441 106.451Z" fill="#A6A6A6"/>
<path d="M23.3732 182.7C21.7336 181.931 19.563 181.647 17.9328 182.532C17.8676 182.565 17.9328 182.658 17.9794 182.653C19.7598 182.551 21.546 182.639 23.308 182.914C23.322 182.918 23.3368 182.92 23.3514 182.918C23.3661 182.917 23.3803 182.913 23.3933 182.906C23.4062 182.899 23.4177 182.889 23.4271 182.878C23.4364 182.867 23.4434 182.853 23.4477 182.839C23.452 182.825 23.4535 182.811 23.452 182.796C23.4506 182.781 23.4463 182.767 23.4394 182.754C23.4325 182.741 23.423 182.73 23.4117 182.72C23.4003 182.711 23.3872 182.704 23.3732 182.7Z" fill="#1F2937"/>
<path d="M24.417 183.772C22.7821 183.003 20.6115 182.719 18.9766 183.604C18.9161 183.637 18.9766 183.725 19.0232 183.725C20.8052 183.621 22.5932 183.709 24.3565 183.986C24.3839 183.991 24.4122 183.986 24.4359 183.971C24.4596 183.957 24.477 183.934 24.4846 183.907C24.4921 183.88 24.4894 183.851 24.4769 183.826C24.4644 183.801 24.4431 183.782 24.417 183.772Z" fill="#1F2937"/>
<path d="M25.4737 184.842C23.8387 184.074 21.6682 183.79 20.0333 184.675C19.9727 184.707 20.0333 184.796 20.0798 184.796C21.8618 184.689 23.6501 184.777 25.4131 185.057C25.4405 185.062 25.4689 185.056 25.4926 185.042C25.5163 185.027 25.5336 185.004 25.5412 184.977C25.5488 184.95 25.5461 184.921 25.5336 184.897C25.5211 184.872 25.4997 184.852 25.4737 184.842Z" fill="#1F2937"/>
<path d="M26.5128 185.91C24.8779 185.146 22.7027 184.862 21.0724 185.747C21.0072 185.78 21.0724 185.868 21.119 185.864C22.8996 185.761 24.686 185.85 26.4476 186.129C26.4744 186.132 26.5013 186.125 26.5236 186.11C26.546 186.095 26.5624 186.072 26.5701 186.046C26.5778 186.021 26.5763 185.993 26.5658 185.968C26.5554 185.943 26.5367 185.923 26.5128 185.91Z" fill="#1F2937"/>
<path d="M6.52997 176.147C6.27379 177.181 6.03158 178.201 5.80334 179.189C5.65895 179.808 5.52387 180.409 5.39345 180.991C4.55503 184.717 3.99608 187.629 4.28487 187.913C5.10466 188.793 30.8953 195.584 31.8735 195.524C32.8516 195.463 32.7399 192.655 31.948 191.597C31.4822 190.95 28.0587 188.104 25.4596 185.975C23.7874 184.61 22.4506 183.534 22.4506 183.534L23.3216 180.525L27.1457 166.794L10.1026 162.346C10.1026 162.346 8.15557 169.421 6.52997 176.147Z" fill="#F7B3B4"/>
<path d="M32.0693 195.609C31.4266 195.651 20.3641 192.856 12.3619 190.62C10.4987 190.103 8.82187 189.614 7.46643 189.223C5.60328 188.65 4.35031 188.221 4.17797 188.035C3.79602 187.625 5.00241 182.022 6.40443 176.139L23.3731 180.498L22.5021 183.498C22.5021 183.498 31.3241 190.555 32.1299 191.626C32.9357 192.697 33.0568 195.534 32.0693 195.609Z" fill="#0CAF6F"/>
<path d="M31.9678 194.467C27.622 193.224 9.99188 188.622 5.60882 187.723C5.57156 187.723 5.5669 187.723 5.60882 187.746C9.88475 189.073 27.5521 193.536 31.9584 194.537C32.0423 194.556 32.0563 194.491 31.9678 194.467Z" fill="#1F2937"/>
<path d="M25.7951 179.771C25.9861 179.678 32.6329 154.255 34.9572 145.335C38.3108 132.47 41.5574 111.496 42.5355 107.141C44.5447 102.108 45.9094 96.8417 46.5972 91.4668H25.4597C25.4597 91.4668 19.9169 102.068 22.7768 109.563C23.0376 110.247 19.0831 136.737 17.0383 141.027C15.273 144.753 5.73828 174.368 5.73828 174.368L25.7951 179.771Z" fill="#1F2937"/>
<path d="M25.6046 175.163C25.0969 174.954 24.5473 174.837 24.021 174.697C23.4946 174.558 22.9077 174.367 22.3488 174.232C21.2262 173.929 20.099 173.64 18.9765 173.351C16.7314 172.769 14.4723 172.215 12.2179 171.665C11.6031 171.511 10.9836 171.367 10.3547 171.223C9.74595 171.046 9.12234 170.924 8.49159 170.859C8.48294 170.859 8.47465 170.863 8.46853 170.869C8.46242 170.875 8.45898 170.883 8.45898 170.892C8.45898 170.901 8.46242 170.909 8.46853 170.915C8.47465 170.921 8.48294 170.925 8.49159 170.925C8.99842 171.138 9.52185 171.309 10.0566 171.437L11.7335 171.903C12.8374 172.196 13.9413 172.499 15.0499 172.788C17.2764 173.365 19.5028 173.957 21.7433 174.502C22.3767 174.656 23.0102 174.814 23.653 174.968C24.2958 175.121 24.9246 175.294 25.5674 175.368C25.6326 175.322 25.6978 175.201 25.6046 175.163Z" fill="#1F2937"/>
<path d="M37.0023 105.841C36.5924 108.044 36.2571 110.257 35.8937 112.465C35.7074 113.592 35.4606 114.705 35.2742 115.832C35.0879 116.959 34.9109 118.04 34.7339 119.149C34.0197 123.592 33.3102 128.039 32.6053 132.489C32.2513 134.697 31.8957 136.904 31.5386 139.112C31.2107 141.287 30.766 143.442 30.2065 145.568C29.6242 147.692 28.9395 149.788 28.2921 151.894C27.6446 153.999 26.9646 156.207 26.3032 158.368C24.985 162.658 23.6202 166.943 22.4371 171.275C22.2927 171.811 22.1437 172.351 21.9713 172.887C21.9694 172.899 21.972 172.912 21.9787 172.922C21.9855 172.933 21.9958 172.94 22.0079 172.944C22.0199 172.947 22.0328 172.946 22.0441 172.941C22.0554 172.935 22.0643 172.926 22.0692 172.915C23.5271 168.662 24.8639 164.372 26.2333 160.087C27.6027 155.801 28.9488 151.558 30.2204 147.268C30.8472 145.181 31.3449 143.058 31.711 140.91C32.0883 138.698 32.419 136.481 32.773 134.268C33.4965 129.824 34.2138 125.378 34.9249 120.928C35.2742 118.743 35.6608 116.554 35.931 114.36C36.2105 112.083 36.6017 109.824 36.9418 107.555C37.0256 107.001 37.1048 106.447 37.1793 105.888C37.1979 105.771 37.0256 105.711 37.0023 105.841Z" fill="#1F2937"/>
<path d="M55.0936 184.219C53.3189 183.888 51.1437 184.159 49.7883 185.425C49.737 185.477 49.7883 185.551 49.8628 185.533C51.5603 184.979 53.3124 184.609 55.0889 184.429C55.1105 184.421 55.1293 184.407 55.1427 184.389C55.1562 184.37 55.1637 184.348 55.1642 184.325C55.1647 184.303 55.1582 184.28 55.1456 184.261C55.133 184.242 55.1148 184.227 55.0936 184.219Z" fill="#1F2937"/>
<path d="M56.3794 184.992C54.6001 184.662 52.4295 184.932 51.0694 186.199C51.0182 186.25 51.0694 186.32 51.1486 186.306C52.845 185.757 54.5956 185.391 56.3701 185.216C56.3848 185.217 56.3994 185.214 56.4132 185.209C56.427 185.204 56.4397 185.197 56.4505 185.187C56.4613 185.177 56.47 185.165 56.4762 185.151C56.4824 185.138 56.4859 185.124 56.4865 185.109C56.4871 185.094 56.4848 185.08 56.4798 185.066C56.4747 185.052 56.467 185.039 56.4571 185.029C56.4471 185.018 56.4351 185.009 56.4218 185.003C56.4085 184.997 56.3941 184.993 56.3794 184.992Z" fill="#1F2937"/>
<path d="M57.6601 185.761C55.8854 185.431 53.7102 185.705 52.3547 186.972C52.2988 187.019 52.3547 187.093 52.4293 187.075C54.1275 186.527 55.8795 186.163 57.6554 185.99C57.6819 185.985 57.7058 185.971 57.7233 185.95C57.7407 185.93 57.7506 185.904 57.7511 185.877C57.7516 185.85 57.7429 185.824 57.7263 185.803C57.7097 185.782 57.6863 185.767 57.6601 185.761Z" fill="#1F2937"/>
<path d="M58.9412 186.535C57.1666 186.204 54.9914 186.479 53.6359 187.746C53.5847 187.792 53.6359 187.867 53.7104 187.848C55.4092 187.302 57.161 186.936 58.9366 186.758C58.9513 186.759 58.9658 186.756 58.9795 186.751C58.9932 186.745 59.0057 186.737 59.0163 186.727C59.0269 186.717 59.0354 186.705 59.0413 186.691C59.0472 186.678 59.0504 186.664 59.0507 186.649C59.051 186.634 59.0484 186.62 59.0431 186.606C59.0377 186.592 59.0298 186.58 59.0196 186.569C59.0094 186.559 58.9973 186.55 58.9838 186.544C58.9704 186.538 58.9559 186.535 58.9412 186.535Z" fill="#1F2937"/>
<path d="M37.1426 182.099C37.1426 183.165 37.1798 184.213 37.2078 185.229C37.2078 185.862 37.245 186.477 37.2683 187.092C37.3987 190.925 37.6037 193.864 37.9344 194.079C38.9498 194.722 65.6208 194.801 66.5524 194.493C67.484 194.186 66.6688 191.503 65.6208 190.674C64.992 190.175 60.9629 188.275 57.926 186.868L54.4046 185.261L54.4885 182.131L54.7307 167.883H37.1193C37.1193 167.883 37.0261 175.2 37.1426 182.099Z" fill="#F7B3B4"/>
<path d="M66.7617 194.518C66.1515 194.718 54.7443 194.797 46.4347 194.653C44.511 194.615 42.755 194.569 41.311 194.513C39.3594 194.429 38.0505 194.327 37.8316 194.192C37.3658 193.889 37.1189 188.16 36.9932 182.118L54.5161 182.062L54.4323 185.221C54.4323 185.221 64.7495 189.832 65.7975 190.666C66.8455 191.499 67.6979 194.21 66.7617 194.518Z" fill="#0CAF6F"/>
<path d="M66.3752 193.441C61.8571 193.33 43.6401 193.316 39.1686 193.549C39.1313 193.549 39.1313 193.576 39.1686 193.576C43.6401 193.781 61.8618 193.651 66.3752 193.511C66.4637 193.511 66.4637 193.441 66.3752 193.441Z" fill="#1F2937"/>
<path d="M33.9975 110.34C33.9975 110.34 37.0111 139.889 37.0577 140.588C37.0577 140.858 35.7628 180.124 35.7628 180.124H55.6846C55.6846 180.124 54.9719 143.131 54.6738 138.958C54.6365 138.492 53.351 108.435 47.5519 91.4473H25.4316C25.4316 91.4473 25.6226 101.438 30.164 108.681C31.4718 109.162 32.7517 109.716 33.9975 110.34Z" fill="#1F2937"/>
<path d="M54.4278 176.394C53.8828 176.315 53.3192 176.334 52.7696 176.306C52.2199 176.278 51.6098 176.25 51.0275 176.241C49.8677 176.213 48.6986 176.203 47.5481 176.189C45.2192 176.166 42.8902 176.166 40.5613 176.189H38.6609C38.0211 176.164 37.3803 176.196 36.7465 176.287C36.7378 176.287 36.7295 176.291 36.7234 176.297C36.7173 176.303 36.7139 176.311 36.7139 176.32C36.7139 176.328 36.7173 176.337 36.7234 176.343C36.7295 176.349 36.7378 176.352 36.7465 176.352C37.2899 176.441 37.8401 176.482 38.3907 176.473C38.9729 176.497 39.5505 176.511 40.1328 176.525C41.2739 176.548 42.4198 176.576 43.561 176.59C45.8666 176.618 48.1676 176.655 50.4732 176.65C51.1253 176.65 51.7774 176.65 52.4295 176.623C53.0817 176.595 53.7431 176.623 54.3905 176.553C54.4883 176.543 54.5256 176.408 54.4278 176.394Z" fill="#1F2937"/>
<path d="M48.8475 95.548C48.8475 95.5108 48.7776 95.5201 48.7823 95.548C48.8661 96.8103 49.0757 98.1844 48.5168 99.3675C48.023 100.42 47.0822 101.007 46.2204 101.696C46.1925 101.72 46.2204 101.762 46.2531 101.752C47.4036 101.403 48.5494 100.765 49.0012 99.5911C49.5089 98.2962 49.2294 96.8615 48.8475 95.548Z" fill="#1F2937"/>
<path d="M39.2518 109.692C38.3301 109.663 37.4074 109.694 36.4897 109.785C35.5891 109.833 34.6862 109.816 33.7881 109.734C33.3368 109.689 32.8888 109.616 32.4466 109.515C31.9809 109.408 31.5523 109.236 31.1005 109.11C30.6887 109.02 30.2609 109.036 29.8569 109.156C29.3786 109.264 28.8951 109.346 28.4083 109.403C27.2996 109.568 26.1751 109.597 25.0592 109.492C25.0173 109.492 24.9987 109.548 25.0592 109.557C25.9963 109.756 26.9518 109.856 27.9099 109.855C28.3998 109.844 28.8884 109.801 29.3724 109.725C29.8262 109.593 30.2975 109.532 30.7698 109.543C31.2239 109.673 31.6702 109.828 32.1066 110.009C32.5532 110.132 33.0076 110.226 33.4667 110.288C34.3932 110.409 35.3294 110.437 36.2614 110.372C37.3049 110.348 38.3411 110.192 39.345 109.906C39.3734 109.894 39.3957 109.871 39.4071 109.842C39.4184 109.813 39.4179 109.781 39.4055 109.753C39.3932 109.724 39.37 109.702 39.3412 109.69C39.3124 109.679 39.2802 109.68 39.2518 109.692Z" fill="#1F2937"/>
<path d="M37.119 138.957C37.1099 138.954 37.1001 138.954 37.091 138.957C37.089 138.962 37.0879 138.967 37.0879 138.971C37.0879 138.976 37.089 138.981 37.091 138.985V139.055C37.0953 139.058 37.1001 139.059 37.105 139.059C37.1099 139.059 37.1147 139.058 37.119 139.055V138.985C37.1222 138.976 37.1222 138.967 37.119 138.957Z" fill="#1F2937"/>
<path d="M36.5836 133.872C36.4066 131.959 36.2188 130.045 36.02 128.129C35.6148 124.3 35.2375 120.467 34.8416 116.638C34.618 114.467 34.455 112.273 34.101 110.117C34.101 110.105 34.0961 110.093 34.0873 110.084C34.0786 110.075 34.0667 110.07 34.0544 110.07C34.042 110.07 34.0302 110.075 34.0215 110.084C34.0127 110.093 34.0078 110.105 34.0078 110.117C34.0404 112.036 34.2454 113.955 34.4084 115.869C34.5714 117.784 34.7391 119.698 34.9208 121.617C35.2794 125.446 35.6194 129.279 36.0713 133.104C36.1986 134.187 36.3336 135.274 36.4765 136.364C36.6162 137.449 36.8072 138.535 36.9423 139.625C36.9423 139.666 37.0168 139.666 37.0121 139.625C36.8491 137.706 36.756 135.786 36.5836 133.872Z" fill="#1F2937"/>
<path d="M36.1871 66.0851C36.3175 66.5043 38.5486 69.1267 40.491 68.8798C41.1198 68.8007 40.8589 65.3352 40.8589 65.3352L40.9009 65.0744L41.4458 61.4272L37.0395 59.0238L36.406 58.707C36.406 58.707 36.3222 59.7131 36.229 60.9708V61.1478C36.229 61.2223 36.229 61.2875 36.229 61.3527C36.229 61.539 36.1964 61.7347 36.1871 61.921C36.1778 62.1073 36.1871 62.2098 36.1871 62.3635C36.1871 62.5172 36.1871 62.6662 36.1871 62.8293C36.1121 63.9132 36.1121 65.0011 36.1871 66.0851Z" fill="#F7B3B4"/>
<path d="M36.1875 60.9942C36.6202 61.9748 37.2609 62.8497 38.0651 63.5583C38.8694 64.2668 39.818 64.7921 40.8454 65.0978L41.3903 61.4507L36.984 59.0472L36.3505 58.7305C36.3505 58.7305 36.2993 59.7319 36.1875 60.9942Z" fill="#1F2937"/>
<path d="M46.5188 55.3585C47.8836 61.6839 44.2784 63.2769 42.8857 63.5051C41.6374 63.7147 37.3987 64.5205 35.3865 58.3815C33.3743 52.2424 35.8849 49.5967 38.6843 48.8375C41.4837 48.0782 45.1541 49.0331 46.5188 55.3585Z" fill="#F7B3B4"/>
<path d="M45.9134 54.06C45.7597 54.06 45.6153 54.06 45.4476 54.032C45.2839 54.0443 45.1205 54.0035 44.9818 53.9156C44.9459 53.8795 44.9228 53.8326 44.9161 53.7821C44.9094 53.7317 44.9194 53.6804 44.9446 53.6361C45.0072 53.5566 45.0897 53.4949 45.1837 53.4573C45.2777 53.4197 45.38 53.4075 45.4802 53.4219C45.6885 53.4235 45.889 53.5014 46.0438 53.6408C46.0762 53.6726 46.0991 53.7127 46.1102 53.7567C46.1212 53.8007 46.12 53.8469 46.1065 53.8902C46.093 53.9335 46.0679 53.9722 46.0338 54.0022C45.9997 54.0322 45.9581 54.0522 45.9134 54.06Z" fill="#1F2937"/>
<path d="M41.8096 54.8792C41.9522 54.8362 42.0922 54.7849 42.2288 54.7254C42.3831 54.6914 42.5221 54.608 42.6247 54.4879C42.6499 54.4436 42.6599 54.3924 42.6532 54.3419C42.6465 54.2914 42.6234 54.2445 42.5875 54.2084C42.504 54.1502 42.4068 54.1148 42.3055 54.1058C42.2042 54.0968 42.1022 54.1145 42.0099 54.1572C41.8151 54.2193 41.6496 54.3501 41.5441 54.5252C41.5233 54.5662 41.5145 54.6123 41.5185 54.6581C41.5226 54.704 41.5393 54.7478 41.567 54.7846C41.5946 54.8214 41.6319 54.8498 41.6748 54.8665C41.7177 54.8832 41.7643 54.8876 41.8096 54.8792Z" fill="#1F2937"/>
<path d="M42.9785 56.3359C42.9785 56.3359 42.9459 56.3639 42.9505 56.3825C43.039 56.8157 43.0623 57.3141 42.6943 57.533C42.6943 57.533 42.6943 57.561 42.6943 57.5563C43.1741 57.3886 43.1275 56.7132 42.9785 56.3359Z" fill="#1F2937"/>
<path d="M42.5128 55.9316C41.8048 55.9968 41.9864 57.4035 42.6432 57.329C43.2999 57.2545 43.109 55.8711 42.5128 55.9316Z" fill="#1F2937"/>
<path d="M42.2432 56.038C42.1314 56.1358 42.0289 56.2942 41.8799 56.3268C41.7308 56.3594 41.5631 56.2336 41.4141 56.1079C41.4467 56.378 41.5817 56.6435 41.8799 56.6435C42.178 56.6435 42.3084 56.3827 42.3456 56.1032C42.3456 56.0706 42.2944 56.0007 42.2432 56.038Z" fill="#1F2937"/>
<path d="M45.2984 55.7773C45.2984 55.7773 45.331 55.7773 45.3357 55.8099C45.3729 56.2478 45.4894 56.7415 45.9039 56.844C45.4102 56.858 45.2611 56.1966 45.2984 55.7773Z" fill="#1F2937"/>
<path d="M45.6332 55.2734C46.3273 55.1337 46.5648 56.5404 45.908 56.6708C45.2513 56.8012 45.037 55.4038 45.6332 55.2734Z" fill="#1F2937"/>
<path d="M45.9405 55.3164C46.0616 55.377 46.192 55.4934 46.3271 55.4795C46.4622 55.4655 46.574 55.2978 46.6485 55.1348C46.6997 55.4049 46.6485 55.6984 46.4063 55.7915C46.1641 55.8847 45.9685 55.6704 45.8613 55.4142C45.8613 55.377 45.8893 55.2931 45.9405 55.3164Z" fill="#1F2937"/>
<path d="M45.0041 57.8647C45.0041 57.8647 45.1858 58.5029 45.2277 58.7963C45.2277 58.8243 45.1625 58.8476 45.0554 58.8708C44.7981 58.9559 44.5224 58.9682 44.2586 58.9066C43.9948 58.845 43.7531 58.7117 43.5602 58.5215C43.5322 58.4982 43.5602 58.461 43.5974 58.4749C44.0293 58.6912 44.5202 58.7599 44.9948 58.6706C44.9948 58.5821 44.6501 57.5853 44.6967 57.576C44.939 57.563 45.1819 57.5834 45.4187 57.6365C45.0787 56.295 44.529 55.0188 44.2123 53.6773C44.2123 53.6261 44.2682 53.6028 44.2868 53.6447C44.9211 54.9884 45.4173 56.3929 45.768 57.8368C45.8006 58.0417 45.1345 57.8974 45.0041 57.8647Z" fill="#1F2937"/>
<path d="M45.0002 58.6663C44.8796 58.9514 44.687 59.2002 44.4412 59.3883C44.3056 59.4864 44.1428 59.5401 43.9754 59.542C43.6075 59.542 43.5096 59.2253 43.5096 58.9365C43.5048 58.7799 43.5205 58.6233 43.5562 58.4707C44.0042 58.6887 44.5103 58.7572 45.0002 58.6663Z" fill="#1F2937"/>
<path d="M44.4404 59.3746C44.3047 59.4727 44.142 59.5264 43.9746 59.5283C43.6066 59.5283 43.5088 59.2115 43.5088 58.9227C43.6922 58.8837 43.8834 58.907 44.0521 58.9888C44.2208 59.0706 44.3574 59.2064 44.4404 59.3746Z" fill="#FF98B9"/>
<path d="M48.0648 85.5455L50.0118 95.9652C50.0118 95.9652 26.9366 96.2866 21.5195 95.9047C21.5195 95.9047 27.1835 73.8403 33.0105 67.5149C35.9263 64.3475 39.3452 64.5851 41.5251 66.7976C42.0794 67.3565 48.661 76.0574 49.355 79.3739C49.9605 82.3176 48.0648 85.5455 48.0648 85.5455Z" fill="#0CAF6F"/>
<path d="M37.4816 69.547C37.3433 69.8426 37.2476 70.1562 37.1974 70.4786C37.4102 70.2236 37.5858 69.9397 37.7191 69.6355C37.8554 69.3392 37.9509 69.0259 38.0032 68.704C37.7915 68.9597 37.616 69.2434 37.4816 69.547ZM34.1745 81.8578C34.0362 82.1534 33.9405 82.467 33.8903 82.7894C34.1032 82.5353 34.2774 82.2513 34.4074 81.9463C34.5451 81.6502 34.6422 81.3368 34.6961 81.0147C34.4818 81.2687 34.3061 81.5527 34.1745 81.8578ZM48.4183 87.4473C48.367 87.5404 48.3204 87.6289 48.2785 87.7221C48.1408 88.0182 48.0436 88.3316 47.9897 88.6537C48.1968 88.41 48.3663 88.1369 48.4928 87.8432L48.4183 87.4473ZM31.0351 94.9325C30.8962 95.2278 30.8005 95.5415 30.7509 95.8641C30.9629 95.6077 31.137 95.3222 31.2679 95.0163C31.4084 94.7212 31.5056 94.4075 31.5567 94.0847C31.3444 94.3367 31.1688 94.6174 31.0351 94.9185V94.9325ZM44.5196 78.8581C44.3807 79.1535 44.2851 79.4672 44.2355 79.7897C44.4475 79.5333 44.6216 79.2478 44.7525 78.942C44.8929 78.6469 44.9902 78.3332 45.0413 78.0104C44.829 78.2624 44.6534 78.5431 44.5196 78.8442V78.8581ZM37.8868 93.2044C37.7484 93.5003 37.6512 93.8137 37.598 94.136C37.8114 93.8797 37.9871 93.5943 38.1197 93.2883C38.2581 92.9924 38.3552 92.6789 38.4085 92.3567C38.1962 92.6086 38.0206 92.8893 37.8868 93.1904V93.2044ZM24.4954 86.9675C24.3571 87.263 24.2615 87.5767 24.2113 87.8991C24.4222 87.6512 24.5977 87.3753 24.7329 87.0793C24.8692 86.783 24.9648 86.4696 25.0171 86.1477C24.8071 86.3963 24.6316 86.672 24.4954 86.9675ZM28.3148 76.7202C28.1766 77.0157 28.0809 77.3294 28.0307 77.6518C28.4472 77.1303 28.7245 76.5117 28.8365 75.8538C28.622 76.1144 28.4463 76.4046 28.3148 76.7155V76.7202ZM40.7514 73.6879C40.4561 73.5481 40.1424 73.4509 39.8198 73.3991C40.3382 73.8205 40.9582 74.0984 41.6178 74.2049C41.3547 73.9914 41.0631 73.8158 40.7514 73.6832V73.6879ZM43.5461 84.5268C43.2508 84.3879 42.9371 84.2922 42.6145 84.2427C42.8719 84.4545 43.1572 84.63 43.4623 84.7643C43.7576 84.9032 44.0713 84.9989 44.3938 85.0485C44.1324 84.8339 43.8424 84.6568 43.5321 84.5221L43.5461 84.5268ZM43.4716 95.8734C43.5398 95.9333 43.6113 95.9892 43.6859 96.0411H44.1051C43.8971 95.9575 43.6796 95.8996 43.4576 95.8687L43.4716 95.8734ZM31.0211 86.5064C30.726 86.366 30.4123 86.2687 30.0895 86.2176C30.3458 86.431 30.6312 86.6067 30.9372 86.7393C31.2331 86.8777 31.5465 86.9748 31.8688 87.0281C31.6085 86.8119 31.3183 86.6346 31.0071 86.5017L31.0211 86.5064ZM48.7629 81.0939C48.6495 80.7816 48.4927 80.4869 48.2971 80.2182C48.3632 80.8825 48.6043 81.5174 48.9958 82.0581C48.9642 81.7273 48.8858 81.4027 48.7629 81.0939ZM48.5161 93.6003C48.4036 93.2876 48.2467 92.9927 48.0503 92.7246C48.0804 93.0552 48.1573 93.3798 48.2785 93.6888C48.391 94.0016 48.5479 94.2965 48.7443 94.5645C48.7147 94.2339 48.6378 93.9092 48.5161 93.6003ZM34.235 75.3414C34.1245 75.0279 33.9674 74.7327 33.7692 74.4658C33.8009 74.7965 33.8793 75.1212 34.0021 75.43C34.1144 75.7428 34.2712 76.0377 34.4679 76.3056C34.439 75.9744 34.3605 75.6494 34.235 75.3414ZM38.6553 86.5204C38.5429 86.2076 38.386 85.9127 38.1896 85.6447C38.2197 85.9752 38.2965 86.2999 38.4178 86.6089C38.5303 86.9216 38.6871 87.2165 38.8836 87.4845C38.8526 87.1586 38.7758 86.8387 38.6553 86.5343V86.5204ZM26.9268 91.1782C26.8133 90.866 26.6566 90.5712 26.461 90.3026C26.527 90.9669 26.7681 91.6017 27.1597 92.1424C27.1259 91.8195 27.0475 91.5029 26.9268 91.2015V91.1782ZM34.7893 66.0117L34.589 66.1421C34.68 66.3387 34.7924 66.5246 34.9244 66.6964C34.9059 66.4637 34.8606 66.234 34.7893 66.0117ZM31.24 70.9398C30.9273 71.0522 30.6324 71.2091 30.3643 71.4055C31.0281 71.3374 31.6625 71.0965 32.2042 70.7069C31.8797 70.7402 31.5615 70.8186 31.2586 70.9398H31.24ZM43.3738 90.419C43.0602 90.5296 42.765 90.6866 42.4981 90.8848C42.8289 90.8531 43.1535 90.7747 43.4623 90.6519C43.7758 90.5413 44.071 90.3843 44.338 90.1861C44.0135 90.2195 43.6953 90.2979 43.3924 90.419H43.3738ZM27.537 82.1466C27.2243 82.2591 26.9294 82.416 26.6613 82.6124C26.9919 82.5823 27.3165 82.5054 27.6255 82.3842C27.9382 82.2717 28.2331 82.1148 28.5012 81.9184C28.1753 81.9493 27.8554 82.0262 27.551 82.1466H27.537ZM33.7087 90.419C33.3951 90.5296 33.0999 90.6866 32.833 90.8848C33.1638 90.8531 33.4884 90.7747 33.7972 90.6519C34.1107 90.5413 34.4059 90.3843 34.6729 90.1861C34.3467 90.2186 34.0268 90.297 33.7226 90.419H33.7087ZM23.2284 94.4388C22.9176 94.5523 22.6244 94.7091 22.3574 94.9045C23.0293 94.8404 23.6722 94.5993 24.2206 94.2059C23.8851 94.2366 23.5557 94.315 23.2424 94.4388H23.2284ZM38.8649 78.9699C38.5522 79.0824 38.2573 79.2393 37.9893 79.4357C38.32 79.404 38.6447 79.3256 38.9534 79.2028C39.2663 79.0906 39.5612 78.9337 39.8291 78.737C39.5027 78.7678 39.1826 78.8463 38.8789 78.9699H38.8649ZM46.4619 73.7065C46.1752 73.8252 45.9058 73.9818 45.6608 74.1723C45.9799 74.1422 46.2933 74.0686 46.5924 73.9534L46.4619 73.7065Z" fill="white"/>
<path d="M36.9703 71.0192C37.11 75.6398 38.3071 88.789 40.7245 92.0262C44.6464 97.2617 49.1087 101.966 51.3258 103.54C53.1005 104.807 62.7889 97.6948 60.8792 96.0879C58.145 93.7589 50.7669 86.3063 49.4953 84.5503C48.8246 83.6187 44.53 74.4986 42.1824 69.2073C40.1609 64.6332 36.8119 65.6533 36.9703 71.0192Z" fill="#F7B3B4"/>
<path d="M68.5218 108.505C68.2907 108.799 67.9766 109.016 67.6202 109.129C67.2639 109.242 66.8818 109.245 66.5236 109.138C66.4836 109.773 66.2233 110.375 65.7876 110.838C64.9818 111.616 63.4075 110.694 63.4075 110.694C63.2285 111.344 62.8585 111.925 62.3455 112.362C61.4977 113.032 59.779 112.324 59.779 112.324C59.2838 112.832 58.6224 113.144 57.9158 113.205C56.0527 113.293 54.3851 110.918 53.3278 109.418C52.2705 107.918 50.6728 102.673 50.2676 101.704L59.043 94.5312C59.043 94.5312 64.6325 96.6506 67.4878 102.166C68.3262 103.772 69.3509 107.336 68.5218 108.505Z" fill="#F7B3B4"/>
<path d="M66.6308 108.97C66.165 107.018 65.1309 105.313 64.204 103.553C64.204 103.515 64.1248 103.553 64.1435 103.585C65.075 105.327 65.6712 107.232 66.5423 109.002C66.5656 109.044 66.6401 109.012 66.6308 108.97Z" fill="#1F2937"/>
<path d="M63.5106 110.572C63.3586 110.139 63.152 109.728 62.8957 109.347C62.6488 108.932 62.3927 108.518 62.1365 108.108C61.6148 107.293 61.0698 106.482 60.5062 105.695C60.4829 105.658 60.4224 105.695 60.4457 105.728C60.9674 106.545 61.4704 107.371 61.9548 108.206C62.197 108.625 62.4206 109.049 62.6721 109.468C62.8682 109.882 63.1104 110.273 63.3941 110.633C63.4047 110.642 63.418 110.648 63.4322 110.65C63.4464 110.652 63.4608 110.65 63.4735 110.643C63.4862 110.636 63.4966 110.626 63.5032 110.613C63.5098 110.601 63.5124 110.586 63.5106 110.572Z" fill="#1F2937"/>
<path d="M59.7555 112.293C59.6151 111.904 59.4087 111.541 59.1453 111.222C58.8984 110.854 58.6795 110.481 58.414 110.113C57.9482 109.373 57.4498 108.628 56.9934 107.873C56.9934 107.836 56.9095 107.873 56.9328 107.906C57.3986 108.674 57.8644 109.457 58.3302 110.235C58.5584 110.612 58.796 110.984 59.0242 111.362C59.2047 111.723 59.4475 112.049 59.7415 112.326C59.7447 112.325 59.7477 112.323 59.7502 112.321C59.7527 112.319 59.7547 112.316 59.756 112.313C59.7574 112.31 59.758 112.306 59.7579 112.303C59.7578 112.3 59.757 112.296 59.7555 112.293Z" fill="#1F2937"/>
<path d="M45.5266 98.952L54.8191 89.4313C54.8191 89.4313 50.1612 85.2113 49.0573 83.3761C47.9534 81.5409 43.8824 72.826 42.4804 69.2301C41.0783 65.6342 37.3846 64.2555 36.7325 70.3107C36.0804 76.366 38.7168 89.7946 39.5273 91.2013C40.3377 92.608 45.5266 98.952 45.5266 98.952Z" fill="#0CAF6F"/>
<path d="M37.4824 69.5462C37.3441 69.8417 37.2484 70.1554 37.1982 70.4778C37.411 70.2227 37.5866 69.9389 37.7199 69.6347C37.8562 69.3384 37.9518 69.025 38.0041 68.7031C37.7923 68.9589 37.6168 69.2426 37.4824 69.5462ZM48.2793 87.7119C48.1416 88.008 48.0444 88.3214 47.9905 88.6435C48.2039 88.3889 48.3796 88.105 48.5122 87.8004C48.65 87.5043 48.7471 87.191 48.801 86.8689C48.5937 87.1225 48.4242 87.4049 48.298 87.7073L48.2793 87.7119ZM44.5204 78.862C44.3816 79.1573 44.2859 79.471 44.2363 79.7935C44.4483 79.5371 44.6224 79.2516 44.7533 78.9458C44.8937 78.6507 44.991 78.337 45.0421 78.0142C44.8302 78.2648 44.6546 78.5439 44.5204 78.8433V78.862ZM40.7522 73.701C40.4569 73.5613 40.1432 73.464 39.8206 73.4122C40.339 73.8336 40.959 74.1115 41.6186 74.2181C41.3564 73.9997 41.0647 73.8193 40.7522 73.6824V73.701ZM43.5469 84.5399C43.2516 84.4011 42.9379 84.3054 42.6154 84.2558C42.8728 84.4676 43.158 84.6431 43.4631 84.7775C43.7584 84.9163 44.0721 85.012 44.3947 85.0616C44.1341 84.8421 43.844 84.6602 43.533 84.5213L43.5469 84.5399ZM52.8627 89.1326C52.5672 88.9943 52.2535 88.8987 51.9311 88.8484C52.185 89.0628 52.4691 89.2385 52.7742 89.3701C53.0697 89.5084 53.3834 89.6041 53.7058 89.6543C53.4468 89.4349 53.1583 89.253 52.8487 89.1139L52.8627 89.1326ZM44.4226 96.1706C44.1273 96.0318 43.8136 95.9361 43.491 95.8865C44.0124 96.303 44.6311 96.5803 45.289 96.6923C45.0239 96.4696 44.7272 96.2875 44.4086 96.152L44.4226 96.1706ZM48.5309 93.6135C48.4184 93.3007 48.2615 93.0058 48.0651 92.7378C48.0952 93.0683 48.1721 93.393 48.2933 93.702C48.4058 94.0147 48.5627 94.3096 48.7591 94.5776C48.7263 94.2416 48.6447 93.912 48.5169 93.5995L48.5309 93.6135ZM38.6562 86.5335C38.5437 86.2208 38.3868 85.9258 38.1904 85.6578C38.2205 85.9884 38.2973 86.313 38.4186 86.622C38.5311 86.9347 38.6879 87.2296 38.8844 87.4977C38.8548 87.167 38.7779 86.8423 38.6562 86.5335ZM43.3932 90.4182C43.0797 90.5287 42.7845 90.6857 42.5175 90.8839C42.8483 90.8523 43.1729 90.7738 43.4817 90.651C43.7953 90.5405 44.0905 90.3835 44.3574 90.1853C44.0266 90.2169 43.702 90.2954 43.3932 90.4182ZM38.8797 78.9691C38.567 79.0816 38.2721 79.2384 38.0041 79.4349C38.3348 79.4032 38.6595 79.3248 38.9682 79.202C39.2811 79.0897 39.576 78.9329 39.8439 78.7362C39.5128 78.7656 39.1878 78.8441 38.8797 78.9691Z" fill="white"/>
<path d="M43.029 95.8864C42.3024 94.7033 41.45 93.5854 40.6395 92.4582C39.831 91.4091 39.2187 90.2224 38.8323 88.9555C38.4736 87.656 38.25 86.3098 38.0171 84.9823C37.7842 83.6548 37.5513 82.2202 37.3464 80.8368C37.0856 79.2438 36.8527 77.6415 36.6896 76.0299C36.6896 75.9926 36.6244 75.9926 36.6291 76.0299C36.7316 77.5437 36.848 79.0575 37.0017 80.5667C36.862 80.0636 36.7222 79.5606 36.5685 79.0622C36.5648 79.0511 36.5569 79.0419 36.5464 79.0366C36.5359 79.0314 36.5238 79.0305 36.5126 79.0342C36.5015 79.0379 36.4923 79.0459 36.4871 79.0564C36.4818 79.0669 36.481 79.079 36.4847 79.0901C36.6617 79.7515 36.862 80.4083 37.0623 81.0651C37.188 82.2249 37.3324 83.394 37.5281 84.5398C37.7609 85.9372 37.9938 87.3066 38.3292 88.6667C38.6447 89.9514 39.2114 91.1609 39.9967 92.2253C40.9235 93.5108 41.917 94.7468 42.9731 95.9284C43.0011 95.961 43.0523 95.9284 43.029 95.8864Z" fill="#1F2937"/>
<path d="M52.3923 88.2352C50.995 89.5254 49.6954 90.8995 48.3772 92.2643C47.0591 93.629 45.7362 94.9845 44.4879 96.4098C44.4835 96.4169 44.4817 96.4253 44.4827 96.4336C44.4837 96.4419 44.4874 96.4497 44.4933 96.4556C44.4993 96.4615 44.507 96.4652 44.5153 96.4662C44.5236 96.4672 44.532 96.4654 44.5391 96.461C45.9644 95.208 47.3059 93.8619 48.6288 92.5065C49.9516 91.151 51.2744 89.7909 52.4901 88.3144C52.4931 88.3016 52.4925 88.2882 52.4882 88.2758C52.484 88.2633 52.4763 88.2523 52.4661 88.2441C52.4559 88.2358 52.4435 88.2306 52.4305 88.229C52.4174 88.2274 52.4042 88.2296 52.3923 88.2352Z" fill="#1F2937"/>
<path d="M48.5168 82.1137C48.3585 81.7458 48.1908 81.3825 48.0231 81.0191C47.6505 80.2273 47.2872 79.4355 46.9052 78.6529C46.7142 78.257 46.5233 77.8611 46.3369 77.4605C46.2019 76.8038 46.0761 76.147 45.8712 75.4995C45.8712 75.4716 45.8153 75.4995 45.8199 75.4995C45.8991 76.0399 46.0295 76.5709 46.1553 77.1019C45.6522 76.0445 45.1445 74.9918 44.5623 73.9764C44.5623 73.9485 44.4878 73.9764 44.5017 74.0044C45.098 75.6067 45.8665 77.1484 46.5698 78.7088C46.9238 79.482 47.2918 80.2506 47.6551 81.0378C47.8368 81.4197 48.0184 81.8063 48.2094 82.1836C48.4004 82.5609 48.6752 82.9801 48.8988 83.39C48.8988 83.4226 48.9826 83.39 48.964 83.3574C48.801 82.9522 48.6892 82.519 48.5168 82.1137Z" fill="#1F2937"/>
<path d="M40.6817 47.6593C41.1474 47.7897 43.9887 47.3798 44.9995 49.5224C45.7681 51.148 44.8551 52.3172 43.2854 52.8575C41.5527 53.4211 39.3495 52.7597 39.3495 52.7597C39.3821 54.5902 39.4194 56.9518 38.8232 57.3663C38.3574 57.7017 37.5376 57.0961 37.5376 57.0961C37.2022 58.6146 37.7146 61.754 38.0313 62.3642C38.7766 63.8361 40.5419 65.8343 38.921 67.9537C38.4259 68.4311 37.819 68.7768 37.1558 68.9591C36.4927 69.1413 35.7943 69.1544 35.1248 68.997C33.2617 68.5685 32.8238 67.1851 32.0832 66.7519C31.3426 66.3187 29.2885 66.5842 28.5432 65.471C27.798 64.3578 27.8259 63.0349 27.4905 62.4946C27.1552 61.9543 26.2981 61.9264 25.9395 60.7339C25.5808 59.5415 26.736 58.9919 27.0248 58.0464C27.225 57.3849 26.7173 56.6816 27.2856 55.7174C28.0728 54.3899 29.7543 54.9442 30.6253 53.5888C31.31 52.5268 32.917 48.6141 35.9819 47.4963C37.5124 46.9527 39.1924 47.011 40.6817 47.6593Z" fill="#1F2937"/>
<path d="M33.4442 49.4004C32.8284 50.1794 32.2666 50.9995 31.7627 51.8551C31.4832 52.265 31.2224 52.6842 30.9196 53.0661C30.7741 53.2558 30.6068 53.4277 30.4212 53.5785C30.3817 53.6156 30.336 53.6456 30.2862 53.667C30.2394 53.6949 30.1893 53.7168 30.1371 53.7322L29.7691 53.8254C29.2518 53.9268 28.7402 54.0558 28.2367 54.212C27.7198 54.3624 27.2655 54.6761 26.9418 55.1063C26.7898 55.3266 26.7012 55.5844 26.6856 55.8516C26.6833 56.1182 26.734 56.3826 26.8347 56.6294C27.058 57.0858 27.1697 57.5887 27.1607 58.0966C27.2376 57.5891 27.1798 57.0703 26.993 56.5922C26.9154 56.3614 26.8838 56.1177 26.8999 55.8748C26.9282 55.6469 27.0184 55.431 27.1607 55.2507C27.4743 54.879 27.8908 54.6083 28.3578 54.4728C28.8559 54.3297 29.3612 54.2131 29.8716 54.1235C29.9974 54.0909 30.1278 54.0583 30.2582 54.0163C30.3979 53.9718 30.5276 53.9006 30.6402 53.8067C30.8398 53.638 31.0181 53.4456 31.1712 53.2338C31.4702 52.832 31.744 52.412 31.9909 51.9762L32.7083 50.672C32.9258 50.2326 33.1716 49.8079 33.4442 49.4004Z" fill="#1F2937"/>
<path d="M27.0762 62.1074C27.2018 62.434 27.2604 62.7825 27.2485 63.1322C27.2485 63.4815 27.2951 63.8355 27.3324 64.1895C27.3705 64.5487 27.4455 64.903 27.5559 65.2468C27.665 65.6093 27.86 65.94 28.1242 66.211C28.726 66.6578 29.4758 66.8577 30.2202 66.77C30.5742 66.77 30.9236 66.7234 31.2729 66.7187C31.6203 66.6878 31.9701 66.7405 32.293 66.8724C31.9876 66.6822 31.6372 66.5761 31.2776 66.565C30.9189 66.5371 30.5649 66.565 30.2202 66.5278C29.5553 66.557 28.8997 66.3636 28.3571 65.9781C28.1284 65.7445 27.9577 65.4605 27.8587 65.149C27.7429 64.825 27.6556 64.4915 27.5979 64.1522C27.528 63.8122 27.4767 63.4629 27.4209 63.1135C27.3882 62.9412 27.3556 62.7642 27.3137 62.5918C27.2797 62.4119 27.1976 62.2445 27.0762 62.1074Z" fill="#1F2937"/>
<path d="M38.8652 52.3789C39.6833 52.8753 40.6113 53.1617 41.5668 53.2127C41.801 53.229 42.036 53.229 42.2701 53.2127L42.6241 53.1801L42.9735 53.1195C43.211 53.0869 43.4393 53.0077 43.6722 52.9565C43.9051 52.9052 44.138 52.8028 44.3662 52.7376C44.1582 52.8666 43.9436 52.9847 43.7234 53.0916C43.4984 53.192 43.2665 53.276 43.0294 53.3431C42.5481 53.4797 42.048 53.5379 41.5482 53.5154C41.0488 53.4929 40.5572 53.3842 40.0949 53.194C39.6336 53.0092 39.2152 52.7318 38.8652 52.3789Z" fill="#1F2937"/>
<path d="M38.9816 51.9902C39.4136 52.8523 39.6806 53.7875 39.7688 54.7477C39.8193 55.2346 39.783 55.7267 39.6617 56.201C39.6088 56.4414 39.507 56.6684 39.3628 56.8679C39.2186 57.0674 39.0349 57.2351 38.8232 57.3608C39.1572 57.0367 39.3736 56.6106 39.4381 56.1497C39.5127 55.6877 39.5253 55.2177 39.4753 54.7524C39.3755 53.8212 39.2106 52.8983 38.9816 51.9902Z" fill="#1F2937"/>
<path d="M37.7802 57.5709C37.7802 57.5709 36.1919 55.6845 35.3255 56.2714C34.4592 56.8583 35.7913 59.6763 36.8859 59.9744C37.0246 60.022 37.1715 60.0411 37.3178 60.0305C37.4641 60.02 37.6067 59.98 37.7372 59.913C37.8677 59.8461 37.9833 59.7535 38.0771 59.6407C38.1709 59.528 38.2411 59.3975 38.2833 59.2571L37.7802 57.5709Z" fill="#F7B3B4"/>
<path d="M35.7217 57.0684C35.7217 57.0684 35.7217 57.0963 35.7217 57.101C36.0822 57.2403 36.4093 57.4542 36.6814 57.7287C36.9535 58.0032 37.1646 58.3322 37.3007 58.694C37.2509 58.6194 37.185 58.5569 37.1078 58.5111C37.0307 58.4653 36.9443 58.4374 36.855 58.4293C36.7656 58.4213 36.6756 58.4334 36.5915 58.4646C36.5075 58.4959 36.4315 58.5456 36.3691 58.6101C36.3691 58.6101 36.3691 58.6567 36.3691 58.6474C36.4975 58.5937 36.6394 58.581 36.7753 58.611C36.9112 58.641 37.0345 58.7123 37.1284 58.8151C37.2835 58.9877 37.4194 59.1767 37.5336 59.3787C37.5755 59.4439 37.692 59.3787 37.6594 59.3228C37.6268 58.3446 36.7604 57.073 35.7217 57.0684Z" fill="#1F2937"/>
<path d="M58.4424 67.2786C60.2077 65.8207 62.0942 62.7977 63.6825 62.1875C64.0683 62.0231 64.4968 61.9873 64.9045 62.0855C65.3123 62.1836 65.6775 62.4105 65.9462 62.7325C65.9462 62.7325 66.3468 60.8926 67.8792 60.5759C68.6711 60.4129 69.6213 61.5308 69.6213 61.5308C69.6213 61.5308 70.0079 60.0729 71.3866 59.8726C72.4859 59.7189 73.2777 60.86 73.2777 60.86C73.2777 60.86 74.3025 59.6304 75.4716 59.8307C77.8518 60.2359 80.1854 69.4818 77.1391 71.7688C75.7417 72.8355 75.276 70.5438 75.276 70.5438C75.276 70.5438 75.1222 73.9953 73.2311 74.5216C71.34 75.0479 70.9348 72.0436 70.9348 72.0436C70.9348 72.0436 70.7578 75.3833 68.741 75.7326C66.6402 76.1006 66.752 73.0218 66.752 73.0218C66.752 73.0218 65.8764 75.4299 64.2694 75.3507C61.6144 75.2063 63.6126 69.2955 62.6158 67.3671L58.8336 68.1403L58.4424 67.2786Z" fill="#F7B3B4"/>
<path d="M61.0745 64.4794C59.2113 65.5926 55.7179 63.2078 53.7756 64.0136C51.1486 65.1082 54.9028 68.7926 58.8573 68.1498L62.6116 67.3626L61.0745 64.4794Z" fill="#F7B3B4"/>
<path d="M73.4503 61.022C73.4488 61.0192 73.4478 61.0162 73.4474 61.013C73.4471 61.0099 73.4473 61.0067 73.4482 61.0037C73.4491 61.0007 73.4505 60.9979 73.4525 60.9954C73.4544 60.9929 73.4569 60.9909 73.4596 60.9893C73.4624 60.9878 73.4654 60.9868 73.4685 60.9865C73.4716 60.9861 73.4748 60.9864 73.4778 60.9873C73.4809 60.9881 73.4837 60.9896 73.4862 60.9915C73.4886 60.9935 73.4907 60.9959 73.4922 60.9987C75.0645 63.9631 75.6996 67.3351 75.3134 70.6684C75.3134 70.7709 75.1178 70.7942 75.1132 70.6684C75.0289 67.3894 74.4688 64.1399 73.4503 61.022Z" fill="#1F2937"/>
<path d="M69.6309 61.4615C69.6309 61.4289 69.6774 61.4056 69.6961 61.4615C71.2332 64.4099 72.0017 68.4856 71.0422 72.1327C71.0096 72.2584 70.8559 72.3376 70.8792 72.1886C71.3356 69.7199 70.6556 64.3959 69.6309 61.4615Z" fill="#1F2937"/>
<path d="M66.5942 73.2624C67.3814 69.7318 66.9575 66.3082 66.0166 62.8474C66.0166 62.8055 66.0678 62.7915 66.0865 62.8474C67.018 64.4171 67.3814 66.6809 67.5211 68.4695C67.6789 70.1264 67.4028 71.7958 66.7199 73.3137C66.692 73.3509 66.5802 73.337 66.5942 73.2624Z" fill="#1F2937"/>
</svg>
