<svg width="40" height="40" viewBox="0 0 40 40" fill="none" xmlns="http://www.w3.org/2000/svg">
<path d="M18.2001 18.184C20.1133 18.184 21.7101 16.9035 21.7101 14.8695C21.7101 12.9409 20.3994 11.6745 18.6064 11.6745C17.6871 11.6745 16.9794 12.0364 16.5429 12.7294C17.0096 10.59 18.6212 9.17439 20.8063 9.08375C21.3939 9.05353 21.8156 8.6466 21.8156 8.07446C21.8156 7.38082 21.2582 7.01953 20.5048 7.01953C17.115 7.01953 14.1019 9.91239 14.1019 13.7245C14.1019 16.4361 15.9096 18.184 18.1995 18.184M8.97772 18.184C10.8915 18.184 12.4884 16.9035 12.4884 14.8695C12.4884 12.9409 11.1628 11.6745 9.36986 11.6745C8.466 11.6745 7.74279 12.0364 7.30565 12.7294C7.77236 10.59 9.40007 9.18917 11.5845 9.08375C12.1566 9.05353 12.5938 8.6466 12.5938 8.07446C12.5938 7.38082 12.0216 7.01953 11.2682 7.01953C7.87843 7.01953 4.86472 9.91239 4.86472 13.7245C4.86472 16.4361 6.68786 18.184 8.97772 18.184ZM25.5223 9.30875H34.0196C34.6676 9.30875 35.1799 8.81182 35.1799 8.16382C35.1799 7.5306 34.6676 7.03367 34.0202 7.03367H25.5216C25.3729 7.03221 25.2253 7.06045 25.0875 7.11674C24.9498 7.17302 24.8247 7.25622 24.7195 7.36147C24.6143 7.46671 24.5312 7.59188 24.475 7.72966C24.4188 7.86743 24.3906 8.01503 24.3921 8.16382C24.3921 8.81182 24.8891 9.30875 25.5223 9.30875ZM25.5223 17.2037H34.0196C34.6676 17.2037 35.1799 16.7067 35.1799 16.0594C35.1799 15.4262 34.6676 14.9286 34.0202 14.9286H25.5216C25.3729 14.9271 25.2253 14.9554 25.0875 15.0117C24.9498 15.0679 24.8247 15.1512 24.7195 15.2564C24.6143 15.3616 24.5312 15.4868 24.475 15.6246C24.4188 15.7624 24.3906 15.91 24.3921 16.0587C24.3921 16.7067 24.8891 17.2037 25.5223 17.2037ZM5.96529 25.0999H34.0196C34.1712 25.1015 34.3216 25.0731 34.4621 25.0163C34.6026 24.9594 34.7305 24.8754 34.8384 24.7689C34.9463 24.6624 35.032 24.5355 35.0906 24.3957C35.1493 24.2559 35.1796 24.1059 35.1799 23.9543C35.1799 23.3217 34.6676 22.8242 34.0202 22.8242H5.96529C5.31729 22.8242 4.82036 23.3217 4.82036 23.9543C4.82036 24.5875 5.31729 25.0999 5.96465 25.0999M5.96465 32.9794H34.0189C34.6669 32.9794 35.1793 32.4825 35.1793 31.8499C35.1793 31.2167 34.6669 30.7043 34.0196 30.7043H5.96529C5.81452 30.703 5.66501 30.7318 5.52548 30.7889C5.38594 30.846 5.25919 30.9304 5.1526 31.037C5.04602 31.1437 4.96175 31.2705 4.90471 31.41C4.84766 31.5496 4.81899 31.6991 4.82036 31.8499C4.82036 32.4825 5.31729 32.9794 5.96465 32.9794Z" fill="#0CAF6F"/>
</svg>
