<svg width="40" height="40" viewBox="0 0 40 40" fill="none" xmlns="http://www.w3.org/2000/svg">
<path d="M32.5 6.25H7.5C5.42893 6.25 3.75 7.92893 3.75 10V30C3.75 32.0711 5.42893 33.75 7.5 33.75H32.5C34.5711 33.75 36.25 32.0711 36.25 30V10C36.25 7.92893 34.5711 6.25 32.5 6.25Z" stroke="#0CAF6F" stroke-width="2" stroke-linejoin="round"/>
<path d="M26.25 16.25C27.6307 16.25 28.75 15.1307 28.75 13.75C28.75 12.3693 27.6307 11.25 26.25 11.25C24.8693 11.25 23.75 12.3693 23.75 13.75C23.75 15.1307 24.8693 16.25 26.25 16.25Z" stroke="#0CAF6F" stroke-width="2" stroke-miterlimit="10"/>
<path d="M23.75 26.2332L16.6672 19.1637C16.2165 18.7131 15.6107 18.4516 14.9737 18.4327C14.3366 18.4139 13.7164 18.639 13.2398 19.0621L3.75 27.4996M17.5 33.7496L27.1359 24.1137C27.5766 23.6721 28.1665 23.4113 28.7896 23.3824C29.4128 23.3534 30.0242 23.5586 30.5039 23.9574L36.25 28.7496" stroke="#0CAF6F" stroke-width="2" stroke-linecap="round" stroke-linejoin="round"/>
</svg>
