<svg width="40" height="40" viewBox="0 0 40 40" fill="none" xmlns="http://www.w3.org/2000/svg">
<rect x="3.39648" y="8.5" width="11" height="9" rx="1.5" stroke="#0CAF6F"/>
<path d="M23.1035 12.9999L20.75 10.6464C20.7036 10.6 20.6485 10.5632 20.5878 10.5381C20.5272 10.5129 20.4622 10.5 20.3965 10.5C20.3309 10.5 20.2659 10.5129 20.2052 10.5381C20.1445 10.5632 20.0894 10.6 20.043 10.6464C19.9966 10.6928 19.9598 10.748 19.9346 10.8086C19.9095 10.8693 19.8966 10.9343 19.8966 10.9999C19.8966 11.0656 19.9095 11.1306 19.9346 11.1912C19.9598 11.2519 19.9966 11.307 20.043 11.3534L21.1895 12.4999H17.3965C17.2639 12.4999 17.1367 12.5526 17.043 12.6464C16.9492 12.7401 16.8965 12.8673 16.8965 12.9999C16.8965 13.1325 16.9492 13.2597 17.043 13.3535C17.1367 13.4472 17.2639 13.4999 17.3965 13.4999H21.1895L20.043 14.6464C19.9964 14.6928 19.9594 14.7478 19.9342 14.8085C19.909 14.8692 19.896 14.9342 19.896 14.9999C19.896 15.0656 19.909 15.1307 19.9342 15.1914C19.9594 15.252 19.9964 15.3071 20.043 15.3534C20.1368 15.4472 20.2639 15.4998 20.3965 15.4998C20.5291 15.4998 20.6563 15.4472 20.75 15.3534L23.1035 12.9999Z" fill="#0CAF6F"/>
<rect x="25.1035" y="8" width="12" height="10" rx="2" fill="#0CAF6F"/>
<rect x="3.39648" y="22.5" width="11" height="9" rx="1.5" stroke="#0CAF6F"/>
<path d="M23.1035 26.9999L20.75 24.6464C20.7036 24.6 20.6485 24.5632 20.5878 24.5381C20.5272 24.5129 20.4622 24.5 20.3965 24.5C20.3309 24.5 20.2659 24.5129 20.2052 24.5381C20.1445 24.5632 20.0894 24.6 20.043 24.6464C19.9966 24.6928 19.9598 24.748 19.9346 24.8086C19.9095 24.8693 19.8966 24.9343 19.8966 24.9999C19.8966 25.0656 19.9095 25.1306 19.9346 25.1912C19.9598 25.2519 19.9966 25.307 20.043 25.3534L21.1895 26.4999H17.3965C17.2639 26.4999 17.1367 26.5526 17.043 26.6464C16.9492 26.7401 16.8965 26.8673 16.8965 26.9999C16.8965 27.1325 16.9492 27.2597 17.043 27.3535C17.1367 27.4472 17.2639 27.4999 17.3965 27.4999H21.1895L20.043 28.6464C19.9964 28.6928 19.9594 28.7478 19.9342 28.8085C19.909 28.8692 19.896 28.9342 19.896 28.9999C19.896 29.0656 19.909 29.1307 19.9342 29.1914C19.9594 29.252 19.9964 29.3071 20.043 29.3534C20.1368 29.4472 20.2639 29.4998 20.3965 29.4998C20.5291 29.4998 20.6563 29.4472 20.75 29.3534L23.1035 26.9999Z" fill="#0CAF6F"/>
<rect x="25.1035" y="22" width="12" height="10" rx="2" fill="#0CAF6F"/>
</svg>
