<svg width="40" height="40" viewBox="0 0 40 40" fill="none" xmlns="http://www.w3.org/2000/svg">
<path opacity="0.5" d="M32.4688 8.78125V26.2188H7.53125V8.78125H32.4688Z" fill="#0CAF6F" stroke="#0CAF6F" stroke-width="0.0625"/>
<path d="M36.25 7.5V5C36.25 4.33696 35.9866 3.70107 35.5178 3.23223C35.0489 2.76339 34.413 2.5 33.75 2.5H6.25C5.58696 2.5 4.95107 2.76339 4.48223 3.23223C4.01339 3.70107 3.75 4.33696 3.75 5V7.5C3.75 8.16304 4.01339 8.79893 4.48223 9.26777C4.95107 9.73661 5.58696 10 6.25 10V25H5C4.66848 25 4.35054 25.1317 4.11612 25.3661C3.8817 25.6005 3.75 25.9185 3.75 26.25C3.75 26.5815 3.8817 26.8995 4.11612 27.1339C4.35054 27.3683 4.66848 27.5 5 27.5H18.75V30.2156C17.916 30.5105 17.2131 31.0907 16.7655 31.8537C16.3179 32.6167 16.1544 33.5134 16.304 34.3853C16.4536 35.2572 16.9066 36.0481 17.5829 36.6183C18.2593 37.1884 19.1154 37.5012 20 37.5012C20.8846 37.5012 21.7407 37.1884 22.4171 36.6183C23.0934 36.0481 23.5464 35.2572 23.696 34.3853C23.8456 33.5134 23.6821 32.6167 23.2345 31.8537C22.7869 31.0907 22.084 30.5105 21.25 30.2156V27.5H35C35.3315 27.5 35.6495 27.3683 35.8839 27.1339C36.1183 26.8995 36.25 26.5815 36.25 26.25C36.25 25.9185 36.1183 25.6005 35.8839 25.3661C35.6495 25.1317 35.3315 25 35 25H33.75V10C34.413 10 35.0489 9.73661 35.5178 9.26777C35.9866 8.79893 36.25 8.16304 36.25 7.5ZM20 35C19.7528 35 19.5111 34.9267 19.3055 34.7893C19.1 34.652 18.9398 34.4568 18.8451 34.2284C18.7505 33.9999 18.7258 33.7486 18.774 33.5061C18.8222 33.2637 18.9413 33.0409 19.1161 32.8661C19.2909 32.6913 19.5137 32.5723 19.7561 32.524C19.9986 32.4758 20.2499 32.5005 20.4784 32.5951C20.7068 32.6898 20.902 32.85 21.0393 33.0555C21.1767 33.2611 21.25 33.5028 21.25 33.75C21.25 34.0815 21.1183 34.3995 20.8839 34.6339C20.6495 34.8683 20.3315 35 20 35ZM6.25 5H33.75V7.5H6.25V5ZM31.25 25H8.75V10H31.25V25Z" fill="#0CAF6F"/>
</svg>
