<svg width="40" height="40" viewBox="0 0 40 40" fill="none" xmlns="http://www.w3.org/2000/svg">
<path d="M9.99954 6.16797C13.2219 6.16797 15.834 8.78014 15.834 12.0025C15.834 15.2242 13.2219 17.8364 9.99954 17.8364C6.77721 17.8364 4.16504 15.2242 4.16504 12.0025C4.16504 8.78014 6.77721 6.16797 9.99954 6.16797ZM9.99954 7.04297C9.34376 7.03586 8.69308 7.15888 8.08517 7.40491C7.47725 7.65094 6.92417 8.0151 6.45793 8.47632C5.99168 8.93753 5.62155 9.48663 5.36893 10.0918C5.11632 10.6971 4.98625 11.3464 4.98625 12.0022C4.98625 12.658 5.11632 13.3073 5.36893 13.9125C5.62155 14.5177 5.99168 15.0668 6.45793 15.528C6.92417 15.9892 7.47725 16.3534 8.08517 16.5994C8.69308 16.8455 9.34376 16.9685 9.99954 16.9614C11.3016 16.9414 12.5435 16.4102 13.4572 15.4824C14.3708 14.5546 14.883 13.3046 14.883 12.0025C14.883 10.7003 14.3708 9.45037 13.4572 8.52257C12.5435 7.59476 11.3016 7.06294 9.99954 7.04297ZM9.99721 8.50189C10.9252 8.50189 11.8151 8.87051 12.4713 9.52667C13.1274 10.1828 13.496 11.0728 13.496 12.0007C13.496 12.9287 13.1274 13.8186 12.4713 14.4748C11.8151 15.1309 10.9252 15.4996 9.99721 15.4996C9.06926 15.4996 8.17932 15.1309 7.52316 14.4748C6.867 13.8186 6.49837 12.9287 6.49837 12.0007C6.49837 11.0728 6.867 10.1828 7.52316 9.52667C8.17932 8.87051 9.06926 8.50189 9.99721 8.50189Z" fill="#0CAF6F"/>
<rect x="19" y="10" width="18" height="4" rx="2" fill="#0CAF6F"/>
<path d="M9.99954 33.8364C13.2219 33.8364 15.834 31.2242 15.834 28.0025C15.834 24.7801 13.2219 22.168 9.99954 22.168C6.77721 22.168 4.16504 24.7801 4.16504 28.0025C4.16504 31.2242 6.77721 33.8364 9.99954 33.8364ZM9.99954 32.9614C9.34193 32.9715 8.68887 32.8507 8.07839 32.606C7.46791 32.3613 6.91219 31.9976 6.44358 31.5362C5.97496 31.0747 5.60282 30.5246 5.34881 29.9179C5.09479 29.3113 4.96398 28.6602 4.96398 28.0025C4.96398 27.3448 5.09479 26.6937 5.34881 26.087C5.60282 25.4803 5.97496 24.9303 6.44358 24.4688C6.91219 24.0073 7.46791 23.6436 8.07839 23.399C8.68887 23.1543 9.34193 23.0335 9.99954 23.0436C11.3055 23.0577 12.5531 23.5864 13.4716 24.5149C14.3901 25.4434 14.9053 26.6967 14.9053 28.0028C14.9053 29.3088 14.3901 30.5621 13.4716 31.4906C12.5531 32.4191 11.3055 32.9472 9.99954 32.9614Z" fill="#0CAF6F"/>
<rect x="19" y="26" width="18" height="4" rx="2" fill="#0CAF6F"/>
</svg>
