<svg width="40" height="40" viewBox="0 0 40 40" fill="none" xmlns="http://www.w3.org/2000/svg">
<path d="M9.99954 6.16602C13.2219 6.16602 15.834 8.77818 15.834 12.0005C15.834 15.2223 13.2219 17.8344 9.99954 17.8344C6.77721 17.8344 4.16504 15.2223 4.16504 12.0005C4.16504 8.77818 6.77721 6.16602 9.99954 6.16602ZM9.99954 7.04102C9.34376 7.0339 8.69308 7.15692 8.08517 7.40296C7.47725 7.64899 6.92417 8.01315 6.45793 8.47436C5.99168 8.93557 5.62155 9.48468 5.36893 10.0899C5.11632 10.6951 4.98625 11.3444 4.98625 12.0002C4.98625 12.656 5.11632 13.3053 5.36893 13.9106C5.62155 14.5158 5.99168 15.0649 6.45793 15.5261C6.92417 15.9873 7.47725 16.3515 8.08517 16.5975C8.69308 16.8435 9.34376 16.9665 9.99954 16.9594C11.3016 16.9395 12.5435 16.4082 13.4572 15.4804C14.3708 14.5526 14.883 13.3027 14.883 12.0005C14.883 10.6983 14.3708 9.44842 13.4572 8.52062C12.5435 7.59281 11.3016 7.06099 9.99954 7.04102ZM9.99721 8.49993C10.9252 8.49993 11.8151 8.86856 12.4713 9.52472C13.1274 10.1809 13.496 11.0708 13.496 11.9988C13.496 12.9267 13.1274 13.8167 12.4713 14.4728C11.8151 15.129 10.9252 15.4976 9.99721 15.4976C9.06926 15.4976 8.17932 15.129 7.52316 14.4728C6.867 13.8167 6.49837 12.9267 6.49837 11.9988C6.49837 11.0708 6.867 10.1809 7.52316 9.52472C8.17932 8.86856 9.06926 8.49993 9.99721 8.49993Z" fill="#0CAF6F"/>
<rect x="19" y="10" width="18" height="4" rx="2" fill="#0CAF6F"/>
<path d="M9.99954 33.8344C13.2219 33.8344 15.834 31.2223 15.834 28.0005C15.834 24.7782 13.2219 22.166 9.99954 22.166C6.77721 22.166 4.16504 24.7782 4.16504 28.0005C4.16504 31.2223 6.77721 33.8344 9.99954 33.8344ZM9.99954 32.9594C9.34193 32.9695 8.68887 32.8487 8.07839 32.604C7.46791 32.3593 6.91219 31.9957 6.44358 31.5342C5.97496 31.0727 5.60282 30.5226 5.34881 29.916C5.09479 29.3093 4.96398 28.6582 4.96398 28.0005C4.96398 27.3428 5.09479 26.6917 5.34881 26.085C5.60282 25.4784 5.97496 24.9283 6.44358 24.4668C6.91219 24.0054 7.46791 23.6417 8.07839 23.397C8.68887 23.1523 9.34193 23.0315 9.99954 23.0416C11.3055 23.0558 12.5531 23.5845 13.4716 24.513C14.3901 25.4415 14.9053 26.6948 14.9053 28.0008C14.9053 29.3068 14.3901 30.5601 13.4716 31.4886C12.5531 32.4171 11.3055 32.9453 9.99954 32.9594Z" fill="#0CAF6F"/>
<rect x="19" y="26" width="18" height="4" rx="2" fill="#0CAF6F"/>
</svg>
