<svg width="20" height="20" viewBox="0 0 20 20" fill="none" xmlns="http://www.w3.org/2000/svg">
<path d="M12 13C12.2833 13 12.5293 12.896 12.738 12.688C12.9467 12.48 13.0507 12.234 13.05 11.95C13.0493 11.666 12.9453 11.4203 12.738 11.213C12.5307 11.0057 12.2847 10.9013 12 10.9C11.7153 10.8987 11.4697 11.003 11.263 11.213C11.0563 11.423 10.952 11.6687 10.95 11.95C10.948 12.2313 11.0523 12.4773 11.263 12.688C11.4737 12.8987 11.7193 13.0027 12 13ZM12 9.8C12.1833 9.8 12.3543 9.73333 12.513 9.6C12.6717 9.46667 12.7673 9.29167 12.8 9.075C12.8333 8.875 12.904 8.69167 13.012 8.525C13.12 8.35833 13.316 8.13333 13.6 7.85C14.1 7.35 14.4333 6.94567 14.6 6.637C14.7667 6.32833 14.85 5.966 14.85 5.55C14.85 4.8 14.5873 4.18733 14.062 3.712C13.5367 3.23667 12.8493 2.99933 12 3C11.45 3 10.95 3.125 10.5 3.375C10.05 3.625 9.69167 3.98333 9.425 4.45C9.325 4.61667 9.31667 4.79167 9.4 4.975C9.48333 5.15833 9.625 5.29167 9.825 5.375C10.0083 5.45833 10.1877 5.46667 10.363 5.4C10.5383 5.33333 10.684 5.21667 10.8 5.05C10.95 4.83333 11.125 4.671 11.325 4.563C11.525 4.455 11.75 4.40067 12 4.4C12.4 4.4 12.725 4.51267 12.975 4.738C13.225 4.96333 13.35 5.26733 13.35 5.65C13.35 5.88333 13.2833 6.10433 13.15 6.313C13.0167 6.52167 12.7833 6.784 12.45 7.1C11.9667 7.51667 11.6583 7.83767 11.525 8.063C11.3917 8.28833 11.3083 8.61733 11.275 9.05C11.2583 9.25 11.321 9.425 11.463 9.575C11.605 9.725 11.784 9.8 12 9.8ZM6 16C5.45 16 4.97933 15.8043 4.588 15.413C4.19667 15.0217 4.00067 14.5507 4 14V2C4 1.45 4.196 0.979333 4.588 0.588C4.98 0.196667 5.45067 0.000666667 6 0H18C18.55 0 19.021 0.196 19.413 0.588C19.805 0.98 20.0007 1.45067 20 2V14C20 14.55 19.8043 15.021 19.413 15.413C19.0217 15.805 18.5507 16.0007 18 16H6ZM2 20C1.45 20 0.979333 19.8043 0.588 19.413C0.196667 19.0217 0.000666667 18.5507 0 18V5C0 4.71667 0.0960001 4.47933 0.288 4.288C0.48 4.09667 0.717333 4.00067 1 4C1.28267 3.99933 1.52033 4.09533 1.713 4.288C1.90567 4.48067 2.00133 4.718 2 5V18H15C15.2833 18 15.521 18.096 15.713 18.288C15.905 18.48 16.0007 18.7173 16 19C15.9993 19.2827 15.9033 19.5203 15.712 19.713C15.5207 19.9057 15.2833 20.0013 15 20H2Z" fill="#737373"/>
</svg>
