<svg width="16" height="16" viewBox="0 0 16 16" fill="none" xmlns="http://www.w3.org/2000/svg">
<mask id="mask0_331_1006" style="mask-type:luminance" maskUnits="userSpaceOnUse" x="0" y="0" width="16" height="16">
<path d="M7.66667 14.3333C8.54231 14.3344 9.40953 14.1625 10.2185 13.8274C11.0275 13.4923 11.7623 13.0006 12.3807 12.3807C13.0006 11.7623 13.4923 11.0275 13.8274 10.2185C14.1625 9.40953 14.3344 8.54231 14.3333 7.66667C14.3344 6.79104 14.1625 5.92381 13.8274 5.11484C13.4923 4.30586 13.0006 3.57106 12.3807 2.95267C11.7623 2.33273 11.0275 1.84108 10.2185 1.50598C9.40953 1.17088 8.54231 0.998925 7.66667 1.00001C6.79104 0.998925 5.92381 1.17088 5.11484 1.50598C4.30586 1.84108 3.57106 2.33273 2.95267 2.95267C2.33273 3.57106 1.84108 4.30586 1.50598 5.11484C1.17088 5.92381 0.998925 6.79104 1.00001 7.66667C0.998925 8.54231 1.17088 9.40953 1.50598 10.2185C1.84108 11.0275 2.33273 11.7623 2.95267 12.3807C3.57106 13.0006 4.30586 13.4923 5.11484 13.8274C5.92381 14.1625 6.79104 14.3344 7.66667 14.3333Z" fill="white" stroke="white" stroke-width="2" stroke-linejoin="round"/>
<path d="M5 7.66699L7 9.66699L11 5.66699" stroke="black" stroke-width="2" stroke-linecap="round" stroke-linejoin="round"/>
</mask>
<g mask="url(#mask0_331_1006)">
<path d="M-0.333008 -0.333008H15.667V15.667H-0.333008V-0.333008Z" fill="#0CAF6F"/>
</g>
</svg>
