<svg width="207" height="146" viewBox="0 0 207 146" fill="none" xmlns="http://www.w3.org/2000/svg">
<g filter="url(#filter0_dddd_268_4816)">
<path d="M166.992 7H42V124.261H166.992V7Z" fill="#0CAF6F"/>
<path opacity="0.7" d="M166.992 7H42V124.261H166.992V7Z" fill="white"/>
<path d="M166.992 7H42V12.9676H166.992V7Z" fill="#0CAF6F"/>
<path opacity="0.2" d="M167 12.9746H162.867V124.374H167V12.9746Z" fill="black"/>
<path opacity="0.6" d="M165.155 15.6133H164.778C164.195 15.6133 163.723 16.0813 163.723 16.6587V30.0873C163.723 30.6647 164.195 31.1328 164.778 31.1328H165.155C165.737 31.1328 166.21 30.6647 166.21 30.0873V16.6587C166.21 16.0813 165.737 15.6133 165.155 15.6133Z" fill="white"/>
<path opacity="0.2" d="M160.129 89.9631H44.5699C44.4871 89.9615 44.4082 89.9282 44.3496 89.8702C44.2911 89.8122 44.2575 89.734 44.2559 89.652C44.2559 89.5694 44.2889 89.4903 44.3478 89.432C44.4067 89.3736 44.4866 89.3408 44.5699 89.3408H160.129C160.212 89.3408 160.292 89.3736 160.351 89.432C160.41 89.4903 160.443 89.5694 160.443 89.652C160.443 89.7345 160.41 89.8136 160.351 89.872C160.292 89.9303 160.212 89.9631 160.129 89.9631Z" fill="black"/>
<path opacity="0.2" d="M160.129 63.2053H44.5699C44.4871 63.2037 44.4082 63.1704 44.3496 63.1124C44.2911 63.0544 44.2575 62.9762 44.2559 62.8941C44.2559 62.8116 44.2889 62.7325 44.3478 62.6741C44.4067 62.6158 44.4866 62.583 44.5699 62.583H160.129C160.212 62.583 160.292 62.6158 160.351 62.6741C160.41 62.7325 160.443 62.8116 160.443 62.8941C160.443 62.9767 160.41 63.0558 160.351 63.1141C160.292 63.1725 160.212 63.2053 160.129 63.2053Z" fill="black"/>
<path d="M160.125 15.6045H44.5918V33.109H160.125V15.6045Z" fill="#0CAF6F"/>
<path opacity="0.6" d="M165.556 9.9899C165.556 10.2865 165.468 10.5765 165.301 10.8231C165.135 11.0697 164.899 11.2619 164.622 11.3754C164.346 11.4889 164.041 11.5186 163.748 11.4608C163.454 11.4029 163.184 11.2601 162.973 11.0503C162.761 10.8406 162.617 10.5734 162.558 10.2825C162.5 9.99157 162.53 9.69004 162.645 9.41601C162.759 9.14198 162.953 8.90776 163.202 8.74298C163.451 8.57819 163.744 8.49023 164.043 8.49023C164.444 8.49023 164.829 8.64824 165.113 8.92948C165.397 9.21072 165.556 9.59217 165.556 9.9899Z" fill="white"/>
<path opacity="0.6" d="M160.215 9.9899C160.215 10.2865 160.126 10.5765 159.96 10.8231C159.793 11.0697 159.557 11.2619 159.28 11.3754C159.004 11.4889 158.699 11.5186 158.406 11.4608C158.112 11.4029 157.842 11.2601 157.631 11.0503C157.419 10.8406 157.275 10.5734 157.217 10.2825C157.158 9.99157 157.188 9.69004 157.303 9.41601C157.417 9.14198 157.611 8.90776 157.86 8.74298C158.109 8.57819 158.402 8.49023 158.701 8.49023C159.102 8.49023 159.487 8.64824 159.771 8.92948C160.055 9.21072 160.215 9.59217 160.215 9.9899Z" fill="white"/>
<path opacity="0.6" d="M154.873 9.9899C154.873 10.2865 154.784 10.5765 154.618 10.8231C154.451 11.0697 154.215 11.2619 153.938 11.3754C153.662 11.4889 153.358 11.5186 153.064 11.4608C152.77 11.4029 152.501 11.2601 152.289 11.0503C152.077 10.8406 151.933 10.5734 151.875 10.2825C151.816 9.99157 151.846 9.69004 151.961 9.41601C152.075 9.14198 152.269 8.90776 152.518 8.74298C152.767 8.57819 153.06 8.49023 153.359 8.49023C153.761 8.49023 154.146 8.64824 154.43 8.92948C154.713 9.21072 154.873 9.59217 154.873 9.9899Z" fill="white"/>
<path opacity="0.4" d="M49.5507 44.8362C48.8191 44.8362 48.1039 44.6213 47.4956 44.2185C46.8873 43.8158 46.4131 43.2434 46.1331 42.5737C45.8532 41.9039 45.7799 41.167 45.9226 40.456C46.0654 39.745 46.4177 39.092 46.935 38.5794C47.4524 38.0668 48.1115 37.7177 48.829 37.5763C49.5466 37.4349 50.2904 37.5074 50.9663 37.7849C51.6422 38.0623 52.22 38.532 52.6264 39.1348C53.0329 39.7375 53.2498 40.4461 53.2498 41.171C53.2482 42.1426 52.8579 43.0739 52.1646 43.7609C51.4712 44.4479 50.5313 44.8346 49.5507 44.8362Z" fill="black"/>
<path d="M50.0014 39.7803V42.5618H49.3734V40.2968H48.8145V39.7803H50.0014Z" fill="white"/>
<path opacity="0.4" d="M155.131 37.6201H56.7238C56.3284 37.6201 56.0078 37.9377 56.0078 38.3295V38.7713C56.0078 39.1631 56.3284 39.4807 56.7238 39.4807H155.131C155.526 39.4807 155.847 39.1631 155.847 38.7713V38.3295C155.847 37.9377 155.526 37.6201 155.131 37.6201Z" fill="black"/>
<path opacity="0.4" d="M155.131 42.4541H56.7238C56.3284 42.4541 56.0078 42.7717 56.0078 43.1635V43.6053C56.0078 43.9971 56.3284 44.3147 56.7238 44.3147H155.131C155.526 44.3147 155.847 43.9971 155.847 43.6053V43.1635C155.847 42.7717 155.526 42.4541 155.131 42.4541Z" fill="black"/>
<path opacity="0.4" d="M121.091 47.2812H56.7238C56.3284 47.2812 56.0078 47.5989 56.0078 47.9906V48.4324C56.0078 48.8242 56.3284 49.1418 56.7238 49.1418H121.091C121.487 49.1418 121.807 48.8242 121.807 48.4324V47.9906C121.807 47.5989 121.487 47.2812 121.091 47.2812Z" fill="black"/>
<path opacity="0.2" d="M57.7399 58.2501C58.6868 58.2501 59.4545 57.4896 59.4545 56.5513C59.4545 55.6131 58.6868 54.8525 57.7399 54.8525C56.793 54.8525 56.0254 55.6131 56.0254 56.5513C56.0254 57.4896 56.793 58.2501 57.7399 58.2501Z" fill="black"/>
<path d="M58.9189 56.5537C58.9201 56.7868 58.8514 57.0151 58.7215 57.2094C58.5915 57.4038 58.4062 57.5555 58.189 57.6453C57.9719 57.7351 57.7327 57.7589 57.5019 57.7137C57.271 57.6685 57.059 57.5564 56.8926 57.3915C56.7262 57.2267 56.613 57.0165 56.5674 56.7878C56.5218 56.5591 56.5459 56.3221 56.6365 56.107C56.7271 55.8918 56.8802 55.7082 57.0764 55.5794C57.2725 55.4507 57.5029 55.3826 57.7382 55.3838C58.0513 55.3838 58.3516 55.5071 58.5731 55.7265C58.7945 55.9459 58.9189 56.2434 58.9189 56.5537Z" fill="white"/>
<path opacity="0.4" d="M79.953 55.6289H63.3351C62.9397 55.6289 62.6191 55.9465 62.6191 56.3383V56.7801C62.6191 57.1719 62.9397 57.4895 63.3351 57.4895H79.953C80.3484 57.4895 80.6689 57.1719 80.6689 56.7801V56.3383C80.6689 55.9465 80.3484 55.6289 79.953 55.6289Z" fill="black"/>
<path opacity="0.2" d="M94.2806 56.5123C94.2806 56.8483 94.1801 57.1767 93.9917 57.4561C93.8033 57.7355 93.5355 57.9532 93.2222 58.0818C92.9089 58.2103 92.5642 58.244 92.2316 58.1784C91.899 58.1129 91.5935 57.9511 91.3537 57.7135C91.1139 57.4759 90.9507 57.1732 90.8845 56.8437C90.8183 56.5142 90.8523 56.1726 90.9821 55.8622C91.1119 55.5518 91.3316 55.2864 91.6135 55.0998C91.8955 54.9131 92.227 54.8135 92.5661 54.8135C93.0208 54.8135 93.4569 54.9925 93.7785 55.311C94.1 55.6296 94.2806 56.0617 94.2806 56.5123Z" fill="black"/>
<path d="M93.749 56.5175C93.7502 56.7504 93.6817 56.9784 93.552 57.1726C93.4223 57.3668 93.2374 57.5186 93.0206 57.6085C92.8038 57.6985 92.565 57.7227 92.3343 57.678C92.1036 57.6333 91.8915 57.5218 91.7249 57.3576C91.5583 57.1934 91.4446 56.9838 91.3983 56.7555C91.352 56.5272 91.3751 56.2904 91.4648 56.0751C91.5544 55.8599 91.7065 55.6758 91.9019 55.5463C92.0972 55.4168 92.327 55.3477 92.562 55.3477C92.8757 55.3477 93.1767 55.4707 93.3991 55.6899C93.6215 55.9091 93.7473 56.2067 93.749 56.5175Z" fill="#0CAF6F"/>
<path opacity="0.4" d="M114.809 55.5898H98.1847C97.7893 55.5898 97.4688 55.9074 97.4688 56.2992V56.7411C97.4688 57.1328 97.7893 57.4504 98.1847 57.4504H114.809C115.204 57.4504 115.525 57.1328 115.525 56.7411V56.2992C115.525 55.9074 115.204 55.5898 114.809 55.5898Z" fill="black"/>
<path opacity="0.2" d="M129.13 56.4752C129.13 56.8112 129.03 57.1396 128.841 57.419C128.653 57.6983 128.385 57.9161 128.072 58.0447C127.759 58.1732 127.414 58.2069 127.081 58.1413C126.749 58.0758 126.443 57.914 126.203 57.6764C125.964 57.4388 125.8 57.1361 125.734 56.8066C125.668 56.4771 125.702 56.1355 125.832 55.8251C125.961 55.5147 126.181 55.2493 126.463 55.0627C126.745 54.876 127.077 54.7764 127.416 54.7764C127.87 54.7764 128.307 54.9553 128.628 55.2739C128.95 55.5925 129.13 56.0246 129.13 56.4752Z" fill="black"/>
<path d="M128.597 56.4769C128.597 56.7095 128.527 56.9369 128.397 57.1303C128.266 57.3237 128.081 57.4744 127.864 57.5634C127.647 57.6525 127.408 57.6758 127.178 57.6304C126.948 57.585 126.736 57.473 126.57 57.3085C126.404 57.144 126.291 56.9345 126.245 56.7063C126.2 56.4782 126.223 56.2417 126.313 56.0268C126.403 55.8119 126.555 55.6282 126.75 55.499C126.945 55.3698 127.175 55.3008 127.41 55.3008C127.724 55.3008 128.026 55.4247 128.249 55.6452C128.472 55.8658 128.597 56.165 128.597 56.4769Z" fill="white"/>
<path opacity="0.4" d="M149.633 55.5439H133.015C132.619 55.5439 132.299 55.8616 132.299 56.2533V56.6951C132.299 57.0869 132.619 57.4045 133.015 57.4045H149.633C150.028 57.4045 150.349 57.0869 150.349 56.6951V56.2533C150.349 55.8616 150.028 55.5439 149.633 55.5439Z" fill="black"/>
<path opacity="0.4" d="M49.5507 75.8362C51.5937 75.8362 53.2498 74.1953 53.2498 72.171C53.2498 70.1468 51.5937 68.5059 49.5507 68.5059C47.5077 68.5059 45.8516 70.1468 45.8516 72.171C45.8516 74.1953 47.5077 75.8362 49.5507 75.8362Z" fill="black"/>
<path d="M50.6054 73.0636V73.5863H48.4889V73.1632L49.5691 72.1489C49.8203 71.9124 49.8643 71.7693 49.8643 71.6386C49.8643 71.5079 49.7136 71.2901 49.4121 71.2901C49.3 71.2863 49.1887 71.3099 49.0879 71.3587C48.9872 71.4075 48.9001 71.4801 48.8343 71.5701L48.3633 71.2652C48.4917 71.0955 48.6602 70.9596 48.854 70.8695C49.0479 70.7795 49.2611 70.738 49.4749 70.7487C50.1029 70.7487 50.5175 71.0661 50.5175 71.5701C50.5138 71.7427 50.4693 71.9121 50.3875 72.0645C50.3057 72.2169 50.1888 72.3481 50.0464 72.4475L49.4184 73.0698L50.6054 73.0636Z" fill="white"/>
<path opacity="0.4" d="M155.131 68.6318H56.7238C56.3284 68.6318 56.0078 68.9494 56.0078 69.3412V69.783C56.0078 70.1748 56.3284 70.4924 56.7238 70.4924H155.131C155.526 70.4924 155.847 70.1748 155.847 69.783V69.3412C155.847 68.9494 155.526 68.6318 155.131 68.6318Z" fill="black"/>
<path opacity="0.4" d="M75.4267 73.4609H56.7238C56.3284 73.4609 56.0078 73.7785 56.0078 74.1703V74.6121C56.0078 75.0039 56.3284 75.3215 56.7238 75.3215H75.4267C75.8221 75.3215 76.1427 75.0039 76.1427 74.6121V74.1703C76.1427 73.7785 75.8221 73.4609 75.4267 73.4609Z" fill="black"/>
<path opacity="0.2" d="M57.7399 84.3605C58.6868 84.3605 59.4545 83.5999 59.4545 82.6617C59.4545 81.7235 58.6868 80.9629 57.7399 80.9629C56.793 80.9629 56.0254 81.7235 56.0254 82.6617C56.0254 83.5999 56.793 84.3605 57.7399 84.3605Z" fill="black"/>
<path d="M57.7319 83.8405C58.3875 83.8405 58.9189 83.3139 58.9189 82.6644C58.9189 82.0148 58.3875 81.4883 57.7319 81.4883C57.0764 81.4883 56.5449 82.0148 56.5449 82.6644C56.5449 83.3139 57.0764 83.8405 57.7319 83.8405Z" fill="white"/>
<path opacity="0.4" d="M79.953 81.7324H63.3351C62.9397 81.7324 62.6191 82.05 62.6191 82.4418V82.8836C62.6191 83.2754 62.9397 83.593 63.3351 83.593H79.953C80.3484 83.593 80.6689 83.2754 80.6689 82.8836V82.4418C80.6689 82.05 80.3484 81.7324 79.953 81.7324Z" fill="black"/>
<path opacity="0.2" d="M92.5661 84.3253C93.513 84.3253 94.2806 83.5648 94.2806 82.6265C94.2806 81.6883 93.513 80.9277 92.5661 80.9277C91.6192 80.9277 90.8516 81.6883 90.8516 82.6265C90.8516 83.5648 91.6192 84.3253 92.5661 84.3253Z" fill="black"/>
<path d="M92.562 83.8043C93.2176 83.8043 93.749 83.2778 93.749 82.6282C93.749 81.9787 93.2176 81.4521 92.562 81.4521C91.9064 81.4521 91.375 81.9787 91.375 82.6282C91.375 83.2778 91.9064 83.8043 92.562 83.8043Z" fill="white"/>
<path opacity="0.4" d="M114.809 81.6953H98.1847C97.7893 81.6953 97.4688 82.0129 97.4688 82.4047V82.8465C97.4688 83.2383 97.7893 83.5559 98.1847 83.5559H114.809C115.204 83.5559 115.525 83.2383 115.525 82.8465V82.4047C115.525 82.0129 115.204 81.6953 114.809 81.6953Z" fill="black"/>
<path opacity="0.2" d="M129.13 82.5855C129.13 82.9215 129.03 83.25 128.841 83.5293C128.653 83.8087 128.385 84.0264 128.072 84.155C127.759 84.2836 127.414 84.3172 127.081 84.2517C126.749 84.1861 126.443 84.0243 126.203 83.7868C125.964 83.5492 125.8 83.2465 125.734 82.9169C125.668 82.5874 125.702 82.2458 125.832 81.9354C125.961 81.625 126.181 81.3597 126.463 81.173C126.745 80.9863 127.077 80.8867 127.416 80.8867C127.87 80.8867 128.307 81.0657 128.628 81.3843C128.95 81.7029 129.13 82.135 129.13 82.5855Z" fill="black"/>
<path d="M128.597 82.5882C128.597 82.8208 128.527 83.0482 128.397 83.2416C128.266 83.435 128.081 83.5858 127.864 83.6748C127.647 83.7638 127.408 83.7871 127.178 83.7417C126.948 83.6963 126.736 83.5843 126.57 83.4198C126.404 83.2554 126.291 83.0458 126.245 82.8177C126.2 82.5895 126.223 82.353 126.313 82.1381C126.403 81.9232 126.555 81.7396 126.75 81.6103C126.945 81.4811 127.175 81.4121 127.41 81.4121C127.724 81.4121 128.026 81.536 128.249 81.7566C128.472 81.9771 128.597 82.2763 128.597 82.5882Z" fill="#0CAF6F"/>
<path opacity="0.4" d="M149.633 81.6543H133.015C132.619 81.6543 132.299 81.9719 132.299 82.3637V82.8055C132.299 83.1973 132.619 83.5149 133.015 83.5149H149.633C150.028 83.5149 150.349 83.1973 150.349 82.8055V82.3637C150.349 81.9719 150.028 81.6543 149.633 81.6543Z" fill="black"/>
<path opacity="0.4" d="M49.5507 102.753C48.8191 102.753 48.1039 102.538 47.4956 102.136C46.8873 101.733 46.4131 101.16 46.1331 100.491C45.8532 99.8209 45.7799 99.084 45.9226 98.373C46.0654 97.662 46.4177 97.0089 46.935 96.4963C47.4524 95.9838 48.1115 95.6347 48.829 95.4933C49.5466 95.3519 50.2904 95.4244 50.9663 95.7018C51.6422 95.9793 52.22 96.449 52.6264 97.0518C53.0329 97.6545 53.2498 98.3631 53.2498 99.088C53.2498 100.06 52.8601 100.992 52.1664 101.68C51.4727 102.367 50.5318 102.753 49.5507 102.753Z" fill="black"/>
<path d="M50.5928 99.6053C50.5928 100.072 50.2286 100.501 49.431 100.501C49.0529 100.51 48.6808 100.406 48.3633 100.203L48.6145 99.7111C48.848 99.8737 49.1267 99.9607 49.4121 99.96C49.7387 99.96 49.9397 99.8293 49.9397 99.6053C49.9397 99.3813 49.7826 99.2631 49.4121 99.2631H49.1169V98.8399L49.6947 98.2176H48.5015V97.7012H50.486V98.1181L49.858 98.8337C50.0558 98.8477 50.241 98.9348 50.3771 99.0777C50.5132 99.2206 50.5902 99.4089 50.5928 99.6053Z" fill="white"/>
<path opacity="0.4" d="M155.131 95.5293H56.7238C56.3284 95.5293 56.0078 95.8469 56.0078 96.2387V96.6805C56.0078 97.0723 56.3284 97.3899 56.7238 97.3899H155.131C155.526 97.3899 155.847 97.0723 155.847 96.6805V96.2387C155.847 95.8469 155.526 95.5293 155.131 95.5293Z" fill="black"/>
<path opacity="0.4" d="M155.131 100.356H56.7238C56.3284 100.356 56.0078 100.674 56.0078 101.066V101.508C56.0078 101.899 56.3284 102.217 56.7238 102.217H155.131C155.526 102.217 155.847 101.899 155.847 101.508V101.066C155.847 100.674 155.526 100.356 155.131 100.356Z" fill="black"/>
<path opacity="0.4" d="M106.018 105.198H56.7238C56.3284 105.198 56.0078 105.516 56.0078 105.908V106.349C56.0078 106.741 56.3284 107.059 56.7238 107.059H106.018C106.414 107.059 106.734 106.741 106.734 106.349V105.908C106.734 105.516 106.414 105.198 106.018 105.198Z" fill="black"/>
<path opacity="0.4" d="M94.0294 112.885H91.1028C90.964 112.885 90.8516 112.996 90.8516 113.134V116.033C90.8516 116.171 90.964 116.282 91.1028 116.282H94.0294C94.1682 116.282 94.2806 116.171 94.2806 116.033V113.134C94.2806 112.996 94.1682 112.885 94.0294 112.885Z" fill="black"/>
<path d="M93.877 115.876V113.294H91.2706V115.876H93.877Z" fill="white"/>
<path opacity="0.4" d="M114.809 113.658H98.1847C97.7893 113.658 97.4688 113.976 97.4688 114.368V114.809C97.4688 115.201 97.7893 115.519 98.1847 115.519H114.809C115.204 115.519 115.525 115.201 115.525 114.809V114.368C115.525 113.976 115.204 113.658 114.809 113.658Z" fill="black"/>
<path d="M92.4326 115.335C92.4128 115.335 92.393 115.332 92.3746 115.324C92.3563 115.317 92.3397 115.306 92.3258 115.292L91.6978 114.707C91.6686 114.676 91.6523 114.636 91.6523 114.595C91.6523 114.553 91.6686 114.513 91.6978 114.483C91.7125 114.467 91.73 114.456 91.7494 114.447C91.7689 114.439 91.7897 114.435 91.8108 114.435C91.832 114.435 91.8529 114.439 91.8723 114.447C91.8917 114.456 91.9093 114.467 91.9239 114.483L92.4577 114.962L93.3684 113.891C93.395 113.859 93.4335 113.839 93.4753 113.835C93.5171 113.831 93.5589 113.843 93.5913 113.87C93.6238 113.896 93.6444 113.934 93.6485 113.976C93.6526 114.017 93.64 114.058 93.6133 114.091L92.5645 115.279C92.5367 115.31 92.4989 115.329 92.4577 115.335H92.4326Z" fill="#0CAF6F"/>
<path opacity="0.4" d="M128.879 112.846H125.952C125.814 112.846 125.701 112.957 125.701 113.095V115.994C125.701 116.132 125.814 116.243 125.952 116.243H128.879C129.018 116.243 129.13 116.132 129.13 115.994V113.095C129.13 112.957 129.018 112.846 128.879 112.846Z" fill="black"/>
<path d="M128.709 115.839V113.257H126.103V115.839H128.709Z" fill="white"/>
<path opacity="0.4" d="M149.633 113.613H133.015C132.619 113.613 132.299 113.931 132.299 114.323V114.764C132.299 115.156 132.619 115.474 133.015 115.474H149.633C150.028 115.474 150.349 115.156 150.349 114.764V114.323C150.349 113.931 150.028 113.613 149.633 113.613Z" fill="black"/>
<path d="M127.272 115.292C127.232 115.29 127.194 115.274 127.165 115.248L126.537 114.657C126.518 114.644 126.503 114.628 126.492 114.608C126.481 114.589 126.474 114.568 126.471 114.546C126.469 114.523 126.472 114.501 126.479 114.48C126.486 114.459 126.498 114.44 126.514 114.423C126.529 114.407 126.548 114.395 126.569 114.386C126.589 114.378 126.612 114.374 126.634 114.375C126.657 114.376 126.679 114.381 126.699 114.391C126.719 114.402 126.736 114.416 126.75 114.433L127.278 114.912L128.195 113.842C128.207 113.824 128.223 113.808 128.242 113.796C128.26 113.785 128.281 113.777 128.303 113.774C128.325 113.771 128.348 113.772 128.369 113.778C128.39 113.785 128.41 113.795 128.427 113.809C128.444 113.823 128.457 113.841 128.467 113.86C128.477 113.88 128.482 113.902 128.483 113.924C128.483 113.945 128.479 113.967 128.471 113.987C128.462 114.008 128.45 114.026 128.433 114.041L127.416 115.236C127.386 115.266 127.346 115.286 127.303 115.292H127.272Z" fill="#0CAF6F"/>
<path opacity="0.4" d="M59.1857 112.922H56.259C56.1203 112.922 56.0078 113.033 56.0078 113.171V116.071C56.0078 116.208 56.1203 116.319 56.259 116.319H59.1857C59.3244 116.319 59.4369 116.208 59.4369 116.071V113.171C59.4369 113.033 59.3244 112.922 59.1857 112.922Z" fill="black"/>
<path d="M59.0293 115.913V113.331H56.4229V115.913H59.0293Z" fill="white"/>
<path opacity="0.4" d="M79.953 113.697H63.3351C62.9397 113.697 62.6191 114.015 62.6191 114.407V114.848C62.6191 115.24 62.9397 115.558 63.3351 115.558H79.953C80.3484 115.558 80.6689 115.24 80.6689 114.848V114.407C80.6689 114.015 80.3484 113.697 79.953 113.697Z" fill="black"/>
<path d="M50.1368 23.8034C50.1091 23.3269 50.2265 22.8531 50.4737 22.4435C50.7209 22.0338 51.0866 21.7071 51.5233 21.5057C51.9601 21.3043 52.4478 21.2375 52.9233 21.3139C53.3988 21.3904 53.8402 21.6065 54.1903 21.9343C54.5404 22.2622 54.7832 22.6866 54.887 23.1527C54.9909 23.6188 54.9511 24.105 54.7728 24.5484C54.5946 24.9919 54.2861 25.372 53.8872 25.6397C53.4884 25.9074 53.0176 26.0503 52.5359 26.0498C52.2272 26.0676 51.9182 26.0227 51.6277 25.9178C51.3372 25.813 51.0715 25.6503 50.8468 25.4399C50.6221 25.2295 50.4432 24.9758 50.3211 24.6944C50.199 24.4129 50.1363 24.1097 50.1368 23.8034ZM53.905 23.8034C53.9001 23.535 53.8152 23.274 53.6611 23.0532C53.507 22.8324 53.2905 22.6616 53.0388 22.5623C52.7871 22.4629 52.5113 22.4395 52.2462 22.4948C51.9811 22.5502 51.7384 22.6819 51.5485 22.8734C51.3587 23.065 51.2302 23.3078 51.1791 23.5715C51.128 23.8351 51.1567 24.1078 51.2615 24.3554C51.3663 24.603 51.5425 24.8144 51.7682 24.963C51.9938 25.1117 52.2587 25.191 52.5296 25.1911C52.7141 25.1964 52.8977 25.164 53.069 25.0958C53.2403 25.0277 53.3956 24.9254 53.5253 24.7952C53.6549 24.665 53.7561 24.5098 53.8225 24.3391C53.8889 24.1685 53.9191 23.9861 53.9113 23.8034H53.905Z" fill="white"/>
<path d="M59.0784 24.0591V25.9695H58.1049V24.2084C58.1049 23.6671 57.8537 23.4181 57.4203 23.4181C56.987 23.4181 56.6102 23.7044 56.6102 24.3204V25.9695H55.6367V22.6279H56.5662V23.0199C56.711 22.8729 56.8853 22.7576 57.0779 22.6815C57.2704 22.6054 57.477 22.5702 57.6841 22.5781C57.8794 22.5652 58.0751 22.5955 58.257 22.6669C58.439 22.7383 58.6026 22.8488 58.7361 22.9906C58.8696 23.1324 58.9695 23.3018 59.0287 23.4866C59.0879 23.6714 59.1049 23.867 59.0784 24.0591Z" fill="white"/>
<path d="M59.9688 21.3682H60.9422V25.973H59.9688V21.3682Z" fill="white"/>
<path d="M61.7324 21.6334C61.7336 21.5556 61.7513 21.4789 61.7844 21.4083C61.8175 21.3377 61.8652 21.2749 61.9244 21.2238C61.9837 21.1727 62.0532 21.1346 62.1283 21.1119C62.2034 21.0892 62.2825 21.0824 62.3605 21.092C62.4372 21.0805 62.5155 21.0853 62.5902 21.1062C62.6649 21.127 62.7343 21.1633 62.7937 21.2128C62.8531 21.2622 62.9012 21.3237 62.9348 21.393C62.9684 21.4623 62.9867 21.5379 62.9885 21.6147C62.9523 21.7466 62.8734 21.8629 62.7639 21.9459C62.6544 22.0289 62.5203 22.0738 62.3824 22.0738C62.2446 22.0738 62.1105 22.0289 62.001 21.9459C61.8915 21.8629 61.8125 21.7466 61.7764 21.6147L61.7324 21.6334ZM61.8518 22.6353H62.8315V25.9769H61.8518V22.6353Z" fill="white"/>
<path d="M67.1714 24.0599V25.9703H66.1791V24.2092C66.1791 23.6679 65.9279 23.419 65.4946 23.419C65.0612 23.419 64.6907 23.7052 64.6907 24.3213V25.9703H63.7109V22.6287H64.6467V23.0207C64.7901 22.8735 64.9632 22.7581 65.1548 22.6819C65.3464 22.6058 65.5521 22.5707 65.7583 22.5789C65.9548 22.5643 66.1521 22.5932 66.3359 22.6637C66.5196 22.7341 66.6852 22.8443 66.8206 22.9862C66.956 23.1281 67.0577 23.2981 67.1184 23.4838C67.1791 23.6695 67.1972 23.8663 67.1714 24.0599Z" fill="white"/>
<path d="M71.3758 24.5845H68.826C68.8779 24.7918 69.0038 24.9735 69.1805 25.0959C69.3571 25.2183 69.5725 25.2732 69.7869 25.2504C69.9424 25.2561 70.0975 25.231 70.2431 25.1765C70.3887 25.122 70.5219 25.0392 70.6347 24.933L71.156 25.4868C70.9776 25.6725 70.7603 25.8172 70.5195 25.9107C70.2786 26.0042 70.02 26.0443 69.7618 26.0282C69.5194 26.0516 69.2748 26.0246 69.0435 25.9491C68.8122 25.8735 68.5994 25.751 68.4186 25.5894C68.2377 25.4278 68.0929 25.2307 67.9933 25.0105C67.8937 24.7903 67.8414 24.552 67.84 24.3107C67.8371 24.0783 67.8823 23.8477 67.9727 23.6332C68.0631 23.4187 68.1968 23.2248 68.3656 23.0633C68.5344 22.9019 68.7348 22.7764 68.9543 22.6945C69.1739 22.6125 69.4081 22.576 69.6424 22.587C69.8756 22.5754 70.1087 22.6124 70.3266 22.6956C70.5445 22.7787 70.7424 22.9062 70.9075 23.0698C71.0726 23.2334 71.2012 23.4294 71.2851 23.6453C71.369 23.8612 71.4063 24.0921 71.3946 24.3232C71.3946 24.3979 71.3821 24.5036 71.3758 24.5845ZM68.8134 24.0183H70.4714C70.4373 23.8249 70.3355 23.6497 70.1839 23.5235C70.0322 23.3972 69.8405 23.3279 69.6424 23.3279C69.4444 23.3279 69.2526 23.3972 69.101 23.5235C68.9493 23.6497 68.8475 23.8249 68.8134 24.0183Z" fill="white"/>
<path d="M74.7911 22.446H73.3906V21.6309H77.2091V22.446H75.8086V25.9743H74.7911V22.446Z" fill="white"/>
<path d="M80.6278 24.5751H78.0779C78.1298 24.7824 78.2558 24.9641 78.4324 25.0865C78.6091 25.2089 78.8245 25.2638 79.0388 25.2409C79.1944 25.2467 79.3495 25.2215 79.4951 25.167C79.6407 25.1125 79.7738 25.0298 79.8867 24.9236L80.408 25.4774C80.2296 25.6631 80.0123 25.8077 79.7714 25.9013C79.5305 25.9948 79.2719 26.0349 79.0137 26.0188C78.7713 26.0421 78.5267 26.0152 78.2955 25.9396C78.0642 25.8641 77.8514 25.7416 77.6705 25.58C77.4897 25.4184 77.3449 25.2212 77.2452 25.0011C77.1456 24.7809 77.0934 24.5426 77.0919 24.3013C77.0891 24.0694 77.1341 23.8394 77.2241 23.6253C77.3141 23.4112 77.4473 23.2176 77.6154 23.0562C77.7836 22.8949 77.9831 22.7692 78.202 22.6869C78.4208 22.6046 78.6543 22.5674 78.8881 22.5776C79.1218 22.5651 79.3556 22.6014 79.5742 22.6841C79.7929 22.7669 79.9915 22.8942 80.1573 23.0579C80.3231 23.2216 80.4523 23.418 80.5366 23.6343C80.6209 23.8507 80.6584 24.0821 80.6466 24.3137C80.6278 24.3884 80.6278 24.4942 80.6278 24.5751ZM78.0654 24.0088H79.7234C79.6893 23.8155 79.5875 23.6403 79.4358 23.514C79.2842 23.3877 79.0925 23.3185 78.8944 23.3185C78.6963 23.3185 78.5046 23.3877 78.3529 23.514C78.2013 23.6403 78.0995 23.8155 78.0654 24.0088Z" fill="white"/>
<path d="M80.9727 25.6657L81.2992 24.975C81.6562 25.1801 82.061 25.2895 82.4737 25.2924C82.9258 25.2924 83.1017 25.1741 83.1017 24.9937C83.1017 24.4461 81.0606 24.9937 81.0606 23.6682C81.0606 23.046 81.6384 22.5855 82.6244 22.5855C83.0733 22.5769 83.5174 22.6773 83.9182 22.8779L83.5916 23.5687C83.2977 23.401 82.9635 23.315 82.6244 23.3197C82.1848 23.3197 81.9964 23.4566 81.9964 23.6309C81.9964 24.2034 84.0312 23.6309 84.0312 24.9688C84.0312 25.591 83.4471 26.0266 82.4423 26.0266C81.9288 26.0373 81.4217 25.9128 80.9727 25.6657Z" fill="white"/>
<path d="M86.8035 25.8135C86.5651 25.9619 86.2871 26.0356 86.0059 26.0251C85.8397 26.0486 85.6704 26.0343 85.5107 25.9834C85.351 25.9324 85.205 25.8461 85.084 25.731C84.9629 25.6158 84.8699 25.4749 84.812 25.3188C84.7541 25.1628 84.7328 24.9957 84.7498 24.8303V23.4551H84.2285V22.7084H84.7498V21.8994H85.7232V22.7084H86.5648V23.4551H85.7232V24.8179C85.7155 24.8753 85.7208 24.9337 85.7389 24.9887C85.7571 25.0438 85.7875 25.0941 85.8279 25.136C85.8683 25.1778 85.9177 25.2101 85.9724 25.2304C86.0272 25.2508 86.0858 25.2587 86.144 25.2535C86.286 25.2553 86.4248 25.2116 86.5397 25.129L86.8035 25.8135Z" fill="white"/>
<path d="M153.407 27.92C155.352 25.9929 155.352 22.8685 153.407 20.9414C151.462 19.0143 148.308 19.0143 146.363 20.9414C144.418 22.8685 144.418 25.9929 146.363 27.92C148.308 29.8471 151.462 29.8471 153.407 27.92Z" fill="white"/>
<path opacity="0.2" d="M154.297 22.1381L149.9 24.4405V19.5059C150.805 19.5074 151.693 19.7533 152.467 20.2171C153.242 20.6808 153.874 21.345 154.297 22.1381Z" fill="black"/>
</g>
<g filter="url(#filter1_dddd_268_4816)">
<circle cx="35.2549" cy="96.2549" r="30.2549" fill="white"/>
</g>
<path opacity="0.1" d="M24.6832 83.5687L13.3147 107.171C12.9572 107.913 12.8047 108.73 12.872 109.544C12.9392 110.359 13.224 111.142 13.6987 111.82C14.1734 112.498 14.822 113.047 15.5821 113.414C16.3421 113.781 17.1878 113.954 18.0376 113.916L46.7316 112.62C47.6292 112.58 48.4986 112.306 49.2464 111.828C49.9943 111.35 50.5925 110.685 50.9768 109.905C51.3611 109.125 51.5171 108.26 51.4279 107.401C51.3388 106.543 51.0079 105.723 50.4708 105.032L33.1539 82.7195C32.6414 82.0571 31.9581 81.5342 31.1713 81.2023C30.3845 80.8704 29.5213 80.7409 28.6665 80.8266C27.8118 80.9123 26.995 81.2102 26.2966 81.691C25.5981 82.1718 25.0421 82.819 24.6832 83.5687Z" fill="#263238"/>
<path d="M29.1024 77.2274L19.501 103.006C19.2011 103.811 19.1215 104.676 19.2697 105.519C19.4179 106.363 19.789 107.155 20.3474 107.821C20.9059 108.487 21.633 109.005 22.4592 109.324C23.2855 109.643 24.1832 109.753 25.0664 109.644L54.8221 105.981C55.7579 105.865 56.6435 105.508 57.3842 104.947C58.1248 104.386 58.6927 103.642 59.0269 102.795C59.3612 101.947 59.4492 101.029 59.2817 100.137C59.1142 99.2459 58.6975 98.4148 58.076 97.7332L37.9192 75.6091C37.3213 74.9539 36.5554 74.4601 35.6975 74.1768C34.8395 73.8935 33.9193 73.8305 33.0282 73.9941C32.1371 74.1577 31.306 74.5421 30.6173 75.1092C29.9287 75.6764 29.4064 76.4066 29.1024 77.2274Z" fill="#0CAF6F"/>
<path d="M25.2113 107.524C24.6735 107.588 24.1274 107.524 23.6216 107.337C23.1157 107.151 22.6659 106.846 22.3121 106.452C21.9582 106.084 21.7142 105.632 21.6061 105.142C21.498 104.652 21.5297 104.143 21.6979 103.669L31.3215 77.8149C31.4969 77.3527 31.8044 76.9473 32.2087 76.6452C32.6129 76.3431 33.0976 76.1564 33.6073 76.1065C34.1451 76.0412 34.6914 76.1049 35.1974 76.2919C35.7033 76.4789 36.1531 76.7834 36.5065 77.1781L56.7055 99.3586C57.0595 99.7263 57.3034 100.179 57.4115 100.669C57.5197 101.159 57.4879 101.668 57.3197 102.142C57.1451 102.604 56.8381 103.01 56.4339 103.313C56.0297 103.616 55.5447 103.803 55.0347 103.853L25.2113 107.524Z" fill="white"/>
<path d="M34.4095 84.1706L36.3047 83.936C36.8985 83.8674 37.4979 84.0111 37.9884 84.3396C38.479 84.6682 38.8264 85.1586 38.9644 85.7174L39.4748 88.0413C39.4948 88.1252 39.5084 88.2103 39.5154 88.2961L40.1263 95.5377C40.1649 96.0377 39.9987 96.5324 39.6631 96.9165C39.3275 97.3006 38.849 97.5437 38.3295 97.5941C37.7807 97.657 37.2259 97.5396 36.7554 97.2611C36.2849 96.9826 35.9265 96.5594 35.7384 96.0604L33.2363 89.0556C33.2073 88.9747 33.1843 88.8919 33.1677 88.8079L32.6534 86.4819C32.5943 86.2178 32.594 85.9447 32.6524 85.6805C32.7109 85.4163 32.8268 85.1669 32.9926 84.9487C33.1584 84.7305 33.3703 84.5484 33.6145 84.4143C33.8586 84.2802 34.1296 84.1972 34.4095 84.1706ZM38.5244 99.5959L39.0391 99.5316C39.5706 99.4702 40.107 99.5987 40.5461 99.8926C40.9853 100.187 41.2965 100.625 41.4206 101.125C41.4745 101.362 41.4756 101.607 41.4239 101.845C41.3721 102.082 41.2687 102.306 41.1203 102.503C40.972 102.699 40.7821 102.863 40.5631 102.984C40.3441 103.105 40.101 103.18 39.8496 103.204L39.3342 103.265C38.8031 103.327 38.2669 103.199 37.8278 102.906C37.3888 102.613 37.0775 102.174 36.9535 101.675C36.899 101.438 36.8975 101.192 36.9491 100.955C37.0006 100.717 37.104 100.493 37.2524 100.296C37.4008 100.1 37.591 99.9358 37.8102 99.8151C38.0295 99.6944 38.2729 99.6197 38.5244 99.5959Z" fill="#0CAF6F"/>
<g filter="url(#filter2_dddd_268_4816)">
<circle cx="172" cy="31" r="30" fill="white"/>
</g>
<path opacity="0.1" d="M166.323 18.5476L151.012 36.7236C150.531 37.2943 150.207 37.9777 150.071 38.7078C149.936 39.4379 149.994 40.1901 150.239 40.8917C150.485 41.5934 150.909 42.2208 151.472 42.7135C152.036 43.2062 152.718 43.5475 153.454 43.7044L178.299 48.999C179.076 49.1652 179.885 49.1197 180.637 48.8673C181.39 48.615 182.059 48.1654 182.573 47.5668C183.086 46.9681 183.424 46.2429 183.551 45.4691C183.678 44.6953 183.589 43.9019 183.294 43.1741L173.768 19.7007C173.487 19.0042 173.026 18.392 172.432 17.9242C171.838 17.4564 171.13 17.1492 170.379 17.0328C169.628 16.9164 168.859 16.9949 168.148 17.2605C167.437 17.5261 166.808 17.9697 166.323 18.5476Z" fill="#263238"/>
<path d="M171.601 13.9704L157.286 34.4528C156.838 35.0925 156.565 35.8347 156.492 36.6083C156.419 37.3819 156.549 38.161 156.869 38.8711C157.189 39.5811 157.688 40.1984 158.319 40.6637C158.95 41.1291 159.692 41.427 160.473 41.529L186.787 44.983C187.615 45.0916 188.457 44.9764 189.223 44.6497C189.989 44.323 190.651 43.797 191.138 43.1281C191.624 42.4591 191.917 41.6724 191.985 40.852C192.053 40.0316 191.893 39.2085 191.523 38.4707L179.524 14.5259C179.168 13.8166 178.63 13.2113 177.963 12.7703C177.297 12.3292 176.525 12.0676 175.724 12.0114C174.923 11.9553 174.121 12.1065 173.398 12.4502C172.675 12.7938 172.055 13.3178 171.601 13.9704Z" fill="#0CAF6F"/>
<path d="M161.101 39.6996C160.625 39.6359 160.173 39.4573 159.785 39.1797C159.397 38.9021 159.084 38.5342 158.875 38.1087C158.659 37.7064 158.558 37.2542 158.581 36.7999C158.605 36.3455 158.753 35.9058 159.009 35.5273L173.361 14.9832C173.621 14.6167 173.979 14.3297 174.397 14.1551C174.814 13.9804 175.273 13.9251 175.72 13.9956C176.196 14.0588 176.648 14.2372 177.036 14.5148C177.425 14.7924 177.737 15.1606 177.946 15.5865L189.967 39.5901C190.183 39.9924 190.285 40.4446 190.261 40.899C190.237 41.3533 190.09 41.793 189.834 42.1715C189.575 42.5387 189.216 42.8265 188.799 43.0017C188.381 43.1769 187.922 43.2324 187.474 43.1619L161.101 39.6996Z" fill="white"/>
<path d="M174.498 21.258L176.175 21.4768C176.699 21.5497 177.177 21.8102 177.519 22.2087C177.861 22.6071 178.042 23.1157 178.027 23.6373L177.914 25.7921C177.911 25.8703 177.902 25.9481 177.888 26.025L176.695 32.5205C176.61 32.9681 176.351 33.3653 175.973 33.6273C175.595 33.8893 175.128 33.9956 174.672 33.9234C174.188 33.8555 173.741 33.6281 173.405 33.2781C173.068 32.9281 172.862 32.4761 172.819 31.9958L172.338 25.2843C172.333 25.2068 172.333 25.1289 172.338 25.0514L172.449 22.8937C172.461 22.6486 172.526 22.4088 172.638 22.1899C172.751 21.971 172.909 21.778 173.102 21.6236C173.296 21.4692 173.52 21.3568 173.761 21.2938C174.001 21.2308 174.253 21.2186 174.498 21.258ZM174.365 35.7247L174.82 35.7836C175.289 35.8489 175.717 36.082 176.023 36.4385C176.329 36.795 176.491 37.25 176.479 37.7168C176.469 37.937 176.412 38.1525 176.312 38.3494C176.211 38.5462 176.07 38.7199 175.896 38.859C175.723 38.9981 175.522 39.0995 175.306 39.1565C175.09 39.2135 174.864 39.2249 174.643 39.1899L174.188 39.1282C173.719 39.0635 173.291 38.831 172.985 38.475C172.679 38.1189 172.517 37.6643 172.529 37.1978C172.538 36.9775 172.595 36.7617 172.696 36.5646C172.796 36.3675 172.937 36.1937 173.111 36.0545C173.284 35.9153 173.486 35.8139 173.702 35.7571C173.918 35.7002 174.144 35.6892 174.365 35.7247Z" fill="#0CAF6F"/>
<defs>
<filter id="filter0_dddd_268_4816" x="36" y="6" width="137" height="138.374" filterUnits="userSpaceOnUse" color-interpolation-filters="sRGB">
<feFlood flood-opacity="0" result="BackgroundImageFix"/>
<feColorMatrix in="SourceAlpha" type="matrix" values="0 0 0 0 0 0 0 0 0 0 0 0 0 0 0 0 0 0 127 0" result="hardAlpha"/>
<feOffset dy="1"/>
<feGaussianBlur stdDeviation="1"/>
<feColorMatrix type="matrix" values="0 0 0 0 0 0 0 0 0 0 0 0 0 0 0 0 0 0 0.1 0"/>
<feBlend mode="normal" in2="BackgroundImageFix" result="effect1_dropShadow_268_4816"/>
<feColorMatrix in="SourceAlpha" type="matrix" values="0 0 0 0 0 0 0 0 0 0 0 0 0 0 0 0 0 0 127 0" result="hardAlpha"/>
<feOffset dy="4"/>
<feGaussianBlur stdDeviation="2"/>
<feColorMatrix type="matrix" values="0 0 0 0 0 0 0 0 0 0 0 0 0 0 0 0 0 0 0.09 0"/>
<feBlend mode="normal" in2="effect1_dropShadow_268_4816" result="effect2_dropShadow_268_4816"/>
<feColorMatrix in="SourceAlpha" type="matrix" values="0 0 0 0 0 0 0 0 0 0 0 0 0 0 0 0 0 0 127 0" result="hardAlpha"/>
<feOffset dy="8"/>
<feGaussianBlur stdDeviation="2.5"/>
<feColorMatrix type="matrix" values="0 0 0 0 0 0 0 0 0 0 0 0 0 0 0 0 0 0 0.05 0"/>
<feBlend mode="normal" in2="effect2_dropShadow_268_4816" result="effect3_dropShadow_268_4816"/>
<feColorMatrix in="SourceAlpha" type="matrix" values="0 0 0 0 0 0 0 0 0 0 0 0 0 0 0 0 0 0 127 0" result="hardAlpha"/>
<feOffset dy="14"/>
<feGaussianBlur stdDeviation="3"/>
<feColorMatrix type="matrix" values="0 0 0 0 0 0 0 0 0 0 0 0 0 0 0 0 0 0 0.01 0"/>
<feBlend mode="normal" in2="effect3_dropShadow_268_4816" result="effect4_dropShadow_268_4816"/>
<feBlend mode="normal" in="SourceGraphic" in2="effect4_dropShadow_268_4816" result="shape"/>
</filter>
<filter id="filter1_dddd_268_4816" x="0" y="65" width="70.5098" height="80.5098" filterUnits="userSpaceOnUse" color-interpolation-filters="sRGB">
<feFlood flood-opacity="0" result="BackgroundImageFix"/>
<feColorMatrix in="SourceAlpha" type="matrix" values="0 0 0 0 0 0 0 0 0 0 0 0 0 0 0 0 0 0 127 0" result="hardAlpha"/>
<feOffset dy="1"/>
<feGaussianBlur stdDeviation="1"/>
<feColorMatrix type="matrix" values="0 0 0 0 0 0 0 0 0 0 0 0 0 0 0 0 0 0 0.1 0"/>
<feBlend mode="normal" in2="BackgroundImageFix" result="effect1_dropShadow_268_4816"/>
<feColorMatrix in="SourceAlpha" type="matrix" values="0 0 0 0 0 0 0 0 0 0 0 0 0 0 0 0 0 0 127 0" result="hardAlpha"/>
<feOffset dy="3"/>
<feGaussianBlur stdDeviation="1.5"/>
<feColorMatrix type="matrix" values="0 0 0 0 0 0 0 0 0 0 0 0 0 0 0 0 0 0 0.09 0"/>
<feBlend mode="normal" in2="effect1_dropShadow_268_4816" result="effect2_dropShadow_268_4816"/>
<feColorMatrix in="SourceAlpha" type="matrix" values="0 0 0 0 0 0 0 0 0 0 0 0 0 0 0 0 0 0 127 0" result="hardAlpha"/>
<feOffset dy="8"/>
<feGaussianBlur stdDeviation="2.5"/>
<feColorMatrix type="matrix" values="0 0 0 0 0 0 0 0 0 0 0 0 0 0 0 0 0 0 0.05 0"/>
<feBlend mode="normal" in2="effect2_dropShadow_268_4816" result="effect3_dropShadow_268_4816"/>
<feColorMatrix in="SourceAlpha" type="matrix" values="0 0 0 0 0 0 0 0 0 0 0 0 0 0 0 0 0 0 127 0" result="hardAlpha"/>
<feOffset dy="14"/>
<feGaussianBlur stdDeviation="2.5"/>
<feColorMatrix type="matrix" values="0 0 0 0 0 0 0 0 0 0 0 0 0 0 0 0 0 0 0.01 0"/>
<feBlend mode="normal" in2="effect3_dropShadow_268_4816" result="effect4_dropShadow_268_4816"/>
<feBlend mode="normal" in="SourceGraphic" in2="effect4_dropShadow_268_4816" result="shape"/>
</filter>
<filter id="filter2_dddd_268_4816" x="137" y="0" width="70" height="80" filterUnits="userSpaceOnUse" color-interpolation-filters="sRGB">
<feFlood flood-opacity="0" result="BackgroundImageFix"/>
<feColorMatrix in="SourceAlpha" type="matrix" values="0 0 0 0 0 0 0 0 0 0 0 0 0 0 0 0 0 0 127 0" result="hardAlpha"/>
<feOffset dy="1"/>
<feGaussianBlur stdDeviation="1"/>
<feColorMatrix type="matrix" values="0 0 0 0 0 0 0 0 0 0 0 0 0 0 0 0 0 0 0.1 0"/>
<feBlend mode="normal" in2="BackgroundImageFix" result="effect1_dropShadow_268_4816"/>
<feColorMatrix in="SourceAlpha" type="matrix" values="0 0 0 0 0 0 0 0 0 0 0 0 0 0 0 0 0 0 127 0" result="hardAlpha"/>
<feOffset dy="3"/>
<feGaussianBlur stdDeviation="1.5"/>
<feColorMatrix type="matrix" values="0 0 0 0 0 0 0 0 0 0 0 0 0 0 0 0 0 0 0.09 0"/>
<feBlend mode="normal" in2="effect1_dropShadow_268_4816" result="effect2_dropShadow_268_4816"/>
<feColorMatrix in="SourceAlpha" type="matrix" values="0 0 0 0 0 0 0 0 0 0 0 0 0 0 0 0 0 0 127 0" result="hardAlpha"/>
<feOffset dy="8"/>
<feGaussianBlur stdDeviation="2.5"/>
<feColorMatrix type="matrix" values="0 0 0 0 0 0 0 0 0 0 0 0 0 0 0 0 0 0 0.05 0"/>
<feBlend mode="normal" in2="effect2_dropShadow_268_4816" result="effect3_dropShadow_268_4816"/>
<feColorMatrix in="SourceAlpha" type="matrix" values="0 0 0 0 0 0 0 0 0 0 0 0 0 0 0 0 0 0 127 0" result="hardAlpha"/>
<feOffset dy="14"/>
<feGaussianBlur stdDeviation="2.5"/>
<feColorMatrix type="matrix" values="0 0 0 0 0 0 0 0 0 0 0 0 0 0 0 0 0 0 0.01 0"/>
<feBlend mode="normal" in2="effect3_dropShadow_268_4816" result="effect4_dropShadow_268_4816"/>
<feBlend mode="normal" in="SourceGraphic" in2="effect4_dropShadow_268_4816" result="shape"/>
</filter>
</defs>
</svg>
