<svg width="56" height="56" viewBox="0 0 56 56" fill="none" xmlns="http://www.w3.org/2000/svg">
<rect width="56" height="56" rx="8" fill="#0CAF6F" fill-opacity="0.2"/>
<path d="M28 18L28.117 18.007C28.3402 18.0333 28.5481 18.1341 28.707 18.293C28.8659 18.4519 28.9667 18.6598 28.993 18.883L29 19V23L29.005 23.15C29.0408 23.6262 29.2458 24.0738 29.5829 24.412C29.92 24.7502 30.3669 24.9567 30.843 24.994L31 25H35L35.117 25.007C35.3402 25.0333 35.5481 25.1341 35.707 25.293C35.8659 25.4519 35.9667 25.6598 35.993 25.883L36 26V35C36 35.7652 35.7077 36.5015 35.1827 37.0583C34.6578 37.615 33.9399 37.9501 33.176 37.995L33 38H23C22.2348 38 21.4985 37.7077 20.9417 37.1827C20.385 36.6578 20.0499 35.9399 20.005 35.176L20 35V21C20 20.2348 20.2923 19.4985 20.8173 18.9417C21.3422 18.385 22.0601 18.0499 22.824 18.005L23 18H28Z" fill="#0CAF6F"/>
<path d="M34.999 23H30.999L30.998 18.999L34.999 23Z" fill="#0CAF6F"/>
</svg>
