<svg width="24" height="24" viewBox="0 0 24 24" fill="none" xmlns="http://www.w3.org/2000/svg">
<path d="M12 15.575C11.8667 15.575 11.7417 15.5543 11.625 15.513C11.5083 15.4717 11.4 15.4007 11.3 15.3L7.7 11.7C7.5 11.5 7.404 11.2667 7.412 11C7.42 10.7333 7.516 10.5 7.7 10.3C7.9 10.1 8.13767 9.996 8.413 9.988C8.68833 9.98 8.92567 10.0757 9.125 10.275L11 12.15V5C11 4.71667 11.096 4.47934 11.288 4.288C11.48 4.09667 11.7173 4.00067 12 4C12.2827 3.99934 12.5203 4.09534 12.713 4.288C12.9057 4.48067 13.0013 4.718 13 5V12.15L14.875 10.275C15.075 10.075 15.3127 9.979 15.588 9.987C15.8633 9.995 16.1007 10.0993 16.3 10.3C16.4833 10.5 16.5793 10.7333 16.588 11C16.5967 11.2667 16.5007 11.5 16.3 11.7L12.7 15.3C12.6 15.4 12.4917 15.471 12.375 15.513C12.2583 15.555 12.1333 15.5757 12 15.575ZM6 20C5.45 20 4.97933 19.8043 4.588 19.413C4.19667 19.0217 4.00067 18.5507 4 18V16C4 15.7167 4.096 15.4793 4.288 15.288C4.48 15.0967 4.71733 15.0007 5 15C5.28267 14.9993 5.52033 15.0953 5.713 15.288C5.90567 15.4807 6.00133 15.718 6 16V18H18V16C18 15.7167 18.096 15.4793 18.288 15.288C18.48 15.0967 18.7173 15.0007 19 15C19.2827 14.9993 19.5203 15.0953 19.713 15.288C19.9057 15.4807 20.0013 15.718 20 16V18C20 18.55 19.8043 19.021 19.413 19.413C19.0217 19.805 18.5507 20.0007 18 20H6Z" fill="#1E1E1E"/>
</svg>
