<svg width="16" height="16" viewBox="0 0 16 16" fill="none" xmlns="http://www.w3.org/2000/svg">
<g clip-path="url(#clip0_508_960)">
<mask id="mask0_508_960" style="mask-type:luminance" maskUnits="userSpaceOnUse" x="0" y="0" width="16" height="16">
<path d="M7.99968 14.6663C8.87532 14.6674 9.74254 14.4955 10.5515 14.1604C11.3605 13.8253 12.0953 13.3336 12.7137 12.7137C13.3336 12.0953 13.8253 11.3605 14.1604 10.5515C14.4955 9.74254 14.6674 8.87532 14.6663 7.99968C14.6674 7.12404 14.4955 6.25682 14.1604 5.44784C13.8253 4.63886 13.3336 3.90407 12.7137 3.28568C12.0953 2.66573 11.3605 2.17409 10.5515 1.83898C9.74254 1.50388 8.87532 1.33193 7.99968 1.33301C7.12404 1.33193 6.25682 1.50388 5.44784 1.83898C4.63886 2.17409 3.90407 2.66573 3.28568 3.28568C2.66573 3.90407 2.17409 4.63886 1.83898 5.44784C1.50388 6.25682 1.33193 7.12404 1.33301 7.99968C1.33193 8.87532 1.50388 9.74254 1.83898 10.5515C2.17409 11.3605 2.66573 12.0953 3.28568 12.7137C3.90407 13.3336 4.63886 13.8253 5.44784 14.1604C6.25682 14.4955 7.12404 14.6674 7.99968 14.6663Z" fill="white" stroke="white" stroke-width="2" stroke-linejoin="round"/>
<path d="M5.33301 8L7.33301 10L11.333 6" stroke="black" stroke-width="2" stroke-linecap="round" stroke-linejoin="round"/>
</mask>
<g mask="url(#mask0_508_960)">
<path d="M0 0H16V16H0V0Z" fill="#0CAF6F"/>
</g>
</g>
<defs>
<clipPath id="clip0_508_960">
<rect width="16" height="16" fill="white"/>
</clipPath>
</defs>
</svg>
