<svg width="27" height="27" viewBox="0 0 27 27" fill="none" xmlns="http://www.w3.org/2000/svg">
<path d="M12.5347 21.5476L22.396 11.6863C20.737 10.9933 19.2303 9.98123 17.9613 8.70763C16.6871 7.43836 15.6746 5.93116 14.9813 4.27163L5.11999 14.133C4.35066 14.9023 3.96533 15.2876 3.63466 15.7116C3.24452 16.2123 2.90968 16.7536 2.63599 17.3263C2.40533 17.8116 2.23333 18.329 1.88933 19.361L0.0733274 24.805C-0.0102543 25.0542 -0.0226549 25.3219 0.0375191 25.5778C0.0976931 25.8337 0.228057 26.0678 0.413956 26.2537C0.599855 26.4396 0.833921 26.5699 1.08984 26.6301C1.34577 26.6903 1.6134 26.6779 1.86266 26.5943L7.30666 24.7783C8.33999 24.4343 8.85599 24.2623 9.34133 24.0316C9.91644 23.7579 10.4547 23.425 10.956 23.033C11.38 22.7023 11.7653 22.317 12.5347 21.5476ZM25.132 8.95029C26.1152 7.96705 26.6676 6.63348 26.6676 5.24296C26.6676 3.85244 26.1152 2.51887 25.132 1.53563C24.1487 0.552382 22.8152 1.03602e-08 21.4247 0C20.0341 -1.03602e-08 18.7006 0.552382 17.7173 1.53563L16.5347 2.71829L16.5853 2.86629C17.168 4.534 18.1217 6.04761 19.3747 7.29296C20.6572 8.58338 22.2239 9.55595 23.9493 10.133L25.132 8.95029Z" fill="#0CAF6F"/>
</svg>
