<svg width="28" height="27" viewBox="0 0 28 27" fill="none" xmlns="http://www.w3.org/2000/svg">
<path d="M0 26.6667V25H18.3333V26.6667H0ZM20.005 15C17.9306 15 16.1611 14.2694 14.6967 12.8083C13.2322 11.3461 12.5 9.57778 12.5 7.50333C12.5 5.42889 13.2311 3.65945 14.6933 2.195C16.1556 0.730557 17.9228 -0.00110985 19.995 1.26358e-06C22.0694 1.26358e-06 23.8389 0.731112 25.3033 2.19333C26.7678 3.65333 27.5 5.42056 27.5 7.495C27.5 9.56945 26.7694 11.3389 25.3083 12.8033C23.8472 14.2678 22.0794 15 20.005 15ZM0 13.3333V11.6667H8.96167C9.07055 11.9778 9.19111 12.2672 9.32333 12.535C9.45667 12.8017 9.60778 13.0678 9.77667 13.3333H0ZM0 20V18.3333H15.4433C15.8889 18.53 16.3556 18.7017 16.8433 18.8483C17.3311 18.995 17.8278 19.1022 18.3333 19.17V20H0ZM19.36 12.3083H20.6417V6.345H19.3583L19.36 12.3083ZM20 4.48667C20.2222 4.48667 20.4167 4.40333 20.5833 4.23667C20.75 4.07 20.8333 3.87556 20.8333 3.65333C20.8333 3.43111 20.75 3.23667 20.5833 3.07C20.4167 2.90333 20.2222 2.82 20 2.82C19.7778 2.82 19.5833 2.90333 19.4167 3.07C19.25 3.23667 19.1667 3.43111 19.1667 3.65333C19.1667 3.87556 19.25 4.07 19.4167 4.23667C19.5833 4.40333 19.7778 4.48667 20 4.48667Z" fill="#0CAF6F"/>
</svg>
