<svg width="17" height="27" viewBox="0 0 17 27" fill="none" xmlns="http://www.w3.org/2000/svg">
<path d="M11.4938 22.9568C11.4938 23.8055 11.1566 24.6195 10.5565 25.2196C9.95638 25.8197 9.14244 26.1568 8.29375 26.1568C7.44506 26.1568 6.63112 25.8197 6.03101 25.2196C5.43089 24.6195 5.09375 23.8055 5.09375 22.9568C5.09375 22.1081 5.43089 21.2942 6.03101 20.6941C6.63112 20.094 7.44506 19.7568 8.29375 19.7568C9.14244 19.7568 9.95638 20.094 10.5565 20.6941C11.1566 21.2942 11.4938 22.1081 11.4938 22.9568Z" fill="#0CAF6F"/>
<path fill-rule="evenodd" clip-rule="evenodd" d="M8.24656 4.64C7.17456 4.64 6.25456 4.96 5.60656 5.4176C4.98256 5.8592 4.67376 6.3728 4.58416 6.816C4.45177 7.40842 4.09245 7.92536 3.5833 8.2559C3.07415 8.58645 2.45573 8.70427 1.86071 8.58409C1.26569 8.46392 0.741473 8.11531 0.400523 7.61307C0.0595721 7.11083 -0.0709498 6.49497 0.0369592 5.8976C0.400159 4.096 1.51696 2.6256 2.93136 1.6256C4.40336 0.5856 6.26896 0 8.24656 0C12.3378 0 16.5794 2.736 16.5794 7.1296C16.5794 9.6736 15.0674 11.7312 13.109 12.9312C12.584 13.2524 11.953 13.352 11.3547 13.208C10.7564 13.0639 10.2398 12.6881 9.91856 12.1632C9.59733 11.6383 9.49778 11.0073 9.64181 10.4089C9.78583 9.81063 10.1616 9.29403 10.6866 8.9728C11.5986 8.4144 11.9394 7.7024 11.9394 7.1296C11.9394 6.2112 10.7954 4.64 8.24656 4.64Z" fill="#0CAF6F"/>
<path fill-rule="evenodd" clip-rule="evenodd" d="M8.24578 10.8242C9.52578 10.8242 10.5658 11.861 10.5658 13.1442V15.5474C10.5658 16.1627 10.3214 16.7528 9.88627 17.1879C9.45118 17.623 8.86108 17.8674 8.24578 17.8674C7.63048 17.8674 7.04038 17.623 6.60529 17.1879C6.17021 16.7528 5.92578 16.1627 5.92578 15.5474V13.1442C5.92578 11.8642 6.96418 10.8242 8.24578 10.8242Z" fill="#0CAF6F"/>
<path fill-rule="evenodd" clip-rule="evenodd" d="M13.8922 9.76141C14.0489 10.023 14.1526 10.3128 14.1972 10.6144C14.2418 10.9161 14.2265 11.2235 14.1522 11.5192C14.0779 11.815 13.9461 12.0931 13.7642 12.3378C13.5823 12.5825 13.354 12.789 13.0922 12.9454L9.43782 15.1326C8.90993 15.4488 8.27808 15.5422 7.68127 15.3925C7.08445 15.2428 6.57156 14.8621 6.25542 14.3342C5.93928 13.8063 5.8458 13.1745 5.99553 12.5777C6.14525 11.9808 6.52593 11.468 7.05382 11.1518L10.7098 8.96301C10.9713 8.80654 11.261 8.70311 11.5625 8.65864C11.8639 8.61416 12.1712 8.6295 12.4667 8.70379C12.7623 8.77808 13.0403 8.90986 13.2848 9.09161C13.5294 9.27335 13.7358 9.49989 13.8922 9.76141Z" fill="#0CAF6F"/>
</svg>
