<svg width="14" height="15" viewBox="0 0 14 15" fill="none" xmlns="http://www.w3.org/2000/svg">
<path fill-rule="evenodd" clip-rule="evenodd" d="M5.83126 0.519264C5.87029 0.691651 5.83926 0.87248 5.745 1.022C5.65074 1.17151 5.50096 1.27748 5.3286 1.3166C5.19778 1.34636 5.06813 1.38105 4.93993 1.4206C4.85628 1.44642 4.76836 1.45552 4.68119 1.44737C4.59402 1.43922 4.50931 1.41398 4.4319 1.37309C4.35449 1.3322 4.28589 1.27646 4.23001 1.20906C4.17414 1.14166 4.13209 1.06392 4.10626 0.980264C4.08044 0.896612 4.07134 0.808692 4.07949 0.721524C4.08764 0.634357 4.11288 0.549648 4.15377 0.472235C4.19466 0.394822 4.2504 0.32622 4.3178 0.270347C4.3852 0.214474 4.46295 0.172424 4.5466 0.146598C4.7066 0.0968199 4.86882 0.0534864 5.03326 0.0165975C5.11867 -0.00282444 5.20706 -0.00522714 5.2934 0.0095265C5.37973 0.0242801 5.46231 0.055901 5.53642 0.102582C5.61053 0.149264 5.67471 0.21009 5.7253 0.281586C5.77589 0.353083 5.8119 0.433847 5.83126 0.519264ZM7.19793 0.519264C7.23705 0.346898 7.34301 0.197121 7.49253 0.10286C7.64205 0.00859949 7.82288 -0.0224285 7.99526 0.0165975C10.9646 0.689931 13.1819 3.3446 13.1819 6.51793C13.1819 10.1999 10.1966 13.1846 6.51526 13.1846C3.34126 13.1846 0.686597 10.9679 0.0132635 7.9986C-0.0212975 7.82792 0.0122979 7.65049 0.106865 7.50426C0.201431 7.35803 0.349462 7.25461 0.519296 7.21612C0.689131 7.17762 0.867288 7.20711 1.01566 7.29827C1.16404 7.38943 1.27085 7.53503 1.31326 7.70393C1.52541 8.6331 1.98267 9.48845 2.63746 10.181C3.29226 10.8735 4.12068 11.3779 5.03652 11.6417C5.95236 11.9056 6.92216 11.9191 7.84503 11.6811C8.76789 11.443 9.6101 10.962 10.284 10.288C10.958 9.61411 11.439 8.7719 11.6771 7.84903C11.9151 6.92616 11.9016 5.95636 11.6377 5.04052C11.3739 4.12468 10.8695 3.29626 10.177 2.64146C9.48445 1.98667 8.6291 1.52941 7.69993 1.31726C7.52754 1.278 7.37781 1.17188 7.28367 1.02223C7.18953 0.872573 7.15869 0.691654 7.19793 0.519264ZM2.92393 1.6646C2.98355 1.72879 3.02993 1.80411 3.06043 1.88624C3.09092 1.96837 3.10493 2.05571 3.10165 2.14325C3.09837 2.2308 3.07786 2.31685 3.0413 2.39646C3.00475 2.47608 2.95286 2.54771 2.8886 2.60726C2.78993 2.69838 2.69504 2.79304 2.60393 2.89126C2.48282 3.01728 2.31708 3.09069 2.14237 3.0957C1.96767 3.10072 1.79799 3.03692 1.66986 2.91805C1.54173 2.79919 1.4654 2.63476 1.45731 2.46017C1.44922 2.28559 1.51001 2.1148 1.6266 1.9846C1.73993 1.86193 1.85815 1.74349 1.98126 1.62926C2.04546 1.56964 2.12077 1.52326 2.2029 1.49277C2.28504 1.46227 2.37237 1.44826 2.45992 1.45155C2.54747 1.45483 2.63351 1.47533 2.71313 1.51189C2.79275 1.54845 2.86438 1.60034 2.92393 1.6646ZM6.5146 2.51793C6.69141 2.51793 6.86098 2.58817 6.986 2.71319C7.11103 2.83822 7.18126 3.00779 7.18126 3.1846V6.24193L8.98593 8.0466C9.10737 8.17233 9.17457 8.34073 9.17305 8.51553C9.17153 8.69033 9.10141 8.85754 8.97781 8.98114C8.8542 9.10475 8.687 9.17486 8.5122 9.17638C8.3374 9.1779 8.169 9.1107 8.04326 8.98926L6.04326 6.98926C5.91823 6.86427 5.84797 6.69473 5.84793 6.51793V3.1846C5.84793 3.00779 5.91817 2.83822 6.04319 2.71319C6.16822 2.58817 6.33779 2.51793 6.5146 2.51793ZM0.976597 4.10993C1.14552 4.16202 1.28685 4.27908 1.36948 4.43535C1.45212 4.59162 1.46931 4.77432 1.41726 4.94326C1.37772 5.07147 1.34303 5.20111 1.31326 5.33193C1.27085 5.50083 1.16404 5.64643 1.01566 5.73759C0.867288 5.82876 0.689131 5.85824 0.519296 5.81975C0.349462 5.78125 0.201431 5.67783 0.106865 5.5316C0.0122979 5.38537 -0.0212975 5.20794 0.0132635 5.03726C0.0505968 4.87282 0.0939303 4.7106 0.143264 4.5506C0.195357 4.38167 0.31241 4.24035 0.468684 4.15771C0.624957 4.07507 0.807654 4.05789 0.976597 4.10993Z" fill="white"/>
</svg>
