<svg width="16" height="16" viewBox="0 0 16 16" fill="none" xmlns="http://www.w3.org/2000/svg">
<g clip-path="url(#clip0_508_577)">
<path d="M14 2V15H3.5C3.10218 15 2.72064 14.842 2.43934 14.5607C2.15804 14.2794 2 13.8978 2 13.5C2 13.1022 2.15804 12.7206 2.43934 12.4393C2.72064 12.158 3.10218 12 3.5 12H13V0H3C1.9 0 1 0.9 1 2V14C1 15.1 1.9 16 3 16H15V2H14Z" fill="#737373"/>
<path d="M3.50098 13C3.36837 13 3.24119 13.0527 3.14742 13.1464C3.05366 13.2402 3.00098 13.3674 3.00098 13.5C3.00098 13.6326 3.05366 13.7598 3.14742 13.8536C3.24119 13.9473 3.36837 14 3.50098 14H13V13H3.50098Z" fill="#737373"/>
</g>
<defs>
<clipPath id="clip0_508_577">
<rect width="16" height="16" fill="white"/>
</clipPath>
</defs>
</svg>
