<svg width="24" height="24" viewBox="0 0 24 24" fill="none" xmlns="http://www.w3.org/2000/svg">
<path d="M14 15C14.2833 15 14.5293 14.896 14.738 14.688C14.9467 14.48 15.0507 14.234 15.05 13.95C15.0493 13.666 14.9453 13.4203 14.738 13.213C14.5307 13.0057 14.2847 12.9013 14 12.9C13.7153 12.8987 13.4697 13.003 13.263 13.213C13.0563 13.423 12.952 13.6687 12.95 13.95C12.948 14.2313 13.0523 14.4773 13.263 14.688C13.4737 14.8987 13.7193 15.0027 14 15ZM14 11.8C14.1833 11.8 14.3543 11.7333 14.513 11.6C14.6717 11.4667 14.7673 11.2917 14.8 11.075C14.8333 10.875 14.904 10.6917 15.012 10.525C15.12 10.3583 15.316 10.1333 15.6 9.85C16.1 9.35 16.4333 8.94567 16.6 8.637C16.7667 8.32833 16.85 7.966 16.85 7.55C16.85 6.8 16.5873 6.18733 16.062 5.712C15.5367 5.23667 14.8493 4.99933 14 5C13.45 5 12.95 5.125 12.5 5.375C12.05 5.625 11.6917 5.98333 11.425 6.45C11.325 6.61667 11.3167 6.79167 11.4 6.975C11.4833 7.15833 11.625 7.29167 11.825 7.375C12.0083 7.45833 12.1877 7.46667 12.363 7.4C12.5383 7.33333 12.684 7.21667 12.8 7.05C12.95 6.83333 13.125 6.671 13.325 6.563C13.525 6.455 13.75 6.40067 14 6.4C14.4 6.4 14.725 6.51267 14.975 6.738C15.225 6.96333 15.35 7.26733 15.35 7.65C15.35 7.88333 15.2833 8.10433 15.15 8.313C15.0167 8.52167 14.7833 8.784 14.45 9.1C13.9667 9.51667 13.6583 9.83767 13.525 10.063C13.3917 10.2883 13.3083 10.6173 13.275 11.05C13.2583 11.25 13.321 11.425 13.463 11.575C13.605 11.725 13.784 11.8 14 11.8ZM8 18C7.45 18 6.97933 17.8043 6.588 17.413C6.19667 17.0217 6.00067 16.5507 6 16V4C6 3.45 6.196 2.97933 6.588 2.588C6.98 2.19667 7.45067 2.00067 8 2H20C20.55 2 21.021 2.196 21.413 2.588C21.805 2.98 22.0007 3.45067 22 4V16C22 16.55 21.8043 17.021 21.413 17.413C21.0217 17.805 20.5507 18.0007 20 18H8ZM4 22C3.45 22 2.97933 21.8043 2.588 21.413C2.19667 21.0217 2.00067 20.5507 2 20V7C2 6.71667 2.096 6.47933 2.288 6.288C2.48 6.09667 2.71733 6.00067 3 6C3.28267 5.99933 3.52033 6.09533 3.713 6.288C3.90567 6.48067 4.00133 6.718 4 7V20H17C17.2833 20 17.521 20.096 17.713 20.288C17.905 20.48 18.0007 20.7173 18 21C17.9993 21.2827 17.9033 21.5203 17.712 21.713C17.5207 21.9057 17.2833 22.0013 17 22H4Z" fill="#737373"/>
</svg>
