<svg width="16" height="16" viewBox="0 0 16 16" fill="none" xmlns="http://www.w3.org/2000/svg">
<path d="M9.33301 9.99967C9.5219 9.99967 9.6859 9.93034 9.82501 9.79167C9.96412 9.65301 10.0335 9.48901 10.033 9.29967C10.0326 9.11034 9.96323 8.94656 9.82501 8.80834C9.68679 8.67012 9.52279 8.60056 9.33301 8.59967C9.14323 8.59879 8.97945 8.66834 8.84167 8.80834C8.7039 8.94834 8.63434 9.11212 8.63301 9.29967C8.63167 9.48723 8.70123 9.65123 8.84167 9.79167C8.98212 9.93212 9.1459 10.0015 9.33301 9.99967ZM9.33301 7.86634C9.45523 7.86634 9.56923 7.8219 9.67501 7.73301C9.78079 7.64412 9.84456 7.52745 9.86634 7.38301C9.88856 7.24967 9.93567 7.12745 10.0077 7.01634C10.0797 6.90523 10.2103 6.75523 10.3997 6.56634C10.733 6.23301 10.9552 5.96345 11.0663 5.75767C11.1775 5.5519 11.233 5.31034 11.233 5.03301C11.233 4.53301 11.0579 4.12456 10.7077 3.80767C10.3575 3.49079 9.89923 3.33256 9.33301 3.33301C8.96634 3.33301 8.63301 3.41634 8.33301 3.58301C8.03301 3.74967 7.79412 3.98856 7.61634 4.29967C7.54967 4.41079 7.54412 4.52745 7.59967 4.64967C7.65523 4.7719 7.74967 4.86079 7.88301 4.91634C8.00523 4.9719 8.12479 4.97745 8.24167 4.93301C8.35856 4.88856 8.45567 4.81079 8.53301 4.69967C8.63301 4.55523 8.74967 4.44701 8.88301 4.37501C9.01634 4.30301 9.16634 4.26679 9.33301 4.26634C9.59968 4.26634 9.81634 4.34145 9.98301 4.49167C10.1497 4.6419 10.233 4.84456 10.233 5.09967C10.233 5.25523 10.1886 5.40256 10.0997 5.54167C10.0108 5.68079 9.85523 5.85567 9.63301 6.06634C9.31079 6.34412 9.10523 6.55812 9.01634 6.70834C8.92745 6.85856 8.8719 7.0779 8.84967 7.36634C8.83856 7.49967 8.88034 7.61634 8.97501 7.71634C9.06967 7.81634 9.18901 7.86634 9.33301 7.86634ZM5.33301 11.9997C4.96634 11.9997 4.65256 11.8692 4.39167 11.6083C4.13079 11.3475 4.00012 11.0335 3.99967 10.6663V2.66634C3.99967 2.29967 4.13034 1.9859 4.39167 1.72501C4.65301 1.46412 4.96679 1.33345 5.33301 1.33301H13.333C13.6997 1.33301 14.0137 1.46367 14.275 1.72501C14.5363 1.98634 14.6668 2.30012 14.6663 2.66634V10.6663C14.6663 11.033 14.5359 11.347 14.275 11.6083C14.0141 11.8697 13.7001 12.0001 13.333 11.9997H5.33301ZM2.66634 14.6663C2.29967 14.6663 1.9859 14.5359 1.72501 14.275C1.46412 14.0141 1.33345 13.7001 1.33301 13.333V4.66634C1.33301 4.47745 1.39701 4.31923 1.52501 4.19167C1.65301 4.06412 1.81123 4.00012 1.99967 3.99967C2.18812 3.99923 2.34656 4.06323 2.47501 4.19167C2.60345 4.32012 2.66723 4.47834 2.66634 4.66634V13.333H11.333C11.5219 13.333 11.6803 13.397 11.8083 13.525C11.9363 13.653 12.0001 13.8112 11.9997 13.9997C11.9992 14.1881 11.9352 14.3466 11.8077 14.475C11.6801 14.6035 11.5219 14.6672 11.333 14.6663H2.66634Z" fill="#737373"/>
</svg>
