<svg width="20" height="20" viewBox="0 0 20 20" fill="none" xmlns="http://www.w3.org/2000/svg">
<path d="M10 11.4L12.9 14.3C13.0833 14.4833 13.3167 14.575 13.6 14.575C13.8833 14.575 14.1167 14.4833 14.3 14.3C14.4833 14.1167 14.575 13.8833 14.575 13.6C14.575 13.3167 14.4833 13.0833 14.3 12.9L11.4 10L14.3 7.1C14.4833 6.91667 14.575 6.68333 14.575 6.4C14.575 6.11667 14.4833 5.88333 14.3 5.7C14.1167 5.51667 13.8833 5.425 13.6 5.425C13.3167 5.425 13.0833 5.51667 12.9 5.7L10 8.6L7.1 5.7C6.91667 5.51667 6.68333 5.425 6.4 5.425C6.11667 5.425 5.88333 5.51667 5.7 5.7C5.51667 5.88333 5.425 6.11667 5.425 6.4C5.425 6.68333 5.51667 6.91667 5.7 7.1L8.6 10L5.7 12.9C5.51667 13.0833 5.425 13.3167 5.425 13.6C5.425 13.8833 5.51667 14.1167 5.7 14.3C5.88333 14.4833 6.11667 14.575 6.4 14.575C6.68333 14.575 6.91667 14.4833 7.1 14.3L10 11.4ZM10 20C8.61667 20 7.31667 19.7373 6.1 19.212C4.88334 18.6867 3.825 17.9743 2.925 17.075C2.025 16.1757 1.31267 15.1173 0.788001 13.9C0.263335 12.6827 0.000667933 11.3827 1.26582e-06 10C-0.000665401 8.61733 0.262001 7.31733 0.788001 6.1C1.314 4.88267 2.02633 3.82433 2.925 2.925C3.82367 2.02567 4.882 1.31333 6.1 0.788C7.318 0.262667 8.618 0 10 0C11.382 0 12.682 0.262667 13.9 0.788C15.118 1.31333 16.1763 2.02567 17.075 2.925C17.9737 3.82433 18.6863 4.88267 19.213 6.1C19.7397 7.31733 20.002 8.61733 20 10C19.998 11.3827 19.7353 12.6827 19.212 13.9C18.6887 15.1173 17.9763 16.1757 17.075 17.075C16.1737 17.9743 15.1153 18.687 13.9 19.213C12.6847 19.739 11.3847 20.0013 10 20Z" fill="#FF383C"/>
</svg>
