<svg width="22" height="19" viewBox="0 0 22 19" fill="none" xmlns="http://www.w3.org/2000/svg">
<mask id="mask0_268_5162" style="mask-type:luminance" maskUnits="userSpaceOnUse" x="0" y="0" width="22" height="19">
<path d="M12.5 17H2.5C2.10218 17 1.72064 16.842 1.43934 16.5607C1.15804 16.2794 1 15.8978 1 15.5V2.5C1 2.10218 1.15804 1.72064 1.43934 1.43934C1.72064 1.15804 2.10218 1 2.5 1H19.5C19.8978 1 20.2794 1.15804 20.5607 1.43934C20.842 1.72064 21 2.10218 21 2.5V9M16 15L18.5 17.5M18.5 17.5L21 15M18.5 17.5V11.5" stroke="white" stroke-width="2" stroke-linecap="round" stroke-linejoin="round"/>
<path d="M1 2.5C1 2.10218 1.15804 1.72064 1.43934 1.43934C1.72064 1.15804 2.10218 1 2.5 1H19.5C19.8978 1 20.2794 1.15804 20.5607 1.43934C20.842 1.72064 21 2.10218 21 2.5V7H1V2.5Z" fill="white" stroke="white" stroke-width="2"/>
<path d="M3 4C3 3.44772 3.44772 3 4 3C4.55228 3 5 3.44772 5 4C5 4.55228 4.55228 5 4 5C3.44772 5 3 4.55228 3 4Z" fill="black"/>
<path d="M6 4C6 3.44772 6.44772 3 7 3C7.55228 3 8 3.44772 8 4C8 4.55228 7.55228 5 7 5C6.44772 5 6 4.55228 6 4Z" fill="black"/>
</mask>
<g mask="url(#mask0_268_5162)">
<path d="M-1 -3H23V21H-1V-3Z" fill="#737373"/>
</g>
</svg>
