<svg width="38" height="37" viewBox="0 0 38 37" fill="none" xmlns="http://www.w3.org/2000/svg">
<path d="M4.66667 36.3417C3.38333 36.3417 2.28511 35.8851 1.372 34.972C0.458888 34.0589 0.00155556 32.9599 0 31.675V27.0084C0 26.3473 0.224 25.7935 0.672 25.347C1.12 24.9006 1.67378 24.6766 2.33333 24.675C2.99289 24.6735 3.54744 24.8975 3.997 25.347C4.44656 25.7966 4.66978 26.3504 4.66667 27.0084V31.675H32.6667V27.0084C32.6667 26.3473 32.8907 25.7935 33.3387 25.347C33.7867 24.9006 34.3404 24.6766 35 24.675C35.6596 24.6735 36.2141 24.8975 36.6637 25.347C37.1132 25.7966 37.3364 26.3504 37.3333 27.0084V31.675C37.3333 32.9584 36.8768 34.0574 35.9637 34.972C35.0506 35.8867 33.9516 36.3433 32.6667 36.3417H4.66667ZM16.3333 7.9917L11.9583 12.3667C11.4917 12.8334 10.9379 13.0574 10.297 13.0387C9.65611 13.02 9.10156 12.7766 8.63333 12.3084C8.20556 11.8417 7.98156 11.2973 7.96133 10.675C7.94111 10.0528 8.16511 9.50837 8.63333 9.0417L17.0333 0.641702C17.2667 0.408368 17.5194 0.24348 17.7917 0.147035C18.0639 0.0505908 18.3556 0.00159145 18.6667 3.58979e-05C18.9778 -0.00151966 19.2694 0.0474797 19.5417 0.147035C19.8139 0.246591 20.0667 0.411479 20.3 0.641702L28.7 9.0417C29.1667 9.50837 29.3907 10.0528 29.372 10.675C29.3533 11.2973 29.1293 11.8417 28.7 12.3084C28.2333 12.775 27.6796 13.0185 27.0387 13.0387C26.3978 13.0589 25.8432 12.8349 25.375 12.3667L21 7.9917V24.675C21 25.3361 20.776 25.8907 20.328 26.3387C19.88 26.7867 19.3262 27.0099 18.6667 27.0084C18.0071 27.0068 17.4533 26.7828 17.0053 26.3364C16.5573 25.8899 16.3333 25.3361 16.3333 24.675V7.9917Z" fill="#9CA3AF"/>
</svg>
