<svg width="190" height="45" viewBox="0 0 190 45" fill="none" xmlns="http://www.w3.org/2000/svg">
<path d="M3 3C12.1669 4.16768 9.89248 22.0234 19.0594 23.1911C28.2263 24.3588 30.5008 6.50303 39.6677 7.6707C48.8347 8.83838 46.5602 26.6941 55.7057 27.859C64.8729 29.0268 67.1473 11.171 76.2925 12.3359C85.4596 13.5036 83.1852 31.3594 92.3303 32.5243C101.497 33.692 103.772 15.8362 112.938 17.0039C122.106 18.1716 119.831 36.0273 128.998 37.195C138.165 38.3626 140.439 20.5069 149.606 21.6746C158.773 22.8423 156.499 40.698 165.666 41.8657C174.833 43.0333 177.107 25.1776 186.274 26.3453" stroke="#00FF9B" stroke-opacity="0.1" stroke-width="6" stroke-miterlimit="10" stroke-linecap="round"/>
</svg>
