<svg width="53" height="53" viewBox="0 0 53 53" fill="none" xmlns="http://www.w3.org/2000/svg">
<path d="M21.9703 4.39355H30.7582C31.9235 4.39355 33.0411 4.85649 33.8652 5.68051C34.6892 6.50453 35.1521 7.62215 35.1521 8.78749V13.1814H43.94C45.1053 13.1814 46.2229 13.6444 47.047 14.4684C47.871 15.2924 48.3339 16.41 48.3339 17.5754V41.742C48.3339 42.9074 47.871 44.025 47.047 44.849C46.2229 45.673 45.1053 46.136 43.94 46.136H8.78847C7.62313 46.136 6.50551 45.673 5.68149 44.849C4.85746 44.025 4.39453 42.9074 4.39453 41.742V17.5754C4.39453 15.1367 6.34983 13.1814 8.78847 13.1814H17.5763V8.78749C17.5763 6.34886 19.5317 4.39355 21.9703 4.39355ZM30.7582 13.1814V8.78749H21.9703V13.1814H30.7582Z" fill="#0CAF6F"/>
</svg>
