<svg width="53" height="53" viewBox="0 0 53 53" fill="none" xmlns="http://www.w3.org/2000/svg">
<path d="M43.2897 18.8676C38.7551 20.3791 32.7728 21.2381 26.3642 21.2381C19.9557 21.2381 13.9733 20.3791 9.43877 18.8654C7.62408 18.2634 5.87529 17.4989 4.39453 16.5344V25.9924C4.39453 30.037 14.2304 33.3149 26.3642 33.3149C38.4981 33.3149 48.3339 30.037 48.3339 25.9924V16.5322C46.8532 17.4989 45.1066 18.2612 43.2875 18.8676" fill="#0CAF6F"/>
<path d="M48.3339 33.0032C46.8532 33.9676 45.1066 34.7322 43.2875 35.3364C38.7551 36.8479 32.7728 37.7091 26.3642 37.7091C19.9557 37.7091 13.9733 36.8479 9.43877 35.3364C7.62408 34.7344 5.87529 33.9698 4.39453 33.0032V43.2081C4.39453 47.2505 14.2304 50.5306 26.3642 50.5306C38.4981 50.5306 48.3339 47.2527 48.3339 43.2081V33.0032ZM26.3642 16.8445C14.2304 16.8445 4.39453 13.5644 4.39453 9.51977V9.51317C4.40552 5.47075 14.237 2.19727 26.3642 2.19727C35.4641 2.19727 43.2721 4.04272 46.6071 6.6703C47.7188 7.54689 48.3339 8.50916 48.3339 9.51977C48.3339 13.5644 38.4981 16.8445 26.3642 16.8445Z" fill="#0CAF6F"/>
</svg>
