<svg width="53" height="53" viewBox="0 0 53 53" fill="none" xmlns="http://www.w3.org/2000/svg">
<path d="M16.4787 42.8414H6.59233C4.77324 42.8414 3.29688 41.3617 3.29688 39.5459V29.6595C3.29688 27.8437 4.77324 26.3641 6.59233 26.3641H16.4787V19.7732C16.4787 17.9574 17.9551 16.4777 19.7741 16.4777H29.6605V6.59135C29.6605 4.77556 31.1369 3.2959 32.956 3.2959H42.8423C44.6614 3.2959 46.1378 4.77556 46.1378 6.59135V19.7732H42.8423V6.59135H32.956V16.4777C32.956 18.2935 31.4796 19.7732 29.6605 19.7732H19.7741V26.3641C19.7741 28.1799 18.2978 29.6595 16.4787 29.6595H6.59233V39.5459H16.4787V42.8414ZM49.4332 41.1936V26.3641C49.4332 24.5483 47.9569 23.0686 46.1378 23.0686H36.2514C34.4323 23.0686 32.956 24.5483 32.956 26.3641V32.955H23.0696C21.2505 32.955 19.7741 34.4346 19.7741 36.2504V46.1368C19.7741 47.9526 21.2505 49.4323 23.0696 49.4323H41.1946C45.739 49.4323 49.4332 45.7348 49.4332 41.1936Z" fill="#0CAF6F"/>
</svg>
