<svg width="53" height="53" viewBox="0 0 53 53" fill="none" xmlns="http://www.w3.org/2000/svg">
<g clip-path="url(#clip0_1618_42182)">
<path fill-rule="evenodd" clip-rule="evenodd" d="M13.1818 15.0649C15.1796 15.0649 17.0955 14.2713 18.5081 12.8587C19.9207 11.4461 20.7143 9.5302 20.7143 7.53247C20.7143 5.53473 19.9207 3.61882 18.5081 2.20621C17.0955 0.793597 15.1796 0 13.1818 0C11.1841 0 9.26817 0.793597 7.85556 2.20621C6.44295 3.61882 5.64935 5.53473 5.64935 7.53247C5.64935 9.5302 6.44295 11.4461 7.85556 12.8587C9.26817 14.2713 11.1841 15.0649 13.1818 15.0649ZM20.8838 37.6623V37.5494C20.8838 33.8208 22.9439 30.5743 25.987 28.8795C25.2219 25.748 23.3359 23.0053 20.6855 21.1703C18.0352 19.3352 14.8042 18.535 11.6038 18.9209C8.40334 19.3068 5.45524 20.8521 3.31704 23.2646C1.17884 25.677 -0.00123199 28.7894 9.65183e-07 32.013V35.7792C9.65183e-07 36.2787 0.1984 36.7576 0.551553 37.1108C0.904706 37.4639 1.38368 37.6623 1.88312 37.6623H5.64935L7.32533 51.0777C7.38223 51.533 7.60345 51.9519 7.94743 52.2557C8.29141 52.5594 8.73448 52.7271 9.19338 52.7273H17.174C17.6329 52.7271 18.076 52.5594 18.42 52.2557C18.764 51.9519 18.9852 51.533 19.0421 51.0777L20.7143 37.6623H20.8838ZM37.3874 28.951C37.1377 28.951 36.8982 29.0502 36.7216 29.2268C36.545 29.4034 36.4458 29.6429 36.4458 29.8926V32.3444H41.7675V29.8964C41.7675 29.6466 41.6683 29.4072 41.4918 29.2306C41.3152 29.054 41.0757 28.9548 40.826 28.9548L37.3874 28.951ZM30.7965 29.8926V32.3444C27.9229 32.3444 25.5916 34.6795 25.5916 37.5531V47.5223C25.5916 50.396 27.9229 52.7273 30.7965 52.7273H47.4131C50.2868 52.7273 52.6181 50.396 52.6181 47.5223V37.5494C52.6181 34.6757 50.2905 32.3444 47.4169 32.3444V29.8964C47.4169 28.1483 46.7225 26.4719 45.4865 25.2359C44.2504 23.9999 42.574 23.3055 40.826 23.3055H37.3874C35.6394 23.3055 33.963 23.9999 32.7269 25.2359C31.4909 26.4719 30.7965 28.1483 30.7965 29.8964V29.8926Z" fill="#0CAF6F"/>
</g>
<defs>
<clipPath id="clip0_1618_42182">
<rect width="52.7273" height="52.7273" fill="white"/>
</clipPath>
</defs>
</svg>
