<svg width="1342" height="876" viewBox="0 0 1342 876" fill="none" xmlns="http://www.w3.org/2000/svg">
<path opacity="0.5" d="M45.2547 557.269C45.2547 557.269 103.558 689.535 540.78 502.927C978.001 316.318 1381 229.695 1381 229.695" stroke="url(#paint0_linear_300_8683)"/>
<path opacity="0.541667" d="M41.8718 556.387C41.8718 556.387 95.2319 690.341 539.602 518.225C983.972 346.11 1390.36 272.712 1390.36 272.712" stroke="url(#paint1_linear_300_8683)"/>
<path opacity="0.583333" d="M38.4505 555.462C38.4505 555.462 86.8022 690.941 537.779 533.527C988.756 376.114 1398.03 316.032 1398.03 316.032" stroke="url(#paint2_linear_300_8683)"/>
<path opacity="0.625" d="M35.0473 554.489C35.0473 554.489 78.3317 691.329 535.366 548.809C992.4 406.29 1404.07 359.596 1404.07 359.596" stroke="url(#paint3_linear_300_8683)"/>
<path opacity="0.666667" d="M31.6169 553.46C31.6169 553.46 69.7814 691.493 532.316 564.042C994.851 436.59 1408.41 403.341 1408.41 403.341" stroke="url(#paint4_linear_300_8683)"/>
<path opacity="0.708333" d="M28.1885 552.397C28.1885 552.397 61.1865 691.455 528.659 579.227C996.131 466.998 1411.07 447.235 1411.07 447.235" stroke="url(#paint5_linear_300_8683)"/>
<path opacity="0.75" d="M24.7523 551.277C24.7523 551.277 52.5436 691.191 524.383 594.322C996.223 497.453 1412.04 491.2 1412.04 491.2" stroke="url(#paint6_linear_300_8683)"/>
<path opacity="0.791667" d="M21.3177 550.114C21.3177 550.114 43.8685 690.714 519.501 609.322C995.133 527.931 1411.33 535.195 1411.33 535.195" stroke="url(#paint7_linear_300_8683)"/>
<defs>
<linearGradient id="paint0_linear_300_8683" x1="707.863" y1="374.383" x2="733.254" y2="492.507" gradientUnits="userSpaceOnUse">
<stop stop-color="#0CAF6F"/>
<stop offset="0.5" stop-color="#F8FAFC"/>
<stop offset="1" stop-color="#213979"/>
</linearGradient>
<linearGradient id="paint1_linear_300_8683" x1="711.565" y1="395.309" x2="733" y2="513.99" gradientUnits="userSpaceOnUse">
<stop stop-color="#0CAF6F"/>
<stop offset="0.5" stop-color="#F8FAFC"/>
<stop offset="1" stop-color="#213979"/>
</linearGradient>
<linearGradient id="paint2_linear_300_8683" x1="714.412" y1="416.389" x2="731.899" y2="535.508" gradientUnits="userSpaceOnUse">
<stop stop-color="#0CAF6F"/>
<stop offset="0.5" stop-color="#F8FAFC"/>
<stop offset="1" stop-color="#213979"/>
</linearGradient>
<linearGradient id="paint3_linear_300_8683" x1="716.453" y1="437.59" x2="730.001" y2="557.033" gradientUnits="userSpaceOnUse">
<stop stop-color="#0CAF6F"/>
<stop offset="0.5" stop-color="#F8FAFC"/>
<stop offset="1" stop-color="#213979"/>
</linearGradient>
<linearGradient id="paint4_linear_300_8683" x1="717.637" y1="458.878" x2="727.257" y2="578.531" gradientUnits="userSpaceOnUse">
<stop stop-color="#0CAF6F"/>
<stop offset="0.5" stop-color="#F8FAFC"/>
<stop offset="1" stop-color="#213979"/>
</linearGradient>
<linearGradient id="paint5_linear_300_8683" x1="717.987" y1="480.246" x2="723.691" y2="599.999" gradientUnits="userSpaceOnUse">
<stop stop-color="#0CAF6F"/>
<stop offset="0.5" stop-color="#F8FAFC"/>
<stop offset="1" stop-color="#213979"/>
</linearGradient>
<linearGradient id="paint6_linear_300_8683" x1="717.489" y1="501.645" x2="719.29" y2="621.388" gradientUnits="userSpaceOnUse">
<stop stop-color="#0CAF6F"/>
<stop offset="0.5" stop-color="#F8FAFC"/>
<stop offset="1" stop-color="#213979"/>
</linearGradient>
<linearGradient id="paint7_linear_300_8683" x1="716.149" y1="523.062" x2="714.061" y2="642.689" gradientUnits="userSpaceOnUse">
<stop stop-color="#0CAF6F"/>
<stop offset="0.5" stop-color="#F8FAFC"/>
<stop offset="1" stop-color="#213979"/>
</linearGradient>
</defs>
</svg>
