<svg width="22" height="16" viewBox="0 0 22 16" fill="none" xmlns="http://www.w3.org/2000/svg">
<path d="M5.5 16C3.98333 16 2.6875 15.475 1.6125 14.425C0.5375 13.375 0 12.0917 0 10.575C0 9.275 0.391667 8.11667 1.175 7.1C1.95833 6.08333 2.98333 5.43333 4.25 5.15C4.66667 3.61667 5.5 2.375 6.75 1.425C8 0.475 9.41667 0 11 0C12.95 0 14.6042 0.679167 15.9625 2.0375C17.3208 3.39583 18 5.05 18 7C19.15 7.13333 20.1042 7.62917 20.8625 8.4875C21.6208 9.34583 22 10.35 22 11.5C22 12.75 21.5625 13.8125 20.6875 14.6875C19.8125 15.5625 18.75 16 17.5 16H12V8.85L12.9 9.725C13.0833 9.90833 13.3125 10 13.5875 10C13.8625 10 14.1 9.9 14.3 9.7C14.4833 9.51667 14.575 9.28333 14.575 9C14.575 8.71667 14.4833 8.48333 14.3 8.3L11.7 5.7C11.5 5.5 11.2667 5.4 11 5.4C10.7333 5.4 10.5 5.5 10.3 5.7L7.7 8.3C7.51667 8.48333 7.42083 8.7125 7.4125 8.9875C7.40417 9.2625 7.5 9.5 7.7 9.7C7.88333 9.88333 8.1125 9.97917 8.3875 9.9875C8.6625 9.99583 8.9 9.90833 9.1 9.725L10 8.85V16H5.5Z" fill="#F3F4F6"/>
</svg>
