<svg width="22" height="19" viewBox="0 0 22 19" fill="none" xmlns="http://www.w3.org/2000/svg">
<path d="M11 18.3667C10.8167 18.3667 10.6375 18.3417 10.4625 18.2917C10.2875 18.2417 10.125 18.175 9.975 18.0917C9.29167 17.675 8.575 17.3583 7.825 17.1417C7.075 16.925 6.3 16.8167 5.5 16.8167C4.8 16.8167 4.1125 16.9083 3.4375 17.0917C2.7625 17.275 2.11667 17.5333 1.5 17.8667C1.15 18.05 0.8125 18.0417 0.4875 17.8417C0.1625 17.6417 0 17.35 0 16.9667V4.91667C0 4.73333 0.0458333 4.55833 0.1375 4.39167C0.229167 4.225 0.366667 4.1 0.55 4.01667C1.31667 3.61667 2.11667 3.31667 2.95 3.11667C3.78333 2.91667 4.63333 2.81667 5.5 2.81667C6.46667 2.81667 7.4125 2.94167 8.3375 3.19167C9.2625 3.44167 10.15 3.81667 11 4.31667V16.4167C11.85 15.8833 12.7417 15.4833 13.675 15.2167C14.6083 14.95 15.55 14.8167 16.5 14.8167C17.1 14.8167 17.6875 14.8667 18.2625 14.9667C18.8375 15.0667 19.4167 15.2167 20 15.4167V3.41667C20.25 3.5 20.4958 3.5875 20.7375 3.67917C20.9792 3.77083 21.2167 3.88333 21.45 4.01667C21.6333 4.1 21.7708 4.225 21.8625 4.39167C21.9542 4.55833 22 4.73333 22 4.91667V16.9667C22 17.35 21.8375 17.6417 21.5125 17.8417C21.1875 18.0417 20.85 18.05 20.5 17.8667C19.8833 17.5333 19.2375 17.275 18.5625 17.0917C17.8875 16.9083 17.2 16.8167 16.5 16.8167C15.7 16.8167 14.925 16.925 14.175 17.1417C13.425 17.3583 12.7083 17.675 12.025 18.0917C11.875 18.175 11.7125 18.2417 11.5375 18.2917C11.3625 18.3417 11.1833 18.3667 11 18.3667ZM13.825 13.0667C13.6583 13.2167 13.4792 13.2458 13.2875 13.1542C13.0958 13.0625 13 12.9083 13 12.6917V4.51667C13 4.45 13.0125 4.3875 13.0375 4.32917C13.0625 4.27083 13.1 4.21667 13.15 4.16667L17.15 0.166667C17.3167 0 17.5 -0.0416667 17.7 0.0416667C17.9 0.125 18 0.283333 18 0.516667V9.09167C18 9.175 17.9833 9.24583 17.95 9.30417C17.9167 9.3625 17.875 9.41667 17.825 9.46667L13.825 13.0667Z" fill="#147CFF"/>
</svg>
