<svg width="21" height="21" viewBox="0 0 21 21" fill="none" xmlns="http://www.w3.org/2000/svg">
<path d="M9 2C7.85 2 6.775 2.26667 5.775 2.8C4.775 3.33333 3.93333 4.06667 3.25 5H5C5.28333 5 5.52083 5.09583 5.7125 5.2875C5.90417 5.47917 6 5.71667 6 6C6 6.28333 5.90417 6.52083 5.7125 6.7125C5.52083 6.90417 5.28333 7 5 7H1C0.716667 7 0.479167 6.90417 0.2875 6.7125C0.0958333 6.52083 0 6.28333 0 6V2C0 1.71667 0.0958333 1.47917 0.2875 1.2875C0.479167 1.09583 0.716667 1 1 1C1.28333 1 1.52083 1.09583 1.7125 1.2875C1.90417 1.47917 2 1.71667 2 2V3.35C2.85 2.28333 3.8875 1.45833 5.1125 0.875C6.3375 0.291667 7.63333 0 9 0C10.25 0 11.4208 0.233333 12.5125 0.7C13.6042 1.16667 14.5583 1.80833 15.375 2.625C16.075 3.325 16.65 4.13333 17.1 5.05C17.55 5.96667 17.8333 6.95 17.95 8C17.9833 8.28333 17.9 8.51667 17.7 8.7C17.5 8.88333 17.2583 8.975 16.975 8.975C16.6917 8.975 16.4542 8.88333 16.2625 8.7C16.0708 8.51667 15.9583 8.28333 15.925 8C15.8083 7.23333 15.5833 6.51667 15.25 5.85C14.9167 5.18333 14.4833 4.58333 13.95 4.05C13.3167 3.41667 12.5792 2.91667 11.7375 2.55C10.8958 2.18333 9.98333 2 9 2ZM1.1 10.15C1.36667 10.1167 1.60833 10.1667 1.825 10.3C2.04167 10.4333 2.19167 10.6333 2.275 10.9C2.64167 12.25 3.35 13.375 4.4 14.275C5.45 15.175 6.66667 15.7167 8.05 15.9C8.4 15.95 8.65 16.0792 8.8 16.2875C8.95 16.4958 9.025 16.7167 9.025 16.95C9.025 17.2167 8.9375 17.4583 8.7625 17.675C8.5875 17.8917 8.34167 17.9833 8.025 17.95C6.175 17.7333 4.54583 17.0208 3.1375 15.8125C1.72917 14.6042 0.783333 13.1083 0.3 11.325C0.216667 11.0417 0.258333 10.7833 0.425 10.55C0.591667 10.3167 0.816667 10.1833 1.1 10.15ZM10 8.6L11.2 9.8C11.4333 10.0333 11.5375 10.2792 11.5125 10.5375C11.4875 10.7958 11.3833 11.0167 11.2 11.2C11.0167 11.3833 10.7958 11.4875 10.5375 11.5125C10.2792 11.5375 10.0333 11.4333 9.8 11.2L8.3 9.7C8.2 9.6 8.125 9.4875 8.075 9.3625C8.025 9.2375 8 9.10833 8 8.975V5C8 4.71667 8.09583 4.47917 8.2875 4.2875C8.47917 4.09583 8.71667 4 9 4C9.28333 4 9.52083 4.09583 9.7125 4.2875C9.90417 4.47917 10 4.71667 10 5V8.6ZM15.775 21C15.5417 21 15.3375 20.925 15.1625 20.775C14.9875 20.625 14.875 20.4333 14.825 20.2L14.675 19.5C14.475 19.4167 14.2875 19.3292 14.1125 19.2375C13.9375 19.1458 13.7583 19.0333 13.575 18.9L12.85 19.125C12.6333 19.1917 12.4208 19.1833 12.2125 19.1C12.0042 19.0167 11.8417 18.8833 11.725 18.7L11.525 18.35C11.4083 18.15 11.3667 17.9333 11.4 17.7C11.4333 17.4667 11.5417 17.275 11.725 17.125L12.275 16.65C12.2417 16.4333 12.225 16.2167 12.225 16C12.225 15.7833 12.2417 15.5667 12.275 15.35L11.725 14.875C11.5417 14.725 11.4333 14.5375 11.4 14.3125C11.3667 14.0875 11.4083 13.875 11.525 13.675L11.75 13.3C11.8667 13.1167 12.025 12.9833 12.225 12.9C12.425 12.8167 12.6333 12.8083 12.85 12.875L13.575 13.1C13.7583 12.9667 13.9375 12.8542 14.1125 12.7625C14.2875 12.6708 14.475 12.5833 14.675 12.5L14.825 11.775C14.875 11.5417 14.9875 11.3542 15.1625 11.2125C15.3375 11.0708 15.5417 11 15.775 11H16.175C16.4083 11 16.6125 11.075 16.7875 11.225C16.9625 11.375 17.075 11.5667 17.125 11.8L17.275 12.5C17.475 12.5833 17.6667 12.6792 17.85 12.7875C18.0333 12.8958 18.2083 13.0167 18.375 13.15L19.05 12.925C19.2833 12.8417 19.5083 12.8417 19.725 12.925C19.9417 13.0083 20.1083 13.15 20.225 13.35L20.425 13.7C20.5417 13.9 20.5833 14.1167 20.55 14.35C20.5167 14.5833 20.4083 14.775 20.225 14.925L19.675 15.4C19.7083 15.6167 19.725 15.825 19.725 16.025C19.725 16.225 19.7083 16.4333 19.675 16.65L20.225 17.125C20.4083 17.275 20.5167 17.4625 20.55 17.6875C20.5833 17.9125 20.5417 18.125 20.425 18.325L20.2 18.7C20.0833 18.8833 19.925 19.0167 19.725 19.1C19.525 19.1833 19.3167 19.1917 19.1 19.125L18.375 18.9C18.1917 19.0333 18.0125 19.1458 17.8375 19.2375C17.6625 19.3292 17.475 19.4167 17.275 19.5L17.125 20.225C17.075 20.4583 16.9625 20.6458 16.7875 20.7875C16.6125 20.9292 16.4083 21 16.175 21H15.775ZM15.975 18C16.525 18 16.9958 17.8042 17.3875 17.4125C17.7792 17.0208 17.975 16.55 17.975 16C17.975 15.45 17.7792 14.9792 17.3875 14.5875C16.9958 14.1958 16.525 14 15.975 14C15.425 14 14.9542 14.1958 14.5625 14.5875C14.1708 14.9792 13.975 15.45 13.975 16C13.975 16.55 14.1708 17.0208 14.5625 17.4125C14.9542 17.8042 15.425 18 15.975 18Z" fill="#737373"/>
</svg>
