<svg width="22" height="12" viewBox="0 0 22 12" fill="none" xmlns="http://www.w3.org/2000/svg">
<path d="M2 12C1.45 12 0.979167 11.8042 0.5875 11.4125C0.195833 11.0208 0 10.55 0 10C0 9.45 0.195833 8.97917 0.5875 8.5875C0.979167 8.19583 1.45 8 2 8H2.2625C2.3375 8 2.41667 8.01667 2.5 8.05L7.05 3.5C7.01667 3.41667 7 3.3375 7 3.2625V3C7 2.45 7.19583 1.97917 7.5875 1.5875C7.97917 1.19583 8.45 1 9 1C9.55 1 10.0208 1.19583 10.4125 1.5875C10.8042 1.97917 11 2.45 11 3C11 3.03333 10.9833 3.2 10.95 3.5L13.5 6.05C13.5833 6.01667 13.6625 6 13.7375 6H14.2625C14.3375 6 14.4167 6.01667 14.5 6.05L18.05 2.5C18.0167 2.41667 18 2.3375 18 2.2625V2C18 1.45 18.1958 0.979167 18.5875 0.5875C18.9792 0.195833 19.45 0 20 0C20.55 0 21.0208 0.195833 21.4125 0.5875C21.8042 0.979167 22 1.45 22 2C22 2.55 21.8042 3.02083 21.4125 3.4125C21.0208 3.80417 20.55 4 20 4H19.7375C19.6625 4 19.5833 3.98333 19.5 3.95L15.95 7.5C15.9833 7.58333 16 7.6625 16 7.7375V8C16 8.55 15.8042 9.02083 15.4125 9.4125C15.0208 9.80417 14.55 10 14 10C13.45 10 12.9792 9.80417 12.5875 9.4125C12.1958 9.02083 12 8.55 12 8V7.7375C12 7.6625 12.0167 7.58333 12.05 7.5L9.5 4.95C9.41667 4.98333 9.3375 5 9.2625 5H9C8.96667 5 8.8 4.98333 8.5 4.95L3.95 9.5C3.98333 9.58333 4 9.6625 4 9.7375V10C4 10.55 3.80417 11.0208 3.4125 11.4125C3.02083 11.8042 2.55 12 2 12Z" fill="#737373"/>
</svg>
