<svg width="18" height="18" viewBox="0 0 18 18" fill="none" xmlns="http://www.w3.org/2000/svg">
<path d="M9 10.4L11.9 13.3C12.0833 13.4833 12.3167 13.575 12.6 13.575C12.8833 13.575 13.1167 13.4833 13.3 13.3C13.4833 13.1167 13.575 12.8833 13.575 12.6C13.575 12.3167 13.4833 12.0833 13.3 11.9L10.4 9L13.3 6.1C13.4833 5.91667 13.575 5.68333 13.575 5.4C13.575 5.11667 13.4833 4.88333 13.3 4.7C13.1167 4.51667 12.8833 4.425 12.6 4.425C12.3167 4.425 12.0833 4.51667 11.9 4.7L9 7.6L6.1 4.7C5.91667 4.51667 5.68333 4.425 5.4 4.425C5.11667 4.425 4.88333 4.51667 4.7 4.7C4.51667 4.88333 4.425 5.11667 4.425 5.4C4.425 5.68333 4.51667 5.91667 4.7 6.1L7.6 9L4.7 11.9C4.51667 12.0833 4.425 12.3167 4.425 12.6C4.425 12.8833 4.51667 13.1167 4.7 13.3C4.88333 13.4833 5.11667 13.575 5.4 13.575C5.68333 13.575 5.91667 13.4833 6.1 13.3L9 10.4ZM2 18C1.45 18 0.979167 17.8042 0.5875 17.4125C0.195833 17.0208 0 16.55 0 16V2C0 1.45 0.195833 0.979167 0.5875 0.5875C0.979167 0.195833 1.45 0 2 0H16C16.55 0 17.0208 0.195833 17.4125 0.5875C17.8042 0.979167 18 1.45 18 2V16C18 16.55 17.8042 17.0208 17.4125 17.4125C17.0208 17.8042 16.55 18 16 18H2Z" fill="#737373"/>
</svg>
