<svg width="10" height="18" viewBox="0 0 10 18" fill="none" xmlns="http://www.w3.org/2000/svg">
<path d="M4.44074 18C4.15741 18 3.91991 17.9042 3.72824 17.7125C3.53657 17.5208 3.44074 17.2833 3.44074 17V15.85C2.69074 15.6833 2.03241 15.3917 1.46574 14.975C0.899074 14.5583 0.440741 13.975 0.0907407 13.225C-0.0259259 12.9917 -0.0300926 12.7458 0.0782407 12.4875C0.186574 12.2292 0.382407 12.0417 0.665741 11.925C0.899074 11.825 1.14074 11.8292 1.39074 11.9375C1.64074 12.0458 1.83241 12.225 1.96574 12.475C2.24907 12.975 2.60741 13.3542 3.04074 13.6125C3.47407 13.8708 4.00741 14 4.64074 14C5.32407 14 5.90324 13.8458 6.37824 13.5375C6.85324 13.2292 7.09074 12.75 7.09074 12.1C7.09074 11.5167 6.90741 11.0542 6.54074 10.7125C6.17407 10.3708 5.32407 9.98333 3.99074 9.55C2.55741 9.1 1.57407 8.5625 1.04074 7.9375C0.507407 7.3125 0.240741 6.55 0.240741 5.65C0.240741 4.56667 0.590741 3.725 1.29074 3.125C1.99074 2.525 2.70741 2.18333 3.44074 2.1V1C3.44074 0.716667 3.53657 0.479167 3.72824 0.2875C3.91991 0.0958333 4.15741 0 4.44074 0C4.72407 0 4.96157 0.0958333 5.15324 0.2875C5.34491 0.479167 5.44074 0.716667 5.44074 1V2.1C6.07407 2.2 6.62407 2.40417 7.09074 2.7125C7.55741 3.02083 7.94074 3.4 8.24074 3.85C8.39074 4.06667 8.41991 4.30833 8.32824 4.575C8.23657 4.84167 8.04907 5.03333 7.76574 5.15C7.53241 5.25 7.29074 5.25417 7.04074 5.1625C6.79074 5.07083 6.55741 4.90833 6.34074 4.675C6.12407 4.44167 5.86991 4.2625 5.57824 4.1375C5.28657 4.0125 4.92407 3.95 4.49074 3.95C3.75741 3.95 3.19907 4.1125 2.81574 4.4375C2.43241 4.7625 2.24074 5.16667 2.24074 5.65C2.24074 6.2 2.49074 6.63333 2.99074 6.95C3.49074 7.26667 4.35741 7.6 5.59074 7.95C6.74074 8.28333 7.61157 8.8125 8.20324 9.5375C8.79491 10.2625 9.09074 11.1 9.09074 12.05C9.09074 13.2333 8.74074 14.1333 8.04074 14.75C7.34074 15.3667 6.47407 15.75 5.44074 15.9V17C5.44074 17.2833 5.34491 17.5208 5.15324 17.7125C4.96157 17.9042 4.72407 18 4.44074 18Z" fill="#737373"/>
</svg>
