<svg width="16" height="20" viewBox="0 0 16 20" fill="none" xmlns="http://www.w3.org/2000/svg">
<path d="M2 20C1.45 20 0.979167 19.8042 0.5875 19.4125C0.195833 19.0208 0 18.55 0 18V2C0 1.45 0.195833 0.979167 0.5875 0.5875C0.979167 0.195833 1.45 0 2 0H9.175C9.44167 0 9.69583 0.05 9.9375 0.15C10.1792 0.25 10.3917 0.391667 10.575 0.575L15.425 5.425C15.6083 5.60833 15.75 5.82083 15.85 6.0625C15.95 6.30417 16 6.55833 16 6.825V18C16 18.55 15.8042 19.0208 15.4125 19.4125C15.0208 19.8042 14.55 20 14 20H2ZM9 6C9 6.28333 9.09583 6.52083 9.2875 6.7125C9.47917 6.90417 9.71667 7 10 7H14L9 2V6ZM6.925 13.125L5.525 11.725C5.425 11.625 5.31667 11.55 5.2 11.5C5.08333 11.45 4.9625 11.425 4.8375 11.425C4.7125 11.425 4.5875 11.45 4.4625 11.5C4.3375 11.55 4.225 11.625 4.125 11.725C3.925 11.925 3.825 12.1625 3.825 12.4375C3.825 12.7125 3.925 12.95 4.125 13.15L6.25 15.3C6.35 15.4 6.45833 15.4708 6.575 15.5125C6.69167 15.5542 6.81667 15.575 6.95 15.575C7.08333 15.575 7.20833 15.5542 7.325 15.5125C7.44167 15.4708 7.55 15.4 7.65 15.3L11.875 11.075C12.075 10.875 12.175 10.6333 12.175 10.35C12.175 10.0667 12.075 9.825 11.875 9.625C11.675 9.425 11.4333 9.325 11.15 9.325C10.8667 9.325 10.625 9.425 10.425 9.625L6.925 13.125Z" fill="#737373"/>
</svg>
