<svg width="18" height="20" viewBox="0 0 18 20" fill="none" xmlns="http://www.w3.org/2000/svg">
<path d="M13 19.85C11.6167 19.85 10.4375 19.3625 9.4625 18.3875C8.4875 17.4125 8 16.2333 8 14.85C8 13.4667 8.4875 12.2875 9.4625 11.3125C10.4375 10.3375 11.6167 9.85 13 9.85C14.3833 9.85 15.5625 10.3375 16.5375 11.3125C17.5125 12.2875 18 13.4667 18 14.85C18 16.2333 17.5125 17.4125 16.5375 18.3875C15.5625 19.3625 14.3833 19.85 13 19.85ZM0 8.95V4.225C0 3.80833 0.120833 3.43333 0.3625 3.1C0.604167 2.76667 0.916667 2.525 1.3 2.375L7.3 0.125C7.53333 0.0416667 7.76667 0 8 0C8.23333 0 8.46667 0.0416667 8.7 0.125L14.7 2.375C15.0833 2.525 15.3958 2.76667 15.6375 3.1C15.8792 3.43333 16 3.80833 16 4.225V7.275C16 7.55833 15.875 7.7875 15.625 7.9625C15.375 8.1375 15.1083 8.18333 14.825 8.1C14.525 8.01667 14.225 7.95417 13.925 7.9125C13.625 7.87083 13.3167 7.85 13 7.85C11.0667 7.85 9.41667 8.53333 8.05 9.9C6.68333 11.2667 6 12.9167 6 14.85C6 15.3833 6.0625 15.9042 6.1875 16.4125C6.3125 16.9208 6.49167 17.4333 6.725 17.95C6.875 18.2667 6.82917 18.55 6.5875 18.8C6.34583 19.05 6.06667 19.1 5.75 18.95C5.05 18.5833 4.40833 18.1333 3.825 17.6C3.24167 17.0667 2.725 16.4833 2.275 15.85C1.55833 14.8667 1 13.7875 0.6 12.6125C0.2 11.4375 0 10.2167 0 8.95ZM13 14.85C13.4167 14.85 13.7708 14.7042 14.0625 14.4125C14.3542 14.1208 14.5 13.7667 14.5 13.35C14.5 12.9333 14.3542 12.5792 14.0625 12.2875C13.7708 11.9958 13.4167 11.85 13 11.85C12.5833 11.85 12.2292 11.9958 11.9375 12.2875C11.6458 12.5792 11.5 12.9333 11.5 13.35C11.5 13.7667 11.6458 14.1208 11.9375 14.4125C12.2292 14.7042 12.5833 14.85 13 14.85ZM13 17.85C13.4167 17.85 13.8083 17.7708 14.175 17.6125C14.5417 17.4542 14.8667 17.225 15.15 16.925C15.2333 16.825 15.2667 16.7125 15.25 16.5875C15.2333 16.4625 15.1583 16.3667 15.025 16.3C14.7083 16.15 14.3792 16.0375 14.0375 15.9625C13.6958 15.8875 13.35 15.85 13 15.85C12.65 15.85 12.3042 15.8875 11.9625 15.9625C11.6208 16.0375 11.2917 16.15 10.975 16.3C10.8417 16.3667 10.7667 16.4625 10.75 16.5875C10.7333 16.7125 10.7667 16.825 10.85 16.925C11.1333 17.225 11.4583 17.4542 11.825 17.6125C12.1917 17.7708 12.5833 17.85 13 17.85Z" fill="#737373"/>
</svg>
