<svg width="20" height="20" viewBox="0 0 20 20" fill="none" xmlns="http://www.w3.org/2000/svg">
<path d="M4 16L0.85 19.15C0.683333 19.3167 0.5 19.3583 0.3 19.275C0.1 19.1917 0 19.0333 0 18.8V2C0 1.45 0.195833 0.979167 0.5875 0.5875C0.979167 0.195833 1.45 0 2 0H18C18.55 0 19.0208 0.195833 19.4125 0.5875C19.8042 0.979167 20 1.45 20 2V14C20 14.55 19.8042 15.0208 19.4125 15.4125C19.0208 15.8042 18.55 16 18 16H4ZM10 10.475L11.9 11.625C12.0833 11.7417 12.2667 11.7375 12.45 11.6125C12.6333 11.4875 12.7 11.3167 12.65 11.1L12.15 8.925L13.85 7.45C14.0167 7.3 14.0667 7.12083 14 6.9125C13.9333 6.70417 13.7833 6.59167 13.55 6.575L11.325 6.4L10.45 4.35C10.3667 4.15 10.2167 4.05 10 4.05C9.78333 4.05 9.63333 4.15 9.55 4.35L8.675 6.4L6.45 6.575C6.21667 6.59167 6.06667 6.70417 6 6.9125C5.93333 7.12083 5.98333 7.3 6.15 7.45L7.85 8.925L7.35 11.1C7.3 11.3167 7.36667 11.4875 7.55 11.6125C7.73333 11.7375 7.91667 11.7417 8.1 11.625L10 10.475Z" fill="#737373"/>
</svg>
