<svg width="18" height="20" viewBox="0 0 18 20" fill="none" xmlns="http://www.w3.org/2000/svg">
<path d="M2 20C1.45 20 0.979167 19.8042 0.5875 19.4125C0.195833 19.0208 0 18.55 0 18V4C0 3.45 0.195833 2.97917 0.5875 2.5875C0.979167 2.19583 1.45 2 2 2H6.2C6.41667 1.4 6.77917 0.916667 7.2875 0.55C7.79583 0.183333 8.36667 0 9 0C9.63333 0 10.2042 0.183333 10.7125 0.55C11.2208 0.916667 11.5833 1.4 11.8 2H16C16.55 2 17.0208 2.19583 17.4125 2.5875C17.8042 2.97917 18 3.45 18 4V18C18 18.55 17.8042 19.0208 17.4125 19.4125C17.0208 19.8042 16.55 20 16 20H2ZM5 16H10C10.2833 16 10.5208 15.9042 10.7125 15.7125C10.9042 15.5208 11 15.2833 11 15C11 14.7167 10.9042 14.4792 10.7125 14.2875C10.5208 14.0958 10.2833 14 10 14H5C4.71667 14 4.47917 14.0958 4.2875 14.2875C4.09583 14.4792 4 14.7167 4 15C4 15.2833 4.09583 15.5208 4.2875 15.7125C4.47917 15.9042 4.71667 16 5 16ZM5 12H13C13.2833 12 13.5208 11.9042 13.7125 11.7125C13.9042 11.5208 14 11.2833 14 11C14 10.7167 13.9042 10.4792 13.7125 10.2875C13.5208 10.0958 13.2833 10 13 10H5C4.71667 10 4.47917 10.0958 4.2875 10.2875C4.09583 10.4792 4 10.7167 4 11C4 11.2833 4.09583 11.5208 4.2875 11.7125C4.47917 11.9042 4.71667 12 5 12ZM5 8H13C13.2833 8 13.5208 7.90417 13.7125 7.7125C13.9042 7.52083 14 7.28333 14 7C14 6.71667 13.9042 6.47917 13.7125 6.2875C13.5208 6.09583 13.2833 6 13 6H5C4.71667 6 4.47917 6.09583 4.2875 6.2875C4.09583 6.47917 4 6.71667 4 7C4 7.28333 4.09583 7.52083 4.2875 7.7125C4.47917 7.90417 4.71667 8 5 8ZM9 3.25C9.21667 3.25 9.39583 3.17917 9.5375 3.0375C9.67917 2.89583 9.75 2.71667 9.75 2.5C9.75 2.28333 9.67917 2.10417 9.5375 1.9625C9.39583 1.82083 9.21667 1.75 9 1.75C8.78333 1.75 8.60417 1.82083 8.4625 1.9625C8.32083 2.10417 8.25 2.28333 8.25 2.5C8.25 2.71667 8.32083 2.89583 8.4625 3.0375C8.60417 3.17917 8.78333 3.25 9 3.25Z" fill="#737373"/>
</svg>
