<svg width="16" height="15" viewBox="0 0 16 15" fill="none" xmlns="http://www.w3.org/2000/svg">
<path d="M3.575 14.575C3.29167 14.575 3.05417 14.4792 2.8625 14.2875C2.67083 14.0958 2.575 13.8583 2.575 13.575C2.575 13.2917 2.67083 13.0542 2.8625 12.8625C3.05417 12.6708 3.29167 12.575 3.575 12.575H9.675C10.725 12.575 11.6375 12.2417 12.4125 11.575C13.1875 10.9083 13.575 10.075 13.575 9.075C13.575 8.075 13.1875 7.24167 12.4125 6.575C11.6375 5.90833 10.725 5.575 9.675 5.575H3.375L5.275 7.475C5.45833 7.65833 5.55 7.89167 5.55 8.175C5.55 8.45833 5.45833 8.69167 5.275 8.875C5.09167 9.05833 4.85833 9.15 4.575 9.15C4.29167 9.15 4.05833 9.05833 3.875 8.875L0.275 5.275C0.175 5.175 0.104167 5.06667 0.0625 4.95C0.0208333 4.83333 0 4.70833 0 4.575C0 4.44167 0.0208333 4.31667 0.0625 4.2C0.104167 4.08333 0.175 3.975 0.275 3.875L3.875 0.275C4.05833 0.0916667 4.29167 0 4.575 0C4.85833 0 5.09167 0.0916667 5.275 0.275C5.45833 0.458333 5.55 0.691667 5.55 0.975C5.55 1.25833 5.45833 1.49167 5.275 1.675L3.375 3.575H9.675C11.2917 3.575 12.6792 4.1 13.8375 5.15C14.9958 6.2 15.575 7.50833 15.575 9.075C15.575 10.6417 14.9958 11.95 13.8375 13C12.6792 14.05 11.2917 14.575 9.675 14.575H3.575Z" fill="#737373"/>
</svg>
