<svg width="20" height="21" viewBox="0 0 20 21" fill="none" xmlns="http://www.w3.org/2000/svg">
<path d="M6.5 7.5L8.25 8.55C8.41667 8.65 8.58333 8.65417 8.75 8.5625C8.91667 8.47083 9 8.325 9 8.125V3C9 2.71667 8.90417 2.47917 8.7125 2.2875C8.52083 2.09583 8.28333 2 8 2H5C4.71667 2 4.47917 2.09583 4.2875 2.2875C4.09583 2.47917 4 2.71667 4 3V8.125C4 8.325 4.08333 8.47083 4.25 8.5625C4.41667 8.65417 4.58333 8.65 4.75 8.55L6.5 7.5ZM15 21C13.6167 21 12.4375 20.5125 11.4625 19.5375C10.4875 18.5625 10 17.3833 10 16C10 14.6167 10.4875 13.4375 11.4625 12.4625C12.4375 11.4875 13.6167 11 15 11C16.3833 11 17.5625 11.4875 18.5375 12.4625C19.5125 13.4375 20 14.6167 20 16C20 17.3833 19.5125 18.5625 18.5375 19.5375C17.5625 20.5125 16.3833 21 15 21ZM14.525 18.025L17.075 16.425C17.2417 16.325 17.325 16.1833 17.325 16C17.325 15.8167 17.2417 15.675 17.075 15.575L14.525 13.975C14.3583 13.875 14.1875 13.8708 14.0125 13.9625C13.8375 14.0542 13.75 14.2 13.75 14.4V17.6C13.75 17.8 13.8375 17.9458 14.0125 18.0375C14.1875 18.1292 14.3583 18.125 14.525 18.025ZM2 20C1.45 20 0.979167 19.8042 0.5875 19.4125C0.195833 19.0208 0 18.55 0 18V2C0 1.45 0.195833 0.979167 0.5875 0.5875C0.979167 0.195833 1.45 0 2 0H14C14.55 0 15.0208 0.195833 15.4125 0.5875C15.8042 0.979167 16 1.45 16 2V8.32725C16 8.52575 15.9292 8.69233 15.7875 8.827C15.6458 8.96183 15.475 9.02925 15.275 9.02925C14.275 9.01242 13.3417 9.1555 12.475 9.4585C11.6083 9.76167 10.8 10.2922 10.05 11.05C9.41667 11.6853 8.91667 12.4251 8.55 13.2693C8.18333 14.1136 8 15.0205 8 15.99C8 16.4748 8.05417 16.9555 8.1625 17.432C8.27083 17.9085 8.41667 18.3641 8.6 18.7987C8.73333 19.0829 8.725 19.3542 8.575 19.6125C8.425 19.8708 8.2 20 7.9 20H2Z" fill="#F3F4F6"/>
</svg>
