<svg width="20" height="20" viewBox="0 0 20 20" fill="none" xmlns="http://www.w3.org/2000/svg">
<path d="M2 0H18C18.55 0 19.0208 0.195833 19.4125 0.5875C19.8042 0.979167 20 1.45 20 2V13C20 13.55 19.8042 14.0208 19.4125 14.4125C19.0208 14.8042 18.55 15 18 15H14V18.375C14 18.7583 13.8417 19.0458 13.525 19.2375C13.2083 19.4292 12.8833 19.4417 12.55 19.275L10.45 18.225C10.3167 18.1417 10.1667 18.1 10 18.1C9.83333 18.1 9.68333 18.1417 9.55 18.225L7.45 19.275C7.11667 19.4417 6.79167 19.4292 6.475 19.2375C6.15833 19.0458 6 18.7583 6 18.375V15H2C1.45 15 0.979167 14.8042 0.5875 14.4125C0.195833 14.0208 0 13.55 0 13V2C0 1.45 0.195833 0.979167 0.5875 0.5875C0.979167 0.195833 1.45 0 2 0ZM2 11H18V8H2V11Z" fill="#F3F4F6"/>
</svg>
