<svg width="22" height="16" viewBox="0 0 22 16" fill="none" xmlns="http://www.w3.org/2000/svg">
<path d="M12 13.05C12.7333 12.7 13.4708 12.4375 14.2125 12.2625C14.9542 12.0875 15.7167 12 16.5 12C17.1 12 17.6875 12.05 18.2625 12.15C18.8375 12.25 19.4167 12.4 20 12.6V2.7C19.45 2.46667 18.8792 2.29167 18.2875 2.175C17.6958 2.05833 17.1 2 16.5 2C15.7167 2 14.9417 2.1 14.175 2.3C13.4083 2.5 12.6833 2.8 12 3.2V13.05ZM11 15.475C10.7667 15.475 10.5458 15.4458 10.3375 15.3875C10.1292 15.3292 9.93333 15.25 9.75 15.15C9.1 14.7667 8.41667 14.4792 7.7 14.2875C6.98333 14.0958 6.25 14 5.5 14C4.8 14 4.1125 14.0917 3.4375 14.275C2.7625 14.4583 2.11667 14.7167 1.5 15.05C1.15 15.2333 0.8125 15.225 0.4875 15.025C0.1625 14.825 0 14.5333 0 14.15V2.1C0 1.91667 0.0458333 1.74167 0.1375 1.575C0.229167 1.40833 0.366667 1.28333 0.55 1.2C1.33333 0.816667 2.1375 0.520833 2.9625 0.3125C3.7875 0.104167 4.63333 0 5.5 0C6.46667 0 7.4125 0.125 8.3375 0.375C9.2625 0.625 10.15 1 11 1.5C11.85 1 12.7375 0.625 13.6625 0.375C14.5875 0.125 15.5333 0 16.5 0C17.3667 0 18.2125 0.104167 19.0375 0.3125C19.8625 0.520833 20.6667 0.816667 21.45 1.2C21.6333 1.28333 21.7708 1.40833 21.8625 1.575C21.9542 1.74167 22 1.91667 22 2.1V14.15C22 14.5333 21.8375 14.825 21.5125 15.025C21.1875 15.225 20.85 15.2333 20.5 15.05C19.8833 14.7167 19.2375 14.4583 18.5625 14.275C17.8875 14.0917 17.2 14 16.5 14C15.75 14 15.0167 14.0958 14.3 14.2875C13.5833 14.4792 12.9 14.7667 12.25 15.15C12.0667 15.25 11.8708 15.3292 11.6625 15.3875C11.4542 15.4458 11.2333 15.475 11 15.475ZM13 4.775C13 4.625 13.0542 4.47083 13.1625 4.3125C13.2708 4.15417 13.3917 4.05 13.525 4C14.0083 3.83333 14.4917 3.70833 14.975 3.625C15.4583 3.54167 15.9667 3.5 16.5 3.5C16.8333 3.5 17.1625 3.52083 17.4875 3.5625C17.8125 3.60417 18.1333 3.65833 18.45 3.725C18.6 3.75833 18.7292 3.84167 18.8375 3.975C18.9458 4.10833 19 4.25833 19 4.425C19 4.70833 18.9083 4.91667 18.725 5.05C18.5417 5.18333 18.3083 5.21667 18.025 5.15C17.7917 5.1 17.5458 5.0625 17.2875 5.0375C17.0292 5.0125 16.7667 5 16.5 5C16.0667 5 15.6417 5.04167 15.225 5.125C14.8083 5.20833 14.4083 5.31667 14.025 5.45C13.725 5.56667 13.4792 5.55833 13.2875 5.425C13.0958 5.29167 13 5.075 13 4.775ZM13 10.275C13 10.125 13.0542 9.97083 13.1625 9.8125C13.2708 9.65417 13.3917 9.55 13.525 9.5C14.0083 9.33333 14.4917 9.20833 14.975 9.125C15.4583 9.04167 15.9667 9 16.5 9C16.8333 9 17.1625 9.02083 17.4875 9.0625C17.8125 9.10417 18.1333 9.15833 18.45 9.225C18.6 9.25833 18.7292 9.34167 18.8375 9.475C18.9458 9.60833 19 9.75833 19 9.925C19 10.2083 18.9083 10.4167 18.725 10.55C18.5417 10.6833 18.3083 10.7167 18.025 10.65C17.7917 10.6 17.5458 10.5625 17.2875 10.5375C17.0292 10.5125 16.7667 10.5 16.5 10.5C16.0667 10.5 15.6417 10.5375 15.225 10.6125C14.8083 10.6875 14.4083 10.7917 14.025 10.925C13.725 11.0417 13.4792 11.0375 13.2875 10.9125C13.0958 10.7875 13 10.575 13 10.275ZM13 7.525C13 7.375 13.0542 7.22083 13.1625 7.0625C13.2708 6.90417 13.3917 6.8 13.525 6.75C14.0083 6.58333 14.4917 6.45833 14.975 6.375C15.4583 6.29167 15.9667 6.25 16.5 6.25C16.8333 6.25 17.1625 6.27083 17.4875 6.3125C17.8125 6.35417 18.1333 6.40833 18.45 6.475C18.6 6.50833 18.7292 6.59167 18.8375 6.725C18.9458 6.85833 19 7.00833 19 7.175C19 7.45833 18.9083 7.66667 18.725 7.8C18.5417 7.93333 18.3083 7.96667 18.025 7.9C17.7917 7.85 17.5458 7.8125 17.2875 7.7875C17.0292 7.7625 16.7667 7.75 16.5 7.75C16.0667 7.75 15.6417 7.79167 15.225 7.875C14.8083 7.95833 14.4083 8.06667 14.025 8.2C13.725 8.31667 13.4792 8.30833 13.2875 8.175C13.0958 8.04167 13 7.825 13 7.525Z" fill="#737373"/>
</svg>
