<svg width="20" height="20" viewBox="0 0 20 20" fill="none" xmlns="http://www.w3.org/2000/svg">
<path d="M6 20C5.45 20 4.97917 19.8042 4.5875 19.4125C4.19583 19.0208 4 18.55 4 18C4 17.45 4.19583 16.9792 4.5875 16.5875C4.97917 16.1958 5.45 16 6 16C6.55 16 7.02083 16.1958 7.4125 16.5875C7.80417 16.9792 8 17.45 8 18C8 18.55 7.80417 19.0208 7.4125 19.4125C7.02083 19.8042 6.55 20 6 20ZM16 20C15.45 20 14.9792 19.8042 14.5875 19.4125C14.1958 19.0208 14 18.55 14 18C14 17.45 14.1958 16.9792 14.5875 16.5875C14.9792 16.1958 15.45 16 16 16C16.55 16 17.0208 16.1958 17.4125 16.5875C17.8042 16.9792 18 17.45 18 18C18 18.55 17.8042 19.0208 17.4125 19.4125C17.0208 19.8042 16.55 20 16 20ZM4.2 2H18.95C19.3333 2 19.625 2.17083 19.825 2.5125C20.025 2.85417 20.0333 3.2 19.85 3.55L16.3 9.95C16.1167 10.2833 15.8708 10.5417 15.5625 10.725C15.2542 10.9083 14.9167 11 14.55 11H7.1L6 13H17C17.2833 13 17.5208 13.0958 17.7125 13.2875C17.9042 13.4792 18 13.7167 18 14C18 14.2833 17.9042 14.5208 17.7125 14.7125C17.5208 14.9042 17.2833 15 17 15H6C5.25 15 4.68333 14.6708 4.3 14.0125C3.91667 13.3542 3.9 12.7 4.25 12.05L5.6 9.6L2 2H1C0.716667 2 0.479167 1.90417 0.2875 1.7125C0.0958333 1.52083 0 1.28333 0 1C0 0.716667 0.0958333 0.479167 0.2875 0.2875C0.479167 0.0958333 0.716667 0 1 0H2.625C2.80833 0 2.98333 0.05 3.15 0.15C3.31667 0.25 3.44167 0.391667 3.525 0.575L4.2 2Z" fill="#737373"/>
</svg>
