<svg width="62" height="62" viewBox="0 0 62 62" fill="none" xmlns="http://www.w3.org/2000/svg">
<path d="M20.1137 6.84999C20.1137 6.34769 19.9141 5.86596 19.559 5.51078C19.2038 5.15559 18.722 4.95605 18.2197 4.95605C17.7174 4.95605 17.2357 5.15559 16.8805 5.51078C16.5253 5.86596 16.3258 6.34769 16.3258 6.84999V10.8399C12.6894 11.1303 10.3056 11.8424 8.55307 13.5975C6.79802 15.35 6.0859 17.7364 5.79297 21.3702H55.899C55.6061 17.7338 54.894 15.35 53.1389 13.5975C51.3864 11.8424 49 11.1303 45.3662 10.8374V6.84999C45.3662 6.34769 45.1667 5.86596 44.8115 5.51078C44.4563 5.15559 43.9746 4.95605 43.4723 4.95605C42.97 4.95605 42.4882 5.15559 42.133 5.51078C41.7779 5.86596 41.5783 6.34769 41.5783 6.84999V10.6707C39.899 10.6379 38.0152 10.6379 35.8965 10.6379H25.7955C23.6768 10.6379 21.793 10.6379 20.1137 10.6707V6.84999Z" fill="#0CAF6F"/>
<path fill-rule="evenodd" clip-rule="evenodd" d="M5.59375 30.84C5.59375 28.7213 5.59375 26.8375 5.62658 25.1582H56.066C56.0988 26.8375 56.0988 28.7213 56.0988 30.84V35.8905C56.0988 45.4133 56.0988 50.1759 53.1392 53.1329C50.1796 56.09 45.4195 56.0925 35.8968 56.0925H25.7958C16.273 56.0925 11.5104 56.0925 8.55335 53.1329C5.59628 50.1734 5.59375 45.4133 5.59375 35.8905V30.84ZM43.4725 35.8905C44.1423 35.8905 44.7846 35.6245 45.2582 35.1509C45.7317 34.6773 45.9978 34.035 45.9978 33.3653C45.9978 32.6955 45.7317 32.0532 45.2582 31.5797C44.7846 31.1061 44.1423 30.84 43.4725 30.84C42.8028 30.84 42.1605 31.1061 41.6869 31.5797C41.2133 32.0532 40.9473 32.6955 40.9473 33.3653C40.9473 34.035 41.2133 34.6773 41.6869 35.1509C42.1605 35.6245 42.8028 35.8905 43.4725 35.8905ZM43.4725 45.9915C44.1423 45.9915 44.7846 45.7255 45.2582 45.2519C45.7317 44.7783 45.9978 44.136 45.9978 43.4663C45.9978 42.7965 45.7317 42.1542 45.2582 41.6807C44.7846 41.2071 44.1423 40.941 43.4725 40.941C42.8028 40.941 42.1605 41.2071 41.6869 41.6807C41.2133 42.1542 40.9473 42.7965 40.9473 43.4663C40.9473 44.136 41.2133 44.7783 41.6869 45.2519C42.1605 45.7255 42.8028 45.9915 43.4725 45.9915ZM33.3715 33.3653C33.3715 34.035 33.1055 34.6773 32.6319 35.1509C32.1583 35.6245 31.516 35.8905 30.8463 35.8905C30.1765 35.8905 29.5342 35.6245 29.0607 35.1509C28.5871 34.6773 28.321 34.035 28.321 33.3653C28.321 32.6955 28.5871 32.0532 29.0607 31.5797C29.5342 31.1061 30.1765 30.84 30.8463 30.84C31.516 30.84 32.1583 31.1061 32.6319 31.5797C33.1055 32.0532 33.3715 32.6955 33.3715 33.3653ZM33.3715 43.4663C33.3715 44.136 33.1055 44.7783 32.6319 45.2519C32.1583 45.7255 31.516 45.9915 30.8463 45.9915C30.1765 45.9915 29.5342 45.7255 29.0607 45.2519C28.5871 44.7783 28.321 44.136 28.321 43.4663C28.321 42.7965 28.5871 42.1542 29.0607 41.6807C29.5342 41.2071 30.1765 40.941 30.8463 40.941C31.516 40.941 32.1583 41.2071 32.6319 41.6807C33.1055 42.1542 33.3715 42.7965 33.3715 43.4663ZM18.22 35.8905C18.8898 35.8905 19.5321 35.6245 20.0056 35.1509C20.4792 34.6773 20.7453 34.035 20.7453 33.3653C20.7453 32.6955 20.4792 32.0532 20.0056 31.5797C19.5321 31.1061 18.8898 30.84 18.22 30.84C17.5503 30.84 16.908 31.1061 16.4344 31.5797C15.9608 32.0532 15.6948 32.6955 15.6948 33.3653C15.6948 34.035 15.9608 34.6773 16.4344 35.1509C16.908 35.6245 17.5503 35.8905 18.22 35.8905ZM18.22 45.9915C18.8898 45.9915 19.5321 45.7255 20.0056 45.2519C20.4792 44.7783 20.7453 44.136 20.7453 43.4663C20.7453 42.7965 20.4792 42.1542 20.0056 41.6807C19.5321 41.2071 18.8898 40.941 18.22 40.941C17.5503 40.941 16.908 41.2071 16.4344 41.6807C15.9608 42.1542 15.6948 42.7965 15.6948 43.4663C15.6948 44.136 15.9608 44.7783 16.4344 45.2519C16.908 45.7255 17.5503 45.9915 18.22 45.9915Z" fill="#0CAF6F"/>
</svg>
