<svg width="53" height="53" viewBox="0 0 53 53" fill="none" xmlns="http://www.w3.org/2000/svg">
    <path
        d="M18.1266 11.5336C18.1266 9.34854 18.9946 7.25301 20.5397 5.70796C22.0847 4.16292 24.1802 3.29492 26.3653 3.29492C28.5503 3.29492 30.6458 4.16292 32.1908 5.70796C33.7359 7.25301 34.6039 9.34854 34.6039 11.5336C34.6039 13.7186 33.7359 15.8141 32.1908 17.3592C30.6458 18.9042 28.5503 19.7722 26.3653 19.7722C24.1802 19.7722 22.0847 18.9042 20.5397 17.3592C18.9946 15.8141 18.1266 13.7186 18.1266 11.5336ZM21.4221 23.0676C20.1111 23.0676 18.8537 23.5884 17.9267 24.5155C16.9997 25.4425 16.4789 26.6998 16.4789 28.0108V36.2495C16.4789 38.8715 17.5205 41.3861 19.3745 43.2402C21.2286 45.0942 23.7432 46.1358 26.3653 46.1358C28.9873 46.1358 31.5019 45.0942 33.356 43.2402C35.21 41.3861 36.2516 38.8715 36.2516 36.2495V28.0108C36.2516 26.6998 35.7308 25.4425 34.8038 24.5155C33.8768 23.5884 32.6194 23.0676 31.3084 23.0676H21.4221ZM13.368 26.2642C13.2444 26.8382 13.1825 27.4237 13.1834 28.0108V36.2495C13.1831 38.0132 13.5367 39.7591 14.2234 41.3837C14.91 43.0083 15.9157 44.4785 17.1808 45.7074L16.8513 45.7997C14.3193 46.4771 11.6219 46.1214 9.35216 44.8107C7.08238 43.5 5.42597 41.3416 4.74707 38.81L3.46514 34.0316C3.2972 33.4045 3.25443 32.7505 3.33926 32.1069C3.42409 31.4633 3.63487 30.8427 3.95955 30.2806C4.28423 29.7184 4.71646 29.2257 5.23155 28.8306C5.74665 28.4355 6.33453 28.1458 6.96162 27.9779L13.368 26.2642ZM35.5464 45.7074C36.8121 44.4788 37.8184 43.0087 38.5056 41.3841C39.1928 39.7594 39.547 38.0134 39.5471 36.2495V28.0108C39.5449 27.4089 39.4834 26.8267 39.3625 26.2642L45.7656 27.9779C46.393 28.1457 46.9812 28.4356 47.4966 28.831C48.012 29.2263 48.4444 29.7193 48.7691 30.2818C49.0938 30.8443 49.3045 31.4653 49.3891 32.1093C49.4736 32.7533 49.4305 33.4076 49.2621 34.0349L47.9834 38.81C47.64 40.0916 47.0422 41.2909 46.2255 42.3366C45.4088 43.3822 44.39 44.2528 43.2298 44.8964C42.0695 45.54 40.7916 45.9435 39.4722 46.0828C38.1527 46.2222 36.8155 46.0945 35.5464 45.7074ZM3.29707 16.4767C3.29707 14.7287 3.99147 13.0523 5.2275 11.8163C6.46354 10.5802 8.13996 9.88583 9.88798 9.88583C11.636 9.88583 13.3124 10.5802 14.5485 11.8163C15.7845 13.0523 16.4789 14.7287 16.4789 16.4767C16.4789 18.2248 15.7845 19.9012 14.5485 21.1372C13.3124 22.3733 11.636 23.0676 9.88798 23.0676C8.13996 23.0676 6.46354 22.3733 5.2275 21.1372C3.99147 19.9012 3.29707 18.2248 3.29707 16.4767ZM36.2516 16.4767C36.2516 14.7287 36.946 13.0523 38.182 11.8163C39.4181 10.5802 41.0945 9.88583 42.8425 9.88583C44.5905 9.88583 46.267 10.5802 47.503 11.8163C48.739 13.0523 49.4334 14.7287 49.4334 16.4767C49.4334 18.2248 48.739 19.9012 47.503 21.1372C46.267 22.3733 44.5905 23.0676 42.8425 23.0676C41.0945 23.0676 39.4181 22.3733 38.182 21.1372C36.946 19.9012 36.2516 18.2248 36.2516 16.4767Z"
        fill="#0CAF6F" />
</svg>