<svg width="61" height="62" viewBox="0 0 61 62" fill="none" xmlns="http://www.w3.org/2000/svg">
<path d="M32.989 6.76415C33.1744 6.58748 33.3936 6.45023 33.6335 6.36071C33.8735 6.27119 34.129 6.23125 34.3848 6.24331C45.5894 6.76793 54.5799 15.7585 55.1045 26.963C55.1166 27.219 55.0765 27.4747 54.9869 27.7147C54.8972 27.9547 54.7598 28.1741 54.5829 28.3595C54.4061 28.5448 54.1934 28.6924 53.9578 28.7932C53.7223 28.894 53.4687 28.946 53.2125 28.946H34.2958C33.7935 28.946 33.3118 28.7464 32.9566 28.3912C32.6014 28.0361 32.4019 27.5543 32.4019 27.052V8.13536C32.4018 7.87896 32.4538 7.62522 32.5548 7.38952C32.6557 7.15382 32.8034 6.94106 32.989 6.76415ZM28.0269 12.446C28.2125 12.6229 28.3602 12.8356 28.4611 13.0713C28.562 13.307 28.614 13.5608 28.614 13.8172V27.999C28.614 29.2548 29.1128 30.4591 30.0008 31.347C30.8888 32.235 32.0931 32.7338 33.3488 32.7338H47.5307C47.787 32.7336 48.0408 32.7853 48.2766 32.886C48.5124 32.9867 48.7253 33.1343 48.9024 33.3197C49.0794 33.5051 49.217 33.7245 49.3068 33.9647C49.3966 34.2048 49.4366 34.4607 49.4246 34.7168C48.8791 46.266 39.3469 55.4611 27.667 55.4611C15.6386 55.4611 5.88672 45.7092 5.88672 33.6808C5.88672 21.999 15.0818 12.4668 26.631 11.9251C26.8868 11.9131 27.1424 11.953 27.3823 12.0425C27.6222 12.1321 27.8415 12.2693 28.0269 12.446Z" fill="#0CAF6F"/>
</svg>
