<svg width="62" height="62" viewBox="0 0 62 62" fill="none" xmlns="http://www.w3.org/2000/svg">
<path d="M52.0092 10.0068H10.3426C9.33796 10.0068 8.3745 10.4059 7.66413 11.1163C6.95377 11.8266 6.55469 12.7901 6.55469 13.7947V47.8856C6.55469 48.8902 6.95377 49.8537 7.66413 50.5641C8.3745 51.2744 9.33796 51.6735 10.3426 51.6735H13.5125C13.871 51.6736 14.2221 51.572 14.5251 51.3805C14.8281 51.189 15.0705 50.9154 15.2242 50.5916C16.1452 48.6472 17.5992 47.0042 19.4172 45.8536C21.2353 44.7031 23.3426 44.0923 25.4941 44.0923C27.6456 44.0923 29.7529 44.7031 31.5709 45.8536C33.3889 47.0042 34.843 48.6472 35.764 50.5916C35.9177 50.9154 36.1601 51.189 36.4631 51.3805C36.7661 51.572 37.1172 51.6736 37.4756 51.6735H52.0092C53.0138 51.6735 53.9773 51.2744 54.6877 50.5641C55.398 49.8537 55.7971 48.8902 55.7971 47.8856V13.7947C55.7971 12.7901 55.398 11.8266 54.6877 11.1163C53.9773 10.4059 53.0138 10.0068 52.0092 10.0068ZM25.4941 40.3099C23.9957 40.3099 22.531 39.8656 21.2852 39.0331C20.0394 38.2007 19.0684 37.0175 18.495 35.6332C17.9216 34.2489 17.7716 32.7257 18.0639 31.2562C18.3562 29.7866 19.0777 28.4367 20.1372 27.3772C21.1967 26.3178 22.5466 25.5962 24.0161 25.3039C25.4857 25.0116 27.0089 25.1616 28.3932 25.735C29.7775 26.3084 30.9607 27.2794 31.7931 28.5252C32.6255 29.7711 33.0698 31.2358 33.0698 32.7341C33.0698 34.7433 32.2717 36.6702 30.851 38.091C29.4302 39.5117 27.5033 40.3099 25.4941 40.3099ZM52.0092 47.8856H38.6167C37.7908 46.4622 36.7385 45.1828 35.5012 44.0977H46.3274C46.8297 44.0977 47.3115 43.8982 47.6666 43.543C48.0218 43.1878 48.2214 42.7061 48.2214 42.2038V19.4765C48.2214 18.9742 48.0218 18.4925 47.6666 18.1373C47.3115 17.7821 46.8297 17.5826 46.3274 17.5826H16.0244C15.5221 17.5826 15.0403 17.7821 14.6852 18.1373C14.33 18.4925 14.1304 18.9742 14.1304 19.4765V42.2038C14.1302 42.6239 14.2697 43.032 14.5268 43.3642C14.7839 43.6963 15.1442 43.9336 15.5509 44.0386C14.2848 45.1354 13.2102 46.4356 12.3714 47.8856H10.3426V13.7947H52.0092V47.8856Z" fill="#0CAF6F"/>
</svg>
