<svg width="53" height="53" viewBox="0 0 53 53" fill="none" xmlns="http://www.w3.org/2000/svg">
    <g clip-path="url(#clip0_1741_33)">
        <path
            d="M47.7823 13.1808V9.8853C47.7823 9.01129 47.4351 8.17308 46.8171 7.55506C46.1991 6.93704 45.3609 6.58984 44.4869 6.58984H8.23686C7.36285 6.58984 6.52464 6.93704 5.90662 7.55506C5.2886 8.17308 4.94141 9.01129 4.94141 9.8853V13.1808C4.94141 14.0548 5.2886 14.893 5.90662 15.511C6.52464 16.129 7.36285 16.4762 8.23686 16.4762V36.2489H6.58913C6.15213 36.2489 5.73302 36.4225 5.42401 36.7315C5.11501 37.0406 4.94141 37.4597 4.94141 37.8967C4.94141 38.3337 5.11501 38.7528 5.42401 39.0618C5.73302 39.3708 6.15213 39.5444 6.58913 39.5444H24.7141V43.1241C23.6147 43.5128 22.6882 44.2776 22.0982 45.2834C21.5081 46.2892 21.2927 47.4712 21.4899 48.6205C21.6871 49.7697 22.2842 50.8123 23.1757 51.5639C24.0673 52.3155 25.1958 52.7277 26.3619 52.7277C27.5279 52.7277 28.6565 52.3155 29.548 51.5639C30.4395 50.8123 31.0367 49.7697 31.2339 48.6205C31.431 47.4712 31.2156 46.2892 30.6256 45.2834C30.0356 44.2776 29.109 43.5128 28.0096 43.1241V39.5444H46.1346C46.5716 39.5444 46.9907 39.3708 47.2997 39.0618C47.6087 38.7528 47.7823 38.3337 47.7823 37.8967C47.7823 37.4597 47.6087 37.0406 47.2997 36.7315C46.9907 36.4225 46.5716 36.2489 46.1346 36.2489H44.4869V16.4762C45.3609 16.4762 46.1991 16.129 46.8171 15.511C47.4351 14.893 47.7823 14.0548 47.7823 13.1808ZM26.3619 49.4308C26.036 49.4308 25.7174 49.3341 25.4464 49.1531C25.1755 48.972 24.9643 48.7147 24.8396 48.4136C24.7148 48.1125 24.6822 47.7812 24.7458 47.4616C24.8094 47.1419 24.9663 46.8483 25.1967 46.6179C25.4272 46.3875 25.7208 46.2305 26.0404 46.167C26.36 46.1034 26.6913 46.136 26.9924 46.2607C27.2935 46.3854 27.5508 46.5966 27.7319 46.8676C27.913 47.1386 28.0096 47.4571 28.0096 47.783C28.0096 48.22 27.836 48.6391 27.527 48.9482C27.218 49.2572 26.7989 49.4308 26.3619 49.4308ZM8.23686 9.8853H44.4869V13.1808H8.23686V9.8853Z"
            fill="#0CAF6F" />
    </g>
    <defs>
        <clipPath id="clip0_1741_33">
            <rect width="52.7273" height="52.7273" fill="white" transform="translate(0 -0.000976562)" />
        </clipPath>
    </defs>
</svg>