<svg width="32" height="32" viewBox="0 0 32 32" fill="none" xmlns="http://www.w3.org/2000/svg">
<path d="M0 4C0 1.79086 1.79086 0 4 0H28C30.2091 0 32 1.79086 32 4V28C32 30.2091 30.2091 32 28 32H4C1.79086 32 0 30.2091 0 28V4Z" fill="#F49D07"/>
<path d="M8 28C7.45 28 6.97917 27.8042 6.5875 27.4125C6.19583 27.0208 6 26.55 6 26C6 25.45 6.19583 24.9792 6.5875 24.5875C6.97917 24.1958 7.45 24 8 24H24C24.55 24 25.0208 24.1958 25.4125 24.5875C25.8042 24.9792 26 25.45 26 26C26 26.55 25.8042 27.0208 25.4125 27.4125C25.0208 27.8042 24.55 28 24 28H8ZM8 21V18.175C8 18.0417 8.025 17.9125 8.075 17.7875C8.125 17.6625 8.2 17.55 8.3 17.45L19.2 6.575C19.3833 6.39167 19.5958 6.25 19.8375 6.15C20.0792 6.05 20.3333 6 20.6 6C20.8667 6 21.125 6.05 21.375 6.15C21.625 6.25 21.85 6.4 22.05 6.6L23.425 8C23.625 8.18333 23.7708 8.4 23.8625 8.65C23.9542 8.9 24 9.15833 24 9.425C24 9.675 23.9542 9.92083 23.8625 10.1625C23.7708 10.4042 23.625 10.625 23.425 10.825L12.55 21.7C12.45 21.8 12.3375 21.875 12.2125 21.925C12.0875 21.975 11.9583 22 11.825 22H9C8.71667 22 8.47917 21.9042 8.2875 21.7125C8.09583 21.5208 8 21.2833 8 21ZM20.6 10.8L22 9.4L20.6 8L19.2 9.4L20.6 10.8Z" fill="white"/>
</svg>
