<svg width="228" height="228" viewBox="0 0 228 228" fill="none" xmlns="http://www.w3.org/2000/svg">
<circle cx="114" cy="114" r="114" fill="#F0FAF0"/>
<circle cx="114" cy="114" r="82" fill="#B6E4B2"/>
<circle cx="114" cy="114" r="41" fill="#6DC965"/>
<path d="M97.25 94.4998C97.25 87.3295 103.08 81.4998 110.25 81.4998H116.75C123.92 81.4998 129.75 87.3295 129.75 94.4998V95.2311C129.75 99.6592 127.495 103.783 123.778 106.159L115.206 111.664C112.689 113.282 110.619 115.506 109.185 118.132C107.752 120.759 107 123.703 107 126.695V126.979C107 130.575 109.905 133.479 113.5 133.479C117.095 133.479 120 130.575 120 126.979V126.695C120 125.029 120.853 123.486 122.234 122.592L130.806 117.087C138.241 112.294 142.75 104.067 142.75 95.2107V94.4795C142.75 80.1186 131.111 68.4795 116.75 68.4795H110.25C95.8891 68.4998 84.25 80.1389 84.25 94.4998C84.25 98.0951 87.1547 101 90.75 101C94.3453 101 97.25 98.0951 97.25 94.4998ZM113.5 159.5C115.655 159.5 117.722 158.644 119.245 157.12C120.769 155.596 121.625 153.53 121.625 151.375C121.625 149.22 120.769 147.153 119.245 145.63C117.722 144.106 115.655 143.25 113.5 143.25C111.345 143.25 109.278 144.106 107.755 145.63C106.231 147.153 105.375 149.22 105.375 151.375C105.375 153.53 106.231 155.596 107.755 157.12C109.278 158.644 111.345 159.5 113.5 159.5Z" fill="white"/>
</svg>
