<svg width="18" height="18" viewBox="0 0 18 18" fill="none" xmlns="http://www.w3.org/2000/svg">
<path d="M6.16854 11.8294L11.8255 6.17245M4.04654 8.29345L2.63254 9.70745C2.2611 10.0789 1.96645 10.5199 1.76543 11.0052C1.5644 11.4905 1.46094 12.0106 1.46094 12.5359C1.46094 13.0612 1.5644 13.5814 1.76543 14.0667C1.96645 14.552 2.2611 14.993 2.63254 15.3644C3.00398 15.7359 3.44495 16.0305 3.93027 16.2316C4.41558 16.4326 4.93574 16.536 5.46104 16.536C5.98634 16.536 6.5065 16.4326 6.99181 16.2316C7.47713 16.0305 7.9181 15.7359 8.28954 15.3644L9.70154 13.9504M8.28854 4.05045L9.70254 2.63645C10.074 2.265 10.515 1.97036 11.0003 1.76933C11.4856 1.56831 12.0057 1.46484 12.531 1.46484C13.0563 1.46484 13.5765 1.56831 14.0618 1.76933C14.5471 1.97036 14.9881 2.265 15.3595 2.63645C15.731 3.00789 16.0256 3.44886 16.2267 3.93417C16.4277 4.41949 16.5311 4.93965 16.5311 5.46495C16.5311 5.99025 16.4277 6.51041 16.2267 6.99572C16.0256 7.48104 15.731 7.922 15.3595 8.29345L13.9455 9.70745" stroke="#737373" stroke-width="2" stroke-linecap="round" stroke-linejoin="round"/>
</svg>
