<svg width="22" height="19" viewBox="0 0 22 19" fill="none" xmlns="http://www.w3.org/2000/svg">
<path d="M11 18.5503C10.8167 18.5503 10.6375 18.5253 10.4625 18.4753C10.2875 18.4253 10.125 18.3586 9.975 18.2753C9.29167 17.8586 8.575 17.5419 7.825 17.3253C7.075 17.1086 6.3 17.0003 5.5 17.0003C4.8 17.0003 4.1125 17.0919 3.4375 17.2753C2.7625 17.4586 2.11667 17.7169 1.5 18.0503C1.15 18.2336 0.8125 18.2253 0.4875 18.0253C0.1625 17.8253 0 17.5336 0 17.1503V5.10026C0 4.91693 0.0458333 4.74193 0.1375 4.57526C0.229167 4.40859 0.366667 4.28359 0.55 4.20026C1.31667 3.80026 2.11667 3.50026 2.95 3.30026C3.78333 3.10026 4.63333 3.00026 5.5 3.00026C6.46667 3.00026 7.4125 3.12526 8.3375 3.37526C9.2625 3.62526 10.15 4.00026 11 4.50026V16.6003C11.85 16.0669 12.7417 15.6669 13.675 15.4003C14.6083 15.1336 15.55 15.0003 16.5 15.0003C17.1 15.0003 17.6875 15.0503 18.2625 15.1503C18.8375 15.2503 19.4167 15.4003 20 15.6003V3.60026C20.25 3.68359 20.4958 3.77109 20.7375 3.86276C20.9792 3.95443 21.2167 4.06693 21.45 4.20026C21.6333 4.28359 21.7708 4.40859 21.8625 4.57526C21.9542 4.74193 22 4.91693 22 5.10026V17.1503C22 17.5336 21.8375 17.8253 21.5125 18.0253C21.1875 18.2253 20.85 18.2336 20.5 18.0503C19.8833 17.7169 19.2375 17.4586 18.5625 17.2753C17.8875 17.0919 17.2 17.0003 16.5 17.0003C15.7 17.0003 14.925 17.1086 14.175 17.3253C13.425 17.5419 12.7083 17.8586 12.025 18.2753C11.875 18.3586 11.7125 18.4253 11.5375 18.4753C11.3625 18.5253 11.1833 18.5503 11 18.5503ZM13.825 13.2503C13.6583 13.4003 13.4792 13.4294 13.2875 13.3378C13.0958 13.2461 13 13.0919 13 12.8753V4.70026C13 4.63359 13.0125 4.57109 13.0375 4.51276C13.0625 4.45443 13.1 4.40026 13.15 4.35026L17.15 0.35026C17.3167 0.183594 17.5 0.141927 17.7 0.22526C17.9 0.308594 18 0.466927 18 0.70026V9.27526C18 9.35859 17.9833 9.42943 17.95 9.48776C17.9167 9.54609 17.875 9.60026 17.825 9.65026L13.825 13.2503Z" fill="#737373"/>
</svg>
