<svg width="18" height="20" viewBox="0 0 18 20" fill="none" xmlns="http://www.w3.org/2000/svg">
<path d="M2 20C1.45 20 0.979333 19.8043 0.588 19.413C0.196667 19.0217 0.000666667 18.5507 0 18V4C0 3.45 0.196 2.97933 0.588 2.588C0.98 2.19667 1.45067 2.00067 2 2H6.2C6.41667 1.4 6.77933 0.916667 7.288 0.55C7.79667 0.183333 8.36733 0 9 0C9.63267 0 10.2037 0.183333 10.713 0.55C11.2223 0.916667 11.5847 1.4 11.8 2H16C16.55 2 17.021 2.196 17.413 2.588C17.805 2.98 18.0007 3.45067 18 4V18C18 18.55 17.8043 19.021 17.413 19.413C17.0217 19.805 16.5507 20.0007 16 20H2ZM9 3.25C9.21667 3.25 9.396 3.179 9.538 3.037C9.68 2.895 9.75067 2.716 9.75 2.5C9.74933 2.284 9.67833 2.105 9.537 1.963C9.39567 1.821 9.21667 1.75 9 1.75C8.78333 1.75 8.60433 1.821 8.463 1.963C8.32167 2.105 8.25067 2.284 8.25 2.5C8.24933 2.716 8.32033 2.89533 8.463 3.038C8.60567 3.18067 8.78467 3.25133 9 3.25ZM4.5 16H5.7C5.83333 16 5.96267 15.9707 6.088 15.912C6.21333 15.8533 6.31733 15.7827 6.4 15.7L12.1 10.05L9.95 7.9L4.3 13.55C4.2 13.65 4.125 13.7623 4.075 13.887C4.025 14.0117 4 14.1413 4 14.276V15.5C4 15.6333 4.05 15.75 4.15 15.85C4.25 15.95 4.36667 16 4.5 16ZM12.8 9.35L13.85 8.25C13.95 8.15 14 8.03333 14 7.9C14 7.76667 13.95 7.65 13.85 7.55L12.45 6.15C12.35 6.05 12.2333 6 12.1 6C11.9667 6 11.85 6.05 11.75 6.15L10.65 7.2L12.8 9.35Z" fill="#737373"/>
</svg>
