<svg width="20" height="17" viewBox="0 0 20 17" fill="none" xmlns="http://www.w3.org/2000/svg">
<path d="M15 11.5C14.3 11.5 13.7083 11.2583 13.225 10.775C12.7417 10.2917 12.5 9.7 12.5 9C12.5 8.3 12.7417 7.70833 13.225 7.225C13.7083 6.74167 14.3 6.5 15 6.5C15.7 6.5 16.2917 6.74167 16.775 7.225C17.2583 7.70833 17.5 8.3 17.5 9C17.5 9.7 17.2583 10.2917 16.775 10.775C16.2917 11.2583 15.7 11.5 15 11.5ZM11 16.5C10.7167 16.5 10.4792 16.4042 10.2875 16.2125C10.0958 16.0208 10 15.7833 10 15.5V15.1C10 14.7 10.1042 14.3292 10.3125 13.9875C10.5208 13.6458 10.8167 13.4 11.2 13.25C11.8 13 12.4208 12.8125 13.0625 12.6875C13.7042 12.5625 14.35 12.5 15 12.5C15.65 12.5 16.2958 12.5625 16.9375 12.6875C17.5792 12.8125 18.2 13 18.8 13.25C19.1833 13.4 19.4792 13.6458 19.6875 13.9875C19.8958 14.3292 20 14.7 20 15.1V15.5C20 15.7833 19.9042 16.0208 19.7125 16.2125C19.5208 16.4042 19.2833 16.5 19 16.5H11ZM8 8.5C6.9 8.5 5.95833 8.10833 5.175 7.325C4.39167 6.54167 4 5.6 4 4.5C4 3.4 4.39167 2.45833 5.175 1.675C5.95833 0.891667 6.9 0.5 8 0.5C9.1 0.5 10.0417 0.891667 10.825 1.675C11.6083 2.45833 12 3.4 12 4.5C12 5.6 11.6083 6.54167 10.825 7.325C10.0417 8.10833 9.1 8.5 8 8.5ZM0 13.7C0 13.1333 0.141667 12.6125 0.425 12.1375C0.708333 11.6625 1.1 11.3 1.6 11.05C2.6 10.55 3.6375 10.1667 4.7125 9.9C5.7875 9.63333 6.88333 9.5 8 9.5C8.58333 9.5 9.16667 9.55 9.75 9.65C10.3333 9.75 10.9167 9.86667 11.5 10L9.8 11.7C9.38333 12.1167 8.97917 12.5417 8.5875 12.975C8.19583 13.4083 8 13.9167 8 14.5V15.475C8 15.675 8.0375 15.8625 8.1125 16.0375C8.1875 16.2125 8.30833 16.3667 8.475 16.5H2C1.45 16.5 0.979167 16.3042 0.5875 15.9125C0.195833 15.5208 0 15.05 0 14.5V13.7Z" fill="#737373"/>
</svg>
