<svg width="32" height="32" viewBox="0 0 32 32" fill="none" xmlns="http://www.w3.org/2000/svg">
<path d="M0 4C0 1.79086 1.79086 0 4 0H28C30.2091 0 32 1.79086 32 4V28C32 30.2091 30.2091 32 28 32H4C1.79086 32 0 30.2091 0 28V4Z" fill="#0CAF6F"/>
<path fill-rule="evenodd" clip-rule="evenodd" d="M16 9.25C16.3978 9.25 16.7794 9.09196 17.0607 8.81066C17.342 8.52936 17.5 8.14782 17.5 7.75C17.5 7.35218 17.342 6.97064 17.0607 6.68934C16.7794 6.40804 16.3978 6.25 16 6.25C15.6022 6.25 15.2206 6.40804 14.9393 6.68934C14.658 6.97064 14.5 7.35218 14.5 7.75C14.5 8.14782 14.658 8.52936 14.9393 8.81066C15.2206 9.09196 15.6022 9.25 16 9.25ZM16 4C16.8645 3.99982 17.7025 4.29834 18.3722 4.84502C19.0419 5.3917 19.5021 6.15298 19.675 7H23.5C23.8978 7 24.2794 7.15804 24.5607 7.43934C24.842 7.72064 25 8.10218 25 8.5V26.5C25 26.8978 24.842 27.2794 24.5607 27.5607C24.2794 27.842 23.8978 28 23.5 28H8.5C8.10218 28 7.72064 27.842 7.43934 27.5607C7.15804 27.2794 7 26.8978 7 26.5V8.5C7 8.10218 7.15804 7.72064 7.43934 7.43934C7.72064 7.15804 8.10218 7 8.5 7H12.325C12.4979 6.15298 12.9581 5.3917 13.6278 4.84502C14.2975 4.29834 15.1355 3.99982 16 4ZM14.5 11.5H19.75V9.25H22.75V25.75H9.25V9.25H12.25V11.5H14.5ZM19.795 16.42C19.9055 16.317 19.9942 16.1928 20.0557 16.0548C20.1172 15.9168 20.1502 15.7678 20.1529 15.6168C20.1556 15.4657 20.1278 15.3157 20.0712 15.1756C20.0146 15.0355 19.9304 14.9083 19.8236 14.8014C19.7167 14.6946 19.5895 14.6104 19.4494 14.5538C19.3093 14.4972 19.1593 14.4694 19.0082 14.4721C18.8572 14.4748 18.7082 14.5078 18.5702 14.5693C18.4322 14.6308 18.308 14.7195 18.205 14.83L15.25 17.785L14.545 17.08C14.3317 16.8813 14.0497 16.7731 13.7582 16.7782C13.4668 16.7834 13.1887 16.9014 12.9826 17.1076C12.7764 17.3137 12.6584 17.5918 12.6532 17.8832C12.6481 18.1747 12.7563 18.4567 12.955 18.67L14.455 20.17C14.6659 20.3807 14.9519 20.499 15.25 20.499C15.5481 20.499 15.8341 20.3807 16.045 20.17L19.795 16.42Z" fill="white"/>
</svg>
