<svg width="32" height="32" viewBox="0 0 32 32" fill="none" xmlns="http://www.w3.org/2000/svg">
<path d="M0 4C0 1.79086 1.79086 0 4 0H28C30.2091 0 32 1.79086 32 4V28C32 30.2091 30.2091 32 28 32H4C1.79086 32 0 30.2091 0 28V4Z" fill="#2663FF"/>
<path d="M15.9984 20C17.2484 20 18.3109 19.5625 19.1859 18.6875C20.0609 17.8125 20.4984 16.75 20.4984 15.5C20.4984 14.25 20.0609 13.1875 19.1859 12.3125C18.3109 11.4375 17.2484 11 15.9984 11C14.7484 11 13.6859 11.4375 12.8109 12.3125C11.9359 13.1875 11.4984 14.25 11.4984 15.5C11.4984 16.75 11.9359 17.8125 12.8109 18.6875C13.6859 19.5625 14.7484 20 15.9984 20ZM15.9984 18.2C15.2484 18.2 14.6109 17.9375 14.0859 17.4125C13.5609 16.8875 13.2984 16.25 13.2984 15.5C13.2984 14.75 13.5609 14.1125 14.0859 13.5875C14.6109 13.0625 15.2484 12.8 15.9984 12.8C16.7484 12.8 17.3859 13.0625 17.9109 13.5875C18.4359 14.1125 18.6984 14.75 18.6984 15.5C18.6984 16.25 18.4359 16.8875 17.9109 17.4125C17.3859 17.9375 16.7484 18.2 15.9984 18.2ZM15.9984 23C13.7651 23 11.7276 22.4 9.88594 21.2C8.04427 20 6.5901 18.4167 5.52344 16.45C5.4401 16.3 5.3776 16.1458 5.33594 15.9875C5.29427 15.8292 5.27344 15.6667 5.27344 15.5C5.27344 15.3333 5.29427 15.1708 5.33594 15.0125C5.3776 14.8542 5.4401 14.7 5.52344 14.55C6.5901 12.5833 8.04427 11 9.88594 9.8C11.7276 8.6 13.7651 8 15.9984 8C18.2318 8 20.2693 8.6 22.1109 9.8C23.9526 11 25.4068 12.5833 26.4734 14.55C26.5568 14.7 26.6193 14.8542 26.6609 15.0125C26.7026 15.1708 26.7234 15.3333 26.7234 15.5C26.7234 15.6667 26.7026 15.8292 26.6609 15.9875C26.6193 16.1458 26.5568 16.3 26.4734 16.45C25.4068 18.4167 23.9526 20 22.1109 21.2C20.2693 22.4 18.2318 23 15.9984 23Z" fill="#F3F4F6"/>
</svg>
