<svg width="24" height="19" viewBox="0 0 24 19" fill="none" xmlns="http://www.w3.org/2000/svg">
<path d="M22 0.3125H2C0.895833 0.3125 0 1.19434 0 2.28125V16.7188C0 17.8057 0.895833 18.6875 2 18.6875H22C23.1042 18.6875 24 17.8057 24 16.7188V2.28125C24 1.19434 23.1042 0.3125 22 0.3125ZM7.33333 4.25C8.80417 4.25 10 5.42715 10 6.875C10 8.32285 8.80417 9.5 7.33333 9.5C5.8625 9.5 4.66667 8.32285 4.66667 6.875C4.66667 5.42715 5.8625 4.25 7.33333 4.25ZM12 13.9625C12 14.3973 11.5833 14.75 11.0667 14.75H3.6C3.08333 14.75 2.66667 14.3973 2.66667 13.9625V13.175C2.66667 11.8707 3.92083 10.8125 5.46667 10.8125H5.675C6.1875 11.0217 6.74583 11.1406 7.33333 11.1406C7.92083 11.1406 8.48333 11.0217 8.99167 10.8125H9.2C10.7458 10.8125 12 11.8707 12 13.175V13.9625ZM21.3333 11.7969C21.3333 11.9773 21.1833 12.125 21 12.125H15C14.8167 12.125 14.6667 11.9773 14.6667 11.7969V11.1406C14.6667 10.9602 14.8167 10.8125 15 10.8125H21C21.1833 10.8125 21.3333 10.9602 21.3333 11.1406V11.7969ZM21.3333 9.17188C21.3333 9.35234 21.1833 9.5 21 9.5H15C14.8167 9.5 14.6667 9.35234 14.6667 9.17188V8.51562C14.6667 8.33516 14.8167 8.1875 15 8.1875H21C21.1833 8.1875 21.3333 8.33516 21.3333 8.51562V9.17188ZM21.3333 6.54688C21.3333 6.72734 21.1833 6.875 21 6.875H15C14.8167 6.875 14.6667 6.72734 14.6667 6.54688V5.89062C14.6667 5.71016 14.8167 5.5625 15 5.5625H21C21.1833 5.5625 21.3333 5.71016 21.3333 5.89062V6.54688Z" fill="#737373"/>
</svg>
