<svg width="24" height="14" viewBox="0 0 24 14" fill="none" xmlns="http://www.w3.org/2000/svg">
<path fill-rule="evenodd" clip-rule="evenodd" d="M2.175 0.000976562C0.972 0.000976562 0 0.972976 0 2.17448V9.65348C0 12.0535 1.947 14.0005 4.347 14.0005H14.826C16.026 14.0005 17.001 13.027 17.001 11.8255V4.34948C17.0006 3.1963 16.5423 2.09048 15.7269 1.27506C14.9115 0.459646 13.8057 0.00137414 12.6525 0.000976562H2.175ZM24 1.96448V12.037C24 12.853 23.073 13.327 22.4115 12.8455L19.323 10.5985C19.0677 10.4132 18.8599 10.1701 18.7168 9.88902C18.5736 9.60794 18.4992 9.29692 18.4995 8.98148V5.01848C18.4995 4.37798 18.8055 3.77798 19.3245 3.40148L22.4115 1.15448C22.5608 1.04602 22.7372 0.980966 22.9212 0.966524C23.1052 0.952081 23.2896 0.988809 23.454 1.07264C23.6184 1.15648 23.7564 1.28415 23.8528 1.44155C23.9491 1.59894 24.0001 1.77993 24 1.96448Z" fill="#737373"/>
</svg>
