<svg width="24" height="24" viewBox="0 0 24 24" fill="none" xmlns="http://www.w3.org/2000/svg">
<g clip-path="url(#clip0_1254_61149)">
<path d="M14.6284 7.28809H12.6094V16.713H14.6284C15.7417 16.713 16.6481 15.8422 16.6481 14.7727V9.22871C16.6481 8.15884 15.7417 7.28809 14.6284 7.28809Z" fill="#737373"/>
<path d="M19.5 0.75H4.5C2.42888 0.75 0.75 2.42888 0.75 4.5V19.5C0.75 21.5711 2.42888 23.25 4.5 23.25H19.5C21.5711 23.25 23.25 21.5711 23.25 19.5V4.5C23.25 2.42888 21.5711 0.75 19.5 0.75ZM8.625 18.375H7.125V5.625H8.625V18.375ZM18.375 14.7724C18.3752 15.2551 18.2747 15.7325 18.0799 16.1741C17.8895 16.6049 17.6165 16.9941 17.2762 17.3198C16.9318 17.6507 16.5273 17.9127 16.0845 18.0919C15.6209 18.2799 15.1252 18.376 14.625 18.375H10.875V5.625H14.625C15.1305 5.625 15.6214 5.72025 16.0849 5.90775C16.5311 6.08925 16.9324 6.34875 17.2766 6.67987C17.6209 7.011 17.8909 7.39687 18.0803 7.82475C18.2747 8.26715 18.3751 8.74513 18.375 9.22837V14.7724Z" fill="#737373"/>
</g>
<defs>
<clipPath id="clip0_1254_61149">
<rect width="24" height="24" fill="white"/>
</clipPath>
</defs>
</svg>
